<?xml version="1.0" encoding="UTF-8"?>
<svg version="1.1" viewBox="0 0 16 16" xmlns="http://www.w3.org/2000/svg">
<rect transform="scale(-1,1)" x="-4" y="5" width="1" height="6" style="fill:#f1f2f2"/>
<rect transform="matrix(0,1,1,0,0,0)" x="11" y="4" width="1" height="2" style="fill:#f1f2f2"/>
<rect transform="scale(1,-1)" x="6" y="-11" width="1" height="6" style="fill:#f1f2f2"/>
<path d="m6 12 1-1h-1z" style="fill:#f1f2f2"/>
<rect transform="rotate(-90)" x="-6" y="9" width="1" height="3" style="fill:#f1f2f2"/>
<rect transform="rotate(90)" x="11" y="-11" width="1" height="3" style="fill:#f1f2f2"/>
<rect transform="scale(-1)" x="-9" y="-8" width="1" height="2" style="fill:#f1f2f2"/>
<rect transform="rotate(90)" x="8" y="-11" width="1" height="2" style="fill:#f1f2f2"/>
<path d="m4 12-1-1h1z" style="fill:#f1f2f2"/>
<rect transform="scale(-1)" x="-12" y="-11" width="1" height="2" style="fill:#f1f2f2"/>
<path d="m11 12 1-1h-1z" style="fill:#f1f2f2"/>
<path d="m9 5-1 1h1z" style="fill:#f1f2f2"/>
<path d="m11 8 1 1h-1z" style="fill:#f1f2f2"/>
<path d="m9 9-1-1h1z" style="fill:#f1f2f2"/>
</svg>
