<?xml version="1.0" encoding="UTF-8"?>
<svg version="1.1" viewBox="0 0 16 16" xmlns="http://www.w3.org/2000/svg">
<g fill="#f1f2f2">
<rect x="6" y="7" width="1" height="4"/>
<rect transform="rotate(90)" x="7" y="-6" width="1" height="2"/>
<rect transform="rotate(90)" x="11" y="-7" width="1" height="3"/>
<rect transform="scale(-1)" x="-4" y="-11" width="1" height="3"/>
<path d="m3 8 1-1v1z"/>
<path d="m4 12-1-1h1z"/>
<rect transform="rotate(90)" x="11" y="-8" width="1" height="3"/>
<rect transform="scale(-1)" x="-10" y="-10" width="1" height="3" style="stroke-width:.61238"/>
<path d="m9 11 1 1v-1z"/>
<path d="m11 12 1-1h-1z"/>
<rect transform="scale(-1)" x="-12" y="-10" width="1" height="3" style="stroke-width:.61238"/>
<rect transform="scale(-1)" x="-10" y="-11" width="1" height="1" style="stroke-width:.35355"/>
<rect transform="scale(-1)" x="-12" y="-11" width="1" height="1" style="stroke-width:.35355"/>
<rect x="10" y="11" width="1" height="1" style="fill-opacity:.99774;fill:#f1f2f2;paint-order:markers fill stroke"/>
</g>
</svg>
