<?xml version="1.0" encoding="UTF-8"?>
<svg version="1.1" viewBox="0 0 16 16" xmlns="http://www.w3.org/2000/svg">
<path d="m12.031 1.031a2.969 2.969 0 0 0-2.967 2.93l-3.324 1.613a2.969 2.969 0 0 0-1.709-0.543 2.969 2.969 0 0 0-2.96 2.838l-0.071 0.035 0.066 0.034a2.969 2.969 0 0 0-4e-3 0.062 2.969 2.969 0 0 0 2.97 2.969 2.969 2.969 0 0 0 1.816-0.621l3.216 1.625a2.969 2.969 0 0 0-2e-3 0.027 2.969 2.969 0 0 0 2.97 2.969 2.969 2.969 0 0 0 2.968-2.969 2.969 2.969 0 0 0-2.969-2.969 2.969 2.969 0 0 0-2.217 0.998l-2.87-1.455a2.969 2.969 0 0 0 0.056-0.574 2.969 2.969 0 0 0-0.092-0.725l2.838-1.382a2.969 2.969 0 0 0 2.285 1.076 2.969 2.969 0 0 0 2.969-2.969 2.969 2.969 0 0 0-2.969-2.969z" overflow="visible" style="fill:#f1f2f2"/>
</svg>
