<?xml version="1.0" encoding="UTF-8" standalone="no"?>
<!--Part of Monotone: https://github.com/sixsixfive/Monotone, released under cc-by-sa_v4-->
<svg id="svg12" xmlns="http://www.w3.org/2000/svg" viewBox="0 0 160 16" version="1.1" xmlns:xlink="http://www.w3.org/1999/xlink"><defs id="defs16"><linearGradient id="linearGradient932" y2="11.321" gradientUnits="userSpaceOnUse" x2="11.066" y1="8.3869" x1="12.984"><stop id="stop892" style="stop-color:#f1f2f2;stop-opacity:0" offset="0"/><stop id="stop894" style="stop-color:#f1f2f2" offset="1"/></linearGradient><linearGradient id="linearGradient837" y2="11.321" xlink:href="#linearGradient932" gradientUnits="userSpaceOnUse" x2="11.066" gradientTransform="rotate(36 16 32.622)" y1="8.3869" x1="12.984"/><linearGradient id="linearGradient853" y2="11.321" xlink:href="#linearGradient932" gradientUnits="userSpaceOnUse" x2="11.066" gradientTransform="rotate(72 24 30.023)" y1="8.3869" x1="12.984"/><linearGradient id="linearGradient869" y2="11.321" xlink:href="#linearGradient932" gradientUnits="userSpaceOnUse" x2="11.066" gradientTransform="rotate(108 32 25.437)" y1="8.3869" x1="12.984"/><linearGradient id="linearGradient885" y2="11.321" xlink:href="#linearGradient932" gradientUnits="userSpaceOnUse" x2="11.066" gradientTransform="rotate(144 40 18.397)" y1="8.3869" x1="12.984"/><linearGradient id="linearGradient915" y2="11.321" xlink:href="#linearGradient932" gradientUnits="userSpaceOnUse" x2="11.066" gradientTransform="rotate(180 48 8)" y1="8.3869" x1="12.984"/><linearGradient id="linearGradient931" y2="11.321" xlink:href="#linearGradient932" gradientUnits="userSpaceOnUse" x2="11.066" gradientTransform="rotate(216 56 -7.5962)" y1="8.3869" x1="12.984"/><linearGradient id="linearGradient947" y2="11.321" xlink:href="#linearGradient932" gradientUnits="userSpaceOnUse" x2="11.066" gradientTransform="rotate(252 64 -32.687)" y1="8.3869" x1="12.984"/><linearGradient id="linearGradient963" y2="11.321" xlink:href="#linearGradient932" gradientUnits="userSpaceOnUse" x2="11.066" gradientTransform="rotate(-72 72 -80.089)" y1="8.3869" x1="12.984"/><linearGradient id="linearGradient979" y2="11.321" xlink:href="#linearGradient932" gradientUnits="userSpaceOnUse" x2="11.066" gradientTransform="rotate(-36 80 -213.59)" y1="8.3869" x1="12.984"/><linearGradient id="linearGradient997" y2="11.321" xlink:href="#linearGradient932" gradientUnits="userSpaceOnUse" x2="11.066" y1="8.3869" x1="12.984"/></defs><rect id="rect1001" style="opacity:0;stroke-width:1.0236;paint-order:fill markers stroke" ry="3.2" height="16" width="160" y="1.1057e-15" x="2.2093e-14"/><path id="path877" style="color-rendering:auto;text-decoration-color:#000000;color:#000000;font-variant-numeric:normal;text-orientation:mixed;shape-rendering:auto;font-variant-ligatures:normal;text-decoration-line:none;fill:#f1f2f2;font-variant-position:normal;mix-blend-mode:normal;font-feature-settings:normal;shape-padding:0;font-variant-alternates:normal;text-indent:0;dominant-baseline:auto;font-variant-caps:normal;image-rendering:auto;white-space:normal;text-decoration-style:solid;solid-color:#000000;isolation:auto;paint-order:normal;text-transform:none" d="m8.1113 2.002c-3.1104-0.0578-5.778 2.316-6.082 5.4121-0.3037 3.0959 1.85 5.9439 4.9121 6.4919 2.0975 0.376 4.1696-0.408 5.5216-1.906h-3.463v-2.2656c-0.3932 0.2263-0.8635 0.3216-1.3535 0.2344-1.0448-0.1871-1.7404-1.1078-1.6367-2.1641 0.1037-1.0564 0.966-1.8244 2.0273-1.8047a2.0002 2.0002 0 1 0 0.0742 -3.998zm4.3517 9.998c0.144-0.159 0.278-0.329 0.404-0.504-0.126 0.175-0.26 0.345-0.404 0.504zm-0.516-5.002a2.0002 2.0002 0 0 0 -0.199 0.002h0.221a2.0002 2.0002 0 0 0 -0.022 -0.002zm-1.457 0.5528a2.0002 2.0002 0 0 0 -0.07 0.0742 2.0002 2.0002 0 0 1 0.072 -0.0742 2.0002 2.0002 0 0 0 -0.002 0zm2.867 0.1074a2.0002 2.0002 0 0 1 0.127 0.1543 2.0002 2.0002 0 0 0 -0.127 -0.1543zm0.127 0.1543a2.0002 2.0002 0 0 1 0.204 0.3437 2.0002 2.0002 0 0 0 -0.204 -0.3437zm0.204 0.3437a2.0002 2.0002 0 0 1 0.13 0.377 2.0002 2.0002 0 0 0 -0.13 -0.377zm0.167 0.5743a2.0002 2.0002 0 0 1 0.014 0.3984 2.0002 2.0002 0 0 0 -0.014 -0.3984zm-0.052 0.7929c-0.057 0.2148-0.127 0.4219-0.205 0.6246 0.078-0.2027 0.148-0.4099 0.205-0.6246zm-0.295 0.8356c-0.056 0.129-0.114 0.256-0.178 0.379 0.064-0.123 0.122-0.25 0.178-0.379zm-0.301 0.606c-0.073 0.126-0.149 0.249-0.23 0.369 0.081-0.12 0.158-0.243 0.23-0.369z"/><path id="rect926" style="paint-order:normal;fill:url(#linearGradient997)" d="m11.748 7a2.0002 2.0002 0 0 0 -1.8144 1.5078c-0.1431 0.5452-0.4884 0.9703-0.9336 1.2266v2.2656h3.463c0.621-0.689 1.091-1.529 1.34-2.4766a2.0002 2.0002 0 0 0 -1.834 -2.5234z"/><rect id="rect843" style="opacity:0;stroke-width:1.5" height="12" width="12" y="2" x="2"/><rect id="rect842" style="opacity:0;stroke-width:1.5" height="16" width="16" y="0" x="0"/><path id="path823" d="m27.616 3.2129c-2.482-1.875-6.036-1.5225-8.102 0.8036-2.0654 2.3261-1.9971 5.8961 0.15813 8.1393 1.4759 1.5371 3.6131 2.1208 5.5874 1.7035l-2.8016-2.0355 1.3317-1.8329c-0.451-0.0477-0.888-0.247-1.233-0.6056-0.735-0.7655-0.757-1.9192-0.052-2.7128 0.705-0.7937 1.854-0.9082 2.701-0.2684a2.0002 2.0002 0 1 0 2.41 -3.1909zm-2.356 10.646c0.20996-0.04399 0.41829-0.10276 0.62309-0.17028-0.2048 0.06752-0.41313 0.12629-0.62309 0.17028zm2.523-4.3496a2.0002 2.0002 0 0 0 -0.163 -0.1154l0.17879 0.1299a2.0002 2.0002 0 0 0 -0.01662 -0.014549zm-1.504-0.4092a2.0002 2.0002 0 0 0 -0.10024 0.018884 2.0002 2.0002 0 0 1 0.10186 -0.017708 2.0002 2.0002 0 0 0 -0.0016 -0.00118zm2.2563 1.7721a2.0002 2.0002 0 0 1 0.01205 0.19948 2.0002 2.0002 0 0 0 -0.01205 -0.19948zm0.01205 0.19948a2.0002 2.0002 0 0 1 -0.03698 0.39797 2.0002 2.0002 0 0 0 0.03698 -0.39797zm-0.03698 0.39797a2.0002 2.0002 0 0 1 -0.11642 0.38141 2.0002 2.0002 0 0 0 0.11642 -0.38141zm-0.20246 0.56278a2.0002 2.0002 0 0 1 -0.22285 0.33054 2.0002 2.0002 0 0 0 0.22285 -0.33054zm-0.50812 0.6109c-0.17237 0.14027-0.35073 0.26668-0.53298 0.38482 0.18225-0.11814 0.36067-0.24462 0.53298-0.38482zm-0.72981 0.50262c-0.12113 0.07145-0.2427 0.1401-0.36678 0.20199 0.12408-0.06189 0.24565-0.13054 0.36678-0.20199zm-0.59971 0.31334c-0.13312 0.05903-0.2669 0.11386-0.40297 0.16334 0.13606-0.04947 0.27066-0.10372 0.40297-0.16334z" style="color-rendering:auto;text-decoration-color:#000000;color:#000000;font-variant-numeric:normal;text-orientation:mixed;shape-rendering:auto;font-variant-ligatures:normal;text-decoration-line:none;fill:#f1f2f2;font-variant-position:normal;mix-blend-mode:normal;font-feature-settings:normal;shape-padding:0;font-variant-alternates:normal;text-indent:0;dominant-baseline:auto;font-variant-caps:normal;image-rendering:auto;white-space:normal;text-decoration-style:solid;solid-color:#000000;isolation:auto;paint-order:normal;text-transform:none"/><path id="path825" d="m27.62 9.394a2.0002 2.0002 0 0 0 -2.3541 0.15336c-0.43623 0.35696-0.96545 0.49791-1.4763 0.44358l-1.3317 1.8329 2.8016 2.0355c0.90738-0.1924 1.7814-0.59571 2.5398-1.216a2.0002 2.0002 0 0 0 -0.00052 -3.1195z" style="paint-order:normal;fill:url(#linearGradient837)"/><rect id="rect829" style="opacity:0;stroke-width:1.5" transform="rotate(36)" height="12" width="12" y="-13.635" x="18.119"/><rect id="rect833" style="opacity:0;stroke-width:1.5" transform="rotate(36)" height="16" width="16" y="-15.635" x="16.119"/><path id="path839" style="color-rendering:auto;text-decoration-color:#000000;color:#000000;font-variant-numeric:normal;text-orientation:mixed;shape-rendering:auto;font-variant-ligatures:normal;text-decoration-line:none;fill:#f1f2f2;font-variant-position:normal;mix-blend-mode:normal;font-feature-settings:normal;shape-padding:0;font-variant-alternates:normal;text-indent:0;dominant-baseline:auto;font-variant-caps:normal;image-rendering:auto;white-space:normal;text-decoration-style:solid;solid-color:#000000;isolation:auto;paint-order:normal;text-transform:none" d="m45.739 6.2524c-0.906-2.9761-3.988-4.7796-7.026-4.1119-3.038 0.6678-5.082 3.5962-4.656 6.6778 0.29057 2.111 1.6765 3.8394 3.519 4.6624l-1.071-3.294 2.155-0.7c-0.337-0.304-0.573-0.7218-0.641-1.2148-0.145-1.0515 0.516-1.9976 1.552-2.2253 1.0367-0.22782 2.0336 0.35495 2.3428 1.3704a2.0002 2.0002 0 1 0 3.8253 -1.1649zm-8.1639 7.2283c0.19572 0.08782 0.3988 0.16273 0.60418 0.22848-0.20537-0.06576-0.40846-0.14066-0.60418-0.22848zm4.5977-2.0364a2.0002 2.0002 0 0 0 -0.0634 -0.18864l0.06829 0.21018a2.0002 2.0002 0 0 0 -0.0049 -0.02154zm-0.976-1.216a2.0002 2.0002 0 0 0 -0.0922 -0.04364 2.0002 2.0002 0 0 1 0.09282 0.04555 2.0002 2.0002 0 0 0 -0.000618 -0.0019zm0.78381 2.7599a2.0002 2.0002 0 0 1 -0.1075 0.16847 2.0002 2.0002 0 0 0 0.1075 -0.16847zm-0.1075 0.16847a2.0002 2.0002 0 0 1 -0.26384 0.30022 2.0002 2.0002 0 0 0 0.26384 -0.30022zm-0.26384 0.30022a2.0002 2.0002 0 0 1 -0.31838 0.24014 2.0002 2.0002 0 0 0 0.31838 -0.24014zm-0.49459 0.3363a2.0002 2.0002 0 0 1 -0.37457 0.13643 2.0002 2.0002 0 0 0 0.37457 -0.13643zm-0.77016 0.19556c-0.2219 0.01217-0.4405 0.0096-0.65738-0.002 0.21688 0.01154 0.43557 0.01409 0.65738 0.002zm-0.88586-0.02235c-0.13999-0.0134-0.2787-0.02931-0.41546-0.05217 0.13676 0.02286 0.27546 0.03877 0.41546 0.05217zm-0.66935-0.099c-0.14239-0.03049-0.28286-0.06476-0.42201-0.10472 0.13916 0.03995 0.27993 0.07517 0.42201 0.10472z"/><path id="path841" style="paint-order:normal;fill:url(#linearGradient853)" d="m42.11 11.256a2.0002 2.0002 0 0 0 -1.995 -1.2601c-0.563 0.0321-1.074-0.1647-1.455-0.5089l-2.1547 0.70011 1.0701 3.2935c0.84718 0.37769 1.7913 0.56512 2.7695 0.5091a2.0002 2.0002 0 0 0 1.8332 -2.524z"/><rect id="rect845" style="opacity:0;stroke-width:1.5" transform="rotate(72)" height="12" width="12" y="-41.571" x="13.969"/><rect id="rect849" style="opacity:0;stroke-width:1.5" transform="rotate(72)" height="16" width="16" y="-43.571" x="11.969"/><path id="path855" d="m61.671 9.9593c1.016-2.9403-0.418-6.2109-3.268-7.4567-2.851-1.2455-6.225-0.0773-7.692 2.6656-1.006 1.8786-0.901 4.0916 0.106 5.8398l1.0701-3.2935 2.1547 0.70011c-0.09372-0.44389-0.03902-0.92062 0.19533-1.3597 0.5008-0.93585 1.5914-1.3129 2.564-0.88785 0.97265 0.42507 1.4366 1.4825 1.0899 2.4858a2.0002 2.0002 0 1 0 3.7794 1.306zm-10.854 1.0487c0.10672 0.18609 0.22699 0.36606 0.35449 0.53997-0.1275-0.17391-0.24777-0.35388-0.35449-0.53997zm4.9166 1.055a2.0002 2.0002 0 0 0 0.05959 -0.18988l-0.06829 0.21018a2.0002 2.0002 0 0 0 0.0087 -0.02031zm-0.07551-1.5565a2.0002 2.0002 0 0 0 -0.04894 -0.0895 2.0002 2.0002 0 0 1 0.04832 0.0914 2.0002 2.0002 0 0 0 0.000618 -0.0019zm-0.9881 2.6935a2.0002 2.0002 0 0 1 -0.18599 0.0731 2.0002 2.0002 0 0 0 0.18599 -0.0731zm-0.18599 0.0731a2.0002 2.0002 0 0 1 -0.38992 0.08781 2.0002 2.0002 0 0 0 0.38992 -0.08781zm-0.38992 0.08781a2.0002 2.0002 0 0 1 -0.39872 0.0071 2.0002 2.0002 0 0 0 0.39872 -0.0071zm-0.5978-0.01864a2.0002 2.0002 0 0 1 -0.38323 -0.1098 2.0002 2.0002 0 0 0 0.38323 0.1098zm-0.73802-0.29448c-0.18667-0.12059-0.36201-0.25116-0.53068-0.38798 0.16868 0.13682 0.3441 0.26742 0.53068 0.38798zm-0.703-0.539c-0.10538-0.09312-0.20824-0.18753-0.30545-0.28641 0.0972 0.09888 0.20006 0.19328 0.30545 0.28641zm-0.48333-0.47353c-0.09728-0.10836-0.19077-0.21865-0.27987-0.33277 0.0891 0.11412 0.18228 0.22536 0.27987 0.33277z" style="color-rendering:auto;text-decoration-color:#000000;color:#000000;font-variant-numeric:normal;text-orientation:mixed;shape-rendering:auto;font-variant-ligatures:normal;text-decoration-line:none;fill:#f1f2f2;font-variant-position:normal;mix-blend-mode:normal;font-feature-settings:normal;shape-padding:0;font-variant-alternates:normal;text-indent:0;dominant-baseline:auto;font-variant-caps:normal;image-rendering:auto;white-space:normal;text-decoration-style:solid;solid-color:#000000;isolation:auto;paint-order:normal;text-transform:none"/><path id="path857" d="m55.793 11.874a2.0002 2.0002 0 0 0 -0.873 -2.192c-0.474-0.3045-0.772-0.7643-0.878-1.2669l-2.155-0.7001-1.07 3.293c0.46338 0.80352 1.117 1.5101 1.9413 2.0397a2.0002 2.0002 0 0 0 2.9666 -0.96446z" style="paint-order:normal;fill:url(#linearGradient869)"/><rect id="rect861" style="opacity:0;stroke-width:1.5" transform="rotate(108)" height="12" width="12" y="-61.732" x="-15.697"/><rect id="rect865" style="opacity:0;stroke-width:1.5" transform="rotate(108)" height="16" width="16" y="-63.732" x="-17.697"/><path id="path871" style="color-rendering:auto;text-decoration-color:#000000;color:#000000;font-variant-numeric:normal;text-orientation:mixed;shape-rendering:auto;font-variant-ligatures:normal;text-decoration-line:none;fill:#f1f2f2;font-variant-position:normal;mix-blend-mode:normal;font-feature-settings:normal;shape-padding:0;font-variant-alternates:normal;text-indent:0;dominant-baseline:auto;font-variant-caps:normal;image-rendering:auto;white-space:normal;text-decoration-style:solid;solid-color:#000000;isolation:auto;paint-order:normal;text-transform:none" d="m75.436 12.918c2.55-1.782 3.313-5.27 1.739-7.9535-1.574-2.6831-4.99-3.7213-7.79-2.3648-1.918 0.9287-3.133 2.7809-3.346 4.7875l2.8016-2.0355 1.3317 1.8329c0.18509-0.4142 0.50956-0.76773 0.95723-0.9852 0.95524-0.46275 2.0592-0.12675 2.5961 0.78877 0.53704 0.9156 0.29084 2.0438-0.57934 2.6516a2.0002 2.0002 0 1 0 2.29 3.2782zm-9.397-5.5308c-0.02304 0.21327-0.03153 0.42957-0.0306 0.64521-0.000926-0.21564 0.0076-0.43194 0.0306-0.64521zm3.3576 3.7434a2.0002 2.0002 0 0 0 0.15982 -0.11859l-0.17879 0.1299a2.0002 2.0002 0 0 0 0.01897 -0.01131zm0.85381-1.3036a2.0002 2.0002 0 0 0 0.01302 -0.10117 2.0002 2.0002 0 0 1 -0.01463 0.10235 2.0002 2.0002 0 0 0 0.0016 -0.00118zm-2.3826 1.5983a2.0002 2.0002 0 0 1 -0.19344 -0.05018 2.0002 2.0002 0 0 0 0.19344 0.05018zm-0.19344-0.05018a2.0002 2.0002 0 0 1 -0.36706 -0.15815 2.0002 2.0002 0 0 0 0.36706 0.15815zm-0.36706-0.15815a2.0002 2.0002 0 0 1 -0.32677 -0.22859 2.0002 2.0002 0 0 0 0.32677 0.22859zm-0.47267-0.36646a2.0002 2.0002 0 0 1 -0.2455 -0.31408 2.0002 2.0002 0 0 0 0.2455 0.31408zm-0.425-0.674c-0.08-0.2068-0.145-0.4155-0.201-0.6253 0.05604 0.20984 0.1212 0.41861 0.20128 0.62581zm-0.252-0.849c-0.03052-0.13728-0.05825-0.27412-0.07877-0.41124 0.02052 0.13713 0.04825 0.27396 0.07877 0.41124zm-0.113-0.6671c-0.015-0.14484-0.02582-0.28903-0.03082-0.43372 0.005 0.14469 0.01501 0.28946 0.03082 0.43372z"/><path id="path873" style="paint-order:normal;fill:url(#linearGradient885)" d="m69.556 11.012a2.0002 2.0002 0 0 0 0.582 -2.2863c-0.205-0.5252-0.176-1.072 0.034-1.5411l-1.332-1.8329-2.801 2.0355c-0.09741 0.92243 0.01609 1.8783 0.37163 2.7912a2.0002 2.0002 0 0 0 2.967 0.96348z"/><rect id="rect877" style="opacity:0;stroke-width:1.5" transform="rotate(144)" height="12" width="12" y="-54.793" x="-59.547"/><rect id="rect881" style="opacity:0;stroke-width:1.5" transform="rotate(144)" height="16" width="16" y="-56.793" x="-61.547"/><path id="path901" d="m87.889 13.998c3.1104 0.0578 5.778-2.316 6.082-5.4121 0.3037-3.0959-1.85-5.9439-4.9121-6.4919-2.0975-0.376-4.1696 0.408-5.5216 1.906h3.463v2.2656c0.3932-0.2263 0.8635-0.3216 1.3535-0.2344 1.0448 0.1871 1.7404 1.1078 1.6367 2.1641-0.1037 1.0564-0.966 1.8244-2.0273 1.8047a2.0002 2.0002 0 1 0 -0.074 3.998zm-4.352-9.998c-0.144 0.159-0.278 0.329-0.404 0.504 0.126-0.175 0.26-0.345 0.404-0.504zm0.516 5.002a2.0002 2.0002 0 0 0 0.199 -0.002h-0.221a2.0002 2.0002 0 0 0 0.022 0.002zm1.457-0.5528a2.0002 2.0002 0 0 0 0.07 -0.0742 2.0002 2.0002 0 0 1 -0.072 0.0742 2.0002 2.0002 0 0 0 0.002 0zm-2.867-0.1074a2.0002 2.0002 0 0 1 -0.127 -0.1543 2.0002 2.0002 0 0 0 0.127 0.1543zm-0.127-0.1543a2.0002 2.0002 0 0 1 -0.204 -0.3437 2.0002 2.0002 0 0 0 0.204 0.3437zm-0.204-0.3437a2.0002 2.0002 0 0 1 -0.13 -0.377 2.0002 2.0002 0 0 0 0.13 0.377zm-0.167-0.5743a2.0002 2.0002 0 0 1 -0.014 -0.3984 2.0002 2.0002 0 0 0 0.014 0.3984zm0.052-0.7929c0.057-0.2148 0.127-0.4219 0.205-0.6246-0.078 0.2027-0.148 0.4099-0.205 0.6246zm0.295-0.8356c0.056-0.129 0.114-0.256 0.178-0.379-0.064 0.123-0.122 0.25-0.178 0.379zm0.301-0.606c0.073-0.126 0.149-0.249 0.23-0.369-0.081 0.12-0.158 0.243-0.23 0.369z" style="color-rendering:auto;text-decoration-color:#000000;color:#000000;font-variant-numeric:normal;text-orientation:mixed;shape-rendering:auto;font-variant-ligatures:normal;text-decoration-line:none;fill:#f1f2f2;font-variant-position:normal;mix-blend-mode:normal;font-feature-settings:normal;shape-padding:0;font-variant-alternates:normal;text-indent:0;dominant-baseline:auto;font-variant-caps:normal;image-rendering:auto;white-space:normal;text-decoration-style:solid;solid-color:#000000;isolation:auto;paint-order:normal;text-transform:none"/><path id="path903" d="m84.252 9a2.0002 2.0002 0 0 0 1.8144 -1.5078c0.1431-0.5452 0.4884-0.9703 0.9336-1.2266v-2.2656h-3.463c-0.621 0.689-1.091 1.529-1.34 2.4766a2.0002 2.0002 0 0 0 1.834 2.5234z" style="paint-order:normal;fill:url(#linearGradient915)"/><rect id="rect907" style="opacity:0;stroke-width:1.5" transform="scale(-1)" height="12" width="12" y="-14" x="-94"/><rect id="rect911" style="opacity:0;stroke-width:1.5" transform="scale(-1)" height="16" width="16" y="-16" x="-96"/><path id="path917" style="color-rendering:auto;text-decoration-color:#000000;color:#000000;font-variant-numeric:normal;text-orientation:mixed;shape-rendering:auto;font-variant-ligatures:normal;text-decoration-line:none;fill:#f1f2f2;font-variant-position:normal;mix-blend-mode:normal;font-feature-settings:normal;shape-padding:0;font-variant-alternates:normal;text-indent:0;dominant-baseline:auto;font-variant-caps:normal;image-rendering:auto;white-space:normal;text-decoration-style:solid;solid-color:#000000;isolation:auto;paint-order:normal;text-transform:none" d="m100.38 12.787c2.4824 1.875 6.0358 1.5225 8.1016-0.80357 2.0654-2.3261 1.9971-5.8961-0.15813-8.1393-1.4759-1.5371-3.6131-2.1208-5.5874-1.7035l2.8016 2.0355-1.3317 1.8329c0.45112 0.048037 0.88761 0.24737 1.2328 0.60593 0.73528 0.76549 0.75686 1.9192 0.0521 2.7128-0.70483 0.79369-1.8539 0.90817-2.7009 0.26842a2.0002 2.0002 0 1 0 -2.41 3.1908zm2.3561-10.646c-0.20996 0.043993-0.41829 0.10276-0.62309 0.17028 0.2048-0.067517 0.41313-0.12629 0.62309-0.17028zm-2.5226 4.35a2.0002 2.0002 0 0 0 0.16217 0.11535l-0.1788-0.1299a2.0002 2.0002 0 0 0 0.0166 0.014549zm1.5037 0.40918a2.0002 2.0002 0 0 0 0.10025 -0.018884 2.0002 2.0002 0 0 1 -0.10187 0.017708 2.0002 2.0002 0 0 0 0.002 0.00118zm-2.254-1.7724a2.0002 2.0002 0 0 1 -0.01205 -0.19948 2.0002 2.0002 0 0 0 0.01205 0.19948zm-0.01205-0.19948a2.0002 2.0002 0 0 1 0.03698 -0.39797 2.0002 2.0002 0 0 0 -0.03698 0.39797zm0.03698-0.39797a2.0002 2.0002 0 0 1 0.11642 -0.38141 2.0002 2.0002 0 0 0 -0.11642 0.38141zm0.20246-0.56278a2.0002 2.0002 0 0 1 0.22285 -0.33054 2.0002 2.0002 0 0 0 -0.22285 0.33054zm0.50812-0.6109c0.17237-0.14027 0.35074-0.26668 0.53298-0.38482-0.18224 0.11814-0.36066 0.24462-0.53298 0.38482zm0.72982-0.50262c0.12113-0.071447 0.2427-0.1401 0.36677-0.20199-0.12407 0.061891-0.24564 0.13054-0.36677 0.20199zm0.59971-0.31334c0.13312-0.059028 0.2669-0.11387 0.40297-0.16334-0.13607 0.049472-0.27066 0.10372-0.40297 0.16334z"/><path id="path919" style="paint-order:normal;fill:url(#linearGradient931)" d="m100.38 6.606a2.0002 2.0002 0 0 0 2.3541 -0.15336c0.43623-0.35696 0.96545-0.49791 1.4763-0.44358l1.3317-1.8329-2.8016-2.0355c-0.90739 0.1924-1.7814 0.59571-2.5398 1.216a2.0002 2.0002 0 0 0 0.00052 3.1195z"/><rect id="rect923" style="opacity:0;stroke-width:1.5" transform="rotate(216)" height="12" width="12" y="48.658" x="-94.84"/><rect id="rect927" style="opacity:0;stroke-width:1.5" transform="rotate(216)" height="16" width="16" y="46.658" x="-96.84"/><path id="path933" d="m114.26 9.7476c0.90619 2.976 3.9881 4.7795 7.0266 4.1119 3.0382-0.66785 5.0813-3.5962 4.6562-6.6778-0.29056-2.111-1.6765-3.8394-3.519-4.6624l1.0701 3.2935-2.1547 0.70011c0.33673 0.30402 0.5727 0.72186 0.64119 1.2148 0.14491 1.0515-0.51577 1.9975-1.5524 2.2253-1.0367 0.22782-2.0336-0.35495-2.3428-1.3704a2.0002 2.0002 0 1 0 -3.8252 1.1649zm8.1639-7.2283c-0.19572-0.087818-0.3988-0.16273-0.60417-0.22848 0.20537 0.065755 0.40845 0.14066 0.60417 0.22848zm-4.5977 2.0364a2.0002 2.0002 0 0 0 0.0634 0.18864l-0.0683-0.21018a2.0002 2.0002 0 0 0 0.005 0.021541zm0.97598 1.2149a2.0002 2.0002 0 0 0 0.0922 0.043645 2.0002 2.0002 0 0 1 -0.0928 -0.045547 2.0002 2.0002 0 0 0 0.00062 0.0019zm-0.78381-2.7599a2.0002 2.0002 0 0 1 0.10751 -0.16847 2.0002 2.0002 0 0 0 -0.10751 0.16847zm0.10751-0.16847a2.0002 2.0002 0 0 1 0.26383 -0.30022 2.0002 2.0002 0 0 0 -0.26383 0.30022zm0.26383-0.30022a2.0002 2.0002 0 0 1 0.31838 -0.24014 2.0002 2.0002 0 0 0 -0.31838 0.24014zm0.49459-0.33629a2.0002 2.0002 0 0 1 0.37457 -0.13643 2.0002 2.0002 0 0 0 -0.37457 0.13643zm0.77016-0.19556c0.2219-0.012167 0.4405-0.00959 0.65738 0.00195-0.21688-0.011545-0.43557-0.01409-0.65738-0.00195zm0.88586 0.022347c0.14 0.013396 0.2787 0.029312 0.41546 0.052171-0.13676-0.022859-0.27546-0.038775-0.41546-0.052171zm0.66936 0.099004c0.14239 0.030491 0.28286 0.064762 0.42201 0.10472-0.13915-0.039954-0.27993-0.075176-0.42201-0.10472z" style="color-rendering:auto;text-decoration-color:#000000;color:#000000;font-variant-numeric:normal;text-orientation:mixed;shape-rendering:auto;font-variant-ligatures:normal;text-decoration-line:none;fill:#f1f2f2;font-variant-position:normal;mix-blend-mode:normal;font-feature-settings:normal;shape-padding:0;font-variant-alternates:normal;text-indent:0;dominant-baseline:auto;font-variant-caps:normal;image-rendering:auto;white-space:normal;text-decoration-style:solid;solid-color:#000000;isolation:auto;paint-order:normal;text-transform:none"/><path id="path935" d="m117.89 4.7445a2.0002 2.0002 0 0 0 1.9947 1.2597c0.56274-0.03238 1.0737 0.16466 1.4551 0.50887l2.16-0.7002-1.07-3.2935c-0.84718-0.37769-1.7913-0.56512-2.7695-0.5091a2.0002 2.0002 0 0 0 -1.8332 2.524z" style="paint-order:normal;fill:url(#linearGradient947)"/><rect id="rect939" style="opacity:0;stroke-width:1.5" transform="rotate(252)" height="12" width="12" y="105.66" x="-50.691"/><rect id="rect943" style="opacity:0;stroke-width:1.5" transform="rotate(252)" height="16" width="16" y="103.66" x="-52.691"/><path id="path949" style="color-rendering:auto;text-decoration-color:#000000;color:#000000;font-variant-numeric:normal;text-orientation:mixed;shape-rendering:auto;font-variant-ligatures:normal;text-decoration-line:none;fill:#f1f2f2;font-variant-position:normal;mix-blend-mode:normal;font-feature-settings:normal;shape-padding:0;font-variant-alternates:normal;text-indent:0;dominant-baseline:auto;font-variant-caps:normal;image-rendering:auto;white-space:normal;text-decoration-style:solid;solid-color:#000000;isolation:auto;paint-order:normal;text-transform:none" d="m130.33 6.0407c-1.0161 2.9403 0.41714 6.2109 3.2678 7.4568 2.8505 1.2455 6.2247 0.07731 7.6921-2.6656 1.0058-1.8787 0.90045-4.0916-0.10644-5.8403l-1.0701 3.2935-2.1547-0.70011c0.0937 0.44389 0.039 0.92062-0.19533 1.3597-0.5008 0.93585-1.5914 1.3129-2.564 0.88785-0.97265-0.42507-1.4366-1.4825-1.0899-2.4858a2.0002 2.0002 0 1 0 -3.7794 -1.306zm10.853-1.0492c-0.10672-0.18609-0.22699-0.36606-0.35449-0.53997 0.1275 0.17391 0.24777 0.35389 0.35449 0.53997zm-4.9166-1.055a2.0002 2.0002 0 0 0 -0.0596 0.18988l0.0683-0.21018a2.0002 2.0002 0 0 0 -0.009 0.020305zm0.0755 1.5565a2.0002 2.0002 0 0 0 0.0489 0.089503 2.0002 2.0002 0 0 1 -0.0483 -0.091405 2.0002 2.0002 0 0 0 -0.00061 0.0019zm0.98809-2.6935a2.0002 2.0002 0 0 1 0.18599 -0.073103 2.0002 2.0002 0 0 0 -0.18599 0.073103zm0.18599-0.073103a2.0002 2.0002 0 0 1 0.38992 -0.087806 2.0002 2.0002 0 0 0 -0.38992 0.087806zm0.38992-0.087806a2.0002 2.0002 0 0 1 0.39872 -0.00714 2.0002 2.0002 0 0 0 -0.39872 0.00714zm0.5978 0.018642a2.0002 2.0002 0 0 1 0.38323 0.1098 2.0002 2.0002 0 0 0 -0.38323 -0.1098zm0.73802 0.29447c0.18668 0.12059 0.36201 0.25116 0.53068 0.38798-0.16867-0.13682-0.3441-0.26742-0.53068-0.38798zm0.70355 0.53878c0.10538 0.093122 0.20824 0.18753 0.30544 0.28641-0.0972-0.098877-0.20006-0.19328-0.30544-0.28641zm0.48332 0.47353c0.0973 0.10836 0.19077 0.21865 0.27987 0.33277-0.0891-0.11412-0.18228-0.22536-0.27987-0.33277z"/><path id="path951" style="paint-order:normal;fill:url(#linearGradient963)" d="m136.21 4.1264a2.0002 2.0002 0 0 0 0.87332 2.1915c0.4743 0.30457 0.77189 0.76434 0.87807 1.2669l2.1547 0.70011 1.0701-3.2935c-0.46338-0.80352-1.117-1.5101-1.9413-2.0397a2.0002 2.0002 0 0 0 -2.9666 0.96446z"/><rect id="rect955" style="opacity:0;stroke-width:1.5" transform="rotate(-72)" height="12" width="12" y="125.82" x="28.418"/><rect id="rect959" style="opacity:0;stroke-width:1.5" transform="rotate(-72)" height="16" width="16" y="123.82" x="26.418"/><path id="path965" d="m148.56 3.0821c-2.5503 1.7815-3.3132 5.2699-1.7393 7.9534 1.574 2.6831 4.9904 3.7213 7.7898 2.3648 1.9179-0.92869 3.1335-2.7809 3.3468-4.7875l-2.8016 2.0355-1.3317-1.8329c-0.18509 0.4142-0.50955 0.76773-0.95723 0.9852-0.95523 0.46275-2.0592 0.12675-2.5961-0.78877-0.53704-0.9156-0.29085-2.0438 0.57934-2.6516a2.0002 2.0002 0 1 0 -2.2899 -3.2781zm9.3973 5.5307c0.023-0.21327 0.0315-0.42957 0.0306-0.64521 0.00093 0.21564-0.008 0.43194-0.0306 0.64521zm-3.3576-3.7434a2.0002 2.0002 0 0 0 -0.15982 0.11859l0.17879-0.1299a2.0002 2.0002 0 0 0 -0.019 0.011313zm-0.85381 1.3036a2.0002 2.0002 0 0 0 -0.013 0.10117 2.0002 2.0002 0 0 1 0.0146 -0.10235 2.0002 2.0002 0 0 0 -0.002 0.00118zm2.3826-1.5983a2.0002 2.0002 0 0 1 0.19344 0.050183 2.0002 2.0002 0 0 0 -0.19344 -0.050183zm0.19344 0.050183a2.0002 2.0002 0 0 1 0.36706 0.15815 2.0002 2.0002 0 0 0 -0.36706 -0.15815zm0.36706 0.15815a2.0002 2.0002 0 0 1 0.32677 0.22859 2.0002 2.0002 0 0 0 -0.32677 -0.22859zm0.47267 0.36646a2.0002 2.0002 0 0 1 0.2455 0.31408 2.0002 2.0002 0 0 0 -0.2455 -0.31408zm0.42399 0.67203c0.0801 0.20728 0.14524 0.41597 0.20128 0.62581-0.056-0.20984-0.1212-0.41861-0.20128-0.62581zm0.25249 0.84941c0.0305 0.13728 0.0582 0.27412 0.0788 0.41124-0.0205-0.13713-0.0482-0.27396-0.0788-0.41124zm0.11268 0.66719c0.015 0.14484 0.0258 0.28903 0.0308 0.43372-0.005-0.14469-0.015-0.28946-0.0308-0.43372z" style="color-rendering:auto;text-decoration-color:#000000;color:#000000;font-variant-numeric:normal;text-orientation:mixed;shape-rendering:auto;font-variant-ligatures:normal;text-decoration-line:none;fill:#f1f2f2;font-variant-position:normal;mix-blend-mode:normal;font-feature-settings:normal;shape-padding:0;font-variant-alternates:normal;text-indent:0;dominant-baseline:auto;font-variant-caps:normal;image-rendering:auto;white-space:normal;text-decoration-style:solid;solid-color:#000000;isolation:auto;paint-order:normal;text-transform:none"/><path id="path967" d="m154.44 4.988a2.0002 2.0002 0 0 0 -0.58162 2.2863c0.20469 0.52519 0.17521 1.0721-0.0343 1.5411l1.3317 1.8329 2.8016-2.0355c0.0974-0.92243-0.0161-1.8783-0.37162-2.7912a2.0002 2.0002 0 0 0 -2.967 -0.96348z" style="paint-order:normal;fill:url(#linearGradient979)"/><rect id="rect971" style="opacity:0;stroke-width:1.5" transform="rotate(-36)" height="12" width="12" y="89.816" x="112.27"/><rect id="rect975" style="opacity:0;stroke-width:1.5" transform="rotate(-36)" height="16" width="16" y="87.816" x="110.27"/></svg>
