<?xml version="1.0" encoding="UTF-8" standalone="no"?>
<!--Part of Monotone: https://github.com/sixsixfive/Monotone, released under cc-by-sa_v4-->
<svg xmlns="http://www.w3.org/2000/svg" version="1.1" viewBox="0 0 16 16">
 <g stroke-width=".49830" transform="translate(8,8)">
  <path style="color:#000000" d="m-1.9414-2.002a1.0018 1.0018 0 0 0 -0.73438 1.6836l2.4082 2.5899c-0.45487 0.2944-0.9826 0.7344-1.2871 0.7715-0.5067 0.0617-0.8895-0.0812-1.3301-0.4473-0.8812-0.7321-1.6854-2.4587-2.0937-3.873a1.0018 1.0018 0 0 0 -1.9629 0.31641c0.11673 3.0072 1.2151 5.8557 3.2246 7.4258 1.0048 0.78504 2.2846 1.2117 3.6387 1.0332 1.1022-0.1454 2.215-0.7656 3.3183-1.668l2.1524 1.9179a1.0018 1.0018 0 0 0 1.6679 -0.7558l-0.058594-8a1.0018 1.0018 0 0 0 -1.0019 -0.9942z" display="block" fill="#333333"/>
  <path style="color:#000000" d="m-5.9416-1c0.2154 5.549 4.2798 10.405 9.2358 5.5378l2.7642 2.4622-0.0584-8h-7.9416l3.231 3.4746c-4.0688 3.9846-6.3574-0.4486-7.231-3.4746z" display="block" fill="#f1f2f2"/>
 </g>
</svg>
