<?xml version="1.0" encoding="UTF-8" standalone="no"?>
<!--Part of Monotone: https://github.com/sixsixfive/Monotone, released under cc-by-sa_v4-->
<svg id="svg6" xmlns="http://www.w3.org/2000/svg" viewBox="0 0 16 16" version="1.1"><path id="rect821" style="fill:#333333" d="m2.8184 0c-1.5441-1.1346e-16 -2.8184 1.2743-2.8184 2.8184v6.3632c-1.1346e-16 1.5444 1.2743 2.8184 2.8184 2.8184h0.1816v1c0 1.645 1.3553 3 3 3h4c1.645 0 3-1.355 3-3v-1h0.182c1.544 0 2.818-1.274 2.818-2.8184v-6.3632c0-1.5441-1.274-2.8184-2.818-2.8184h-10.364zm0 1h10.364c1.007 0 1.818 0.8111 1.818 1.8184v6.3632c0 1.0074-0.811 1.8184-1.818 1.8184h-1.182v2c0 1.108-0.892 2-2 2h-4c-1.108 0-2-0.892-2-2v-2h-1.1816c-1.0073 0-1.8184-0.811-1.8184-1.8184v-6.3632c0-1.0073 0.8111-1.8184 1.8184-1.8184z"/><path id="path830" style="fill:#f1f2f2" d="m2.8184 1c-1.0073 0-1.8184 0.8111-1.8184 1.8184v6.3632c0 1.0074 0.8111 1.8184 1.8184 1.8184h1.1816v2c0 1.108 0.892 2 2 2h4c1.108 0 2-0.892 2-2v-2h1.1816c1.007 0 1.818-0.811 1.818-1.8184v-6.3632c0-1.0073-0.811-1.8184-1.818-1.8184z"/><rect id="rect832" style="fill:#333333" ry="0.5" height="6" width="1" y="10" x="6"/><rect id="rect834" style="fill:#333333" ry="0.5" height="6" width="1" y="10" x="9"/><path id="path838" style="fill:#333333" d="m4.5 3a2.5 2.5 0 0 0 -2.5 2.5 2.5 2.5 0 0 0 2.5 2.5 2.5 2.5 0 0 0 2.5 -2.5 2.5 2.5 0 0 0 -2.5 -2.5zm0 1a1.5 1.5 0 0 1 1.5 1.5 1.5 1.5 0 0 1 -1.5 1.5 1.5 1.5 0 0 1 -1.5 -1.5 1.5 1.5 0 0 1 1.5 -1.5z"/><circle id="circle840" cx="11" cy="6" r="2" style="fill:#333333"/></svg>
