<?xml version="1.0" encoding="UTF-8" standalone="no"?>
<!--Part of Monotone: https://github.com/sixsixfive/Monotone, released under cc-by-sa_v4-->
<svg id="svg10" xmlns="http://www.w3.org/2000/svg" version="1.1" viewBox="0 0 16 16"><path id="path825" style="color:#f1f2f2;text-indent:0;text-decoration-line:none;text-transform:none;fill:#333333" d="m7.5 0c-0.8137-1.0871e-16 -1.5 0.6863-1.5 1.5v1 1.9492 1.1016 1.9492 1 0.0234l-0.8574-0.9199a1.0001 1.0001 0 0 0 0 -0.0019c-0.3479-0.3711-0.8509-0.5942-1.3594-0.6036a1.0001 1.0001 0 0 0 -0.0176 0c-0.0366 0-0.0728 0.0038-0.1094 0.0059h-1.6562a1.0001 1.0001 0 0 0 -1 1v1.0293a1.0001 1.0001 0 0 0 0 0.043c0.023 0.5325 0.2411 1.0018 0.6172 1.3648l5.2031 5.266a1.0001 1.0001 0 0 0 0.7149 0.297l0.9687-0.004a1.0001 1.0001 0 0 0 0.707 -0.297l5.2151-5.273c0.403-0.403 0.574-0.9264 0.574-1.4261v-1a1.0001 1.0001 0 0 0 -1 -1h-1.707c-0.497 0-1.022 0.1701-1.426 0.5742a1.0001 1.0001 0 0 0 -0.027 0.0274l-0.84 0.9082v-0.0137-1-1.9492-1.1016-1.9492-1c0-0.8137-0.6863-1.5-1.5-1.5h-1z"/><g id="g8" fill="#f1f2f2"><path id="path2" style="text-decoration-line:none;text-transform:none;text-indent:0" font-family="Andale Mono" d="m2 8.003v1.031c0.011 0.255 0.129 0.51 0.313 0.688l5.218 5.281 0.969-0.003 5.219-5.278c0.188-0.188 0.281-0.453 0.281-0.719v-1h-1.707c-0.265 0-0.53 0.093-0.719 0.282l-3.556 3.844-0.003 0.14-0.018-0.14-3.584-3.844a0.909 0.909 0 0 0 -0.75 -0.282z" color="#f1f2f2" overflow="visible" font-weight="400"/><path id="path4" overflow="visible" d="m7.5 7h1c0.277 0 0.5 0.223 0.5 0.5v1c0 0.277-0.223 0.5-0.5 0.5h-1a0.499 0.499 0 0 1 -0.5 -0.5v-1c0-0.277 0.223-0.5 0.5-0.5z"/><path id="path6" style="isolation:auto;mix-blend-mode:normal" overflow="visible" d="m7.5 1h1c0.277 0 0.5 0.223 0.5 0.5v1c0 0.277-0.223 0.5-0.5 0.5h-1a0.499 0.499 0 0 1 -0.5 -0.5v-1c0-0.277 0.223-0.5 0.5-0.5zm0 3h1c0.277 0 0.5 0.2 0.5 0.45v1.1c0 0.25-0.223 0.45-0.5 0.45h-1c-0.277 0-0.5-0.2-0.5-0.45v-1.1c0-0.25 0.223-0.45 0.5-0.45z"/></g></svg>
