<?xml version="1.0" encoding="UTF-8"?>
<svg version="1.1" viewBox="0 0 16 16" xmlns="http://www.w3.org/2000/svg">
 <path d="m8.0254 0c-0.43316-0.0013596-0.79771 0.20803-1.0293 0.41797-0.23158 0.20993-0.38178 0.43262-0.51562 0.66406-0.26768 0.46288-0.46253 0.97746-0.65039 1.4902s-0.36288 1.0214-0.52344 1.4023c-0.16056 0.38096-0.39134 0.62394-0.25 0.51758 0.14062-0.106-0.12754 0.038138-0.51758 0.076172s-0.90557 0.050117-1.4316 0.074219c-0.52607 0.024102-1.0583 0.053857-1.5742 0.17578-0.25795 0.060962-0.51633 0.14292-0.7832 0.30859-0.2662 0.16526-0.5571 0.45603-0.68164 0.84961-0.24874 0.78989 0.16415 1.3777 0.50391 1.7891 0.33976 0.41141 0.74937 0.76553 1.1582 1.1113 0.40883 0.3458 0.8167 0.67775 1.1113 0.95312 0.29463 0.27538 0.43613 0.55839 0.39258 0.41602-0.043991-0.1432-0.00223 0.19067-0.089844 0.59766-0.087617 0.40699-0.23651 0.92404-0.37695 1.4531-0.14044 0.52908-0.2747 1.0632-0.32227 1.5977-0.023782 0.26722-0.031393 0.53777 0.033203 0.83984s0.22678 0.67259 0.56445 0.93164a1.0003 1.0003 0 0 0 0.00195 2e-3c0.33764 0.25839 0.75735 0.31908 1.0723 0.29102 0.31491-0.02806 0.56943-0.1197 0.8125-0.22656 0.48613-0.21372 0.93372-0.51255 1.375-0.8125 0.44128-0.29995 0.86856-0.60321 1.209-0.81055 0.34042-0.20734 0.65337-0.25311 0.45898-0.25391-0.1944-8.14e-4 0.11686 0.04787 0.45508 0.25781 0.33822 0.20995 0.76299 0.51683 1.2012 0.82031 0.43818 0.30348 0.88173 0.60621 1.3652 0.82422 0.24175 0.109 0.49645 0.20118 0.81055 0.23242 0.3141 0.03124 0.73378-0.02449 1.0742-0.2793a1.0003 1.0003 0 0 0 2e-3 -2e-3c0.33975-0.25609 0.50498-0.62615 0.57227-0.92773 0.06728-0.30159 0.06443-0.57036 0.04297-0.83789-0.04293-0.53505-0.17452-1.0711-0.31055-1.6016-0.13602-0.53044-0.28086-1.051-0.36524-1.459-0.08437-0.40799-0.04114-0.73991-0.08594-0.59766a1.0003 1.0003 0 0 0 2e-3 -2e-3c-0.04492 0.14311 0.09783-0.13744 0.39453-0.41016 0.29661-0.27267 0.7074-0.60103 1.1191-0.94331s0.82477-0.69294 1.168-1.1016 0.76172-0.9934 0.51953-1.7852c-0.12156-0.39568-0.41042-0.6879-0.67578-0.85547-0.26536-0.16756-0.52378-0.2513-0.78125-0.31445-0.51494-0.12631-1.0482-0.16078-1.5742-0.18945-0.52606-0.028674-1.0417-0.046577-1.4316-0.087891-0.38854-0.041162-0.65178-0.18467-0.51562-0.080078h-2e-3c0.13535 0.10322-0.089271-0.13873-0.24605-0.51953-0.15749-0.38253-0.32804-0.89193-0.51172-1.4062-0.18368-0.51432-0.37276-1.0291-0.63672-1.4941-0.13198-0.2325-0.27975-0.45815-0.50977-0.66992s-0.5942-0.42397-1.0273-0.42578z" fill="#333333"/>
 <path d="m12.28 14.909c-0.80748 0.60942-3.3086-2.0501-4.3042-2.0543-0.99566-0.0041-3.5187 2.6335-4.3232 2.0178-0.8025-0.61567 0.84233-3.9273 0.53766-4.9191-0.30368-0.99277-3.4808-2.6877-3.1692-3.6773 0.31065-0.98965 3.8283-0.37607 4.6368-0.98548 0.80848-0.60837 1.367-4.294 2.3627-4.2909 0.99566 0.00417 1.5244 3.694 2.3279 4.3107 0.8035 0.61462 4.3261 0.033335 4.6308 1.0251 0.30368 0.99277-2.8874 2.6596-3.1981 3.6492-0.31164 0.98965 1.3063 4.3149 0.49783 4.9243z" color="#000000" fill="#f1f2f2" overflow="visible" stroke-width="0"/>
</svg>
