<?xml version="1.0" encoding="UTF-8"?>
<svg version="1.1" viewBox="0 0 16 16" xmlns="http://www.w3.org/2000/svg">
 <title>Ivy icon theme</title>
 <path d="m12.176 15.394c0.32224-0.79436 0.79478-1.5514 1.579-1.9481 0.65894-0.71585 0.26337-1.8484-0.46093-2.3579-0.58295-0.54724-1.2882-0.8954-1.9755-1.2607 0.66059-0.086971 1.4633-0.2046 2.0221-0.69876 0.95895-0.78766 1.8015-1.762 2.3502-2.8805 0.36474-0.78863 0.47089-1.9558-0.38011-2.4769-0.93124-0.34064-1.3996-1.193-2.1513-1.756-0.92328-0.58324-1.8441 0.30972-2.3269 1.0473-0.43743 0.5881-0.78247 1.2481-0.94918 1.9542-0.11708-0.6171-0.047213-1.4917-0.57409-2.0646-0.81805-1.2699-2.0892-2.2205-3.4653-2.8111-0.92542-0.3882-2.1002 0.012751-2.4101 1.0102-0.23784 0.92197-1.4127 1.0801-1.5856 1.9949-0.1944 1.0596 0.77673 1.7722 1.5409 2.2953 0.25565 0.35365 1.164 0.40293 1.1676 0.71905-1.2918-0.1303-2.3183 0.88468-3.0936 1.7836-0.77233 0.91635-1.5775 2.0208-1.4637 3.283 0.15213 1.0626 1.3766 1.1819 1.9713 1.8624 0.39436 0.82322 1.3959 1.3666 2.2259 0.77782 0.74241-0.51625 1.2776-1.2999 1.67-2.1062 0.12831-0.2332 0.34549-0.9326 0.25883-0.26994 0.066448 1.5473 1.3529 2.6381 2.4946 3.508 0.8934 0.61368 2.0759 1.2646 3.1524 0.70558 0.1506-0.07998 0.2884-0.18466 0.40352-0.31065z" fill="#333333" fill-opacity=".98068"/>
 <path d="m11.41 14.752c0.22322-0.77054 0.72485-1.4488 1.67-2.0532 0.17116-0.31667-0.01397-0.47147-0.64778-0.99874-0.04237-0.01356-0.07578-0.02828-0.11757-0.04191-0.08753-0.12622-0.25836-0.27083-0.52356-0.49145-1.5568-0.40311-2.6322-0.92485-3.2824-1.4629-0.5682-0.52612-0.79611-1.031-0.68542-1.4543 0.030124-0.09576 0.060764-0.1915 0.12405-0.28044-2.0333 2.4441-0.75533 4.6962 0.67628 5.7378 1.0917 1.0204 2.3959 1.5146 2.7864 1.0452zm2.7072-7.8595c0.75903-0.97073 1.08-1.9908 0.67773-2.3325-0.76765-0.23047-1.442-0.74014-2.0373-1.6923-0.31476-0.17428-0.4711 0.011104-1.0035 0.64128-0.0157 0.047674-0.03308 0.085155-0.0489 0.13208-0.12512 0.088142-0.26745 0.25288-0.48571 0.51056-0.41538 1.5474-0.94522 2.6161-1.4869 3.2624-0.53184 0.56862-1.04 0.79375-1.4631 0.68068-0.096203-0.030956-0.1917-0.062279-0.28069-0.1268 2.4435 2.0697 4.7204 0.77821 5.7646-0.65655 0.1287-0.13744 0.25286-0.27712 0.36375-0.41893zm-6.1294 1.034c1.9899-2.4392 0.73442-4.6618-0.68976-5.7033l-0.00154-0.00126c-1.1009-1.025-2.4234-1.5137-2.8119-1.0359-0.21629 0.77283-0.71086 1.4568-1.6475 2.072-0.168 0.31852 0.01863 0.47145 0.65402 0.99123 0.034121 0.010549 0.060807 0.022315 0.094553 0.032925 0.089041 0.12505 0.26073 0.26692 0.52706 0.4842 1.5697 0.39044 2.6542 0.90598 3.3082 1.4411 0.56372 0.51651 0.79279 1.0152 0.68666 1.4376-0.02921 0.095978-0.057409 0.19195-0.1198 0.28143zm-3.2212 3.8598c0.39636-1.5597 0.91412-2.6384 1.4496-3.2909 0.52428-0.56837 1.0291-0.79936 1.4526-0.68942 0.094516 0.029734 0.18942 0.05952 0.27743 0.12155-2.4393-2.0107-4.6765-0.74753-5.7196 0.67877-1.0376 1.1043-1.5383 2.4339-1.0624 2.8255 0.77249 0.21893 1.4533 0.7173 2.062 1.6595 0.31774 0.16944 0.47358-0.01762 0.99949-0.65478 0.012992-0.04094 0.02911-0.07442 0.042163-0.11482 0.12802-0.08596 0.27395-0.26268 0.49869-0.53532z" fill="#f1f2f2"/>
</svg>
