<?xml version="1.0" encoding="UTF-8"?>
<!--Part of Monotone: https://github.com/sixsixfive/Monotone, released under cc-by-sa_v4-->
<svg version="1.1" viewBox="0 0 16 16" xmlns="http://www.w3.org/2000/svg">
<path d="m8 1c-1.6487 0.0012-3.2917 0.60838-4.5449 1.6797-1.1446 0.9785-1.8962 2.3553-2.2246 3.8242-0.6923 0.4577-1.2294 1.1599-1.2305 1.9941a1.0001 1.0001 0 0 0 0 0.0019531c3.6134e-5 0.9638 0.7088 1.7278 1.5742 2.1328 1.0551 2.537 3.6696 4.3642 6.4238 4.3672a1.0001 1.0001 0 0 0 0.0039062 0c1.3548-3e-3 2.6697-0.46988 3.8027-1.2129 0.235 0.072 0.44931 0.21289 0.69531 0.21289 1.309 0 2.5-1.191 2.5-2.5a1.0001 1.0001 0 0 0 0-0.001953c-1e-3 -0.421-0.29895-0.74918-0.50195-1.1172 0.281-0.7656 0.49895-1.5614 0.50195-2.377a1.0001 1.0001 0 0 0 0-0.0058593c-3e-3 -1.3547-0.46988-2.6704-1.2129-3.8027 0.072-0.2353 0.21289-0.44931 0.21289-0.69531 0-1.309-1.191-2.5-2.5-2.5a1.0001 1.0001 0 0 0-0.001953 0c-0.421 7e-4 -0.74918 0.29875-1.1172 0.50195-0.7656-0.2815-1.5614-0.49925-2.377-0.50195a1.0001 1.0001 0 0 0-0.0039062 0zm-0.078125 1a6 6 0 0 1 0.078125 0 6 6 0 0 1 0.32812 0.017578 6 6 0 0 1 0.30078 0.017578 6 6 0 0 1 0.22461 0.035156 6 6 0 0 1 0.37305 0.0625 6 6 0 0 1 0.23047 0.058594 6 6 0 0 1 0.33594 0.089844 6 6 0 0 1 0.29102 0.10742 6 6 0 0 1 0.29883 0.11328 1.5 1.5 0 0 1 0.056641-0.056641 1.5 1.5 0 0 1 0.09375-0.087891 1.5 1.5 0 0 1 0.003906-0.0039063 1.5 1.5 0 0 1 0.10742-0.082031 1.5 1.5 0 0 1 0.027344-0.019531 1.5 1.5 0 0 1 0.097656-0.058594 1.5 1.5 0 0 1 0.033203-0.017578 1.5 1.5 0 0 1 0.085938-0.042969 1.5 1.5 0 0 1 0.074219-0.03125 1.5 1.5 0 0 1 0.060547-0.021484 1.5 1.5 0 0 1 0.085937-0.025391 1.5 1.5 0 0 1 0.056641-0.013672 1.5 1.5 0 0 1 0.082031-0.017578 1.5 1.5 0 0 1 0.068359-0.0097656 1.5 1.5 0 0 1 0.089844-0.0078125 1.5 1.5 0 0 1 0.09375-0.0058594 1.5 1.5 0 0 1 0.12891 0.0058594 1.5 1.5 0 0 1 0.070313 0.0097656 1.5 1.5 0 0 1 0.076172 0.0097656 1.5 1.5 0 0 1 0.099609 0.023438 1.5 1.5 0 0 1 0.025391 0.0058594 1.5 1.5 0 0 1 0.009765 0.0039063 1.5 1.5 0 0 1 0.085938 0.027344 1.5 1.5 0 0 1 0.074218 0.027344 1.5 1.5 0 0 1 0.013672 0.0058594 1.5 1.5 0 0 1 0.095704 0.044922 1.5 1.5 0 0 1 0.009765 0.0058594 1.5 1.5 0 0 1 0.097656 0.054688 1.5 1.5 0 0 1 0.023438 0.013672 1.5 1.5 0 0 1 0.009765 0.0058594 1.5 1.5 0 0 1 0.074219 0.054688 1.5 1.5 0 0 1 0.056641 0.042969 1.5 1.5 0 0 1 0.015625 0.011719 1.5 1.5 0 0 1 0.033203 0.03125 1.5 1.5 0 0 1 0.060547 0.054688 1.5 1.5 0 0 1 0.054687 0.060547 1.5 1.5 0 0 1 0.03125 0.033203 1.5 1.5 0 0 1 0.011719 0.015625 1.5 1.5 0 0 1 0.042969 0.056641 1.5 1.5 0 0 1 0.054687 0.074219 1.5 1.5 0 0 1 0.00586 0.0097656 1.5 1.5 0 0 1 0.013672 0.023438 1.5 1.5 0 0 1 0.054687 0.097656 1.5 1.5 0 0 1 0.00586 0.0097656 1.5 1.5 0 0 1 0.044921 0.095703 1.5 1.5 0 0 1 0.00586 0.013672 1.5 1.5 0 0 1 0.027343 0.074219 1.5 1.5 0 0 1 0.027344 0.085938 1.5 1.5 0 0 1 0.003906 0.0097656 1.5 1.5 0 0 1 0.00586 0.025391 1.5 1.5 0 0 1 0.023437 0.099609 1.5 1.5 0 0 1 0.009766 0.076172 1.5 1.5 0 0 1 0.009766 0.070313 1.5 1.5 0 0 1 0.005859 0.12891 1.5 1.5 0 0 1-0.007812 0.15039 1.5 1.5 0 0 1-0.019532 0.13672 1.5 1.5 0 0 1 0 0.0019531 1.5 1.5 0 0 1-0.037109 0.14453 1.5 1.5 0 0 1-0.044922 0.12305 1.5 1.5 0 0 1-0.005859 0.017578 1.5 1.5 0 0 1-0.003907 0.0097656 1.5 1.5 0 0 1-0.058593 0.125 1.5 1.5 0 0 1-0.00586 0.0097656 1.5 1.5 0 0 1-0.072265 0.11914 6 6 0 0 1 0.26562 0.38086 6 6 0 0 1 0.16602 0.27148 6 6 0 0 1 0.13867 0.24609 6 6 0 0 1 0.13086 0.27148 6 6 0 0 1 0.12305 0.2832 6 6 0 0 1 0.09961 0.27148 6 6 0 0 1 0.091797 0.2832 6 6 0 0 1 0.076172 0.29492 6 6 0 0 1 0.064453 0.31055 6 6 0 0 1 0.041015 0.26953 6 6 0 0 1 0.033203 0.30273 6 6 0 0 1 0.025391 0.47656 6 6 0 0 1-0.017578 0.32812 6 6 0 0 1-0.017578 0.30078 6 6 0 0 1-0.035156 0.22461 6 6 0 0 1-0.0625 0.37305 6 6 0 0 1-0.058594 0.23047 6 6 0 0 1-0.089844 0.33594 6 6 0 0 1-0.10742 0.29102 6 6 0 0 1-0.11328 0.29883 1.5 1.5 0 0 1 0.044922 0.042969 1.5 1.5 0 0 1 0.011719 0.013672 1.5 1.5 0 0 1 0.08789 0.09375 1.5 1.5 0 0 1 0.001953 0.001953 1.5 1.5 0 0 1 0.001953 0.001953 1.5 1.5 0 0 1 0.082032 0.10742 1.5 1.5 0 0 1 0.007812 0.009766 1.5 1.5 0 0 1 0.011719 0.017578 1.5 1.5 0 0 1 0.058594 0.097656 1.5 1.5 0 0 1 0.007812 0.011719 1.5 1.5 0 0 1 0.009766 0.021484 1.5 1.5 0 0 1 0.042969 0.085938 1.5 1.5 0 0 1 0.03125 0.074219 1.5 1.5 0 0 1 0.021484 0.060547 1.5 1.5 0 0 1 0.02539 0.085937 1.5 1.5 0 0 1 0.013672 0.056641 1.5 1.5 0 0 1 0.017578 0.082031 1.5 1.5 0 0 1 0.009766 0.068359 1.5 1.5 0 0 1 0.007813 0.089844 1.5 1.5 0 0 1 0.005859 0.09375 1.5 1.5 0 0 1-0.005859 0.12891 1.5 1.5 0 0 1-0.009766 0.070313 1.5 1.5 0 0 1-0.009766 0.076172 1.5 1.5 0 0 1-0.023437 0.099609 1.5 1.5 0 0 1-0.00586 0.025391 1.5 1.5 0 0 1-0.003906 0.009765 1.5 1.5 0 0 1-0.027344 0.085938 1.5 1.5 0 0 1-0.027343 0.074218 1.5 1.5 0 0 1-0.00586 0.013672 1.5 1.5 0 0 1-0.044921 0.095704 1.5 1.5 0 0 1-0.00586 0.009765 1.5 1.5 0 0 1-0.054687 0.097656 1.5 1.5 0 0 1-0.013672 0.023438 1.5 1.5 0 0 1-0.00586 0.009765 1.5 1.5 0 0 1-0.054687 0.074219 1.5 1.5 0 0 1-0.042969 0.056641 1.5 1.5 0 0 1-0.011719 0.015625 1.5 1.5 0 0 1-0.03125 0.033203 1.5 1.5 0 0 1-0.054687 0.060547 1.5 1.5 0 0 1-0.060547 0.054687 1.5 1.5 0 0 1-0.033203 0.03125 1.5 1.5 0 0 1-0.015625 0.011719 1.5 1.5 0 0 1-0.056641 0.042969 1.5 1.5 0 0 1-0.074219 0.054687 1.5 1.5 0 0 1-0.009765 0.00586 1.5 1.5 0 0 1-0.023438 0.013672 1.5 1.5 0 0 1-0.097656 0.054687 1.5 1.5 0 0 1-0.009765 0.00586 1.5 1.5 0 0 1-0.041016 0.017578 1.5 1.5 0 0 1-0.06836 0.033203 1.5 1.5 0 0 1-0.074218 0.027343 1.5 1.5 0 0 1-0.085938 0.027344 1.5 1.5 0 0 1-0.009765 0.003906 1.5 1.5 0 0 1-0.025391 0.00586 1.5 1.5 0 0 1-0.099609 0.023437 1.5 1.5 0 0 1-0.076172 0.009766 1.5 1.5 0 0 1-0.070313 0.009766 1.5 1.5 0 0 1-0.12891 0.005859 1.5 1.5 0 0 1-0.15039-0.007812 1.5 1.5 0 0 1-0.2832-0.056641 1.5 1.5 0 0 1-0.12305-0.044922 1.5 1.5 0 0 1-0.019531-0.007813 1.5 1.5 0 0 1-0.050781-0.023437 1.5 1.5 0 0 1-0.091797-0.042969 1.5 1.5 0 0 1-0.11914-0.072265 6 6 0 0 1-0.38086 0.26562 6 6 0 0 1-0.27148 0.16602 6 6 0 0 1-0.24609 0.13867 6 6 0 0 1-0.27148 0.13086 6 6 0 0 1-0.2832 0.12305 6 6 0 0 1-0.27148 0.09961 6 6 0 0 1-0.2832 0.091797 6 6 0 0 1-0.29492 0.076172 6 6 0 0 1-0.31055 0.064453 6 6 0 0 1-0.26953 0.041015 6 6 0 0 1-0.30273 0.033203 6 6 0 0 1-0.47656 0.025391 6 6 0 0 1-0.38672-0.019531 6 6 0 0 1-0.30273-0.025391 6 6 0 0 1-0.29492-0.044922 6 6 0 0 1-0.30664-0.05664 6 6 0 0 1-0.25977-0.066407 6 6 0 0 1-0.31445-0.089843 6 6 0 0 1-0.27148-0.09961 6 6 0 0 1-0.29102-0.11914 6 6 0 0 1-0.25195-0.12109 6 6 0 0 1-0.27344-0.14258 6 6 0 0 1-0.26562-0.16406 6 6 0 0 1-0.23633-0.15625 6 6 0 0 1-0.24805-0.18945 6 6 0 0 1-0.23438-0.18945 6 6 0 0 1-0.18945-0.17578 6 6 0 0 1-0.24805-0.24609 6 6 0 0 1-0.17188-0.19727 6 6 0 0 1-0.20703-0.25195 6 6 0 0 1-0.17188-0.24023 6 6 0 0 1-0.16406-0.24609 6 6 0 0 1-0.1543-0.26953 6 6 0 0 1-0.13672-0.25977 6 6 0 0 1-0.12109-0.26758 6 6 0 0 1-0.15039-0.36914 1.5 1.5 0 0 1-0.14062-0.021484 1.5 1.5 0 0 1-0.027344-0.0078125 1.5 1.5 0 0 1-0.10938-0.027344 1.5 1.5 0 0 1-0.048828-0.015625 1.5 1.5 0 0 1-0.085938-0.03125 1.5 1.5 0 0 1-0.080078-0.037109 1.5 1.5 0 0 1-0.052734-0.025391 1.5 1.5 0 0 1-0.068359-0.039062 1.5 1.5 0 0 1-0.060547-0.037109 1.5 1.5 0 0 1-0.076172-0.052734 1.5 1.5 0 0 1-0.039062-0.03125 1.5 1.5 0 0 1-0.076172-0.066406 1.5 1.5 0 0 1-0.041016-0.039062 1.5 1.5 0 0 1-0.050781-0.052734 1.5 1.5 0 0 1-0.060547-0.070312 1.5 1.5 0 0 1-0.017578-0.023438 1.5 1.5 0 0 1-0.066406-0.091797 1.5 1.5 0 0 1-0.035156-0.058594 1.5 1.5 0 0 1-0.037109-0.064453 1.5 1.5 0 0 1-0.035156-0.074219 1.5 1.5 0 0 1-0.027344-0.0625 1.5 1.5 0 0 1-0.019531-0.052734 1.5 1.5 0 0 1-0.037109-0.10938 1.5 1.5 0 0 1-0.0019531-0.0078125 1.5 1.5 0 0 1-0.029297-0.12891 1.5 1.5 0 0 1-0.0058594-0.050781 1.5 1.5 0 0 1-0.011719-0.087891 1.5 1.5 0 0 1-0.0058594-0.125 1.5 1.5 0 0 1 0.0078125-0.13672 1.5 1.5 0 0 1 0.0058594-0.056641 1.5 1.5 0 0 1 0.017578-0.10547 1.5 1.5 0 0 1 0.037109-0.14258 1.5 1.5 0 0 1 0.0039062-0.013672 1.5 1.5 0 0 1 0.044922-0.125 1.5 1.5 0 0 1 0.0097656-0.021484 1.5 1.5 0 0 1 0.058594-0.11719 1.5 1.5 0 0 1 0.078125-0.12695 1.5 1.5 0 0 1 0.076172-0.10156 1.5 1.5 0 0 1 0.083984-0.09375 1.5 1.5 0 0 1 0.023438-0.023438 1.5 1.5 0 0 1 0.052734-0.050781 1.5 1.5 0 0 1 0.0625-0.052734 1.5 1.5 0 0 1 0.085938-0.0625 1.5 1.5 0 0 1 0.025391-0.019531 1.5 1.5 0 0 1 0.10742-0.0625 1.5 1.5 0 0 1 0.025391-0.013672 1.5 1.5 0 0 1 0.056641-0.027344 1.5 1.5 0 0 1 0.095703-0.042969 1.5 1.5 0 0 1 0.11914-0.041016 6 6 0 0 1 0.056641-0.26953 6 6 0 0 1 0.082031-0.36523 6 6 0 0 1 0.085938-0.27344 6 6 0 0 1 0.091797-0.2793 6 6 0 0 1 0.13086-0.30469 6 6 0 0 1 0.11328-0.25195 6 6 0 0 1 0.12891-0.23242 6 6 0 0 1 0.16992-0.29688 6 6 0 0 1 0.19336-0.2793 6 6 0 0 1 0.13672-0.19141 6 6 0 0 1 0.26367-0.30859 6 6 0 0 1 0.13086-0.14844 6 6 0 0 1 0.26758-0.25586 6 6 0 0 1 0.17188-0.16016 6 6 0 0 1 0.26367-0.20508 6 6 0 0 1 0.21484-0.16406 6 6 0 0 1 0.28516-0.17969 6 6 0 0 1 0.2168-0.13477 6 6 0 0 1 0.30469-0.15234 6 6 0 0 1 0.24023-0.11719 6 6 0 0 1 0.28711-0.10938 6 6 0 0 1 0.27734-0.099609 6 6 0 0 1 0.25781-0.070312 6 6 0 0 1 0.32812-0.083984 6 6 0 0 1 0.23828-0.039062 6 6 0 0 1 0.35352-0.054688 6 6 0 0 1 0.24023-0.015625 6 6 0 0 1 0.3125-0.019531zm0.078125 0.99805c-1.3093 0-2.6113 0.53904-3.5371 1.4648-0.7171 0.7171-1.1927 1.6611-1.375 2.6582a1.5 1.5 0 0 1 0.12109 0.060547 1.5 1.5 0 0 1 0.11719 0.068359 1.5 1.5 0 0 1 0.023438 0.015625 1.5 1.5 0 0 1 0.097656 0.072266l3.6562-0.37891a1.5 1.5 0 0 1 0.42969-0.60547 1.5 1.5 0 0 1 0.12109-0.089844 1.5 1.5 0 0 1 0.8457-0.26367 1.5 1.5 0 0 1 0.09375 0.0039062 1.5 1.5 0 0 1 0.087891 0.0078126l1.4082-2.002a1.5 1.5 0 0 1-0.023438-0.076172 1.5 1.5 0 0 1-0.035156-0.13086 1.5 1.5 0 0 1 0-0.0078125 1.5 1.5 0 0 1-0.019531-0.12109 1.5 1.5 0 0 1-0.00586-0.060547 1.5 1.5 0 0 1-0.005859-0.11328 1.5 1.5 0 0 1 0.003906-0.068359c-0.6315-0.2766-1.3145-0.43359-2.0039-0.43359zm0 1c0.25412 0 0.50328 0.11304 0.75781 0.16602l-0.68359 0.97266c-0.5757 0.1137-1.0486 0.41323-1.4238 0.86523l-2.0156 0.20898c0.1838-0.352 0.26016-0.76604 0.53516-1.041 0.7316-0.7315 1.7953-1.1719 2.8301-1.1719zm3.9238 0.93945a1.5 1.5 0 0 1-0.14062 0.033203 1.5 1.5 0 0 1-0.005859 0.0019531 1.5 1.5 0 0 1-0.039063 0.0058594 1.5 1.5 0 0 1-0.099609 0.013672 1.5 1.5 0 0 1-0.13867 0.0078125 1.5 1.5 0 0 1-0.12891-0.0058594 1.5 1.5 0 0 1-0.12695-0.017578l-1.3652 1.9395a1.5 1.5 0 0 1 0.12109 0.58398 1.5 1.5 0 0 1-0.0058594 0.12305 1.5 1.5 0 0 1 0 0.0058593 1.5 1.5 0 0 1-0.011719 0.083984 1.5 1.5 0 0 1-0.011719 0.078125 1.5 1.5 0 0 1-0.0019531 0.0078125 1.5 1.5 0 0 1-0.029297 0.11914l2.1465 2.1406a1.5 1.5 0 0 1 0.11523-0.027344 1.5 1.5 0 0 1 0.14062-0.021484 1.5 1.5 0 0 1 0.007812-0.001954 1.5 1.5 0 0 1 0.001953 0 1.5 1.5 0 0 1 0.14844-0.007812 1.5 1.5 0 0 1 0.068359 0.003906c0.1385-0.31575 0.24644-0.64458 0.32031-0.98047s0.11328-0.67874 0.11328-1.0234c0-1.1048-0.40212-2.1897-1.0781-3.0625zm-0.47852 1.4922c0.239 0.5174 0.55664 1.0175 0.55664 1.5703 0 0.15447-0.079719 0.30563-0.099609 0.46094l-0.91016-0.90625c4.29e-4 -0.017805 0.007812-0.034924 0.007812-0.052734a1.0001 1.0001 0 0 0 0-0.0058593c0-0.1148-0.052359-0.22224-0.068359-0.33594l0.51367-0.73047zm-4.1113 2.0137-3.3613 0.34766a1.5 1.5 0 0 1-0.037109 0.14258 1.5 1.5 0 0 1 0 0.0019531 1.5 1.5 0 0 1-0.042969 0.12305 1.5 1.5 0 0 1-0.0078125 0.019531 1.5 1.5 0 0 1-0.054688 0.11719 1.5 1.5 0 0 1-0.0097656 0.017578 1.5 1.5 0 0 1-0.015625 0.025391 1.5 1.5 0 0 1-0.0625 0.10156 1.5 1.5 0 0 1-0.078125 0.10547 1.5 1.5 0 0 1-0.052734 0.058594 1.5 1.5 0 0 1-0.0625 0.066406 1.5 1.5 0 0 1-0.095703 0.085938 1.5 1.5 0 0 1-0.0019531 0.0019531 1.5 1.5 0 0 1-0.11914 0.087891c0.2502 0.6669 0.62696 1.287 1.1309 1.791 0.9258 0.926 2.2278 1.4648 3.5371 1.4648 1.1048 0 2.1905-0.40212 3.0625-1.0781a1.5 1.5 0 0 1-0.033203-0.14062 1.5 1.5 0 0 1-0.007813-0.044922 1.5 1.5 0 0 1-0.013672-0.099609 1.5 1.5 0 0 1-0.007812-0.13867 1.5 1.5 0 0 1 0.005859-0.099609 1.5 1.5 0 0 1 0.00586-0.080079 1.5 1.5 0 0 1 0.015625-0.091796 1.5 1.5 0 0 1 0.017578-0.089844l-2.1895-2.1836a1.5 1.5 0 0 1-0.10742 0.021484 1.5 1.5 0 0 1-0.0625 0.0097656 1.5 1.5 0 0 1-0.099609 0.0097657 1.5 1.5 0 0 1-0.085938 0.0039062 1.5 1.5 0 0 1-0.14648-0.0078125 1.5 1.5 0 0 1-0.0039062 0 1.5 1.5 0 0 1-0.13281-0.019531 1.5 1.5 0 0 1-0.12305-0.029297 1.5 1.5 0 0 1-0.027344-0.0078125 1.5 1.5 0 0 1-0.083984-0.029297 1.5 1.5 0 0 1-0.060547-0.023438 1.5 1.5 0 0 1-0.091797-0.042969 1.5 1.5 0 0 1-0.039062-0.019531 1.5 1.5 0 0 1-0.080078-0.046875 1.5 1.5 0 0 1-0.050781-0.03125 1.5 1.5 0 0 1-0.070312-0.052734 1.5 1.5 0 0 1-0.050781-0.037109 1.5 1.5 0 0 1-0.0625-0.058594 1.5 1.5 0 0 1-0.046875-0.042969 1.5 1.5 0 0 1-0.095703-0.10742zm0.0078125 1.0039c0.3727 0.2174 0.69922 0.53326 1.1309 0.53906l1.3652 1.3633c-0.5867 0.321-1.1908 0.65234-1.8379 0.65234-1.0349 0-2.0986-0.44018-2.8301-1.1719-0.2957-0.296-0.49169-0.69408-0.68359-1.0879l2.8555-0.29492z" style="fill:#333333"/>
<path d="m8 2a6 6 0 0 0-5.9219 5.0625 1.5 1.5 0 0 0-1.0781 1.4375 1.5 1.5 0 0 0 1.3477 1.4922 6 6 0 0 0 5.6523 4.0078 6 6 0 0 0 3.662-1.256 1.5 1.5 0 0 0 0.838 0.256 1.5 1.5 0 0 0 1.5-1.5 1.5 1.5 0 0 0-0.502-1.117 6 6 0 0 0 0.502-2.383 6 6 0 0 0-1.256-3.6621 1.5 1.5 0 0 0 0.256-0.8379 1.5 1.5 0 0 0-1.5-1.5 1.5 1.5 0 0 0-1.117 0.502 6 6 0 0 0-2.383-0.502zm0 0.998c0.6894 0 1.3725 0.157 2.004 0.4336a1.5 1.5 0 0 0-4e-3 0.0684 1.5 1.5 0 0 0 0.09 0.5098l-1.4084 2.0019a1.5 1.5 0 0 0-0.1816-0.0117 1.5 1.5 0 0 0-1.3965 0.959l-3.6562 0.3789a1.5 1.5 0 0 0-0.3594-0.2168c0.1823-0.9971 0.6579-1.9411 1.375-2.6582 0.9258-0.9258 2.2278-1.4649 3.5371-1.4649zm3.924 1.9395c0.676 0.8728 1.078 1.9577 1.078 3.0625 0 0.6894-0.157 1.3725-0.434 2.004a1.5 1.5 0 0 0-0.068-4e-3 1.5 1.5 0 0 0-0.414 0.059l-2.1465-2.141a1.5 1.5 0 0 0 0.0605-0.418 1.5 1.5 0 0 0-0.1211-0.584l1.3651-1.9394a1.5 1.5 0 0 0 0.256 0.0234 1.5 1.5 0 0 0 0.424-0.0625zm-4.59 3.5059a1.5 1.5 0 0 0 1.166 0.5566 1.5 1.5 0 0 0 0.3555-0.0449l2.1895 2.1839a1.5 1.5 0 0 0-0.045 0.361 1.5 1.5 0 0 0 0.062 0.424c-0.872 0.676-1.9572 1.078-3.062 1.078-1.3093 0-2.6113-0.539-3.5371-1.465-0.5039-0.504-0.8807-1.124-1.1309-1.7909a1.5 1.5 0 0 0 0.6407-0.9551l3.3613-0.3476z" fill="#f1f2f2" opacity=".5" style="fill:#f1f2f2;opacity:.5"/>
</svg>
