<?xml version="1.0" encoding="UTF-8" standalone="no"?>
<!--Part of Monotone: https://github.com/sixsixfive/Monotone, released under cc-by-sa_v4-->
<svg id="svg24" xmlns="http://www.w3.org/2000/svg" viewBox="0 0 16 16" version="1.1"><path id="path817" style="fill-opacity:.99184;stroke-width:.32567;paint-order:fill markers stroke;fill:#333333" d="m7.7207-0.011719c-0.4138-0.030012-0.8085 0.16011-0.1592 0.14987-0.9411-0.33212-1.8436 0.30781-2.7107 0.5926-0.2646 0.09396-1.1369 0.51405-0.334 0.34735 0.1721-0.23221-1.0439 0.0818-1.2409 0.4084-1.042 0.7914-2.0377 1.718-2.5996 2.9242-0.46299 0.7756-0.69784 1.6376-0.64509 2.5388-0.048757 1.3394-0.003826 2.7257 0.59721 3.9555 1.3786 3.016 4.6128 5.081 7.9206 5.111 0.734 0.079 1.584-0.227 1.774-1.014 0.296-0.804-0.235-1.756-1.0908-1.892-0.7668-0.026-1.3888-0.321-2.0151-0.716-0.7277-0.258-1.2928-0.788-1.8255-1.327-0.5423-0.61-0.3626-1.8168-1.3024-2.1519-0.4624-0.5713-0.2306-1.445-0.1049-2.1069 0.2611-0.7868 0.8585-1.4544 1.6485-1.7287 0.4046-0.2179 0.5208-0.4153 0.1302 0.0247-0.2444 0.2103-0.6189 0.8982-0.4858 0.7304-0.6016 0.6605-0.3398 1.5876-0.1028 2.346-0.071494 0.99047 0.24516 1.9879 1.2091 2.4737 1.1327 0.76008 2.5553 1.1567 3.9134 0.91608 0.28759 0.12376 0.86794-0.59398 1.3622-0.572 1.6628-0.86193 1.1648-0.53893 1.3418-0.63136 0.82854-0.13937 1.0631-0.70883 1.4676-1.219 0.34-0.326 0.146-0.4731 0.322-0.5237 0.618-0.5266 0.528-1.4454 0.985-2.079 0.47-0.6937 0.004-1.3796-0.057-2.0803 0.001-0.9285-0.752-1.7074-1.376-2.3465-0.746-0.6425-1.621-1.219-2.577-1.4576-0.92 0.05059-1.752-0.55604-2.6588-0.4275-0.2723 0.09242-1.3151-0.20294-0.467 0.06563 0.597 0.14982-0.7641 0.20067-0.1437-0.00802-0.2118-0.17734-0.4952-0.30621-0.7748-0.30273zm0.91016 0.23633 0.00799 0.002169zm0.1015 6.5801c0.87932-0.35399 1.6836 0.78752 2.5548 0.1952 0.28884 0.06147-0.57357 0.83272-0.91706 0.87867-0.6887 0.3611-1.9533 0.1362-1.9752-0.7685 0.0585-0.1484 0.2004-0.2395 0.3376-0.3054z"/><path id="path16" style="stroke-width:.32567;fill:#f1f2f2" d="m7.7742 1.0007c-0.22933 0.01114-0.43066 0.0525-0.58466 0.07827a0.498 0.47536 0 0 0 -0.3656 -0.0095c-0.545 0.1963-1.5 0.4925-2.2767 0.9507a0.5 0.47727 0 0 0 -0.4593 0.1273c-0.0763 0.0738-0.4183 0.3229-0.7417 0.5689-0.1616 0.1228-0.3296 0.2504-0.47 0.392-0.0613 0.062-0.0923 0.1635-0.146 0.2354a0.48333 0.46136 0 0 0 -0.188 0.147c-0.6186 0.6007-0.418 0.4706-0.6893 0.8823-0.4343 0.7105-0.651 1.3167-0.825 1.7742-0.04333 0.1142-0.036 0.2444 0.0207 0.3532-0.00933-0.01782-0.003-0.0054 0 0.03914 0.00499 0.07223 0.00434 0.19473 0 0.33345-0.008 0.25773-0.018999 0.58863 0 0.91159-0.00167 0.02323 0.00133 0.0455 0 0.06873-0.17833 3.2518 2.7543 6.2573 6.0366 6.9898 0.010668 0.0022 0.020666 0.0073 0.031333 0.0095 0.5767 0.159 1.2467 0.135 1.7964 0.147 0.2296-0.004 0.442-0.181 0.472-0.395s-0.126-0.438-0.3467-0.497c-0.359-0.083-0.5813-0.104-0.7627-0.127-0.172-0.023-0.33-0.052-0.6056-0.128a1.1957 1.1413 0 0 1 -0.355 -0.206c-0.1027-0.083-0.2357-0.211-0.4387-0.353a0.5 0.47727 0 0 0 -0.449 -0.059h-0.0107c-0.042-0.18041-0.21233-0.32773-0.40733-0.35318 0.00233-0.0064-0.08-0.03118-0.146-0.07827-0.088-0.06268-0.175-0.17627-0.15667-0.147a0.497 0.47441 0 0 0 -0.4386 -0.226c-0.0417-0.047-0.105-0.116-0.1253-0.147-0.0174-0.025-0.02-0.035-0.021-0.039-0.01-0.213-0.2017-0.406-0.428-0.431-0.065-0.071-0.1267-0.145-0.188-0.216a0.48266 0.46073 0 0 0 -0.188 -0.421c-0.039-0.029-0.029-0.025-0.0524-0.04a0.477 0.45532 0 0 0 -0.1253 -0.294c-0.0083-0.009-0.0123-0.02-0.0207-0.029 0.0404-0.111 0.0327-0.237-0.021-0.343-0.1623-0.325-0.292-0.5253-0.47-0.6768-0.15-0.1272-0.33-0.1581-0.4386-0.1762 0-0.0013-0.033334-0.06459-0.041666-0.07859a0.47733 0.45563 0 0 0 -0.094 -0.37227c-0.0133-0.0159-0.0433-0.0757-0.0627-0.1082l0.0207-0.1762a0.479 0.45723 0 0 0 -0.1357 -0.3726c0.0134 0.0124-0.102-0.3157-0.0733-0.7452 0.029-0.42286 0.12133-0.90109 0.15667-1.294 0.005-0.03277 0.27867-0.39454 0.55366-0.95072a0.47133 0.44991 0 0 0 0.042 -0.17659c0.163-0.1741 0.3537-0.3841 0.658-0.6177 0.204-0.1568 0.4124-0.2943 0.5847-0.3824 0.17233-0.08782 0.31233-0.09482 0.282-0.098 0.15 0.014 0.306-0.042 0.40733-0.147 0.039668-0.04009 0.076667-0.077 0.10433-0.10786 0.027667-0.03086 0.039333-0.02418 0.094-0.13714 0.001-0.0019-0.0006665-0.008 0-0.0099 0.042333-0.0175 0.134-0.091 0.16733-0.098 0.10167-0.02195 0.271-0.0032 0.56366-0.06873 0.04-0.0086 0.078667-0.02164 0.115-0.03914 0.065666-0.03182 0.10133-0.05409 0.15667-0.08814 0.027667-0.01718 0.062001-0.02354 0.13567-0.10818 0.018666-0.021 0.039333-0.04168 0.062667-0.08814 0.043333-0.021 0.15667-0.05345 0.188-0.06841 0.030333-0.01495 0.126-0.02641 0.15667-0.03945 0.00201-0.000637 0.00867 0.000954 0.010668 0 0.11567 0.04454 0.24967 0.04454 0.36533 0 0.21233-0.08368 0.706-0.15145 1.2323-0.12727 0.52666 0.02418 1.0963 0.1225 1.504 0.27459 0.45933 0.17309 1.0023 0.54727 1.41 0.99972 0.40733 0.45277 0.67066 0.98572 0.689 1.4216 0.0034 0.06459 0.021 0.12854 0.05234 0.18614-0.0047 0.44863 0.033 0.8435-0.08333 1.1276-0.03134 0.08464-0.035 0.17818-0.01064 0.26473-0.000992 0.0022 0.000993 0.0073 0 0.0095-0.019 0.04264-0.02332 0.09895-0.05233 0.15686l-0.03134 0.0099a0.48666 0.46454 0 0 0 -0.21933 0.17659c-0.061 0.09609-0.10767 0.17691-0.13566 0.28414-0.01031 0.04041 0.000332 0.07318 0 0.11773-0.13967 0.10118-0.29333 0.20745-0.449 0.31373-0.01199 0.008-0.01966 0.01177-0.03134 0.01973a0.49566 0.47313 0 0 0 -0.31333 0.06841c-0.24266 0.13459-0.36033 0.24564-0.41766 0.28445-0.04 0.02705-0.15333 0.05727-0.26133 0.08814a0.494 0.47154 0 0 0 -0.19834 0.02927c-0.5811 0.2202-1.3375 0.1159-1.9338-0.2252s-0.992-0.8804-0.9817-1.4608a0.47033 0.44895 0 0 0 -0.0313 -0.1371c0.0433-0.5145 0.3647-1.0271 0.992-1.2549l0.020994-0.0099c0.712-0.28414 1.58-0.14573 2.0467 0.20586 0.18667 0.14859 0.496 0.13364 0.66466-0.03214 0.169-0.16609 0.17066-0.45691 0.004-0.62459-0.01599-0.01686-0.04565-0.03245-0.06267-0.049-0.01599-0.01209-0.03599-0.01782-0.05233-0.02959-0.457-0.4352-1.1838-0.8313-2.1098-0.7941h-0.0107c-0.928 0.0153-1.751 0.4152-2.1513 1.0392a1.5967 1.5241 0 0 0 -0.4803 0.5982c-0.049 0.10818-0.090999 0.20523-0.115 0.25486a0.47833 0.45659 0 0 0 -0.146 0.2745c-0.126 0.7455-0.008 1.359 0.3027 1.8626a0.48333 0.46136 0 0 0 -0.031333 0.539c0.40933 0.59182 1.1187 1.0055 1.88 1.2746 0.66766 0.23609 1.3607 0.32709 1.9947 0.196 0.03866-0.000954 0.08834 0.0013 0.12533 0v-0.01941c0.04668-0.01273 0.1 0.0054 0.14633-0.0099a0.49 0.46773 0 0 0 0.31333 -0.32359c0.60867-0.11264 1.201-0.30704 1.744-0.65672 0.0043-0.0032 0.006-0.007 0.01032-0.0099 0.10366-0.06618 0.184-0.12823 0.27167-0.196a0.5 0.47727 0 0 0 0.49066 -0.18645c0.0034-0.0038 0.0076-0.006 0.01064-0.0095 0.0096-0.01304 0.01167-0.02705 0.02067-0.03945 0.06166-0.08368 0.105-0.16736 0.136-0.26473 0.252-0.03945 0.442-0.29304 0.39666-0.52945 0.01633 0.08655 0.061-0.04614 0.14633-0.20586 0.12-0.04327 0.22067-0.13364 0.27133-0.245 0.0057-0.01177 0.0054-0.0175 0.01064-0.02927 0.01867-0.042 0.0068-0.06745 0.02067-0.10818 0.01233-0.03723 0.01134-0.07127 0.02101-0.10754 0-0.000955 0.01 0.000636 0.01032 0 0.18-0.10086 0.27433-0.32009 0.21933-0.50972-0.000993-0.0041 0.0014-0.006 0-0.0099-0.05567-0.17532 0.06967-0.20745 0.188-0.63732a0.47333 0.45182 0 0 0 0.01064 -0.22559c0.22967-0.06491 0.38334-0.30864 0.334-0.52914l-0.01031-0.049c-0.019-0.05441-0.07334-0.18391-0.10434-0.27459-0.04934-0.16323-0.09266-0.32454-0.15667-0.48045 0.092-0.11582 0.12-0.27427 0.073-0.41172-0.012-0.035-0.039-0.06364-0.05234-0.098-0.441-1.1618-1.59-2.1064-2.706-2.5875a0.49166 0.46932 0 0 0 -0.114 -0.0296 0.48733 0.46518 0 0 0 -0.199 -0.1273c-0.26333-0.08655-0.50833-0.09068-0.66866-0.05886-0.13267 0.02641-0.131 0.02768-0.15667 0.02927-0.663-0.2672-0.9438-0.2959-1.5768-0.4804a0.50033 0.47759 0 0 0 -0.46 0.08846c-0.059336 0.000954-0.138-0.01496-0.18767-0.0095-0.00262 0-0.00764-0.000636-0.010368 0a0.495 0.4725 0 0 0 -0.324 -0.0787c-0.095 0.01018-0.119 0.0013-0.167 0a0.49666 0.47409 0 0 0 -0.3967 -0.1568z"/></svg>
