<?xml version="1.0" encoding="UTF-8" standalone="no"?>
<!--Part of Monotone: https://github.com/sixsixfive/Monotone, released under cc-by-sa_v4-->
<svg id="svg21" xmlns="http://www.w3.org/2000/svg" viewBox="0 0 16 16" version="1.1"><path id="path821" style="fill-opacity:.99793;paint-order:fill markers stroke;fill:#333333" d="m12.5 0a2.5 2.5 0 0 0 -2.053 1.0742 6.5 6.5 0 0 0 -0.947 -0.0742 6.5 6.5 0 0 0 -5.9941 4 2.5 2.5 0 0 0 -0.0059 0 2.5 2.5 0 0 0 -2.5 2.5 2.5 2.5 0 0 0 2.5 2.5 2.5 2.5 0 0 1 0.002 0 6.5 6.5 0 0 0 5.998 4 6.5 6.5 0 0 0 0.547 -0.027 2.5 2.5 0 0 0 2.453 2.027 2.5 2.5 0 0 0 2.5 -2.5 2.5 2.5 0 0 0 -0.652 -1.682 6.5 6.5 0 0 0 1.652 -4.318 6.5 6.5 0 0 0 -1.279 -3.8594 2.5 2.5 0 0 0 0.279 -1.1406 2.5 2.5 0 0 0 -2.5 -2.5zm-3 6a1.5 1.5 0 0 1 1.5 1.5 1.5 1.5 0 0 1 -1.5 1.5 1.5 1.5 0 0 1 -1.5 -1.5 1.5 1.5 0 0 1 1.5 -1.5z"/><path id="path4" style="stroke-width:.34783;fill:#f1f2f2;fill-rule:evenodd" d="m12.5 0.99984a1.4998 1.4998 0 0 0 -1.5 1.4999 1.4998 1.4998 0 0 0 1.5 1.5002 1.4998 1.4998 0 0 0 1.5 -1.5002 1.4998 1.4998 0 0 0 -1.5 -1.4999zm-3.0002 1.1173a5.5002 5.5002 0 0 0 -2.5722 0.6424l1.3982 2.5353a2.5002 2.4999 0 0 1 1.174 -0.2949 2.5002 2.4999 0 0 1 2.4452 2h3.0178a5.5002 5.5002 0 0 0 -0.945 -2.5138 2.5002 2.5002 0 0 1 -1.518 0.5138 2.5002 2.5002 0 0 1 -2.5001 -2.5002 2.5002 2.5002 0 0 1 0.0271 -0.3513 5.5002 5.5002 0 0 0 -0.5272 -0.0313zm-3.4102 1.193a5.5002 5.5002 0 0 0 -1.5349 1.926 2.5002 2.5002 0 0 1 1.4452 2.2636 2.5002 2.5002 0 0 1 -1.5392 2.3068 5.5002 5.5002 0 0 0 1.9277 2.3395l1.5061-2.7301a2.5002 2.4999 0 0 1 -0.8946 -1.9162 2.5002 2.4999 0 0 1 0.5451 -1.5527l-1.4554-2.6365zm-2.5896 2.6898a1.4998 1.4998 0 0 0 -1.5001 1.4998 1.4998 1.4998 0 0 0 1.5001 1.5002 1.4998 1.4998 0 0 0 1.4999 -1.5002 1.4998 1.4998 0 0 0 -1.5002 -1.4998zm8.449 2a2.5002 2.4999 0 0 1 -2.4492 2 2.5002 2.4999 0 0 1 -0.727 -0.1074l-1.5117 2.7423a5.5002 5.5002 0 0 0 2.2383 0.48244 5.5002 5.5002 0 0 0 0.5374 -0.02748 2.5002 2.5002 0 0 1 2.4626 -2.0898 2.5002 2.5002 0 0 1 1.1096 0.26366 5.5002 5.5002 0 0 0 1.3774 -3.2637h-3.0373zm0.55096 4a1.4998 1.4998 0 0 0 -1.5002 1.4998 1.4998 1.4998 0 0 0 1.5002 1.5002 1.4998 1.4998 0 0 0 1.4998 -1.5002 1.4998 1.4998 0 0 0 -1.5002 -1.4998z"/></svg>
