<?xml version="1.0" encoding="UTF-8" standalone="no"?>
<svg
   xmlns:dc="http://purl.org/dc/elements/1.1/"
   xmlns:cc="http://creativecommons.org/ns#"
   xmlns:rdf="http://www.w3.org/1999/02/22-rdf-syntax-ns#"
   xmlns:svg="http://www.w3.org/2000/svg"
   xmlns="http://www.w3.org/2000/svg"
   viewBox="0 0 16 16"
   id="svg2"
   version="1.1">
  <metadata
     id="metadata8">
    <rdf:RDF>
      <cc:Work
         rdf:about="">
        <dc:format>image/svg+xml</dc:format>
        <dc:type
           rdf:resource="http://purl.org/dc/dcmitype/StillImage" />
        <dc:title></dc:title>
      </cc:Work>
    </rdf:RDF>
  </metadata>
  <defs
     id="defs6" />
  <path
     id="path854"
     d="M 3.5,0 C 2.1321423,0 1,1.1321423 1,2.5 v 5.75 1.25 1.449219 c 0,1.02539 -0.0151476,1.739641 0.3535156,2.486328 0.3686633,0.746687 0.9394532,1.271484 1.9394532,2.271484 C 3.4804984,15.89454 3.7348073,15.999917 4,16 h 7 c 0.265193,-8.3e-5 0.519501,-0.10546 0.707031,-0.292969 1,-1 1.57079,-1.524797 1.939453,-2.271484 C 14.015148,12.68886 14,11.974609 14,10.949219 V 10.044922 C 14.000336,10.02995 14.000336,10.014972 14,10 V 8.25 2.5 C 14,1.1321423 12.867858,0 11.5,0 10.803242,0 10.172418,0.25692458 9.6757812,0.71289062 9.1791445,1.1688567 8.8085868,1.9687259 9.0390625,2.7753906 9,5 9.0390625,2.7753906 9,5 H 6 V 2.5 C 6,1.1321423 4.8678577,0 3.5,0 Z"
     style="opacity:1;fill:#333333;fill-opacity:1;stroke:none;stroke-width:0.80676466;stroke-linecap:round;stroke-linejoin:round;stroke-miterlimit:4;stroke-dasharray:none;stroke-opacity:1;paint-order:fill markers stroke" />
  <path
     id="rect821"
     d="M 3.5 1 C 2.669 1 2 1.669 2 2.5 L 2 8.25 L 2 9.5 L 2 10.949219 C 2 13 2 13 4 15 L 11 15 C 13 13 13 13 13 10.949219 L 13 10 C 12.690055 9.5457223 12.485981 9.024073 11.5 9 L 8 9 L 5.5 9 C 5.2057028 9 5 9.205703 5 9.5 C 5 9.794297 5.2057028 10 5.5 10 L 8 10 L 8 13 L 7 13 L 7 11 L 5.5 11 C 4.669 11 4 10.331 4 9.5 C 4 8.8457598 4.4180774 8.2978026 5 8.0917969 L 5 6 L 5 2.5 C 5 1.669 4.331 1 3.5 1 z M 13 10 L 13 8.25 L 13 2.5 C 13 1.669 12.331 1 11.5 1 C 10.669 1 9.7717067 1.7009736 10 2.5 L 10 6 L 10 8 L 11.5 8 C 12.15424 8 12.7022 8.4180774 12.908203 9 L 13 10 z M 6 6 L 6 8 L 7 8 L 7 6 L 6 6 z M 8 6 L 8 8 L 9 8 L 9 6 L 8 6 z "
     style="opacity:1;fill:#f1f2f2;fill-opacity:1;stroke:none;stroke-width:0.80676466;stroke-linecap:round;stroke-linejoin:round;stroke-miterlimit:4;stroke-dasharray:none;stroke-opacity:1;paint-order:fill markers stroke" />
</svg>
