<?xml version="1.0" encoding="UTF-8"?>
<!--Part of Monotone: https://github.com/sixsixfive/Monotone, released under cc-by-sa_v4-->
<svg version="1.1" viewBox="0 0 16 16" xmlns="http://www.w3.org/2000/svg">
<path d="m14.99 0c-0.27465 0.0030059-0.53598 0.11884-0.72266 0.32031-0.10704 0.11526-0.88619 0.43814-1.8867 0.55078-1.0005 0.11264-2.178 0.11626-3.1445 0.12891-2.1421 0.027842-3.7754 0.24667-5.1074 0.80469-2.6927 1.4888-3.8886 4.1798-4.127 7.0996-0.0019531 5.0957-0.0019531 0.095703 0 5.0234-0.029806 0.56136 0.40877 1.037 0.9707 1.0527 2.9402 0.0779 5.7046-0.07552 8.0977-0.71094 3.7101-1.1295 5.9485-3.2021 6.5957-6.4375 0.14974-0.57083 0.26255-1.1545 0.32812-1.7461 0.031776-4.1565-0.021987-3.524 0.005859-5.0645 0.0121-0.56449-0.44518-1.0271-1.0098-1.0215z" style="fill:#333333;stroke-width:.96365"/>
<path d="m15.001 1c-0.92863 1-3.8399 0.975-5.751 1-4.1547 0.054-6.0519 0.886-7.2498 3h13.001c0.03436-1.306-0.02693-2.693 0-4z" style="fill:#f1f2f2;stroke-width:.96365"/>
<path d="M 15,6 H 1.5942371 C 1.2008054,7 1.07525,7.943 1,8.977 H 14.265 C 14.683133,8.0036693 15,7 15,6 Z" style="fill:#f1f2f2;stroke-width:.93541"/>
<path d="m0.99917 10c-0.039388 1.33 0.065952 2.73 0 3.98 5.7745 0.153 10.732-0.634 13.001-3.98z" style="fill:#f1f2f2;stroke-width:.95708"/>
</svg>
