<?xml version="1.0" encoding="UTF-8"?>
<!--Part of Monotone: https://github.com/sixsixfive/Monotone, released under cc-by-sa_v4-->
<svg version="1.1" viewBox="0 0 16 16" xmlns="http://www.w3.org/2000/svg">
<path d="m11.822-0.019531a1.0198 1.0198 0 0 0-0.73633 1.7461c0.0051 0.0072-0.02666-0.027186-0.02344-0.017578 0.03659 0.10917 0.0855 0.31921 0.11133 0.55469 0.01081 0.098553-0.02749 0.17803-0.02539 0.2832-1.0065-0.36209-2.0421-0.56543-3.1484-0.56641-1.1064 9.735e-4 -2.1419 0.20432-3.1484 0.56641 0.0020968-0.10517-0.0362-0.18465-0.025391-0.2832 0.025826-0.23547 0.074736-0.44552 0.11133-0.55469 0.00292-0.00871-0.026023 0.022359-0.021484 0.015625a1.0198 1.0198 0 0 0-1.0391-1.6914c-2.074 0.69132-2.9353 2.8429-3.3926 4.7266s-0.50391 3.6725-0.50391 4.2402c0 3.9566 3.6812 7.0195 8.0195 7.0195 4.3383 0 8.0195-3.0629 8.0195-7.0195 0-0.56771-0.04665-2.3566-0.50391-4.2402-0.45725-1.8837-1.3186-4.0352-3.3926-4.7266a1.0198 1.0198 0 0 0-0.30078-0.052734z" style="fill-opacity:.97357;fill:#333333;stroke-width:.065172"/>
<path d="m4.1992 1c-3 1-3.1992 7-3.1992 8 0 3.3137 3.134 6 7 6 3.866 0 7-2.6863 7-6 0-1-0.19922-7-3.1992-8 0.32104 0.16659 0.64191 1.9087 0.19922 3-1.2242-0.81159-2.4523-0.99864-4-1-1.5477 0.0013618-2.7758 0.18841-4 1-0.44269-1.0913-0.12182-2.8334 0.19922-3z" style="fill:#f1f2f2;stroke-width:.065172"/>
</svg>
