<?xml version="1.0" encoding="UTF-8" standalone="no"?>
<!--Part of Monotone: https://github.com/sixsixfive/Monotone, released under cc-by-sa_v4-->
<svg id="svg8" xmlns="http://www.w3.org/2000/svg" viewBox="0 0 16 16" version="1.1"><g id="g6" font-weight="400" font-family="Sans"><path id="path2" style="text-decoration-line:none;text-transform:none;text-indent:0" overflow="visible" d="m11.934 3a1.016 1.001 0 0 0 -0.703 0.292l-4.191 4.129-1.208-1.191a1.016 1.001 0 0 0 -1.438 0l-2.113 2.083a1.016 1.001 0 0 0 0 1.415l2.984 2.94 1.056 1.04a1.016 1.001 0 0 0 1.437 0l1.057-1.04 5.965-5.878a1.016 1.001 0 0 0 0 -1.416l-2.113-2.082a1.016 1.001 0 0 0 -0.733 -0.292z" fill="#333333"/><path id="path4" style="text-decoration-line:none;text-transform:none;text-indent:0" overflow="visible" d="m11.95 4l-4.91 4.837-1.927-1.898-2.113 2.081 2.983 2.94 1.057 1.04 1.056-1.04 5.966-5.878z" fill="#f1f2f2"/></g></svg>
