<?xml version="1.0" encoding="UTF-8" standalone="no"?>
<!--Part of Monotone: https://github.com/sixsixfive/Monotone, released under cc-by-sa_v4-->
<svg id="svg8" xmlns="http://www.w3.org/2000/svg" version="1.1" viewBox="0 0 16 16"><path id="path873" style="paint-order:fill markers stroke;fill:#333333" d="m8-0.068359c-1.056 0-2.1122 0.21111-3.0879 0.61523-0.9756 0.40413-1.8705 1.0013-2.6172 1.748s-1.3439 1.6416-1.748 2.6172c-0.40415 0.9757-0.61526 2.0319-0.61526 3.0879s0.21111 2.1122 0.61523 3.0879c0.40412 0.97564 1.0013 1.8705 1.748 2.6172 0.74672 0.74672 1.6415 1.3439 2.6172 1.748 0.9758 0.404 2.032 0.615 3.088 0.615s2.1122-0.21111 3.0879-0.61523c0.97564-0.40412 1.8705-1.0013 2.6172-1.748 0.74672-0.74672 1.3439-1.6415 1.748-2.6172 0.404-0.976 0.615-2.032 0.615-3.088s-0.21111-2.1122-0.61523-3.0879c-0.404-0.9756-1.001-1.8705-1.748-2.6172s-1.641-1.3439-2.617-1.748c-0.976-0.40415-2.032-0.61526-3.088-0.61526z" transform="matrix(.99153 0 0 .99153 .067780 .067780)"/><path id="path823" style="paint-order:fill markers stroke;fill:#f1f2f2" d="m8 0.99805c-1.8329 0-3.6551 0.75472-4.9512 2.0508-1.296 1.2961-2.0508 3.1183-2.0508 4.9512s0.75472 3.6551 2.0508 4.9512c1.2961 1.296 3.1183 2.051 4.9512 2.051s3.6551-0.75472 4.9512-2.0508c1.296-1.296 2.051-3.1181 2.051-4.951s-0.75472-3.6551-2.0508-4.9512c-1.296-1.296-3.1181-2.0508-4.951-2.0508z" transform="matrix(.99972 0 0 .99972 .0022315 .0022315)"/><path id="rect875" style="paint-order:fill markers stroke;fill:#333333" d="m8 3c-0.554 0-1 0.446-1 1v2.1328l-1.4453-0.9648a1.0001 1.0001 0 0 0 -0.5645 -0.1758 1.0001 1.0001 0 0 0 -0.5449 1.8398l1.752 1.168-1.752 1.168a1.0001 1.0001 0 1 0 1.1094 1.664l1.4453-0.9648v2.1328c0 0.554 0.446 1 1 1s1-0.446 1-1v-2.1328l1.445 0.9648a1.0001 1.0001 0 1 0 1.11 -1.664l-1.7523-1.168 1.7523-1.168a1.0001 1.0001 0 0 0 -0.575 -1.8398 1.0001 1.0001 0 0 0 -0.535 0.1758l-1.445 0.9648v-2.1328c0-0.554-0.446-1-1-1z"/></svg>
