<?xml version="1.0" encoding="UTF-8" standalone="no"?>
<!--Part of Monotone: https://github.com/sixsixfive/Monotone, released under cc-by-sa_v4-->
<svg id="svg4" xmlns="http://www.w3.org/2000/svg" version="1.1" viewBox="0 0 16 16"><path id="path831" style="fill:#333333" d="m3.7852 2.0176v0.00195a1.74 1.74 0 0 0 -0.80664 0.21875c-1.039 0.546-1.9908 2.3362-2.5098 4.6562-0.442 1.97-0.60484 4.666-0.33984 5.75 0.229 0.931 0.62603 1.3438 1.332 1.3438 1.046-0.018 2.3594-1.183 3.1914-2.75 0.6029-0.868 2.0006-1.2634 3.3476-1.22 1.347-0.046 2.7447 0.3527 3.3477 1.2207 0.833 1.567 2.1454 2.732 3.1914 2.75 0.706 0 1.104-0.41275 1.334-1.3438 0.264-1.084 0.1002-3.78-0.3418-5.75-0.519-2.32-1.4728-4.1102-2.5098-4.6562-0.57-0.305-1.04-0.296-1.457 0-0.528 0.3756-1.625 0.7789-3.564 0.7789-1.939 0.003-3.0365-0.4033-3.5645-0.7793a1.062 1.062 0 0 0 -0.6503 -0.2207z"/><path id="path842" style="stroke-width:1.0014;fill:#f1f2f2" d="m12.262 3.0176c-0.112 0.0072-0.232 0.049-0.342 0.1308-1.312 0.7763-2.9233 0.9316-4.4141 0.9082-1.2137-0.04-2.4841-0.2121-3.5313-0.8652-0.1734-0.2468-0.4883-0.0445-0.5781 0.041-0.4464 0.298-0.6755 0.8952-0.961 1.336-1.1221 2.1946-1.3786 4.7196-1.3398 7.1526-0.0318 0.581-0.0949 1.28 0.8945 0.984 0.9075-0.535 1.4048-1.506 1.9786-2.348 0.9691-1.1634 2.5787-1.4471 4.0175-1.4312 1.5046-0.0401 3.2037 0.301 4.1587 1.5762 0.522 0.857 1.084 1.819 2.011 2.269 0.844 0.229 0.75-0.882 0.76-1.558-0.014-2.3982-0.347-4.8817-1.541-6.9982-0.233-0.3571-0.47-0.8604-0.816-1.121-0.081-0.0564-0.186-0.0834-0.297-0.0762zm-8.2288 1.9804h0.9902v1.002h0.9922v1.002h-0.9922v1.0039h-0.9902v-1.0039h-0.9941v-1.002h0.9921c0.0007-0.3343 0.0014-0.6677 0.002-1.002zm7.4668 0.002a0.5 0.5 0 0 1 0.5 0.5 0.5 0.5 0 0 1 -0.5 0.5 0.5 0.5 0 0 1 -0.5 -0.5 0.5 0.5 0 0 1 0.5 -0.5zm-1 1a0.5 0.5 0 0 1 0.5 0.5 0.5 0.5 0 0 1 -0.5 0.5 0.5 0.5 0 0 1 -0.5 -0.5 0.5 0.5 0 0 1 0.5 -0.5zm2 0a0.5 0.5 0 0 1 0.5 0.5 0.5 0.5 0 0 1 -0.5 0.5 0.5 0.5 0 0 1 -0.5 -0.5 0.5 0.5 0 0 1 0.5 -0.5zm-1 1a0.5 0.5 0 0 1 0.5 0.5 0.5 0.5 0 0 1 -0.5 0.5 0.5 0.5 0 0 1 -0.5 -0.5 0.5 0.5 0 0 1 0.5 -0.5z"/></svg>
