<?xml version="1.0" encoding="UTF-8" standalone="no"?>
<!--Part of Monotone: https://github.com/sixsixfive/Monotone, released under cc-by-sa_v4-->
<svg xmlns="http://www.w3.org/2000/svg" version="1.1" viewBox="0 0 16 16">
 <circle r="8" style="paint-order:fill markers stroke" cy="8" cx="8" fill="#333333"/>
 <path style="paint-order:fill markers stroke" d="m7.9989 1c-1.8326 0-3.6545 0.7546-4.9504 2.0505-1.2958 1.2959-2.0505 3.1179-2.0505 4.9505s0.7546 3.6546 2.0505 4.9505c1.2959 1.2958 3.1178 2.0507 4.9504 2.0507s3.6545-0.75462 4.9504-2.0505c1.296-1.296 2.051-3.1179 2.051-4.9506 0-1.8326-0.755-3.6546-2.05-4.9505-1.296-1.2958-3.1181-2.0505-4.9507-2.0505z" stroke-width=".99985" fill="#f1f2f2"/>
 <path style="color:#000000" d="m10.446 11.948c-0.4615 0.348-1.8612-0.965-2.4301-0.967-0.569-0.003-2.0402 1.298-2.4999 0.946-0.4586-0.351 0.6581-2.3603 0.484-2.927-0.1735-0.5673-2.1658-1.4194-1.9877-1.9849 0.1775-0.5655 2.1876-0.2145 2.6496-0.5628 0.462-0.3476 0.7811-2.4541 1.3501-2.4523 0.5689 0.0024 0.871 2.1113 1.3302 2.4637 0.4591 0.3512 2.4718 0.0186 2.6458 0.5853 0.174 0.5673-1.81 1.3855-1.988 1.951-0.17808 0.56551 0.90737 2.5999 0.44538 2.9481z" overflow="visible" stroke-width=".58196" fill="#333333"/>
</svg>
