<?xml version="1.0" encoding="UTF-8" standalone="no"?>
<!--Part of Monotone: https://github.com/sixsixfive/Monotone, released under cc-by-sa_v4-->
<svg id="svg4" xmlns="http://www.w3.org/2000/svg" version="1.1" viewBox="0 0 16 16"><path id="path819" style="color:#f1f2f2;fill:#333333" d="m7 0c-2.1941 0-4 1.8059-4 4v2c-1.0907 0-2 0.9093-2 2v6a1.0001 1.0001 0 0 0 1 1h12a1.0001 1.0001 0 0 0 1 -1v-6c0-1.0907-0.909-2-2-2v-2c0-2.1941-1.806-4-4-4zm0 4h2v2h-2z"/><path id="path2" d="m7 1c-1.645 0-3 1.355-3 3v3h-1c-0.554 0-1 0.446-1 1v6h12v-6c0-0.554-0.446-1-1-1h-1v-3c0-1.645-1.355-3-3-3zm0 2h2c0.571 0 1 0.429 1 1v3h-4v-3c0-0.571 0.429-1 1-1z" color="#f1f2f2" overflow="visible" fill="#f1f2f2"/></svg>
