<?xml version="1.0" encoding="UTF-8" standalone="no"?>
<!--Part of Monotone: https://github.com/sixsixfive/Monotone, released under cc-by-sa_v4-->
<svg id="svg6" xmlns="http://www.w3.org/2000/svg" viewBox="0 0 16 16" version="1.1"><path id="path2" style="fill:#333333" d="m8 0c-4.406 0-8 3.594-8 8s3.594 8 8 8 8-3.594 8-8-3.594-8-8-8zm0.012 1.965a1 1 0 0 1 0.004 0l0.168 0.035h-0.518l0.06-0.016 0.09-0.011 0.196-0.008z" fill="#333333"/><path id="path4" d="m8 1a7 7 0 1 0 0 14 7 7 0 0 0 0 -14zm-0.094 1.969a1 1 0 0 1 1.094 1.031v5a1 1 0 1 1 -2 0v-5a1 1 0 0 1 0.781 -1 1 1 0 0 1 0.125 -0.031zm0.094 8.031a1 1 0 1 1 0 2 1 1 0 0 1 0 -2z" fill="#f1f2f2"/></svg>
