<?xml version="1.0" encoding="UTF-8" standalone="no"?>
<!--Part of Monotone: https://github.com/sixsixfive/Monotone, released under cc-by-sa_v4-->
<svg id="svg22" xmlns="http://www.w3.org/2000/svg" viewBox="0 0 16 16" version="1.1"><path id="path834" style="fill:#333333" d="m2 0a1.0001 1.0001 0 0 0 -1 1v1.5 4.5 0.9766a1.0001 1.0001 0 0 0 0 0.0234v4.5 2.5a1.0001 1.0001 0 0 0 1 1h1.5 1.5 0.9766 3.0234 0.9766 1.5234 1.5a1.0001 1.0001 0 0 0 1 -1v-2.5-10-1.5a1.0001 1.0001 0 0 0 -1 -1h-2.5-0.5-0.9766-0.0234-5.5-1.5z"/><path id="path10" style="fill:#f1f2f2" d="m2 1v6h3v-2h4v-4zm8 0v14h3v-14zm-4 5v9h3v-9zm-4 2v7h3v-7z"/></svg>
