<?xml version="1.0" encoding="UTF-8"?>
<!--Part of Monotone: https://github.com/sixsixfive/Monotone, released under cc-by-sa_v4-->
<svg version="1.1" viewBox="0 0 16 16" xmlns="http://www.w3.org/2000/svg">
<circle cx="8" cy="8" r="8" style="fill-opacity:.94422;fill:#333333"/>
<path d="m7.7969 1c0.3025-0.00819 0.6035 0.0104 0.9023 0.041a7 7 0 0 0-0.5742-0.0332 7 7 0 0 0-0.3281-0.0078zm1.1191 0.0664c0.2754 0.037 0.5478 0.0875 0.8164 0.1563a7 7 0 0 0-0.8164-0.1563zm1.877 0.5234c0.288 0.1264 0.571 0.2683 0.842 0.4336a7 7 0 0 0-0.842-0.4336zm0.842 0.4336c-2.7112 0.7762-5.2214 2.0745-6.0803 3.627-0.5006 0.9928-0.4702 2.2839 0.0781 3.373 0.5604 1.1146 1.5606 1.8306 2.7442 1.9666 1.1741 0.134 2.055-0.051 2.551-0.724 0.499-0.6802 0.592-1.6077 0.238-2.3617-0.381-0.8105-0.955-1.2389-1.7519-1.3105-0.6081-0.0566-1.0578 0.2095-1.2207 0.4804-0.0471 0.0851-0.1318 0.242-0.1329 0.4649v0.0058c0 0.6085 0.5286 0.7758 0.6368 0.7832 0.0326-1e-3 0.1913-0.0051 0.4023-0.0605l0.1016-0.0371 0.0703-0.0235 0.0527-0.0117c0.4624-0.0918 0.8908 0.2807 0.8908 0.7754-2e-3 0.2627-0.128 0.5073-0.3361 0.6523l-0.0137 0.0098-0.0351 0.0234c-0.1112 0.0728-0.2119 0.1139-0.3184 0.1485-0.3023 0.1035-0.5708 0.1523-0.8379 0.1523-0.9161-0.0014-2.1922-0.829-2.209-2.3847-8e-3 -0.8784 0.4104-1.6765 1.1485-2.1914 0.8496-0.5902 2.3167-0.7905 3.6797 0.0879 1.675 1.0775 2.112 3.1909 1.676 4.6312-0.637 2.086-2.426 3.1-4.7854 2.879-1.672-0.157-3.2239-1.084-4.1484-2.481-0.4102-0.618-0.7127-1.3074-0.877-1.996-0.3769-1.5727 0.0055-3.2442 0.2891-3.9844 0.3959-1.0309 0.9582-1.9945 1.666-2.8946a7 7 0 0 0-0.6231 0.3204 7 7 0 0 0-1.1328 0.8183 7 7 0 0 0-0.4648 0.4531 7 7 0 0 0-0.0371 0.0372 7 7 0 0 0-0.4453 0.5351 7 7 0 0 0-0.3926 0.5801 7 7 0 0 0-0.2793 0.5137 7 7 0 0 0-0.0567 0.1093 7 7 0 0 0-0.2675 0.6387 7 7 0 0 0-0.2032 0.668 7 7 0 0 0-0.1113 0.5644 7 7 0 0 0-0.0254 0.1289 7 7 0 0 0-0.0547 0.5606 7 7 0 0 0-0.0117 0.1347 7 7 0 0 0-0.0078 0.3125 7 7 0 0 0 0.3125 2.068 7 7 0 0 0 0 2e-3 7 7 0 0 0 0.2402 0.657 7 7 0 0 0 0.67 1.226 7 7 0 0 0 0.9003 1.069 7 7 0 0 0 7.141 1.603 7 7 0 0 0 2.398-1.402 7 7 0 0 0 2e-3 -2e-3 7 7 0 0 0 0.496-0.49 7 7 0 0 0 2e-3 -2e-3 7 7 0 0 0 0.445-0.538 7 7 0 0 0 0-1e-3 7 7 0 0 0 0.391-0.579 7 7 0 0 0 0-2e-3 7 7 0 0 0 0.33-0.615 7 7 0 0 0 0-2e-3 7 7 0 0 0 0.268-0.644 7 7 0 0 0 0-2e-3 7 7 0 0 0 0.201-0.6682 7 7 0 0 0 0-0.0039 7 7 0 0 0 0.133-0.6836 7 7 0 0 0 0-2e-3 7 7 0 0 0 0.064-0.6933 7 7 0 0 0 0-0.0039 7 7 0 0 0 6e-3 -0.2911 7 7 0 0 0-0.035-0.6972 7 7 0 0 0 0-2e-3 7 7 0 0 0-0.014-0.0898 7 7 0 0 0-3.316-5.1856z" style="fill:#f1f2f2;stroke-width:.35"/>
</svg>
