<?xml version="1.0" encoding="UTF-8" standalone="no"?>
<!--Part of Monotone: https://github.com/sixsixfive/Monotone, released under cc-by-sa_v4-->
<svg xmlns="http://www.w3.org/2000/svg" version="1.1" viewBox="0 0 16 16">
 <g fill="#f1f2f2">
  <path d="m2 1c-1.0471 0.0001-1.9999 0.9529-2 2v2c0.0002719 0.693 0.40828 1.3496 1 1.7051v2.5996c-0.58185 0.3626-1.0002 1.0053-1 1.6953v2c0.0001047 1.047 0.95288 2 2 2h2c0.693 0 1.3496-0.408 1.7051-1h4.5899c0.355 0.592 1.012 1 1.705 1h2c1.047 0 2-0.953 2-2v-2c0-0.69-0.418-1.3328-1-1.6953v-2.5996c0.592-0.3555 1-1.0121 1-1.7051v-2c0-1.0471-0.953-1.9999-2-2h-2c-0.693 0.0003-1.35 0.4083-1.705 1h-4.5899c-0.3555-0.5917-1.0121-0.9997-1.7051-1h-2z" fill="#333333"/>
  <path d="m5.9727 3c-0.0038 0.3502-0.0856 0.6957-0.2579 1h4.5702c-0.172-0.3043-0.254-0.6498-0.258-1h-4.0543zm-2.9727 3.7148c-0.3043 0.1723-0.6498 0.2541-1 0.2579v2.0332c0.0198-0.0001 0.0388-0.0065 0.0586-0.0059 0.3314 0.0099 0.6546 0.1133 0.9414 0.2793v-2.5645zm10 0v2.5645c0.304-0.1753 0.649-0.277 1-0.2773v-2.0293c-0.35-0.0038-0.696-0.0856-1-0.2579zm-7.2852 5.2852c0.1723 0.304 0.2541 0.65 0.2579 1h4.0543c0.004-0.35 0.086-0.696 0.258-1h-4.5702z"/>
  <path d="m2 2a1.0001 1.0001 0 0 0 -1 1v2a1.0001 1.0001 0 0 0 1.707 0.707l2-2a1.0001 1.0001 0 0 0 -0.707 -1.707h-2zm10 0a1.0001 1.0001 0 0 0 -0.707 1.707l2 2a1.0001 1.0001 0 0 0 1.707 -0.707v-2a1.0001 1.0001 0 0 0 -1 -1h-2zm-9.9707 8a1.0001 1.0001 0 0 0 -1.0293 1v2a1.0001 1.0001 0 0 0 1 1h2a1.0001 1.0001 0 0 0 0.707 -1.707l-2-2a1.0001 1.0001 0 0 0 -0.6777 -0.293zm11.987 0a1.0001 1.0001 0 0 0 -0.723 0.293l-2 2a1.0001 1.0001 0 0 0 0.707 1.707h2a1.0001 1.0001 0 0 0 1 -1v-2a1.0001 1.0001 0 0 0 -0.984 -1z"/>
  <path d="m2 2a1.0001 1.0001 0 0 0 -1 1v2a1.0001 1.0001 0 0 0 1.707 0.70703l2-2a1.0001 1.0001 0 0 0 -0.707 -1.707zm10 0a1.0001 1.0001 0 0 0 -0.70703 1.707l2 2a1.0001 1.0001 0 0 0 1.707 -0.707v-2a1.0001 1.0001 0 0 0 -1 -1zm-9.9707 8a1.0001 1.0001 0 0 0 -1.0293 1v2a1.0001 1.0001 0 0 0 1 1h2a1.0001 1.0001 0 0 0 0.70703 -1.707l-2-2a1.0001 1.0001 0 0 0 -0.6777 -0.293zm11.986 0a1.0001 1.0001 0 0 0 -0.72266 0.29297l-2 2a1.0001 1.0001 0 0 0 0.708 1.707h2a1.0001 1.0001 0 0 0 1 -1v-2a1.0001 1.0001 0 0 0 -0.98438 -1z"/>
 </g>
</svg>
