<?xml version="1.0" encoding="UTF-8"?>
<!--Part of Monotone: https://github.com/sixsixfive/Monotone, released under cc-by-sa_v4-->
<svg version="1.1" viewBox="0 0 16 16" xmlns="http://www.w3.org/2000/svg">
<path d="m9.1289-0.013672a1.0135 1.0135 0 0 0-0.19727 0.027344c-1.7333 0.40704-3.036 0.97479-3.998 1.75-0.96201 0.77521-1.544 1.7764-1.7832 2.8301-0.47837 2.1073 0.19744 4.3248 0.80078 6.6602a1.0135 1.0135 0 0 0 1.9883-0.14062c0.15032-1.343 0.54931-2.7988 1.3965-3.6992 0.46633 0.43088 0.97771 1.0264 1.3008 1.8828 0.46883 1.2428 0.57063 2.7987-0.38672 4.6562a1.0135 1.0135 0 0 0-0.044922 0.09766c-0.077749 0.20027-0.13143 0.34389-0.17578 0.51562-0.022174 0.08587-0.04712 0.17578-0.048828 0.34375-0.00171 0.16797 0.023347 0.52309 0.35352 0.81641 0.11259 0.10025 0.37842 0.26867 0.68359 0.28516 0.30517 0.01649 0.52212-0.08861 0.65039-0.16211 0.25654-0.14701 0.35216-0.25693 0.54297-0.43164a1.0135 1.0135 0 0 0 0.01367-0.01172c2.1481-2.0322 3.5148-5.6383 2.3867-9.0879a1.0135 1.0135 0 0 0-0.0059-0.017578c-0.3207-0.9275-0.84065-1.7439-1.8418-2.9863l-0.0039-0.00586c-0.23331-0.29327-0.49234-0.64667-0.62891-0.98437-0.13739-0.33974-0.17126-0.59796-0.03125-0.93359a1.0135 1.0135 0 0 0-0.9707-1.4043z" fill="#333333" fill-opacity=".97797" stroke-width=".041607"/>
<path d="m9.0072 14.969c-0.038834-0.0345-0.0013-0.17867 0.14335-0.55126 2.1637-4.1983-0.35499-7.6052-1.941-8.4182-1.7704 1.048-2.0978 3.3932-2.2777 5.0004-1.2111-4.6877-2.3171-8.4619 4.232-9.9999-0.51263 1.2289 0.31792 2.3308 0.80682 2.9446 0.97887 1.2142 1.4035 1.8945 1.6778 2.6877 0.98135 3.001-0.26737 6.2821-2.1221 8.0367-0.36155 0.33104-0.43584 0.374-0.51895 0.3z" fill="#f1f2f2" stroke-width=".041607"/>
</svg>
