<?xml version="1.0" encoding="UTF-8" standalone="no"?>
<!--Part of Monotone: https://github.com/sixsixfive/Monotone, released under cc-by-sa_v4-->
<svg id="svg4" xmlns="http://www.w3.org/2000/svg" version="1.1" viewBox="0 0 16 16"><rect id="rect819" style="paint-order:fill markers stroke;fill:#333333" ry="2.5" height="16" width="16" y="0" x="0"/><path id="path2" style="fill-opacity:0.986;paint-order:markers stroke fill;fill:#f1f2f2" d="m2.875 1.0005c-1.0367-0.00278-1.8778 0.8383-1.875 1.875v3.2075l3.8 2.982c0.4989-0.4031 1.1206-0.6236 1.762-0.625 0.1029 0.0007 0.2058 0.007 0.308 0.019l0.416-1.249c-0.4673-0.5812-0.7227-1.3042-0.724-2.05-0.0011-1.8132 1.4688-3.2836 3.282-3.283 1.8128-3e-7 3.2821 1.4702 3.281 3.283-0.0019 1.6133-1.1764 2.9857-2.77 3.237l-1.392 1.394c0.26897 0.44062 0.41151 0.94677 0.412 1.463 0.0005524 1.554-1.259 2.814-2.813 2.814-1.5536-0.000552-2.8126-1.2604-2.812-2.814 0.0006742-0.22724 0.02888-0.45355 0.084-0.674l-2.834-2.503v5.048c-0.00278 1.037 0.8383 1.878 1.875 1.875h0.937v-0.002h9.313v0.002c1.0367 0.0028 1.8778-0.83832 1.875-1.875v-10.25c0.0028-1.0367-0.83832-1.8778-1.875-1.875v0.004h-9.316v-0.0035zm6.969 1.8135c-1.2953 0-2.3451 1.0507-2.344 2.346 0 1.2946 1.0494 2.344 2.344 2.344 1.294-0.0006 2.343-1.0498 2.343-2.344 0.001-1.2949-1.048-2.3454-2.343-2.346zm0 0.94c0.77651 0 1.406 0.62949 1.406 1.406s-0.62949 1.406-1.406 1.406c-0.7769 0.0006-1.407-0.6291-1.407-1.406s0.6301-1.4066 1.407-1.406zm-3.28 5.622c-0.31116 0.00163-0.61701 0.080672-0.89 0.23l1.28 0.796c0.019324 0.009 0.038335 0.01869 0.057 0.029 0.016298 0.0095 0.032305 0.01952 0.048 0.03 0.00334 0.0016 0.00668 0.0033 0.01 0.005 0.00402 0.0023 0.00802 0.0046 0.012 0.007 0.016027 0.01117 0.031702 0.02285 0.047 0.035 0.020307 0.0152 0.03999 0.03121 0.059 0.048 0.018327 0.0163 0.036007 0.03331 0.053 0.051 0.00506 0.0049 0.010057 0.0099 0.015 0.015 0.00817 0.0088 0.016174 0.01785 0.024 0.027 0.00337 0.0043 0.0067 0.0086 0.01 0.013 0.016178 0.02003 0.031524 0.04071 0.046 0.062 0.014187 0.02079 0.027531 0.04214 0.04 0.064 0.01059 0.01767 0.020596 0.03568 0.03 0.054 0.00169 0.004 0.00336 0.008 0.005 0.012 0.00135 0.0027 0.00268 0.0053 0.004 0.008 0.00831 0.01907 0.015979 0.03842 0.023 0.058 0.00341 0.0066 0.00675 0.01329 0.01 0.02 0.00172 0.0057 0.00339 0.01132 0.005 0.017 0.00562 0.01917 0.010619 0.03851 0.015 0.058 0.00171 0.005 0.00338 0.01 0.005 0.015 0.00361 0.01293 0.00695 0.02593 0.01 0.039 0.0007125 0.0053 0.00138 0.01066 0.002 0.016 0.00462 0.02418 0.00829 0.04853 0.011 0.073-7e-7 0.000667-7e-7 0.0013 0 0.002 0.00324 0.03123 0.00491 0.0626 0.005 0.094-0.0001912 0.0304-0.00186 0.06077-0.005 0.091 0.0000028 0.0013 0.0000028 0.0027 0 0.004-0.0006485 0.0033-0.00132 0.0067-0.002 0.01-0.00207 0.02411-0.00507 0.04813-0.009 0.072-0.0006576 0.0023-0.00132 0.0047-0.002 0.007-0.00487 0.0222-0.010536 0.04421-0.017 0.066-0.0006576 0.0023-0.00132 0.0047-0.002 0.007-0.00601 0.01988-0.012682 0.03956-0.02 0.059-0.00223 0.0077-0.00457 0.01536-0.007 0.023-0.00198 0.0033-0.00398 0.0067-0.006 0.01-0.00622 0.01618-0.012891 0.03219-0.02 0.048-0.00319 0.0091-0.00653 0.01805-0.01 0.027-0.00486 0.0087-0.00986 0.01741-0.015 0.026-0.010985 0.01941-0.022659 0.03842-0.035 0.057-0.0006671 0.000333-0.00133 0.000666-0.002 0.001-0.010465 0.01701-0.02147 0.03369-0.033 0.05-0.01 0.01294-0.020337 0.02561-0.031 0.038-0.00199 0.0027-0.00399 0.0053-0.006 0.008-0.013469 0.01613-0.027477 0.03181-0.042 0.047-0.00721 0.0075-0.014545 0.01479-0.022 0.022-0.015192 0.01452-0.030867 0.02853-0.047 0.042-0.00266 0.002-0.00532 0.004-0.008 0.006-0.012394 0.01066-0.025065 0.021-0.038 0.031-0.015983 0.01151-0.032324 0.02252-0.049 0.033-0.0006677 0.000666-0.00133 0.0013-0.002 0.002-0.018578 0.01234-0.03759 0.02402-0.057 0.035-0.00859 0.0051-0.017254 0.01014-0.026 0.015-0.00895 0.0035-0.017949 0.0068-0.027 0.01-0.015482 0.0071-0.031155 0.01376-0.047 0.02-0.00332 0.002-0.00665 0.004-0.01 0.006-0.0073 0.0024-0.014638 0.0048-0.022 0.007-0.01977 0.0073-0.039781 0.01401-0.06 0.02-0.012264 0.0036-0.0246 0.0069-0.037 0.01-0.014584 0.0037-0.029255 0.007-0.044 0.01-0.023531 0.0042-0.047214 0.0076-0.071 0.01-0.00499 0.000707-0.00999 0.0014-0.015 0.002-0.029902 0.0031-0.059937 0.0048-0.09 0.005-0.028061-0.000409-0.056089-0.0021-0.084-0.005-0.00467 0.000035-0.00933 0.000035-0.014 0-0.030193-0.0029-0.060228-0.0072-0.09-0.013-0.022199-0.0049-0.044213-0.01054-0.066-0.017-0.011737-0.0034-0.023406-0.0071-0.035-0.011-0.011074-0.0038-0.022076-0.0078-0.033-0.012-0.021618-0.0072-0.042965-0.01522-0.064-0.024-0.00134-0.0013-0.00267-0.0027-0.004-0.004-0.028025-0.01298-0.055391-0.02733-0.082-0.043-0.025787-0.01545-0.050816-0.03214-0.075-0.05-0.00133 0.000003-0.00267 0.000003-0.004 0-0.024235-0.01787-0.047595-0.03689-0.07-0.057l-1.25-0.817c-0.0032 0.0386-0.0052 0.07728-0.006 0.116 0 1.0355 0.83947 1.875 1.875 1.875s1.875-0.83947 1.875-1.875c0.00111-1.0363-0.83868-1.877-1.875-1.877z"/></svg>
