<?xml version="1.0" encoding="UTF-8" standalone="no"?>
<!--Part of Monotone: https://github.com/sixsixfive/Monotone, released under cc-by-sa_v4-->
<svg id="svg2" xmlns="http://www.w3.org/2000/svg" viewBox="0 0 16 16" version="1.1"><g id="layer1" transform="translate(-317.03 -659.75)"><path id="path829" style="fill:#333333" d="m5 2c-0.7434 0-1.2269 0.7823-0.8945 1.4473l0.3886 0.7793c-0.2253 0.0865-0.4709 0.1289-0.6269 0.2793-0.1774-0.312-0.5083-0.5051-0.8672-0.5059h-2c-0.55226 0.0001-0.99994 0.4477-1 1v4.2617c0 0.9463 0.79217 1.7383 1.7383 1.7383h0.28711l-0.00781 0.03711c-0.0701 0.30458 0.00349 0.62307 0.10742 0.82617s0.22216 0.32556 0.32812 0.42188c0.082732 0.0752 0.13886 0.09539 0.21289 0.14648l-0.5605 1.121c-0.3324 0.665 0.1511 1.447 0.8945 1.447h2c0.37879 0.000026 0.72509-0.21395 0.89453-0.55273l0.7227-1.447h2.7656l0.72266 1.4473c0.17 0.339 0.516 0.553 0.895 0.553h2c0.7434-0.000024 1.2269-0.78232 0.89453-1.4473l-0.50195-1.002c0.02829-0.02354 0.07231-0.01365 0.09961-0.03906 0.33923-0.31581 0.60734-0.88598 0.47461-1.4707v-0.002l-0.01-0.039h0.30469c0.68057-0.000001 1.0847-0.40772 1.334-0.76562 0.249-0.3575 0.404-0.7469 0.404-1.234v-4c0-0.5523-0.448-0.9999-1-1h-2c-0.358 0.0004-0.689 0.1927-0.867 0.5039-0.157-0.1502-0.402-0.1932-0.627-0.2793l0.389-0.7773c0.332-0.665-0.152-1.4473-0.895-1.4473h-2c-0.3788 0-0.7251 0.214-0.8945 0.5527l-0.1055 0.211-0.1055-0.211c-0.1694-0.3387-0.5157-0.5527-0.8945-0.5527z" transform="translate(317.03,659.75)"/><path id="path1431" style="fill:#f1f2f2" d="m5 3 1 2h-1c-0.4088 0-0.6467 0.3399-0.7383 0.7383l-0.5195 2.2617h-0.7422v-3h-2v4.2617c0 0.4088 0.3295 0.7383 0.7383 0.7383h1.5234c0.0076 0 0.013884-0.00371 0.021484-0.00391l-0.291 1.2659c-0.0916 0.398 1.1451 0.738 0.7363 0.738h0.2715l-1 2h2l1-2h4l1 2h2l-1-2h0.25391c0.409 0 0.82928-0.34028 0.73828-0.73828l-0.28711-1.2676c0.012 0.0006 0.0222 0.00586 0.0332 0.00586h1.5234c0.387 0 0.739-0.5651 0.739-1v-4h-2v3h-0.748l-0.514-2.2617c-0.09-0.3987-0.329-0.7383-0.738-0.7383h-1l1-2h-2l-1 2-1-2zm1.5 4c0.277 0 0.5 0.223 0.5 0.5v2c0 0.277-0.223 0.5-0.5 0.5s-0.5-0.223-0.5-0.5v-2c0-0.277 0.223-0.5 0.5-0.5zm3 0c0.277 0 0.5 0.223 0.5 0.5v2c0 0.277-0.223 0.5-0.5 0.5s-0.5-0.223-0.5-0.5v-2c0-0.277 0.223-0.5 0.5-0.5z" transform="translate(317.03,659.75)"/></g></svg>
