<?xml version="1.0" encoding="UTF-8"?>
<!--Part of Monotone: https://github.com/sixsixfive/Monotone, released under cc-by-sa_v4-->
<svg version="1.1" viewBox="0 0 16 16" xmlns="http://www.w3.org/2000/svg">
<path d="m7.5-0.0039062c-2.0094-0.048167-4.0683 0.80671-5.2863 2.439-1.1985 1.5262-1.2727 3.574-1.2183 5.4311 0.17546 2.5887 1.7813 4.7935 3.4845 6.6358 1.0162 1.0533 2.6056 1.8878 4.0706 1.304 1.8799-0.72604 3.0584-2.4806 4.1236-4.0947 0.90864-1.3906 1.4141-3.0368 1.3577-4.7029-0.020859-1.7596-0.30785-3.685-1.6038-4.9885-0.9477-1.0398-2.2416-1.7528-3.6453-1.9182-0.42459-0.064012-0.85363-0.09576-1.2828-0.10555z" fill="#333333" fill-opacity="1.0"/>
<path d="m7.5 1c-0.65843 0-1.8871 0.18149-2.7246 0.5625-0.71373 0.32507-1.2648 0.80646-1.7793 1.4707h-0.0019532c-0.85048 1.095-1.002 2.6081-1.002 4.5664-1e-6 1.6273 0.79688 3.0842 1.7656 4.4531 0.59141 0.83653 1.2584 1.6226 1.9023 2.1602 0.64292 0.53669 1.403 0.78711 1.8398 0.78711 0.43689 2e-6 1.1969-0.25042 1.8398-0.78711 0.64392-0.53753 1.3109-1.3236 1.9023-2.1602 0.96875-1.369 1.7656-2.8259 1.7656-4.4531 4e-6 -1.9583-0.15147-3.4714-1.002-4.5664h-0.001953c-0.51451-0.66424-1.0656-1.1456-1.7793-1.4707-0.83749-0.38101-2.0662-0.5625-2.7246-0.5625zm-4.5 7c2.087 0 4 2.154 4 4-2.087 0-4-2-4-4zm9 0c0 2-1.913 4-4 4 0-1.846 1.913-4 4-4z" fill="#f1f2f2"/>
<path d="m7.5 1c-0.65843 0-1.8871 0.18149-2.7246 0.5625-0.71373 0.32507-1.2648 0.80646-1.7793 1.4707h-0.0019532c-0.85048 1.095-1.002 2.6081-1.002 4.5664-1e-6 1.6273 0.79688 3.0842 1.7656 4.4531 0.59141 0.83653 1.2584 1.6226 1.9023 2.1602 0.64292 0.53669 1.403 0.78711 1.8398 0.78711 0.43689 2e-6 1.1969-0.25042 1.8398-0.78711 0.64392-0.53753 1.3109-1.3236 1.9023-2.1602 0.96875-1.369 1.7656-2.8259 1.7656-4.4531 4e-6 -1.9583-0.15147-3.4714-1.002-4.5664h-0.001953c-0.51451-0.66424-1.0656-1.1456-1.7793-1.4707-0.83749-0.38101-2.0662-0.5625-2.7246-0.5625zm-4.5 7c2.087 0 4 2.154 4 4-2.087 0-4-2-4-4zm9 0c0 2-1.913 4-4 4 0-1.846 1.913-4 4-4z" fill="#f1f2f2"/>
</svg>
