<?xml version="1.0" encoding="UTF-8" standalone="no"?>
<!--Part of Monotone: https://github.com/sixsixfive/Monotone, released under cc-by-sa_v4-->
<svg xmlns="http://www.w3.org/2000/svg" version="1.1" viewBox="0 0 16 16">
<path style="color:#000000;text-decoration-line:none;text-transform:none;text-indent:0" d="m8 0c-4.4221 0-8.0312 3.6257-8.0312 8.0312 0 4.4064 3.6149 8 8.0312 8 4.4164 0 8.0312-3.5936 8.0312-8 0-4.4053-3.609-8.031-8.031-8.031zm0 4.0625c0.36456 0 0.65688 0.22794 0.99609 0.32812l-5.7871 5.7871a1.0314 1.0314 0 0 0 -0.11328 1.3242c0.41529 0.56074-0.7106-1.1238-0.25-0.375 0.475 0.772-0.6413-1.2115-0.2285-0.404 0.4128 0.807-0.5433-1.2613-0.1953-0.424 0.348 0.837-0.4432-1.2976-0.1621-0.4357 0.281 0.8617-0.3394-1.3286-0.127-0.4473 0.2124 0.881-0.2322-1.3523-0.0898-0.457 0.1423 0.8953-0.1282-1.3666-0.0567-0.4629s-0.0177-1.3714-0.0175-0.4649a1.0314 1.0314 0 0 0 2.0625 0c-0.0001-2.2122 1.745-3.9687 3.9687-3.9687zm3.7871 3.2637c0.051 0.2423 0.213 0.448 0.213 0.705 0 2.2057-1.7683 3.9375-4 3.9375-0.23871 0-0.43454-0.14909-0.66211-0.19336z" fill="#333333"/>
<path style="color:#000000;text-decoration-line:none;text-transform:none;text-indent:0" d="m8 0c-4.4221 0-8.0312 3.6257-8.0312 8.0312 0 4.4064 3.6149 8 8.0312 8 4.4164 0 8.0312-3.5936 8.0312-8 0-4.4053-3.609-8.031-8.031-8.031zm0 4.0625c0.36456 0 0.65688 0.22794 0.99609 0.32812l-5.7871 5.7871a1.0314 1.0314 0 0 0 -0.11328 1.3242c0.41529 0.56074-0.7106-1.1238-0.25-0.375 0.475 0.772-0.6413-1.2115-0.2285-0.404 0.4128 0.807-0.5433-1.2613-0.1953-0.424 0.348 0.837-0.4432-1.2976-0.1621-0.4357 0.281 0.8617-0.3394-1.3286-0.127-0.4473 0.2124 0.881-0.2322-1.3523-0.0898-0.457 0.1423 0.8953-0.1282-1.3666-0.0567-0.4629s-0.0177-1.3714-0.0175-0.4649a1.0314 1.0314 0 0 0 2.0625 0c-0.0001-2.2122 1.745-3.9687 3.9687-3.9687zm3.7871 3.2637c0.051 0.2423 0.213 0.448 0.213 0.705 0 2.2057-1.7683 3.9375-4 3.9375-0.23871 0-0.43454-0.14909-0.66211-0.19336z" transform="rotate(180 8 8.0156)" fill="#333333"/>
<path style="color:#000000;text-decoration-line:none;text-transform:none;text-indent:0" d="m8 1.031c-3.86 0-7 3.156-7 7 0 3.845 3.14 6.969 7 6.969s7-3.124 7-6.969c0-3.844-3.14-7-7-7zm0 2c1.073 0 2.062 0.37 2.875 0.938l-6.938 6.937a4.88 4.88 0 0 1 -0.937 -2.875c0-2.765 2.223-5 5-5zm4.25 2.375c0.478 0.765 0.781 1.653 0.781 2.625 0 2.766-2.254 4.969-5.031 4.969-0.957 0-1.835-0.296-2.594-0.75z" overflow="visible" font-weight="400" fill="#f1f2f2"/>
</svg>
