<!--Part of Monotone: https://github.com/sixsixfive/Monotone, released under cc-by-sa_v4-->
<svg xmlns="http://www.w3.org/2000/svg" viewBox="0 0 16 16">
    <g fill="#f1f2f2">
        <path d="M2.188 4.094A6.937 6.937 0 0 0 1 8a7 7 0 0 0 14 0c0-1.45-.433-2.789-1.188-3.906a4.48 4.48 0 0 1-.624.343c-.85.395-1.855.563-2.938.563h-4.5c-1.083 0-2.087-.168-2.938-.563a4.443 4.443 0 0 1-.624-.343zM6 6c.558 0 1.031.473 1.031 1.031V8c0 .558-.473 1-1.031 1-.558 0-1-.442-1-1v-.969C5 6.473 5.442 6 6 6zm4 0c.558 0 1 .473 1 1.031V8c0 .558-.442 1-1 1s-1-.442-1-1v-.969C9 6.473 9.442 6 10 6zM3 9.063C3.715 10.136 5.235 11 8 11c2.452 0 4.21-.75 5-1.938v.5c0 .681-.838 2.407-5 2.407-3.88 0-5-1.874-5-2.406z"/>
        <path style="line-height:normal;-inkscape-font-specification:Sans;text-indent:0;text-align:start;text-decoration-line:none;text-transform:none;marker:none" d="M5.75 0c-.959 0-1.827.188-2.5.5C2.576.812 2 1.295 2 2s.576 1.188 1.25 1.5c.673.312 1.541.5 2.5.5h4.5c.958 0 1.826-.188 2.5-.5C13.423 3.188 14 2.705 14 2S13.423.812 12.75.5c-.674-.312-1.542-.5-2.5-.5zm0 1h4.5c.834 0 1.597.176 2.094.406.496.23.656.468.656.594 0 .126-.16.364-.656.594-.497.23-1.26.406-2.094.406h-4.5c-.834 0-1.597-.176-2.094-.406C3.16 2.364 3 2.126 3 2c0-.126.16-.364.656-.594C4.153 1.176 4.916 1 5.75 1z" color="#000" font-weight="400" font-family="Sans" overflow="visible"/>
    </g>
</svg>
