<?xml version="1.0" encoding="UTF-8" standalone="no"?>
<svg
   xmlns:dc="http://purl.org/dc/elements/1.1/"
   xmlns:cc="http://creativecommons.org/ns#"
   xmlns:rdf="http://www.w3.org/1999/02/22-rdf-syntax-ns#"
   xmlns:svg="http://www.w3.org/2000/svg"
   xmlns="http://www.w3.org/2000/svg"
   id="svg4"
   version="1.1"
   viewBox="0 0 16 16">
  <metadata
     id="metadata10">
    <rdf:RDF>
      <cc:Work
         rdf:about="">
        <dc:format>image/svg+xml</dc:format>
        <dc:type
           rdf:resource="http://purl.org/dc/dcmitype/StillImage" />
        <dc:title></dc:title>
      </cc:Work>
    </rdf:RDF>
  </metadata>
  <defs
     id="defs8" />
  <path
     id="path2"
     d="M 8 1 C 4.1340041 1 1 4.1340068 1 8 C 1 11.865993 4.1340041 15 8 15 C 11.865996 15 15 11.865993 15 8 C 15 4.1340068 11.865996 1 8 1 z M 6 5.0566406 C 6.559 5.0566406 7.03125 5.5298906 7.03125 6.0878906 L 7.03125 7.0566406 C 7.03125 7.6146406 6.5599531 8.0566406 6.0019531 8.0566406 C 5.4419531 8.0566406 5.0019531 7.6146406 5.0019531 7.0566406 L 5.0019531 6.0878906 C 5.0009541 5.5298906 5.44 5.0566406 6 5.0566406 z M 10 5.0566406 C 10.559 5.0566406 11 5.5298906 11 6.0878906 L 11 7.0566406 C 11 7.6146406 10.559 8.0566406 10 8.0566406 C 9.442 8.0566406 9 7.6146406 9 7.0566406 L 9 6.0878906 C 9 5.5298906 9.442 5.0566406 10 5.0566406 z M 8 9.0957031 C 11.256 9.0957031 13 9.967 13 10.5 L 13 11 C 12.004 10.363 8.984 10.082031 8 10.082031 C 7.017 10.082031 4.196 10.032 3 11 L 3 10.5 C 3 9.819 4.7439996 9.0957031 8 9.0957031 z "
     style="overflow:visible;fill:#f1f2f2" />
</svg>
