<?xml version="1.0" encoding="UTF-8" standalone="no"?>
<svg
   xmlns:dc="http://purl.org/dc/elements/1.1/"
   xmlns:cc="http://creativecommons.org/ns#"
   xmlns:rdf="http://www.w3.org/1999/02/22-rdf-syntax-ns#"
   xmlns:svg="http://www.w3.org/2000/svg"
   xmlns="http://www.w3.org/2000/svg"
   id="svg4"
   version="1.1"
   viewBox="0 0 16 16">
  <metadata
     id="metadata10">
    <rdf:RDF>
      <cc:Work
         rdf:about="">
        <dc:format>image/svg+xml</dc:format>
        <dc:type
           rdf:resource="http://purl.org/dc/dcmitype/StillImage" />
        <dc:title></dc:title>
      </cc:Work>
    </rdf:RDF>
  </metadata>
  <defs
     id="defs8" />
  <path
     id="rect14819"
     d="M 4.5019531 4.0117188 C 3.6725231 4.0117188 3.0058594 4.6783825 3.0058594 5.5078125 L 3.0058594 11.513672 C 3.0058594 12.343102 3.6725231 13.011719 4.5019531 13.011719 C 5.3313931 13.011719 6 12.343102 6 11.513672 L 6 8.9785156 L 10 8.9785156 L 10 11.511719 C 10 12.342709 10.66901 13.011719 11.5 13.011719 C 12.33099 13.011719 13 12.342709 13 11.511719 L 13 5.5117188 C 13 4.6807188 12.33099 4.0117188 11.5 4.0117188 C 10.66901 4.0117188 10 4.6807188 10 5.5117188 L 10 8 L 6 8 L 6 5.5078125 C 6 4.6783825 5.3313931 4.0117188 4.5019531 4.0117188 z M 1.5058594 6.0117188 C 1.2289694 6.0037187 1.0058594 6.2347188 1.0058594 6.5117188 L 1.0058594 8.0117188 L 0.005859375 8.0117188 L 0.005859375 9.0117188 L 1.0058594 9.0117188 L 1.0058594 10.478516 C 1.0058594 10.755516 1.2289594 10.986516 1.5058594 10.978516 L 2.0058594 10.964844 L 2.0058594 6.0136719 L 1.5058594 6.0117188 z M 14.5 6.0117188 L 14 6.0136719 L 14 10.964844 L 14.5 10.978516 C 14.7769 10.986516 15 10.755516 15 10.478516 L 15 9.0117188 L 16 9.0117188 L 16 8.0117188 L 15 8.0117188 L 15 6.5117188 C 15 6.2347188 14.77689 6.0037187 14.5 6.0117188 z "
     style="color:#000000;clip-rule:nonzero;display:inline;overflow:visible;visibility:visible;opacity:1;isolation:auto;mix-blend-mode:normal;color-interpolation:sRGB;color-interpolation-filters:linearRGB;solid-color:#000000;solid-opacity:1;fill:#f1f2f2;fill-opacity:1;fill-rule:nonzero;stroke:none;stroke-width:1;stroke-linecap:butt;stroke-linejoin:miter;stroke-miterlimit:4;stroke-dasharray:none;stroke-dashoffset:0;stroke-opacity:1;marker:none;marker-start:none;marker-mid:none;marker-end:none;paint-order:normal;color-rendering:auto;image-rendering:auto;shape-rendering:auto;text-rendering:auto;enable-background:accumulate" />
</svg>
