<?xml version="1.0" encoding="UTF-8" standalone="no"?>
<!--Part of Monotone: https://github.com/sixsixfive/Monotone, released under cc-by-sa_v4-->
<svg xmlns="http://www.w3.org/2000/svg" version="1.1" viewBox="0 0 16 16">
 <path fill="#f1f2f2" d="m1.0312 1c-0.54195 0-0.99995 0.3285-0.99995 0.9375v12.124c0 0.588 0.377 0.938 0.99995 0.938h14.031c0.52 0 0.938-0.35 0.938-0.938v-12.124c0.018-0.5257-0.412-0.95566-0.938-0.938h-14.031zm-0.0312 1.0312h14.031v2.9688h-14.031v-2.9688zm0.1875 3.9688h1.625c0.1058-0.0048 0.1923 0.0817 0.1875 0.1875v1.625c0.0042 0.1054-0.0822 0.1923-0.1875 0.1875h-1.625c-0.106 0.0055-0.19298-0.0815-0.1875-0.1875v-1.625c-0.00421-0.1054 0.0822-0.1903 0.1875-0.1855v-0.002zm3 0h1.625c0.1054-0.0042 0.1923 0.0822 0.1875 0.1875v1.625c0.0042 0.1054-0.0822 0.1923-0.1875 0.1875h-1.625c-0.106 0.0055-0.193-0.0815-0.1875-0.1875v-1.625c-0.0042-0.1054 0.0822-0.1903 0.1875-0.1855v-0.002zm3 0h1.625c0.1058-0.0048 0.1923 0.0817 0.1875 0.1875v1.625c0.0042 0.1054-0.0822 0.1923-0.1875 0.1875h-1.625c-0.106 0.0055-0.193-0.0815-0.1875-0.1875v-1.625c-0.0042-0.1054 0.0822-0.1903 0.1875-0.1855v-0.002zm3.0115 0h1.602c0.111 0 0.199 0.0884 0.199 0.1992v1.6016c0 0.1108-0.088 0.1992-0.199 0.1992h-1.602c-0.111 0-0.199-0.0884-0.199-0.1992v-1.6016c0-0.1108 0.088-0.1992 0.199-0.1992zm3 0h1.602c0.111 0 0.199 0.0884 0.199 0.1992v1.6016c0 0.1108-0.088 0.1992-0.199 0.1992h-1.602c-0.111 0-0.199-0.0884-0.199-0.1992v-1.6016c0-0.1108 0.088-0.1992 0.199-0.1992zm-12.012 3h1.625c0.1058-0.0048 0.1923 0.0817 0.1875 0.1875v1.6245c0.0048 0.106-0.0817 0.193-0.1875 0.188h-1.625c-0.106 0.006-0.19298-0.081-0.1875-0.188v-1.6245c0-0.112 0.0765-0.1875 0.1875-0.1875zm3 0h1.625c0.1054-0.0042 0.1923 0.0822 0.1875 0.1875v1.6245c0.0048 0.106-0.0817 0.193-0.1875 0.188h-1.625c-0.106 0.006-0.193-0.081-0.1875-0.188v-1.6245c0-0.112 0.0765-0.1875 0.1875-0.1875zm3 0h1.625c0.1058-0.0048 0.1923 0.0817 0.1875 0.1875v1.6245c0.0048 0.106-0.0817 0.193-0.1875 0.188h-1.625c-0.106 0.006-0.193-0.081-0.1875-0.188v-1.6245c0-0.112 0.0765-0.1875 0.1875-0.1875zm3.0115 0h1.602c0.111 0 0.199 0.0884 0.199 0.1992v1.6018c0 0.111-0.088 0.199-0.199 0.199h-1.602c-0.111 0-0.199-0.088-0.199-0.199v-1.6018c0-0.1108 0.088-0.1992 0.199-0.1992zm3 0h1.602c0.111 0 0.199 0.0884 0.199 0.1992v1.6018c0 0.111-0.088 0.199-0.199 0.199h-1.602c-0.111 0-0.199-0.088-0.199-0.199v-1.6018c0-0.1108 0.088-0.1992 0.199-0.1992zm-12.012 3h1.625c0.1058-0.005 0.1923 0.082 0.1875 0.188v1.624c0.0048 0.106-0.0817 0.193-0.1875 0.188h-1.625c-0.106 0.006-0.19298-0.081-0.1875-0.188v-1.624c-0.00481-0.106 0.0817-0.193 0.1875-0.188zm3 0h1.625c0.1054-0.004 0.1923 0.082 0.1875 0.188v1.624c0.0048 0.106-0.0817 0.193-0.1875 0.188h-1.625c-0.106 0.006-0.193-0.081-0.1875-0.188v-1.624c-0.0048-0.106 0.0817-0.193 0.1875-0.188zm3 0h1.625c0.1058-0.005 0.1923 0.082 0.1875 0.188v1.624c0.0048 0.106-0.0817 0.193-0.1875 0.188h-1.625c-0.106 0.006-0.193-0.081-0.1875-0.188v-1.624c-0.0048-0.106 0.0817-0.193 0.1875-0.188zm3.0115 0h4.602c0.111 0 0.199 0.088 0.199 0.199v1.602c0 0.111-0.088 0.199-0.199 0.199h-4.602c-0.111 0-0.199-0.088-0.199-0.199v-1.602c0-0.111 0.088-0.199 0.199-0.199z"/>
</svg>
