<!--Part of Monotone: https://github.com/sixsixfive/Monotone, released under cc-by-sa_v4-->
<svg xmlns="http://www.w3.org/2000/svg" viewBox="0 0 16 16">
    <g font-weight="400" fill="#f1f2f2">
        <path style="line-height:normal;-inkscape-font-specification:'Bitstream Vera Sans';text-indent:0;text-align:start;text-decoration-line:none;text-transform:none;marker:none" d="M3.702 1C2.17 1 .984 2.32.984 3.844v8.344c0 1.524 1.185 2.843 2.718 2.843h8.58c1.532 0 2.75-1.32 2.75-2.844V3.845c0-1.525-1.218-2.844-2.75-2.844zm.782 1.031c3.526.256 5.317.134 7.047 0 .754-.058 1.532.616 1.532 1.438v7.375c0 .665-.532 1.095-1.188 1.187-2.836.397-4.753.44-7.673 0-.655-.099-1.187-.522-1.187-1.187V3.5c0-.822.714-1.524 1.469-1.469z" color="#f1f2f2" font-family="Bitstream Vera Sans" overflow="visible"/>
        <path style="line-height:normal;-inkscape-font-specification:Sans;text-indent:0;text-align:start;text-decoration-line:none;text-transform:none;marker:none" d="M10.531 5.969l-2.906.062.031 1L10.5 6.97a.68.68 0 0 1 .406.156c.067.06.125.11.125.281V8h-2.5a1.51 1.51 0 0 0-1.156.438c-.272.286-.393.663-.406 1.03-.014.368.083.76.343 1.063.255.297.695.474 1.157.469h3.5v-.5l.062-3.094c0-.402-.162-.782-.438-1.031a1.67 1.67 0 0 0-1-.406h-.062zM8.469 9H11l-.032 1h-2.5c-.22.007-.305-.044-.375-.125a.58.58 0 0 1-.125-.375.609.609 0 0 1 .157-.375c.078-.083.143-.14.343-.125zm2.875-5.969l-3 1 .312.938 3-1z" color="#000" font-family="Sans" overflow="visible"/>
    </g>
</svg>
