<?xml version="1.0" encoding="UTF-8"?>
<svg version="1.1" viewBox="0 0 16 16" xmlns="http://www.w3.org/2000/svg"><path d="m8 0c-2.2091 0-4 1.7909-4 4h-0.77734c-0.67711 0-1.2227 0.54547-1.2227 1.2227v8.5547c0 0.67711 0.54547 1.2227 1.2227 1.2227h5.7773l1-0.11133v-0.29492a1.0001 1.0001 0 0 1 0.29297 -0.70703l0.35547-0.35547-0.35547-0.35352a1.0001 1.0001 0 0 1 -0.29297 -0.70703v-1.4707a1.0001 1.0001 0 0 1 1 -1h1.375a1.0001 1.0001 0 0 1 0.69727 0.2832l0.41797 0.40625 0.39648-0.39648a1.0001 1.0001 0 0 1 0.11328 -0.097657v-4.9727c0-0.67711-0.54546-1.2227-1.2227-1.2227h-0.77734c0-2.2091-1.7909-4-4-4zm0 1c1.6569 0 3 1.3431 3 3h-6c0-1.6569 1.3431-3 3-3zm-4 4h1c0 1.6569 1.3431 3 3 3s3-1.3431 3-3h1c0 2.2091-1.7909 4-4 4s-4-1.7909-4-4z" fill="#f1f2f2" opacity=".5" style="paint-order:markers fill stroke"/><g transform="translate(1,8)"><path d="m 10,3 h 1.375 L 12.5,4.094 13.594,3 H 15 V 4.469 L 13.906,5.531 15,6.594 V 8 H 13.562 L 12.5,6.937 11.437,8 H 10 V 6.594 L 11.063,5.531 10,4.47 Z" color="#f1f2f2" fill="#f1f2f2" overflow="visible"/></g></svg>
