<?xml version="1.0" encoding="UTF-8" standalone="no"?>
<!--Part of Monotone: https://github.com/sixsixfive/Monotone, released under cc-by-sa_v4-->
<svg xmlns="http://www.w3.org/2000/svg" xmlns:osb="http://www.openswatchbook.org/uri/2009/osb" version="1.1" xmlns:xlink="http://www.w3.org/1999/xlink" viewBox="0 0 16 16">
 <g id="stock" transform="translate(-44.637 59.754)">
  <g id="gimp-anchor" transform="translate(-136.36 -418.75)">
   <g fill="#f1f2f2" transform="matrix(-.054954 0 0 .057881 195.92 358.19)">
    <path d="m529.04 89.557c-1.6569 0-3 1.3431-3 3 0 1.3039 0.8381 2.4028 2 2.8164v1.1836h-3v1h3v5 1c-1.1647 0.27623-2.4679-0.46036-3.4688-1.3125l0.71875-0.5c0.24954-0.15638 0.27497-0.58768 0.0312-0.71875l-0.875-0.46875-0.46875-0.25-1.3438-0.6875c-0.0441-0.0268-0.0732-0.0555-0.125-0.0625-0.22288-0.0122-0.47075 0.20092-0.46875 0.4375v1.625 1.625c0.005 0.29142 0.38819 0.4813 0.625 0.3125l1.0625-0.75c1.1739 1.1755 3.1634 2.75 5.3125 2.75h0.0625c2.1385 0 4.1052-1.5762 5.2812-2.75l1 0.65625c0.23681 0.16496 0.58875 0.004 0.59375-0.28125v-1.5938-1.5937c0.002-0.23119-0.21462-0.4495-0.4375-0.4375-0.0518 0.007-0.11213 0.0363-0.15625 0.0625l-1.1875 0.625-0.125 0.0625-1.3438 0.65625c-0.24372 0.12809-0.24954 0.56593 0 0.71875l0.8125 0.5625c-0.99834 0.84536-2.3425 1.587-3.5 1.3125v-1-5h3v-1h-3v-1.1836c1.1628-0.41312 2-1.5119 2-2.8164 0-1.6569-1.3431-3-3-3zm0 1.5c0.81356 0 1.5 0.6856 1.5 1.5s-0.68644 1.5-1.5 1.5-1.5-0.6856-1.5-1.5 0.68644-1.5 1.5-1.5z" transform="matrix(-18.197 0 0 17.277 9752.8 -1533.2)" fill="#f1f2f2"/>
   </g>
  </g>
 </g>
</svg>
