<?xml version="1.0" encoding="UTF-8"?>
<!--Part of Monotone: https://github.com/sixsixfive/Monotone, released under cc-by-sa_v4-->
<svg version="1.1" viewBox="0 0 16 16" xmlns="http://www.w3.org/2000/svg">
<path d="m14.566 11.867c-0.53843 0.84264-3.8143-0.60532-4.7454-0.24063-0.93114 0.3647-2.3541 3.6522-3.323 3.4004-0.96704-0.25248-0.60244-3.8165-1.2376-4.5888-0.63465-0.7736-4.2006-1.1105-4.2596-2.109-0.059941-0.99812 3.4415-1.7522 3.9809-2.5952 0.53973-0.84208-0.24219-4.3379 0.68858-4.7035 0.93113-0.3647 2.7297 2.7325 3.6981 2.9856 0.9676 0.25119 4.0512-1.571 4.6864-0.79872 0.63465 0.7736-1.7554 3.4418-1.6955 4.44 0.05901 0.99849 2.7457 3.3673 2.2063 4.2103z" color="#000000" fill="#f1f2f2" overflow="visible"/>
</svg>
