<?xml version="1.0" encoding="UTF-8" standalone="no"?>
<!--Part of Monotone: https://github.com/sixsixfive/Monotone, released under cc-by-sa_v4-->
<svg id="svg4" xmlns="http://www.w3.org/2000/svg" viewBox="0 0 16 16" version="1.1"><path id="path4798" style="fill:#f1f2f2;text-decoration-line:none;text-transform:none;text-indent:0" d="m1.8125 1c-0.1139 0.0226-0.2229 0.0649-0.3223 0.125-0.0043 0.0026-0.0094 0.0032-0.0136 0.0059-0.0958 0.0588-0.181 0.1335-0.252 0.2207-0.0708 0.0877-0.1263 0.1867-0.1641 0.2929-0.0014 0.0041-0.0025 0.0077-0.0039 0.0117-0.0388 0.1104-0.058 0.2268-0.0566 0.3438v13c-0.00016 0.133 0.0264 0.266 0.0781 0.389 0.05 0.118 0.1223 0.225 0.2129 0.316 0.0013 0.001 0.0026 0.003 0.0039 0.004 0.089 0.088 0.1937 0.158 0.3086 0.207 0.0055 0.002 0.0102 0.006 0.0156 0.008 0.1208 0.05 0.2502 0.076 0.3809 0.076h11c0.133 0 0.266-0.026 0.389-0.078 0.118-0.05 0.225-0.122 0.316-0.213l0.004-0.004c0.088-0.089 0.158-0.194 0.207-0.309 0.002-0.005 0.006-0.01 0.008-0.015 0.05-0.121 0.076-0.25 0.076-0.381v-9.4375c0.002-0.1309-0.021-0.2609-0.068-0.3828v-0.0039c-0.001-0.0014-0.002-0.0026-0.002-0.0039-0.048-0.1222-0.12-0.2337-0.211-0.3281l-3.563-3.5645c-0.095-0.0916-0.2082-0.1633-0.3318-0.2109-0.1231-0.0482-0.2545-0.0714-0.3867-0.0684h-7.4375c-0.0312-0.00147-0.0624-0.00147-0.0938 0-0.0312-0.00147-0.0625-0.00147-0.0937 0zm0.7871 1h4.8008c0.3324 0 0.5996 0.2672 0.5996 0.5996v2.9512h0.0098c0.0245 0.2343 0.2051 0.4149 0.4394 0.4394v0.0098h3.9508c0.333 0 0.6 0.2672 0.6 0.5996v7.8004c0 0.333-0.267 0.6-0.6 0.6h-9.8004c-0.3324 0-0.5996-0.267-0.5996-0.6v-6.8004c0-0.0353 0.0137-0.066 0.0195-0.0996-0.0058-0.0336-0.0195-0.0643-0.0195-0.0996v-4.8008c0-0.3324 0.2672-0.5996 0.5996-0.5996zm6.4004 0l3 3h-2c-1 0.0001-1 0-1-1v-2z"/><rect id="rect4489" style="fill-opacity:.97034;fill:#f1f2f2" ry="0.45" height="9" width="1" y="5" x="3"/><rect id="rect4491" style="fill-opacity:.97034;fill:#f1f2f2" ry=".5" height="1" width="2" y="5" x="5"/><rect id="rect4493" style="opacity:.7;fill-opacity:.97034;fill:#f1f2f2" ry=".30391" height="1" width="3" y="7" x="5"/><rect id="rect4495" style="opacity:.7;fill-opacity:.97034;fill:#f1f2f2" ry=".30391" height="1" width="3" y="9" x="5"/><rect id="rect4497" style="opacity:.7;fill-opacity:.97034;fill:#f1f2f2" ry=".30391" height="1" width="3" y="11" x="5"/><rect id="rect4499" style="opacity:.7;fill-opacity:.97034;fill:#f1f2f2" ry=".30391" height="1" width="3" y="13" x="5"/><rect id="rect4501" style="opacity:.7;fill-opacity:.97034;fill:#f1f2f2" ry=".30391" height="1" width="3" y="7" x="9"/><rect id="rect4503" style="opacity:.7;fill-opacity:.97034;fill:#f1f2f2" ry=".30391" height="1" width="3" y="9" x="9"/><rect id="rect4505" style="opacity:.7;fill-opacity:.97034;fill:#f1f2f2" ry=".30391" height="1" width="3" y="11" x="9"/><rect id="rect4507" style="opacity:.7;fill-opacity:.97034;fill:#f1f2f2" ry=".30391" height="1" width="3" y="13" x="9"/></svg>
