<?xml version="1.0" encoding="UTF-8" standalone="no"?>
<!--Part of Monotone: https://github.com/sixsixfive/Monotone, released under cc-by-sa_v4-->
<svg xmlns="http://www.w3.org/2000/svg" viewBox="0 0 16 16" version="1.1">
 <g fill="#f1f2f2">
  <path style="text-decoration-line:none;text-transform:none;text-indent:0" d="m1.8125 1c-0.1139 0.0226-0.2229 0.0649-0.3223 0.125-0.0043 0.0026-0.0094 0.0032-0.0136 0.0059-0.0958 0.0588-0.181 0.1335-0.252 0.2207-0.0708 0.0877-0.1263 0.1867-0.1641 0.2929-0.0014 0.0041-0.0025 0.0077-0.0039 0.0117-0.0388 0.1104-0.058 0.2268-0.0566 0.3438v13c-0.00016 0.133 0.0264 0.266 0.0781 0.389 0.05 0.118 0.1223 0.225 0.2129 0.316 0.0013 0.001 0.0026 0.003 0.0039 0.004 0.089 0.088 0.1937 0.158 0.3086 0.207 0.0055 0.002 0.0102 0.006 0.0156 0.008 0.1208 0.05 0.2502 0.076 0.3809 0.076h11c0.133 0 0.266-0.026 0.389-0.078 0.118-0.05 0.225-0.122 0.316-0.213l0.004-0.004c0.088-0.089 0.158-0.194 0.207-0.309 0.002-0.005 0.006-0.01 0.008-0.015 0.05-0.121 0.076-0.25 0.076-0.381v-9.4375c0.002-0.1309-0.021-0.2609-0.068-0.3828v-0.0039c-0.001-0.0014-0.002-0.0026-0.002-0.0039-0.048-0.1222-0.12-0.2337-0.211-0.3281l-3.563-3.5645c-0.095-0.0916-0.2082-0.1633-0.3318-0.2109-0.1231-0.0482-0.2545-0.0714-0.3867-0.0684h-7.4375c-0.0312-0.00147-0.0624-0.00147-0.0938 0-0.0312-0.00147-0.0625-0.00147-0.0937 0zm0.7871 1h4.8008c0.3324 0 0.5996 0.2672 0.5996 0.5996v2.9512h0.0098c0.0245 0.2343 0.2051 0.4149 0.4394 0.4394v0.0098h3.9508c0.333 0 0.6 0.2672 0.6 0.5996v7.8004c0 0.333-0.267 0.6-0.6 0.6h-9.8004c-0.3324 0-0.5996-0.267-0.5996-0.6v-6.8004c0-0.0353 0.0137-0.066 0.0195-0.0996-0.0058-0.0336-0.0195-0.0643-0.0195-0.0996v-4.8008c0-0.3324 0.2672-0.5996 0.5996-0.5996zm6.4004 0l3 3h-2c-1 0.0001-1 0-1-1v-2z"/>
  <path style="text-orientation:mixed;shape-padding:0;font-variant-alternates:normal;text-decoration-color:#000000;font-variant-position:normal;font-variant-numeric:normal;mix-blend-mode:normal;text-indent:0;font-variant-ligatures:normal;text-decoration-line:none;font-feature-settings:normal;font-variant-caps:normal;isolation:auto;white-space:normal;text-transform:none;text-decoration-style:solid" stroke-width="1.3125" d="m10.317 7.0746c-0.07478-0.00525-0.10301 0-0.12928 0.0025-0.0525 0.00525-0.08201 0.0105-0.12207 0.0164-0.4956 0.0782-1.287 0.3499-2.2287 0.9694-0.9417 0.6189-1.9904 1.5895-2.7983 3.0421-0.12994 0.23428-0.28744 0.34585-0.58538 0.441-0.29859 0.09575-0.72581 0.13518-1.218 0.14438-0.23232 0.004-1.6804 0.002-1.9357 0.0015v1.3268c0.25594-0.002 1.7027-0.01 1.9626-0.015 0.53616-0.0105 1.073-0.042 1.5908-0.20738 0.51844-0.1661 1.029-0.5067 1.3328-1.0527 0.69497-1.2489 1.5822-2.0652 2.3723-2.5856 0.011214-0.0065 0.019025-0.008 0.029525-0.0151-0.1666 0.5971-0.2512 1.3438-0.16 2.2768 0.06365 0.64838 0.57225 1.1556 1.0894 1.344 0.51778 0.1877 1.0664 0.20608 1.6308 0.2087 0.643 0.002 1.503-0.003 2.052 0.027v-1.3578c-0.6392-0.03075-1.4797 0.02175-2.046 0.019-0.51582-0.0015-0.96076-0.048-1.1878-0.13125-0.22706-0.082-0.21262-0.0525-0.231-0.2356-0.15093-1.5475 0.2251-2.2693 0.51188-2.6349 0.14307-0.18309 0.2625-0.26906 0.3498-0.33338 0.02172-0.01575 0.03928-0.02755 0.07947-0.060375 0.01974-0.01575 0.04526-0.0315 0.10239-0.098429 0.02894-0.033474 0.0715-0.078099 0.1155-0.19031 0.044-0.11156 0.07749-0.35044-0.03223-0.55453-0.07764-0.14776-0.20927-0.25988-0.3675-0.31304-0.09056-0.030847-0.1398-0.032159-0.1772-0.034127z" overflow="visible" font-weight="400"/>
  <path d="m2 12v3h11l0.2-3.358-4.2 0.358v-4l-4 4z"/>
 </g>
</svg>
