<?xml version="1.0" encoding="UTF-8"?>
<!--Part of Monotone: https://github.com/sixsixfive/Monotone, released under cc-by-sa_v4-->
<svg version="1.1" viewBox="0 0 16 16" xmlns="http://www.w3.org/2000/svg">
<path d="m3 3h1.031c0.255 0.011 0.51 0.129 0.688 0.313l3.281 3.279 3.313-3.279c0.265-0.231 0.446-0.306 0.687-0.313h1v1c0 0.286-0.034 0.55-0.25 0.75l-3.281 3.281 3.25 3.25c0.188 0.188 0.281 0.454 0.281 0.719v1h-1c-0.265 0-0.53-0.093-0.719-0.281l-3.281-3.281-3.281 3.28c-0.19314 0.18507-0.45154 0.28642-0.719 0.282h-1v-1c0-0.265 0.093-0.53 0.281-0.719l3.282-3.25-3.283-3.281c-0.20432-0.19323-0.30771-0.47015-0.28-0.75z" color="#f1f2f2" fill="#f1f2f2" font-weight="400" overflow="visible" style="text-decoration-line:none;text-indent:0;text-transform:none"/>
</svg>
