<?xml version="1.0" encoding="UTF-8"?>
<svg version="1.1" viewBox="0 0 16 16" xmlns="http://www.w3.org/2000/svg">
<path d="m1.8125 1c-0.1139 0.0226-0.2229 0.0649-0.3223 0.125-0.0043 0.0026-0.0094 0.0032-0.0136 0.0059-0.0958 0.0588-0.181 0.1335-0.252 0.2207-0.0708 0.0877-0.1263 0.1867-0.1641 0.2929-0.0014 0.0041-0.0025 0.0077-0.0039 0.0117-0.0388 0.1104-0.058 0.2268-0.0566 0.3438v13c-1.6e-4 0.133 0.0264 0.266 0.0781 0.389 0.05 0.118 0.1223 0.225 0.2129 0.316 0.0013 1e-3 0.0026 3e-3 0.0039 4e-3 0.089 0.088 0.1937 0.158 0.3086 0.207 0.0055 2e-3 0.0102 6e-3 0.0156 8e-3 0.1208 0.05 0.2502 0.076 0.3809 0.076h11c0.133 0 0.266-0.026 0.389-0.078 0.118-0.05 0.225-0.122 0.316-0.213l4e-3 -4e-3c0.088-0.089 0.158-0.194 0.207-0.309 2e-3 -5e-3 6e-3 -0.01 8e-3 -0.015 0.05-0.121 0.076-0.25 0.076-0.381v-9.4375c2e-3 -0.1309-0.021-0.2609-0.068-0.3828v-0.0039c-1e-3 -0.0014-2e-3 -0.0026-2e-3 -0.0039-0.048-0.1222-0.12-0.2337-0.211-0.3281l-3.563-3.5645c-0.095-0.0916-0.2082-0.1633-0.3318-0.2109-0.1231-0.0482-0.2545-0.0714-0.3867-0.0684h-7.4375c-0.0312-0.00147-0.0624-0.00147-0.0938 0-0.0312-0.00147-0.0625-0.00147-0.0937 0zm0.7871 1h4.8008c0.3324 0 0.5996 0.2672 0.5996 0.5996v2.9512h0.0098c0.0245 0.2343 0.2051 0.4149 0.4394 0.4394v0.0098h3.9508c0.333 0 0.6 0.2672 0.6 0.5996v7.8004c0 0.333-0.267 0.6-0.6 0.6h-9.8004c-0.3324 0-0.5996-0.267-0.5996-0.6v-6.8004c0-0.0353 0.0137-0.066 0.0195-0.0996-0.0058-0.0336-0.0195-0.0643-0.0195-0.0996v-4.8008c0-0.3324 0.2672-0.5996 0.5996-0.5996zm6.4004 0 3 3h-2c-1 1e-4 -1 0-1-1v-2z" fill="#f1f2f2" style="text-decoration-line:none;text-indent:0;text-transform:none"/>
<path d="m13.875 3.7852v1.3008c0.01572 0.030337 0.04215 0.054027 0.05469 0.085937 0 0.0013 9.53e-4 0.00251 2e-3 0.00391v0.00391c0.046951 0.12189 0.07031 0.25191 0.06831 0.38281v-1.2285c0-0.19748-0.048627-0.38052-0.125-0.54883z" style="fill:#f1f2f2"/>
<path d="m5.5625 7.0195c-1.2408-0.014388-2.5227 0.88385-3.5625 2.709v4.6719c0 0.333 0.26721 0.59961 0.59961 0.59961h9.8008c0.333 0 0.59961-0.26661 0.59961-0.59961v-0.36133c-1.5475 0.06715-4.7768 0.050167-5.4213-0.039062-4.3175-0.83987-1.5787-6 0.42132-3 1.0779 0.95271 1.263-0.6097 1-1-0.875-1.9555-2.1318-2.9653-3.4375-2.9805z" style="fill:#f1f2f2"/>
</svg>
