<?xml version="1.0" encoding="UTF-8" standalone="no"?>
<!--Part of Monotone: https://github.com/sixsixfive/Monotone, released under cc-by-sa_v4-->
<svg xmlns:rdf="http://www.w3.org/1999/02/22-rdf-syntax-ns#" xmlns="http://www.w3.org/2000/svg" version="1.1" xmlns:cc="http://creativecommons.org/ns#" xmlns:dc="http://purl.org/dc/elements/1.1/" viewBox="0 0 16 16">
 <metadata>
  <rdf:RDF>
   <cc:Work rdf:about="">
    <dc:format>image/svg+xml</dc:format>
    <dc:type rdf:resource="http://purl.org/dc/dcmitype/StillImage"/>
    <dc:title/>
   </cc:Work>
  </rdf:RDF>
 </metadata>
 <g fill="#f1f2f2">
  <path opacity=".5" style="text-decoration-line:none;text-transform:none;text-indent:0" font-family="Sans" d="m6.406 5a0.5 0.5 0 0 0 -0.406 0.5v2.5h-1.5a0.5 0.5 0 1 0 0 1h2a0.5 0.5 0 0 0 0.5 -0.5v-3a0.5 0.5 0 0 0 -0.594 -0.5z" overflow="visible" font-weight="400"/>
  <path opacity=".5" style="text-decoration-line:none;text-transform:none;text-indent:0" font-weight="400" d="m6.5 2c-3.578 0-6.5 2.922-6.5 6.5s2.922 6.5 6.5 6.5a6.408 6.408 0 0 0 3.5 -1.031v-2.656a4.452 4.452 0 0 1 -3.5 1.687 4.485 4.485 0 0 1 -4.5 -4.5c0-2.497 2.003-4.5 4.5-4.5s4.5 2.003 4.5 4.5c0 0.533-0.114 1.027-0.281 1.5h2.094a6.47 6.47 0 0 0 0.187 -1.5c0-3.578-2.922-6.5-6.5-6.5z" font-size="xx-small" overflow="visible" font-family="Sans"/>
  <path style="color:#f1f2f2" overflow="visible" d="m11 11h1.375l1.125 1.094 1.094-1.094h1.406v1.469l-1.094 1.062 1.094 1.063v1.406h-1.438l-1.062-1.063-1.063 1.063h-1.437v-1.406l1.063-1.063-1.063-1.061z"/>
 </g>
</svg>
