<?xml version="1.0" encoding="UTF-8"?>
<!--Part of Monotone: https://github.com/sixsixfive/Monotone, released under cc-by-sa_v4-->
<svg version="1.1" viewBox="0 0 16 16" xmlns="http://www.w3.org/2000/svg">
<g fill="#f1f2f2">
<path d="m7.9922 1c-3.854 0-7 3.146-7 7s3.146 7 7 7c1.1591 0 2.2523-0.28845 3.2168-0.79102l0.79102 0.79102h3l-2-2h-0.12109c1.3021-1.2726 2.1133-3.0438 2.1133-5 0-3.854-3.145-7-7-7zm0 1.9941a4.996 4.996 0 0 1 5.0078 5.0059 4.996 4.996 0 0 1-0.005859 0.13672l-5.9043-5.0605a4.996 4.996 0 0 1 0.90234-0.082031zm-2.9922 0.99414v8.0215a4.996 4.996 0 0 1-2.0137-4.0098 4.996 4.996 0 0 1 2.0137-4.0117zm2 2.0117 2.791 2.3262-2.791 1.6738v-4zm4.1855 3.4883 1.168 0.97266a4.996 4.996 0 0 1-4.3613 2.5449 4.996 4.996 0 0 1-0.99219-0.097656v-0.9082l4.1855-2.5117z" style="fill:#f1f2f2;text-decoration-line:none;text-indent:0;text-transform:none"/>
</g>
</svg>
