<!--Part of Monotone: https://github.com/sixsixfive/Monotone, released under cc-by-sa_v4-->
<svg xmlns="http://www.w3.org/2000/svg" viewBox="0 0 16 16">
    <path d="M8.004 1a.467.467 0 0 0-.422.258L1.049 14.324a.467.467 0 0 0 .605.637s.575-.235 1.346-.49V12.5a.499.499 0 1 1 1 0v1.684c.342-.093.672-.185 1.035-.254A.498.498 0 0 1 5 13.754V10.5a.499.499 0 1 1 1 0v3.254c0 .014-.007.027-.008.04.165-.014.332-.035.49-.038.187.002.349.02.518.035V11.5a.499.499 0 1 1 1 0v2.44c.32.072.665.172 1 .269V12.5a.499.499 0 1 1 1 0v1.977c.304.078.638.151 1 .22V13.5a.499.499 0 1 1 1 0v1.352c.315.038.634.075 1 .1V14.5a.499.499 0 1 1 1 0v.482c.184.004.338.019.535.018a.467.467 0 0 0 .416-.676L8.418 1.258A.467.467 0 0 0 8.004 1z" fill="#f1f2f2"/>
</svg>
