<?xml version="1.0" encoding="UTF-8" standalone="no"?>
<svg
   xmlns:dc="http://purl.org/dc/elements/1.1/"
   xmlns:cc="http://creativecommons.org/ns#"
   xmlns:rdf="http://www.w3.org/1999/02/22-rdf-syntax-ns#"
   xmlns:svg="http://www.w3.org/2000/svg"
   xmlns="http://www.w3.org/2000/svg"
   version="1.1"
   viewBox="0 0 16 16"
   id="svg2">
  <metadata
     id="metadata8">
    <rdf:RDF>
      <cc:Work
         rdf:about="">
        <dc:format>image/svg+xml</dc:format>
        <dc:type
           rdf:resource="http://purl.org/dc/dcmitype/StillImage" />
        <dc:title></dc:title>
      </cc:Work>
    </rdf:RDF>
  </metadata>
  <defs
     id="defs6" />
  <g
     id="g4"
     style="fill:none;stroke:#00979c;stroke-width:60;stroke-opacity:1"
     transform="matrix(0.02218866,0,0,0.02218866,0.13917316,4.3343402)">
    <path
       id="path6"
       transform="matrix(45.068066,0,0,45.068066,-6.2722652,-195.34033)"
       d="M 4.3652344 3 C 2.5380963 3.0005065 0.99023438 5.0365715 0.99023438 7.4960938 C 0.99023438 9.9493392 2.6955365 11.999999 4.3515625 11.992188 C 6.0000004 11.999999 6.9999999 11 8 9 C 9 11 9.9999995 11.999999 11.648438 11.992188 C 13.304463 11.999999 15.009766 9.9493391 15.009766 7.4960938 C 15.009766 5.0365715 13.461904 3.0005065 11.634766 3 C 9.7007452 3.2520977 9 4 8 6 C 6.9999999 4 6.2992548 3.2520977 4.3652344 3 z M 4.3105469 4 C 6.0003187 4 6.9999998 6.0000001 7.6679688 7.5 C 6.9999998 9 6.0000003 11 4.3652344 11 C 3.0336785 10.99963 1.9375 9.3815461 1.9375 7.4960938 C 1.9375 5.6106415 2.9789947 4.0003692 4.3105469 4 z M 11.689453 4 C 13.021005 4.0003692 14.0625 5.6106415 14.0625 7.4960938 C 14.0625 9.381546 12.966322 10.99963 11.634766 11 C 9.9999996 11 9.0000001 9 8.3320312 7.5 C 9.0000001 6 9.9996811 4 11.689453 4 z M 11 6 L 11 7 L 10 7 L 10 8 L 11 8 L 11 9 L 12 9 L 12 8 L 13 8 L 13 7 L 12 7 L 12 6 L 11 6 z M 3 7 L 3 8 L 6 8 L 6 7 L 3 7 z "
       style="color:#000000;font-style:normal;font-variant:normal;font-weight:normal;font-stretch:normal;font-size:medium;line-height:normal;font-family:sans-serif;font-variant-ligatures:normal;font-variant-position:normal;font-variant-caps:normal;font-variant-numeric:normal;font-variant-alternates:normal;font-feature-settings:normal;text-indent:0;text-align:start;text-decoration:none;text-decoration-line:none;text-decoration-style:solid;text-decoration-color:#000000;letter-spacing:normal;word-spacing:normal;text-transform:none;writing-mode:lr-tb;direction:ltr;text-orientation:mixed;dominant-baseline:auto;baseline-shift:baseline;text-anchor:start;white-space:normal;shape-padding:0;clip-rule:nonzero;display:inline;overflow:visible;visibility:visible;opacity:1;isolation:auto;mix-blend-mode:normal;color-interpolation:sRGB;color-interpolation-filters:linearRGB;solid-color:#000000;solid-opacity:1;vector-effect:none;fill:#f1f2f2;fill-opacity:0.99163181;fill-rule:nonzero;stroke:none;stroke-width:0.99999988;stroke-linecap:butt;stroke-linejoin:miter;stroke-miterlimit:4;stroke-dasharray:none;stroke-dashoffset:0;stroke-opacity:1;color-rendering:auto;image-rendering:auto;shape-rendering:auto;text-rendering:auto;enable-background:accumulate" />
  </g>
</svg>
