<!--Part of Monotone: https://github.com/sixsixfive/Monotone, released under cc-by-sa_v4-->
<svg xmlns="http://www.w3.org/2000/svg" viewBox="0 0 16 16">
    <path d="M2 1c-.554 0-1 .446-1 1v12c0 .554.446 1 1 1h12c.554 0 1-.446 1-1V2c0-.554-.446-1-1-1H2zm1 1h9.73C10.054 5.724 5.715 8.497 2 8.512V3c0-.554.446-1 1-1zm10.566.197a.957.957 0 0 1 .205.19 17.96 17.96 0 0 0-.894.775c.235-.305.462-.638.689-.965zm.434.88V13c0 .554-.446 1-1 1h-.654C10.313 9.512 11.583 5.438 14 3.076zm-3.025 2.255c-1.661 2.343-2.51 5.169-2.3 8.668H6.979c-.746-2.155-2.418-3.963-4.433-4.5 2.754-.08 5.727-1.48 8.43-4.168zM2 10.201c2.077.384 3.696 1.911 4.35 3.799H3c-.554 0-1-.446-1-1v-2.799z" fill-rule="evenodd" fill="#f1f2f2"/>
</svg>
