<?xml version="1.0" encoding="UTF-8" standalone="no"?>
<!--Part of Monotone: https://github.com/sixsixfive/Monotone, released under cc-by-sa_v4-->
<svg xmlns="http://www.w3.org/2000/svg" version="1.1" viewBox="0 0 16 16">
 <defs>
  <clipPath id="a">
   <path stroke-linejoin="round" d="m21 281h14v11h-14z" color="#f1f2f2" stroke="#fff" stroke-linecap="round" overflow="visible" stroke-width="2" fill="none"/>
  </clipPath>
 </defs>
 <g opacity=".35" fill="#f1f2f2">
  <path color="#f1f2f2" overflow="visible" style="" d="m5.5 0.987c1.385 0 2.5 1.115 2.5 2.5v5.013c0 1.385-1.115 2.5-2.5 2.5a2.495 2.495 0 0 1 -2.5 -2.5v-5.013c0-1.385 1.115-2.5 2.5-2.5z"/>
  <path style="text-decoration-line:none;text-transform:none;text-indent:0" font-family="Sans" d="m27.969 273.62a4.531 4.531 0 0 0 -4.532 4.531v5.813a4.531 4.531 0 0 0 9.063 0v-5.813a4.531 4.531 0 0 0 -4.531 -4.531zm0 1a3.514 3.514 0 0 1 3.531 3.531v5.813a3.514 3.514 0 0 1 -3.531 3.531 3.514 3.514 0 0 1 -3.532 -3.531v-5.813a3.514 3.514 0 0 1 3.532 -3.531z" clip-path="url(#a)" color="#f1f2f2" transform="matrix(.99397 0 0 1 -22.293 -275.49)" overflow="visible" font-weight="400"/>
  <path color="#f1f2f2" overflow="visible" style="" d="m2 5.5a0.5 0.5 0 0 1 -0.5 0.5 0.5 0.5 0 0 1 -0.5 -0.5 0.5 0.5 0 0 1 0.5 -0.5 0.5 0.5 0 0 1 0.5 0.5zm8 0a0.5 0.5 0 0 1 -0.5 0.5 0.5 0.5 0 0 1 -0.5 -0.5 0.5 0.5 0 0 1 0.5 -0.5 0.5 0.5 0 0 1 0.5 0.5z"/>
  <path style="text-decoration-line:none;text-transform:none;text-indent:0" font-family="Sans" d="m1.906 14a1.001 1.001 0 1 0 0.094 2h7a1 1 0 1 0 0 -2h-7a1 1 0 0 0 -0.094 0z" color="#f1f2f2" overflow="visible" font-weight="400"/>
  <path color="#f1f2f2" overflow="visible" style="" d="m1 15h9v1h-9z"/>
  <path color="#f1f2f2" overflow="visible" style="" d="m4 12h3v4h-3z"/>
 </g>
 <path d="m11 11h1.375l1.125 1.094 1.094-1.094h1.406v1.469l-1.094 1.062 1.094 1.063v1.406h-1.437l-1.063-1.063-1.062 1.063h-1.438v-1.406l1.063-1.063-1.063-1.061z" style="color:#f1f2f2" overflow="visible" fill="#f1f2f2"/>
</svg>
