<!--Part of Monotone: https://github.com/sixsixfive/Monotone, released under cc-by-sa_v4-->
<svg xmlns="http://www.w3.org/2000/svg" viewBox="0 0 16 16">
    <g fill="#f1f2f2">
        <path d="M7.969 0C4.663 0 1.945 3.008 2 5.719c.062 3.022.934 4.695 1.125 5.281h1.4c-1.16-2.292-1.048-5.156-1.048-5.156 0-2.373 2.007-4.313 4.493-4.313 2.485 0 4.5 1.92 4.492 4.375-.024 1.674-.172 2.284-1.006 4.813h1.571c.225-.645.974-2.066.974-4.906C14 2.983 11.274 0 7.969 0z"/>
        <path d="M12.6 7.059c-.84-.234-1.766.368-2.079 1.351l-.426 1.343c-.312.983.112 1.963.951 2.197.84.234 1.766-.368 2.078-1.351l.426-1.343c.313-.983-.112-1.963-.95-2.197zm-9.148.001c.84-.235 1.766.368 2.078 1.35l.427 1.343c.312.983-.112 1.963-.951 2.197-.84.235-1.766-.368-2.078-1.351L2.5 9.256c-.312-.983.112-1.963.951-2.197z"/>
        <path d="M7.047 13.97h1.937c.546 0 .985.439.985.984a.982.982 0 0 1-.985.984H7.047a.982.982 0 0 1-.985-.984c0-.545.44-.984.985-.984z" style="marker:none" color="#000" overflow="visible"/>
        <path style="line-height:normal;-inkscape-font-specification:Sans;text-indent:0;text-align:start;text-decoration-line:none;text-transform:none;marker:none" d="M12.594 9.407a.5.5 0 0 0-.063.969l1.469.531-.031 1.75c-.005.532-.136.868-.313 1.063-.177.194-.402.28-.719.28H8.781a.5.5 0 1 0 0 1h4.156c.548 0 1.093-.21 1.469-.624.376-.415.556-1.01.563-1.719l.03-2.094v-.343l-.312-.125-1.781-.657a.5.5 0 0 0-.312-.03z" color="#000" font-weight="400" font-family="Sans" overflow="visible"/>
    </g>
</svg>
