<?xml version="1.0" encoding="UTF-8"?>
<!--Part of Monotone: https://github.com/sixsixfive/Monotone, released under cc-by-sa_v4-->
<svg version="1.1" viewBox="0 0 16 16" xmlns="http://www.w3.org/2000/svg">
 <g fill="#f1f2f2">
  <path d="m0 11.656c-0.0078215 1.2978 1.0462 2.3518 2.344 2.344h11.312c1.2978 0.0078 2.3518-1.0462 2.344-2.344v-7.312c0.007822-1.2978-1.0462-2.3518-2.344-2.344h-11.312c-1.2978-0.0078215-2.3518 1.0462-2.344 2.344zm3-3.656c0-2.754 2.246-5 5-5s5 2.246 5 5c-0.0055 2.7591-2.2409 4.9945-5 5-2.754 0-5-2.246-5-5zm2.031 0c6.667e-4 3.96 5.9407 3.959 5.94-1e-3 -6.67e-4 -3.9607-5.9417-3.9597-5.941 1e-3zm1.469 0c0-0.854 0.663-1.531 1.5-1.531s1.5 0.677 1.5 1.531c0 0.107 0.02 0.212 0 0.313-0.14696 0.71076-0.77421 1.2197-1.5 1.217-0.837 0-1.5-0.677-1.5-1.531z" fill="#f1f2f2"/>
 </g>
</svg>
