<?xml version="1.0" encoding="UTF-8" standalone="no"?>
<!--Part of Monotone: https://github.com/sixsixfive/Monotone, released under cc-by-sa_v4-->
<svg xmlns="http://www.w3.org/2000/svg" viewBox="0 0 16 16" version="1.1">
 <path d="m8 2c-4 0-6 2-6 7.0684v1.2016a2 2 0 0 0 -1 1.73 2 2 0 0 0 2 2 2 2 0 0 0 2 -2 2 2 0 0 0 -1 -1.729v-1.271c0.0684-3.0684 1-5 4-5s3.932 1.9316 4 5v1.27a2 2 0 0 0 -1 1.73 2 2 0 0 0 2 2 2 2 0 0 0 2 -2 2 2 0 0 0 -1 -1.729v-1.2026c0-5.0684-2-7.0684-6-7.0684zm-3 10v1.5c0 0.277 0.223 0.5 0.5 0.5s0.5-0.223 0.5-0.5v-3c0-0.277-0.223-0.5-0.5-0.5s-0.5 0.223-0.5 0.5v1.5zm-1.8574-0.971c0.4632 0.079 0.8594 0.496 0.8594 0.971 0 0.524-0.4778 1.002-1.002 1.002s-1.002-0.478-1.002-1.002c0-0.456 0.3661-0.857 0.8047-0.959l0.3399-0.012zm9.7144 0l0.34 0.012c0.439 0.102 0.805 0.503 0.805 0.959 0 0.524-0.478 1.002-1.002 1.002s-1.002-0.478-1.002-1.002c0-0.475 0.396-0.892 0.859-0.971z" fill="#f1f2f2"/>
</svg>
