<?xml version="1.0" encoding="UTF-8" standalone="no"?>
<!--Part of Monotone: https://github.com/sixsixfive/Monotone, released under cc-by-sa_v4-->
<svg xmlns="http://www.w3.org/2000/svg" xml:space="preserve" version="1.1" xmlns:xlink="http://www.w3.org/1999/xlink" viewBox="0 0 16 16"><defs><linearGradient id="linearGradient147" x1="37.868" xlink:href="#SVGID_1_" gradientUnits="userSpaceOnUse" y1="-22.713" gradientTransform="matrix(1.0059 0 0 -.9942 9.9104 69.418)" x2="37.868" y2="62.786"/></defs><filter style="color-interpolation-filters:sRGB" height="1.384" width="1.384" y="-.192" x="-.192"><feGaussianBlur stdDeviation="5.28"/></filter><filter id="filter3218" style="color-interpolation-filters:sRGB"><feGaussianBlur stdDeviation="1.71"/></filter><path opacity=".5" fill="#f1f2f2" d="m6.0508 0.90039c-0.0368 0.00946-0.0683 0.03602-0.084 0.07031l-5.9551 12.847c-0.037452 0.077 0.025817 0.18 0.11135 0.182h2.1094c0.0466-0.001 0.0925-0.029 0.1133-0.07l1.3496-2.918h4.3164l0.0918 0.539a4.5 4.5 0 0 1 2.2075 -2.9768l-1.3422-7.5683c-0.0102-0.05865-0.0671-0.10569-0.127-0.10551h-2.7637c-0.0093-0.00103-0.018-0.00103-0.0273 0zm0.8301 2.7148l0.8711 5.4219h-3.17l2.2989-5.4219z"/><g display="none" transform="translate(0,-80)"><g opacity=".9" filter="url(#filter3218)" display="inline"><linearGradient id="SVGID_1_" y2="62.786" gradientUnits="userSpaceOnUse" x2="37.868" gradientTransform="matrix(1.0059 0 0 -.9942 9.9104 69.418)" y1="-22.713" x1="37.868"><stop offset="0"/><stop stop-opacity=".5882" offset="1"/></linearGradient><path d="m12 7h72c3.866 0 7 3.134 7 7v71c0 3.866-3.134 7-7 7h-72c-3.866 0-7-3.134-7-7v-71c0-3.866 3.134-7 7-7z" fill="url(#SVGID_1_)"/></g></g><g display="none" transform="translate(31.593 -80.61)"><g opacity=".9" filter="url(#filter3218-5)" display="inline"><path d="m12 7h72c3.866 0 7 3.134 7 7v71c0 3.866-3.134 7-7 7h-72c-3.866 0-7-3.134-7-7v-71c0-3.866 3.134-7 7-7z" fill="url(#linearGradient147)"/></g></g><path style="color:#f1f2f2" d="m12.5 9a3.5 3.5 0 1 0 0 7 3.5 3.5 0 0 0 0 -7zm-2.5 2.969h5v1.031h-5z" class="error" overflow="visible" fill="#f1f2f2"/></svg>
