<?xml version="1.0" encoding="UTF-8" standalone="no"?>
<!--Part of Monotone: https://github.com/sixsixfive/Monotone, released under cc-by-sa_v4-->
<svg id="Layer_1" xmlns="http://www.w3.org/2000/svg" enable-background="new 0 0 512 512" xml:space="preserve" viewBox="0 0 16 16" version="1.1" y="0px" x="0px"><g id="g6" style="fill:#f1f2f2" transform="matrix(.028169 0 0 .028169 .76056 .76060)"><path id="path2" style="stroke-width:.028169;fill:#f1f2f2" d="m2.0957 1c-0.2801 0-0.418 0.0512-0.4844 0.0938-0.0319 0.0204-0.198 0.1597-0.3476 0.8867-0.1646 0.7993-0.2543 2.0239-0.2637 3.6425v0.082031c-0.011916 1.7422 0.26969 3.4344 0.40039 4.123 0.00504 0.01262 0.00916 0.025401 0.011719 0.039063l0.044922 0.24219c0.25189 1.3459 1.039 2.5809 2.2168 3.4766 1.1997 0.912 2.734 1.414 4.3184 1.414 1.5875 0 3.1216-0.50446 4.3223-1.4199 1.179-0.89884 1.9665-2.1369 2.2148-3.4863l0.04297-0.23828c0.0059-0.032394 0.02013-0.062454 0.03906-0.087891 0.136-0.7262 0.401-2.3693 0.389-4.0627v-0.0821c-0.009-1.6185-0.099-2.8432-0.264-3.6425-0.149-0.727-0.315-0.8663-0.347-0.8867-0.067-0.0425-0.205-0.0938-0.485-0.0938-0.928 0-2.408 0.5599-2.908 0.8477-1.17 0.6732-1.7723 0.9147-1.9198 1.0551-0.047 0.0679-0.1416 0.1484-0.3262 0.1484-0.081267 0-0.19879-0.01017-0.33789-0.023437-0.14682-0.014056-0.31322-0.03125-0.41992-0.03125-0.10459 0-0.2692 0.015776-0.41602 0.029297-0.13414 0.012366-0.24956 0.023438-0.32812 0.023438-0.038479 0-0.070173-0.00246-0.099609-0.00781-0.0838-0.0153-0.1561-0.0583-0.2071-0.121-0.1028-0.0998-0.7091-0.366-1.9375-1.0727-0.5002-0.2878-1.9802-0.8477-2.9082-0.8477zm2.4043 4c1.3807 0 2.5 1.1193 2.5 2.5s-1.1193 2.5-2.5 2.5-2.5-1.1193-2.5-2.5 1.1193-2.5 2.5-2.5zm7 0c1.381 0 2.5 1.1193 2.5 2.5s-1.119 2.5-2.5 2.5-2.5-1.1193-2.5-2.5 1.119-2.5 2.5-2.5zm-7 1c-0.8284 0-1.5 0.6716-1.5 1.5s0.6716 1.5 1.5 1.5 1.5-0.6716 1.5-1.5-0.6716-1.5-1.5-1.5zm7 0c-0.828 0-1.5 0.6716-1.5 1.5s0.672 1.5 1.5 1.5 1.5-0.6716 1.5-1.5-0.672-1.5-1.5-1.5zm-3.5 6c1 0 2 0.19541 2 0.58594 0 0.781-0.8954 1.414-2 1.414s-2-0.633-2-1.414c0-0.391 1-0.586 2-0.586z" transform="matrix(35.5 0 0 35.5 -27 -27.001)"/></g></svg>
