<?xml version="1.0" encoding="UTF-8" standalone="no"?>
<!--Part of Monotone: https://github.com/sixsixfive/Monotone, released under cc-by-sa_v4-->
<svg id="svg4" xmlns="http://www.w3.org/2000/svg" version="1.1" viewBox="0 0 16 16"><path id="path2" style="stroke-width:1.0011;fill:#f1f2f2" d="m0.46991 0.00099999a0.48093 0.48009 0 0 0 -0.46991 0.46908v12.063c0 0.25805 0.21041 0.46808 0.46991 0.46808h5.7612a5.4245 5.415 0 0 1 -0.2195 -1.5 5.5107 5.501 0 0 1 5.5104 -5.5009c0.89974 0 1.7554 0.21304 2.5049 0.59411v-2.1244c0-0.25004-0.21842-0.43708-0.46991-0.43708l-0.03006-0.031006h-11.522v6.5013c0 0.26905-0.23145 0.50009-0.50097 0.50009s-0.50097-0.23104-0.50097-0.50009v-7.0014c0-0.31006 0.1533-0.50009 0.50097-0.50009h10.52v-0.50009a0.49095 0.49009 0 0 0 -0.50097 -0.50009h-6.5123v-1.5322a0.48093 0.48009 0 0 0 -0.4709 -0.4691h-4.0699zm11.334 7.0013a4.5388 4.5308 0 0 0 -4.634 3.3446 4.4997 4.4918 0 0 0 3.1942 5.501 4.4997 4.4918 0 0 0 5.5107 -3.1886c0.057-0.214 0.1-0.438 0.125-0.655h-4.499l0.531-4.9807a3.2022 3.1966 0 0 0 -0.228 -0.02z"/></svg>
