<?xml version="1.0" encoding="UTF-8" standalone="no"?>
<!--Part of Monotone: https://github.com/sixsixfive/Monotone, released under cc-by-sa_v4-->
<svg xmlns="http://www.w3.org/2000/svg" version="1.1" viewBox="0 0 16 16">
 <g transform="rotate(90,8,8)" fill="#f1f2f2">
  <path style="color:#000000" d="m1 2.998v10h7.0137v-0.78711l0.021484 0.20898c-0.03-0.138-0.0365-0.281-0.0352-0.422h-6v-7.998l10-0.00195v2h2v1.0156c0.545 0.0004 0.986 0.4418 0.986 0.9864v0.71289l-0.03711-0.26953c0.15363 0.53918-0.0674 1.0948-0.36524 1.5684h0.26562c0.07464-0.18124 0.12064-0.37551 0.12109-0.57617h0.029v-2.969c0-0.49-0.22775-0.79625-0.46875-1.0312-0.24-0.235-0.527-0.4375-1-0.4375h-0.531v-2zm2 2v6h2v-6zm3 0v6h2v-6z" transform="rotate(-90,8,8)"/>
 </g>
 <path style="color:#f1f2f2;text-decoration-line:none;text-transform:none;text-indent:0" fill="#f1f2f2" d="m13.033 7.9863a1 1 0 0 0 -0.158 0.0117v0.002a1 1 0 0 0 -0.59375 0.28125l-3 3a1 1 0 0 0 -0.281 0.93v0.789h3.1152l-0.92188 1.3828a1.0165 1.0165 0 0 0 -0.193 0.797v0.82h0.82422a1.0165 1.0165 0 0 0 0.89453 -0.28125l3-3a1 1 0 0 0 0.281 -0.938v-0.781h-0.949a1 1 0 0 0 -0.051 -0.002h-2.113l0.894-1.3418a1 1 0 0 0 0.219 -0.9433v-0.7129h-0.79688a1 1 0 0 0 -0.16992 -0.013672z"/>
</svg>
