<?xml version="1.0" encoding="UTF-8"?>
<svg version="1.1" viewBox="0 0 16 16" xmlns="http://www.w3.org/2000/svg">
<path d="m7 2.9883v2.0117h2v-0.011719h1.0039c0.02908 1.622e-4 0.04879 0.018029 0.07617 0.021484 0.20704 0.027507 0.37448 0.12983 0.48438 0.29688 0.12315 0.18719 0.1845 0.43545 0.18555 0.68359 1e-6 0.00131 2e-6 0.0026 0 0.00391 2e-6 0.00131 1e-6 0.00259 0 0.00391-5.17e-4 0.12277-0.01646 0.24601-0.04687 0.36133-0.03106 0.11778-0.07645 0.22768-0.13867 0.32227-0.1099 0.16705-0.27734 0.26937-0.48438 0.29688-0.02869 0.00362-0.04952 0.021484-0.08008 0.021484h-1v-0.011726h-2v2.0117h3.0039c0.878 0 1.6374-0.23922 2.1934-0.69922 0.555-0.459 0.87333-1.1423 0.86133-1.8223v-0.96875c0.012-0.68-0.30633-1.3633-0.86133-1.8223-0.556-0.46-1.3154-0.69922-2.1934-0.69922h-2.0039z" style="color:#000000;fill:#f1f2f2;isolation:auto;mix-blend-mode:normal;text-decoration-color:#000000;text-decoration-line:none;text-decoration-style:solid;text-indent:0;text-transform:none;white-space:normal"/>
<path d="m7 6.9883v2.0117h2v-0.011719h1.0039c0.02908 1.622e-4 0.04879 0.018029 0.07617 0.021484 0.20704 0.027507 0.37448 0.12983 0.48438 0.29688 0.12315 0.18719 0.1845 0.43545 0.18555 0.68359 1e-6 0.00131 2e-6 0.0026 0 0.00391 2e-6 0.00131 1e-6 0.00259 0 0.00391-5.17e-4 0.12277-0.01646 0.24601-0.04687 0.36133-0.03106 0.11778-0.07645 0.22768-0.13867 0.32226-0.1099 0.16705-0.27734 0.26937-0.48438 0.29688-0.02869 0.0036-0.04952 0.02148-0.08008 0.02148h-1v-0.011721h-2v2.0117h3.0039c0.878 0 1.6374-0.23922 2.1934-0.69922 0.555-0.459 0.87333-1.1423 0.86133-1.8223v-0.96875c0.012-0.68-0.30633-1.3633-0.86133-1.8223-0.556-0.46-1.3154-0.69922-2.1934-0.69922h-2.0039z" style="color:#000000;fill:#f1f2f2;isolation:auto;mix-blend-mode:normal;text-decoration-color:#000000;text-decoration-line:none;text-decoration-style:solid;text-indent:0;text-transform:none;white-space:normal"/>
<rect x="5" y="3" width="2" height="10" style="fill:#f1f2f2;paint-order:markers fill stroke"/>
<rect x="6" y="1" width="1" height="2" style="fill:#f1f2f2;paint-order:markers fill stroke"/>
<rect transform="rotate(90)" x="11" y="-6" width="2" height="3" style="fill:#f1f2f2;paint-order:markers fill stroke"/>
<rect transform="rotate(90)" x="3" y="-6" width="2" height="3" style="fill:#f1f2f2;paint-order:markers fill stroke"/>
<rect x="9" y="1" width="1" height="2" style="fill:#f1f2f2;paint-order:markers fill stroke"/>
<rect x="6" y="13" width="1" height="2" style="fill:#f1f2f2;paint-order:markers fill stroke"/>
<rect x="9" y="13" width="1" height="2" style="fill:#f1f2f2;paint-order:markers fill stroke"/>
</svg>
