<?xml version="1.0" encoding="UTF-8" standalone="no"?>
<!--Part of Monotone: https://github.com/sixsixfive/Monotone, released under cc-by-sa_v4-->
<svg id="svg4" xmlns="http://www.w3.org/2000/svg" version="1.1" viewBox="0 0 16 16"><path id="path4491" style="fill:#f1f2f2" d="m4 7.5a0.5 0.5 0 0 1 -0.4994 0.5 0.5 0.5 0 0 1 -0.5006 -0.4989 0.5 0.5 0 0 1 0.4983 -0.5011 0.5 0.5 0 0 1 0.5017 0.4978"/><path id="path4493" style="fill:#f1f2f2" d="m6 7.5a0.5 0.5 0 0 1 -0.4994 0.5 0.5 0.5 0 0 1 -0.5006 -0.4989 0.5 0.5 0 0 1 0.4983 -0.5011 0.5 0.5 0 0 1 0.5017 0.4978"/><path id="path4495" style="fill:#f1f2f2" d="m8 7.5a0.5 0.5 0 0 1 -0.4994 0.5 0.5 0.5 0 0 1 -0.5006 -0.4989 0.5 0.5 0 0 1 0.4983 -0.5011 0.5 0.5 0 0 1 0.5017 0.4978"/><path id="path4497" style="fill:#f1f2f2" d="m10 7.5a0.5 0.5 0 0 1 -0.4994 0.5 0.5 0.5 0 0 1 -0.5006 -0.4989 0.5 0.5 0 0 1 0.4983 -0.5011 0.5 0.5 0 0 1 0.5017 0.4978"/><path id="path4499" style="fill:#f1f2f2" d="m12 7.5a0.5 0.5 0 0 1 -0.499 0.5 0.5 0.5 0 0 1 -0.501 -0.4989 0.5 0.5 0 0 1 0.498 -0.5011 0.5 0.5 0 0 1 0.502 0.4978"/><path id="path4501" style="fill:#f1f2f2" d="m14 7.5a0.5 0.5 0 0 1 -0.499 0.5 0.5 0.5 0 0 1 -0.501 -0.4989 0.5 0.5 0 0 1 0.498 -0.5011 0.5 0.5 0 0 1 0.502 0.4978"/><path id="path4503" style="fill:#f1f2f2" d="m6 5.5a0.5 0.5 0 0 1 -0.4994 0.5 0.5 0.5 0 0 1 -0.5006 -0.4989 0.5 0.5 0 0 1 0.4983 -0.5011 0.5 0.5 0 0 1 0.5017 0.4978"/><path id="path4505" style="fill:#f1f2f2" d="m8 5.5a0.5 0.5 0 0 1 -0.4994 0.5 0.5 0.5 0 0 1 -0.5006 -0.4989 0.5 0.5 0 0 1 0.4983 -0.5011 0.5 0.5 0 0 1 0.5017 0.4978"/><path id="path4507" style="fill:#f1f2f2" d="m10 5.5a0.5 0.5 0 0 1 -0.4994 0.5 0.5 0.5 0 0 1 -0.5006 -0.4989 0.5 0.5 0 0 1 0.4983 -0.5011 0.5 0.5 0 0 1 0.5017 0.4978"/><path id="path4509" style="fill:#f1f2f2" d="m12 5.5a0.5 0.5 0 0 1 -0.49944 0.5 0.5 0.5 0 0 1 -0.50056 -0.49888 0.5 0.5 0 0 1 0.49832 -0.50111 0.5 0.5 0 0 1 0.50167 0.49776"/><path id="path4511" style="fill:#f1f2f2" d="m4 9.5a0.5 0.5 0 0 1 -0.4994 0.5 0.5 0.5 0 0 1 -0.5006 -0.4989 0.5 0.5 0 0 1 0.4983 -0.5011 0.5 0.5 0 0 1 0.5017 0.4978"/><path id="path4513" style="fill:#f1f2f2" d="m6 9.5a0.5 0.5 0 0 1 -0.4994 0.5 0.5 0.5 0 0 1 -0.5006 -0.4989 0.5 0.5 0 0 1 0.4983 -0.5011 0.5 0.5 0 0 1 0.5017 0.4978"/><path id="path4515" style="fill:#f1f2f2" d="m12 9.5a0.5 0.5 0 0 1 -0.499 0.5 0.5 0.5 0 0 1 -0.501 -0.4989 0.5 0.5 0 0 1 0.498 -0.5011 0.5 0.5 0 0 1 0.502 0.4978"/><path id="path4517" style="fill:#f1f2f2" d="m14 9.5a0.5 0.5 0 0 1 -0.499 0.5 0.5 0.5 0 0 1 -0.501 -0.4989 0.5 0.5 0 0 1 0.498 -0.5011 0.5 0.5 0 0 1 0.502 0.4978"/></svg>
