<?xml version="1.0" encoding="UTF-8"?>
<svg version="1.1" viewBox="0 0 16 16" xmlns="http://www.w3.org/2000/svg">
<g fill="#f1f2f2">
<path d="m7 10.999v2h-5.531a0.464 0.464 0 0 0-0.469 0.469v1.062c0 0.263 0.206 0.469 0.469 0.469h13.061a0.464 0.464 0 0 0 0.469-0.469v-1.061a0.464 0.464 0 0 0-0.469-0.469h-5.53v-2z"/>
<path d="m6 4h4v1h-4zm3 2h1v1h-1z" overflow="visible" style="color:#000000"/>
<path d="m4.5 2c-0.277 0-0.5 0.223-0.5 0.5v9c0 0.277 0.223 0.5 0.5 0.5h7c0.277 0 0.5-0.223 0.5-0.5v-9c0-0.277-0.223-0.5-0.5-0.5h-7zm1 1h5c0.277 0 0.5 0.223 0.5 0.5v7c0 0.277-0.223 0.5-0.5 0.5h-5c-0.277 0-0.5-0.223-0.5-0.5v-7c0-0.277 0.223-0.5 0.5-0.5z" style="fill:#f1f2f2"/>
</g>
</svg>
