<!--Part of Monotone: https://github.com/sixsixfive/Monotone, released under cc-by-sa_v4-->
<svg xmlns="http://www.w3.org/2000/svg" viewBox="0 0 16 16">
    <g fill="#f1f2f2">
        <path d="M4.68 4.003C3.747 4 2.993 4.768 2.99 5.729c.017.744.021 1.507.014 2.269l2.922.015.019-4.003-1.266-.006zm2.406.011l-.019 4.004 2.922.015c.015-.765.03-1.532.037-2.268.003-.961-.742-1.74-1.674-1.744l-1.266-.006zM3 9.095c-.011.832-.037 1.5-.038 2.266C2.953 13.372 4.514 15 6.463 15.01c1.95.01 3.526-1.601 3.536-3.612a40.992 40.992 0 0 1-.038-2.302z"/>
        <path style="line-height:normal;-inkscape-font-specification:Sans;text-indent:0;text-align:start;text-decoration-line:none;text-transform:none;marker:none" d="M8.063.01c-.455.049-.884.22-1.25.5C6.324.88 6 1.463 6 2.196a.52.52 0 0 0 .5.507.52.52 0 0 0 .5-.507c0-.45.172-.704.438-.907.265-.202.663-.3 1.062-.28.399.018.784.153 1.063.405.278.253.468.585.468 1.125 0 2.166 1.464 3.51 3 3.47.857-.023 1.688-.478 2.25-1.313l-.562-1c-.376.915-1.068 1.295-1.719 1.312-.96.025-1.969-.73-1.969-2.469 0-.792-.337-1.443-.812-1.875C9.743.235 9.138.038 8.53.01c-.151-.007-.317-.016-.469 0zM15 1.977v.156l.781 1.375c.012-.04.021-.083.031-.125zm0 .375c-.006.106-.02.214-.031.312l.719 1.22c.023-.063.041-.123.062-.188zm-.063.5c-.013.09-.044.166-.062.25l.656 1.125c.03-.061.067-.124.094-.188zm-.093.437c-.024.09-.065.17-.094.25l.594 1.032c.04-.066.088-.119.125-.188z" color="#000" font-weight="400" font-family="Sans" overflow="visible"/>
    </g>
</svg>
