<!--Part of Monotone: https://github.com/sixsixfive/Monotone, released under cc-by-sa_v4-->
<svg xmlns="http://www.w3.org/2000/svg" viewBox="0 0 16 16">
    <path style="marker:none" d="M2.938 1c-.633.045-1.028.72-.938 1.312.003 4.25.021 8.5.031 12.75.057.625.693 1.027 1.281.938 3.253-.003 6.498-.021 9.75-.031.625-.057 1.027-.692.938-1.281a2872.79 2872.79 0 0 0-.031-9.782c-.094-.598-.665-.913-1.031-1.343-.803-.79-1.555-1.606-2.376-2.375-.49-.304-1.11-.146-1.656-.188H2.937zM8 4.562l3.719 3.72c.188.187.281.453.281.718v1h-1c-.265 0-.53-.093-.719-.281L9 8.437l.031 5.625-2.125.063.063-5.656-1.25 1.25a1.015 1.015 0 0 1-.72.281H4V9c0-.265.093-.53.281-.719L8 4.562z" color="#f1f2f2" overflow="visible" fill="#f1f2f2"/>
</svg>
