<?xml version="1.0" encoding="UTF-8"?>
<svg version="1.1" viewBox="0 0 16 16" xmlns="http://www.w3.org/2000/svg">
<path d="m8 1a7 7 0 0 0-7 7 7 7 0 0 0 4.5938 6.5645c0.055738-0.30965 0.16903-0.48596 0.39258-0.60156 0.20057-0.1037 0.20142-0.10812 0.11328-0.39844-0.17773-0.58561-0.92585-1.6354-1.6348-3.1211-1.292-2.7075-1.4749-3.2116-1.4746-4.0723 3.649e-4 -0.65314 0.15397-1.1318 0.54492-1.6914 0.66188-0.94745 2.4538-1.7188 3.623-1.7188 0.44482 0 0.60244 0.053798 0.91797 0.31641 0.28967 0.24087 0.71891 0.27032 1.8906 0.13281 1.2403-0.14562 1.6134-0.11123 1.8965 0.17188 0.16433 0.16429 0.19531 0.25228 0.19531 0.55078 0 0.48606-0.19876 0.67619-0.9668 0.92773-0.81335 0.26648-1.4149 0.561-1.582 0.77344-0.097466 0.12393-0.14062 0.28085-0.14062 0.50586v0.32812l0.54102 0.03125c0.39967 0.02315 0.90661 0.070293 1.0898 0.18359 0.274 0.16936 0.52895 0.53526 0.55664 0.79492 0.0099 0.09243 0.16446 0.32992 0.34375 0.5293 0.5775 0.64233 1.0736 1.8867 1.0762 2.6973 0.003001 0.74423-0.21008 0.73219-0.7168-0.037109-0.4422-0.67148-0.81266-1.0288-1.3027-1.2559-0.19335-0.08953-0.66044-0.15397-0.66992-0.14453-0.0099 0.0099-0.37403 0.27877-0.32227 0.59961 0.29344 1.8206 0.15998 3.4489-0.36914 4.7402a7 7 0 0 0 5.4043-6.8066 7 7 0 0 0-7-7z" style="fill:#f1f2f2;paint-order:markers fill stroke"/>
</svg>
