<!--Part of Monotone: https://github.com/sixsixfive/Monotone, released under cc-by-sa_v4-->
<svg xmlns="http://www.w3.org/2000/svg" viewBox="0 0 16 16">
    <g fill="#f1f2f2">
        <path style="text-decoration-line:none;text-transform:none;text-indent:0" font-family="Sans" d="M3.437 1c-1.373 0-2.5 1.101-2.5 2.469v9.062C.937 13.9 2.064 15 3.437 15h9.125c1.373 0 2.5-1.101 2.5-2.469V3.47c0-1.37-1.127-2.47-2.5-2.47zm0 1h9.125c.844 0 1.5.64 1.5 1.469v9.062c0 .828-.656 1.469-1.5 1.469H3.437c-.843 0-1.5-.64-1.5-1.469V3.47c0-.828.657-1.469 1.5-1.469z" overflow="visible" font-weight="400"/>
        <rect ry=".8" height="8" width="2" y="4" x="3"/>
        <rect ry=".8" height="2" width="4" y="3" x="3"/>
        <rect ry=".8" height="2" width="4" y="11" x="3"/>
        <rect transform="scale(-1 1)" ry=".8" height="8" width="2" y="4" x="-13"/>
        <rect transform="scale(-1 1)" ry=".8" height="2" width="4" y="3" x="-13"/>
        <rect transform="scale(-1 1)" ry=".8" height="2" width="4" y="11" x="-13"/>
    </g>
</svg>
