<?xml version="1.0" encoding="UTF-8" standalone="no"?>
<!--Part of Monotone: https://github.com/sixsixfive/Monotone, released under cc-by-sa_v4-->
<svg id="svg4" xmlns="http://www.w3.org/2000/svg" viewBox="0 0 16 16" version="1.1"><path id="rect859" style="paint-order:fill markers stroke;fill:#f1f2f2" d="m2.8574 1c-1.0288 0-1.8574 0.8286-1.8574 1.8574v9.2856c0 1.028 0.8286 1.857 1.8574 1.857h9.2856c1.028 0 1.857-0.829 1.857-1.857v-9.2856c0-1.0288-0.829-1.8574-1.857-1.8574h-9.2856zm1.6426 1a1.5 1.5 0 0 1 1.5 1.5 1.5 1.5 0 0 1 -1.5 1.5 1.5 1.5 0 0 1 -1.5 -1.5 1.5 1.5 0 0 1 1.5 -1.5zm0 4a1.5 1.5 0 0 1 1.5 1.5 1.5 1.5 0 0 1 -1.5 1.5 1.5 1.5 0 0 1 -1.5 -1.5 1.5 1.5 0 0 1 1.5 -1.5z"/><circle id="circle863" cx="10.5" cy="3.5" r="1.5" style="opacity:0;stroke-width:1.5;paint-order:fill markers stroke"/><circle id="circle867" cx="4.5" cy="11.5" r="1.5" style="opacity:0;stroke-width:1.5;paint-order:fill markers stroke"/><circle id="circle869" r="1.5" style="opacity:0;stroke-width:1.5;paint-order:fill markers stroke" cx="10.5" cy="7.5"/><circle id="circle871" cx="10.5" cy="11.5" r="1.5" style="opacity:0;stroke-width:1.5;paint-order:fill markers stroke"/></svg>
