<?xml version="1.0" encoding="UTF-8" standalone="no"?>
<!--Part of Monotone: https://github.com/sixsixfive/Monotone, released under cc-by-sa_v4-->
<svg id="svg12" xmlns="http://www.w3.org/2000/svg" viewBox="0 0 16 16" version="1.1"><defs id="defs16"><linearGradient id="linearGradient932" y2="11.321" gradientUnits="userSpaceOnUse" y1="8.3869" x2="11.066" x1="12.984"><stop id="stop892" style="stop-color:#f1f2f2;stop-opacity:0" offset="0"/><stop id="stop894" style="stop-color:#f1f2f2" offset="1"/></linearGradient></defs><g id="g850" transform="rotate(108,8,8)"><g id="g849"><g id="g820"><path id="path877" style="color-rendering:auto;text-decoration-color:#000000;color:#000000;font-variant-numeric:normal;text-orientation:mixed;shape-rendering:auto;font-variant-ligatures:normal;text-decoration-line:none;fill:#f1f2f2;font-variant-position:normal;mix-blend-mode:normal;font-feature-settings:normal;shape-padding:0;font-variant-alternates:normal;text-indent:0;dominant-baseline:auto;font-variant-caps:normal;image-rendering:auto;white-space:normal;text-decoration-style:solid;solid-color:#000000;isolation:auto;paint-order:normal;text-transform:none" d="m8.1113 2.002c-3.1104-0.0578-5.778 2.316-6.082 5.4121-0.3037 3.0959 1.85 5.9439 4.9121 6.4919 2.0975 0.376 4.1696-0.408 5.5216-1.906h-3.463v-2.2656c-0.3932 0.2263-0.8635 0.3216-1.3535 0.2344-1.0448-0.1871-1.7404-1.1078-1.6367-2.1641 0.1037-1.0564 0.966-1.8244 2.0273-1.8047a2.0002 2.0002 0 1 0 0.0742 -3.998zm4.3517 9.998c0.144-0.159 0.278-0.329 0.404-0.504-0.126 0.175-0.26 0.345-0.404 0.504zm-0.516-5.002a2.0002 2.0002 0 0 0 -0.199 0.002h0.221a2.0002 2.0002 0 0 0 -0.022 -0.002zm-1.457 0.5528a2.0002 2.0002 0 0 0 -0.07 0.0742 2.0002 2.0002 0 0 1 0.072 -0.0742 2.0002 2.0002 0 0 0 -0.002 0zm2.867 0.1074a2.0002 2.0002 0 0 1 0.127 0.1543 2.0002 2.0002 0 0 0 -0.127 -0.1543zm0.127 0.1543a2.0002 2.0002 0 0 1 0.204 0.3437 2.0002 2.0002 0 0 0 -0.204 -0.3437zm0.204 0.3437a2.0002 2.0002 0 0 1 0.13 0.377 2.0002 2.0002 0 0 0 -0.13 -0.377zm0.167 0.5743a2.0002 2.0002 0 0 1 0.014 0.3984 2.0002 2.0002 0 0 0 -0.014 -0.3984zm-0.052 0.7929c-0.057 0.2148-0.127 0.4219-0.205 0.6246 0.078-0.2027 0.148-0.4099 0.205-0.6246zm-0.295 0.8356c-0.056 0.129-0.114 0.256-0.178 0.379 0.064-0.123 0.122-0.25 0.178-0.379zm-0.301 0.606c-0.073 0.126-0.149 0.249-0.23 0.369 0.081-0.12 0.158-0.243 0.23-0.369z"/><path id="rect926" style="paint-order:normal;fill:url(#linearGradient932)" d="m11.748 7a2.0002 2.0002 0 0 0 -1.8144 1.5078c-0.1431 0.5452-0.4884 0.9703-0.9336 1.2266v2.2656h3.463c0.621-0.689 1.091-1.529 1.34-2.4766a2.0002 2.0002 0 0 0 -1.834 -2.5234z"/></g><rect id="rect843" style="opacity:0;stroke-width:1.5" height="12" width="12" y="2" x="2"/></g><rect id="rect842" style="opacity:0;stroke-width:1.5" height="16" width="16" y="0" x="0"/></g></svg>
