<!--Part of Monotone: https://github.com/sixsixfive/Monotone, released under cc-by-sa_v4-->
<svg xmlns="http://www.w3.org/2000/svg" viewBox="0 0 16 16">
    <path d="M8.01 1c-3.866 0-7 3.15-7 7.031s3.134 7.031 7 7.031 7-3.15 7-7.03C15.01 4.15 11.876 1 8.01 1zM5.791 2.625c.75 0 1.344.593 1.344 1.344 0 .75-.593 1.375-1.344 1.375-.24 0-.46-.079-.656-.188a4.239 4.239 0 0 0-.531.657 4.009 4.009 0 0 0 1.218 5.53c1.442.92 3.237.778 4.532-.187l.593.781c-1.618 1.2-3.86 1.395-5.656.25A5.004 5.004 0 0 1 3.76 5.282c.212-.333.478-.61.75-.875a1.375 1.375 0 0 1-.094-.437c0-.75.625-1.344 1.375-1.344zm2.13 3.34c.383-.012.776.094 1.125.313a1.99 1.99 0 0 1 .625 2.75 1.99 1.99 0 0 1-2.75.624 1.99 1.99 0 0 1-.625-2.75c.37-.579.987-.917 1.625-.937z" fill="#f1f2f2"/>
</svg>
