<?xml version="1.0" encoding="UTF-8"?>
<svg version="1.1" viewBox="0 0 16 16" xmlns="http://www.w3.org/2000/svg">
<path d="m6 1c-0.61043 0-1.2949 1.2949-1.2949 1.2949-0.39558-0.22602-1.0934-0.44311-1.377-0.15234l-0.98828 1.0156c-0.44434 0.45568-0.25457 1.0654-0.00781 1.5098 0 0-0.3122 0.17677-0.33203 0.33203-0.18019 1.4105 1 5 1 5 1 3 5 3 5 5v-3c-0.33434 0-1.4438-0.52302-2-1 0-1 1-0.61962 2-2v-1c-0.72009 0-1 0-1.0166-1-0.011078-0.66657 0.49016-2 0.016619-2h-2c-0.38512 0 0.99998 0.62336 1.0273 1 0 0-0.0996 0.67446-0.027344 1 0.11911 0.53664 0.73828 1.4746 0.73828 1.4746 0.26239 0.52478 0.26172 0.52539-0.32422 0.81836-0.57769 0.24283-1.4141 0.24854-1.4141-0.29297 0-0.28472 0.28523-0.73378 0-1l-1.2305-1.3105c-1.322-1.163-0.76747-1.4276 0.91992-3.334 0.18891-0.15287 0.30992-0.35628 0.53516-0.09375 0.49485 0.44927 1.3853 0.58856 2.7754-0.26172v-2z" style="fill:#f1f2f2"/>
<path d="m10 1 1.2949 1.2949c0.39558-0.22602 1.0934-0.44311 1.377-0.15234l0.98828 1.0156c0.44434 0.45568 0.25457 1.0654 0.0078 1.5098l0.33204 0.33203-1 5c0 4-3 5-5 5v-3c0.33434 0 1.4438-0.52302 2-1 0-1-1-0.61962-2-2v-1c0.72009 0 1 0 1.0166-1 0.011078-0.66657-0.49016-2-0.016619-2h2c0.38512 0-0.99998 0.62336-1.0273 1 0 0 0.0996 0.67446 0.027344 1-0.11911 0.53664-0.73828 1.4746-0.73828 1.4746-0.26239 0.52478-0.26172 0.52539 0.32422 0.81836 0.57769 0.24283 1.4141 0.24854 1.4141-0.29297 0-0.28472-0.28523-0.73378 0-1l1.2305-1.3105c1.322-1.163 0.76747-1.4276-0.91992-3.334-0.18891-0.15287-0.30992-0.35628-0.53516-0.09375-0.49485 0.44927-1.3853 0.58856-2.7754-0.26172v-2z" style="fill:#f1f2f2"/>
</svg>
