<?xml version="1.0" encoding="UTF-8"?>
<svg version="1.1" viewBox="0 0 16 16" xmlns="http://www.w3.org/2000/svg">
<path d="m8 3c-1.6569 0-3 1.3431-3 3s1.3431 3 3 3c0.48333 0 1 0.40748 1 1 0 1.6569 1.3431 3 3 3s3-1.3431 3-3c0-1.6569-1.3431-3-3-3-0.5254 0-1-0.45765-1-1 0-1.6569-1.3431-3-3-3zm0 1a2 2 0 0 1 2 2 2 2 0 0 1-2 2 2 2 0 0 1-2-2 2 2 0 0 1 2-2zm4 4a2 2 0 0 1 2 2 2 2 0 0 1-2 2 2 2 0 0 1-2-2 2 2 0 0 1 2-2z" style="fill:#f1f2f2;paint-order:markers fill stroke"/>
<path d="m4.1348 6.9707c-0.04589 0.0070595-0.087759 0.029297-0.13477 0.029297-1.6569 0-3 1.3431-3 3 0 1.6569 1.3431 3 3 3s3-1.3431 3-3c0-0.04915 0.0225-0.088289 0.029297-0.13477-0.51308-0.13023-0.98395-0.36127-1.3965-0.66797 0.08766 0.065272 0.17449 0.1313 0.26758 0.18945a2 2 0 0 1 0.099609 0.61328 2 2 0 0 1-2 2 2 2 0 0 1-2-2 2 2 0 0 1 2-2 2 2 0 0 1 0.61328 0.097656c0.05139 0.082342 0.11105 0.15815 0.16797 0.23633-0.29494-0.40499-0.5196-0.86337-0.64648-1.3633z" style="fill:#f1f2f2;opacity:.5;paint-order:markers fill stroke"/>
<path d="m4.8516 8.4336c0.20959 0.27041 0.45194 0.5135 0.72266 0.72266-0.27017-0.20843-0.5135-0.45307-0.72266-0.72266z" style="fill:#f1f2f2;opacity:.5;paint-order:markers fill stroke"/>
</svg>
