<?xml version="1.0" encoding="UTF-8"?>
<svg version="1.1" viewBox="0 0 16 16" xmlns="http://www.w3.org/2000/svg">
<path d="m1 1v1h1v-1h-1zm2 0v1h1v-1h-1zm2 0v1h1v-1h-1zm2 0v1h1v-1h-1zm2 0v1h1v-1h-1zm2 0v1h1v-1h-1zm2 0v1h1v-1h-1zm-12 2v1h1v-1h-1zm12 0v1h1v-1h-1zm-12 2v1h1v-1h-1zm12 0v1h1v-1h-1zm-12 2v1h1v-1h-1zm12 0v1h1v-1h-1zm-12 2v1h1v-1h-1zm0 2v1h1v-1h-1zm0 2v1h1v-1h-1zm2 0v1h1v-1h-1zm2 0v1h1v-1h-1zm2 0v1h1v-1h-1z" style="color:#000000;fill:#f1f2f2;isolation:auto;mix-blend-mode:normal;opacity:.5"/>
<circle cx="12.5" cy="12.5" r="3.5" style="color-rendering:auto;color:#000000;enable-background:new;fill-opacity:.98636;fill:#f1f2f2;image-rendering:auto;isolation:auto;mix-blend-mode:normal;paint-order:normal;shape-rendering:auto;solid-color:#000000"/>
</svg>
