<?xml version="1.0" encoding="UTF-8" standalone="no"?>
<!--Part of Monotone: https://github.com/sixsixfive/Monotone, released under cc-by-sa_v4-->
<svg id="svg4" xmlns="http://www.w3.org/2000/svg" viewBox="0 0 16 16" version="1.1"><path id="path4502" style="fill:#f1f2f2" d="m10.5 5a4.5 4.5 0 0 0 -4.5 4.5 4.5 4.5 0 0 0 4.5 4.5 4.5 4.5 0 0 0 4.5 -4.5 4.5 4.5 0 0 0 -4.5 -4.5zm-1 1a1.5 1.5 0 0 1 1.5 1.5 1.5 1.5 0 0 1 -1.5 1.5 1.5 1.5 0 0 1 -1.5 -1.5 1.5 1.5 0 0 1 1.5 -1.5zm0 1a0.5 0.5 0 0 0 -0.5 0.5 0.5 0.5 0 0 0 0.5 0.5 0.5 0.5 0 0 0 0.5 -0.5 0.5 0.5 0 0 0 -0.5 -0.5z"/><path id="circle4504" style="fill:#f1f2f2" d="m5 3a4 4 0 0 0 -4 4 4 4 0 0 0 4 4 4 4 0 0 0 0.1895 -0.006c-0.1384-0.486-0.2149-0.989-0.2149-1.494 0-1.4464 0.5964-2.8835 1.6192-3.9062 0.4456-0.4457 0.9734-0.8046 1.5429-1.0743a4 4 0 0 0 -3.1367 -1.5195zm-0.5 1a1.5 1.5 0 0 1 1.5 1.5 1.5 1.5 0 0 1 -1.5 1.5 1.5 1.5 0 0 1 -1.5 -1.5 1.5 1.5 0 0 1 1.5 -1.5zm0 1a0.5 0.5 0 0 0 -0.5 0.5 0.5 0.5 0 0 0 0.5 0.5 0.5 0.5 0 0 0 0.5 -0.5 0.5 0.5 0 0 0 -0.5 -0.5z"/></svg>
