<?xml version="1.0" encoding="UTF-8"?>
<svg version="1.1" viewBox="0 0 16 16" xmlns="http://www.w3.org/2000/svg">
<path d="m8.3047 0.97656c-0.22511-0.005288-0.42648 0.03671-0.55078 0.080078-0.80918 0.28232-1.7402 1.2318-1.7402 2.1641 0 0.70678 0.47952 1.0037 1.3457 1.7305 0.56665 0.42444 0.83275 0.81126 0.33594 2.0098-3.0315 0-2.7834-0.015322-3.0293-0.011719 0.0021271-0.0045277 0.00172-0.0052042 0.0039063-0.0097657 0.10576-0.22077 0.2692-0.73961 0.19336-0.93555-0.03753-0.096964-0.3829-0.36945-0.5957-0.60742-0.26292-0.29595-0.56924-0.79771-0.1543-1.2852-0.10287-0.073478-0.2192-0.10085-0.32422-0.10352-0.10501-0.0026618-0.19787 0.019195-0.25586 0.041016-0.37749 0.14205-0.51172 0.61884-0.51172 1.0879 0 0.35562 0.22288 0.50541 0.62695 0.87109 0.239 0.19308 0.34882 0.4657 0.19922 0.95898-0.3121 0.0069126 0.0082796-0.0019468-0.6543 0.011719-2.2581 0.032015-2.1914 0.0090503-2.1934 0.72266-0.0049159 1.4203 0.96918 4.1532 1.9004 5.5195 0.38146 0.5597 1.1646 1.3899 1.5137 1.6055 0.2516 0.1554 0.49998 0.17355 2.4121 0.17383 1.6436 2.7e-4 1.9792 0.10078 2.1738 0 0.13894-0.071932 0.7119-0.52122 1.0137-0.83789l0.54883-0.57422 0.49414 0.10938c0.71497 0.16014 1.8715 0.070531 2.3652-0.18359 0.53939-0.27765 1.0541-0.80912 1.3301-1.373 0.34171-0.69832 0.32945-1.7669-0.029297-2.498-0.31621-0.64447-0.95431-1.2321-1.5762-1.4531l-0.45312-0.16211-0.001953-0.26953c-0.002318-0.75993 0.028955-0.74559-1.7246-0.78125-0.85094-0.017305-1.5488-0.052297-1.5488-0.076172 0-0.023875 0.060573-0.15714 0.13281-0.29688 0.22671-0.43878 0.57467-1.2688 0.41211-1.6582-0.080453-0.19271-0.81922-0.73798-1.2754-1.2109-0.5636-0.5882-0.57698-1.5859 0.3125-2.5547-0.22052-0.14603-0.4702-0.19784-0.69531-0.20312zm4.2422 8.2363c0.058593-0.080003 0.72923 0.27439 0.96484 0.50977 0.51651 0.51601 0.63957 1.3461 0.29297 1.9805-0.23444 0.42909-0.46328 0.62666-0.93945 0.8125-0.35144 0.13716-1.0141 0.174-1.4121 0.078125-0.21435-0.051631-0.21743-0.035572 0.31055-1.2441 0.21373-0.48922 0.47318-1.1633 0.57617-1.498 0.10304-0.33473 0.19536-0.62278 0.20703-0.63867z" style="fill:#f1f2f2;stroke-width:.093592"/>
</svg>
