<?xml version="1.0" encoding="UTF-8" standalone="no"?>
<svg
   xmlns:dc="http://purl.org/dc/elements/1.1/"
   xmlns:cc="http://creativecommons.org/ns#"
   xmlns:rdf="http://www.w3.org/1999/02/22-rdf-syntax-ns#"
   xmlns:svg="http://www.w3.org/2000/svg"
   xmlns="http://www.w3.org/2000/svg"
   id="svg6"
   viewBox="0 0 16 16"
   version="1.1">
  <metadata
     id="metadata12">
    <rdf:RDF>
      <cc:Work
         rdf:about="">
        <dc:format>image/svg+xml</dc:format>
        <dc:type
           rdf:resource="http://purl.org/dc/dcmitype/StillImage" />
        <dc:title></dc:title>
      </cc:Work>
    </rdf:RDF>
  </metadata>
  <defs
     id="defs10" />
  <g
     style="fill:#f1f2f2"
     transform="translate(-0.9998,-5e-4)"
     id="g4">
    <path
       id="path2"
       transform="translate(0.9998,5e-4)"
       d="M 1.96875 1 C 0.88015 0.9972251 -0.0027 1.8801 0 2.96875 L 0 14.029297 C 0 15.121297 0.8777 16 1.96875 16 L 12 16 C 12.554 16 13 15.554 13 15 L 13 8.1835938 L 7.3085938 13.876953 A 1.0399665 1.0399665 0 0 1 6.9003906 14.128906 L 4.328125 14.986328 A 1.0399665 1.0399665 0 0 1 3 14.279297 L 3 15 L 2 15 C 1.446 15 1 14.539077 1 13.966797 L 1 6.0332031 C 1 6.0227741 1.0055694 6.0142592 1.0058594 6.0039062 L 1.0058594 4.0332031 C 1.0058594 4.0214351 1.0113488 4.0116701 1.0117188 4 C 1.0294728 4.55368 1.46039 4.9945569 2 4.9980469 L 2 5 L 3 5 L 3 6.0332031 L 3 7 C 3.00196 7 3.0038994 7.0000186 3.0058594 7 L 3.0058594 11.966797 C 3.0058594 11.977227 3.00029 11.985734 3 11.996094 L 3 13.722656 A 1.0399665 1.0399665 0 0 1 3.0136719 13.671875 L 3.8710938 11.099609 A 1.0399665 1.0399665 0 0 1 4.1230469 10.691406 L 10.816406 4 L 2 4 C 1.446 4 1 3.554 1 3 C 1 2.446 1.446 2 2 2 L 12 2 C 12 1.441 11.558966 1.0061893 11 1 L 1.96875 1 z "
       style="color:#000000;fill:#f1f2f2;fill-opacity:0.74509805" />
  </g>
  <g
     transform="matrix(0.85714286,0,0,0.85714286,3.1428571,1.1428571)"
     id="g918">
    <path
       id="path3049"
       style="fill:#f1f2f2"
       d="M 1,15 4,14 13,5 C 12.728,3.8509 12.022,3.2329 11,3 l -9,9 z" />
    <path
       id="path3819"
       style="fill:#f1f2f2"
       d="m 12,2 1,-1 c 1.0481,0.23076 1.7759,0.82752 2,2 L 14,4 C 13.746,2.9503 13.079,2.2837 12,2 Z" />
  </g>
</svg>
