<?xml version="1.0" encoding="UTF-8"?>
<svg version="1.1" viewBox="0 0 16 16" xmlns="http://www.w3.org/2000/svg">
<title>Gnome Symbolic Icon Theme</title>
<g transform="translate(-141 -867)">
<path transform="translate(141 867)" d="m12 9v1c-4e-5 0.26531 0.09314 0.53057 0.28125 0.71875l0.31445 0.31445h-3.3711c-0.97753 0.80583-2.0746 1.4714-3.2598 1.9668h6.5977l-0.28125 0.28125c-0.18815 0.18817-0.28125 0.45345-0.28125 0.71875v1h1c0.26531-3e-5 0.53058-0.09311 0.71875-0.28125l2-2 0.28125-0.28125v-0.875l-0.28125-0.28125-2-2c-0.18818-0.18821-0.45346-0.28125-0.71875-0.28125h-1z" style="color:#000000;fill:#f1f2f2;text-decoration-line:none;text-indent:0;text-transform:none"/>
<path d="m153 867c0.534 0 0.97 0.427 0.97 0.97v0.062c-0.018 6.612-5.384 11.968-12 11.968h-0.032c-0.545 0-0.969-0.446-0.969-1v-3c0-0.554 0.446-1 1-1h2c0.554 0 1 0.446 1 1v0.47a8.967 8.967 0 0 0 5.469-5.47h-0.469c-0.554 0-1-0.446-1-1v-2c0-0.554 0.446-1 1-1z" style="fill:#f1f2f2;opacity:.6"/>
</g>
</svg>
