<!--Part of Monotone: https://github.com/sixsixfive/Monotone, released under cc-by-sa_v4-->
<svg xmlns="http://www.w3.org/2000/svg" viewBox="0 0 16 16">
    <path fill="#f1f2f2" d="M10.576-.033c-.166.012-.319.037-.457.054-.013.001-.03-.002-.043 0a.347.347 0 0 0-.304.284l-.348 1.894a5.96 5.96 0 0 0-1.36.557L6.512 1.645a.347.347 0 0 0-.424.01A8.052 8.052 0 0 0 4.793 2.93a.347.347 0 0 0-.01.414L5.838 4.9a6.03 6.03 0 0 0-.643 1.514l-1.847.293a.347.347 0 0 0-.293.295A8.18 8.18 0 0 0 3 7.994c0 .266.006.536.033.807a.347.347 0 0 0 .281.304l1.86.336c.145.581.365 1.135.664 1.635L4.75 12.59a.347.347 0 0 0 .01.426A8.03 8.03 0 0 0 6 14.246a.347.347 0 0 0 .412.012l1.566-1.069a5.87 5.87 0 0 0 1.684.664l.295 1.83a.347.347 0 0 0 .305.295c.252.023.5.021.738.021.343 0 .68-.01 1.021-.054a.347.347 0 0 0 .293-.284l.36-1.894a5.941 5.941 0 0 0 .326-.118v-1.074l-2.197-2.514a2.09 2.09 0 0 1-1.891-2.078 2.09 2.09 0 0 1 1.924-2.086L13 3.423V2.345a5.841 5.841 0 0 0-.467-.157L12.238.315a.347.347 0 0 0-.293-.295A8.103 8.103 0 0 0 11-.034c-.075 0-.164-.003-.26 0-.013 0-.057-.004-.13 0 .031-.002.022-.004-.034 0z"/>
</svg>
