<!--Part of Monotone: https://github.com/sixsixfive/Monotone, released under cc-by-sa_v4-->
<svg xmlns="http://www.w3.org/2000/svg" viewBox="0 0 16 16">
    <g color="#000" font-weight="400" font-family="Sans" fill="#f1f2f2">
        <path style="line-height:normal;-inkscape-font-specification:Sans;text-indent:0;text-align:start;text-decoration-line:none;text-transform:none;marker:none" d="M3.469 1a2.468 2.468 0 0 0-2.47 2.469v9.062A2.468 2.468 0 0 0 3.47 15h9.062A2.468 2.468 0 0 0 15 12.531V3.47A2.468 2.468 0 0 0 12.53 1zm0 1h9.062C13.363 2 14 2.637 14 3.469v9.062c0 .832-.637 1.469-1.47 1.469H3.47A1.443 1.443 0 0 1 2 12.531V3.47C2 2.637 2.637 2 3.47 2z" overflow="visible"/>
        <path style="line-height:normal;-inkscape-font-specification:Sans;text-indent:0;text-align:start;text-decoration-line:none;text-transform:none;marker:none" d="M4.687 6.063a2.003 2.003 0 1 0 .22 4h6.124a2 2 0 1 0 0-4H4.906a2 2 0 0 0-.219 0z" overflow="visible"/>
    </g>
</svg>
