<!--Part of Monotone: https://github.com/sixsixfive/Monotone, released under cc-by-sa_v4-->
<svg xmlns="http://www.w3.org/2000/svg" viewBox="0 0 16 16">
    <path fill="#f1f2f2" d="M7.506 0c-.01.023-.034.015-.05.016a7.4 7.4 0 0 0-.71.091c-1.72.32-3.132 1.148-4.224 2.485A6.613 6.613 0 0 0 1.02 6.357c-.052.682-.002 1.658.15 2.325.114.495.283.973.51 1.431l.06.116a6.896 6.896 0 0 0 2.477 2.703A7.012 7.012 0 0 0 7.9 14.014c.081 0 .104.019.104.101-.004.7-.002 1.098-.002 1.797 0 .027.002.054.004.088l.05-.02c1.34-.617 2.569-1.097 3.665-2.074.218-.195.428-.397.629-.609.086-.09.168-.184.255-.274.133-.14.249-.296.374-.443.145-.169.275-.348.404-.529.283-.4.537-.819.75-1.26.108-.223.21-.448.301-.678l.009-.013c.247-.63.406-1.283.491-1.952.029-.233.046-.767.058-1.001a6.384 6.384 0 0 0-.099-1.502 6.754 6.754 0 0 0-1.774-3.467A7.018 7.018 0 0 0 8.822.043C8.692.028 8.561.03 8.432 0h-.926zM8 4c1.105 0 2 .839 2 1.875a1.831 1.831 0 0 1-.73 1.447L10 10H6l.73-2.678A1.831 1.831 0 0 1 6 5.875C6 4.84 6.895 4 8 4z"/>
</svg>
