<?xml version="1.0" encoding="UTF-8" standalone="no"?>
<!--Part of Monotone: https://github.com/sixsixfive/Monotone, released under cc-by-sa_v4-->
<svg id="svg4" xmlns="http://www.w3.org/2000/svg" version="1.1" viewBox="0 0 16 16"><path id="path4493" style="fill:#f1f2f2" d="m2.334 1c-0.739 0-1.334 0.595-1.334 1.334v11.332c0 0.739 0.595 1.334 1.334 1.334h11.332c0.739 0 1.334-0.595 1.334-1.334v-11.332c0-0.739-0.595-1.334-1.334-1.334h-11.332zm5.666 1a6 6 0 0 1 6 6 6 6 0 0 1 -6 6 6 6 0 0 1 -6 -6 6 6 0 0 1 6 -6z"/><path id="path2" style="fill:#f1f2f2" d="m7 6-3 2 3 2v-1h2v1l3-2-3-2v1h-2z"/></svg>
