<!--Part of Monotone: https://github.com/sixsixfive/Monotone, released under cc-by-sa_v4-->
<svg xmlns="http://www.w3.org/2000/svg" viewBox="0 0 16 16">
    <g fill="#f1f2f2" transform="translate(0 -.017) scale(.03125)">
        <path d="M256 32.559A224 224 0 0 0 86.19 110.62l77.62 119.56a96 96 0 0 1 92.187-69.625 96 96 0 0 1 11.812.812c1.36-.374 2.704-.812 4.188-.812h186.12a224 224 0 0 0-202.12-128zM66.06 138.369a224 224 0 0 0-34.062 118.19 224 224 0 0 0 179.87 219.62l66.937-126.5a96 96 0 0 1-22.812 2.875 96 96 0 0 1-70.625-31.062l-.313.187-1.5-2.312a96 96 0 0 1-14.562-22.375zm261.31 54.187a96 96 0 0 1 24.625 64 96 96 0 0 1-6.938 35.562l.376.188-2.563 4.812a96 96 0 0 1-4.437 8.375l-92.375 174.56a224 224 0 0 0 9.937.5 224 224 0 0 0 224-224 224 224 0 0 0-9.562-64z"/>
        <ellipse rx="64" ry="64" cy="256.56" cx="256"/>
    </g>
</svg>
