<?xml version="1.0" encoding="UTF-8" standalone="no"?>
<!--Part of Monotone: https://github.com/sixsixfive/Monotone, released under cc-by-sa_v4-->
<svg id="svg4" xmlns="http://www.w3.org/2000/svg" fill-rule="evenodd" stroke-linejoin="round" version="1.1" clip-rule="evenodd" stroke-miterlimit="1.414" viewBox="0 0 16 16"><path id="path2" style="fill-rule:nonzero;stroke-width:.85746;fill:#f1f2f2" d="m2.2715 2c-0.5253 0-1.001 0.3149-1.1875 0.7852-0.0552 0.1394-0.084 0.2866-0.084 0.4336v4.0547l0.048828 0.80664c0.20311 1.8341 1.194 3.435 2.7305 4.5527 0.026265 0.02015 0.055968 0.04122 0.083984 0.06055l0.017578 0.01172c0.82296 0.57695 1.7437 0.967 2.7383 1.1602 0.4587 0.088 0.9268 0.135 1.3925 0.135 0.43074 0 0.86357-0.03769 1.2891-0.11328 0.050779-0.0168 0.10264-0.02677 0.1543-0.03516 0.01401 0 0.02808-0.0072 0.042969-0.01562 0.95254-0.20155 1.8377-0.58049 2.6309-1.1348l0.01758-0.01563 0.07813-0.05859c1.5321-1.1169 2.5223-2.7214 2.7324-4.5605l0.043-0.8067v-4.0469c0-0.1403-0.018-0.28-0.07-0.416l0.01172 0.00586c-0.176-0.4804-0.658-0.8028-1.192-0.8028zm9.7187 2.9866c0.91171-0.021515 1.3741 1.0886 0.7168 1.7207l-4 3.9997c-0.39053 0.39037-1.0235 0.39037-1.4141 0l-4-4c-0.643-0.6256-0.2001-1.7162 0.6973-1.7164 0.27 0 0.5286 0.1092 0.7168 0.3027l3.293 3.293 3.293-3.293c0.18287-0.19019 0.43349-0.3004 0.69726-0.30664z"/></svg>
