<?xml version="1.0" encoding="UTF-8" standalone="no"?>
<!--Part of Monotone: https://github.com/sixsixfive/Monotone, released under cc-by-sa_v4-->
<svg id="svg4512" xmlns="http://www.w3.org/2000/svg" viewBox="0 0 16 16" version="1.1"><g id="layer1" transform="matrix(3.7784 0 0 3.7795 -.010091 -1106.5)"><path id="path4256" style="stroke-width:.01383;fill:#f1f2f2" d="m1.4477 296.19c-0.24979-0.0653-0.38895-0.27317-0.38939-0.58157-0.0001434-0.0986 0.00663-0.14584 0.030188-0.20925 0.057636-0.15545 0.21022-0.27273 0.411-0.31589 0.099909-0.0215 0.13069-0.0445 0.13069-0.0979 0-0.0167 0.011896-0.0666 0.026424-0.11086 0.066021-0.20087 0.18827-0.36833 0.31889-0.43683 0.13671-0.0716 0.20573-0.0879 0.3711-0.087 0.23487 0.001 0.35204 0.0546 0.51592 0.23481l0.090134 0.0991 0.080744-0.0293c0.39079-0.14156 0.78038 0.0994 0.81178 0.50215l0.00858 0.11017 0.076961 0.0289c0.21978 0.0825 0.32308 0.25551 0.30435 0.50995-0.012247 0.16638-0.086566 0.29923-0.2043 0.36518l-0.055354 0.031-1.2301 0.002c-0.94525 0.002-1.2457-0.002-1.2977-0.0152z"/><path id="path5067" style="stroke-width:.063947;fill:#f1f2f2" transform="matrix(.26458 0 0 .26458 0 292.77)" d="m8.3301 3c-1.0336 0.0038-1.5483 0.2651-2.2696 1.1406l-0.3964 0.4824-0.3555-0.1425c-2.2955-1.3228-4.1291 0.4653-3.5723 2.4394l-0.039 0.5352-0.3379 0.1406c-0.96717 0.40093-1.4223 1.2404-1.3398 2.4766 0.053896 0.80833 0.38226 1.455 0.90039 1.7754l0.24211 0.15 2.2129 0.002c-0.2425-0.416-0.3741-0.945-0.375-1.574-0.0006-0.4266 0.0267-0.6296 0.123-0.9032 0.2357-0.6706 0.8606-1.177 1.6817-1.3632 0.4086-0.093 0.5332-0.1916 0.5332-0.4219 0-0.072189 0.049961-0.28754 0.10938-0.47852 0.27-0.8665 0.7685-1.5893 1.3027-1.8848 0.5591-0.3092 0.8413-0.3789 1.5176-0.375 0.9604 0.0038 1.695-0.2052 2.3654 0.5723l0.367 0.4277c0.51-0.0427 1.191 0.2125 0.928-0.8281-0.738-1.4262-2.3734-2.0658-3.5979-2.1719z"/></g></svg>
