<?xml version="1.0" encoding="UTF-8" standalone="no"?>
<!--Part of Monotone: https://github.com/sixsixfive/Monotone, released under cc-by-sa_v4-->
<svg id="svg2" xmlns="http://www.w3.org/2000/svg" viewBox="0 0 16 16" version="1.1"><path id="path1549" style="color:#f1f2f2;text-indent:0;text-decoration-line:none;text-transform:none;fill:#f1f2f2" d="m1 1v1a1 1 0 0 0 1 1h1.6875a5.966 5.966 0 0 0 -2.6875 5.2812 5.636 5.636 0 0 0 0.0625 0.5626 6.03 6.03 0 0 0 2.3437 3.9682c1.6578 1.244 3.7644 1.488 5.5938 0.844v-2.189c-1.3436 0.781-3.074 0.721-4.4062-0.278-1.777-1.3345-2.1133-3.8182-0.7813-5.5952 0.323-0.4301 0.7325-0.7703 1.1875-1.0313v1.4375a1 1 0 0 0 1 1h1v-6h-6zm8 2.002v1a1.024 1.024 0 0 0 0.4062 0.8125c0.1491 0.1117 0.2718 0.2422 0.4004 0.3691 0.2094-0.1131 0.4434-0.1836 0.6934-0.1836 0.814 0 1.5 0.6861 1.5 1.5v-0.1191l0.873 0.4355c-0.283-1.4005-1.054-2.7081-2.279-3.6269-0.17-0.123-0.383-0.1895-0.594-0.1875h-1z"/><g id="layer1" transform="translate(-27.007 -219.36)"><path id="rect1562" style="paint-order:fill markers stroke;fill:#f1f2f2" d="m10.5 6c-0.277 0-0.5 0.223-0.5 0.5v8c0 0.277 0.223 0.5 0.5 0.5s0.5-0.223 0.5-0.5v-2.5l4-2v-1l-4-2v-0.5c0-0.277-0.223-0.5-0.5-0.5z" transform="translate(27.007 219.36)"/></g></svg>
