<!--Part of Monotone: https://github.com/sixsixfive/Monotone, released under cc-by-sa_v4-->
<svg xmlns="http://www.w3.org/2000/svg" viewBox="0 0 16 16">
    <g color="#000" fill="#f1f2f2">
        <path style="line-height:normal;-inkscape-font-specification:Sans;text-indent:0;text-align:start;text-decoration-line:none;text-transform:none;marker:none" d="M8 1.007A3.996 3.996 0 0 0 4.007 5 3.996 3.996 0 0 0 8 8.993 3.996 3.996 0 0 0 11.993 5 3.996 3.996 0 0 0 8 1.007zM8 2.06A2.937 2.937 0 0 1 10.94 5 2.937 2.937 0 0 1 8 7.94 2.937 2.937 0 0 1 5.06 5 2.937 2.937 0 0 1 8 2.06z" font-weight="400" font-family="Sans" overflow="visible"/>
        <path style="line-height:normal;-inkscape-font-specification:Sans;text-indent:0;text-align:start;text-decoration-line:none;text-transform:none;marker:none" d="M4 8.007A3.996 3.996 0 0 0 .007 12 3.996 3.996 0 0 0 4 15.993 3.996 3.996 0 0 0 7.993 12 3.996 3.996 0 0 0 4 8.007zM4 9.06A2.937 2.937 0 0 1 6.94 12 2.937 2.937 0 0 1 4 14.94 2.937 2.937 0 0 1 1.06 12 2.937 2.937 0 0 1 4 9.06z" font-weight="400" font-family="Sans" overflow="visible"/>
        <path d="M15.998 12A4 4 0 0 1 12 16a4 4 0 0 1-4-4 4 4 0 0 1 4-4 4 4 0 0 1 3.998 4z" style="marker:none" overflow="visible"/>
        <path d="M7.467 12A3.467 3.467 0 0 1 4 15.467 3.467 3.467 0 0 1 .534 12 3.467 3.467 0 0 1 4 8.533 3.467 3.467 0 0 1 7.467 12z" style="marker:none" overflow="visible" fill-opacity=".364"/>
    </g>
</svg>
