<?xml version="1.0" encoding="UTF-8" standalone="no"?>
<!--Part of Monotone: https://github.com/sixsixfive/Monotone, released under cc-by-sa_v4-->
<svg id="svg2" xmlns="http://www.w3.org/2000/svg" viewBox="0 0 16 16" version="1.1"><path id="path819" style="paint-order:fill markers stroke;fill:#f1f2f2" d="m6.3242 0.65039-1.875 0.69922 0.94922 2.5391c-0.7126 0.5201-1.3055 1.2459-1.7246 2.1113h-1.6738v1h1.291c-0.191 0.642-0.2894 1.3183-0.291 2h-2v1h2.0703c0.07815 0.52729 0.21478 1.0397 0.40625 1.5234l5.6699-5.6695c-0.0938-0.0937-0.1465-0.2209-0.1465-0.3535 0-0.2761 0.2239-0.5 0.5-0.5 0.1326 0.00002 0.25976 0.052712 0.35352 0.14648l1.0313-1.0312c-0.074-0.0644-0.149-0.1262-0.225-0.1856l0.955-2.5586-1.8748-0.69922-0.9043 2.4199c-0.276-0.0587-0.5556-0.0894-0.8359-0.0918-0.2572 0.003-0.5138 0.0297-0.7676 0.0801zm8.6758 1.3496-3.168 3.168-7.832 7.832-1 1-1 1h2l1.1133-1.113c0.843 0.72 1.8516 1.109 2.8867 1.113 1.4207-0.0021 2.7736-0.72929 3.7207-2h2.279v-1h-1.6738c0.29678-0.61869 0.49917-1.296 0.59766-2h2.076v-1h-2c-0.002-0.6817-0.1-1.358-0.291-2h1.291v-1h-1l2-2zm-8.5 3c0.2761 0 0.5 0.2239 0.5 0.5s-0.2239 0.5-0.5 0.5-0.5-0.2239-0.5-0.5 0.2239-0.5 0.5-0.5z"/></svg>
