<!--Part of Monotone: https://github.com/sixsixfive/Monotone, released under cc-by-sa_v4-->
<svg xmlns="http://www.w3.org/2000/svg" viewBox="0 0 16 16">
    <g color="#000" fill="#f1f2f2">
        <path style="marker:none" d="M4 14.427a1.573 1.573 0 0 1-3.145 0c0-.868 1.795-3.347 1.795-3.347S4 13.56 4 14.427z" clip-rule="evenodd" overflow="visible"/>
        <path style="marker:none" d="M10 2L4 8l-1 2.442.492.558L6 10l6-6zm0 1l1 1-4 4H5z" overflow="visible"/>
        <path d="M14 2.75a2.75 2.75 0 0 1-2.75 2.75A2.75 2.75 0 0 1 8.5 2.75 2.75 2.75 0 0 1 11.25 0 2.75 2.75 0 0 1 14 2.75z" style="marker:none" overflow="visible"/>
        <path style="line-height:normal;-inkscape-font-specification:Sans;text-indent:0;text-align:start;text-decoration-line:none;text-transform:none;marker:none" d="M6.594 2l.687.719 4 4 .719.687 1.125-1.125-.406-1-4-4-1.156-.25z" font-weight="400" font-family="Sans" overflow="visible"/>
    </g>
</svg>
