<!--Part of Monotone: https://github.com/sixsixfive/Monotone, released under cc-by-sa_v4-->
<svg xmlns="http://www.w3.org/2000/svg" viewBox="0 0 16 16">
    <g color="#000" fill="#f1f2f2">
        <path style="line-height:normal;-inkscape-font-specification:Sans;text-indent:0;text-align:start;text-decoration-line:none;text-transform:none;marker:none" d="M7.063.01c-.455.049-.884.22-1.25.5C5.324.88 5 1.463 5 2.196v5.312s.236.507.5.507.5-.507.5-.507V2.197c0-.45.172-.704.438-.907.265-.202.663-.3 1.062-.28.399.018.784.153 1.063.405.278.253.468.585.468 1.125 0 2.166 1.464 3.51 3 3.47.857-.023 1.688-.478 2.25-1.313l-.562-1c-.376.915-1.068 1.295-1.719 1.312-.96.025-1.969-.73-1.969-2.469 0-.792-.337-1.443-.812-1.875C8.743.235 8.138.038 7.53.01c-.151-.007-.317-.016-.468 0zm6.937 2v.124l.781 1.375c.012-.04.021-.083.031-.125zm0 .343c-.006.106-.02.214-.031.312l.719 1.22c.023-.063.041-.123.062-.188zm-.063.5c-.013.09-.044.166-.062.25l.656 1.125c.03-.061.067-.124.094-.188zm-.093.437c-.024.09-.066.17-.094.25l.594 1.032c.04-.065.088-.119.125-.188z" font-weight="400" font-family="Sans" overflow="visible"/>
        <path d="M2.727 6.01h5.546c.403 0 .727.323.727.726v6.546a.725.725 0 0 1-.727.727H2.727A.725.725 0 0 1 2 13.282V6.736c0-.403.324-.727.727-.727z" style="marker:none" overflow="visible"/>
    </g>
</svg>
