<?xml version="1.0" encoding="UTF-8" standalone="no"?>
<!--Part of Monotone: https://github.com/sixsixfive/Monotone, released under cc-by-sa_v4-->
<svg xmlns="http://www.w3.org/2000/svg" version="1.1" viewBox="0 0 16 16">
 <g fill="#f1f2f2">
  <path d="m4 14.427a1.573 1.573 0 0 1 -3.145 0c0-0.868 1.795-3.347 1.795-3.347s1.35 2.48 1.35 3.347z" clip-rule="evenodd" overflow="visible"/>
  <path overflow="visible" d="m10 2l-6 6-1 2.442 0.492 0.558 2.508-1 6-6zm0 1l1 1-4 4h-2z"/>
  <path overflow="visible" d="m14 2.75a2.75 2.75 0 0 1 -2.75 2.75 2.75 2.75 0 0 1 -2.75 -2.75 2.75 2.75 0 0 1 2.75 -2.75 2.75 2.75 0 0 1 2.75 2.75z"/>
  <path style="text-decoration-line:none;text-transform:none;text-indent:0" font-family="Sans" d="m6.594 2l0.687 0.719 4 4 0.719 0.687 1.125-1.125-0.406-1-4-4-1.156-0.25z" overflow="visible" font-weight="400"/>
 </g>
 <rect opacity=".5" ry="1" height="5" width="5" y="10" x="10" fill="#f1f2f2"/>
</svg>
