<?xml version="1.0" encoding="UTF-8" standalone="no"?>
<!--Part of Monotone: https://github.com/sixsixfive/Monotone, released under cc-by-sa_v4-->
<svg id="svg2" xmlns="http://www.w3.org/2000/svg" viewBox="0 0 16 16" version="1.1"><g id="layer1" transform="translate(-31.976 -220.36)"><path id="path3950" style="fill:#f1f2f2" d="m41.705 221.44c-2.7869-0.0262-4.0242 1.0595-4.5803 3.4564-0.03775 0.24395-0.06462 0.47822-0.05343 0.72126 0.0029 0.0635-0.0062 0.1237 0 0.18699 0.30585 1.435 0.92004 2.9356 0.19085 4.0728-1.435 1.8173-2.786 3.7018-4.262 5.4864h4.26l2.8154-3.7194c0.4438-0.85573 1.6562-1.1479 3.0453-1.2822 1.1042-0.0295 2.1375-0.50863 2.9118-1.496 0.87276-1.1129 1.0578-2.368 0.72126-3.5529l-3.0453 2.2172c-2.0146-0.28705-3.3527-1.1194-2.6179-3.8467l2.8049-1.6562c-0.70435-0.35757-1.4611-0.5638-2.1905-0.58769z"/></g></svg>
