<?xml version="1.0" encoding="UTF-8"?>
<svg version="1.1" viewBox="0 0 16 16" xmlns="http://www.w3.org/2000/svg">
<rect x="3" y="4" width="9" height="9" ry="1.2857" style="fill:#f1f2f2;stroke-width:1.2857"/>
<rect x="1" y="6" width="3" height="1" ry=".5" style="fill:#f1f2f2"/>
<rect x="1" y="8" width="3" height="1" ry=".5" style="fill:#f1f2f2"/>
<rect x="1" y="10" width="3" height="1" ry=".5" style="fill:#f1f2f2"/>
<rect x="11" y="6" width="3" height="1" ry=".5" style="fill:#f1f2f2"/>
<rect x="11" y="8" width="3" height="1" ry=".5" style="fill:#f1f2f2"/>
<rect x="11" y="10" width="3" height="1" ry=".5" style="fill:#f1f2f2"/>
<rect transform="rotate(90)" x="12" y="-8" width="3" height="1" ry=".5" style="fill:#f1f2f2"/>
<rect transform="rotate(90)" x="12" y="-10" width="3" height="1" ry=".5" style="fill:#f1f2f2"/>
<rect transform="rotate(90)" x="12" y="-6" width="3" height="1" ry=".5" style="fill:#f1f2f2"/>
<rect transform="rotate(90)" x="2" y="-8" width="3" height="1" ry=".5" style="fill:#f1f2f2"/>
<rect transform="rotate(90)" x="2" y="-10" width="3" height="1" ry=".5" style="fill:#f1f2f2"/>
<rect transform="rotate(90)" x="2" y="-6" width="3" height="1" ry=".5" style="fill:#f1f2f2"/>
</svg>
