<!--Part of Monotone: https://github.com/sixsixfive/Monotone, released under cc-by-sa_v4-->
<svg xmlns="http://www.w3.org/2000/svg" viewBox="0 0 16 16">
    <g fill="#f1f2f2">
        <path d="M6.217 1.068C3.26 1.482 1 3.914 1 6.878V14c0 .554.464 1 1.04 1h11.92c.576 0 1.04-.446 1.04-1V6.879c0-2.963-2.259-5.396-5.213-5.81l2.135 2.02a.476.476 0 0 1 .078.403l-3.506 9.125c-.13.495-.859.495-.988 0L4 3.514a.476.476 0 0 1 .078-.403l2.139-2.043zM12.004 8c.317.003 1.136 1.51.975 1.795-.162.284-1.829.268-1.985-.02-.156-.287.692-1.778 1.01-1.775z" stroke-width="1.069"/>
        <path d="M6.205 4.004c-.285-.162-.268-1.829.02-1.985.287-.156 1.778.691 1.775 1.009-.003.317-1.511 1.137-1.795.976z" stroke-width="2"/>
        <path d="M9.795 3.98c.285-.162.268-1.83-.02-1.985-.287-.157-1.778.69-1.775 1.008.003.318 1.511 1.138 1.795.976z" stroke-width="2"/>
    </g>
</svg>
