<!--Part of Monotone: https://github.com/sixsixfive/Monotone, released under cc-by-sa_v4-->
<svg xmlns="http://www.w3.org/2000/svg" viewBox="0 0 16 16">
    <path style="line-height:normal;text-indent:0;text-align:start;text-decoration-line:none;text-decoration-style:solid;text-decoration-color:#000;text-transform:none;isolation:auto;mix-blend-mode:normal;marker:none" d="M3 5.012v2h1.92c-.055 0 .084.159.084.082v.924H4c-1.716 0-3.03 1.125-3.055 2.484-.012.68.306 1.363.861 1.822.556.46 1.316.7 2.194.7h3.004v-5.93c0-1.171-.887-2.082-2.084-2.082H3zm1 5.006h1.004v1.005H4c-.52 0-.794-.137-.92-.242-.126-.104-.136-.172-.135-.244.003-.144.085-.52 1.055-.52zM7.998 4v9.023H11c.938 0 1.769-.372 2.299-.959.53-.586.765-1.336.755-2.066a3.077 3.077 0 0 0-.789-2.043C12.74 7.378 11.921 7 11 7H9.998V4zm2 5H11c.422 0 .625.126.787.303.162.177.264.447.267.722.004.276-.088.53-.24.698-.151.167-.355.3-.814.3H9.998z" overflow="visible" color="#000" font-weight="400" font-family="sans-serif" white-space="normal" fill="#f1f2f2"/>
</svg>
