<!--Part of Monotone: https://github.com/sixsixfive/Monotone, released under cc-by-sa_v4-->
<svg xmlns="http://www.w3.org/2000/svg" viewBox="0 0 16 16">
    <path style="marker:none" d="M12.109 6c.62.75.995 1.71.995 2.76a4.344 4.344 0 0 1-4.344 4.344c-1.05 0-2.01-.376-2.76-.995A5.055 5.055 0 0 0 10.932 16 5.068 5.068 0 0 0 16 10.932 5.055 5.055 0 0 0 12.109 6zM6.511 2.79c.4 0 .721.322.721.721a.72.72 0 0 1-.72.721.72.72 0 0 1-.722-.72c0-.4.322-.722.721-.722zm4 1.023a.697.697 0 1 1 0 1.398.697.697 0 0 1-.699-.7c0-.387.312-.698.7-.698zm-3 1.977c.4 0 .721.322.721.721a.72.72 0 0 1-.72.721.72.72 0 0 1-.722-.72c0-.4.322-.722.721-.722z" color="#f1f2f2" overflow="visible" fill="#f1f2f2"/>
    <path d="M3.505 8.505L2.76 6.25.505 5.505 2.76 4.76l.745-2.255.745 2.255 2.255.745-2.255.745z" style="marker:none" color="#000" overflow="visible" fill="#f1f2f2"/>
</svg>
