<?xml version="1.0" encoding="UTF-8" standalone="no"?>
<!--Part of Monotone: https://github.com/sixsixfive/Monotone, released under cc-by-sa_v4-->
<svg xmlns="http://www.w3.org/2000/svg" version="1.1" viewBox="0 0 16 16">
 <g font-weight="400" font-family="Sans" fill="#f1f2f2">
  <path opacity=".5" style="text-decoration-line:none;text-transform:none;text-indent:0" d="m3.4688 1c-1.3644-0.00155-2.4712 1.1044-2.4708 2.4688l0.00005 9.0622c-0.00056 1.365 1.1074 2.472 2.4726 2.469h5.5294v-1h-5.5292c-0.8181 0.016-1.4856-0.651-1.4708-1.469v-9.0603c0-0.8323 0.6368-1.4697 1.4688-1.4707h9.0622c0.687 0 1.234 0.4375 1.407 1.0566l-5.438 5.3184-1.9375-1.9375-2.125 2.125 3 2.9995 1.0625 1.063 1.0625-1.063 0.3418-0.351c0.088-1.208 1.0577-2.1261 2.2287-2.2891l1.867-1.918v1.9316c0.363 0.0691 0.702 0.2149 1 0.4161v-5.8809c0.002-1.3653-1.106-2.4724-2.471-2.4707h-9.0602z"/>
 </g>
 <path style="color:#f1f2f2" fill="#f1f2f2" overflow="visible" d="m12.5 10c-0.822 0-1.5 0.626-1.5 1.385v1.685h-0.5c-0.277 0-0.5 0.205-0.5 0.461v2.469h6v-2.469c0-0.256-0.223-0.461-0.5-0.461h-0.5v-1.685c0-0.76-0.678-1.385-1.5-1.385zm0 0.923h1c0.286 0 0.5 0.198 0.5 0.462v1.685h-2v-1.685c0-0.264 0.214-0.462 0.5-0.462z"/>
</svg>
