<?xml version="1.0" encoding="UTF-8"?>
<svg version="1.1" viewBox="0 0 16 16" xmlns="http://www.w3.org/2000/svg">
<path d="m8 1c-3.866 3e-7 -7 3.134-7 7 0.00223 1.2943 0.36326 2.5626 1.043 3.6641 0.8022-0.66546 1.5404-1.2517 1.9551-1.5215 1.7883-1.163 1.9256-1.3674 1.9297-2.8613 0.00392-1.4203 0.102-1.6499 0.88477-2.0625 0.23084-0.12168 0.40765-0.17612 0.63867-0.15039 0.23102 0.025732 0.51627 0.13164 0.96289 0.32812 0.58033 0.25532 1.6972 0.58773 2.4824 0.74023 0.78522 0.1525 1.6093 0.42554 1.8301 0.60742 0.37601 0.30968 0.37162 0.3211-0.05664 0.17188-1.7362-0.60497-3.2061-0.70667-4.127-0.28711-0.60322 0.27484-0.60578 0.28257-0.45117 2.1387 0.22428 2.6925-0.071476 3.5847-1.7012 5.1309-0.24799 0.23528-0.46687 0.47172-0.6875 0.70508 0.73809 0.2596 1.5145 0.39362 2.2969 0.39648 3.866 0 7-3.134 7-7 0-3.866-3.134-7-7-7zm-2.2969 13.604c-3.8021 0.93099-1.901 0.4655 0 0zm-3.6602-2.9395c-1.362 2.8906-0.68099 1.4453 0 0z" style="fill:#f1f2f2;paint-order:markers fill stroke"/>
</svg>
