<?xml version="1.0" encoding="UTF-8" standalone="no"?>
<!--Part of Monotone: https://github.com/sixsixfive/Monotone, released under cc-by-sa_v4-->
<svg id="svg8" xmlns="http://www.w3.org/2000/svg" version="1.1" viewBox="0 0 16 16"><path id="path3927" style="opacity:.5;filter:url(#filter3915);fill:#f1f2f2" d="m14.644 5.9231-5.0493 0.8498 4.3243 5.1521c0.685-1.094 1.081-2.3866 1.081-3.7725 0-0.77878-0.12538-1.5279-0.3564-2.2294z"/><path id="path3929" style="opacity:.8;filter:url(#filter3927);fill:#f1f2f2" d="m9.9137 8.5808-0.008 0.0211 0.0144 0.006-0.42633 1.1228c-0.19251 0.53343 0.45248-1.1599 0.43687-1.119l-2.423 6.3483c-0.006 0.0156 0.245 0.01 0.36885 0.01 2.1364 0 4.0528-0.94082 5.3584-2.4306z"/><path id="path3931" style="opacity:.6;filter:url(#filter3865);fill:#f1f2f2" d="m8.3808 10.005-6.646 1.1171c0.96338 1.8569 2.7205 3.2358 4.8219 3.6875z"/><path id="path3933" style="opacity:.5;filter:url(#filter3878);fill:#f1f2f2" d="m2.074 4.145c-0.68052 1.0919-1.074 2.3809-1.074 3.7623 0 0.77539 0.12449 1.522 0.35352 2.2208l5.0719-0.85266z"/><path id="path3935" style="opacity:.8;filter:url(#filter3891);fill:#f1f2f2" d="m8.1222 1.0294c-2.1415 0-4.0615 0.9452-5.367 2.4411l3.3206 3.9146 2.2323-6.3528c-0.0618-0.002-0.12367-0.003-0.18586-0.003z"/><path id="path3937" style="opacity:.3;filter:url(#filter3903);fill:#f1f2f2" d="m9.4471 1.153-1.7005 4.841 6.6968-1.1267c-0.99191-1.9049-2.8192-3.3047-4.9962-3.7144z"/><circle id="path895" r="1" style="paint-order:fill markers stroke;fill:#f1f2f2" cx="8" cy="8"/></svg>
