<?xml version="1.0" encoding="UTF-8" standalone="no"?>
<!--Part of Monotone: https://github.com/sixsixfive/Monotone, released under cc-by-sa_v4-->
<svg id="svg26" xmlns="http://www.w3.org/2000/svg" viewBox="0 0 16 16" version="1.1"><path id="path18" style="fill-rule:evenodd;fill:#f1f2f2" d="m3.5 2l-2.5 2.5v9.5h5a1.0001 1.0001 0 0 1 0.0508 -0.316l0.2285-0.684h-4.2793v-8l2-2h10v3.3965c0.472 0.3271 0.868 0.8162 0.982 1.416a1.0001 1.0001 0 0 1 0.018 0.1719v-5.9844h-11.5zm11.5 5.9844a1.0001 1.0001 0 0 1 -0.293 0.7226l-0.5 0.5a1.0001 1.0001 0 0 1 -0.207 0.1582v1.6348l-2 2h-1.586l-0.9999 1h3.0859l2.5-2.5v-3.5156zm-10.025-2.9844v0.0254l-0.9746 0.9746v4l1 1h1l0.793 0.793 0.7929-0.793h-0.5859l1-1v-4l-0.9746-1h-2.0508zm5 0v2h-1v1h1v0.6113l1.3184-1.3183a1.0001 1.0001 0 0 1 0.297 -0.2032 1.0001 1.0001 0 0 1 0.047 -0.0898h-0.662v-2h-1.0004zm-4.9746 1h2v4h-2v-4zm7.975 4.439l-0.561 0.561h0.561v-0.561z"/><g id="g1632" transform="matrix(.5 0 0 .5 6.5 6.5)"><path id="path3049" style="fill:#f1f2f2" d="m1 15 3-1 9-9c-0.272-1.1491-0.978-1.7671-2-2l-9 9z"/><path id="path3819" style="fill:#f1f2f2" d="m12 2 1-1c1.0481 0.23076 1.7759 0.82752 2 2l-1 1c-0.254-1.0497-0.921-1.7163-2-2z"/></g></svg>
