<?xml version="1.0" encoding="UTF-8"?>
<svg version="1.1" viewBox="0 0 16 16" xmlns="http://www.w3.org/2000/svg">
<title>Gnome Symbolic Icon Theme</title>
<g transform="translate(-83 -175)">
<path d="m87.389 176.06c-0.85693 3e-3 -2.358 0.9136-2.358 2.5218v9.8532c0 0.85692 0.70558 1.5625 1.5625 1.5625h9.4375c1.125 0.0312 0.93388-0.98875 0.93388-0.98875l-9.336 0.0253c-2.2827 6e-3 -2.0844-2.9912-0.0372-2.9938l9.4081-0.0115 0.0312-10zm0.63848 1.875h2.6875c3.317 0 4.2715 1.2631 4.25 3.0312-0.03 2.4678-2.1906 3.0118-4.8143 3.1035-0.62199 0.0217-1.506 0.0215-2.1232 0.0215zm2.0312 1.0625v4.0312c1.9427 0.023 2.998-0.68325 3-2.0625 3e-3 -1.7685-1.2408-1.9383-3-1.9688z" style="color:#000000;enable-background:new;fill:#f1f2f2"/>
<path d="m85.521 186.06h10.448c-1.1838 0.49216-1.2956 2.4585 0 3h-10.448z" style="color:#000000;enable-background:new;fill:#f1f2f2;opacity:.3"/>
</g>
</svg>
