<?xml version="1.0" encoding="UTF-8" standalone="no"?>
<!--Part of Monotone: https://github.com/sixsixfive/Monotone, released under cc-by-sa_v4-->
<svg id="svg18" xmlns="http://www.w3.org/2000/svg" version="1.1" xmlns:xlink="http://www.w3.org/1999/xlink" viewBox="0 0 16 16"><defs id="defs8"><linearGradient id="b" y2="46.304" gradientUnits="userSpaceOnUse" x2="45" gradientTransform="matrix(.3497 0 0 .3635 -.44 -.725)" y1="3" x1="45"><stop id="stop2" stop-color="#f1f2f2" offset="0"/><stop id="stop4" stop-color="#f1f2f2" offset="1"/></linearGradient></defs><path id="path10" style="fill:#f1f2f2" d="m1.034 15.908c-0.755-0.35-1.136-1.355-1.01-2.138 0.13-0.817 0.923-1.506 1.692-1.754 2.603-0.839 5.363-1.339 7.729-2.811 0.775-0.534 1.463-1.209 1.554-2.245-0.077-1.77-1.136-2.705-2.464-3.655-1.947-1.399-3.595-1.578-5.826-2.288-0.68-0.281-0.159-0.986 0.018-0.956 4.776-0.061 7.041 1.666 10.169 3.526 1.107 0.738 2.523 1.684 2.985 3.035 0.29 0.824 0.024 1.702-0.522 2.336-1.358 1.658-3.27 2.675-5.108 3.65-2.69 1.34-5.5 2.41-8.352 3.315-0.296 0.094-0.583 0.116-0.865-0.015z" fill="url(#b)"/></svg>
