<?xml version="1.0" encoding="UTF-8" standalone="no"?>
<!--Part of Monotone: https://github.com/sixsixfive/Monotone, released under cc-by-sa_v4-->
<svg xmlns="http://www.w3.org/2000/svg" version="1.1" viewBox="0 0 16 16">
 <path stroke-width=".9916" d="m7.8807 1.9883c-0.139-0.0077-0.3234 0.0241-0.6113 0.5195l-6.1816 11.472a0.88722 0.88786 0 0 1 -0.00391 0.0098c-0.11185 0.202-0.11034 0.509-0.0118 0.729 0.0986 0.219 0.1923 0.281 0.3203 0.281h13.041c0.13746 0 0.3548-0.11334 0.4668-0.29688s0.16265-0.36815-0.02734-0.69727a0.88722 0.88786 0 0 1 -0.0098 -0.01758l-6.2332-11.398h-0.00195c-0.2823-0.4555-0.5907-0.5935-0.7441-0.6017a0.88722 0.88786 0 0 1 -0.00195 0zm0.089844 3.041c0.544-0.017 1.0482 0.4882 1.0312 1.0332v3.9375c0.007 0.528-0.471 1-1 1-0.528 0-1.007-0.472-1-1v-3.9375a1.033 1.033 0 0 1 0.8125 -1 1 1 0 0 1 0.15625 -0.03125zm-0.0117 6.9707a1 1 0 0 1 0.041016 0 1 1 0 0 1 0 2 1.0002 1.0002 0 0 1 -0.041016 -2z" fill="#f1f2f2"/>
</svg>
