<?xml version="1.0" encoding="UTF-8" standalone="no"?>
<!--Part of Monotone: https://github.com/sixsixfive/Monotone, released under cc-by-sa_v4-->
<svg xmlns="http://www.w3.org/2000/svg" version="1.1" viewBox="0 0 16 16">
 <path fill="#f1f2f2" d="m8 0-3 3 3 3v-1.9375c0.1668-0.0187 0.3282-0.0625 0.5-0.0625 2.485 0 4.5 2.0147 4.5 4.5 0 0.1718-0.044 0.3332-0.062 0.5h0.062c0.0187 0.1668 0.0625 0.3282 0.0625 0.5 0 2.4853-2.0147 4.5-4.5 4.5-0.5625 0-0.5859-0.024-1.0625 0-2.4853 0-4.5-2.015-4.5-4.5 0-0.1718 0.0438-0.3332 0.0625-0.5h-2.0313c-0.0128 0.1677-0.0312 0.3289-0.0312 0.5 0 3.59 2.9101 6.5 6.5 6.5 0.1711 0 0.8948 0.013 1.0625 0 3.5899 0 6.5-2.9101 6.5-6.5 0-0.1711-0.01825-0.3323-0.03125-0.5h-0.0625c0.014-0.1677 0.032-0.3289 0.032-0.5 0-3.5899-2.91-6.5-6.5-6.5-0.1711 0-0.3323 0.0182-0.5 0.0312zm-1.6152 7c-0.214 0-0.3848 0.224-0.3848 0.502v2.996c0 0.278 0.1698 0.502 0.3848 0.502h3.2304c0.213 0 0.3848-0.224 0.3848-0.502v-2.996c0-0.278-0.1718-0.502-0.3848-0.502z"/>
</svg>
