<!--Part of Monotone: https://github.com/sixsixfive/Monotone, released under cc-by-sa_v4-->
<svg xmlns="http://www.w3.org/2000/svg" viewBox="0 0 16 16">
    <g fill="#f1f2f2">
        <path d="M.5 7h2c.277 0 .5.223.5.5v1c0 .277-.223.5-.5.5h-2a.499.499 0 0 1-.5-.5v-1c0-.277.223-.5.5-.5zm13 0h2c.277 0 .5.223.5.5v1c0 .277-.223.5-.5.5h-2a.499.499 0 0 1-.5-.5v-1c0-.277.223-.5.5-.5zM1.99 12.596l1.414-1.414a.499.499 0 0 1 .707 0l.707.707a.499.499 0 0 1 0 .707L3.404 14.01a.499.499 0 0 1-.707 0l-.707-.707a.499.499 0 0 1 0-.707zm9.192-9.192l1.414-1.415a.499.499 0 0 1 .707 0l.707.708a.499.499 0 0 1 0 .707l-1.414 1.414a.499.499 0 0 1-.707 0l-.707-.707a.499.499 0 0 1 0-.707zM7 15.5v-2c0-.277.223-.5.5-.5h1c.277 0 .5.223.5.5v2c0 .277-.223.5-.5.5h-1a.499.499 0 0 1-.5-.5zm0-13v-2c0-.277.223-.5.5-.5h1c.277 0 .5.223.5.5v2c0 .277-.223.5-.5.5h-1a.499.499 0 0 1-.5-.5zm5.596 11.51l-1.414-1.414a.499.499 0 0 1 0-.707l.707-.707a.499.499 0 0 1 .707 0l1.414 1.414a.499.499 0 0 1 0 .707l-.707.707a.499.499 0 0 1-.707 0zM3.404 4.818L1.989 3.404a.499.499 0 0 1 0-.707l.708-.707a.499.499 0 0 1 .707 0l1.414 1.414a.499.499 0 0 1 0 .707l-.707.707a.499.499 0 0 1-.707 0z" style="marker:none" color="#f1f2f2" overflow="visible"/>
        <path style="line-height:normal;-inkscape-font-specification:Sans;text-indent:0;text-align:start;text-decoration-line:none;text-transform:none;marker:none" d="M7.989 4.008a3.98 3.98 0 0 0-3.98 3.979c0 2.197 1.782 4.009 3.98 4.009 2.197 0 4.008-1.812 4.008-4.009s-1.811-3.98-4.008-3.98zm0 1.99c1.116 0 2.018.873 2.018 1.989a2.017 2.017 0 0 1-2.018 2.019c-1.117 0-1.99-.903-1.99-2.019s.873-1.99 1.99-1.99z" color="#000" font-weight="400" font-family="Sans" overflow="visible"/>
    </g>
</svg>
