<?xml version="1.0" encoding="UTF-8"?>
<!--Part of Monotone: https://github.com/sixsixfive/Monotone, released under cc-by-sa_v4-->
<svg version="1.1" viewBox="0 0 16 16" xmlns="http://www.w3.org/2000/svg">
<path d="m8.5 0a7.5 7.5 0 0 0-5.9883 3h3.4883c1.4372 0 2.3121-1.9999 3.5-2 1.3807 0 2.5 1.1193 2.5 2.5s-1.1193 2.5-2.5 2.5c-1.1864-0.001983-1.9377-2-3.5-2h-4.1289a7.5 7.5 0 0 0-0.87109 3.5 7.5 7.5 0 0 0 0.87305 3.5h4.127c1.4372 0 2.3121-1.9999 3.5-2 1.3807 0 2.5 1.1193 2.5 2.5s-1.1193 2.5-2.5 2.5c-1.1864-0.001983-1.9377-2-3.5-2h-3.4902a7.5 7.5 0 0 0 5.9902 3 7.5 7.5 0 0 0 7.4746-7h-7.9746c-1.4372 0-2.3121 1.9999-3.5 2-1.3807 0-2.5-1.1193-2.5-2.5s1.1193-2.5 2.5-2.5c1.1864 0.0019827 1.9377 2 3.5 2h7.9824a7.5 7.5 0 0 0-7.4824-7z" fill="#f1f2f2" fill-opacity=".98406"/>
</svg>
