<?xml version="1.0" encoding="UTF-8" standalone="no"?>
<!--Part of Monotone: https://github.com/sixsixfive/Monotone, released under cc-by-sa_v4-->
<svg xmlns="http://www.w3.org/2000/svg" version="1.1" viewBox="0 0 16 16">
 <path opacity=".5" style="text-decoration-line:none;text-transform:none;text-indent:0" d="m2.8105 0c-0.1132 0.022687-0.2214 0.065217-0.3203 0.125-0.0043 0.0026-0.0094 0.00316-0.0136 0.00586-0.0958 0.0588-0.181 0.1335-0.252 0.2207-0.0708 0.0877-0.1263 0.18677-0.1641 0.29297-0.0014 0.0041-0.0025 0.00772-0.0039 0.01172-0.0388 0.1104-0.058 0.22675-0.0566 0.34375v13c-0.0002 0.133 0.0264 0.266 0.0781 0.389 0.05 0.118 0.1223 0.225 0.2129 0.316 0.0013 0.001 0.0026 0.003 0.0039 0.004 0.089 0.088 0.1937 0.158 0.3086 0.207 0.0055 0.002 0.0102 0.006 0.0156 0.008 0.1208 0.05 0.2502 0.076 0.3809 0.076h6.8418a1.0099 1.0099 0 0 1 -0.8516 -0.996v-0.004h-5.3906c-0.3324 0-0.5996-0.267-0.5996-0.6v-6.8004c0-0.0353 0.0137-0.066 0.0195-0.0996-0.0058-0.0336-0.0195-0.0643-0.0195-0.0996v-4.8008c0-0.3324 0.2672-0.5996 0.5996-0.5996h4.8008c0.3324 0 0.5996 0.2672 0.5996 0.5996v2.9512h0.0098c0.0245 0.2343 0.2051 0.4149 0.4394 0.4394v0.0098h3.9508c0.333 0 0.6 0.2672 0.6 0.5996-0.011 1.1445 0.007 1.7127 0.023 3.4004a1.0099 1.0099 0 0 1 0.977 0.8711v-5.3086c0.002-0.1309-0.021-0.2609-0.068-0.3828v-0.0039c-0.001-0.0014-0.002-0.0026-0.002-0.0039-0.048-0.1222-0.12-0.2337-0.211-0.3281l-3.563-3.5645c-0.095-0.0916-0.208-0.16334-0.332-0.21094-0.124-0.048201-0.256-0.07136-0.388-0.06836h-7.438c-0.0312-0.00147-0.0623-0.00147-0.0937 0-0.0306-0.0014394-0.0612-0.0013794-0.0918 0h-0.002zm7.1895 1l3 3h-2c-1 0.0001-1 0-1-1v-2z" fill="#f1f2f2"/>
 <path d="m12 10.01v1.996h-2v1.997h2v1.997h2v-1.997h2v-1.997h-2v-1.996z" fill="#f1f2f2"/>
</svg>
