<?xml version="1.0" encoding="UTF-8" standalone="no"?>
<!--Part of Monotone: https://github.com/sixsixfive/Monotone, released under cc-by-sa_v4-->
<svg xmlns="http://www.w3.org/2000/svg" version="1.1" viewBox="0 0 16 16">
 <g fill="#f1f2f2">
  <path d="m2 2c-0.554 0-1 0.446-1 1v11c0 0.554 0.446 1 1 1h12c0.554 0 1-0.446 1-1v-6h-1v5c0 0.554-0.446 1-1 1h-10c-0.554 0-1-0.446-1-1v-7c0-0.554 0.446-1 1-1h1v-3zm12 5v1h1c0-0.554-0.446-1.0039-1-1z"/>
  <path d="m3.5 7c-0.277 0-0.5 0.223-0.5 0.5v7c0 0.277 0.223 0.5 0.5 0.5s0.5-0.223 0.5-0.5v-0.033h10.389v-6.467h-0.389v-1h-10.5z"/>
  <g transform="rotate(180,-3,8.5015)">
   <path style="text-decoration-line:none;text-transform:none;text-indent:0" d="m5.8125 1c-0.1139 0.0226-0.2229 0.0649-0.3223 0.125-0.0043 0.0026-0.0094 0.0032-0.0136 0.0059-0.0958 0.0588-0.181 0.1335-0.252 0.2207-0.0708 0.0877-0.1263 0.1867-0.1641 0.2929-0.0014 0.0041-0.0025 0.0077-0.0039 0.0117-0.0388 0.1104-0.058 0.2268-0.0566 0.3438v4h1v-3.4004c0-0.3324 0.2751-0.6718 0.5996-0.5996h0.8008c0.3324 0 0.6587 0.2725 0.5996 0.5996v1.9512h0.0098c0.0245 0.2343 0.2051 0.4149 0.4394 0.4394v0.0098h2.9508c0.333 0 0.6 0.2672 0.6 0.5996v0.4004h1v-1.4375c0.002-0.1309-0.021-0.2609-0.068-0.3828v-0.0039c-0.001-0.0014-0.002-0.0026-0.002-0.0039-0.048-0.1222-0.12-0.2337-0.211-0.3281l-2.563-2.5645c-0.095-0.0916-0.2082-0.1633-0.3318-0.2109-0.1231-0.0482-0.2545-0.0714-0.3867-0.0684h-3.4375c-0.0312-0.0015-0.0624-0.0015-0.0938 0-0.0312-0.0015-0.0625-0.0015-0.0937 0zm3.1875 1 2 2h-1c-1 0.0001-1 0-1 0z" transform="rotate(180,-3,8.5015)" fill="#f1f2f2"/>
  </g>
 </g>
</svg>
