<?xml version="1.0" encoding="UTF-8"?>
<!--Part of Monotone: https://github.com/sixsixfive/Monotone, released under cc-by-sa_v4-->
<svg version="1.1" viewBox="0 0 16 16" xmlns="http://www.w3.org/2000/svg">
<g fill="#f1f2f2" opacity="1">
<path d="m1.8125 1c-0.1139 0.0226-0.22287 0.0649-0.32227 0.125-0.0043 0.0026-0.0094719 0.0031594-0.013672 0.0058594-0.0958 0.0588-0.18095 0.1335-0.25195 0.2207-0.0708 0.0877-0.12626 0.18677-0.16406 0.29297-0.0014 0.0041-0.0025063 0.0077188-0.0039063 0.011719-0.0388 0.1104-0.058041 0.22675-0.056641 0.34375v13c-1.6e-4 0.133 0.026425 0.26567 0.078125 0.38867 0.05 0.118 0.12229 0.22541 0.21289 0.31641 0.0013 1e-3 0.0026063 0.002906 0.0039063 0.003906 0.089 0.088 0.19369 0.15803 0.30859 0.20703 0.0055 2e-3 0.010225 0.005812 0.015625 0.007812 0.1208 0.05 0.25016 0.076172 0.38086 0.076172h11c0.133 0 0.26567-0.026125 0.38867-0.078125 0.020449-0.008665 0.034925-0.027139 0.054687-0.037109-0.031097-0.026503-0.066634-0.047076-0.095703-0.076172l-0.84375-0.83008c-0.034936 0.006257-0.066693 0.021484-0.10352 0.021484h-9.8008c-0.3324 0-0.59961-0.26661-0.59961-0.59961v-6.8008c0-0.0353 0.013731-0.066009 0.019531-0.099609-0.0057999-0.0336-0.019531-0.064309-0.019531-0.099609v-4.8008c0-0.3324 0.26721-0.59961 0.59961-0.59961h4.8008c0.3324 0 0.59961 0.26721 0.59961 0.59961v2.9512h0.0097656c0.0245 0.2343 0.20515 0.41495 0.43945 0.43945v0.0097656h3.9512c0.333 0 0.59961 0.26721 0.59961 0.59961v1.1953c0.12065 0.093539 0.2455 0.18105 0.35352 0.28906 0.26536 0.26536 0.47237 0.57967 0.64648 0.91211v-3.4336c2e-3 -0.1309-0.021359-0.26091-0.068359-0.38281v-0.0039063c-1e-3 -0.0014-0.001953-0.0026062-0.001953-0.0039062-0.048001-0.1222-0.11994-0.23372-0.21094-0.32812l-3.5625-3.5645c-0.095-0.0916-0.20843-0.16334-0.33203-0.21094-0.1231-0.0482-0.25452-0.071359-0.38672-0.068359h-7.4375c-0.0312-0.00147-0.06235-0.00147-0.09375 0-0.0312-0.00147-0.06255-0.00147-0.09375 0zm7.1875 1 3 3h-2c-1 1e-4 -1 0-1-1v-2z" opacity=".5" style="text-decoration-line:none;text-indent:0;text-transform:none"/>
<path d="m10.718 8.001a2.726 2.726 0 0 0-2.718 2.718 2.726 2.726 0 0 0 2.718 2.719c0.488 0 0.948-0.148 1.344-0.375a0.75 0.75 0 0 0 0.156 0.219l1.844 1.811a0.7513 0.7513 0 1 0 1.063-1.062l-1.844-1.813a0.75 0.75 0 0 0-0.219-0.155c0.227-0.396 0.375-0.857 0.375-1.344a2.726 2.726 0 0 0-2.719-2.719zm0 1c0.956 0 1.72 0.763 1.72 1.718s-0.764 1.719-1.72 1.719a1.711 1.711 0 0 1-1.718-1.719c0-0.955 0.763-1.719 1.718-1.719z" fill="#f1f2f2" font-weight="400" opacity="1" overflow="visible" style="text-decoration-line:none;text-indent:0;text-transform:none"/>
</g>
</svg>
