<?xml version="1.0" encoding="UTF-8"?>
<svg version="1.1" viewBox="0 0 16 16" xmlns="http://www.w3.org/2000/svg">
<path d="m15.051 8.8117c-0.7365-1.2861-1.3699-2.2054-2.4253-3.1392-0.3394-0.30033-0.661-0.56872-0.9958-0.80962l4e-4 6.63e-5s0-0.0019-0.01-0.00474c-0.01-0.00474-0.012-0.00852-0.018-0.012964-0.76276-0.73631 0.01394-2.4885 0.9673-2.7453-2.1245-0.3467-2.4267 0.12611-3.5556 1.3573-0.5022-0.13602-1.0751-0.25597-1.7451-0.36355-2.3175-0.37208-4.2789 0.22105-5.2631 0.86749-1.29 0.84729-1.2543 1.8368-1.3607 2.2317-0.077 0.28416-0.8546 1.4482-0.5901 1.7557 0.165 0.19188 0.7142 0.031168 1.1572-0.14125 0.047963-0.032545 1.8519-0.85059 3.3772 0.18544 0.68157 1.6157 1.6365 1.8727 3.4449 2.0037-1.03-0.44056-1.384-0.79987-1.324-1.9203v0.10012c0.7516 0.13514 1.4081 0.23267 2.9781 0.80168 1.3737 0.49786 2.312 1.122 2.312 1.122s-0.9648-2.238-2.5929-2.998c-1.3369-0.62398-2.4346-1.0001-3.9554-1.0699-1.6623-0.076274-3.405-0.061762-3.405-0.061762s0.5351-0.41584 1.8655-0.75641c1.3625-0.34879 2.8081-0.3651 4.7783 0.1106 2.7836 0.67201 3.733 2.0163 4.9304 3.1988 1.2744 1.2586 2.3764 2.4766 2.3764 2.4766s-0.3398-1.1191-0.9518-2.1878z" style="fill:#f1f2f2;stroke-width:.0076007"/>
</svg>
