<?xml version="1.0" encoding="UTF-8" standalone="no"?>
<!--Part of Monotone: https://github.com/sixsixfive/Monotone, released under cc-by-sa_v4-->
<svg xmlns="http://www.w3.org/2000/svg" version="1.1" viewBox="0 0 16 16">
 <path fill="#f1f2f2" d="m6 0l-6 5 0.875 3.0645c-0.02946-0.2238-0.02653-0.4645 0.05469-0.711 0.14491-0.4411 0.47471-0.7497 0.76171-0.9199s0.5566-0.2487 0.8223-0.3086c0.5314-0.1199 1.0678-0.1469 1.5976-0.1699 0.5299-0.023 1.0476-0.0364 1.4336-0.0723 0.1872-0.0174 0.3412-0.0624 0.4336-0.0879 0.0535-0.0794 0.1433-0.2096 0.2188-0.3808 0.1564-0.3548 0.3336-0.8425 0.5234-1.3379s0.386-0.9967 0.668-1.4629c0.141-0.2331 0.3007-0.4633 0.5527-0.6817 0.0568-0.0492 0.1442-0.0882 0.2148-0.1347l-2.1562-1.7969zm5.58 4.6504c0.101 0.2723 0.208 0.5717 0.297 0.7793l0.123-0.4297-0.42-0.3496zm-10.549 3.959l0.9688 3.3906h2.0195c0.0306-0.16 0.0412-0.307 0.045-0.393-0.0588-0.075-0.1548-0.202-0.295-0.328-0.2891-0.258-0.6988-0.574-1.1113-0.908-0.4125-0.333-0.8294-0.6755-1.1855-1.0878-0.164-0.1898-0.3165-0.4026-0.4415-0.6738z"/>
 <path style="color:#000000" d="m13.33 16c-0.811 0.585-3.323-1.968-4.323-1.972s-3.534 2.528-4.342 1.937c-0.806-0.591 0.846-3.77 0.54-4.722-0.305-0.953-3.496-2.58-3.183-3.53 0.312-0.95 3.845-0.361 4.657-0.946 0.812-0.584 1.373-4.122 2.373-4.119 1 0.004 1.531 3.546 2.338 4.138 0.807 0.59 4.345 0.032 4.651 0.984 0.305 0.953-2.9 2.553-3.212 3.503-0.313 0.95 1.312 4.142 0.5 4.727z" overflow="visible" fill="#f1f2f2"/>
</svg>
