<?xml version="1.0" encoding="UTF-8" standalone="no"?>
<!--Part of Monotone: https://github.com/sixsixfive/Monotone, released under cc-by-sa_v4-->
<svg id="svg4" xmlns="http://www.w3.org/2000/svg" viewBox="0 0 16 16" version="1.1"><g id="use117961" style="fill:#bebebe"><title id="title4495">tool-pointer-16px</title><g id="use120709" style="fill:#bebebe" transform="translate(-.00765)"><title id="title4585">tool-node-editor-16px</title><g id="use142866" style="fill:#bebebe" transform="translate(.00765)"><title id="title4747">draw-freehand-16px</title><path id="path4749" style="fill:#f1f2f2" d="m13.156 1-1.875 2c1.329 0.0259 2.665 1.2116 2.719 2.4375l2-2c-0.055-1.2653-1.474-2.4884-2.844-2.4375z"/><rect id="rect4751" style="fill:none" height="16" width="16" y="0" x="0"/><path id="path4753" style="fill:#f1f2f2" d="m2.6304 12.036 7.5206-8.0345c1.369-0.0509 2.794 1.1635 2.849 2.4288l-7.49 7.7937-4.51 1.776z"/><path id="path4755" style="color-rendering:auto;text-decoration-color:#000000;color:#000000;font-variant-numeric:normal;text-orientation:mixed;shape-rendering:auto;font-variant-ligatures:normal;text-decoration-line:none;fill:#f1f2f2;font-variant-position:normal;mix-blend-mode:normal;font-feature-settings:normal;shape-padding:0;font-variant-alternates:normal;text-indent:0;dominant-baseline:auto;font-variant-caps:normal;image-rendering:auto;white-space:normal;text-decoration-style:solid;solid-color:#000000;isolation:auto;text-transform:none" d="m4.5039 0.046875c-0.9616-0.16008-1.9275 0.10542-2.5918 0.47852-0.3176 0.17834-0.703 0.46154-1.0234 0.8652-0.32045 0.4037-0.57749 0.9529-0.51761 1.584 0.08724 0.9205 0.72221 1.6821 1.3437 2.1777 0.25517 0.20356 0.58371 0.48297 0.74805 0.71484 0.082169 0.11594 0.11524 0.20961 0.11914 0.25 0.0039 0.040392 0.015073 0.038015-0.046875 0.10742-0.0856 0.096-0.3875 0.2354-0.7578 0.3164-0.3702 0.081-0.7711 0.1203-1.1132 0.209-0.17112 0.0444-0.36004 0.0536-0.55472 0.3242-0.09735 0.1353-0.13553 0.3677-0.089849 0.5274 0.045682 0.1597 0.12696 0.2553 0.20703 0.3379 0.32028 0.33 0.81274 0.5781 1.791 1.041a0.50005 0.50005 0 1 0 0.4277 -0.9024c-0.5508-0.2606-0.6227-0.3326-0.8711-0.4824 0.1563-0.0264 0.246-0.0405 0.418-0.0781 0.4427-0.0968 0.9303-0.2249 1.289-0.627 0.2193-0.2456 0.3251-0.5776 0.2969-0.8691-0.0281-0.2915-0.1547-0.5291-0.2988-0.7324-0.2882-0.4067-0.6814-0.7125-0.9414-0.92-0.4609-0.3675-0.9271-1.0305-0.9707-1.4902-0.0296-0.3122 0.0914-0.5965 0.3047-0.8652s0.5161-0.4969 0.7304-0.6172c0.4564-0.2563 1.2844-0.47202 1.9375-0.3633 0.3753 0.0625 0.7918 0.2057 1.1368 0.3652 0.3449 0.1595 0.6345 0.361 0.6914 0.418a0.50005 0.50005 0 1 0 0.707 -0.707c-0.2381-0.2387-0.5651-0.42602-0.9785-0.61721-0.4135-0.19119-0.8976-0.3629-1.3926-0.44532z"/></g></g></g></svg>
