<?xml version="1.0" encoding="UTF-8" standalone="no"?>
<!--Part of Monotone: https://github.com/sixsixfive/Monotone, released under cc-by-sa_v4-->
<svg id="svg8" xmlns="http://www.w3.org/2000/svg" viewBox="0 0 16 16" version="1.1"><path id="path4634" style="stroke-linejoin:round;stroke:#f1f2f2;stroke-linecap:round;stroke-width:1.25px;fill:none" d="m7.9524 8.4344c0.6349-0.1475 0.9268 0.7167 0.8175 1.229-0.2286 1.0716-1.4386 1.4436-2.3242 1.0916-1.3807-0.549-1.8268-2.3367-1.2506-3.6783 0.7933-1.8469 2.9931-2.4195 4.6445-1.5487 2.1204 1.1182 2.7601 3.9849 1.6835 6.1276-1.3219 2.6313-4.5574 3.4096-6.9646 2.0058-2.8654-1.67-3.7005-5.6376-2.1165-8.5766 1.8427-3.419 6.1245-4.4041 9.2848-2.4628 3.6125 2.2189 4.6437 7.2931 2.5495 11.026-0.008 0.0122-0.0138 0.0244-0.0206 0.0366"/></svg>
