<?xml version="1.0" encoding="UTF-8" standalone="no"?>
<!--Part of Monotone: https://github.com/sixsixfive/Monotone, released under cc-by-sa_v4-->
<svg xmlns="http://www.w3.org/2000/svg" version="1.1" xmlns:xlink="http://www.w3.org/1999/xlink" viewBox="0 0 16 16">
 <g fill="#f1f2f2">
  <rect ry="1" height="2" width="12" y="3" x="1"/>
  <rect transform="rotate(90)" ry="1" height="2" width="12" y="-13" x="3"/>
  <path d="m3 1c-0.554 0-1 0.446-1 1h2c0-0.554-0.446-1-1-1zm-1 5v7c0 0.554 0.446 1 1 1s1-0.446 1-1v-7h-2z"/>
  <path d="m3 12c-0.554 0-1 0.446-1 1s0.446 1 1 1h7v-2h-7zm11 0v2c0.554 0 1-0.446 1-1s-0.446-1-1-1z"/>
 </g>
</svg>
