<!--Part of Monotone: https://github.com/sixsixfive/Monotone, released under cc-by-sa_v4-->
<svg xmlns="http://www.w3.org/2000/svg" viewBox="0 0 16 16">
    <g fill="#f1f2f2">
        <path style="line-height:normal;text-indent:0;text-align:start;text-decoration-line:none;text-decoration-style:solid;text-decoration-color:#000;text-transform:none;isolation:auto;mix-blend-mode:normal" d="M3.5 9A3.515 3.515 0 0 0 0 12.5C0 14.421 1.579 16 3.5 16S7 14.421 7 12.5 5.42 9 3.5 9zm0 2c.84 0 1.5.66 1.5 1.5S4.34 14 3.5 14 2 13.34 2 12.5 2.66 11 3.5 11zm9-2A3.515 3.515 0 0 0 9 12.5c0 1.921 1.579 3.5 3.5 3.5s3.5-1.579 3.5-3.5S14.42 9 12.5 9zm0 2c.84 0 1.5.66 1.5 1.5s-.66 1.5-1.5 1.5-1.5-.66-1.5-1.5.66-1.5 1.5-1.5z" color="#000" font-weight="400" font-family="sans-serif" white-space="normal" overflow="visible"/>
        <path d="M3.096 0c-1.06.554-1.406 1.76-.794 2.719L6.722 10l-1.746 2.368 1.414 2.085L8 11.97l1.579 2.484 1.4-1.997L9.279 10l4.42-7.281c.612-.96.266-2.165-.794-2.719L8 8z"/>
    </g>
</svg>
