<?xml version="1.0" encoding="UTF-8"?>
<svg version="1.1" viewBox="0 0 16 16" xmlns="http://www.w3.org/2000/svg">
<g fill="#f1f2f2" font-weight="400">
<path d="m10 1v1c0 0.257 0.1172 0.52775 0.2832 0.71875l0.25586 0.28125h-2.5391c-1 0-1 0-5 4h-2v2h2c4 4 4 4 5 4h2.5391l-0.25586 0.28125c-0.17481 0.19954-0.27492 0.45359-0.2832 0.71875v1h0.9082c0.28 0 0.50069-0.09025 0.67969-0.28125l2.4121-2.7207-2.4102-2.7168c-0.17509-0.18902-0.42421-0.29181-0.68164-0.28125h-0.9082v1c0 0.257 0.1172 0.52775 0.2832 0.71875l0.25586 0.28125h-1.5391c-1 0-1 0-4-3 3-3 3-3 4-3h1.5391l-0.25586 0.28125c-0.17481 0.19954-0.27492 0.45359-0.2832 0.71875v1h0.9082c0.28 0 0.50069-0.09025 0.67969-0.28125l2.4121-2.7207-2.4102-2.7168c-0.17509-0.18902-0.42421-0.29181-0.68164-0.28125z" style="color:#f1f2f2;fill:#f1f2f2;text-decoration-line:none;text-indent:0;text-transform:none"/>
</g>
</svg>
