<!--Part of Monotone: https://github.com/sixsixfive/Monotone, released under cc-by-sa_v4-->
<svg xmlns="http://www.w3.org/2000/svg" viewBox="0 0 16 16">
    <g color="#000" font-weight="400" font-family="Sans" fill="#f1f2f2">
        <path style="line-height:normal;-inkscape-font-specification:Sans;text-indent:0;text-align:start;text-decoration-line:none;text-transform:none;marker:none" d="M6.507 1.027C3.48 1.027.997 3.506.997 6.53c0 3.026 2.482 5.505 5.51 5.505 3.03 0 5.511-2.48 5.511-5.505s-2.482-5.504-5.51-5.504zm0 2.009c1.948 0 3.5 1.55 3.5 3.495a3.479 3.479 0 0 1-3.5 3.496 3.48 3.48 0 0 1-3.5-3.496 3.479 3.479 0 0 1 3.5-3.495z" overflow="visible"/>
        <path style="line-height:normal;-inkscape-font-specification:Sans;text-indent:0;text-align:start;text-decoration-line:none;text-transform:none;marker:none" d="M9.812 9.031a1 1 0 0 0-.5 1.719l4 4a1.005 1.005 0 1 0 1.407-1.438l-4-4a1 1 0 0 0-.907-.28z" overflow="visible"/>
    </g>
</svg>
