<?xml version="1.0" encoding="UTF-8" standalone="no"?>
<!--Part of Monotone: https://github.com/sixsixfive/Monotone, released under cc-by-sa_v4-->
<svg id="svg12" xmlns="http://www.w3.org/2000/svg" viewBox="0 0 16 16" version="1.1"><g id="g10" fill="#f1f2f2"><path id="path2" d="m0 10.023l4-4.023v8z"/><path id="path4" style="block-progression:tb;text-transform:none;text-indent:0" font-family="Sans" d="m9.5 8.992l-5.5 0.031v2l5.5-0.031c0.835-0.003 1.5 0.66 1.5 1.5s-0.66 1.5-1.5 1.5h-0.5v2h0.5c1.921 0 3.5-1.579 3.5-3.5s-1.574-3.508-3.5-3.5z" overflow="visible" font-weight="400"/><path id="path6" opacity=".3" style="block-progression:tb;text-transform:none;text-indent:0" font-family="Sans" d="m12.5 2.992l-5.5 0.031v2l5.5-0.031c0.835-0.003 1.5 0.66 1.5 1.5s-0.66 1.5-1.5 1.5h-0.5v2h0.5c1.921 0 3.5-1.579 3.5-3.5s-1.574-3.508-3.5-3.5z" overflow="visible" font-weight="400"/><path id="path8" opacity=".3" d="m3 4.023l4-4.023v8z"/></g></svg>
