<?xml version="1.0" encoding="UTF-8" standalone="no"?>
<!--Part of Monotone: https://github.com/sixsixfive/Monotone, released under cc-by-sa_v4-->
<svg xmlns="http://www.w3.org/2000/svg" xml:space="preserve" version="1.0" viewBox="0 0 16 16"><rect display="none" width="512" y="-495.8" x=".171" height="512" fill="none"/><g display="none" transform="translate(0 -496)"><g display="inline"><path fill="#050505" d="m349.1 256.65c-0.265-0.254 37.637 27.605 39.421 25.012 6.362-9.252 82.046-93.137 84.784-116.24 0.242-2.003-0.516-4.096-0.516-4.096s-1.19-0.144-6.325-4.314c-2.692-2.192-5.483-4.581-5.483-4.581-16.054 0.998-57.885 41.559-111.06 103.57" display="none"/></g></g><path d="m5.1708 15.201s0.82448 0.0574 1.8851-0.0346c0.42954-0.0373 2.0604-0.19503 3.2796-0.45835 0 0 1.4866-0.31331 2.2819-0.60194 0.83217-0.30201 1.285-0.55833 1.4888-0.92152-0.0089-0.0744 0.06276-0.33831-0.321-0.49682-0.981-0.405-2.119-0.332-4.3703-0.379-2.4968-0.084-3.6266-0.496-4.0691-0.827-0.42423-0.33684 0.088234-1.2669 1.9063-2.0865 0.91574-0.4364 4.8584-1.1804 4.8584-1.1804-1.2089-0.58854-3.8161-1.6844-4.2796-1.9078-0.40646-0.19593-1.4564-0.79027-1.5974-1.1472-0.15986-0.34269 0.37753-0.63788 0.67772-0.72242 0.96674-0.27462 2.7309-0.14599 3.9731-0.16515 0.62435-0.01 0.72569-0.0492 0.72569-0.0492 0.86148-0.14073 1.7279-0.72116 1.4916-1.6404-0.21212-0.93829-1.6302-1.4897-2.6933-1.2988-1.0012 0.17974-3.288 0.94279-3.288 0.94279 2.9827-0.0254 3.3557-0.0491 3.5787 0.25784 0.13167 0.18129-0.05983 0.42988-0.85531 0.55783-0.86602 0.13928-2.6662 0.30703-2.6662 0.30703-1.727 0.10101-2.5442 0.10776-2.909 0.86848-0.23836 0.49699 0.25418 0.93633 0.47007 1.2114 0.91229 0.99911 1.8307 1.538 2.6789 1.9348 0.31915 0.14931 1.2556 0.43126 1.2556 0.43126-2.7517-0.14904-4.7367 0.68306-5.9011 1.6411-1.3169 1.1995-0.8261 2.9885 1.9637 3.5095 1.3867 0.25891 2.3839 0.56492 4.7611 0.35413 1.4001-0.0743 1.6209-0.0301 1.6348 0.083 0.01965 0.15929-1.5552 0.75462-1.9851 0.87676-1.0938 0.311-3.961 0.938-3.9753 0.941z" fill-rule="evenodd" stroke-width=".093567" fill="#f1f2f2"/></svg>
