<!--Part of Monotone: https://github.com/sixsixfive/Monotone, released under cc-by-sa_v4-->
<svg xmlns="http://www.w3.org/2000/svg" viewBox="0 0 16 16">
    <path d="M3.35 0A3.326 3.326 0 0 0 .006 3.344v5.312A3.326 3.326 0 0 0 3.35 12h5.656v4l3-4h.656a3.326 3.326 0 0 0 3.344-3.344V3.344A3.326 3.326 0 0 0 12.662 0zm4.656 2a4 4 0 1 1 0 8 4 4 0 0 1 0-8zm-1.5 1.36c-.276 0-.5.316-.5.687v.656c0 .371.224.656.5.656s.5-.285.5-.656v-.656c0-.371-.224-.688-.5-.688zm3 0c-.276 0-.5.316-.5.687v.656c0 .371.225.656.5.656s.5-.285.5-.656v-.656c0-.371-.224-.688-.5-.688zm-4.5 2.198v.817c0 .36.642 1.625 2.969 1.625 2.495 0 3.031-1.164 3.031-1.625v-.773c-.48.79-1.08 1.3-3.04 1.3-2.01 0-2.54-.626-2.969-1.353z" fill="#f1f2f2"/>
</svg>
