<?xml version="1.0" encoding="UTF-8" standalone="no"?>
<!--Part of Monotone: https://github.com/sixsixfive/Monotone, released under cc-by-sa_v4-->
<svg id="svg3336" xmlns="http://www.w3.org/2000/svg" viewBox="0 0 16 16" version="1.1"><g id="g3214" transform="matrix(6.7809 0 0 6.7809 -.63570 -784.05)"><g id="g3257" transform="matrix(.0089053 0 0 .0089053 .74647 115.65)"><g id="g3027" transform="matrix(1.112 0 0 .99775 -39.249 -4.1933)"><path id="path3023" style="fill:#f1f2f2" d="m9 0c-4.2764 5.267-5.3637 10.634-6 16 0 0 4.9882-6.1678 6.5137-6.0137 1.3503 0.1367 5.4863 5.0137 5.4863 5.0137-0.313-4.783-2.52-9.9127-6-15zm0 2l1 4h1l-1 1v2l-1-1-1 1v-2l-1-1h1l1-4z" transform="matrix(14.893 0 0 16.598 -30.619 1.9621)"/></g></g></g></svg>
