<?xml version="1.0" encoding="UTF-8"?>
<svg version="1.1" viewBox="0 0 16 16" xmlns="http://www.w3.org/2000/svg">
<path d="m14.437 8-5.718 5.719c-0.196 0.196-0.463 0.281-0.719 0.281h-1v-1a1.01 1.01 0 0 1 0.281-0.719l4.281-4.281-4.28-4.281a1.01 1.01 0 0 1-0.282-0.719v-1h1a1.01 1.01 0 0 1 0.719 0.281z" style="fill:#f1f2f2"/>
<path d="M 9.437,8 3.719,13.719 C 3.523,13.915 3.256,14 3,14 H 2 V 13 A 1.01,1.01 0 0 1 2.281,12.281 L 6.562,8 2.282,3.719 A 1.01,1.01 0 0 1 2,3 V 2 h 1 a 1.01,1.01 0 0 1 0.719,0.281 z" style="fill:#f1f2f2"/>
</svg>
