<?xml version="1.0" encoding="UTF-8"?>
<svg width="16" height="16" version="1.1" viewBox="0 0 4.2333 4.2333" xmlns="http://www.w3.org/2000/svg">
<g transform="translate(0 -292.77)">
<path transform="matrix(.26458 0 0 .26458 0 292.77)" d="m0 2 2 4c0.55233 0 1.4244 0.30998 2.4395 0.83398 0.68245-0.89122 1.4424-1.7037 2.2637-2.4082 0.036224-0.031075 0.074918-0.057159 0.11133-0.087891-2.278-1.5067-4.79-2.3379-6.8145-2.3379zm11.139 6.6895c-0.45484 0.28268-0.9303 0.60459-1.416 0.96875-0.21009 0.1575-0.4228 0.35012-0.63477 0.52148 1.4692 1.3655 2.8723 2.9982 3.9121 4.8203 0-2.3918-0.72508-4.5085-1.8613-6.3105z" style="fill:#f1f2f2"/>
<path d="m0.79375 296.74c0.79375-1.3909 2.3812-2.3813 2.9104-2.3813l0.52917-1.0583c-1.3229 0-3.4396 1.3229-3.4396 3.4396z" style="fill:#f1f2f2"/>
</g>
</svg>
