<?xml version="1.0" encoding="UTF-8" standalone="no"?>
<!--Part of Monotone: https://github.com/sixsixfive/Monotone, released under cc-by-sa_v4-->
<svg id="svg2" xmlns="http://www.w3.org/2000/svg" viewBox="0 0 16 16" version="1.1"><rect id="rect821" style="paint-order:fill markers stroke;fill:#f1f2f2" height="1" width="7" y="2" x="1"/><rect id="rect823" style="paint-order:fill markers stroke;fill:#f1f2f2" height="1" width="7" y="5" x="1"/><rect id="rect825" style="paint-order:fill markers stroke;fill:#f1f2f2" transform="rotate(90)" height="1" width="9" y="-2" x="6"/><rect id="rect827" style="paint-order:fill markers stroke;fill:#f1f2f2" transform="rotate(90)" height="1" width="9" y="-8" x="6"/><rect id="rect831" style="paint-order:fill markers stroke;fill:#f1f2f2" height="1" width="6" y="11" x="2"/><rect id="rect833" style="paint-order:fill markers stroke;fill:#f1f2f2" height="1" width="6" y="13" x="2"/><path id="path835" style="color-rendering:auto;text-decoration-color:#000000;color:#000000;font-variant-numeric:normal;text-orientation:mixed;shape-padding:0;shape-rendering:auto;solid-color:#000000;text-decoration-line:none;fill:#f1f2f2;font-variant-position:normal;mix-blend-mode:normal;font-feature-settings:normal;font-variant-alternates:normal;text-indent:0;dominant-baseline:auto;font-variant-caps:normal;image-rendering:auto;white-space:normal;text-decoration-style:solid;font-variant-ligatures:normal;isolation:auto;text-transform:none" d="m4 2.0176-1 0.00391c0.00977 2.5059 0.12494 4.4061-0.046875 5.5625-0.0859 0.5782-0.2394 0.9415-0.4336 1.1426-0.1941 0.201-0.4569 0.3154-0.9902 0.3086l-0.0137 0.9978c0.7055 0.009 1.3106-0.1844 1.7227-0.6111 0.412-0.4268 0.6018-1.0095 0.7031-1.6914 0.2026-1.3639 0.0682-3.2385 0.0586-5.7129z"/><path id="path837" style="color-rendering:auto;text-decoration-color:#000000;color:#000000;font-variant-numeric:normal;text-orientation:mixed;shape-padding:0;shape-rendering:auto;solid-color:#000000;text-decoration-line:none;fill:#f1f2f2;font-variant-position:normal;mix-blend-mode:normal;font-feature-settings:normal;font-variant-alternates:normal;text-indent:0;dominant-baseline:auto;font-variant-caps:normal;image-rendering:auto;white-space:normal;text-decoration-style:solid;font-variant-ligatures:normal;isolation:auto;text-transform:none" d="m5.9902 1.9941-1 0.011719c0.021795 1.8457-0.107 3.5047 0.023437 4.7676 0.065218 0.63143 0.18723 1.1816 0.51367 1.6172 0.32644 0.43562 0.89645 0.66775 1.5156 0.61328l-0.0859-0.9961c-0.3808 0.0335-0.4936-0.0336-0.6308-0.2168-0.1373-0.1832-0.2597-0.5697-0.3164-1.1191-0.1135-1.0989 0.0028-2.7814-0.0196-4.6778z"/><rect id="rect839" style="paint-order:fill markers stroke;fill:#f1f2f2" height="1" width="5" y="13" x="10"/><rect id="rect841" style="paint-order:fill markers stroke;fill:#f1f2f2" height="1" width="5" y="9" x="10"/><rect id="rect843" style="paint-order:fill markers stroke;fill:#f1f2f2" transform="rotate(90)" height="1" width="5" y="-15" x="10"/><rect id="rect845" style="paint-order:fill markers stroke;fill:#f1f2f2" transform="rotate(90)" height="1" width="5" y="-11" x="10"/><rect id="rect847" style="paint-order:fill markers stroke;fill:#f1f2f2" height="1" width="5" y="7" x="10"/><rect id="rect849" style="paint-order:fill markers stroke;fill:#f1f2f2" transform="rotate(90)" height="1" width="5" y="-13" x="2"/><rect id="rect851" style="paint-order:fill markers stroke;fill:#f1f2f2" transform="scale(-1)" height="1" width="4" y="-5" x="-14"/><path id="path853" style="color-rendering:auto;text-decoration-color:#000000;color:#000000;font-variant-numeric:normal;text-orientation:mixed;shape-padding:0;shape-rendering:auto;solid-color:#000000;text-decoration-line:none;fill:#f1f2f2;font-variant-position:normal;mix-blend-mode:normal;font-feature-settings:normal;font-variant-alternates:normal;text-indent:0;dominant-baseline:auto;font-variant-caps:normal;image-rendering:auto;white-space:normal;text-decoration-style:solid;font-variant-ligatures:normal;isolation:auto;text-transform:none" d="m10.996 2.0039-1 0.00391c0.0028 1.1449-0.2302 1.8211-0.4726 2.3652-0.2423 0.5442-0.5605 0.9838-0.5605 1.627h1c0-0.25942 0.19884-0.60154 0.47461-1.2207 0.27577-0.61917 0.5616-1.4879 0.55859-2.7754z"/></svg>
