<?xml version="1.0" encoding="UTF-8" standalone="no"?>
<!--Part of Monotone: https://github.com/sixsixfive/Monotone, released under cc-by-sa_v4-->
<svg xmlns="http://www.w3.org/2000/svg" viewBox="0 0 16 16" version="1.1">
 <path d="m2 1c-0.554 0-1 0.446-1 1v12c0 0.554 0.446 1 1 1h12c0.554 0 1-0.446 1-1v-12c0-0.554-0.446-1-1-1h-12zm1.9844 1.9844c0.5645-0.0089 1.0244 0.4511 1.0156 1.0156 0 2.3882 0.929 4.0728 2 4.7344v-4.7344c0-0.554 0.446-1 1-1s1 0.446 1 1v4.7344c1.071-0.6616 2-2.3462 2-4.7344-0.019-1.3523 2.019-1.3523 2 0 0 3.3734-1.826 6.207-4 6.891v1.109h3c0.554 0 1 0.446 1 1s-0.446 1-1 1h-8c-0.554 0-1-0.446-1-1s0.446-1 1-1h3v-1.109c-2.1741-0.684-4-3.5176-4-6.891-0.0086-0.5523 0.4321-1.007 0.9844-1.0156z" fill="#f1f2f2"/>
</svg>
