<?xml version="1.0" encoding="UTF-8" standalone="no"?>
<!--Part of Monotone: https://github.com/sixsixfive/Monotone, released under cc-by-sa_v4-->
<svg xmlns="http://www.w3.org/2000/svg" version="1.1" xmlns:xlink="http://www.w3.org/1999/xlink" viewBox="0 0 16 16">
 <g transform="translate(0 -1036.4)" fill="#f1f2f2">
  <path style="color:#000000;text-indent:0;text-decoration-line:none;text-transform:none" d="m4.0122 1039.4c-1.6529 0-3.0122 1.3-3.0122 3 0 1.6528 1.3593 2.9878 3.0122 2.9878 1.6528 0 3.0122-1.335 3.0122-2.9878 0-1.6529-1.3593-3.0122-3.0122-3.0122z"/>
  <path style="color:#000000;text-indent:0;text-decoration-line:none;text-transform:none" d="m11.988 1039.4c-1.6528 0-3.0122 1.3593-3.0122 3.0122 0 1.6528 1.3593 2.9878 3.0122 2.9878 1.6528 0 3.0122-1.335 3.0122-2.9878 0-1.6529-1.3593-3.0122-3.0122-3.0122z"/>
  <path style="color-rendering:auto;text-decoration-color:#000000;color:#000000;font-variant-numeric:normal;shape-rendering:auto;font-variant-ligatures:normal;text-decoration-line:none;font-variant-position:normal;mix-blend-mode:normal;solid-color:#000000;font-feature-settings:normal;shape-padding:0;font-variant-alternates:normal;text-indent:0;dominant-baseline:auto;font-variant-caps:normal;image-rendering:auto;white-space:normal;text-decoration-style:solid;text-orientation:mixed;isolation:auto;text-transform:none" d="m14.006 1041.3a1.0001 1.0001 0 0 0 -1.006 1c-0.0075 0.3608-0.21424 1.285-0.76953 2.2617s-1.4409 2.0428-2.7793 2.9219a1.0001 1.0001 0 1 0 1.0977 1.6719c1.6216-1.0651 2.7217-2.3773 3.4199-3.6055 0.69825-1.2282 1.013-2.3334 1.0312-3.209a1.0001 1.0001 0 0 0 -0.99414 -1.0351z"/>
 </g>
</svg>
