<?xml version="1.0" encoding="UTF-8" standalone="no"?>
<!--Part of Monotone: https://github.com/sixsixfive/Monotone, released under cc-by-sa_v4-->
<svg id="svg4" xmlns="http://www.w3.org/2000/svg" viewBox="0 0 16 16" version="1.1"><path id="rect817" style="paint-order:fill markers stroke;fill:#f1f2f2" d="m2 1c-0.554 0-1 0.446-1 1v12c0 0.554 0.446 1 1 1h12c0.554 0 1-0.446 1-1v-12c0-0.554-0.446-1-1-1h-12zm5.9004 0.7012l1.5 2-0.3984 0.2988h1.996l-0.398-0.2988 1.5-2 0.8 0.5996-1.275 1.6992h2.375v1h-2v3h2v1h-2v5h-1v-5h-2.041c-0.0962 1.119-0.4771 2.029-0.9258 2.807-0.6207 1.075-1.6914 2.058-1.6914 2.058l-0.6836-0.728s1.0125-0.969 1.5098-1.83c0.4013-0.695 0.7043-1.412 0.7929-2.307h-1.9609v-0.9414l-1 0.5v5.4414h-3v-1h2v-3.9414l-1.7773 0.8887-0.4454-0.8946 2.2227-1.1113v-2.9414h-2v-1h2v-2h1v2h1v1h-1v2.4414l0.7773-0.3887 0.4454 0.8946-0.1055 0.0527h1.8828v-3h-1v-1h1.375l-1.2754-1.6992 0.8008-0.5996zm1.0996 3.2988v3h2v-3h-2z"/></svg>
