<?xml version="1.0" encoding="UTF-8" standalone="no"?>
<svg
   xmlns:dc="http://purl.org/dc/elements/1.1/"
   xmlns:cc="http://creativecommons.org/ns#"
   xmlns:rdf="http://www.w3.org/1999/02/22-rdf-syntax-ns#"
   xmlns:svg="http://www.w3.org/2000/svg"
   xmlns="http://www.w3.org/2000/svg"
   xmlns:sodipodi="http://sodipodi.sourceforge.net/DTD/sodipodi-0.dtd"
   xmlns:inkscape="http://www.inkscape.org/namespaces/inkscape"
   id="svg2"
   viewBox="0 0 16 16"
   version="1.1"
   sodipodi:docname="fcitx-chewing-libpinyin.svg"
   inkscape:version="0.92.2 (5c3e80d, 2017-08-06)">
  <metadata
     id="metadata23">
    <rdf:RDF>
      <cc:Work
         rdf:about="">
        <dc:format>image/svg+xml</dc:format>
        <dc:type
           rdf:resource="http://purl.org/dc/dcmitype/StillImage" />
        <dc:title></dc:title>
      </cc:Work>
    </rdf:RDF>
  </metadata>
  <defs
     id="defs21" />
  <sodipodi:namedview
     pagecolor="#ffffff"
     bordercolor="#666666"
     borderopacity="1"
     objecttolerance="10"
     gridtolerance="10"
     guidetolerance="10"
     inkscape:pageopacity="0"
     inkscape:pageshadow="2"
     inkscape:window-width="1462"
     inkscape:window-height="625"
     id="namedview19"
     showgrid="true"
     inkscape:zoom="14.75"
     inkscape:cx="-0.27118644"
     inkscape:cy="8"
     inkscape:window-x="0"
     inkscape:window-y="27"
     inkscape:window-maximized="0"
     inkscape:current-layer="svg2">
    <inkscape:grid
       type="xygrid"
       id="grid830" />
  </sodipodi:namedview>
  <path
     style="opacity:1;fill:#f1f2f2;fill-opacity:1;stroke:none;stroke-width:2;stroke-linecap:round;stroke-linejoin:bevel;stroke-miterlimit:4;stroke-dasharray:none"
     d="M 2 0 C 0.892 0 0 0.892 0 2 L 0 14 C 0 15.108 0.892 16 2 16 L 14 16 C 15.108 16 16 15.108 16 14 L 16 2 C 16 0.892 15.108 0 14 0 L 2 0 z M 5.9902344 1.9941406 C 5.9902592 1.996246 5.9902098 1.9978951 5.9902344 2 L 8 2 L 8 3 L 5.9804688 3 C 5.9737712 3.7061618 5.970385 4.4035014 5.9648438 5 L 8 5 L 8 6 L 8 15 L 7 15 L 7 14 L 2 14 L 2 15 L 1 15 L 1 6 L 1 5 L 3.0410156 5 C 3.0334915 4.4132488 3.0235447 3.706558 3.0136719 3 L 1 3 L 1 2 L 5.4902344 2 L 5.9902344 1.9941406 z M 12 2 L 13 2 L 13 4 L 14 4 L 14 5 L 13 5 L 13 7 L 15 7 L 15 8 L 10 8 L 10 7 L 12 7 L 12 5 L 10.337891 5 C 10.124476 5.4615992 9.9628906 5.7788894 9.9628906 6 L 8.9628906 6 C 8.9628906 5.3568 9.2811375 4.9172469 9.5234375 4.3730469 C 9.7658375 3.8289469 9.9988937 3.1527125 9.9960938 2.0078125 L 10.996094 2.0039062 C 10.99803 2.8322104 10.876321 3.4732894 10.71875 4 L 12 4 L 12 2 z M 4.015625 3 C 4.0268231 3.7015248 4.0384833 4.4053909 4.046875 5 L 4.9609375 5 C 4.9664835 4.3865965 4.9703165 3.6967762 4.9785156 3 L 4.015625 3 z M 2 6 L 2 8.9921875 C 2.2336195 8.9435825 2.3952396 8.8552727 2.5195312 8.7265625 C 2.7137313 8.5254625 2.867225 8.1621844 2.953125 7.5839844 C 3.015675 7.1629918 3.0336513 6.6114893 3.0390625 6 L 2 6 z M 4.0429688 6 C 4.0364365 6.6398492 4.0155079 7.2316174 3.9414062 7.7304688 C 3.8401062 8.4123687 3.6502812 8.995075 3.2382812 9.421875 C 2.9240699 9.7472184 2.4975672 9.9361249 2 10.003906 L 2 11 L 7 11 L 7 9.0019531 C 6.3979181 9.0419036 5.8460409 8.8159126 5.5273438 8.390625 C 5.2009038 7.955025 5.0788899 7.4048675 5.0136719 6.7734375 C 4.9888873 6.5334714 4.9815334 6.2671315 4.9726562 6 L 4.0429688 6 z M 5.9765625 6 C 5.9842334 6.2350105 5.9892173 6.4729274 6.0097656 6.671875 C 6.0664656 7.221275 6.1888719 7.6078156 6.3261719 7.7910156 C 6.4633719 7.9742156 6.5762313 8.0413125 6.9570312 8.0078125 L 7 8.5058594 L 7 6 L 5.9765625 6 z M 10 9 L 15 9 L 15 10 L 15 15 L 14 15 L 14 14 L 11 14 L 11 15 L 10 15 L 10 14 L 10 13 L 10 10 L 10 9 z M 11 10 L 11 13 L 14 13 L 14 10 L 11 10 z M 2 12 L 2 13 L 7 13 L 7 12 L 2 12 z "
     id="rect832" />
</svg>
