<?xml version="1.0" encoding="UTF-8" standalone="no"?>
<!--Part of Monotone: https://github.com/sixsixfive/Monotone, released under cc-by-sa_v4-->
<svg id="svg4" xmlns="http://www.w3.org/2000/svg" viewBox="0 0 16 16" version="1.1"><path id="path833" style="fill:#f1f2f2" d="m8 2c-0.1859 0.9294-1.5385 1.9634-2.9336 2.752-1.3951 0.7885-2.0664 1.248-2.0664 1.248v1s0.9713-0.4983 2-1v1l3 1e-7v2h-3v1h3v3h-5v1h11v-1h-5v-3h3v-1h-3v-2h3v-0.8691c1.016 0.5161 2 0.8691 2 0.8691v-1s-3.18-1.4668-5.0566-3.7559c0.0128-0.0497 0.0465-0.1934 0.0566-0.2441zm0.5 1.2324c1.1162 1.2148 2.043 2.1371 3.234 2.7676h-6.734c0.2375-0.121 0.3692-0.2174 0.617-0.3575 1.0953-0.619 2.2154-1.4132 2.883-2.4101z"/><rect id="rect4263" style="fill:none" height="22" width="22" y="-1.5763" x="-35.271"/></svg>
