<?xml version="1.0" encoding="UTF-8" standalone="no"?>
<!--Part of Monotone: https://github.com/sixsixfive/Monotone, released under cc-by-sa_v4-->
<svg id="svg7384" xmlns="http://www.w3.org/2000/svg" viewBox="0 0 16 16" version="1.1"><title id="title9167">Gnome Symbolic Icon Theme</title><path id="path817" style="stroke-width:.085004;fill:#f1f2f2" d="m10 14v-1l-2.2366-0.044c-2.4086-0.252-5.5739-1.059-6.571-3.3772-0.21029-0.5181-0.25703-1.6221-0.0963-2.2747 0.2899-1.177 1.0516-2.3143 1.8691-2.7909 0.0841-0.049 0.3671-0.2108 0.2353-0.5132-0.4623-1-0.1845-1.3931 0.309-1.9935 0.3356-0.4082 0.3677-0.5315 1.2238-0.8098 0.5158-0.1677 0.7552-0.2022 1.5817-0.1967 0.87514 0.00584 1.1192 0.036981 1.6661 0.24641 0.82466 0.31575 1.2175 0.55865 1.6767 1.0368 0.34065 0.3547 0.40487 0.38801 0.62267 0.32297 0.13356-0.039891 0.46743-0.29414 0.74193-0.565 0.67099-0.66211 1.221-1.0205 1.8285-1.0205 0.50559 0 0.98752 0.060411 1.1491 0.2307 0.0511 0.053844 0.0755 0.25564 0.0549 0.4534-0.0317 0.30357-0.0793 0.37725-0.32116 0.49735-0.50824 0.25236-0.57602 0.95944 0.14424 1.3409 0.87454 0.46317 1.131 0.88409 1.1218 1.8414-0.01 0.99464-0.46482 2.0236-1.2701 2.3933-0.349 0.1603-0.611 0.2053-1.291 0.2222-0.47 0.0116-1.291 0.0457-1.337 0.0754-0.051 0.0327-0.105 0.4695-0.105 1.3378v1.3485l0.58701-0.05862c0.10309-0.03213 0.44046-0.19086 0.74972-0.35275l0.666-0.35v1.4357l-0.45796 0.29574c-0.19472 0.13188-0.5321 0.30589-0.74972 0.3867l-0.79527 0.14713v2.735l-0.433-0.001h-0.564zm0-3 0.011-2.6635-0.011-3.3365c-4 0-5.8337 0.0622-6 3-0.0475 0.8547 0.1296 1.6018 0.5728 2.063 1.0385 1.198 3.4272 0.937 5.4272 0.937zm2.6884-5.2817c0.41351-0.4045 0.40516-1.0681-0.0171-1.3629-0.12176-0.084977-0.40128-0.33344-0.62116-0.55214l-0.4-0.3976c-0.65 0.5943-0.692 1.6765-0.014 2.5943 0.17343 0.12707 0.84602-0.079593 1.0526-0.2817zm-3.7905-1.8244c0-0.049606-0.0774-0.24806-0.17188-0.441-0.208-0.4245-0.5253-0.362-1.3041-0.4529-0.4215 0-0.346 0.4024-0.4584 0.4853l0.0333 0.49875 1.0132 0.020864c0.6023 0.0125 0.9904 0.0523 0.9904-0.0049z"/></svg>
