<?xml version="1.0" encoding="UTF-8" standalone="no"?>
<svg
   xmlns:dc="http://purl.org/dc/elements/1.1/"
   xmlns:cc="http://creativecommons.org/ns#"
   xmlns:rdf="http://www.w3.org/1999/02/22-rdf-syntax-ns#"
   xmlns:svg="http://www.w3.org/2000/svg"
   xmlns="http://www.w3.org/2000/svg"
   xmlns:sodipodi="http://sodipodi.sourceforge.net/DTD/sodipodi-0.dtd"
   xmlns:inkscape="http://www.inkscape.org/namespaces/inkscape"
   id="svg4"
   viewBox="0 0 16 16"
   version="1.1"
   sodipodi:docname="fcitx-handwriting-inactive.svg"
   inkscape:version="0.92.2 (5c3e80d, 2017-08-06)">
  <metadata
     id="metadata17">
    <rdf:RDF>
      <cc:Work
         rdf:about="">
        <dc:format>image/svg+xml</dc:format>
        <dc:type
           rdf:resource="http://purl.org/dc/dcmitype/StillImage" />
        <dc:title></dc:title>
      </cc:Work>
    </rdf:RDF>
  </metadata>
  <defs
     id="defs15" />
  <sodipodi:namedview
     pagecolor="#ffffff"
     bordercolor="#666666"
     borderopacity="1"
     objecttolerance="10"
     gridtolerance="10"
     guidetolerance="10"
     inkscape:pageopacity="0"
     inkscape:pageshadow="2"
     inkscape:window-width="1024"
     inkscape:window-height="480"
     id="namedview13"
     showgrid="false"
     inkscape:zoom="14.75"
     inkscape:cx="7.9322034"
     inkscape:cy="8"
     inkscape:window-x="0"
     inkscape:window-y="27"
     inkscape:window-maximized="0"
     inkscape:current-layer="svg4" />
  <path
     inkscape:connector-curvature="0"
     d="M 13.156,1 11.281,3 C 12.61,3.0259 13.946,4.2116 14,5.4375 l 2,-2 C 15.945,2.1722 14.526,0.9491 13.156,1 Z"
     style="fill:#f1f2f2;opacity:0.5"
     id="path4749" />
  <path
     inkscape:connector-curvature="0"
     d="M 2.6304,12.036 10.151,4.0015 C 11.52,3.9506 12.945,5.165 13,6.4303 L 5.51,14.224 1,16 Z"
     style="fill:#f1f2f2;opacity:0.5"
     id="path4753" />
  <path
     inkscape:connector-curvature="0"
     d="m 4.5039,0.046875 c -0.9616,-0.16008 -1.9275,0.10542 -2.5918,0.47852 -0.3176,0.17834 -0.703,0.46154 -1.0234,0.8652 -0.32045,0.4037 -0.57749,0.9529 -0.51761,1.584 0.08724,0.9205 0.72221,1.6821 1.3437,2.1777 0.25517,0.20356 0.58371,0.48297 0.74805,0.71484 0.082169,0.11594 0.11524,0.20961 0.11914,0.25 0.0039,0.040392 0.015073,0.038015 -0.046875,0.10742 -0.0856,0.096 -0.3875,0.2354 -0.7578,0.3164 -0.3702,0.081 -0.7711,0.1203 -1.1132,0.209 -0.17112,0.0444 -0.36004,0.0536 -0.55472,0.3242 -0.09735,0.1353 -0.13553,0.3677 -0.089849,0.5274 0.045682,0.1597 0.12696,0.2553 0.20703,0.3379 0.32028,0.33 0.81274,0.5781 1.791,1.041 a 0.50005,0.50005 0 1 0 0.4277,-0.9024 c -0.5508,-0.2606 -0.6227,-0.3326 -0.8711,-0.4824 0.1563,-0.0264 0.246,-0.0405 0.418,-0.0781 0.4427,-0.0968 0.9303,-0.2249 1.289,-0.627 0.2193,-0.2456 0.3251,-0.5776 0.2969,-0.8691 -0.0281,-0.2915 -0.1547,-0.5291 -0.2988,-0.7324 -0.2882,-0.4067 -0.6814,-0.7125 -0.9414,-0.92 -0.4609,-0.3675 -0.9271,-1.0305 -0.9707,-1.4902 -0.0296,-0.3122 0.0914,-0.5965 0.3047,-0.8652 0.2133,-0.2687 0.5161,-0.4969 0.7304,-0.6172 0.4564,-0.2563 1.2844,-0.47202 1.9375,-0.3633 0.3753,0.0625 0.7918,0.2057 1.1368,0.3652 0.3449,0.1595 0.6345,0.361 0.6914,0.418 a 0.50005,0.50005 0 1 0 0.707,-0.707 c -0.2381,-0.2387 -0.5651,-0.42602 -0.9785,-0.61721 -0.4135,-0.19119 -0.8976,-0.3629 -1.3926,-0.44532 z"
     style="color:#000000;font-variant-ligatures:normal;font-variant-position:normal;font-variant-caps:normal;font-variant-numeric:normal;font-variant-alternates:normal;font-feature-settings:normal;text-indent:0;text-decoration:none;text-decoration-line:none;text-decoration-style:solid;text-decoration-color:#000000;text-transform:none;text-orientation:mixed;dominant-baseline:auto;white-space:normal;shape-padding:0;isolation:auto;mix-blend-mode:normal;solid-color:#000000;fill:#f1f2f2;color-rendering:auto;image-rendering:auto;shape-rendering:auto;opacity:0.5"
     id="path4755" />
</svg>
