<?xml version="1.0" encoding="UTF-8" standalone="no"?>
<!--Part of Monotone: https://github.com/sixsixfive/Monotone, released under cc-by-sa_v4-->
<svg id="svg3062" xmlns="http://www.w3.org/2000/svg" viewBox="0 0 16 16" version="1.1" xmlns:xlink="http://www.w3.org/1999/xlink"><path id="rect4491" style="fill:#f1f2f2" d="m2 1c0 0.554-0.223 1-0.5 1-0.2393 0-0.4287-0.3394-0.4785-0.7871-0.3478 0.1785-0.63006 0.4608-0.80861 0.8086 0.44767 0.0498 0.78711 0.2392 0.78711 0.4785 0 0.277-0.446 0.5-1 0.5v1c0.554 0 1 0.223 1 0.5s-0.446 0.5-1 0.5v1c0.554 0 1 0.223 1 0.5s-0.446 0.5-1 0.5v1c0.554 0 1 0.223 1 0.5s-0.446 0.5-1 0.5v1c0.554 0 1 0.223 1 0.5s-0.446 0.5-1 0.5v1c0.554 0 1 0.223 1 0.5s-0.446 0.5-1 0.5v1c0.554 0 1 0.223 1 0.5 0 0.239-0.33944 0.429-0.78711 0.479 0.17855 0.347 0.46081 0.63 0.80861 0.808 0.0498-0.448 0.2392-0.787 0.4785-0.787 0.277 0 0.5 0.446 0.5 1h1c0-0.554 0.223-1 0.5-1s0.5 0.446 0.5 1h1c0-0.554 0.223-1 0.5-1s0.5 0.446 0.5 1h1c0-0.554 0.223-1 0.5-1s0.5 0.446 0.5 1h1c0-0.554 0.223-1 0.5-1s0.5 0.446 0.5 1h1c0-0.554 0.223-1 0.5-1s0.5 0.446 0.5 1h1c0-0.554 0.223-1 0.5-1 0.239 0 0.429 0.339 0.479 0.787 0.347-0.178 0.63-0.461 0.808-0.808-0.448-0.05-0.787-0.24-0.787-0.479 0-0.277 0.446-0.5 1-0.5v-1c-0.554 0-1-0.223-1-0.5s0.446-0.5 1-0.5v-1c-0.554 0-1-0.223-1-0.5s0.446-0.5 1-0.5v-1c-0.554 0-1-0.223-1-0.5s0.446-0.5 1-0.5v-1c-0.554 0-1-0.223-1-0.5s0.446-0.5 1-0.5v-1c-0.554 0-1-0.223-1-0.5s0.446-0.5 1-0.5v-1c-0.554 0-1-0.223-1-0.5 0-0.2393 0.339-0.4287 0.787-0.4785-0.178-0.3478-0.461-0.6301-0.808-0.8086-0.05 0.4477-0.24 0.7871-0.479 0.7871-0.277 0-0.5-0.446-0.5-1h-1c0 0.554-0.223 1-0.5 1s-0.5-0.446-0.5-1h-1c0 0.554-0.223 1-0.5 1s-0.5-0.446-0.5-1h-1c0 0.554-0.223 1-0.5 1s-0.5-0.446-0.5-1h-1c0 0.554-0.223 1-0.5 1s-0.5-0.446-0.5-1h-1c0 0.554-0.223 1-0.5 1s-0.5-0.446-0.5-1h-1zm2 2h6.834l-0.43 1.9941-4.404 0.0059-0.498 2h7.498l-1 2-3 3h3l-1 2h-4.6602l-0.3398-1 3.8691-4h-4.8691l-1 4h-2l2-10z"/></svg>
