<?xml version="1.0" encoding="UTF-8"?>
<svg version="1.1" viewBox="0 0 16 16" xmlns="http://www.w3.org/2000/svg">
<g style="opacity:.5">
<path d="m7.1543 3c0.25659 0.035094 0.49106 0.15649 0.66016 0.3418 0.68257 0.7511 0.97397 1.7112 1.0938 2.6582h3.0918v-3h-4.8457zm5.8457 0v3h3v-3h-3z" style="fill:#f1f2f2;opacity:.75;paint-order:markers fill stroke"/>
<path d="m5.4551 2c-1.8182 0.41045-1.9946 1.7928-2.4551 3-0.33968 0.8903 0.25951 1.9828-0.12305 2.8555-0.18964 0.43264-0.53454 1.0864-1 1.0059-0.67554-0.11687-0.87695-0.45669-0.87695-1.8613-0.49231 0.71003-1 1.598-1 2.7402 0 1.8831 1.123 3.7659 4.123 4.2598h1.3848c0.51757 0 1.0177-0.09084 1.4922-0.23633v-5.7637c0-0.49381 0.36075-0.88396 0.83008-0.9668 0.043205-0.168 0.074184-0.3359 0.0625-0.50391-0.062003-0.89162-0.41566-2.0045-0.89258-2.5293 0 1.3429-0.32357 2.3164-1.1855 2.2988-0.64439-0.013153-0.73141-1.1148-0.81445-1.7539-0.11106-0.8548-0.10047-1.6849 0.45508-2.5449z" style="fill:#f1f2f2;stroke-width:.07705"/>
</g>
<path d="m8.875 16a0.863 0.863 0 0 1-0.875-0.875v-6.25c0-0.492 0.383-0.875 0.875-0.875h6.25a0.863 0.863 0 0 1 0.875 0.875v6.25a0.863 0.863 0 0 1-0.875 0.875zm2.125-1h2v-1h-2zm0-2h2v-4h-2z" style="fill:#f1f2f2"/>
</svg>
