<?xml version="1.0" encoding="UTF-8"?>
<svg version="1.1" viewBox="0 0 16 16" xmlns="http://www.w3.org/2000/svg">
<path d="m2.5957 1.0078c-0.77284-0.08461-1.4123 0.56305-1.5176 1.2949-0.14353 1.4439-0.13895 2.9724 0.44141 4.3281 0.10008 0.12664 0.38966 0.92244 0.5 0.77539-0.05015 0.14007-0.15497 0.69799-0.13281 0.92188-0.00901 0.87491-0.068201 1.8013 0.25391 2.6289 0.63282 1.1141 2.0413 1.3134 2.8594 2.043-0.045856 0.87409 1.1676 1.7465 1.9473 1.959 0.2619 0.020486 0.41279 0.016443 0.60156 0.021485-0.13785-0.24768-0.28809-0.55082-0.49609-0.99219 0-0.55228 0.39498-0.98828 0.94727-0.98828s1.0527 0.43599 1.0527 0.98828c-0.23078 0.44126-0.39623 0.74452-0.54688 0.99219 0.18427-0.005302 0.32862-0.001652 0.58203-0.021485 0.77966-0.21253 1.958-1.0849 1.9121-1.959 0.81804-0.72956 2.2617-0.92882 2.8945-2.043 0.32211-0.82763 0.26097-1.754 0.25195-2.6289 0.02215-0.22386-0.082661-0.78178-0.13281-0.92188 0.11033 0.14708 0.40187-0.64874 0.50195-0.77539 0.58036-1.3558 0.58298-2.8843 0.43945-4.3281-0.1053-0.73189-0.74471-1.3795-1.5176-1.2949-1.0901 0.03486-2.0274 0.72248-2.8711 1.3496-0.7375 0.56936-1.3482 1.8469-1.6992 2.7129-0.29693-0.030746-0.58187-0.072674-0.86719-0.070312-0.28531-0.0023601-0.57026 0.039567-0.86719 0.070312-0.35101-0.8661-0.92851-2.1435-1.666-2.7129-0.8437-0.6271-1.781-1.3147-2.8711-1.3496zm0.88672 6.9766c0.57498-0.0070002 1.4824 0.061656 1.6992 0.16211 0.24622 0.11405 1.7146 1.2746 1.8027 1.5547 0.025071 0.07955 0.018564 0.18223-0.013672 0.22656-0.082755 0.11355-0.91105 0.076385-1.3359 0-1.3288-0.33407-2.0777-1.1627-2.6348-1.8828 0.027459-0.039766 0.22109-0.057387 0.48242-0.060547zm9.0352 0.015625c0.26132 0.003133 0.45497 0.021115 0.48242 0.060547-0.55706 0.71412-1.3061 1.5359-2.6348 1.8672-0.4249 0.075746-1.2532 0.1126-1.3359 0-0.032237-0.043964-0.038744-0.14378-0.013672-0.22266 0.088183-0.27767 1.5566-1.4299 1.8027-1.543 0.21692-0.099614 1.1243-0.16905 1.6992-0.16211z" style="fill:#f1f2f2;stroke-width:.066662"/>
</svg>
