<!--Part of Monotone: https://github.com/sixsixfive/Monotone, released under cc-by-sa_v4-->
<svg xmlns="http://www.w3.org/2000/svg" viewBox="0 0 16 16">
    <path style="line-height:normal;-inkscape-font-specification:Sans;text-indent:0;text-align:start;text-decoration-line:none;text-transform:none;marker:none" d="M3.313 1c-.624 0-1.009.33-1.282.594-.273.264-.463.531-.656.781s-.386.483-.5.594C.761 3.079.763 3 1 3a1 1 0 1 0 0 2c.623 0 1.008-.33 1.281-.594.273-.264.463-.562.656-.812.142-.184.27-.286.376-.407.106.12.233.223.374.407.194.25.415.547.688.812.273.265.627.594 1.25.594s1.008-.33 1.281-.594c.273-.264.494-.562.688-.812.147-.19.236-.317.343-.438.11.121.223.24.375.438.194.25.415.547.688.812.273.265.658.594 1.281.594.624 0 1.009-.33 1.281-.594.273-.264.463-.562.657-.812.142-.184.269-.286.375-.407.106.12.233.223.375.407.193.25.383.547.656.812S14.283 5 14.906 5a1 1 0 1 0 .063-2c.02.008.123.027.062-.031a6.726 6.726 0 0 1-.5-.594c-.193-.25-.383-.516-.656-.781S13.217 1 12.594 1c-.624 0-1.009.33-1.281.594-.273.264-.463.531-.657.781-.15.193-.266.348-.375.469-.11-.122-.221-.27-.375-.469a7.216 7.216 0 0 0-.687-.781C8.946 1.329 8.592 1 7.969 1c-.624 0-1.009.33-1.282.594A7.208 7.208 0 0 0 6 2.375c-.153.198-.265.348-.375.469-.108-.121-.195-.277-.344-.469a7.216 7.216 0 0 0-.687-.781C4.32 1.329 3.936 1 3.312 1zm0 5c-.624 0-1.009.33-1.282.594-.273.264-.463.531-.656.781s-.386.483-.5.594c-.114.11-.112.03.125.03A1 1 0 1 0 1 10c.623 0 1.008-.33 1.281-.594.273-.264.463-.562.656-.812.142-.184.27-.286.376-.407.106.12.233.223.374.407.194.25.415.547.688.812.273.265.627.594 1.25.594s1.008-.33 1.281-.594c.273-.264.494-.562.688-.812.147-.19.236-.317.343-.438.11.121.223.24.375.438.194.25.415.547.688.812.273.265.658.594 1.281.594.624 0 1.009-.33 1.281-.594.273-.264.463-.562.657-.812.142-.184.269-.286.375-.407.106.12.233.223.375.407.193.25.383.547.656.812s.658.594 1.281.594a1 1 0 1 0 .063-2c.02.008.123.027.062-.031a6.725 6.725 0 0 1-.5-.594c-.193-.25-.383-.516-.656-.781S13.217 6 12.594 6c-.624 0-1.009.33-1.281.594-.273.264-.463.531-.657.781-.15.193-.266.348-.375.469-.11-.122-.221-.27-.375-.469a7.216 7.216 0 0 0-.687-.781C8.946 6.329 8.592 6 7.969 6c-.624 0-1.009.33-1.282.594A7.209 7.209 0 0 0 6 7.375c-.153.198-.265.348-.375.469-.108-.121-.195-.277-.344-.469a7.215 7.215 0 0 0-.687-.781C4.32 6.329 3.936 6 3.312 6zm0 5c-.624 0-1.009.33-1.282.594-.273.264-.463.531-.656.781s-.386.483-.5.594C.761 13.079.763 13 1 13a1 1 0 1 0 0 2c.623 0 1.008-.33 1.281-.594.273-.264.463-.562.656-.812.142-.184.27-.286.376-.407.106.12.233.223.374.407.194.25.415.547.688.812.273.265.627.594 1.25.594s1.008-.33 1.281-.594c.273-.264.494-.562.688-.812.147-.19.236-.317.343-.438.11.121.223.24.375.438.194.25.415.547.688.812.273.265.658.594 1.281.594.624 0 1.009-.33 1.281-.594.273-.264.463-.562.657-.812.142-.184.269-.286.375-.407.106.12.231.252.375.438.193.25.383.516.656.781s.658.594 1.281.594a1 1 0 1 0 .063-2c.02.008.123.027.062-.031a6.726 6.726 0 0 1-.5-.594c-.193-.25-.383-.516-.656-.781S13.217 11 12.594 11c-.624 0-1.009.33-1.281.594-.273.264-.463.531-.657.781-.15.193-.266.348-.375.469-.11-.122-.221-.27-.375-.469a7.216 7.216 0 0 0-.687-.781c-.273-.265-.627-.594-1.25-.594-.624 0-1.009.33-1.282.594a7.208 7.208 0 0 0-.687.781c-.153.198-.265.348-.375.469-.108-.121-.195-.277-.344-.469a7.216 7.216 0 0 0-.687-.781C4.32 11.329 3.936 11 3.312 11z" overflow="visible" opacity=".5" color="#000" font-weight="400" font-family="Sans" fill="#f1f2f2"/>
</svg>
