<?xml version="1.0" encoding="UTF-8" standalone="no"?>
<!--Part of Monotone: https://github.com/sixsixfive/Monotone, released under cc-by-sa_v4-->
<svg xmlns="http://www.w3.org/2000/svg" version="1.1" viewBox="0 0 16 16">
 <path fill-opacity=".95420" fill="#f1f2f2" d="m2 2c-0.554 0-1 0.446-1 1v11c0 0.554 0.446 1 1 1h12c0.554 0 1-0.446 1-1v-9c0-0.554-0.446-1.0039-1-1h-3.77l-2.23-2h-6zm1 5h1c0.31 0 0.552 0.0912 0.75 0.2812l2.25 2.7188-2.252 2.719c-0.198 0.191-0.44 0.281-0.75 0.281h-1v-1c0-0.257 0.1315-0.529 0.3145-0.719l1.0332-1.281-1.0332-1.2812c-0.183-0.191-0.3125-0.4618-0.3125-0.7188v-1zm9 0h1v1c0 0.257-0.13 0.5278-0.312 0.7188l-1.034 1.2812 1.034 1.281c0.182 0.19 0.314 0.462 0.314 0.719v1h-1c-0.31 0-0.552-0.09-0.75-0.281l-2.252-2.719 2.25-2.7188c0.198-0.19 0.44-0.2812 0.75-0.2812z"/>
</svg>
