<?xml version="1.0" encoding="UTF-8" standalone="no"?>
<!--Part of Monotone: https://github.com/sixsixfive/Monotone, released under cc-by-sa_v4-->
<svg xmlns="http://www.w3.org/2000/svg" version="1.1" viewBox="0 0 16 16">
 <path d="m2 2c-0.554 0-1 0.446-1 1v11c0 0.554 0.446 1 1 1h12c0.554 0 1-0.446 1-1v-9c0-0.554-0.446-1.0039-1-1h-3.77l-2.23-2h-6zm1 3h10c0.554 0 1 0.446 1 1v7c0 0.554-0.446 1-1 1h-10c-0.554 0-1-0.446-1-1v-7c0-0.554 0.446-1 1-1z" fill="#f1f2f2"/>
 <g fill="#f1f2f2" transform="translate(-21,3)">
  <path d="m9.5 6a1.5 1.5 0 0 0 -1.5 1.5 1.5 1.5 0 0 0 0.0137 0.1855l-1.461 0.7481a1.5 1.5 0 0 0 -1.0527 -0.4336 1.5 1.5 0 0 0 -1.5 1.5 1.5 1.5 0 0 0 1.5 1.5 1.5 1.5 0 0 0 1.0234 -0.404l1.4883 0.726a1.5 1.5 0 0 0 -0.0117 0.178 1.5 1.5 0 0 0 1.5 1.5 1.5 1.5 0 0 0 1.5 -1.5 1.5 1.5 0 0 0 -1.5 -1.5 1.5 1.5 0 0 0 -1.0469 0.426l-1.4687-0.717a1.5 1.5 0 0 0 0.0156 -0.209 1.5 1.5 0 0 0 -0.0117 -0.166l1.4726-0.7539a1.5 1.5 0 0 0 1.0391 0.4199 1.5 1.5 0 0 0 1.5 -1.5 1.5 1.5 0 0 0 -1.5 -1.5z" transform="translate(21,-3)" fill="#f1f2f2"/>
 </g>
</svg>
