<?xml version="1.0" encoding="UTF-8"?>
<!--Part of Monotone: https://github.com/sixsixfive/Monotone, released under cc-by-sa_v4-->
<svg version="1.1" viewBox="0 0 16 16" xmlns="http://www.w3.org/2000/svg">
<path d="m2 5c-0.554 0-1 0.446-1 1v8c0 0.554 0.446 1 1 1h10c0.554 0 1-0.446 1-1v-6c0-0.554-0.446-1.0039-1-1h-3.77l-2.23-2zm1 3h8c0.554 0 1 0.446 1 1v4c0 0.554-0.446 1-1 1h-8c-0.554 0-1-0.446-1-1v-4c0-0.554 0.446-1 1-1z" fill="#f1f2f2"/>
<path d="m4 0c-0.554 0-1 0.446-1 1v3h1c0-0.554 0.446-1 1-1h8c0.554 0 1 0.446 1 1v7 2c0.554 0 1-0.446 1-1v-9c0-0.554-0.446-1.0039-1-1h-3.7695l-2.2305-2h-4z" fill="#f1f2f2"/>
</svg>
