<?xml version="1.0" encoding="UTF-8" standalone="no"?>
<!--Part of Monotone: https://github.com/sixsixfive/Monotone, released under cc-by-sa_v4-->
<svg xmlns="http://www.w3.org/2000/svg" version="1.1" viewBox="0 0 16 16">
 <path d="m2 2c-0.554 0-1 0.446-1 1v11c0 0.554 0.446 1 1 1h12c0.554 0 1-0.446 1-1v-9c0-0.554-0.446-1.0039-1-1h-3.77l-2.23-2zm0.5 1h5l2.24 2h3.26c0.554 0 1 0.446 1 1v7c0 0.554-0.446 1-1 1h-10c-0.554 0-1-0.446-1-1v-7c0-0.0991 0.03-0.1891 0.0566-0.2793-0.0334-0.0672-0.0566-0.1403-0.0566-0.2207v-2c0-0.277 0.223-0.5 0.5-0.5z" fill-opacity=".95420" fill="#f1f2f2"/>
</svg>
