<?xml version="1.0" encoding="UTF-8"?>
<svg version="1.1" viewBox="0 0 16 16" xmlns="http://www.w3.org/2000/svg">
<path d="m8 1a5 5 0 0 0-5 5 5 5 0 0 0 0.015625 0.32031c0.31303-0.11977 0.6428-0.19921 0.98438-0.25v-0.070312a4 4 0 0 1 4-4 4 4 0 0 1 4 4v0.070312c0.34366 0.051069 0.67549 0.13105 0.99023 0.25195a5 5 0 0 0 0.009766-0.32227 5 5 0 0 0-5-5z" style="fill-opacity:.99774;fill:#f1f2f2;paint-order:markers fill stroke"/>
<path d="m2 6c-1.108 0-2 0.892-2 2-1.4803e-16 1.108 0.892 2 2 2h12c1.108 0 2-0.892 2-2s-0.892-2-2-2h-2v1h2c0.554 0 1 0.446 1 1s-0.446 1-1 1h-12c-0.554 0-1-0.446-1-1s0.446-1 1-1h2v-1h-2z" style="fill-opacity:.99774;fill:#f1f2f2;paint-order:markers fill stroke"/>
<rect x="3.5" y="14" width="9" height="1" style="fill-opacity:.99774;fill:#f1f2f2;paint-order:markers fill stroke"/>
<path d="m3 15-1-6h1l1 6z" style="fill:#f1f2f2"/>
<path d="m12 15 1-6h1l-1 6z" style="fill:#f1f2f2"/>
<rect x="6" y="10" width="1" height="4" style="fill-opacity:.99774;fill:#f1f2f2;paint-order:markers fill stroke"/>
<rect x="9" y="10" width="1" height="4" style="fill-opacity:.99774;fill:#f1f2f2;paint-order:markers fill stroke"/>
<circle cx="7.5" cy="5.5" r=".5" style="fill-opacity:.99774;fill:#f1f2f2;paint-order:markers fill stroke"/>
<circle cx="10.5" cy="7.5" r=".5" style="fill-opacity:.99774;fill:#f1f2f2;paint-order:markers fill stroke"/>
<circle cx="9.5" cy="4.5" r=".5" style="fill-opacity:.99774;fill:#f1f2f2;paint-order:markers fill stroke"/>
<circle cx="5.5" cy="7.5" r=".5" style="fill-opacity:.99774;fill:#f1f2f2;paint-order:markers fill stroke"/>
<circle cx="6.5" cy="3.5" r=".5" style="fill-opacity:.99774;fill:#f1f2f2;paint-order:markers fill stroke"/>
</svg>
