<?xml version="1.0" encoding="UTF-8"?>
<svg version="1.1" viewBox="0 0 16 16" xmlns="http://www.w3.org/2000/svg">
<path d="m1 0v2h6c0.428 0 1 0.614 1 1v1h-5c-0.92 0-1.735 0.38375-2.25 0.96875a3.017 3.017 0 0 0-0.75 2.0312c6e-3 0.72 0.26925 1.4532 0.78125 2.0312 0.513 0.579 1.3088 0.96875 2.2188 0.96875h5.1055c0.25216-0.91904 0.97712-1.6452 1.8965-1.8965v-5.1035a3 3 0 0 0-3-3h-6.002zm2 6h5v2h-5c-0.398 0-0.56675-0.11025-0.71875-0.28125a1.144 1.144 0 0 1-0.2793-0.71875c-3e-3 -0.28 0.104-0.55375 0.25-0.71875 0.143-0.165 0.32505-0.28125 0.74805-0.28125z" style="color:#000000;fill:#f1f2f2;text-decoration-line:none;text-indent:0;text-transform:none"/>
<path d="m11 9c-1.0907 0-2 0.9093-2 2v3c0 1.091 0.9093 2 2 2h3c1.091 0 2-0.909 2-2v-3c0-1.0907-0.909-2-2-2zm0 1h3c0.554 0 1 0.446 1 1v3c0 0.554-0.446 1-1 1h-3c-0.554 0-1-0.446-1-1v-3c0-0.554 0.446-1 1-1z" style="fill:#f1f2f2"/>
<rect x="11" y="11" width="3" height="3" style="fill:#f1f2f2;paint-order:markers fill stroke"/>
</svg>
