<?xml version="1.0" encoding="UTF-8"?>
<svg version="1.1" viewBox="0 0 16 16" xmlns="http://www.w3.org/2000/svg">
<title>Gnome Symbolic Icon Theme</title>
<path d="m1 1v1 1h1v-1h1v-1h-1-1zm4 0v1h2v-1h-2zm4 0v1h2v-1h-2zm4 0v1h1v1h1v-2h-2zm-12 4v2h1v-2h-1zm13 0v2h1v-2h-1zm-13 4v2h1v-2h-1zm13 0v2h1v-2h-1zm-13 4v1 1h2v-1h-1v-1h-1zm13 0v1h-1v1h2v-1-1h-1zm-9 1v1h2v-1h-2zm4 0v1h2v-1h-2z" style="fill-opacity:.99774;fill:#f1f2f2;opacity:.5;paint-order:markers fill stroke"/>
<rect x="7" y="3" width="2" height="2" style="fill-opacity:.99774;fill:#f1f2f2;opacity:.5;paint-order:markers fill stroke"/>
<rect x="7" y="7" width="2" height="2" style="fill-opacity:.99774;fill:#f1f2f2;opacity:.5;paint-order:markers fill stroke"/>
<rect x="7" y="11" width="2" height="2" style="fill-opacity:.99774;fill:#f1f2f2;opacity:.5;paint-order:markers fill stroke"/>
<rect x="3" y="7" width="2" height="2" style="fill-opacity:.99774;fill:#f1f2f2;opacity:.5;paint-order:markers fill stroke"/>
<rect x="11" y="7" width="2" height="2" style="fill-opacity:.99774;fill:#f1f2f2;opacity:.5;paint-order:markers fill stroke"/>
<path d="m1 13 12-12h2v2l-12 12h-2z" style="fill:#f1f2f2"/>
</svg>
