<!--Part of Monotone: https://github.com/sixsixfive/Monotone, released under cc-by-sa_v4-->
<svg xmlns="http://www.w3.org/2000/svg" viewBox="0 0 16 16">
    <path style="line-height:normal;-inkscape-font-specification:Sans;text-indent:0;text-align:start;text-decoration-line:none;text-transform:none;marker:none" d="M4.5 3v2h6c.428 0 .594.267.469.719L10.625 7h-5.25c-1.839 0-3.125 1.352-3.5 2.75-.188.699-.162 1.479.25 2.156C2.537 12.584 3.373 13 4.28 13h6.75l.219-.719 1.656-6C13.341 4.712 12.18 3 10.5 3zm.875 6h4.687L9.5 11H4.28c-.398 0-.425-.084-.469-.156-.044-.073-.08-.293 0-.594C3.974 9.648 4.53 9 5.375 9z" color="#000" font-weight="400" font-family="Sans" overflow="visible" fill="#f1f2f2"/>
</svg>
