<?xml version="1.0" encoding="UTF-8" standalone="no"?>
<!--Part of Monotone: https://github.com/sixsixfive/Monotone, released under cc-by-sa_v4-->
<svg xmlns="http://www.w3.org/2000/svg" version="1.1" viewBox="0 0 16 16">
 <title>Gnome Symbolic Icon Theme</title>
 <g style="" transform="translate(-383 145)" fill="#f1f2f2">
  <path opacity=".5" d="m386-130.5a1.5 1.5 0 0 1 -1.5 1.5 1.5 1.5 0 0 1 -1.5 -1.5 1.5 1.5 0 0 1 1.5 -1.5 1.5 1.5 0 0 1 1.5 1.5z"/>
  <path d="m390-130.5a1.5 1.5 0 0 1 -1.5 1.5 1.5 1.5 0 0 1 -1.5 -1.5 1.5 1.5 0 0 1 1.5 -1.5 1.5 1.5 0 0 1 1.5 1.5z"/>
  <path opacity=".5" d="m394-130.5a1.5 1.5 0 0 1 -1.5 1.5 1.5 1.5 0 0 1 -1.5 -1.5 1.5 1.5 0 0 1 1.5 -1.5 1.5 1.5 0 0 1 1.5 1.5z"/>
  <path d="m398-130.5a1.5 1.5 0 0 1 -1.5 1.5 1.5 1.5 0 0 1 -1.5 -1.5 1.5 1.5 0 0 1 1.5 -1.5 1.5 1.5 0 0 1 1.5 1.5z"/>
  <path d="m386-134.5a1.5 1.5 0 0 1 -1.5 1.5 1.5 1.5 0 0 1 -1.5 -1.5 1.5 1.5 0 0 1 1.5 -1.5 1.5 1.5 0 0 1 1.5 1.5z"/>
  <path opacity=".5" d="m390-134.5a1.5 1.5 0 0 1 -1.5 1.5 1.5 1.5 0 0 1 -1.5 -1.5 1.5 1.5 0 0 1 1.5 -1.5 1.5 1.5 0 0 1 1.5 1.5z"/>
  <path opacity=".5" d="m394-134.5a1.5 1.5 0 0 1 -1.5 1.5 1.5 1.5 0 0 1 -1.5 -1.5 1.5 1.5 0 0 1 1.5 -1.5 1.5 1.5 0 0 1 1.5 1.5z"/>
  <path d="m398-134.5a1.5 1.5 0 0 1 -1.5 1.5 1.5 1.5 0 0 1 -1.5 -1.5 1.5 1.5 0 0 1 1.5 -1.5 1.5 1.5 0 0 1 1.5 1.5z"/>
  <path d="m394-138.5a1.5 1.5 0 0 1 -1.5 1.5 1.5 1.5 0 0 1 -1.5 -1.5 1.5 1.5 0 0 1 1.5 -1.5 1.5 1.5 0 0 1 1.5 1.5z"/>
  <path opacity=".5" d="m398-138.5a1.5 1.5 0 0 1 -1.5 1.5 1.5 1.5 0 0 1 -1.5 -1.5 1.5 1.5 0 0 1 1.5 -1.5 1.5 1.5 0 0 1 1.5 1.5z"/>
  <path d="m398-142.5a1.5 1.5 0 0 1 -1.5 1.5 1.5 1.5 0 0 1 -1.5 -1.5 1.5 1.5 0 0 1 1.5 -1.5 1.5 1.5 0 0 1 1.5 1.5z"/>
 </g>
</svg>
