<?xml version="1.0" encoding="UTF-8" standalone="no"?>
<!--Part of Monotone: https://github.com/sixsixfive/Monotone, released under cc-by-sa_v4-->
<svg id="svg4" xmlns="http://www.w3.org/2000/svg" version="1.1" viewBox="0 0 16 16"><g id="16-16-kdeconnect" transform="translate(-303 -537.36)"><rect id="rect4442" style="fill:none" height="16" width="16" y="537.36" x="303"/><path id="path850" style="stroke-width:1.9939;paint-order:fill markers stroke;fill:#f1f2f2" d="m10.982 6a0.99703 0.99707 0 0 0 -0.98 1.0137v0.1543c-0.347 0.0997-0.6754 0.25-0.9844 0.4414l-0.3047-0.3047a0.99703 0.99707 0 0 0 -0.7168 -0.3027 0.99703 0.99707 0 0 0 -0.6934 1.7109l0.3047 0.3066c-0.1914 0.3091-0.3417 0.6375-0.4414 0.9845h-0.1543a0.99703 0.99707 0 1 0 0 1.994h0.1543c0.0997 0.347 0.25 0.675 0.4414 0.984l-0.3047 0.303a0.99703 0.99707 0 1 0 1.4102 1.41l0.3047-0.302c0.309 0.191 0.6374 0.339 0.9844 0.441v0.154a0.99703 0.99707 0 1 0 1.994 0v-0.154c0.347-0.102 0.675-0.25 0.984-0.441l0.303 0.302a0.99703 0.99707 0 1 0 1.41 -1.41l-0.302-0.303c0.191-0.309 0.339-0.637 0.441-0.984h0.154a0.99703 0.99707 0 1 0 0 -1.994h-0.154c-0.102-0.347-0.25-0.6754-0.441-0.9845l0.302-0.3066a0.99703 0.99707 0 0 0 -0.722 -1.707 0.99703 0.99707 0 0 0 -0.688 0.2988l-0.303 0.3047c-0.309-0.1914-0.637-0.3417-0.984-0.4414v-0.1543a0.99703 0.99707 0 0 0 -1.014 -1.0137zm0.018 3a2 2 0 0 1 2 2 2 2 0 0 1 -2 2 2 2 0 0 1 -2 -2 2 2 0 0 1 2 -2z" transform="translate(303 537.36)"/><path id="path852" d="m304.46 538.39c-0.2572 0-0.4648 0.2076-0.4648 0.4648v13.07c0 0.257 0.2076 0.465 0.4648 0.465h2.0704c0.2572 0 0.4648-0.208 0.4648-0.465v-5.5605c0.042 0.0114 0.0832 0.0254 0.1289 0.0254h1.48c0.277 0 0.5-0.223 0.5-0.5v-2c0-0.277-0.223-0.5-0.5-0.5h-1.4711c-0.0457 0-0.0869 0.014-0.1289 0.0254v-2.0312c0.01 0.0005 0.0176 0.006 0.0273 0.006h4.47c0.277 0 0.5-0.223 0.5-0.5v-2c0-0.277-0.223-0.5-0.5-0.5-3.5-0.0256-4.5-0.0256-7.0352 0z" style="paint-order:fill markers stroke;fill:#f1f2f2"/><path id="path850-2" d="m333.5 546.36a0.50005 0.50005 0 0 0 -0.492 0.508v0.078c-0.174 0.05-0.339 0.125-0.494 0.221l-0.153-0.153a0.50005 0.50005 0 0 0 -0.359 -0.152 0.50005 0.50005 0 0 0 -0.348 0.859l0.153 0.153c-0.096 0.155-0.171 0.32-0.221 0.494h-0.078a0.50005 0.50005 0 1 0 0 1h0.078c0.05 0.174 0.125 0.339 0.221 0.494l-0.153 0.152a0.50005 0.50005 0 1 0 0.707 0.707l0.153-0.152c0.155 0.096 0.32 0.17 0.494 0.221v0.078a0.50005 0.50005 0 1 0 1 0v-0.078c0.174-0.051 0.339-0.125 0.494-0.221l0.152 0.152a0.50005 0.50005 0 1 0 0.707 -0.707l-0.152-0.152c0.096-0.155 0.17-0.32 0.221-0.494h0.078a0.50005 0.50005 0 1 0 0 -1h-0.078c-0.051-0.174-0.125-0.339-0.221-0.494l0.152-0.153a0.50005 0.50005 0 0 0 -0.363 -0.857 0.50005 0.50005 0 0 0 -0.344 0.15l-0.152 0.153c-0.155-0.096-0.32-0.171-0.494-0.221v-0.078a0.50005 0.50005 0 0 0 -0.508 -0.508zm0 2a0.5 0.5 0 0 1 0.5 0.5 0.5 0.5 0 0 1 -0.5 0.5 0.5 0.5 0 0 1 -0.5 -0.5 0.5 0.5 0 0 1 0.5 -0.5z" style="paint-order:fill markers stroke;fill:#f1f2f2"/><rect id="rect859" style="paint-order:fill markers stroke;fill:#f1f2f2" ry=".5" height="3" width="6" y="538.39" x="304"/><rect id="rect861" style="paint-order:fill markers stroke;fill:#f1f2f2" ry=".5" height="2.5913" width="4" y="543.39" x="305"/></g></svg>
