<?xml version="1.0" encoding="UTF-8"?>
<!--Part of Monotone: https://github.com/sixsixfive/Monotone, released under cc-by-sa_v4-->
<svg version="1.1" viewBox="0 0 16 16" xmlns="http://www.w3.org/2000/svg">
<path d="m2 1c-0.554 0-1 0.446-1 1v12c0 0.554 0.446 1 1 1h12c0.554 0 1-0.446 1-1v-12c0-0.554-0.446-1-1-1h-12zm7 1h2c0.554 0 1 0.446 1 1s-0.446 1-1 1h-1c-0.554 0-1 0.446-1 1v1h0.80078c0.6648 0 1.1992 0.446 1.1992 1s-0.53442 1-1.1992 1h-0.80078v2c0 0.085897-0.028644 0.16274-0.048828 0.24219a2 2 0 0 1 1.0488 1.7578 2 2 0 0 1-2 2 2 2 0 0 1-2-2 2 2 0 0 1 1.0488-1.7598c-0.019882-0.078887-0.048828-0.155-0.048828-0.24023v-2h-0.80078c-0.6648 0-1.1992-0.446-1.1992-1s0.53442-1 1.1992-1h0.80078v-1-1a2 2 0 0 1 2-2zm-1.0039 9c-0.52253 0.00261-0.99805 0.47721-0.99805 1 0 0.52423 0.47773 1.002 1.002 1.002s1.002-0.47773 1.002-1.002c0-0.52279-0.47552-0.99739-0.99805-1-0.0013302 5e-6 -0.0025745 0-0.0039062 0s-0.0025758 5e-6 -0.0039062 0z" fill="#f1f2f2"/>
</svg>
