<?xml version="1.0" encoding="UTF-8"?>
<!--Part of Monotone: https://github.com/sixsixfive/Monotone, released under cc-by-sa_v4-->
<svg version="1.1" viewBox="0 0 16 16" xmlns="http://www.w3.org/2000/svg">
<path d="m8 1c-0.22 0-0.44025 0.01125-0.65625 0.03125l-0.40625 2.0938a5.012 5.012 0 0 0-0.96875 0.3125l-1.5312-1.4668c-0.389 0.23-0.7265 0.51255-1.0625 0.81055l0.90625 1.9062a5.057 5.057 0 0 0-0.59375 0.81445l-2.0938-0.28125a6.91 6.91 0 0 0-0.40625 1.2793l1.8438 1a4.826 4.826 0 0 0-0.029297 0.5c0 0.173 0.012297 0.332 0.029297 0.5l-1.8438 1c0.097 0.445 0.22825 0.87235 0.40625 1.2812l2.0938-0.28125c0.17 0.29 0.37175 0.5635 0.59375 0.8125l-0.90625 1.9062c0.336 0.298 0.6735 0.5825 1.0625 0.8125l1.5312-1.4688c0.306 0.137 0.63375 0.2395 0.96875 0.3125l0.40625 2.0938a7.118 7.118 0 0 0 1.3125 0l0.40625-2.0938c0.334-0.073 0.66375-0.1755 0.96875-0.3125l1.5312 1.4688c0.388-0.23 0.7275-0.5145 1.0625-0.8125l-0.90625-1.9062a5.11 5.11 0 0 0 0.59375-0.8125l2.0938 0.28125a6.91 6.91 0 0 0 0.40625-1.2812l-1.8438-1c0.017-0.168 0.03125-0.327 0.03125-0.5s-0.01425-0.332-0.03125-0.5l1.8438-1a6.908 6.908 0 0 0-0.40625-1.2812l-2.0938 0.28125a5.057 5.057 0 0 0-0.59375-0.8125l0.90625-1.9062c-0.335-0.298-0.6745-0.5825-1.0625-0.8125l-1.5332 1.4688a5.015 5.015 0 0 0-0.9668-0.3125l-0.4082-2.0938a7.118 7.118 0 0 0-0.6543-0.03125zm-2 4a1 1 0 0 1 1 1 1 1 0 0 1-1 1 1 1 0 0 1-1-1 1 1 0 0 1 1-1zm4 0a1 1 0 0 1 1 1 1 1 0 0 1-1 1 1 1 0 0 1-1-1 1 1 0 0 1 1-1zm0.99609 2.9727a0.75008 0.75008 0 0 1 0.67383 1.1133c-0.67889 1.3578-2.2199 1.9141-3.6699 1.9141s-2.991-0.55629-3.6699-1.9141a0.75008 0.75008 0 0 1 0.68164-1.0957 0.75008 0.75008 0 0 1 0.6582 0.42383c0.32111 0.64223 1.2801 1.0859 2.3301 1.0859s2.009-0.44371 2.3301-1.0859a0.75008 0.75008 0 0 1 0.66602-0.44141z" style="fill:#f1f2f2"/>
</svg>
