<?xml version="1.0" encoding="UTF-8"?>
<svg version="1.1" viewBox="0 0 16 16" xmlns="http://www.w3.org/2000/svg">
<path d="m1.002 1c-0.131 0-0.26181 0.026172-0.38281 0.076172-5e-3 2e-3 -0.008672 0.00581-0.013672 0.00781-0.115 0.049-0.21959 0.11903-0.30859 0.20703l-0.003906 0.00391c-0.091 0.090999-0.16484 0.1984-0.21484 0.3164-0.052 0.123-0.076172 0.25567-0.076172 0.38867v12c0 0.1307 0.024219 0.26006 0.074219 0.38086 2e-3 0.0054 0.0077656 0.01013 0.0097656 0.01563 0.049 0.1149 0.11903 0.21959 0.20703 0.30859 1e-3 0.0013 0.002906 0.0026 0.003906 0.0039 0.091 0.0906 0.19645 0.16289 0.31445 0.21289 0.123 0.0517 0.25763 0.07828 0.39062 0.07813h11.498c-0.14009-0.1381-0.28488-0.28029-0.42383-0.41602-0.012-0.01143-0.02372-0.02316-0.03516-0.03516-0.04615-0.04958-0.18276-0.21898-0.26367-0.29102-0.12336 0.03916-0.22784 0.11037-0.35742 0.13672-0.88479 0.18766-1.7595 0.014487-2.5019-0.39453h-7.3164c-0.333 0-0.59961-0.26721-0.59961-0.59961v-1.4004h1.0859c0.21163 0.59859 0.77721 0.99911 1.4121 1 0.82843 0 1.5-0.67157 1.5-1.5s-0.67157-1.5-1.5-1.5c-0.6349 8.91e-4 -1.2005 0.40141-1.4121 1h-1.0859v-8.4004c0-0.333 0.26661-0.59961 0.59961-0.59961h1.3984v3.0879c-0.59859 0.21163-0.99911 0.77722-1 1.4121 0 0.82843 0.67157 1.5 1.5 1.5 0.6349-8.908e-4 1.2005-0.40141 1.4121-1h2.1758c0.17719 0.50117 0.60692 0.84794 1.1133 0.95312 0.47325-0.43352 1.0442-0.76071 1.6914-0.90039 0.068088-0.17132 0.10742-0.35716 0.10742-0.55273 0-0.82843-0.67157-1.5-1.5-1.5-0.6349 8.91e-4 -1.2005 0.40141-1.4121 1h-2.1758c-0.15111-0.42591-0.48619-0.761-0.91211-0.91211v-3.0879h7.4023c0.3324 0 0.59961 0.26661 0.59961 0.59961v2.9512h0.0098c0.024 0.2343 0.20545 0.41495 0.43945 0.43945v0.0097656h1.9512c0.3324 0 0.59961 0.26721 0.59961 0.59961v5.8691c0.19264 0.18955 0.38663 0.38065 0.57812 0.56836 0.1149 0.10439 0.26906 0.25913 0.42188 0.46484v-8.9414c3e-3 -0.1322-0.02211-0.26362-0.07031-0.38672-0.0476-0.1236-0.11738-0.23703-0.20898-0.33203l-2.5645-2.5605c-0.0944-0.091-0.20592-0.16294-0.32812-0.21094-0.0013 0-0.0025-9.531e-4 -0.0039-0.00195h-0.0039c-0.12191-0.047003-0.25192-0.070362-0.38282-0.068362zm11.998 2 2.002 1.998-1.002 0.0019531c-1 0-1.0001 0-1-1zm-9.5 3c0.27614 0 0.5 0.22386 0.5 0.5s-0.22386 0.5-0.5 0.5-0.5-0.22386-0.5-0.5 0.22386-0.5 0.5-0.5zm5 0c0.27614 0 0.5 0.22386 0.5 0.5s-0.22386 0.5-0.5 0.5-0.5-0.22386-0.5-0.5 0.22386-0.5 0.5-0.5zm6.5 2-1.207 0.60352c0.16631 0.24869 0.30979 0.51067 0.41211 0.79297l0.79492-0.39648zm-11.5 3c0.27614 0 0.5 0.22386 0.5 0.5s-0.22386 0.5-0.5 0.5-0.5-0.22386-0.5-0.5 0.22386-0.5 0.5-0.5z" style="fill:#f1f2f2;opacity:.5;text-decoration-line:none;text-indent:0;text-transform:none"/>
<path d="m10.718 8.001a2.726 2.726 0 0 0-2.718 2.718 2.726 2.726 0 0 0 2.718 2.719c0.488 0 0.948-0.148 1.344-0.375a0.75 0.75 0 0 0 0.156 0.219l1.844 1.811a0.7513 0.7513 0 1 0 1.063-1.062l-1.844-1.813a0.75 0.75 0 0 0-0.219-0.155c0.227-0.396 0.375-0.857 0.375-1.344a2.726 2.726 0 0 0-2.719-2.719zm0 1c0.956 0 1.72 0.763 1.72 1.718s-0.764 1.719-1.72 1.719a1.711 1.711 0 0 1-1.718-1.719c0-0.955 0.763-1.719 1.718-1.719z" font-weight="400" overflow="visible" style="fill:#f1f2f2;text-decoration-line:none;text-indent:0;text-transform:none"/>
</svg>
