<?xml version="1.0" encoding="UTF-8"?>
<svg version="1.1" viewBox="0 0 16 16" xmlns="http://www.w3.org/2000/svg" xmlns:osb="http://www.openswatchbook.org/uri/2009/osb" xmlns:xlink="http://www.w3.org/1999/xlink">
<g id="stock" transform="translate(-469.96,6.083)">
<g id="gimp-hcenter" transform="rotate(90 768.19 754.11)">
<rect transform="rotate(90)" x="1028.4" y="-24" width="24" height="24" style="fill:none"/>
<g transform="rotate(90 16 1044.3)">
<path d="m19 1048.3-3 3-3-3h2.041c0.029-1.3321-0.041-2-0.041-2h2s9e-3 0.6676 0 2z" style="fill:#f1f2f2"/>
<rect transform="matrix(0,-1,-1,0,0,0)" x="-1045.3" y="-22" width="2" height="12" style="fill:#f1f2f2;stroke-width:.8165"/>
<path d="m19 1040.3-3-3-3 3h2.041c0.029 1.3321-0.041 2-0.041 2h2s9e-3 -0.6676 0-2z" style="fill:#f1f2f2"/>
</g>
</g>
</g>
</svg>
