<?xml version="1.0" encoding="UTF-8"?>
<svg version="1.1" viewBox="0 0 12 12" xmlns="http://www.w3.org/2000/svg" xmlns:osb="http://www.openswatchbook.org/uri/2009/osb" xmlns:xlink="http://www.w3.org/1999/xlink">
<g id="stock" transform="translate(-287.52 -39.044)">
<g id="gimp-quick-mask-off" transform="translate(287.52 -1001.3)">
<path transform="translate(0 1040.4)" d="m1 1v10h10v-10h-10zm1 1h1v1h-1v-1zm2 0h1v1h-1v-1zm2 0h1v1h-1v-1zm2 0h1v1h-1v-1zm0 2h1v1h-1v-1zm-6 0.044922h1v1h-1v-1zm6 1.9551h1v1h-1v-1zm-6 0.029297h1v1h-1v-1zm2 1.9707h1v1h-1v-1zm2 0h1v1h-1v-1zm2 0h1v1h-1v-1zm-6 0.015625h1v1h-1v-1z" style="fill:#f1f2f2"/>
<path transform="translate(0 1040.4)" d="m2 2v1h1v-1h-1zm2 0v1h1v-1h-1zm2 0v1h1v-1h-1zm2 0v1h1v-1h-1zm0 2v1h1v-1h-1zm-6 0.044922v1h1v-1h-1zm6 1.9551v1h1v-1h-1zm-6 0.029297v1h1v-1h-1zm2 1.9707v1h1v-1h-1zm2 0v1h1v-1h-1zm2 0v1h1v-1h-1zm-6 0.015625v1h1v-1h-1z" style="fill:#f1f2f2;opacity:.3"/>
</g>
</g>
</svg>
