<!--Part of Monotone: https://github.com/sixsixfive/Monotone, released under cc-by-sa_v4-->
<svg viewBox="0 0 16 16" xmlns="http://www.w3.org/2000/svg">
    <path fill="none" d="M0 .001h15.998V16H0z"/>
    <path d="M15.78 0s-.114 4.062-5.844 4.03C5.071 4.005 4.968 1 4.968 1c.53 5-1 7-1 7s-.109.715-2.406.593c1.216 1.734 5.823 5.161 9.538 4.25-.543-.402-.789-.79-1.101-1.133-.083.011-.008.007-.094.008-2.15.01-3.968-1.781-3.968-1.781s4.05 1.922 5.655-.531l-.843-.907c.91.022 2.097.978 2.02 2.27-.545-.618-.49-.551-.49-.551s-.218.221-.53.531c.717.368.944.584 1.6 1.022 2.804-.684 2.914-6.75 2.43-11.771zm-4.094 4.5c.96 0 1.75.787 1.75 1.75 0 .962-.79 1.75-1.75 1.75s-1.75-.788-1.75-1.75c0-.963.79-1.75 1.75-1.75zM7.53 5C8.356 5 9 5.67 9 6.5 9 7.328 8.357 8 7.531 8a1.501 1.501 0 0 1 0-3z" style="marker:none" fill="#f1f2f2" fill-rule="evenodd" overflow="visible"/>
    <path d="M7.856 5.845a.584.584 0 0 0-.592.576c0 .318.265.576.592.576a.584.584 0 0 0 .592-.576.584.584 0 0 0-.592-.576zm4.913.398a.75.75 0 0 1-.756.743.75.75 0 0 1-.756-.743.75.75 0 0 1 .756-.743.75.75 0 0 1 .756.743z" fill="#f1f2f2"/>
    <path d="M3.753 7.497c.53 1.067.177 2.164-.791 2.45C1.993 10.233.778 9.6.247 8.534c-.531-1.066-.177-2.163.791-2.45.968-.286 2.183.347 2.715 1.413z" style="marker:none" fill="#f1f2f2" fill-rule="evenodd" overflow="visible"/>
    <path d="M13.513 13.999l.485-.606c-.95-1.223-2.96-2.436-2.96-2.436-.33-.283-.539.055-.336.357 0 0 1.506 1.899 2.811 2.685z" style="marker:none" fill="#f1f2f2" overflow="visible"/>
    <path d="M15.998 15.998c-.054-1.668-.775-3.114-2.14-2.992-1.1.099-1.236 1.777.14 1.993 2.1.329 2 1 2 1z" style="marker:none" fill="#f1f2f2" overflow="visible"/>
</svg>
