<?xml version="1.0" encoding="UTF-8"?>
<svg version="1.1" viewBox="0 0 16 16" xmlns="http://www.w3.org/2000/svg">
<path d="m2.502 2.9688c-0.82737 6.31e-5 -1.498 0.67861-1.498 1.5156 3e-7 0.83701 0.67068 1.5156 1.498 1.5156 0.63166-8.463e-4 1.1949-0.4024 1.4082-1.0039h1.0938v-1h-1.0859c-0.20637-0.61348-0.77545-1.0264-1.416-1.0273zm11 0.00391c-0.64057 9.775e-4 -1.2096 0.41386-1.416 1.0273h-1.0859v1h1.0957c0.21302 0.60082 0.77531 1.0022 1.4062 1.0039 0.82813 0.00103 1.5-0.67784 1.5-1.5156s-0.67187-1.5167-1.5-1.5156zm-7.498 0.023434v0.0039062l-0.00195 4.9961v0.0039062h3.998l2e-3 -5h-2e-3v-0.00391z" style="fill:#f1f2f2;stroke-width:.99956"/>
<path d="m5 7c-0.88883 5.481e-4 -1.6368 0.39483-2.1777 0.98242-0.54092 0.58759-0.90502 1.3549-1.168 2.1797-0.52591 1.6495-0.6465 3.5537-0.6543 4.834l1 0.0078c0.00742-1.2197 0.13713-3.064 0.60742-4.5391 0.23515-0.73751 0.55502-1.3765 0.94922-1.8047 0.3942-0.42821 0.83219-0.65978 1.4434-0.66016z" style="color-rendering:auto;color:#000000;dominant-baseline:auto;fill:#f1f2f2;font-feature-settings:normal;font-variant-alternates:normal;font-variant-caps:normal;font-variant-ligatures:normal;font-variant-numeric:normal;font-variant-position:normal;image-rendering:auto;isolation:auto;mix-blend-mode:normal;shape-padding:0;shape-rendering:auto;solid-color:#000000;text-decoration-color:#000000;text-decoration-line:none;text-decoration-style:solid;text-indent:0;text-orientation:mixed;text-transform:none;white-space:normal"/>
<path d="m11.005 7.0032c0.88883 5.481e-4 1.6368 0.39483 2.1777 0.98242 0.54092 0.58759 0.90502 1.3549 1.168 2.1797 0.52591 1.6495 0.6465 3.5537 0.6543 4.834l-1 0.0078c-0.00742-1.2197-0.13713-3.064-0.60742-4.5391-0.23514-0.73751-0.55502-1.3765-0.94922-1.8047-0.3942-0.42821-0.83219-0.65978-1.4434-0.66016z" style="color-rendering:auto;color:#000000;dominant-baseline:auto;fill:#f1f2f2;font-feature-settings:normal;font-variant-alternates:normal;font-variant-caps:normal;font-variant-ligatures:normal;font-variant-numeric:normal;font-variant-position:normal;image-rendering:auto;isolation:auto;mix-blend-mode:normal;shape-padding:0;shape-rendering:auto;solid-color:#000000;text-decoration-color:#000000;text-decoration-line:none;text-decoration-style:solid;text-indent:0;text-orientation:mixed;text-transform:none;white-space:normal"/>
</svg>
