<?xml version="1.0" encoding="UTF-8"?>
<svg version="1.1" viewBox="0 0 16 16" xmlns="http://www.w3.org/2000/svg">
<g transform="matrix(.9785 0 0 1 -1.7405 0)" font-weight="400" style="color:#000000;fill:#f1f2f2">
<path transform="matrix(1.022 0 0 1 1.7788 0)" d="m7.0547-0.0019531c-2.0669 0-3.7589 1.6814-3.8789 3.7715a0.9785 1 0 0 0-0.023437 0.23047v5.4062a0.9785 1 0 0 0 0.0019531 0.037109 0.9785 1 0 0 0-0.0019531 0.056641 2.4629 2.517 0 0 0 2.4453 2.5c1.298 0 2.3664-1.0622 2.4336-2.373a0.9785 1 0 0 0 0.013672-0.11719 0.9785 1 0 0 0 0-0.0097656 0.9785 1 0 0 0 0-0.03125v-3.4688a0.9785 1 0 0 0-1.1934-1 0.9785 1 0 0 0-0.76367 1v3.4688a0.9785 1 0 0 0 0 0.011719 0.9785 1 0 0 0 0 0.019531c0 0.288-0.20843 0.5-0.49023 0.5-0.28181 0-0.48828-0.212-0.48828-0.5a0.9785 1 0 0 0-0.0019531-0.035156 0.9785 1 0 0 0 0-0.0058594 0.9785 1 0 0 0 0.0019531-0.052734v-5.4062a0.9785 1 0 0 0 0-0.035156 1.9374 1.98 0 0 1 1.9473-1.9629 1.9374 1.98 0 0 1 1.9473 1.998 0.97654 1.002 0 0 0 0.019531 0.19531v6.4609l-2.4473 3.3438h-1.9863l-2.416-3.2422v-5.7578a0.9785 1 0 0 0-1.1934-1 0.9785 1 0 0 0-0.76367 1v5.4355a0.9785 1 0 0 0 0.21289 1.2207l2.9355 3.9375a0.9785 1 0 0 0 0.76562 0.40625h2.9355a0.9785 1 0 0 0 0.79492-0.40625l2.1562-2.9375a1.0001 1.0001 0 0 1-0.017578-0.18555v-1.4707a1.0001 1.0001 0 0 1 0.98047-0.99805v-6.002a0.9785 1 0 0 0-0.060547-0.36523c-0.18447-2.0264-1.8442-3.6367-3.8652-3.6367z" style="opacity:.5;stroke-width:.98919;text-decoration-line:none;text-indent:0;text-transform:none"/>
</g>
<path d="m11 11h1.375l1.125 1.094 1.094-1.094h1.406v1.469l-1.094 1.062 1.094 1.063v1.406h-1.438l-1.062-1.063-1.063 1.063h-1.437v-1.406l1.063-1.063-1.063-1.061z" overflow="visible" style="color:#f1f2f2;fill:#f1f2f2"/>
</svg>
