<?xml version="1.0" encoding="UTF-8"?>
<svg version="1.1" viewBox="0 0 16 16" xmlns="http://www.w3.org/2000/svg" xmlns:osb="http://www.openswatchbook.org/uri/2009/osb" xmlns:xlink="http://www.w3.org/1999/xlink">
<path d="m1.529 3.636c0.6312 0.5364 1.578 0.45896 2.1142-0.17163 0.53648-0.63148 0.4587-1.5786-0.17242-2.1148-0.63139-0.53647-1.5781-0.45903-2.1142 0.17155-0.53644 0.63128-0.45884 1.5785 0.17245 2.1148z" style="fill:#f1f2f2"/>
<path d="m6.5445 3.6565c0.63845 0.52756 1.5839 0.4374 2.1116-0.20105 0.52812-0.63843 0.43777-1.5843-0.20046-2.1118-0.63852-0.52772-1.584-0.43748-2.1118 0.20111-0.52799 0.63821-0.43771 1.5841 0.20061 2.1117z" style="fill:#f1f2f2"/>
<path d="m13.211 7.8976 1.7891-1.8976v9h-9l2.06-1.9816s-4.0457-2.806-0.79772-5.8615c3.248-3.0555 5.7549 0.9076 5.7549 0.9076z" style="fill:#f1f2f2"/>
<path d="m1.5445 8.6564c0.63838 0.52762 1.5839 0.43748 2.1116-0.20097 0.52811-0.63848 0.43769-1.5843-0.20053-2.1118-0.63843-0.52769-1.584-0.43746-2.1117 0.20104-0.52797 0.63834-0.43779 1.5841 0.2006 2.1117z" style="fill:#f1f2f2;stroke-width:.99681"/>
</svg>
