<?xml version="1.0" encoding="UTF-8"?>
<svg version="1.1" viewBox="0 0 16 16" xmlns="http://www.w3.org/2000/svg">
<path d="m1.002 1c-0.131 0-0.26181 0.026172-0.38281 0.076172-5e-3 2e-3 -0.0086719 0.0058125-0.013672 0.0078125-0.115 0.049-0.21959 0.11903-0.30859 0.20703l-0.0039062 0.0039063c-0.091 0.091-0.16484 0.19841-0.21484 0.31641-0.052 0.123-0.076172 0.25567-0.076172 0.38867v9.998c0 0.1307 0.024219 0.26201 0.074219 0.38281 2e-3 0.0054 0.0077656 0.008172 0.0097656 0.013672 0.049 0.1149 0.11903 0.21959 0.20703 0.30859 1e-3 0.0013 0.0029062 0.002606 0.0039062 0.003906 0.091 0.0906 0.19645 0.16484 0.31445 0.21484 0.12241 0.051451 0.25631 0.076075 0.38867 0.076172v-10.498c0-0.277 0.223-0.5 0.5-0.5h0.10156 7.8008 2.4766l-0.7207-0.71875c-0.0944-0.091-0.20592-0.16294-0.32812-0.21094-0.0013 0-0.002506-9.531e-4 -0.003906-0.0019531h-0.003906c-0.1219-0.047-0.25191-0.070359-0.38281-0.068359h-9.4375z" style="fill:#f1f2f2;text-decoration-line:none;text-indent:0;text-transform:none"/>
<path d="m16 14.187c-0.0226 0.1139-0.0649 0.2229-0.125 0.3223-0.0026 0.0043-0.0032 0.0094-0.0059 0.0136-0.0588 0.0958-0.1335 0.181-0.2207 0.252-0.0877 0.0708-0.1867 0.1263-0.2929 0.1641-0.0041 0.0014-0.0077 0.0025-0.0117 0.0039-0.1104 0.0388-0.2268 0.058-0.3438 0.0566h-12c-0.133 1.6e-4 -0.266-0.0264-0.389-0.0781-0.118-0.05-0.225-0.1223-0.316-0.2129-1e-3 -0.0013-3e-3 -0.0026-4e-3 -0.0039-0.088-0.089-0.158-0.1937-0.207-0.3086-2e-3 -0.0055-6e-3 -0.0102-8e-3 -0.0156-0.05-0.1208-0.076-0.2502-0.076-0.3809v-9.9995c0-0.133 0.026-0.266 0.078-0.389 0.05-0.118 0.122-0.225 0.213-0.316l4e-3 -4e-3c0.089-0.088 0.194-0.158 0.309-0.207 5e-3 -2e-3 0.01-6e-3 0.015-8e-3 0.121-0.05 0.25-0.076 0.381-0.076h9.4382c0.1309-2e-3 0.2609 0.021 0.3828 0.068h0.0039c0.0014 1e-3 0.0026 2e-3 0.0039 2e-3 0.1222 0.048 0.2337 0.12 0.3281 0.211l2.564 2.5622c0.0916 0.095 0.1633 0.2082 0.2109 0.3318 0.0482 0.1231 0.0714 0.2545 0.0684 0.3867v7.4377c0.0015 0.0312 0.0015 0.0624 0 0.0938 0.0015 0.0312 0.0015 0.0625 0 0.0937zm-1-0.7871v-4.8007c0-0.3324-0.932-0.5996-0.5996-0.5996h-1.951v-0.0098c-0.234-0.0245-0.415-0.2051-0.439-0.4394h-0.01v-2.9504c0-0.333-0.2672-0.6-0.5996-0.6h-7.8c-0.333 0-0.6 0.267-0.6 0.6v8.7995c0 0.3324 0.267 0.5996 0.6 0.5996h5.8008c0.0353 0 0.066-0.0137 0.0996-0.0195 0.0336 0.0058 0.0643 0.0195 0.0996 0.0195h4.8008c0.3324 0 0.5996-0.2672 0.5996-0.5996zm0-6.4006-2.0002-1.9996v0.9999c-1e-4 1 0 1 1 1z" style="fill:#f1f2f2;text-decoration-line:none;text-indent:0;text-transform:none"/>
<path d="m9.123 10.033c-0.466-0.065-1.046-0.13-1.531 0.25-0.403 0.315-0.829 0.977-1.157 1.28-0.328 0.305-0.66 0.438-0.594 0.438h-2.842v1h2.843c0.582 0 0.886-0.381 1.25-0.719 0.3425-0.326 0.7601-0.888 1.126-1.187 0.106-0.083 0.408-0.145 0.781-0.094 0.373 0.052 0.7 0.188 1.094 0.188 0.146 0 0.204 0.033 0.312 0.125 0.109 0.092 0.177 0.494 0.312 0.687 0.135 0.194 0.282 0.421 0.5 0.625s0.562 0.375 0.938 0.375h2.844v-1h-2.844c-0.1 0-0.152-2e-3 -0.25-0.093-0.13908-0.1449-0.2646-0.30222-0.375-0.47-0.14-0.2-0.229-0.67-0.468-0.874-0.26887-0.23569-0.61251-0.36854-0.97-0.375-0.032 0-0.502-0.092-0.968-0.156z" style="color:#000000;fill:#f1f2f2;text-decoration-line:none;text-indent:0;text-transform:none"/>
<path d="m6.499 6.0006a1.5 1.5 0 0 0-1.5 1.5 1.5 1.5 0 0 0 1.5 1.5 1.5 1.5 0 0 0 1.5-1.5 1.5 1.5 0 0 0-1.5-1.5zm0 1a0.5 0.5 0 0 1 0.5 0.5 0.5 0.5 0 0 1-0.5 0.5 0.5 0.5 0 0 1-0.5-0.5 0.5 0.5 0 0 1 0.5-0.5z" style="fill-opacity:.97034;fill:#f1f2f2"/>
</svg>
