<!--Part of Monotone: https://github.com/sixsixfive/Monotone, released under cc-by-sa_v4-->
<svg xmlns="http://www.w3.org/2000/svg" viewBox="0 0 16 16">
    <path fill="#f1f2f2" d="M8.5-.002a.923.923 0 0 0-.656.272l-.934.933.945.945A1.5 1.5 0 0 1 10 3.5a1.5 1.5 0 0 1-.148.644l2.003 2.004A1.5 1.5 0 0 1 14 7.5a1.5 1.5 0 0 1-3 0 1.5 1.5 0 0 1 .148-.645L9.145 4.852a1.5 1.5 0 0 1-.145.06v5.174a1.5 1.5 0 0 1 1 1.414 1.5 1.5 0 0 1-3 0 1.5 1.5 0 0 1 1-1.412V4.914A1.5 1.5 0 0 1 7 3.5a1.5 1.5 0 0 1 .148-.645l-.945-.945-4.93 4.93a.928.928 0 0 0 0 1.314l6.57 6.571a.925.925 0 0 0 1.313 0l6.571-6.57a.93.93 0 0 0 0-1.315L9.157.27A.923.923 0 0 0 8.5-.003z"/>
</svg>
