<?xml version="1.0" encoding="UTF-8"?>
<!--Part of Monotone: https://github.com/sixsixfive/Monotone, released under cc-by-sa_v4-->
<svg version="1.1" viewBox="0 0 16 16" xmlns="http://www.w3.org/2000/svg">
<path d="m2.334 2c-0.739 0-1.334 0.59496-1.334 1.334v9.332c0 0.739 0.59496 1.334 1.334 1.334h11.332c0.739 0 1.334-0.59496 1.334-1.334v-9.332c0-0.739-0.59496-1.334-1.334-1.334h-11.332zm10.689 0.95703c0.59848 0.010976 1.1185 0.61722 0.97656 1.2285v7.8145c0 0.554-0.446 1-1 1s-1-0.446-1-1v-5.5859l-3.2734 3.2715c-0.39457 0.41714-1.0586 0.41714-1.4531 0l-3.291-3.2891v5.6035c0 0.554-0.44095 1-0.99023 1s-0.99219-0.446-0.99219-1v-7.8535c-0.088868-0.57412 0.34577-1.1761 1.0195-1.1562 0.26977 0.0082425 0.52476 0.12517 0.70703 0.32422l4.2734 4.2305 4.2734-4.2305c0.00422-0.0047598 0.009424-0.0070638 0.013671-0.011719 0.006324-0.0064693 0.013035-0.011282 0.019532-0.017578 0.22108-0.2324 0.47311-0.33259 0.7168-0.32812z" style="fill:#f1f2f2"/>
</svg>
