<?xml version="1.0" encoding="UTF-8" standalone="no"?>
<!--Part of Monotone: https://github.com/sixsixfive/Monotone, released under cc-by-sa_v4-->
<svg xmlns="http://www.w3.org/2000/svg" version="1.1" viewBox="0 0 16 16">
 <g fill="#f1f2f2">
  <path d="m2 2c-0.554 0-1 0.446-1 1v11c0 0.554 0.446 1 1 1h12c0.554 0 1-0.446 1-1v-11c0-0.554-0.446-1-1-1v1c0 1.0907-0.909 2-2 2s-2-0.9093-2-2v-1h-4v1c0 1.0907-0.9093 2-2 2s-2-0.9093-2-2zm1 5h10c0.554 0 1 0.446 1 1v5c0 0.554-0.446 1-1 1h-10c-0.554 0-1-0.446-1-1v-5c0-0.554 0.446-1 1-1z"/>
  <rect ry="1" height="4" width="2" y="1.1102e-15" x="3" stroke-width="1.1547"/>
  <rect ry="1" height="4" width="2" y="1.1102e-15" x="11" stroke-width="1.1547"/>
  <rect ry=".5" height="1" width="3" y="8" x="4" stroke-width=".86603"/>
  <rect ry=".5" height="5" width="1" y="8" x="6"/>
  <rect ry=".5" height="1" width="3" y="12" x="4" stroke-width=".86603"/>
  <rect transform="rotate(90)" ry=".5" height="2" width="1" y="-7" x="10" stroke-width=".63246"/>
  <rect ry=".5" height="5" width="1" y="8" x="10"/>
  <rect transform="rotate(90)" ry=".5" height="2" width="1" y="-11" x="8" stroke-width=".63246"/>
  <rect ry=".5" transform="rotate(90)" height="3" width="1" y="-12" x="12" stroke-width=".77460"/>
 </g>
</svg>
