<!--Part of Monotone: https://github.com/sixsixfive/Monotone, released under cc-by-sa_v4-->
<svg xmlns="http://www.w3.org/2000/svg" viewBox="0 0 16 16">
    <path d="M13.626.004C10.3.004 9.678 4.74 11.548 4.74S16.95.004 13.626.004zM8.105 4.152c.996.061 2.088-3.8.217-3.557-1.87.243-1.213 3.496-.217 3.557zM3.543 6.551c.708-.312.091-3.36-1.113-2.529-1.203.832.405 2.84 1.113 2.53zm1.995-1.596c.843-.172.89-3.63-.614-3.01-1.504.621-.228 3.182.614 3.01zm4.402 7.738c.15 1.143-.838 1.707-1.805.97-3.079-2.344 5.098-3.513 4.559-6.716-.448-2.658-8.604-1.84-9.533 2.32-.628 2.813 2.588 6.716 5.944 6.716 1.651 0 3.556-1.49 3.912-3.38.272-1.44-3.202-.863-3.077.09z" fill="#f1f2f2"/>
</svg>
