<!--Part of Monotone: https://github.com/sixsixfive/Monotone, released under cc-by-sa_v4-->
<svg viewBox="0 0 16 16" xmlns="http://www.w3.org/2000/svg">
    <path d="M1.094 0C.49 0 0 .49 0 1.094v13.812C0 15.51.49 16 1.094 16h13.812C15.51 16 16 15.51 16 14.906V1.094C16 .49 15.51 0 14.906 0H1.094zm0 1h13.812c.067 0 .094.027.094.094V6h-1.094c-.2-.58-.755-1-1.406-1-.823 0-1.5.677-1.5 1.5 0 .245.08.45.187.656l-3 3A1.559 1.559 0 0 0 7.5 10c-.267 0-.5.065-.719.188l-1-.938C5.917 9.022 6 8.783 6 8.5 6 7.677 5.323 7 4.5 7S3 7.677 3 8.5c0 .323.134.596.313.844L1 11.719V1.094C1 1.027 1.027 1 1.094 1zM12.5 6c.282 0 .5.218.5.5 0 .282-.218.5-.5.5a.493.493 0 0 1-.5-.5c0-.282.218-.5.5-.5zm1.406 1H15v7.906c0 .067-.027.094-.094.094H1.094C1.027 15 1 14.973 1 14.906v-1.75l3.156-3.219c.119.031.217.063.344.063.171 0 .347-.04.5-.094l1.125 1.032c-.07.17-.125.367-.125.562 0 .823.678 1.5 1.5 1.5.823 0 1.5-.677 1.5-1.5 0-.216-.043-.44-.125-.625l3-3.031A1.4 1.4 0 0 0 12.5 8c.641 0 1.198-.428 1.406-1zM4.5 8c.282 0 .5.218.5.5 0 .282-.218.5-.5.5a.493.493 0 0 1-.5-.5c0-.282.218-.5.5-.5zm3 3c.282 0 .5.218.5.5 0 .282-.218.5-.5.5a.493.493 0 0 1-.5-.5c0-.282.218-.5.5-.5z" style="line-height:normal;-inkscape-font-specification:Sans;text-indent:0;text-align:start;text-decoration-line:none;text-transform:none;block-progression:tb;marker:none" color="#000" font-weight="400" font-family="Sans" overflow="visible" fill="#f1f2f2"/>
</svg>
