<!--Part of Monotone: https://github.com/sixsixfive/Monotone, released under cc-by-sa_v4-->
<svg viewBox="0 0 16 16" xmlns="http://www.w3.org/2000/svg">
    <path d="M7.969 0c-.57 0-.932.418-.969.969v1.125c.052.504.483.906 1 .906.13 0 .261-.017.375-.063A1.02 1.02 0 0 0 9 2.094V1c0-.552-.462-1-1.031-1zM6.03 2.344a6.25 6.25 0 0 0-1.81 1.031c.23.167.425.37.562.625.004.007-.004.024 0 .031.063.12.122.241.157.375.003.01-.002.022 0 .031.032.135.062.293.062.438 0 .127-.007.255-.031.375s-.08.233-.125.344a1.793 1.793 0 0 1-1.656 1.125c-.36 0-.656-.099-.938-.282-.04.114-.1.222-.125.344-.002.01.002.022 0 .031-.037.186-.074.372-.094.563v.031A6.261 6.261 0 0 0 2 8v.062c.002.186.013.381.031.563.002.02-.002.041 0 .062.02.18.058.356.094.531.033.173.076.334.125.5a2.495 2.495 0 0 1 1.062-.312c.363-.019.7.087.97.281.268.194.469.45.593.781a1.95 1.95 0 0 1 .125.72c0 .506-.415 1.173-.719 1.5.123.095.243.192.375.28.158.106.301.222.469.313.238.13.494.247.75.344.049.018.103.022.156.03-.014-.068-.031-.146-.031-.218C6 12.642 6.895 12 8 12c1.104 0 2 .642 2 1.437 0 .072-.017.15-.031.219.3-.104.599-.227.875-.375.213-.113.397-.239.593-.375.061-.043.129-.08.188-.125.047-.035.08-.088.125-.125a1.933 1.933 0 0 1-.344-.344 1.64 1.64 0 0 1-.344-.75 2.145 2.145 0 0 1-.03-.375 2.2 2.2 0 0 1 .124-.687c.003-.01-.003-.023 0-.032a1.55 1.55 0 0 1 .125-.28c.056-.094.117-.172.188-.25.074-.088.16-.15.25-.22.168-.128.346-.226.562-.28.108-.028.226-.057.344-.063.281-.016.754.097 1.125.312.045-.157.094-.306.125-.469.036-.175.073-.35.094-.53.002-.022-.002-.042 0-.063a6.293 6.293 0 0 0 0-1.25c-.02-.192-.057-.377-.094-.563-.002-.009.002-.022 0-.031-.027-.132-.081-.252-.125-.375a1.652 1.652 0 0 1-.938.281c-.5 0-.953-.197-1.28-.531a1.9 1.9 0 0 1-.22-.281A1.862 1.862 0 0 1 11 4.844c0-.31.087-.597.219-.844a1.73 1.73 0 0 1 .219-.344 1.91 1.91 0 0 1 .312-.281c-.534-.433-1.122-.802-1.781-1.031.014.068.031.147.031.218C10 3.357 9.105 4 8 4c-.69 0-1.297-.243-1.656-.625a1.435 1.435 0 0 1-.188-.25A1.106 1.106 0 0 1 6 2.562c0-.071.017-.15.031-.218zm-4.343.687a1.042 1.042 0 0 0-.625.469 1.02 1.02 0 0 0 .312 1.406l.813.5.312.188a1.2 1.2 0 0 0 .406.093 1.2 1.2 0 0 0 .438-.093 1.07 1.07 0 0 0 .344-.219A.982.982 0 0 0 4 4.656c0-.295-.128-.6-.344-.781l-.375-.219-.844-.5a.97.97 0 0 0-.75-.125zm12.25 0a.975.975 0 0 0-.376.125l-.843.5-.375.219c-.011.009-.02.021-.031.031-.216.182-.313.424-.313.719 0 .28.116.531.313.719.098.094.212.166.343.218a1.195 1.195 0 0 0 .844.032l.313-.188.812-.5a1.02 1.02 0 0 0 .313-1.406.992.992 0 0 0-1-.469zM8 6a2 2 0 1 1 0 4 1.982 1.982 0 0 1-1.406-.594c-.09-.09-.178-.175-.25-.281A2.014 2.014 0 0 1 6 8c0-.138.005-.276.031-.406A2.008 2.008 0 0 1 8 6zm0 1a.99.99 0 0 0-.906.625A.94.94 0 0 0 7 8a1 1 0 1 0 1-1zm-5.094 3.344c-.233.025-.294.084-.406.125l-.219.125-.812.5a1.02 1.02 0 0 0-.313 1.406c.3.484.938.635 1.407.344l.812-.5.281-.188c.136-.143.263-.303.313-.5A.626.626 0 0 0 4 11.47a1.205 1.205 0 0 0-.312-.781 1.101 1.101 0 0 0-.344-.282.868.868 0 0 0-.438-.062zm10.219.062c-.587 0-1.063.481-1.063 1.063a.88.88 0 0 0 .25.656l.313.219.813.5a1.03 1.03 0 0 0 1.406-.344c.3-.484.156-1.115-.313-1.406l-.812-.5c-.072-.042-.14-.089-.219-.125a1.16 1.16 0 0 0-.375-.063zM8 13c-.13 0-.255.016-.375.063-.12.046-.246.135-.344.218a.927.927 0 0 0-.343.625V15c0 .552.462 1 1.03 1C8.539 16 9 15.552 9 15v-1.094A1.014 1.014 0 0 0 8 13z" fill="#f1f2f2"/>
</svg>
