<!--Part of Monotone: https://github.com/sixsixfive/Monotone, released under cc-by-sa_v4-->
<svg viewBox="0 0 16 16" xmlns="http://www.w3.org/2000/svg">
    <path d="M4.375 0C1.267 0 0 2.083 0 4.469 0 10.255 4.47 16 6.063 16 7.655 16 10 12.031 10 12.031 10.78 13.934 12.636 16 13.844 16 15.377 16 16 15.398 16 14.437c0-.96-2.339-1.02-2.719-2.437-.38-1.417-1.243-4.938-2.844-4.938C8.838 7.063 7 9.97 7 9.97c0-2.185 1.031-2.903 1.031-5.44C8.031 1.996 7.483 0 4.375 0zM2.5 3c.387 0 .734.21 1 .531.266-.32.613-.531 1-.531.828 0 1.5.895 1.5 2s-.672 2-1.5 2c-.387 0-.734-.21-1-.531-.266.32-.613.531-1 .531C1.672 7 1 6.105 1 5s.672-2 1.5-2zm0 2a.5.5 0 1 0 0 1 .5.5 0 0 0 0-1zm2 0a.5.5 0 1 0 0 1 .5.5 0 0 0 0-1zM2 8h3s-.507.969-1.563.969C2.383 8.969 2 8 2 8z" fill="#f1f2f2"/>
</svg>
