<!--Part of Monotone: https://github.com/sixsixfive/Monotone, released under cc-by-sa_v4-->
<svg viewBox="0 0 16 16" xmlns="http://www.w3.org/2000/svg">
    <path d="M1.969.031C.879.031 0 .911 0 2v12c0 1.09.88 1.969 1.969 1.969H14.03c1.09 0 1.969-.88 1.969-1.969V2A1.965 1.965 0 0 0 14.031.031H1.97zm0 1H14.03c.553 0 .969.416.969.969v11.031a.947.947 0 0 1-.969.969H1.97a.947.947 0 0 1-.97-.969V2c0-.602.354-.969.969-.969zm.03.969v1h1L3 2H2zm2 0L4 3h1V2H4zM7 2v1h1V2H7zm2 0v1h1V2H9zm2 0v1h1V2h-1zm2 0v1h1V2h-1zM2 4v1h1V4H2zm2 0v1h1V4H4zm3 0v1h1V4H7zm2 0v1h1V4H9zm2 0v1h1V4h-1zm2 0v1h1V4h-1zm-2 2v1h-1c-.545 0-1 .455-1 1v1c0 .545.455 1 1 1h3c.545 0 1-.455 1-1V8c0-.545-.455-1-1-1h-1V6h-1zM5 7c-1.651 0-3 1.35-3 3s1.349 3 3 3c1.65 0 3-1.35 3-3S6.65 7 5 7zm0 1c1.11 0 2 .89 2 2 0 1.11-.89 2-2 2-1.11 0-2-.89-2-2 0-1.11.89-2 2-2zm5 0h3v1h-3V8zm1 3v2h1v-2h-1z" style="line-height:normal;-inkscape-font-specification:Sans;text-indent:0;text-align:start;text-decoration-line:none;text-transform:none;block-progression:tb;marker:none" color="#000" font-weight="400" font-family="Sans" overflow="visible" fill="#f1f2f2"/>
</svg>
