<!--Part of Monotone: https://github.com/sixsixfive/Monotone, released under cc-by-sa_v4-->
<svg xmlns="http://www.w3.org/2000/svg" viewBox="0 0 16 16">
    <g color="#000" font-weight="400" font-family="Sans" fill="#f1f2f2">
        <path style="line-height:normal;-inkscape-font-specification:Sans;text-indent:0;text-align:start;text-decoration-line:none;text-transform:none;marker:none" d="M4.84 1.837a1 1 0 0 0-.348.134 6.956 6.956 0 0 0-2.544 2.518c-1.94 3.33-.812 7.649 2.517 9.589 3.33 1.94 7.648.812 9.587-2.518 1.94-3.33.812-7.65-2.517-9.59a1.008 1.008 0 1 0-1.018 1.742 4.975 4.975 0 0 1 1.794 6.83 4.973 4.973 0 0 1-6.828 1.795 4.982 4.982 0 0 1-1.821-6.804l.027-.027a5.041 5.041 0 0 1 1.82-1.821 1 1 0 0 0-.669-1.848z" overflow="visible"/>
        <path style="line-height:normal;-inkscape-font-specification:Sans;text-indent:0;text-align:start;text-decoration-line:none;text-transform:none;marker:none" d="M7.781.024a1 1 0 0 0-.781 1v5a1 1 0 1 0 2 0v-5a1 1 0 0 0-1.219-1z" overflow="visible"/>
    </g>
</svg>
