<!--Part of Monotone: https://github.com/sixsixfive/Monotone, released under cc-by-sa_v4-->
<svg viewBox="0 0 16 16" xmlns="http://www.w3.org/2000/svg">
    <g fill="#f1f2f2">
        <path d="M.017 7.97v8h8v-8h-8zm2 2h4v4h-4v-4z"/>
        <path d="M7.982.014v8h8v-8h-8zm2 2h4v4h-4v-4zm-7.227-.019h2.481c.42 0 .76.356.76.8v2.398c0 .443-.34.8-.76.8H2.755c-.421 0-.76-.357-.76-.8V2.794c0-.443.339-.8.76-.8zm7.995 7.997h2.485c.421 0 .76.357.76.8v2.4c0 .444-.339.8-.76.8h-2.484c-.422 0-.76-.356-.76-.8v-2.4c0-.443.338-.8.76-.8z"/>
    </g>
</svg>
