<?xml version="1.0" encoding="UTF-8" standalone="no"?>
<!--Part of Monotone: https://github.com/sixsixfive/Monotone, released under cc-by-sa_v4-->
<svg xmlns="http://www.w3.org/2000/svg" version="1.1" viewBox="0 0 16 16">
 <path style="enable-background:new" stroke-width="1.0026" fill="#f1f2f2" d="m15 2.9373c-2.372 0.2076-4.728 0.7196-6.9554 1.5675-1.487 0.6127-3.0903 1.4124-3.8492 2.9127-0.5603 1.0476-0.1014 2.3185 0.677 3.1195 1.4223 1.4952 3.4703 2.2255 5.476 2.498 0.50607 0.10974 1.6215 0.01352 1.2162-0.75458-0.61-0.996-1.6307-1.643-2.565-2.3061 1.7324-0.063258 3.6349 0.076578 5.0426 1.1961 0.89439 0.67242 1.3142 2.0744 0.56146 3.0021-0.50041 0.6898-1.4 0.74272-2.1749 0.78203-3.0251 0.207-6.1992-0.323-8.7892-1.966-1.4509-0.921-2.7033-2.459-2.6612-4.2572 0.0544-2.22 1.452-4.2616 3.3752-5.3154 2.6132-1.4591 5.7822-1.7138 8.6802-1.1146 0.673 0.1483 1.336 0.3533 1.966 0.6365z"/>
</svg>
