<!--Part of Monotone: https://github.com/sixsixfive/Monotone, released under cc-by-sa_v4-->
<svg xmlns="http://www.w3.org/2000/svg" viewBox="0 0 16 16">
    <g font-weight="400" fill="#f1f2f2">
        <path style="line-height:normal;-inkscape-font-specification:Sans;text-indent:0;text-align:start;text-decoration-line:none;text-transform:none;marker:none" d="M6.5 2A3.515 3.515 0 0 0 3 5.5V6h2v-.5C5 4.66 5.66 4 6.5 4S8 4.66 8 5.5V12h2V5.5C10 3.579 8.42 2 6.5 2z" color="#000" font-family="Sans" overflow="visible"/>
        <path style="line-height:normal;-inkscape-font-specification:'Bitstream Vera Sans';text-indent:0;text-align:start;text-decoration-line:none;text-transform:none;marker:none" d="M13 9h-1c-.257 0-.528.13-.719.313L9 11.593l-2.281-2.28C6.529 9.13 6.257 9 6 9H5v1c0 .31.09.552.281.75L9 14.406l3.719-3.656c.19-.198.281-.44.281-.75z" color="#f1f2f2" font-family="Bitstream Vera Sans" overflow="visible"/>
    </g>
</svg>
