<?xml version="1.0" encoding="UTF-8" standalone="no"?>
<!--Part of Monotone: https://github.com/sixsixfive/Monotone, released under cc-by-sa_v4-->
<svg id="svg6" xmlns="http://www.w3.org/2000/svg" viewBox="0 0 16 16" version="1.1"><path id="path2" style="text-indent:0;text-decoration-line:none;text-transform:none;fill:#f1f2f2" d="m7.9883 0.99609c-3.842 0-6.9922 3.1492-6.9922 6.9922-0.00001 3.5437 2.6817 6.5127 6.1133 6.9527-0.0667-0.215-0.1094-0.439-0.1094-0.673 0-1.236 0.544-2.283 1.375-2.875 0.5885-0.42 1.1588-0.422 1.635-0.424v-0.742a2.981 2.981 0 0 1 -2.0217 0.769c-1.68 0-2.9844-1.3277-2.9844-3.0077s1.3034-2.9844 2.9844-2.9844c0.7971 0 1.5108 0.299 2.0447 0.7871a1.0001 1.0001 0 0 1 0.977 -0.791h0.818a1.0001 1.0001 0 0 1 0.693 0.2793c0.773 0.7438 1.662 1.5091 2.463 2.3184-0.207-3.6615-3.286-6.6016-6.9957-6.6016z"/><path id="path4" style="text-decoration-line:none;text-transform:none;text-indent:0" font-family="Sans" d="m8.005 6.006c-1.099 0-2.013 0.898-2.013 1.996 0 1.099 0.914 1.997 2.013 1.997a2.002 2.002 0 0 0 1.997 -1.997 2.002 2.002 0 0 0 -1.997 -1.996zm0 0.998a0.99 0.99 0 0 1 0.998 0.998 0.99 0.99 0 0 1 -0.998 0.999 0.99 0.99 0 0 1 -0.998 -0.999 0.99 0.99 0 0 1 0.998 -0.998z" color="#f1f2f2" overflow="visible" font-weight="400" fill="#f1f2f2"/><path id="path1008" style="fill:#f1f2f2" d="m11.01 6h0.818c2.518 2.424 5.989 4.877 3.182 7-0.092-2.716-0.934-2.798-1.94-3.04l-0.06 0.04v4.279h-0.008c-0.095 0.948-1.2 1.721-2.53 1.721-1.39 0-2.472-0.722-2.472-1.732 0-1.012 0.339-1.622 0.955-2.061 0.561-0.4 1.727-0.207 2.055-0.207z"/></svg>
