<?xml version="1.0" encoding="UTF-8" standalone="no"?>
<!--Part of Monotone: https://github.com/sixsixfive/Monotone, released under cc-by-sa_v4-->
<svg xmlns="http://www.w3.org/2000/svg" version="1.1" viewBox="0 0 16 16">
 <path opacity=".5" style="text-decoration-line:none;text-transform:none;text-indent:0" fill="#f1f2f2" d="m7.7734 1.0273a6.964 6.964 0 0 0 -3.3086 0.9454c-0.6106 0.3557-1.1443 0.794-1.6015 1.289-0.0983 0.1064-0.1884 0.2184-0.2793 0.3301a6.956 6.956 0 0 0 -0.1895 0.2305 6.956 6.956 0 0 0 -0.4472 0.666c-0.3278 0.5626-0.5601 1.1549-0.7168 1.7578-0.0514 0.1976-0.0934 0.396-0.127 0.5957-0.0058 0.0339-0.0122 0.0676-0.0176 0.1016-0.0245 0.16-0.0413 0.3199-0.0547 0.4804-0.0072 0.0821-0.0151 0.1638-0.0195 0.2461-0.0051 0.107-0.0056 0.2135-0.0058 0.3203-0.0011 0.14-0.0015 0.2798 0.0058 0.42 0.0037 0.0634 0.0103 0.1262 0.0156 0.1894 0.0135 0.1697 0.0327 0.3387 0.0586 0.5078 0.0054 0.034 0.0118 0.0677 0.0176 0.1016 0.0336 0.1996 0.0756 0.3981 0.127 0.5957 0.1568 0.6023 0.389 1.1953 0.7168 1.7573a6.956 6.956 0 0 0 0.4257 0.635c0.0768 0.105 0.1614 0.203 0.2442 0.303a6.956 6.956 0 0 0 0.168 0.203c0.4738 0.531 1.0339 0.999 1.6796 1.375a6.98 6.98 0 0 0 4.2813 0.899 4.5 4.5 0 0 1 -0.709 -1.959 4.973 4.973 0 0 1 -2.5547 -0.68 4.982 4.982 0 0 1 -0.7969 -0.574 4.982 4.982 0 0 1 -0.0097 -0.008 5.041 5.041 0 0 1 -0.9863 -1.211l-0.0157-0.016a4.982 4.982 0 0 1 -0.1035 -0.193 4.982 4.982 0 0 1 -0.1094 -0.213 4.982 4.982 0 0 1 -0.0976 -0.2324 4.982 4.982 0 0 1 -0.0879 -0.2246 4.982 4.982 0 0 1 -0.0703 -0.2285 4.982 4.982 0 0 1 -0.0742 -0.2637 4.982 4.982 0 0 1 -0.0371 -0.1855 4.982 4.982 0 0 1 -0.0528 -0.3086 4.982 4.982 0 0 1 -0.0195 -0.1992 4.982 4.982 0 0 1 -0.0215 -0.2813 4.982 4.982 0 0 1 0.002 -0.2402 4.982 4.982 0 0 1 0.0058 -0.2617 4.982 4.982 0 0 1 0.0215 -0.2071 4.982 4.982 0 0 1 0.0371 -0.2929 4.982 4.982 0 0 1 0.0449 -0.211 4.982 4.982 0 0 1 0.0606 -0.2656 4.982 4.982 0 0 1 0.0683 -0.2168 4.982 4.982 0 0 1 0.0879 -0.2637 4.982 4.982 0 0 1 0.0801 -0.1875 4.982 4.982 0 0 1 0.1289 -0.2832 4.982 4.982 0 0 1 0.0352 -0.0664 4.982 4.982 0 0 1 0.1113 -0.1914l0.0059-0.0058a5.041 5.041 0 0 1 0.2714 -0.4161 5.041 5.041 0 0 1 0.0079 -0.0117 5.041 5.041 0 0 1 0.2695 -0.3359 4.982 4.982 0 0 1 0.084 -0.0938 5.041 5.041 0 0 1 0.2109 -0.2148 4.982 4.982 0 0 1 0.2188 -0.1992 5.041 5.041 0 0 1 0.0781 -0.0664 4.982 4.982 0 0 1 0.6523 -0.4532 4.973 4.973 0 0 1 5.0356 -0.0019 4.973 4.973 0 0 1 0.015 0.0098 4.975 4.975 0 0 1 0.369 0.2402 4.973 4.973 0 0 1 0.049 0.0371 4.975 4.975 0 0 1 0.287 0.2285 4.973 4.973 0 0 1 0.149 0.1289 4.975 4.975 0 0 1 0.166 0.1641 4.973 4.973 0 0 1 0.199 0.2129 4.975 4.975 0 0 1 0.102 0.1211 4.973 4.973 0 0 1 0.234 0.3066 4.973 4.973 0 0 1 0.014 0.0176 4.975 4.975 0 0 1 0.025 0.041 4.973 4.973 0 0 1 0.184 0.2891 4.975 4.975 0 0 1 0.23 0.4414 4.975 4.975 0 0 1 0.178 0.4433 4.975 4.975 0 0 1 0.035 0.1133 4.975 4.975 0 0 1 0.103 0.3613 4.975 4.975 0 0 1 0.036 0.1778 4.975 4.975 0 0 1 0.052 0.2851 4.975 4.975 0 0 1 0.028 0.3028 4.975 4.975 0 0 1 0.015 0.1894 4.975 4.975 0 0 1 0 0.2051 4.5 4.5 0 0 1 1.963 0.7012 7.007 7.007 0 0 0 0.035 -1.0059c0-0.0157-0.003-0.0312-0.004-0.0469a7.007 7.007 0 0 0 -0.466 -2.205 7.007 7.007 0 0 0 -0.463 -0.9825c-0.192-0.3293-0.412-0.6307-0.647-0.916-0.161-0.1973-0.331-0.3861-0.515-0.5664-0.033-0.0316-0.067-0.0609-0.1-0.0918-0.205-0.1931-0.423-0.3773-0.654-0.5469-0.193-0.1408-0.391-0.2757-0.602-0.3984a1.009 1.009 0 0 0 -0.14 -0.0664c-1.105-0.6071-2.3583-0.91402-3.6216-0.877zm-1.9082 5.9961a0.853 1 0 0 0 0 2h3.7832a4.5 4.5 0 0 1 1.3226 -0.75 0.853 1 0 0 0 0.008 -0.4668h0.001a0.853 1 0 0 0 -0.853 -0.7832h-4.2618z"/>
 <path style="color:#f1f2f2" d="m12.5 9a3.5 3.5 0 1 0 0 7 3.5 3.5 0 0 0 0 -7zm-2.5 2.969h5v1.031h-5z" class="error" overflow="visible" fill="#f1f2f2"/>
</svg>
