<?xml version="1.0" encoding="UTF-8" standalone="no"?>
<!--Part of Monotone: https://github.com/sixsixfive/Monotone, released under cc-by-sa_v4-->
<svg xmlns="http://www.w3.org/2000/svg" viewBox="0 0 16 16" version="1.1" xmlns:xlink="http://www.w3.org/1999/xlink">
<defs>
<linearGradient id="linearGradient897" y2="13.742" gradientUnits="userSpaceOnUse" x2="15" y1="10" x1="15">
<stop stop-color="#f1f2f2" offset="0"/>
<stop stop-color="#f1f2f2" stop-opacity="0" offset="1"/>
</linearGradient>
<linearGradient id="linearGradient905" y2="11" gradientUnits="userSpaceOnUse" x2="12" y1="7" x1="12">
<stop stop-color="#f1f2f2" offset="0"/>
<stop stop-color="#f1f2f2" stop-opacity="0" offset="1"/>
</linearGradient>
</defs>
<path style="color:#f1f2f2" d="m10 8a2 2 0 0 1 -2 2 2 2 0 0 1 -2 -2 2 2 0 0 1 2 -2 2 2 0 0 1 2 2z" overflow="visible" stroke-width=".66667" fill="#f1f2f2"/>
<path d="m8 1a7 7 0 0 0 -7 7 7 7 0 0 0 3 5.7344l0.00195-1.2031c0.0000122-0.02023 0.00538-0.0385 0.00586-0.05859a6 6 0 0 1 -2.0079 -4.472 6 6 0 0 1 6 -6 6 6 0 0 1 6 6 6 6 0 0 1 -2.0059 4.4688c0.00066 0.02403 0.0059 0.04602 0.0059 0.07031v1.2031a7 7 0 0 0 3 -5.742 7 7 0 0 0 -7 -7z" fill="url(#linearGradient897)"/>
<path d="m8 3a5 5 0 0 0 -5 5 5 5 0 0 0 1.293 3.3457c0.12987-0.26099 0.28875-0.49799 0.4707-0.6875 0.046074-0.04799 0.094878-0.08531 0.14258-0.12695a4 4 0 0 1 -0.9063 -2.532 4 4 0 0 1 4 -4 4 4 0 0 1 4 4 4 4 0 0 1 -0.93945 2.5742c0.2573 0.22237 0.47767 0.48086 0.63867 0.7793a5 5 0 0 0 1.3 -3.353 5 5 0 0 0 -5 -5z" fill="url(#linearGradient905)"/>
<path d="m9.533 10.75c-0.4236 0.38338-0.924 0.55754-1.533 0.55754-0.6096 0-1.1118-0.17846-1.5354-0.56246-0.6654 0.22338-1.4616 0.79261-1.4622 1.7858l-0.0024 1.854c0 0.341 0.2676 0.615 0.6 0.615h4.8c0.332 0 0.6-0.274 0.6-0.615v-1.846c0-0.85354-0.6612-1.5729-1.467-1.7883z" stroke-width=".60764" fill="#f1f2f2"/>
</svg>
