<?xml version="1.0" encoding="UTF-8" standalone="no"?>
<!--Part of Monotone: https://github.com/sixsixfive/Monotone, released under cc-by-sa_v4-->
<svg id="svg4" xmlns="http://www.w3.org/2000/svg" version="1.1" viewBox="0 0 16 16"><path id="path2" style="stroke-width:1.1667;fill:#f1f2f2" d="m8.2051 1.0039a7 7 0 0 0 -7.2051 6.9961 7 7 0 1 0 14 0 7 7 0 0 0 -6.7949 -6.9961zm-0.0586 1.9981a5 5 0 0 1 4.8535 4.998 5 5 0 0 1 -10 0 5 5 0 0 1 5.1465 -4.998z"/><path id="path4491" style="color-rendering:auto;text-decoration-color:#000000;color:#000000;font-variant-numeric:normal;text-orientation:mixed;shape-padding:0;shape-rendering:auto;solid-color:#000000;text-decoration-line:none;fill:#f1f2f2;font-variant-position:normal;mix-blend-mode:normal;font-feature-settings:normal;font-variant-alternates:normal;text-indent:0;dominant-baseline:auto;font-variant-caps:normal;image-rendering:auto;white-space:normal;text-decoration-style:solid;font-variant-ligatures:normal;isolation:auto;text-transform:none" d="m5.6387 6.9961a0.6478 0.6478 0 0 0 -0.4317 1.1211l0.9219 0.8867-0.916 0.8828a0.6478 0.6478 0 1 0 0.8984 0.9313l1.8848-1.8141-1.8887-1.8203a0.6478 0.6478 0 0 0 -0.46875 -0.1875z"/><path id="path4498" style="color-rendering:auto;text-decoration-color:#000000;color:#000000;font-variant-numeric:normal;text-orientation:mixed;shape-padding:0;shape-rendering:auto;solid-color:#000000;text-decoration-line:none;fill:#f1f2f2;font-variant-position:normal;mix-blend-mode:normal;font-feature-settings:normal;font-variant-alternates:normal;text-indent:0;dominant-baseline:auto;font-variant-caps:normal;image-rendering:auto;white-space:normal;text-decoration-style:solid;font-variant-ligatures:normal;isolation:auto;text-transform:none" d="m10.342 4.9902a0.6481 0.6481 0 0 0 -0.4494 0.1856l-1.8887 1.8164 1.8926 1.8203a0.6481 0.6481 0 1 0 0.8985 -0.9336l-0.922-0.8867 0.916-0.8809a0.6481 0.6481 0 0 0 -0.447 -1.1211z"/></svg>
