<?xml version="1.0" encoding="UTF-8" standalone="no"?>
<!--Part of Monotone: https://github.com/sixsixfive/Monotone, released under cc-by-sa_v4-->
<svg xmlns="http://www.w3.org/2000/svg" xmlns:osb="http://www.openswatchbook.org/uri/2009/osb" version="1.1" viewBox="0 0 16 16">
 <g id="grid-axonometric" transform="translate(-225 -931.36)">
  <path style="color:#000000" fill="#f1f2f2" d="m5.0566 1l1.2481 0.7188-3.3047 1.791v-0.5098h-0.9941v0.8574l-1.0059-0.5918v1.2344l0.082 0.0488-0.082 0.045v1.1484l1.0059-0.5449v4.6367l-1.0059-0.5645v1.1625l0.0566 0.031-0.0566 0.033v1.219l1.0059-0.59v2.875h0.9941v-2.455l3.5527 1.978-2.3945 1.477h1.9492l0.8926-0.551v0.551h0.9941v-0.674l1.211 0.674h2.0329l-2.6892-1.506 3.4372-2.119v2.625h0.994v-2.469l1.02 0.598v-1.219l-0.645-0.379 0.645-0.396v-1.2014l-1.02 0.6289v-4.0039l1.02 0.5859v-1.1777l-0.758-0.4336 0.758-0.4453v-1.2168l-1.02 0.5977v-0.4688h-0.994v0.8145l-3.613-2.0684 1.379-0.7461h-2.1211-0.5625-2.0118zm1.9434 1.4922v4.3027l-3.8086-2.2402 3.8086-2.0625zm0.9941 0.1973l3.1899 1.8339-3.1899 1.8711v-3.705zm3.9919 2.58v4.4571l-3.7926-2.2305 3.7926-2.2266zm-8.986 0.4063l3.1094 1.8242-3.1094 1.8242v-3.6484zm4 2.5215v4.4317l-3.8672-2.164 3.8672-2.2677zm0.9941 0.4082l3.3499 1.9645-3.3499 2.067v-4.0315z" transform="translate(225 931.36)"/>
 </g>
</svg>
