<?xml version="1.0" encoding="UTF-8" standalone="no"?>
<!--Part of Monotone: https://github.com/sixsixfive/Monotone, released under cc-by-sa_v4-->
<svg xmlns="http://www.w3.org/2000/svg" version="1.1" viewBox="0 0 16 16">
 <path d="m7.8167 3c1.643-0.092 3.096 1.17 3.188 2.812 0 1.402-0.378 1.922-1.594 2.844-0.191 0.144-0.326 0.25-0.375 0.312-0.05 0.063-0.031 0.034-0.031 0.032 0.007 0.528-0.472 1-1 1-0.529 0-1.007-0.472-1-1 0-0.503 0.224-0.944 0.468-1.25a3.82 3.82 0 0 1 0.72 -0.688c0.203-0.16 0.46-0.384 0.687-0.656 0.093-0.112 0.129-0.308 0.125-0.438v-0.03a0.988 0.988 0 0 0 -1.063 -0.938c-0.563 0.031-0.969 0.436-0.937 1h-2c-0.092-1.643 1.17-2.908 2.812-3zm0.188 8a1 1 0 1 1 0 2 1 1 0 0 1 0 -2z" overflow="visible" fill="#f1f2f2"/>
</svg>
