<?xml version="1.0" encoding="UTF-8" standalone="no"?>
<!--Part of Monotone: https://github.com/sixsixfive/Monotone, released under cc-by-sa_v4-->
<svg xmlns="http://www.w3.org/2000/svg" viewBox="0 0 16 16" version="1.1">
 <path style="text-decoration-line:none;text-transform:none;text-indent:0" fill="#f1f2f2" d="m1.814 0.000038167c-0.1139 0.0226-0.2229 0.0649-0.3223 0.125-0.0043 0.0026-0.0094 0.0032-0.0136 0.0059-0.0958 0.0588-0.181 0.1335-0.252 0.2207-0.0708 0.0877-0.1263 0.1867-0.1641 0.2929-0.0014 0.0041-0.0025 0.0077-0.0039 0.0117-0.0388 0.1104-0.058 0.2268-0.0566 0.3438v14c-0.00016 0.133 0.0264 0.266 0.0781 0.389 0.05 0.118 0.1223 0.225 0.2129 0.316 0.0013 0.001 0.0026 0.003 0.0039 0.004 0.089 0.088 0.1937 0.158 0.3086 0.207 0.0055 0.002 0.0102 0.006 0.0156 0.008 0.1208 0.05 0.2502 0.076 0.3809 0.076h12c0.133 0 0.266-0.026 0.389-0.078 0.118-0.05 0.225-0.122 0.316-0.213l0.004-0.004c0.088-0.089 0.158-0.194 0.207-0.309 0.002-0.005 0.006-0.01 0.008-0.015 0.05-0.121 0.076-0.25 0.076-0.381v-11.438c0.002-0.1309-0.021-0.2609-0.068-0.3828v-0.0039c-0.001-0.0014-0.002-0.0026-0.002-0.0039-0.048-0.1222-0.12-0.2337-0.211-0.3281l-2.5622-2.564c-0.095-0.0916-0.2082-0.1633-0.3318-0.2109-0.1231-0.0482-0.2545-0.0714-0.3867-0.0684h-9.4384c-0.0312-0.0015-0.0624-0.0015-0.0938 0-0.0312-0.0015-0.0625-0.0015-0.0937 0zm0.7871 0.99996h6.8012c0.3324 0 0.5996 0.2672 0.5996 0.5996v1.951h0.0098c0.0245 0.234 0.2051 0.415 0.4394 0.439v0.01h2.9504c0.333 0 0.6 0.2672 0.6 0.5996v9.7998c0 0.333-0.267 0.6-0.6 0.6h-10.8c-0.3324 0-0.5996-0.267-0.5996-0.6v-7.8005c0-0.0353 0.0137-0.066 0.0195-0.0996-0.0058-0.0336-0.0195-0.0643-0.0195-0.0996v-4.8008c0-0.3324 0.2672-0.5996 0.5996-0.5996zm8.4011 0 1.9996 2.0002h-0.9999c-1 0.0001-1 0-1-1z"/>
 <path style="text-decoration-color:#000000;color:#000000;isolation:auto;mix-blend-mode:normal;text-indent:0;text-decoration-line:none;white-space:normal;text-transform:none;text-decoration-style:solid" fill="#f1f2f2" d="m8.943 13v-2h-1.9199c0.055 0-0.083985-0.15903-0.083985-0.08203v-0.9239h1.0039c1.716 0 3.0316-1.1254 3.0566-2.4844 0.012-0.68-0.30633-1.3613-0.86133-1.8203-0.556-0.46-1.3173-0.70117-2.1953-0.70117h-3.0039v5.9297c0 1.171 0.88698 2.082 2.084 2.082zm-1-5.0039v-0.002h-1.0039v-1.0039h1.0039c0.52 0 0.79588 0.13719 0.92187 0.24219 0.126 0.104 0.13577 0.17019 0.13477 0.24219-0.003 0.144-0.086641 0.52148-1.0566 0.52148z"/>
</svg>
