<!--Part of Monotone: https://github.com/sixsixfive/Monotone, released under cc-by-sa_v4-->
<svg viewBox="0 0 16 16" xmlns="http://www.w3.org/2000/svg">
    <path d="M7.469 2C6.648 2 6 2.648 6 3.469v.625A4.935 4.935 0 0 0 5 4C2.245 4 0 6.245 0 9c0 1.045.357 2.009.906 2.813l-.875 2.53a.5.5 0 0 0 .657.626l3-1.156a.5.5 0 0 0 .062-.063c.403.115.795.25 1.25.25a5.025 5.025 0 0 0 4.906-4H11l2.063 2v-2h1.468C15.352 10 16 9.352 16 8.531V3.47C16 2.648 15.352 2 14.531 2H7.47zM5 5c2.215 0 4 1.785 4 4s-1.785 4-4 4c-.46 0-.91-.095-1.344-.25a.5.5 0 0 0-.593.219l-1.75.687.593-1.75a.5.5 0 0 0-.062-.469A4.005 4.005 0 0 1 1 9c0-2.215 1.785-4 4-4zm0 1c-.283 0-.437.281-.437.281l-2 3.969.875.469.375-.719h2.375l.375.719.875-.438-1.97-4S5.284 6 5 6zm0 1.625L5.688 9H4.313L5 7.625z" style="marker:none" color="#000" overflow="visible" fill="#f1f2f2"/>
</svg>
