<?xml version="1.0" encoding="UTF-8" standalone="no"?>
<!--Part of Monotone: https://github.com/sixsixfive/Monotone, released under cc-by-sa_v4-->
<svg id="svg2" xmlns="http://www.w3.org/2000/svg" viewBox="0 0 16 16" version="1.1"><path id="path103" style="opacity:0;stroke-width:7.4064;paint-order:fill markers stroke" d="m7.9961 2a6 6 0 0 0 -5.9961 6 6 6 0 0 0 5.9961 6v-1c0.314-0.208 0.872-0.634 1.0039-1-0.3108 0.078-1.1034 0.049-1.4238 0.051-0.5518 0-1.0519-0.129-1.4903-0.352h-0.0019c-1.3164-0.67-2.084-2.199-2.084-3.699 0-0.25 0.0208-0.5 0.0625-0.7461 0.2916-1.7226 1.58-3.2539 3.5137-3.2539h0.416v-1.291l0.0039-0.709zm3.9219 1.4648c0.049 0.1705 0.082 0.347 0.082 0.5352v6.941c0 0.218-0.032 0.435-0.078 0.651-0.017 0.082-0.04 0.162-0.063 0.244-0.036 0.126-0.081 0.25-0.13 0.373-0.04 0.099-0.074 0.197-0.122 0.293-0.082 0.166-0.176 0.329-0.279 0.486a6 6 0 0 0 2.672 -4.988 6 6 0 0 0 -2.082 -4.5352z"/><path id="path105" style="opacity:0;stroke-width:8.2324;paint-order:fill markers stroke" d="m7.5762 4c-2.21 0-3.5762 2-3.5762 4s1.3662 4.051 3.5762 4.051c0.3204-0.002 1.113 0.027 1.4238-0.051-0.1319 0.366-0.6899 0.792-1.0039 1v2c2.0039 0 4.0039-2.063 4.0039-4.059v-6.941c-0.611-0.0005-1.585-0.0001-2 0v4.1289c0 0.8718-1 1.8711-2 1.8711s-2-1-2-2 0.9998-2.0002 1.9922-1.9824v-2.0176h-0.416z"/><path id="path107" style="opacity:0;stroke-width:7.5783;paint-order:fill markers stroke" d="m8 1-0.0076 1.7096v3.3082c-0.9924-0.0178-1.9924 0.9822-1.9924 1.9822s1 2 2 2 2-1 2-1.8718v-4.1282h2c0-2-3-3-4-3z"/><path id="path14" style="paint-order:fill markers stroke;fill:#f1f2f2" d="m7 2.0918a6 6 0 0 0 -5 5.9082 6 6 0 0 0 5.9961 6v-1c0.314-0.208 0.872-0.634 1.0039-1-0.3108 0.078-1.1034 0.049-1.4238 0.051-0.5518 0-1.0519-0.129-1.4903-0.352h-0.0019c-1.3164-0.67-2.084-2.199-2.084-3.699 0-0.25 0.0208-0.5 0.0625-0.7461 0.2613-1.5437 1.3282-2.9252 2.9375-3.1973v-1.9648zm5 2.9082v5.941c0 0.218-0.032 0.435-0.078 0.651-0.017 0.082-0.04 0.162-0.063 0.244-0.036 0.126-0.081 0.25-0.13 0.373-0.04 0.099-0.074 0.197-0.122 0.293-0.082 0.166-0.176 0.329-0.279 0.486a6 6 0 0 0 2.672 -4.988 6 6 0 0 0 -0.814 -3h-1.186z"/><path id="path35" style="opacity:.7;paint-order:fill markers stroke;fill:#f1f2f2" d="m8 1-0.0076 1.7096v3.3082c-0.9924-0.0178-1.9924 0.9822-1.9924 1.9822s1 2 2 2 2-1 2-1.8718v-4.1282h2c0-2-3-3-4-3z"/><path id="path128" style="paint-order:fill markers stroke;fill:#f1f2f2" d="m12.75 4.3379a6 6 0 0 1 0.115 0.1621 1.0001 1.0001 0 0 0 -0.115 -0.1621zm0.227 7.0101a6 6 0 0 1 -1.649 1.638c-0.753 1.148-2.0372 2.014-3.3319 2.014v-1a6 6 0 0 1 -1 -0.09v1.09a1.0001 1.0001 0 0 0 1 1c1.3452 0 2.5619-0.658 3.4669-1.58 0.811-0.828 1.4-1.899 1.514-3.072z"/></svg>
