<?xml version="1.0" encoding="UTF-8"?>
<svg version="1.1" viewBox="0 0 16 16" xmlns="http://www.w3.org/2000/svg">
<path d="m9.2031 7.0215c-0.73139 0.75841-1.2031 1.8663-1.2031 3.1211v0.71484c0 2.2949 1.5426 4.1426 3.459 4.1426h1.082c1.9164 0 3.459-1.8477 3.459-4.1426v-0.71484c0-1.2548-0.47174-2.3627-1.2031-3.1211-0.73834 0.22529-1.6303 0.22828-2.3281 0.61719-0.1697 0.094574-0.32759 0.2114-0.46875 0.36133-0.72147-0.76629-1.8791-0.69899-2.7969-0.97852zm0.85938 0.98633c0.32925 0.065127 0.63747 0.45936 0.9375 0.99023-0.70756-0.58166-1.3672-0.48226-2 0 0.38298-0.79138 0.73325-1.0554 1.0625-0.99023zm4 0.00195c0.32925 0.065127 0.63747 0.46131 0.9375 0.99219-0.70756-0.58166-1.3672-0.48226-2 0 0.38298-0.79138 0.73325-1.0573 1.0625-0.99219zm-2 0.99805c0.32925 0.06513 0.63747 0.46131 0.9375 0.99219-0.70757-0.58166-1.3672-0.48226-2 0 0.38298-0.79138 0.73325-1.0573 1.0625-0.99219zm-2 1c0.32925 0.065129 0.63747 0.46131 0.9375 0.99219-0.70756-0.58166-1.3672-0.48226-2 0 0.38298-0.79138 0.73325-1.0573 1.0625-0.99219zm4 2e-3c0.32925 0.06513 0.63747 0.46131 0.9375 0.99219-0.70756-0.58166-1.3672-0.48226-2 0 0.38298-0.79138 0.73325-1.0573 1.0625-0.99219zm-2 0.99805c0.32925 0.065082 0.63747 0.46127 0.9375 0.99214-0.70757-0.58166-1.3672-0.48226-2 0 0.38298-0.79138 0.73325-1.0573 1.0625-0.99219zm-2 1c0.32925 0.065083 0.63747 0.46127 0.9375 0.99214-0.70756-0.58166-1.3672-0.48226-2 0 0.38298-0.79138 0.73325-1.0573 1.0625-0.99219zm4 2e-3c0.32925 0.06513 0.63747 0.46131 0.9375 0.99219-0.70756-0.58166-1.3672-0.48226-2 0 0.38298-0.79138 0.73325-1.0573 1.0625-0.99219zm-2 0.99805c0.32925 0.065037 0.63747 0.46122 0.9375 0.9921-0.70757-0.58166-1.3672-0.48226-2 0 0.38298-0.79138 0.73325-1.0573 1.0625-0.99219z" style="fill-opacity:.93434;fill:#f1f2f2;paint-order:markers fill stroke"/>
<path d="m12 2-0.61523 1.8457c-0.045496-0.049137-0.087742-0.093036-0.13086-0.13672-0.1696-0.17195-0.32731-0.31849-0.46094-0.41797-0.13109-0.097593-0.23044-0.14936-0.32812-0.19531-0.13333-0.063404-0.24595-0.10084-0.32031-0.10742-0.085482-0.0076123-0.13266 0.007945-0.14453 0.011719 0 0 0.5625 0.5625 0.84375 1.2656 0.04405 0.11012 0.07846 0.22445 0.10547 0.33984-0.16084-0.59769-0.7587-0.60547-1.9492-0.60547 0.2209 0.40829 0.49414 0.78168 1 1h-2c0.66439 1.6583 2.8707 0.80058 4 2 0.14116-0.14993 0.29905-0.26675 0.46875-0.36133 1.1879-0.66201 2.9499-0.18765 3.5312-1.6387h-2c0.50586-0.21832 0.7791-0.59171 1-1-1.1905 0-1.7884 0.0077826-1.9492 0.60547 0.02701-0.1154 0.061421-0.22972 0.10547-0.33984 0.28125-0.70312 0.84375-1.2656 0.84375-1.2656-0.01187-0.00377-0.05905-0.019285-0.14453-0.011719-0.07436 0.00658-0.18698 0.044018-0.32031 0.10742-0.09768 0.045951-0.19703 0.097719-0.32812 0.19531-0.13386 0.099655-0.29293 0.24557-0.46289 0.41797-0.04275 0.043333-0.08383 0.088029-0.12891 0.13672z" style="fill:#f1f2f2"/>
<rect transform="rotate(90)" x="9" y="-5" width="6" height="1" style="fill-opacity:.93434;fill:#f1f2f2;paint-order:markers fill stroke"/>
<path d="m1.7773 6a0.77793 0.71441 0 0 0-0.63672 1.125l2.7227 3.5703a0.77793 0.71441 0 0 0 1.2734 0l2.7227-3.5703a0.77793 0.71441 0 0 0-0.63672-1.125h-1.5898l0.23633 1h0.75586l-0.76172 1h-2.7266l-0.76172-1h0.41016l-0.23633-1h-0.77148z" style="fill:#f1f2f2"/>
<path d="m2 4v1h1.1035l1.209 4.1152 0.97461-0.23047-1.3906-4.8848z" style="color-rendering:auto;color:#000000;dominant-baseline:auto;fill:#f1f2f2;font-feature-settings:normal;font-variant-alternates:normal;font-variant-caps:normal;font-variant-ligatures:normal;font-variant-numeric:normal;font-variant-position:normal;image-rendering:auto;isolation:auto;mix-blend-mode:normal;shape-padding:0;shape-rendering:auto;solid-color:#000000;text-decoration-color:#000000;text-decoration-line:none;text-decoration-style:solid;text-indent:0;text-orientation:mixed;text-transform:none;white-space:normal"/>
<path d="m2 15c1.8611-1.3223 3.1003-1.2863 5 0z" style="fill:#f1f2f2"/>
</svg>
