<?xml version="1.0" encoding="UTF-8" standalone="no"?>
<!--Part of Monotone: https://github.com/sixsixfive/Monotone, released under cc-by-sa_v4-->
<svg id="svg6" xmlns="http://www.w3.org/2000/svg" version="1.1" viewBox="0 0 16 16"><path id="path4" style="fill:#f1f2f2" d="m0.8 2c-0.44183 0-0.8 0.3582-0.8 0.8v11.4c0 0.442 0.35817 0.8 0.8 0.8h14.4c0.442 0 0.8-0.358 0.8-0.8v-11.4c0-0.4418-0.358-0.8-0.8-0.8zm1.2 2h12v9h-12z"/><g id="g830" style="fill:#f1f2f2" transform="translate(68.894 -21.082)"><path id="rect2854" style="fill:#f1f2f2" d="m-61.894 26.082h2v7h-2z"/><path id="path948" d="m-63.894 26.082h1c0 6 0 7-3 7v-2c2 0.000001 2-2 2-5z" style="stroke-width:.14076;fill:#f1f2f2"/><path id="path951" style="stroke-width:.14076;fill:#f1f2f2" d="m-57.894 26.082h-1c0 6 0 7 3 7v-2c-2 0.000001-2-2-2-5z"/></g></svg>
