<?xml version="1.0" encoding="UTF-8"?>
<svg version="1.1" viewBox="0 0 16 16" xmlns="http://www.w3.org/2000/svg">
<path d="m8.9785 2.0215v4.0273a2.5 2.5 0 0 1 2.0215 2.4512 2.5 2.5 0 0 1-0.42383 1.3906l2.8359 2.8359a6.5 6.5 0 0 0 1.5664-4.2266 6.5 6.5 0 0 0-6-6.4785z" style="fill:#f1f2f2;opacity:.7;paint-order:markers fill stroke"/>
<path d="m7.9785 2.0254a6.5 6.5 0 0 0-5.9785 5.9746h4.0508a2.5 2.5 0 0 1 1.9277-1.9414v-4.0332z" style="fill:#f1f2f2;paint-order:markers fill stroke"/>
<path d="m2.0039 9a6.5 6.5 0 0 0 6.4746 6 6.5 6.5 0 0 0 4.2246-1.5684l-2.8379-2.8379a2.5 2.5 0 0 1-1.3652 0.40625 2.5 2.5 0 0 1-2.4453-2h-4.0508z" style="fill:#f1f2f2;opacity:.4;paint-order:markers fill stroke"/>
</svg>
