<!--Part of Monotone: https://github.com/sixsixfive/Monotone, released under cc-by-sa_v4-->
<svg xmlns="http://www.w3.org/2000/svg" viewBox="0 0 16 16">
    <path d="M2.5 1A2.495 2.495 0 0 0 0 3.5v1.438c.713-.505 1.57-.946 2.5-.946h7.063c1.267 0 2.417.693 3.218 1.57L16 3h-4a2.486 2.486 0 0 0-2.438-2zm0 5A2.495 2.495 0 0 0 0 8.5v5C0 14.885 1.115 16 2.5 16h7.063c1.385 0 2.48-1.115 2.5-2.5v-2.375L16 8h-4a2.486 2.486 0 0 0-2.438-2zm3.938 1C7.75 6.926 8.925 7.936 9 9.25c0 1.121-.308 1.544-1.281 2.281a1.68 1.68 0 0 0-.282.25c-.039.05-.03.033-.03.031.005.423-.39.782-.813.782a.79.79 0 0 1-.781-.782c0-.401.179-.754.375-1a3.14 3.14 0 0 1 .562-.562 3.85 3.85 0 0 0 .563-.531c.074-.09.097-.24.093-.344v-.031a.785.785 0 0 0-.843-.75c-.451.025-.776.362-.75.812H4.188C4.114 8.092 5.123 7.074 6.438 7zm.156 6.406a.82.82 0 0 1 .812.813c0 .442-.37.781-.812.781a.768.768 0 0 1-.782-.781c0-.442.34-.813.782-.813z" fill="#f1f2f2"/>
</svg>
