<?xml version="1.0" encoding="UTF-8" standalone="no"?>
<!--Part of Monotone: https://github.com/sixsixfive/Monotone, released under cc-by-sa_v4-->
<svg id="svg48" xmlns="http://www.w3.org/2000/svg" version="1.1" viewBox="0 0 16 16"><path id="path882" style="stroke-linejoin:bevel;stroke-width:.34389;fill:#f1f2f2" d="m1.7051 12.922c-0.0224 0.016-0.0524 0.046-0.0742 0.06-0.0833 0.055-0.4281 0.248-0.73246 0.631a1.0712 1.0712 0 0 0 -0.00391 0.002c0.0347-0.044-0.29151 0.413-0.33594 0.793a1.0712 1.0712 0 0 0 0 0.004c-0.03796 0.336-0.00851 0.614 0.23047 0.979a1.0712 1.0712 0 0 0 0.00196 0c0.20599 0.313 0.47448 0.476 0.69728 0.562 0.2395 0.093 0.5643 0.136 0.7988 0.106 0.2345-0.031 0.3284-0.074 0.3731-0.084l-0.0489 0.009c0.7134-0.138 1.3668-0.405 1.9551-0.767a8 8 0 0 1 -1.0723 -0.629c-0.3454 0.151-0.707 0.272-1.0859 0.346-0.205 0.049-0.3045 0.11-0.5332 0.021-0.0578-0.022-0.1343-0.068-0.1895-0.152-0.0554-0.085-0.0709-0.195-0.0625-0.27 0.0176-0.15 0.0731-0.203 0.1133-0.254 0.1617-0.203 0.3642-0.322 0.4961-0.41 0.0584-0.04 0.1322-0.11 0.1934-0.154a8 8 0 0 1 -0.7207 -0.793zm12.496 0.115a8 8 0 0 1 -0.797 0.832c0.091 0.027 0.173 0.056 0.274 0.08 0.09 0.032 0.209 0.074 0.287 0.248 0.039 0.088 0.045 0.201 0.021 0.283-0.018 0.066-0.052 0.126-0.097 0.176-0.07 0.079-0.133 0.115-0.198 0.149-0.129 0.068-0.273 0.111-0.423 0.138-0.577 0.047-0.948 0.043-1.334 0.002a8 8 0 0 1 -1.741 0.739c0.01 0.004 0.018 0.011 0.028 0.015a1.0712 1.0712 0 0 0 0.006 0.004c0.112 0.052 0.184 0.07 0.22 0.08a1.0712 1.0712 0 0 0 0.086 0.02c1.178 0.223 1.701 0.299 2.821 0.209a1.0712 1.0712 0 0 0 0.107 -0.016c0.227-0.042 0.475-0.111 0.727-0.242a1.0712 1.0712 0 0 0 0.001 0c0.085-0.045 0.32-0.188 0.495-0.381 0.154-0.171 0.267-0.373 0.332-0.598 0.108-0.378 0.09-0.651-0.075-1.017-0.173-0.384-0.533-0.61-0.74-0.721z"/><path id="path32" style="stroke-width:0.4;fill:#f1f2f2" d="m7.7656 0.0039062a8 8 0 0 0 -7.7656 7.9961 8 8 0 0 0 2.4141 5.725c1.2854-0.927 3.1289-2.81 3.5859-4.725 0-2-0.3109-3.7897-0.666-5.5879-0.0795-0.1832-0.1585-0.3997-0.1778-0.6406-0.0108-0.1318-0.009-0.2807 0.0762-0.4395 0.0856-0.1584 0.2898-0.2792 0.4688-0.2851 0.1495-0.0239 0.3621-0.0359 0.6269-0.0293 0.2649 0.0065 0.5826 0.0319 0.9395 0.082 0.8503 0.0826 1.7327-0.0987 1.7773 1.1563-0.5482 0.745-0.8465 2.851-1.0234 4.0195-0.0416 0.53 0.015 1.1876-0.0215 1.7246 1.1713 1.382 1.5006 2.001 2.854 3.146 0.831 0.639 1.175 1.328 2.568 1.729a8 8 0 0 0 2.578 -5.875 8 8 0 0 0 -8.2344 -7.9961zm3.4904 3.9961c0.31-0.0069 0.529 0.247 0.711 0.418 0.181 0.1709 0.331 0.3513 0.435 0.4394 0.009 0.0071 0.018 0.0155 0.026 0.0235l0.459 0.4648c0.181 0.1848 0.14 0.5267-0.078 0.6465-0.932 0.7263-2.198 1.4844-3.3578 1.9824-0.2593 0.1125-0.5161-0.168-0.4356-0.4766 0.1558-0.6022 0.6483-1.1626 0.8477-1.4492 0.0035-0.0052 0.0078-0.0087 0.0117-0.0136 0.412-0.5355 0.734-1.0719 0.811-1.6368 0.019-0.14 0.173-0.2226 0.287-0.2714 0.087-0.0371 0.193-0.125 0.283-0.127zm-9.6447 2.002c0.2789-0.018 0.5115 0.0805 0.7227 0.1777 0.2109 0.0972 0.403 0.2051 0.5176 0.2578 0.0156 0.0073 0.0306 0.0159 0.0449 0.0254 0.2125 0.1396 0.492 0.3061 0.7285 0.5449 0.2225 0.2249 0.394 0.5629 0.3613 0.9473 0.0327 0.2348 0.0064 0.4615-0.1035 0.6406-0.1155 0.1843-0.5078 0.3731-0.5078 0.3731-0.3861 0.1011-0.8231-0.0484-1.0996-0.4102-0.072-0.0653-0.1408-0.1342-0.2051-0.2012l-0.0098-0.0097c-0.4311-0.4879-0.9107-1.0616-1.0546-1.7969-0.01903-0.0975 0.006-0.1978 0.0683-0.2754 0.1366-0.1698 0.3512-0.2618 0.5371-0.2734zm5.0586 5.084c-0.0216 0.068-0.1278-0.017-0.1484 0.06-0.0663 0.25-0.1366 0.548-0.3125 0.836-0.5562 1.141-1.5292 2.09-2.7266 2.612a8 8 0 0 0 8.4746 0.355c-0.333-0.034-0.673-0.095-1.225-0.199-0.019-0.005-0.038-0.011-0.056-0.02-0.9946-0.467-1.7618-1.205-2.4494-1.959-0.2294-0.251-0.4486-0.505-0.6661-0.75h-0.0019c-0.3328-0.381-0.5673-0.603-0.8887-0.935z"/></svg>
