<?xml version="1.0" encoding="UTF-8"?>
<!--Part of Monotone: https://github.com/sixsixfive/Monotone, released under cc-by-sa_v4-->
<svg version="1.1" viewBox="0 0 16 16" xmlns="http://www.w3.org/2000/svg">
<path d="m8 1c-3.877 0-7 3.123-7 7s3.123 7 7 7c3.876 0 7-3.123 7-7s-3.124-7-7-7zm0 1a6 6 0 0 1 6 6 6 6 0 0 1-6 6 6 6 0 0 1-6-6 6 6 0 0 1 6-6z" style="fill:#f1f2f2"/>
<path d="m8 3a5 5 0 0 0-5 5 5 5 0 0 0 5 5 5 5 0 0 0 5-5 5 5 0 0 0-5-5zm-1 2h2v5h1v1h-2-2v-1h1v-3h-1v-1l1-1z" style="fill-opacity:.98513;fill:#f1f2f2"/>
</svg>
