<?xml version="1.0" encoding="UTF-8" standalone="no"?>
<!--Part of Monotone: https://github.com/sixsixfive/Monotone, released under cc-by-sa_v4-->
<svg id="svg4" xmlns="http://www.w3.org/2000/svg" viewBox="0 0 16 16" version="1.1"><path id="path828" style="color-rendering:auto;text-decoration-color:#000000;color:#000000;font-variant-numeric:normal;text-orientation:mixed;shape-padding:0;shape-rendering:auto;solid-color:#000000;text-decoration-line:none;fill:#f1f2f2;font-variant-position:normal;mix-blend-mode:normal;font-feature-settings:normal;font-variant-alternates:normal;text-indent:0;dominant-baseline:auto;font-variant-caps:normal;image-rendering:auto;white-space:normal;text-decoration-style:solid;font-variant-ligatures:normal;isolation:auto;text-transform:none" d="m4.0332 0.98633a1.0001 1.0001 0 0 0 -1.0039 0.77147l-2 8a1.0005 1.0005 0 1 0 1.9414 0.48438l2-8a1.0001 1.0001 0 0 0 -0.9375 -1.2559z"/><path id="path830" style="color-rendering:auto;text-decoration-color:#000000;color:#000000;font-variant-numeric:normal;text-orientation:mixed;shape-padding:0;shape-rendering:auto;solid-color:#000000;text-decoration-line:none;fill:#f1f2f2;font-variant-position:normal;mix-blend-mode:normal;font-feature-settings:normal;font-variant-alternates:normal;text-indent:0;dominant-baseline:auto;font-variant-caps:normal;image-rendering:auto;white-space:normal;text-decoration-style:solid;font-variant-ligatures:normal;isolation:auto;text-transform:none" d="m4.0332 0.98633a1.0001 1.0001 0 0 0 -1.0039 0.77147l-2 8a1.0005 1.0005 0 1 0 1.9414 0.48438l2-8a1.0001 1.0001 0 0 0 -0.9375 -1.2559z"/><path id="path814" style="color-rendering:auto;text-decoration-color:#000000;color:#000000;font-variant-numeric:normal;text-orientation:mixed;shape-padding:0;shape-rendering:auto;solid-color:#000000;text-decoration-line:none;fill:#f1f2f2;font-variant-position:normal;mix-blend-mode:normal;font-feature-settings:normal;font-variant-alternates:normal;text-indent:0;dominant-baseline:auto;font-variant-caps:normal;image-rendering:auto;white-space:normal;text-decoration-style:solid;font-variant-ligatures:normal;isolation:auto;text-transform:none" d="m7.0332 4.9863a1.0001 1.0001 0 0 0 -1.0039 0.7715l-1 4a1.0005 1.0005 0 1 0 1.9414 0.48438l1-4a1.0001 1.0001 0 0 0 -0.9375 -1.2559z"/><path id="path816" style="color-rendering:auto;text-decoration-color:#000000;color:#000000;font-variant-numeric:normal;text-orientation:mixed;shape-padding:0;shape-rendering:auto;solid-color:#000000;text-decoration-line:none;fill:#f1f2f2;font-variant-position:normal;mix-blend-mode:normal;font-feature-settings:normal;font-variant-alternates:normal;text-indent:0;dominant-baseline:auto;font-variant-caps:normal;image-rendering:auto;white-space:normal;text-decoration-style:solid;font-variant-ligatures:normal;isolation:auto;text-transform:none" d="m11.033 4.9863a1.0001 1.0001 0 0 0 -1.004 0.7715l-1.9997 8.0002a1.0005 1.0005 0 1 0 1.9414 0.48438l2.0003-7.9998a1.0001 1.0001 0 0 0 -0.9375 -1.2559z"/><path id="path818" style="color-rendering:auto;text-decoration-color:#000000;color:#000000;font-variant-numeric:normal;text-orientation:mixed;shape-padding:0;shape-rendering:auto;solid-color:#000000;text-decoration-line:none;fill:#f1f2f2;font-variant-position:normal;mix-blend-mode:normal;font-feature-settings:normal;font-variant-alternates:normal;text-indent:0;dominant-baseline:auto;font-variant-caps:normal;image-rendering:auto;white-space:normal;text-decoration-style:solid;font-variant-ligatures:normal;isolation:auto;text-transform:none" d="m14.963 5.4297a1.0001 1.0001 0 0 0 -0.926 0.7422l-1 3.5566a1.0004 1.0004 0 1 0 1.9258 0.54297l1-3.5586a1.0001 1.0001 0 0 0 -1 -1.2832z"/></svg>
