<?xml version="1.0" encoding="UTF-8" standalone="no"?>
<!--Part of Monotone: https://github.com/sixsixfive/Monotone, released under cc-by-sa_v4-->
<svg id="svg32" xmlns="http://www.w3.org/2000/svg" version="1.1" xmlns:xlink="http://www.w3.org/1999/xlink" viewBox="0 0 16 16"><path id="path18" style="stroke-linejoin:round;stroke-width:.38858;stroke-linecap:round;fill:#f1f2f2" d="m0 1v14c1.8356-1.156 4.8183-1.999 8-2 3.184 0.002 6.167 0.846 8 2.004v-14c-1.836 1.1557-4.818 1.9949-8 1.996-3.1837-0.0022-6.1668-0.8424-8-2zm1 1.4805c1.9571 0.8789 4.3222 1.5177 7 1.5195 2.677-0.0009 5.042-0.64 7-1.5176v8.5296l-4-4.012-5 4-2-2-3 2v-8.5195zm5.5 2.5195a1.5 1.5 0 0 0 -1.5 1.5 1.5 1.5 0 0 0 1.5 1.5 1.5 1.5 0 0 0 1.5 -1.5 1.5 1.5 0 0 0 -1.5 -1.5zm4.5 4l4 3.465v1.058c-1.957-0.879-4.321-1.521-7-1.523-0.4042 0-0.7979 0.019-1.1875 0.047 0.0617-0.018 0.1267-0.026 0.1875-0.047l4-3zm-7.3027 1.33l1.3027 1.309-1.0664 0.877c-1.0532 0.263-2.0409 0.603-2.9336 1.004v-1.52l2.6973-1.67z"/></svg>
