<?xml version="1.0" encoding="UTF-8" standalone="no"?>
<!--Part of Monotone: https://github.com/sixsixfive/Monotone, released under cc-by-sa_v4-->
<svg id="svg2" xmlns="http://www.w3.org/2000/svg" viewBox="0 0 16 16" version="1.1"><g id="layer1" transform="translate(-31.976 -220.36)"><path id="path3776" style="fill:#f1f2f2" d="m5.5938 1.5c-0.5599 0.008-1.1067 0.3068-1.4376 0.8125l-0.0937 0.1563c-0.722-0.3642-1.6402-0.1309-2.0937 0.5624l-0.6563 1c-0.45357 0.6934-0.2792 1.6094 0.3437 2.125l-0.125 0.1876c-0.5293 0.8091-0.3091 1.8769 0.5 2.4062l7.6563 5c0.8095 0.529 1.8765 0.309 2.4065-0.5l2.625-4.0312c0.529-0.8092 0.309-1.9082-0.5-2.4376l-7.6252-5c-0.3035-0.1985-0.6641-0.2859-1-0.2812zm-1.5 2.3438c0.7939 0 1.4374 0.6435 1.4374 1.4374 0 0.794-0.6435 1.4376-1.4374 1.4376-0.794 0-1.4376-0.6436-1.4376-1.4376 0-0.7939 0.6436-1.4374 1.4376-1.4374z" transform="translate(31.976 220.36)"/></g></svg>
