<!--Part of Monotone: https://github.com/sixsixfive/Monotone, released under cc-by-sa_v4-->
<svg viewBox="0 0 16 16" xmlns="http://www.w3.org/2000/svg">
    <path d="M1.531 0A.537.537 0 0 0 1 .531V12.47c0 .298.233.531.531.531H7v1H5.486a.464.464 0 0 0-.469.469v1.062c0 .263.206.469.47.469h5.027a.464.464 0 0 0 .469-.469V14.47a.464.464 0 0 0-.47-.469H9v-1h5.469A.525.525 0 0 0 15 12.47V5.53a.537.537 0 0 0-.531-.53H4v4.5a.499.499 0 1 1-1 0v-5c0-.277.223-.5.5-.5H13V2.594A.595.595 0 0 0 12.406 2H6.031V.531A.537.537 0 0 0 5.5 0zM8.5 6h1c.27 0 .5.23.5.5s-.5.5-.5.5h-1S8 6.77 8 6.5s.23-.5.5-.5zm0 2h1s.5.23.5.5v3c0 .27-.5.5-.5.5h-1s-.5-.23-.5-.5v-3c0-.27.5-.5.5-.5z" fill="#f1f2f2"/>
</svg>
