<?xml version="1.0" encoding="UTF-8"?>
<!--Part of Monotone: https://github.com/sixsixfive/Monotone, released under cc-by-sa_v4-->
<svg version="1.1" viewBox="0 0 16 16" xmlns="http://www.w3.org/2000/svg">
<path d="m3.5 1c-1.3819-0.002772-2.5028 1.1181-2.5 2.5v7.0625c0 1.385 1.1182 2.5935 2.5 2.5h6.375l3.125 1.9375v-2c1.1624-0.23171 1.9995-1.2523 2-2.4375v-7.0625c0-1.385-1.115-2.5-2.5-2.5h-9zm4.3164 1c1.6431-0.092 3.0974 1.1705 3.1895 2.8125 0 1.402-0.37965 1.9218-1.5957 2.8438-0.19101 0.144-0.326 0.2505-0.375 0.3125-0.050002 0.063-0.029297 0.03325-0.029297 0.03125 0.0070003 0.528-0.47393 1-1.002 1-0.52902 0-1.007-0.472-1-1 0-0.503 0.22474-0.944 0.46875-1.25a3.8202 3.82 0 0 1 0.7207-0.6875c0.20301-0.16 0.46049-0.38425 0.6875-0.65625 0.093004-0.112 0.129-0.3075 0.125-0.4375v-0.03125a0.98804 0.988 0 0 0-1.0645-0.9375c-0.56303 0.031-0.9695 0.436-0.9375 1h-2c-0.092004-1.643 1.1704-2.908 2.8125-3zm0.14648 8a1 1 0 0 1 0.041016 0 1 1 0 0 1 0 2 1 1 0 0 1-0.041016-2z" style="fill:#f1f2f2"/>
</svg>
