<?xml version="1.0" encoding="UTF-8"?>
<svg version="1.1" viewBox="0 0 16 16" xmlns="http://www.w3.org/2000/svg">
<path d="m3.0028 8.9786c1.1029 0 1.9972-0.89016 1.9972-1.989 0-1.0992-0.89433-1.9897-1.9972-1.9897-1.1032 0-1.9971 0.89054-1.9971 1.9897 0 1.0988 0.89399 1.989 1.9971 1.989" style="fill:#f1f2f2;stroke-width:.014043"/>
<path d="m8.0075 8c1.1084 0 2.0074-0.89553 2.0074-1.9999 0-1.1047-0.89896-2.0001-2.0074-2.0001-1.1089 0-2.0075 0.89548-2.0075 2.0001 0 1.1044 0.89857 1.9999 2.0075 1.9999" style="fill:#f1f2f2;stroke-width:.012704"/>
<path d="m13 6.985c1.1042 0 1.9997-0.89196 1.9997-1.9925 0-1.1002-0.89537-1.9925-1.9997-1.9925-1.1049 0-2.0003 0.89224-2.0003 1.9925 0 1.1005 0.89552 1.9925 2.0003 1.9925" style="fill:#f1f2f2;stroke-width:.011391"/>
<path d="m3 10c-1.108 0-2 0.892-2 2v2h4v-2c0-1.108-0.892-2-2-2z" style="fill-opacity:.99774;fill:#f1f2f2;paint-order:markers fill stroke"/>
<path d="m8 9c-1.108 0-2 0.892-2 2v3h4v-3c0-1.108-0.892-2-2-2z" style="fill-opacity:.99774;fill:#f1f2f2;paint-order:markers fill stroke"/>
<path d="m13 8c-1.108 0-2 0.892-2 2v4h4v-4c0-1.108-0.892-2-2-2z" style="fill-opacity:.99774;fill:#f1f2f2;paint-order:markers fill stroke"/>
</svg>
