<?xml version="1.0" encoding="UTF-8" standalone="no"?>
<!--Part of Monotone: https://github.com/sixsixfive/Monotone, released under cc-by-sa_v4-->
<svg id="svg18" xmlns="http://www.w3.org/2000/svg" version="1.1" viewBox="0 0 16 16"><path id="path2" style="color:#000000;text-indent:0;text-decoration-line:none;text-transform:none;fill:#f1f2f2" d="m14.105 0.95703c-0.11-0.00378-0.22 0.01074-0.326 0.04297h-3.779c-0.0312-0.00147-0.0625-0.00147-0.0938 0-1.3381 0.0581-1.2439 2.0673 0.0938 2h1.5508c-8.551 8.562 0 0-8.551 8.562v-1.562c0.0161-0.6514-0.5852-1.144-1.2207-1-0.4649 0.105-0.79102 0.5236-0.7793 1v3.7559c-0.2002 0.754 0.488 1.443 1.2422 1.244h3.7578c1.3333 0 1.3333-2 0-2h-1.5625c8.5625-8.5742 0 0 8.5625-8.5742v1.5742c0 1.3333 2 1.3333 2 0v-3.6719c0.258-0.6435-0.202-1.3476-0.895-1.3711z"/><path id="path6" d="m1 14h1v1h-1z" overflow="visible" style="color:#000000;fill:#bdbdbd"/><path id="path10" d="m14 1h1v1h-1z" overflow="visible" style="color:#000000;fill:#bdbdbd"/><path id="path14" d="m1 9h1v1h-1zm5 5h1v1h-1zm8-8h1v1h-1zm-5-5h1v1h-1z" overflow="visible" style="color:#000000;fill:#f1f2f2"/></svg>
