<?xml version="1.0" encoding="UTF-8" standalone="no"?>
<!--Part of Monotone: https://github.com/sixsixfive/Monotone, released under cc-by-sa_v4-->
<svg xmlns="http://www.w3.org/2000/svg" version="1.1" viewBox="0 0 16 16">
 <g fill="#f1f2f2">
  <path d="m3 2c-1.108 0-2 0.892-2 2v9c0 1.108 0.892 2 2 2h9c1.108 0 2-0.892 2-2v-9c0-1.108-0.892-2-2-2zm0 1h9c0.5713 0 1 0.4287 1 1v9c0 0.5713-0.4287 1-1 1h-9c-0.5713 0-1-0.429-1-1v-9c0-0.5713 0.4287-1 1-1z"/>
  <path opacity=".1" d="m3 2c-0.5713 0-1 0.4287-1 1v10c0 0.5713 0.4287 1 1 1h10c0.5713 0 1-0.4287 1-1v-10c0-0.5713-0.429-1-1-1z" transform="translate(-1)"/>
  <path d="m1 10v1h6v3h1v-3h5v-1h-6.166z"/>
 </g>
</svg>
