<?xml version="1.0" encoding="UTF-8"?>
<svg version="1.1" viewBox="0 0 16 16" xmlns="http://www.w3.org/2000/svg">
<g fill="#f1f2f2" font-weight="400">
<path d="m1 5.001v1c0 0.257 0.118 0.528 0.284 0.719l1.163 1.28-1.163 1.282a1.145 1.145 0 0 0-0.284 0.719v1h0.908c0.28 0 0.501-0.09 0.68-0.281l2.412-2.72-2.411-2.718a0.88 0.88 0 0 0-0.681-0.281z" overflow="visible" style="color:#f1f2f2;fill:#f1f2f2;text-decoration-line:none;text-indent:0;text-transform:none"/>
<rect x="5" y="5" width="9" height="1" ry="3.084e-18" style="fill:#f1f2f2;paint-order:markers fill stroke"/>
<rect transform="rotate(90)" x="1" y="-6" width="5" height="1" ry="3.084e-18" style="fill:#f1f2f2;paint-order:markers fill stroke"/>
<rect transform="rotate(90)" x="1" y="-15" width="5" height="1" ry="3.084e-18" style="fill:#f1f2f2;paint-order:markers fill stroke"/>
<rect transform="scale(1,-1)" x="6" y="-11" width="8" height="1" ry="3.084e-18" style="fill:#f1f2f2;paint-order:markers fill stroke"/>
<rect transform="matrix(0,-1,-1,0,0,0)" x="-15" y="-6" width="5" height="1" ry="3.084e-18" style="fill:#f1f2f2;paint-order:markers fill stroke"/>
<rect transform="matrix(0,-1,-1,0,0,0)" x="-15" y="-15" width="5" height="1" ry="3.084e-18" style="fill:#f1f2f2;paint-order:markers fill stroke"/>
<rect transform="scale(-1)" x="-13" y="-2" width="6" height="1" ry="3.084e-18" style="fill:#f1f2f2;paint-order:markers fill stroke"/>
<rect transform="scale(-1)" x="-13" y="-4" width="6" height="1" ry="3.084e-18" style="fill:#f1f2f2;paint-order:markers fill stroke"/>
<rect transform="scale(-1)" x="-11" y="-13" width="4" height="1" ry="3.084e-18" style="fill:#f1f2f2;paint-order:markers fill stroke"/>
<rect transform="scale(-1)" x="-13" y="-15" width="6" height="1" ry="3.084e-18" style="fill:#f1f2f2;paint-order:markers fill stroke"/>
</g>
</svg>
