<?xml version="1.0" encoding="UTF-8" standalone="no"?>
<!--Part of Monotone: https://github.com/sixsixfive/Monotone, released under cc-by-sa_v4-->
<svg xmlns="http://www.w3.org/2000/svg" version="1.1" viewBox="0 0 16 16">
 <path d="m8 9a4 3.5 0 0 0 -3.9551 3h-2.0449c-0.554 0-1 0.446-1 1v2h14v-2c0-0.554-0.446-1-1-1h-2.045a4 3.5 0 0 0 -3.955 -3z" fill="#f1f2f2"/>
 <g fill="#f1f2f2">
  <path style="color-rendering:auto;text-decoration-color:#000000;color:#000000;font-variant-numeric:normal;text-orientation:mixed;shape-rendering:auto;font-variant-ligatures:normal;text-decoration-line:none;font-variant-position:normal;mix-blend-mode:normal;font-feature-settings:normal;shape-padding:0;font-variant-alternates:normal;text-indent:0;dominant-baseline:auto;font-variant-caps:normal;image-rendering:auto;white-space:normal;text-decoration-style:solid;solid-color:#000000;isolation:auto;text-transform:none" d="m7.9844 0.98633a1.0001 1.0001 0 0 0 -0.9844 1.0137v5a1.0001 1.0001 0 1 0 2 0v-5a1.0001 1.0001 0 0 0 -1.0156 -1.0137z"/>
  <path style="color-rendering:auto;text-decoration-color:#000000;color:#000000;font-variant-numeric:normal;text-orientation:mixed;shape-rendering:auto;font-variant-ligatures:normal;text-decoration-line:none;font-variant-position:normal;mix-blend-mode:normal;font-feature-settings:normal;shape-padding:0;font-variant-alternates:normal;text-indent:0;dominant-baseline:auto;font-variant-caps:normal;image-rendering:auto;white-space:normal;text-decoration-style:solid;solid-color:#000000;isolation:auto;text-transform:none" d="m14.033 1.9883a1.0001 1.0001 0 0 0 -0.89062 0.49805l-3 5a1.0001 1.0001 0 1 0 1.7148 1.0273l3-5a1.0001 1.0001 0 0 0 -0.824 -1.5254z"/>
  <path style="color-rendering:auto;text-decoration-color:#000000;color:#000000;font-variant-numeric:normal;text-orientation:mixed;shape-rendering:auto;font-variant-ligatures:normal;text-decoration-line:none;font-variant-position:normal;mix-blend-mode:normal;font-feature-settings:normal;shape-padding:0;font-variant-alternates:normal;text-indent:0;dominant-baseline:auto;font-variant-caps:normal;image-rendering:auto;white-space:normal;text-decoration-style:solid;solid-color:#000000;isolation:auto;text-transform:none" d="m2.0371 1.9883a1.0001 1.0001 0 0 0 -0.8945 1.5254l3 5a1.0001 1.0001 0 1 0 1.7148 -1.0274l-3-5a1.0001 1.0001 0 0 0 -0.8203 -0.498z"/>
 </g>
</svg>
