<?xml version="1.0" encoding="UTF-8" standalone="no"?>
<!--Part of Monotone: https://github.com/sixsixfive/Monotone, released under cc-by-sa_v4-->
<svg id="svg4" xmlns="http://www.w3.org/2000/svg" version="1.1" viewBox="0 0 16 16"><path id="path4" style="stroke-width:.12699;fill:#f1f2f2" d="m4.2402 2c-3.2402 0-3.3486 4.476-4.1132 7.6836-0.42546 1.8154 0.24919 3.3164 1.5136 3.3164 1.3594 0 3.3594 0 3.3594-2l3 0.012 3-0.012c0 2 2 2 3.359 2 1.265 0 1.939-1.501 1.514-3.3164-0.765-3.2076-0.873-7.6836-4.113-7.6836-1.76 0-1.559 1.1129-1.76 2l-2-0.0059-2 0.0059c-0.2009-0.8871 0-2-1.7598-2zm3.7598 3l3 3h-2v2h-1-1v-2h-2l3-3z"/></svg>
