<?xml version="1.0" encoding="UTF-8" standalone="no"?>
<!--Part of Monotone: https://github.com/sixsixfive/Monotone, released under cc-by-sa_v4-->
<svg id="svg4" xmlns="http://www.w3.org/2000/svg" viewBox="0 0 16 16" version="1.1"><path id="path825" style="fill:#f1f2f2" d="m8 1l-6 4v6l6 4 6-4v-6l-6-4zm-0.0234 4.4941a0.50005 0.50005 0 0 1 0.4707 0.7286l-2 4.0003a0.50005 0.50005 0 1 1 -0.8946 -0.4457l2-4a0.50005 0.50005 0 0 1 0.4239 -0.2832zm2 0a0.50005 0.50005 0 0 1 0.4704 0.7286l-0.9997 2a0.50005 0.50005 0 1 1 -0.8946 -0.4454l1-2a0.50005 0.50005 0 0 1 0.4239 -0.2832zm2.0004 0a0.50005 0.50005 0 0 1 0.47 0.7286l-2 4.0003a0.50005 0.50005 0 1 1 -0.8943 -0.4457l2.0003-4a0.50005 0.50005 0 0 1 0.424 -0.2832zm-7.0004 2a0.50005 0.50005 0 0 1 0.4707 0.7286l-1 2.0003a0.50005 0.50005 0 1 1 -0.8946 -0.4457l1-2a0.50005 0.50005 0 0 1 0.4239 -0.2832z"/></svg>
