<?xml version="1.0" encoding="UTF-8"?>
<!--Part of Monotone: https://github.com/sixsixfive/Monotone, released under cc-by-sa_v4-->
<svg version="1.1" viewBox="0 0 16 16" xmlns="http://www.w3.org/2000/svg">
<g transform="matrix(-1 0 0 1 49.034 -219.86)">
<path transform="matrix(-1 0 0 1 49.034 219.86)" d="m11.463 2c-0.3359-0.0047-0.6965 0.08275-1 0.28125l-1.7324 1.1367c0.17279 0.20488 0.35439 0.40668 0.50391 0.61914 0.48517 0.68943 0.86188 1.4724 0.81445 2.3672-0.047423 0.8948-0.58082 1.7461-1.4355 2.3926a1.0001 1.0001 0 0 1-1.6035-0.76367v1.2461a1.0001 1.0001 0 0 1-0.18945 0.58398c-0.19875 0.59371-0.55428 1.1136-1.0547 1.457-0.55383 0.38004-1.2287 0.60124-1.957 0.65625l1.1543 1.7734c0.53 0.809 1.5968 1.029 2.4062 0.5l7.6582-5c0.8091-0.5293 1.0293-1.5972 0.5-2.4062l-0.125-0.1875c0.6229-0.5156 0.79537-1.4316 0.3418-2.125l-0.65625-1c-0.4535-0.6933-1.3718-0.9267-2.0938-0.5625l-0.091797-0.15625c-0.3309-0.5057-0.87955-0.8045-1.4395-0.8125zm1.5 2.3438c0.794 0 1.4395 0.6436 1.4395 1.4375 0 0.794-0.64545 1.4375-1.4395 1.4375-0.7939 0-1.4355-0.6435-1.4355-1.4375 0-0.7939 0.64165-1.4375 1.4355-1.4375z" style="fill:#f1f2f2;opacity:.8"/>
</g>
<path d="M 4.01,1 H 4.828 C 7.346,3.424 10.817,5.877 8.01,8 7.918,5.284 7.076,5.202 6.07,4.96 L 6.01,5 V 9.279 H 6.002 C 5.907,10.227 4.802,11 3.472,11 2.082,11 1,10.278 1,9.268 1,8.256 1.339,7.646 1.955,7.207 2.516,6.807 3.682,7 4.01,7 Z" style="fill:#f1f2f2"/>
</svg>
