<!--Part of Monotone: https://github.com/sixsixfive/Monotone, released under cc-by-sa_v4-->
<svg viewBox="0 0 16 16" xmlns="http://www.w3.org/2000/svg">
    <g fill="#f1f2f2">
        <path d="M1 1v2l1 2L.781 16H11.25L10 5l1-2V1H9v2H7V1H5v2H3V1zm5 5c.758 0 .938.719.938.719a.09.09 0 0 1 .03.062c.005.04 0-.065 0 .157V8.78c0 .121-.018.219-.03.219H5.03c-.012 0-.03-.098-.03-.219l-.001-1.844c0-.06-.004-.116 0-.156.004-.039.037-.062.031-.062 0 0 .06-.719.97-.719zm-2 4c.758 0 .938.719.938.719.005.005.027.023.03.062.005.04 0-.065 0 .156v1.844c0 .121-.018.219-.03.219H3.03c-.01 0-.03-.098-.03-.219v-1.844c0-.06-.004-.116 0-.156.004-.04.037-.062.031-.062 0 0 .06-.719.97-.719zm4 0c.758 0 .938.719.938.719a.09.09 0 0 1 .03.062c.005.04 0-.065 0 .156v1.844c0 .121-.018.219-.03.219H7.03c-.012 0-.03-.098-.03-.219l-.001-1.844c0-.06-.004-.116 0-.156.004-.04.037-.062.031-.062 0 0 .06-.719.97-.719z" style="marker:none" color="#000" overflow="visible"/>
        <path d="M13.9 4.177L9.42 7.5 15 5l-1.1-.823"/>
        <path d="M16 4.55a1.475 1.45 0 1 1-2.95 0 1.475 1.45 0 1 1 2.95 0zM14.525 13a1.475 1.5 0 1 1 0-3 1.475 1.5 0 1 1 0 3z" style="marker:none" color="#000" overflow="visible"/>
        <path d="M13.322 11.578l-3.214-3.17L14 10.633l-.678.945"/>
    </g>
</svg>
