<?xml version="1.0" encoding="UTF-8" standalone="no"?>
<!--Part of Monotone: https://github.com/sixsixfive/Monotone, released under cc-by-sa_v4-->
<svg id="svg4" xmlns="http://www.w3.org/2000/svg" version="1.1" viewBox="0 0 16 16"><g id="16-16-kdeconnect" transform="translate(-303 -537.36)"><rect id="rect4442" style="fill:none" height="16" width="16" y="537.36" x="303"/><path id="path835" style="fill:#f1f2f2" d="m306 538.36v14h2v-2h-1v-9h6v1h1v-4zm3 1h2v1h-2z"/><path id="path850" style="stroke-width:1.9939;paint-order:fill markers stroke;fill:#f1f2f2" d="m10.982 6a0.99703 0.99707 0 0 0 -0.98 1.0137v0.1543c-0.347 0.0997-0.6754 0.25-0.9844 0.4414l-0.3047-0.3047a0.99703 0.99707 0 0 0 -0.7168 -0.3027 0.99703 0.99707 0 0 0 -0.6934 1.7109l0.3047 0.3066c-0.1914 0.3091-0.3417 0.6375-0.4414 0.9845h-0.1543a0.99703 0.99707 0 1 0 0 1.994h0.1543c0.0997 0.347 0.25 0.675 0.4414 0.984l-0.3047 0.303a0.99703 0.99707 0 1 0 1.4102 1.41l0.3047-0.302c0.309 0.191 0.6374 0.339 0.9844 0.441v0.154a0.99703 0.99707 0 1 0 1.994 0v-0.154c0.347-0.102 0.675-0.25 0.984-0.441l0.303 0.302a0.99703 0.99707 0 1 0 1.41 -1.41l-0.302-0.303c0.191-0.309 0.339-0.637 0.441-0.984h0.154a0.99703 0.99707 0 1 0 0 -1.994h-0.154c-0.102-0.347-0.25-0.6754-0.441-0.9845l0.302-0.3066a0.99703 0.99707 0 0 0 -0.722 -1.707 0.99703 0.99707 0 0 0 -0.688 0.2988l-0.303 0.3047c-0.309-0.1914-0.637-0.3417-0.984-0.4414v-0.1543a0.99703 0.99707 0 0 0 -1.014 -1.0137zm0.018 3a2 2 0 0 1 2 2 2 2 0 0 1 -2 2 2 2 0 0 1 -2 -2 2 2 0 0 1 2 -2z" transform="translate(303 537.36)"/></g></svg>
