<?xml version="1.0" encoding="UTF-8"?>
<!--Part of Monotone: https://github.com/sixsixfive/Monotone, released under cc-by-sa_v4-->
<svg version="1.1" viewBox="0 0 16 16" xmlns="http://www.w3.org/2000/svg">
<g fill="#f1f2f2">
<path d="m3.702 1c-1.532 0-2.718 1.32-2.718 2.844v8.344c0 1.524 1.185 2.843 2.718 2.843h8.58c1.532 0 2.75-1.32 2.75-2.844v-8.342c0-1.525-1.218-2.844-2.75-2.844zm0.782 1.031c3.526 0.256 5.317 0.134 7.047 0 0.754-0.058 1.532 0.616 1.532 1.438v7.375c0 0.665-0.532 1.095-1.188 1.187-2.836 0.397-4.753 0.44-7.673 0-0.655-0.099-1.187-0.522-1.187-1.187v-7.344c0-0.822 0.714-1.524 1.469-1.469z" color="#f1f2f2" overflow="visible" style="text-decoration-line:none;text-indent:0;text-transform:none"/>
<path d="m4 3v7h5v-6l-0.898-1zm1 1h3v5h-3z" color="#000000" font-weight="400" overflow="visible" style="text-decoration-line:none;text-indent:0;text-transform:none"/>
<path d="m7 4h1v1h-1z"/>
</g>
</svg>
