<?xml version="1.0" encoding="UTF-8" standalone="no"?>
<!--Part of Monotone: https://github.com/sixsixfive/Monotone, released under cc-by-sa_v4-->
<svg xmlns="http://www.w3.org/2000/svg" version="1.1" viewBox="0 0 16 16">
 <g fill="#f1f2f2">
  <path opacity=".5" d="m8 1c-2.7614 0-5 2.2386-5 5 0 5.437-1.4877 6.023-2 9h4c0.2838-1.721 1.0131-2.998 3-3 0.9352 0.001 1.5842 0.292 2.047 0.771a1.0001 1.0001 0 0 1 -0.047 -0.3v-1.471a1.0001 1.0001 0 0 1 1 -1h1.373a1.0001 1.0001 0 0 1 0.699 0.283l0.418 0.406 0.065-0.064c-0.316-1.083-0.555-2.4642-0.555-4.625 0-2.7614-2.239-5-5-5zm-2 3c0.5523 0 1 0.6716 1 1.5s-0.4477 1.5-1 1.5-1-0.6716-1-1.5 0.4477-1.5 1-1.5zm4 0c0.552 0 1 0.6716 1 1.5s-0.448 1.5-1 1.5c-0.5523 0-1-0.6716-1-1.5s0.4477-1.5 1-1.5zm-2 3l2 2-2 1-2-1 2-2zm2.484 6.367c0.039 0.071 0.072 0.148 0.106 0.223l0.058-0.059-0.164-0.164z"/>
  <path opacity=".1" d="m8 12c-1.9869 0.002-2.7162 1.279-3 3h5v-0.406a1.0001 1.0001 0 0 1 0.293 -0.707l0.297-0.297c-0.034-0.075-0.067-0.152-0.106-0.223l-0.191-0.189a1.0001 1.0001 0 0 1 -0.246 -0.407c-0.4628-0.479-1.1118-0.77-2.047-0.771z"/>
  <path style="color:#f1f2f2" overflow="visible" d="m11 11h1.375l1.125 1.094 1.094-1.094h1.406v1.469l-1.094 1.062 1.094 1.063v1.406h-1.438l-1.062-1.063-1.063 1.063h-1.437v-1.406l1.062-1.063-1.062-1.061z"/>
 </g>
</svg>
