<?xml version="1.0" encoding="UTF-8"?>
<svg version="1.1" viewBox="0 0 16 16" xmlns="http://www.w3.org/2000/svg">
<g transform="translate(-1.9997 -2)" font-weight="400" style="color:#000000;fill:#f1f2f2">
<path transform="translate(1.9997 2)" d="m2 1v2h5c0.428 0 1 0.614 1 1v1h-5c-0.92 0-1.736 0.38375-2.25 0.96875a3.017 3.017 0 0 0-0.75 2.0312c6e-3 0.72 0.26925 1.4532 0.78125 2.0312 0.512 0.579 1.3098 0.96875 2.2188 0.96875h3.9883c-0.062886-0.70682 0.088339-1.3957 0.40039-2h-4.3887c-0.398 0-0.56675-0.11025-0.71875-0.28125a1.144 1.144 0 0 1-0.28125-0.71875c-2e-3 -0.28 0.104-0.55375 0.25-0.71875 0.145-0.165 0.327-0.28125 0.75-0.28125h5v1.1562c0.5264-0.56476 1.211-0.97943 2-1.1211v-3.0352a3 3 0 0 0-3-3h-5z" style="text-decoration-line:none;text-indent:0;text-transform:none"/>
</g>
<path d="m10.728 8.0015c-1.7596-0.06181-3.1803 1.8617-2.5942 3.5233 0.38608 1.3758 1.9888 2.239 3.3428 1.7988 0.28677-0.02404 0.60546-0.44992 0.75136-0.04104 0.63389 0.61976 1.2623 1.2453 1.8997 1.8614 0.41503 0.37307 1.1564 0.09056 1.218-0.4641 0.07914-0.37204-0.1971-0.65377-0.44714-0.88084-0.5547-0.54324-1.1052-1.0909-1.6626-1.6313-0.33597-0.13514 0.11926-0.47642 0.1087-0.74201 0.39185-1.2868-0.37339-2.7889-1.6423-3.2424-0.30956-0.11917-0.6441-0.1835-0.97428-0.18173zm0 1c0.87077-0.02278 1.6706 0.71463 1.715 1.585 0.08887 0.8677-0.58611 1.7218-1.4517 1.8323-0.94905 0.17332-1.9334-0.59332-1.9766-1.5633-0.08959-0.86816 0.58361-1.7245 1.4502-1.8354 0.08677-0.01266 0.17693-0.0209 0.26306-0.01867z" style="fill:#f1f2f2;text-decoration-line:none;text-indent:0;text-transform:none"/>
</svg>
