<?xml version="1.0" encoding="UTF-8"?>
<svg version="1.1" viewBox="0 0 16 16" xmlns="http://www.w3.org/2000/svg">
<rect x="1" y="6" width="14" height="1" style="fill:#f1f2f2;paint-order:markers fill stroke"/>
<rect transform="rotate(90)" x="4" y="-9" width="3" height="2" style="fill:#f1f2f2;paint-order:markers fill stroke"/>
<rect transform="scale(-1)" x="-15" y="-4" width="14" height="1" style="fill:#f1f2f2;paint-order:markers fill stroke"/>
<path d="m0 1c0 1 0 2 1 2h14c1 0 1-1 1-2 0.05317 1.3071-2 1-2 1h-12s-2 0-2-1z" style="fill:#f1f2f2"/>
<path d="m3 2h2c0 8 0 11-1 12h-2c1-2 1-4 1-12z" style="fill:#f1f2f2;paint-order:markers fill stroke"/>
<path d="m13 2h-2c0 8 0 11 1 12h2c-1-2-1-4-1-12z" style="fill:#f1f2f2;paint-order:markers fill stroke"/>
</svg>
