<?xml version="1.0" encoding="UTF-8" standalone="no"?>
<!--Part of Monotone: https://github.com/sixsixfive/Monotone, released under cc-by-sa_v4-->
<svg xmlns="http://www.w3.org/2000/svg" version="1.1" viewBox="0 0 16 16">
 <rect opacity=".2" transform="matrix(.70709 .70712 -.70709 .70712 0 0)" ry=".86718" height="10.406" width="10.406" y="-5.2033" x="6.1106" fill="#f1f2f2"/>
 <path stroke-width="0.318" fill="#f1f2f2" d="m8 1c-0.2217 0-0.4434 0.084-0.6133 0.2539l-1.3887 1.3887c-0.0024 0.6328-0.0027 1.8245-0.0117 5.8301l5.1547-4.6915-2.5277-2.5273c-0.1699-0.1699-0.3916-0.2539-0.6133-0.2539zm-5 4.6426l-1.709 1.709-0.1191 0.2343c-0.0562 0.0561-0.0984 0.1205-0.127 0.1895-0.0003 0.0008-0.0016 0.0011-0.0019 0.0019-0.05806 0.1419-0.05806 0.3035 0 0.4454 0.0003 0.0008 0.0016 0.0011 0.0019 0.0019 0.0286 0.069 0.0708 0.1334 0.127 0.1895-0.008 0.0188-0.0098 0.0282-0.0176 0.0468 0.0331 0.0514 0.0565 0.1073 0.1016 0.1524l1.6015 1.6017c0.0214-0.015 0.0453-0.034 0.0664-0.049 0.046-0.096 0.0222-0.055 0.0762-0.166v-4.3574zm10.18 0.1777l-2.18 2.1797 2.18 2.18 1.564-1.5667c0.017-0.0174 0.024-0.0403 0.039-0.0586l0.045-0.1406c0.056-0.0561 0.098-0.1205 0.127-0.1895 0-0.0007 0.002-0.0012 0.002-0.0019v-0.002c0.029-0.0705 0.043-0.1458 0.043-0.2207 0-0.075-0.024-0.1478-0.043-0.2207v-0.002c0-0.0008-0.002-0.0011-0.002-0.0019-0.029-0.069-0.071-0.1334-0.127-0.1895l-0.045-0.1406c-0.015-0.0183-0.022-0.0412-0.039-0.0586l-1.564-1.5664zm-5.18 4.1797l-2.6797 2.68 2.0664 2.066c0.1699 0.17 0.3916 0.254 0.6133 0.254s0.4434-0.084 0.6133-0.254l2.0667-2.066-2.68-2.68z"/>
</svg>
