<!--Part of Monotone: https://github.com/sixsixfive/Monotone, released under cc-by-sa_v4-->
<svg xmlns="http://www.w3.org/2000/svg" viewBox="0 0 16 16">
    <path d="M1.455 1C.65 1 0 1.653 0 2.463V16l4.072-3.99h10.473c.806 0 1.455-.652 1.455-1.463V2.463C16 1.653 15.351 1 14.545 1zM6 3h1v1H6v5h1v1H6c-1 0-1 0-1-1V4c0-1 0-1 1-1zm2.2 2H10.8c.111 0 .199.088.199.2v.6c0 .112-.088.2-.199.2H8.199C8.09 6 8 5.912 8 5.8v-.6c0-.112.088-.2.2-.2zm0 2H10.8c.111 0 .199.088.199.2v.6c0 .112-.088.2-.199.2H8.199C8.09 8 8 7.912 8 7.8v-.6c0-.112.088-.2.2-.2z" fill="#f1f2f2"/>
</svg>
