<?xml version="1.0" encoding="UTF-8" standalone="no"?>
<svg
   xmlns:dc="http://purl.org/dc/elements/1.1/"
   xmlns:cc="http://creativecommons.org/ns#"
   xmlns:rdf="http://www.w3.org/1999/02/22-rdf-syntax-ns#"
   xmlns:svg="http://www.w3.org/2000/svg"
   xmlns="http://www.w3.org/2000/svg"
   xmlns:xlink="http://www.w3.org/1999/xlink"
   id="svg10"
   viewBox="0 0 16 16"
   version="1.1">
  <metadata
     id="metadata16">
    <rdf:RDF>
      <cc:Work
         rdf:about="">
        <dc:format>image/svg+xml</dc:format>
        <dc:type
           rdf:resource="http://purl.org/dc/dcmitype/StillImage" />
        <dc:title></dc:title>
      </cc:Work>
    </rdf:RDF>
  </metadata>
  <defs
     id="defs14">
    <linearGradient
       id="linearGradient868">
      <stop
         id="stop864"
         offset="0"
         style="stop-color:#f1f2f2;stop-opacity:1;" />
      <stop
         id="stop866"
         offset="1"
         style="stop-color:#a5a5a5;stop-opacity:0.53138077" />
    </linearGradient>
    <linearGradient
       id="linearGradient860">
      <stop
         id="stop856"
         offset="0"
         style="stop-color:#f1f2f2;stop-opacity:1;" />
      <stop
         id="stop858"
         offset="1"
         style="stop-color:#f1f2f2;stop-opacity:0;" />
    </linearGradient>
    <linearGradient
       gradientUnits="userSpaceOnUse"
       y2="8.4322739"
       x2="-19.289841"
       y1="29.679678"
       x1="-27.850061"
       id="linearGradient862"
       xlink:href="#linearGradient860" />
    <linearGradient
       gradientUnits="userSpaceOnUse"
       y2="8.5062771"
       x2="10"
       y1="8"
       x1="2"
       id="linearGradient870"
       xlink:href="#linearGradient868" />
  </defs>
  <g
     transform="matrix(-1,0,0,1,-51.416136,-256.03999)"
     id="tools">
    <g
       style="fill:#f1f2f2"
       transform="translate(-127.42,79.021)"
       id="gimp-tool-paintbrush">
      <g
         style="fill:url(#linearGradient862);fill-opacity:1"
         transform="matrix(-0.11313749,-0.47412962,-0.61035606,0.09136861,78.968149,174.10266)"
         id="g851">
        <path
           style="opacity:0.25480012;fill:url(#linearGradient862);stroke-width:0.54747158;fill-opacity:1"
           d="M 2 8 C 2.0024071 10.080249 7.4604201 16 10 13 C 10.352653 11.525036 8.548337 11.513682 8.1542969 10.712891 C 7.6976761 9.7849244 8.3758513 9.0511445 9.078125 9.0058594 C 7.4921034 9.0009168 7.0000004 12 2 8 z M 9.078125 9.0058594 C 9.5211922 8.9773015 9.8956633 9.0739615 10.191406 9.2421875 C 9.8959848 9.073689 9.5211921 8.9773015 9.078125 9.0058594 z "
           transform="matrix(0.30484137,1.5818816,-2.0363862,0.37747085,-5.0351375,5.7899774)"
           id="path849" />
      </g>
      <path
         style="opacity:1;fill:url(#linearGradient870);fill-opacity:1;stroke:none;stroke-opacity:0.94017095"
         d="M 8 1 A 7 7 0 0 0 3.6425781 2.5292969 C 5.7325143 4.2473311 6.5450137 4.4517992 9 8 C 8.19152 8.0319 7.6437031 8.5167536 7.2832031 9.3085938 C 4.8513831 6.5954473 3.8063545 5.0235003 2.7441406 3.390625 A 7 7 0 0 0 1 8 A 7 7 0 0 0 8 15 A 7 7 0 0 0 15 8 A 7 7 0 0 0 8 1 z M 9.078125 9.0058594 C 9.9642593 8.9487437 10.572389 9.3941613 10.835938 9.90625 C 11.158442 11.333142 10.746789 12.434176 10 13 C 10.352653 11.525036 8.548337 11.513682 8.1542969 10.712891 C 7.6976761 9.7849244 8.3758513 9.0511445 9.078125 9.0058594 z "
         transform="matrix(-1,0,0,1,76.003864,177.01899)"
         id="path847" />
      <path
         id="path825"
         transform="matrix(-1,0,0,1,76.003864,177.01899)"
         d="M 8 1 A 7 7 0 0 0 3.6425781 2.5292969 C 5.7325143 4.2473311 6.5450137 4.4517992 9 8 C 8.19152 8.0319 7.6437031 8.5167536 7.2832031 9.3085938 C 4.8513831 6.5954472 3.8063545 5.0235003 2.7441406 3.390625 A 7 7 0 0 0 1 8 A 7 7 0 0 0 8 15 A 7 7 0 0 0 15 8 A 7 7 0 0 0 8 1 z M 2 8 C 7.0000004 12 7.4921034 9.0009168 9.078125 9.0058594 C 9.9642593 8.9487437 10.572388 9.3941613 10.835938 9.90625 C 11.158442 11.333142 10.746789 12.434176 10 13 C 7.4604201 16 2.0024071 10.080249 2 8 z "
         style="opacity:1;fill:#f1f2f2;fill-opacity:1;stroke:none;stroke-opacity:0.94017095" />
      <g
         id="g4"
         transform="matrix(-0.11313749,-0.47412962,-0.61035606,0.09136861,78.968149,174.10266)" />
    </g>
  </g>
</svg>
