<?xml version="1.0" encoding="UTF-8"?>
<!--Part of Monotone: https://github.com/sixsixfive/Monotone, released under cc-by-sa_v4-->
<svg version="1.1" viewBox="0 0 16 16" xmlns="http://www.w3.org/2000/svg">
<g color="#f1f2f2" fill="#f1f2f2" font-family="Sans" font-weight="400">
<path d="m7.9883 0.99609c-3.842 0-6.9922 3.1492-6.9922 6.9922 0 3.842 3.1492 7.0156 6.9922 7.0156 0.81889 0 1.604-0.15196 2.3379-0.41602v-3.5879a0.67451 0.67451 0 0 1 0.67383-0.67383h0.45312 0.035156c0.20453-0.003423 0.41099 0.047214 0.58984 0.14648a0.67451 0.67451 0 0 1 0.005859 0.003906l1.9121 1.0938c0.63432-1.0527 1.0078-2.2767 1.0078-3.582 0-3.842-3.1736-6.9922-7.0156-6.9922zm0 4.0078c1.68 0 3.0078 1.3034 3.0078 2.9844a2.981 2.981 0 0 1-3.0078 3.0078c-1.68 0-2.9844-1.3278-2.9844-3.0078 0-1.68 1.3034-2.9844 2.9844-2.9844z" style="opacity:.5;text-decoration-line:none;text-indent:0;text-transform:none"/>
<path d="M8.005 6.006c-1.099 0-2.013.898-2.013 1.996 0 1.099.914 1.997 2.013 1.997a2.002 2.002 0 0 0 1.997-1.997 2.002 2.002 0 0 0-1.997-1.996zm0 .998a.99.99 0 0 1 .998.998.99.99 0 0 1-.998.999.99.99 0 0 1-.998-.999.99.99 0 0 1 .998-.998z" overflow="visible" style="text-decoration-line:none;text-indent:0;text-transform:none"/>
</g>
<path d="m11 11v4.9999h0.49999a0.49999 0.49999 0 0 0 0.24999-0.0625l3.4999-1.9999c0.155-0.086 0.23449-0.26149 0.23449-0.43749s-0.079-0.35149-0.23449-0.43749l-3.4999-1.9999a0.49799 0.49799 0 0 0-0.24999-0.0625h-0.047z" font-weight="400" overflow="visible" style="color:#000000;fill:#f1f2f2;stroke-width:.49999;text-decoration-line:none;text-indent:0;text-transform:none"/>
</svg>
