<!--Part of Monotone: https://github.com/sixsixfive/Monotone, released under cc-by-sa_v4-->
<svg viewBox="0 0 16 16" xmlns="http://www.w3.org/2000/svg">
    <g fill="#f1f2f2">
        <path d="M11.281.005c-.278.075-.375.5-.156.688l3.187 3.186c.22.23.692.037.688-.281V.38a.414.414 0 0 0-.406-.375h-3.188a.375.375 0 0 0-.125 0z" style="text-indent:0;text-align:start;line-height:normal;text-transform:none;block-progression:tb;marker:none;-inkscape-font-specification:Sans" font-weight="400" color="#000" overflow="visible" font-family="Sans"/>
        <path d="M1.844.005C1.362.093.99.538 1 1.005V15c0 .524.513 1 1.063 1h11.875c.55 0 1.062-.476 1.062-1l-.031-7.59a.975.975 0 0 0-.281-.72L8.28.287a1.081 1.081 0 0 0-.75-.28H2.063a1.331 1.331 0 0 0-.22 0zm1.156 2h4l3.5 3.498 2.5 2.5V14H3V2.005z" style="text-indent:0;text-align:start;line-height:normal;text-transform:none;marker:none" font-weight="400" color="#000" overflow="visible" font-family="Andale Mono"/>
        <path d="M5 11h3v.969H5zm0-2.031h6v1.063H5zm0-1.938h5V8H5zm0-2h3V6H5z"/>
    </g>
</svg>
