<?xml version="1.0" encoding="UTF-8"?>
<svg version="1.1" viewBox="0 0 16 16" xmlns="http://www.w3.org/2000/svg" xmlns:xlink="http://www.w3.org/1999/xlink">
<g transform="translate(0,-240)">
<path d="m3.5588 245.76c0.35294-0.66177 1.4054-0.95045 2.0294-0.61765 0.66176 0.35294 0.97059 1.3676 0.61765 2.0294-0.42109 0.78954-1.3676 0.97059-2.0294 0.61765-0.57305-0.30563-1.0455-1.2271-0.61765-2.0294zm0.14706 2.9118c1.1029 0.58824 2.5735-0.0441 2.8088-0.48529l5.9559 3.1765 1.5294-2.8676-1.1029-0.58824-0.82353 1.5441-1.1029-0.58823 0.82353-1.5441-1.1029-0.58824-0.82353 1.5441-2.6471-1.4118c0.23529-0.44118-0.058823-2.0147-1.1618-2.6029-0.9933-0.52976-2.7941-0.0735-3.3824 1.0294-0.58824 1.1029-0.073529 2.7941 1.0294 3.3824zm4.2941 6.4485c-1 0-1-0.625-1-0.625-2-1-4 0-6 1v-13.5c2.75-1 5-2 7 0.5 2-2.5 4.25-1.5 7-0.5v13.5c-2-1-3.75-2-6-1 0 0 0 0.625-1 0.625z" style="fill-rule:evenodd;fill:#f1f2f2"/>
</g>
</svg>
