<!--Part of Monotone: https://github.com/sixsixfive/Monotone, released under cc-by-sa_v4-->
<svg xmlns="http://www.w3.org/2000/svg" viewBox="0 0 16 16">
    <path style="line-height:normal;-inkscape-font-specification:Sans;text-indent:0;text-align:start;text-decoration-line:none;text-transform:none;marker:none" d="M8 1C4.146 1 1 4.146 1 8a7.026 7.026 0 0 0 2.938 5.719c.233-.658.754-1.17 1.406-1.469A4.979 4.979 0 0 1 3 8c0-2.773 2.227-5 5-5s5 2.227 5 5c0 .648-.153 1.245-.375 1.813.724.03 1.367.307 1.875.75.316-.796.5-1.657.5-2.563 0-3.854-3.146-7-7-7z" color="#f1f2f2" font-weight="400" font-family="Sans" overflow="visible" fill="#f1f2f2"/>
    <path style="marker:none" d="M8 4a3.987 3.987 0 0 0-2.844 1.188.49.49 0 0 0 .063.25c.1.167.184.338.312.468.095-.299.41-.531.782-.531.312 0 .584.147.718.375.267-.279.521-.6 1.063-.625.904-.043.994.657 1.906.844.591.121 1.12.039 1.438-.031A4.006 4.006 0 0 0 8 4zm-.469.438c.028-.012.065.004.094 0 .086-.012.148.011.187.062.053.068.016.14-.093.188-.11.047-.23.036-.282-.032-.052-.067-.016-.171.094-.218zm-.625.156a.87.87 0 0 1 .125 0c.102.005.17.061.219.125.087.113.025.264-.156.343-.183.08-.414.051-.5-.062-.087-.113.006-.265.187-.344.046-.02.078-.055.125-.062zm.594.343c.06-.008.129-.005.156.032.037.047.015.122-.062.156-.078.033-.182.016-.219-.031-.037-.048-.015-.092.063-.125.019-.008.042-.029.062-.031zm1 .907c-.52-.026-.77.398-.813.781-.042.383.986.182.657.75-.035.06-.095.089-.125.125-.04.286-.289.5-.625.5a.696.696 0 0 1-.407-.125c-.014.07-.053.162-.062.281-.031.422.282.766.344 1.031a2.67 2.67 0 0 0 .187-.437c.048.199.098.355.157.5A3.53 3.53 0 0 1 9.5 8.812c.84 0 1.554.353 2.156.844.186-.403.302-.82.344-1.281-.1-.288-.38-1.1-.688-1.281a.673.673 0 0 0-.062-.031c.024.056.024.115 0 .156-.037.065-.142.071-.219 0-.05-.047-.056-.1-.062-.156-.206.07-.355.287-.406.53-.077.366.437.97.437.97-.352-.001-.875.034-1.063-.47-.16-.427.144-1.057-.187-1.374 0 0-.73-.85-1.25-.875zm2.281 1.625c.016-.003.045-.001.063 0 .07.004.146.025.219.093.144.137.194.345.124.47-.07.123-.23.104-.374-.032-.145-.136-.226-.345-.157-.469.026-.046.077-.053.125-.062zm-6.75.03c-.02.161-.03.335-.03.501C4 8.68 4.2 9.314 4.5 9.875a1.097 1.097 0 0 1-.062-.563c.05-.323.696-.16.687-.406a.859.859 0 0 0 .188.156c.385.224.865.12 1.062-.218.198-.34.042-.777-.344-1-.385-.224-.865-.152-1.062.187-.115.197-.1.449 0 .656a3.57 3.57 0 0 0-.563-.375L4.031 7.5zM4.5 9.876c.36.673.896 1.22 1.563 1.594.03-.105.054-.212.093-.313-.25-.056-.527-.167-.781-.25.343-.151.738-.27.969-.562-.402-.08-.638-.35-.907-.563-.175.212-.312.411-.53.406-.201-.004-.331-.133-.407-.312zm1.781-.563a1.092 1.092 0 0 0-.25.032c-.258.077-.424.244-.562.406.372.084.752.267 1.156.156a3.438 3.438 0 0 1-.156-.594c-.061-.009-.123-.002-.188 0zm.75.188c.027.045.065.08.094.125.039-.03.059-.058.094-.094A.598.598 0 0 1 7.03 9.5z" color="#000" overflow="visible" opacity=".35" fill="#f1f2f2" fill-rule="evenodd"/>
    <path style="marker:none" d="M9.5 10A2.5 2.5 0 0 0 7 12.5c0 .218.041.423.094.625A1.549 1.549 0 0 0 6.5 13a1.5 1.5 0 1 0 0 3h8a1.5 1.5 0 1 0 0-3 2 2 0 0 0-2-2c-.316 0-.61.088-.875.219A2.47 2.47 0 0 0 9.5 10z" color="#000" overflow="visible" fill="#f1f2f2"/>
</svg>
