<!--Part of Monotone: https://github.com/sixsixfive/Monotone, released under cc-by-sa_v4-->
<svg xmlns="http://www.w3.org/2000/svg" viewBox="0 0 16 16">
    <path style="line-height:normal;-inkscape-font-specification:Sans;text-indent:0;text-align:start;text-decoration-line:none;text-transform:none;marker:none" d="M8 3C5.25 3 3 5.25 3 8c0 1.783.958 3.363 2.375 4.25a3.4 3.4 0 0 1 .531-.188c.229-1.816 1.72-3.25 3.594-3.25 1.003 0 1.839.474 2.5 1.126.175-.034.308-.126.5-.126h.125C12.849 9.246 13 8.643 13 8c0-2.75-2.25-5-5-5z" color="#f1f2f2" font-weight="400" font-family="Sans" overflow="visible" fill="#f1f2f2"/>
    <path d="M.563 7h.875A.56.56 0 0 1 2 7.563v.875c0 .31-.25.562-.563.562H.563A.561.561 0 0 1 0 8.437v-.874A.56.56 0 0 1 .563 7zm14 0h.874c.312 0 .563.25.563.563v.875a.56.56 0 0 1-.563.562h-.874A.561.561 0 0 1 14 8.437v-.874c0-.312.25-.563.563-.563zM9 .562v.875A.56.56 0 0 1 8.437 2h-.874A.561.561 0 0 1 7 1.437V.562A.56.56 0 0 1 7.563 0h.875C8.748 0 9 .25 9 .562zm4.966 2.886l-.618.619a.561.561 0 0 1-.796 0l-.619-.619a.561.561 0 0 1 0-.796l.619-.618c.22-.22.575-.22.796 0l.618.618c.22.22.22.576 0 .796zm-9.899 9.899l-.619.62a.561.561 0 0 1-.795 0l-.62-.62a.561.561 0 0 1 0-.795l.62-.619c.22-.22.575-.22.795 0l.619.619c.22.22.22.575 0 .795zM3.448 2.034l.619.619c.22.22.22.575 0 .795l-.619.619a.561.561 0 0 1-.796 0l-.618-.619a.561.561 0 0 1 0-.795l.618-.62c.22-.22.576-.22.796 0z" style="marker:none" overflow="visible" color="#f1f2f2" fill="#f1f2f2"/>
    <path style="marker:none" d="M9.5 10A2.5 2.5 0 0 0 7 12.5c0 .218.041.423.094.625A1.549 1.549 0 0 0 6.5 13a1.5 1.5 0 1 0 0 3h8a1.5 1.5 0 1 0 0-3 2 2 0 0 0-2-2c-.316 0-.61.088-.875.219A2.47 2.47 0 0 0 9.5 10z" color="#000" overflow="visible" fill="#f1f2f2"/>
</svg>
