<?xml version="1.0" encoding="UTF-8" standalone="no"?>
<!--Part of Monotone: https://github.com/sixsixfive/Monotone, released under cc-by-sa_v4-->
<svg xmlns="http://www.w3.org/2000/svg" version="1.1" viewBox="0 0 16 16">
 <g opacity=".35" style="color:#000000" transform="translate(-3)" font-weight="400" fill="#f1f2f2">
  <path style="text-decoration-line:none;text-transform:none;text-indent:0" overflow="visible" d="m8 0c-2.75 0-5 2.25-5 5 0 1.586 0.845 2.903 2 3.813v3.187h6v-3.188c1.155-0.909 2-2.226 2-3.812 0-2.75-2.25-5-5-5zm0 2c1.669 0 3 1.331 3 3 0 1.116-0.595 2.038-1.5 2.563l-0.5 0.312v2.125h-2v-2.125l-0.5-0.313c-0.905-0.524-1.5-1.445-1.5-2.562 0-1.669 1.331-3 3-3zm-2 13v1h4v-1zm-1-2v1h6v-1z"/>
  <path style="text-decoration-line:none;text-transform:none;text-indent:0" overflow="visible" d="m7 5v1h2v-1z"/>
 </g>
 <path style="color:#f1f2f2" fill="#f1f2f2" overflow="visible" d="m11 11h1.375l1.125 1.094 1.094-1.094h1.406v1.469l-1.094 1.062 1.094 1.063v1.406h-1.437l-1.063-1.063-1.062 1.063h-1.438v-1.406l1.063-1.063-1.063-1.061z"/>
</svg>
