<?xml version="1.0" encoding="UTF-8" standalone="no"?>
<!--Part of Monotone: https://github.com/sixsixfive/Monotone, released under cc-by-sa_v4-->
<svg id="svg26" xmlns="http://www.w3.org/2000/svg" viewBox="0 0 16 16" version="1.1"><path id="path18" style="fill-rule:evenodd;fill:#f1f2f2" d="m9.975 4v2h-1v1h1v2l1 1h2v-1h-2v-2h1v-1h-1v-2z"/><path id="path20" style="stroke-linejoin:bevel;stroke-width:23.2;stroke-linecap:round;fill:#f1f2f2" d="m7 5h1v4h-1zm-2.025-1h2.051l0.974 1h-3.025zm-0.975 1 1-1v5h-1zm0 4h4l-1 1h-2zm2 1h2v1h-1z"/><path id="path824" style="paint-order:fill markers stroke;fill:#f1f2f2" d="m1 1v12h2v2l2-2h7.5l2.5-2.5v-9.5zm1 1h12v8l-2 2h-10v-8z"/></svg>
