<?xml version="1.0" encoding="UTF-8"?>
<svg version="1.1" viewBox="0 0 16 16" xmlns="http://www.w3.org/2000/svg">
 <g fill="#f1f2f2" opacity=".5">
  <path d="m5.4414 8.0859c-1.109 0.363-2.4365 1.2883-2.4375 2.9023l-0.0039062 3.0117c0 0.554 0.446 1 1 1h5v-1.4062a1.0001 1.0001 0 0 1 0.29297-0.70703l0.35547-0.35547-0.35547-0.35352a1.0001 1.0001 0 0 1-0.29297-0.70703v-1.4707a1.0001 1.0001 0 0 1 1-1h1.375a1.0001 1.0001 0 0 1 0.69727 0.2832l0.41797 0.40625 0.10156-0.10156c-0.43892-0.72369-1.1884-1.273-2.0371-1.4941-0.706 0.623-1.5397 0.90625-2.5547 0.90625-1.016 0-1.8526-0.29006-2.5586-0.91406z"/>
  <path d="m11 5a3 3 0 0 1-3 3 3 3 0 0 1-3-3 3 3 0 0 1 3-3 3 3 0 0 1 3 3z" color="#f1f2f2" overflow="visible"/>
 </g>
 <path d="m10 10h1.375l1.125 1.094 1.094-1.094h1.406v1.469l-1.094 1.062 1.094 1.063v1.406h-1.438l-1.062-1.063-1.063 1.063h-1.437v-1.406l1.063-1.063-1.063-1.061z" color="#f1f2f2" fill="#f1f2f2" overflow="visible"/>
</svg>
