<?xml version="1.0" encoding="UTF-8"?>
<svg version="1.1" viewBox="0 0 16 16" xmlns="http://www.w3.org/2000/svg">
 <g fill="#f1f2f2" fill-opacity="1.0">
  <path d="m2.334 1c-0.739 0-1.334 0.59498-1.334 1.334v11.332c0 0.739 0.59498 1.334 1.334 1.334h11.332c0.739 0 1.334-0.59498 1.334-1.334v-11.332c0-0.739-0.59498-1.334-1.334-1.334h-11.332zm4.7773 2h1.7773c0.61556 0 1.1113 0.49577 1.1113 1.1113v1.8887h1.8887c0.61556 0 1.1113 0.49577 1.1113 1.1113v1.7773c0 0.61556-0.49577 1.1113-1.1113 1.1113h-1.8887v1.8887c0 0.61556-0.49577 1.1113-1.1113 1.1113h-1.7773c-0.61556 0-1.1113-0.49577-1.1113-1.1113v-1.8887h-1.8887c-0.61556 0-1.1113-0.49577-1.1113-1.1113v-1.7773c0-0.61556 0.49577-1.1113 1.1113-1.1113h1.8887v-1.8887c0-0.61556 0.49577-1.1113 1.1113-1.1113z"/>
  <path d="m8 4-1 1h2z"/>
  <path d="m12 8-1-1v2z"/>
  <path d="m8 12 1-1h-2z"/>
  <path d="m4 8 1 1v-2z"/>
 </g>
</svg>
