<?xml version="1.0" encoding="UTF-8" standalone="no"?>
<!--Part of Monotone: https://github.com/sixsixfive/Monotone, released under cc-by-sa_v4-->
<svg id="svg3471" xmlns="http://www.w3.org/2000/svg" xml:space="preserve" overflow="visible" viewBox="0 0 16 16" version="1.0" enable-background="new 0 0 343.75 416.25"><g id="g3158" transform="matrix(.96315 0 0 .96315 1.1058 -376.35)"><path id="rect4487" d="m8.0156 1.0156c-0.61847 0-1.237 0.23704-1.7109 0.71094l-4.5625 4.5625c-0.9478 0.9478-0.9478 2.4741 0 3.4219l2.3223 2.3223 2.2402 2.2402c0.14156 0.14156 0.29938 0.25424 0.46289 0.35352 0.010938 0.0064 0.022186 0.01134 0.033203 0.01758 0.16119 0.09442 0.32948 0.16678 0.50391 0.2207 0.8288 0.25621 1.7635 0.06654 2.4219-0.5918l4.5624-4.5621c0.9478-0.9478 0.9478-2.4741 0-3.4219l-4.5625-4.5625c-0.4738-0.4738-1.0924-0.7109-1.7109-0.7109zm-0.0156 1c0.52986 0 1.0607 0.20333 1.4668 0.60938l2.6872 2.6875c-1.577 0.0419-2.6408-1.3667-4.1208-1.3125-0.8266 0.0303-1.7832 0.4375-3.0332 2l2 4c-0.3686-0.2051-0.0704 0.017-0.4922 0.016-0.8715 0.001-1.6788 0.458-2.1289 1.205l-1.7539-1.7542c-0.8121-0.8121-0.8121-2.1195 0-2.9316l3.9102-3.9102c0.406-0.406 0.9349-0.6094 1.4648-0.6094zm1.084 3.961c1.32 0.0626 1.498 2.0234 3.789 0.0546l0.502 0.502c0.8121 0.8121 0.8121 2.1215 0 2.9336l-3.9082 3.9082c-0.2574 0.257-0.5669 0.423-0.8926 0.518 0.276-0.41 0.4241-0.892 0.4258-1.385 0.0000041-0.0026 0.0000041-0.0052 0-0.0078v-0.5c-0.5045-1.301-1.4936-4.0007-2.0137-5.3299 0.3799-0.6265 1.1796-0.7369 2.0977-0.6933z" style="fill:#f1f2f2" transform="matrix(1.0406,0,0,1.0406,-1.1831,390.74)"/></g></svg>
