<?xml version="1.0" encoding="UTF-8"?>
<!--Part of Monotone: https://github.com/sixsixfive/Monotone, released under cc-by-sa_v4-->
<svg version="1.1" viewBox="0 0 16 16" xmlns="http://www.w3.org/2000/svg">
<path d="m2 2c-0.554 0-1 0.446-1 1v10c0 0.554 0.446 1 1 1h12c0.554 0 1-0.446 1-1v-10c0-0.554-0.446-1-1-1h-12zm0.81055 1h10.379l-4.8672 4.8672c-0.17806 0.17806-0.46647 0.17806-0.64453 0l-4.8672-4.8672zm-0.81055 1.1875 3.8105 3.8125-3.8105 3.8125v-7.625zm12 0v7.625l-3.8105-3.8125 3.8105-3.8125zm-7.1895 4.8125 0.86719 0.86719c0.089031 0.089032 0.20608 0.13281 0.32227 0.13281s0.23323-0.043782 0.32227-0.13281l0.86719-0.86719 4 4h-10.379l4-4z" style="fill:#f1f2f2;opacity:.5"/>
</svg>
