<?xml version="1.0" encoding="UTF-8"?>
<svg version="1.1" viewBox="0 0 16 16" xmlns="http://www.w3.org/2000/svg">
 <g fill="#f1f2f2">
  <path d="m2 2c-0.554 0-1 0.446-1 1v10c0 0.554 0.446 1 1 1h5.1719l-0.58594-0.58594c-0.12181-0.12183-0.21514-0.26481-0.29688-0.41406h-3.4785l3.707-3.707c-0.59975-0.71831-0.59975-1.8676 0-2.5859l-3.707-3.707h10.379l-3.666 3.666 0.6543 0.6543 3.4551-2.7656 0.36719-0.36719v0.10156c0.29306-0.17546 0.62916-0.27914 0.9707-0.28906 0.009825-2.907e-4 0.019472 0.0020898 0.029297 0.0019531v-1.002c0-0.554-0.446-1-1-1h-12zm0 2.1875 3.8105 3.8125-3.8105 3.8125v-7.625zm13 8.375-1.7969 1.4375h0.79688c0.554 0 1-0.446 1-1v-0.4375z" opacity=".5"/>
  <path d="m14.971 9a1 1 0 0 0-0.5957 0.21875l-4.3008 3.4414-1.3672-1.3672a1 1 0 0 0-1.4141 0 1 1 0 0 0 0 1.4141l2 2a1.0001 1.0001 0 0 0 1.332 0.074219l5-4a1 1 0 0 0 0.15625-1.4062 1 1 0 0 0-0.81055-0.375z" color="#000000" color-rendering="auto" dominant-baseline="auto" image-rendering="auto" shape-rendering="auto" solid-color="#000000" stop-color="#000000" style="font-feature-settings:normal;font-variant-alternates:normal;font-variant-caps:normal;font-variant-east-asian:normal;font-variant-ligatures:normal;font-variant-numeric:normal;font-variant-position:normal;font-variation-settings:normal;inline-size:0;isolation:auto;mix-blend-mode:normal;shape-margin:0;shape-padding:0;text-decoration-color:#000000;text-decoration-line:none;text-decoration-style:solid;text-indent:0;text-orientation:mixed;text-transform:none;white-space:normal"/>
  <path d="m15 5a1 1 0 0 0-0.5957 0.21875l-4.3008 3.4414-1.3672-1.3672a1 1 0 0 0-1.4141 0 1 1 0 0 0 0 1.4141l2 2a1.0001 1.0001 0 0 0 1.332 0.07422l5-4a1 1 0 0 0 0.15625-1.4063 1 1 0 0 0-0.81055-0.375z" color="#000000" color-rendering="auto" dominant-baseline="auto" image-rendering="auto" shape-rendering="auto" solid-color="#000000" stop-color="#000000" style="font-feature-settings:normal;font-variant-alternates:normal;font-variant-caps:normal;font-variant-east-asian:normal;font-variant-ligatures:normal;font-variant-numeric:normal;font-variant-position:normal;font-variation-settings:normal;inline-size:0;isolation:auto;mix-blend-mode:normal;shape-margin:0;shape-padding:0;text-decoration-color:#000000;text-decoration-line:none;text-decoration-style:solid;text-indent:0;text-orientation:mixed;text-transform:none;white-space:normal"/>
 </g>
</svg>
