<?xml version="1.0" encoding="UTF-8" standalone="no"?>
<!--Part of Monotone: https://github.com/sixsixfive/Monotone, released under cc-by-sa_v4-->
<svg id="svg7384" style="enable-background:new" xmlns="http://www.w3.org/2000/svg" xmlns:osb="http://www.openswatchbook.org/uri/2009/osb" viewBox="0 0 16 16" version="1.1"><g id="layer12" transform="translate(-421 -181)"><path id="rect4927" style="fill:#f1f2f2" d="m425 182c-1 0-1 1-1 1h10s0-1-1-1h-8zm-1 2c-0.97227 0-1 1-1 1h12s0-1-1-1h-10zm-1 2c-0.46464 0-0.83592 0.32-0.94922 0.74805l6.9492 4.1504 6.9492-4.1504c-0.11-0.43-0.49-0.75-0.95-0.75h-12zm-1 1.8848v7.1152c0 0.554 0.446 1 1 1h12c0.554 0 1-0.446 1-1v-7.1152l-7 4.2168-7-4.2168z"/></g></svg>
