<?xml version="1.0" encoding="UTF-8"?>
<!--Part of Monotone: https://github.com/sixsixfive/Monotone, released under cc-by-sa_v4-->
<svg version="1.1" viewBox="0 0 16 16" xmlns="http://www.w3.org/2000/svg">
<path d="m3 2c-0.554 0-1 0.446-1 1v8.3223l1-0.85938v-6.2754l3.8105 3.8125-1.998 2h0.1875a1.0001 1.0001 0 0 1 0.98438 0.82617l1.8262-1.8262 0.18945 0.18945v-0.68945c0-0.277 0.223-0.5 0.5-0.5h0.5c-0.11662 0-0.23324-0.043782-0.32227-0.13281l-4.8672-4.8672h10.379l-4.8672 4.8672c-0.08903 0.08903-0.20565 0.13281-0.32227 0.13281h2.1895l3.8105-3.8125v3.8125h1v-5c0-0.554-0.446-1-1-1h-12z" style="fill:#f1f2f2;opacity:.5"/>
<g transform="matrix(-.5 0 0 -.5 26.203 15.5)" font-weight="400" style="fill:#f1f2f2">
<path transform="matrix(2,0,0,-2,18.406,31)" d="m12 11v0.625c0 0.16062 0.09702 0.33047 0.23242 0.44922l1.0938 0.92578h-2.5762c-0.42 0-0.75-0.33-0.75-0.75 0-0.08895 0.0215-0.1714 0.04883-0.25h-1.0234c-0.012045 0.082253-0.025391 0.16461-0.025391 0.25a1.7575 1.7575 0 0 0 1.75 1.75h2.5762l-1.0938 0.92578c-0.1354 0.11938-0.23242 0.28859-0.23242 0.44922v0.625h0.74023c0.22938 0 0.40818-0.05703 0.55469-0.17578l2.7051-2.3242-2.7051-2.3242c-0.1465-0.11938-0.32531-0.17578-0.55469-0.17578z" style="color:#000000;stroke-width:.5;text-decoration-line:none;text-indent:0;text-transform:none"/>
</g>
<path d="m9.7656 9c-0.43049 0-0.76562 0.33513-0.76562 0.76562v5.4688a0.75511 0.75511 0 0 0 0.76562 0.76562h5.4688a0.75511 0.75511 0 0 0 0.76562-0.76562v-5.4688a0.75511 0.75511 0 0 0-0.76562-0.76562h-5.4688zm0.73438 1h4c0.277 0 0.5 0.223 0.5 0.5s-0.223 0.5-0.5 0.5h-4c-0.277 0-0.5-0.223-0.5-0.5s0.223-0.5 0.5-0.5zm0 2h4c0.277 0 0.5 0.223 0.5 0.5s-0.223 0.5-0.5 0.5h-4c-0.277 0-0.5-0.223-0.5-0.5s0.223-0.5 0.5-0.5zm0 2h4c0.277 0 0.5 0.223 0.5 0.5s-0.223 0.5-0.5 0.5h-4c-0.277 0-0.5-0.223-0.5-0.5s0.223-0.5 0.5-0.5z" style="fill:#f1f2f2;stroke-width:.87498"/>
</svg>
