<?xml version="1.0" encoding="UTF-8"?>
<svg version="1.1" viewBox="0 0 16 16" xmlns="http://www.w3.org/2000/svg">
 <path d="m2 2c-0.554 0-1 0.446-1 1v10c0 0.554 0.446 1 1 1h5.1719l-0.58594-0.58594c-0.12181-0.12183-0.21514-0.26481-0.29688-0.41406h-3.4785l4-4 0.86719 0.86719c0.089031 0.089032 0.20608 0.13281 0.32227 0.13281s0.23323-0.043784 0.32227-0.13281l0.86719-0.86719 1.7148 1.7148 1.1113-0.88867-1.8262-1.8262 3.8105-3.8125v4.082c0.28592-0.16442 0.61154-0.25995 0.94141-0.26953 0.019712-5.832e-4 0.038887 0.0058248 0.058594 0.0058594v-5.0059c0-0.554-0.446-1-1-1h-12zm0.81055 1h10.379l-4.8672 4.8672c-0.17806 0.17806-0.46647 0.17806-0.64453 0l-4.8672-4.8672zm-0.81055 1.1875 3.8105 3.8125-3.8105 3.8125v-7.625zm13 8.375-1.7969 1.4375h0.79688c0.554 0 1-0.446 1-1v-0.4375z" fill="#f1f2f2" opacity=".5"/>
 <path d="m14.971 9a1 1 0 0 0-0.5957 0.21875l-4.3008 3.4414-1.3672-1.3672a1 1 0 0 0-1.4141 0 1 1 0 0 0 0 1.4141l2 2a1.0001 1.0001 0 0 0 1.332 0.074219l5-4a1 1 0 0 0 0.15625-1.4062 1 1 0 0 0-0.81055-0.375z" color="#000000" color-rendering="auto" dominant-baseline="auto" fill="#f1f2f2" image-rendering="auto" shape-rendering="auto" solid-color="#000000" stop-color="#000000" style="font-feature-settings:normal;font-variant-alternates:normal;font-variant-caps:normal;font-variant-east-asian:normal;font-variant-ligatures:normal;font-variant-numeric:normal;font-variant-position:normal;font-variation-settings:normal;inline-size:0;isolation:auto;mix-blend-mode:normal;shape-margin:0;shape-padding:0;text-decoration-color:#000000;text-decoration-line:none;text-decoration-style:solid;text-indent:0;text-orientation:mixed;text-transform:none;white-space:normal"/>
</svg>
