<!--Part of Monotone: https://github.com/sixsixfive/Monotone, released under cc-by-sa_v4-->
<svg xmlns="http://www.w3.org/2000/svg" viewBox="0 0 16 16">
    <path d="M0 0v16h.969c-.45-.525-.391-.992.031-1.531l2.545-2.521A3.93 3.93 0 0 1 3 9.968c0-2.213 1.8-4.03 4-4.03s4 1.817 4 4.03C11 12.183 9.2 14 7 14a3.92 3.92 0 0 1-2.188-.656l-2.78 2.65h12a.726.726 0 0 1-.218-.5c0-.385.303-.688.687-.688s.719.303.719.688a.726.726 0 0 1-.219.5h1v-16h-1c-.126.126-.308.219-.5.219s-.343-.093-.469-.22H1.97c-.126.127-.276.22-.468.22s-.374-.093-.5-.22zm1.5.813c.384 0 .688.303.688.687s-.304.719-.688.719S.781 1.884.781 1.5 1.116.812 1.5.812zm13 0c.384 0 .719.303.719.687s-.335.719-.719.719-.688-.335-.688-.719.304-.688.688-.688zm-13 2c.384 0 .688.303.688.687s-.304.719-.688.719S.781 3.884.781 3.5s.335-.688.719-.688zm13 0c.384 0 .719.303.719.687s-.335.719-.719.719-.688-.335-.688-.719.304-.688.688-.688zm-13 2c.384 0 .688.303.688.687s-.304.719-.688.719S.781 5.884.781 5.5s.335-.688.719-.688zm13 0c.384 0 .719.303.719.687s-.335.719-.719.719-.688-.335-.688-.719.304-.688.688-.688zm-13 2c.384 0 .688.303.688.687s-.304.719-.688.719S.781 7.884.781 7.5s.335-.688.719-.688zm13 0c.384 0 .719.303.719.687s-.335.719-.719.719-.688-.335-.688-.719.304-.688.688-.688zM7.04 8.015c-1.112 0-1.99.896-1.99 2.015 0 1.12.878 2.016 1.99 2.016s1.991-.896 1.991-2.016-.879-2.015-1.99-2.015zm-5.54.796c.384 0 .688.304.688.688s-.304.719-.688.719S.781 9.884.781 9.5s.335-.688.719-.688zm13 0c.384 0 .719.304.719.688s-.335.719-.719.719-.688-.335-.688-.719.304-.688.688-.688zm-13 2c.384 0 .688.304.688.688s-.304.719-.688.719-.719-.335-.719-.719.335-.688.719-.688zm13 0c.384 0 .719.304.719.688s-.335.719-.719.719-.688-.335-.688-.719.304-.688.688-.688zm0 2c.384 0 .719.304.719.688s-.335.719-.719.719-.688-.335-.688-.719.304-.688.688-.688z" fill="#f1f2f2"/>
</svg>
