<?xml version="1.0" encoding="UTF-8"?>
<!--Part of Monotone: https://github.com/sixsixfive/Monotone, released under cc-by-sa_v4-->
<svg version="1.1" viewBox="0 0 16 16" xmlns="http://www.w3.org/2000/svg" xmlns:cc="http://creativecommons.org/ns#" xmlns:dc="http://purl.org/dc/elements/1.1/" xmlns:rdf="http://www.w3.org/1999/02/22-rdf-syntax-ns#">
<metadata>
<rdf:RDF>
<cc:Work rdf:about="">
<dc:format>image/svg+xml</dc:format>
<dc:type rdf:resource="http://purl.org/dc/dcmitype/StillImage"/>
<dc:title/>
</cc:Work>
</rdf:RDF>
</metadata>
<path d="m7.5437 2c0.8125 0 0.3539 0.9181-0.1778 2.2734 2.1523 0.2922 3.8541 1.2915 4.6051 2.7266 0.7435-1.7406 2.6831-2.9238 3.6289-2.9238 1.1948 0-0.66992 2.0139-0.66992 4.459 0 2.445 1.8648 4.3945 0.66992 4.3945-0.92569 0-2.8545-1.2674-3.6289-2.9297-0.807 1.658-2.8436 2.972-5.4019 3.08 0.5488 1.354 1.599 1.92 0.6875 1.92-0.9965 0-3.1002-0.704-3.7715-2.355-1.0489-0.364-1.9333-0.931-2.5525-1.63-0.18033-0.203 0.6099-0.015 1.0388-0.015 1.2107 0 1-0.88361 0.34375-0.74218-0.10868-9.99e-4 -0.39086 0.1001-0.50195 0.08399-0.31488 0.05856-0.35374 0.0523-0.61328 0.04492-0.09094-0.01091-0.30522-0.0446-0.39258-0.06836-0.28834-0.084-0.5225-0.318-0.62106-0.527-0.16042-0.3625-0.16776-0.815-0.21484-1.1504-4e-6 -2.0511 1.944-3.7776 4.5879-4.291 0.8404-1.1429 1.7856-1.9899 2.9844-2.3496zm-4.5723 5c-0.55228 0-1 0.44772-1 1s0.44772 1 1 1 1-0.44772 1-1-0.44772-1-1-1z" style="fill-opacity:.99203;fill:#f1f2f2;stroke-width:.032084"/>
</svg>
