<?xml version="1.0" encoding="UTF-8" standalone="no"?>
<!--Part of Monotone: https://github.com/sixsixfive/Monotone, released under cc-by-sa_v4-->
<svg id="svg14" xmlns="http://www.w3.org/2000/svg" version="1.1" viewBox="0 0 16 16"><g id="g12" style="fill:#f1f2f2" transform="translate(1)"><path id="path2" style="opacity:.3" d="m4.924 5v2.541a0.925 0.925 0 0 1 -0.461 0.8 3.14 3.14 0 0 0 -1.54 2.661c0.001 0.805 0.334 1.603 0.903 2.172a3.11 3.11 0 0 0 2.174 0.902c0.805 0 1.604-0.333 2.174-0.902 0.57-0.57 0.902-1.37 0.902-2.174a3.14 3.14 0 0 0 -1.539 -2.658 0.925 0.925 0 0 1 -0.46 -0.801v-2.541z"/><path id="path4" d="m6 1c-1.108 0-2 0.892-2 2v4.541a4 4 0 0 0 -2 3.459 4 4 0 0 0 8 0 4 4 0 0 0 -2 -3.459v-4.541c0-1.108-0.892-2-2-2zm0 1.024c0.612 0 0.976 0.364 0.976 0.976v4.541c0 0.33 0.276 0.635 0.561 0.8a3.14 3.14 0 0 1 1.54 2.659c0 0.805-0.334 1.605-0.903 2.174a3.113 3.113 0 0 1 -2.174 0.902 3.112 3.112 0 0 1 -2.174 -0.903 3.112 3.112 0 0 1 -0.902 -2.172 3.14 3.14 0 0 1 1.539 -2.66c0.285-0.165 0.561-0.47 0.561-0.8v-4.543c0-0.611 0.364-0.976 0.976-0.976z"/><rect id="rect6" style="opacity:.9" ry=".5" height="1" width="3" y="2" x="7"/><rect id="rect8" style="opacity:.9" ry=".5" height="1" width="3" y="4" x="7"/><rect id="rect10" style="opacity:.9" ry=".5" height="1" width="3" y="6" x="7"/></g></svg>
