<!--Part of Monotone: https://github.com/sixsixfive/Monotone, released under cc-by-sa_v4-->
<svg xmlns="http://www.w3.org/2000/svg" version="1" viewBox="0 0 16 16">
    <g stroke-width="0" fill="#f1f2f2">
        <path fill-rule="evenodd" d="M4 15l4-7 4 7z"/>
        <path d="M8 1C4.136 1 1 4.23 1 8c0 2.176 1.066 4.268 2.694 5.52l.503-.879C2.86 11.573 2 9.817 2 8c0-3.211 2.713-6 6-6s6 2.789 6 6c0 1.811-.976 3.66-2.306 4.728l.5.876C13.817 12.353 15 10.17 15 8c0-3.77-3.136-7-7-7z"/>
        <path d="M8 4C5.637 4 4 5.692 4 8c0 1.228.345 2.102 1.21 2.867l.517-.907C5.151 9.39 5 8.86 5 8c0-1.744 1.204-3 3-3s3 1.256 3 3c0 .877-.23 1.495-.825 2.068l.512.896C11.55 10.199 12 9.228 12 8c0-2.308-1.638-4-4-4z"/>
    </g>
</svg>
