<?xml version="1.0" encoding="UTF-8"?>
<!--Part of Monotone: https://github.com/sixsixfive/Monotone, released under cc-by-sa_v4-->
<svg version="1.0" viewBox="0 0 16 16" xmlns="http://www.w3.org/2000/svg">
<g transform="translate(0,-32)">
<path transform="translate(0,32)" d="m7.5 1a2.4994 2.4994 0 0 0-2.5 2.498 2.4994 2.4994 0 0 0 2.5 2.5v0.0019531a2.4994 2.4994 0 0 0 2.5-2.5 2.4994 2.4994 0 0 0-2.5-2.498v-0.0019531zm-6.5 1.998c0 4.5828 4 6 4 6s-3 2.1459-3 6h3c0-1 1-3 2.5-3v0.001953c1.5 0 2.5 2 2.5 3h3c0-3.8541-3-6-3-6s4-1.4172 4-6h-3c0 2-1 4-3.5 4v-0.0019531c-2.5 0-3.5-2-3.5-4h-3z" style="fill:#f1f2f2"/>
</g>
</svg>
