<?xml version="1.0" encoding="UTF-8" standalone="no"?>
<!--Part of Monotone: https://github.com/sixsixfive/Monotone, released under cc-by-sa_v4-->
<svg id="svg6" xmlns="http://www.w3.org/2000/svg" version="1.1" viewBox="0 0 16 16"><path id="path2" style="color:#f1f2f2;text-indent:0;text-decoration-line:none;stroke-width:.71388;text-transform:none;fill:#f1f2f2" d="m5.9922 1c-2.7427 0-4.9922 2.2488-4.9922 4.9922 0 2.0474 1.2547 3.8261 3.0312 4.5978-0.0197-0.197-0.0312-0.396-0.0312-0.5978 0-0.9199 0.2174-1.7905 0.5938-2.5723a2 2 0 0 1 -0.5938 -1.4199 2 2 0 0 1 2 -2 2 2 0 0 1 1.4199 0.5938c0.7819-0.3765 1.6524-0.5938 2.5723-0.5938 0.2018 0 0.4008 0.0115 0.5978 0.0312-0.7717-1.7764-2.5504-3.0312-4.5978-3.0312zm0.0078 4a1 1 0 0 0 -1 1 1 1 0 0 0 0.1387 0.5039c0.3798-0.5255 0.8416-0.9856 1.3672-1.3652a1 1 0 0 0 -0.5059 -0.1387zm4 2c0.196 0-0.7785 0.0949-0.5859 0.0566 0.1925-0.0383-0.7439 0.2471-0.5625 0.1719 0.1814-0.0751-0.6809 0.3864-0.5176 0.2774 0.1632-0.1091-0.5939 0.5118-0.4551 0.373s-0.4821 0.6183-0.373 0.4551c0.109-0.1633-0.3525 0.699-0.2774 0.5176 0.0752-0.1814-0.2102 0.755-0.1719 0.5625 0.0383-0.1926-0.0566 0.7819-0.0566 0.5859 0-0.1963 0.0949 0.779 0.0566 0.586-0.0181-0.091 0.0278 0.089 0.0821 0.266 0.3306-0.08 0.6468-0.192 0.9492-0.334-0.0507-0.168-0.0879-0.34-0.0879-0.518 0-1.0472 0.9528-2 2-2 0.178 0 0.35 0.0372 0.518 0.0879 0.142-0.3024 0.254-0.6186 0.334-0.9492-0.177-0.0543-0.357-0.1002-0.266-0.0821 0.193 0.0383-0.7823-0.0566-0.586-0.0566z"/><path id="path837" style="color:#f1f2f2;text-indent:0;text-decoration-line:none;stroke-width:.71388;text-transform:none;fill:#f1f2f2" d="m9.9922 5c-2.7427 0-4.9922 2.2488-4.9922 4.9922 0 2.7428 2.2488 5.0078 4.9922 5.0078 2.7428 0 5.0078-2.265 5.0078-5.0078 0-2.7427-2.265-4.9922-5.0078-4.9922zm0.0078 3a2 2 0 0 1 2 2 2 2 0 0 1 -2 2 2 2 0 0 1 -2 -2 2 2 0 0 1 2 -2zm0 1a1 1 0 0 0 -1 1 1 1 0 0 0 1 1 1 1 0 0 0 1 -1 1 1 0 0 0 -1 -1z"/></svg>
