<?xml version="1.0" encoding="UTF-8"?>
<!--Part of Monotone: https://github.com/sixsixfive/Monotone, released under cc-by-sa_v4-->
<svg version="1.1" viewBox="0 0 16 16" xmlns="http://www.w3.org/2000/svg">
<path d="m0 6v10h1a1 1 0 0 0 0.5-0.125l7-4c0.31-0.172 0.469-0.523 0.469-0.875s-0.158-0.703-0.469-0.875l-7-4a0.996 0.996 0 0 0-0.5-0.125h-0.094z" font-weight="400" overflow="visible" style="color:#000000;fill:#f1f2f2;text-decoration-line:none;text-indent:0;text-transform:none"/>
<path d="m9.8613 0.0019531c-0.23061-0.0051523-0.4624 0.00175-0.69336 0.023438-0.616 0.0578-1.2288 0.2114-1.8184 0.4668-2.1918 0.94915-3.6331 3.0944-3.8281 5.5078h2c0.18778-1.6411 1.1919-3.052 2.623-3.6719 1.59-0.6885 3.3864-0.30604 4.6094 1.0059s1.5875 3.3116 0.89453 5.0254c-0.64888 1.6042-2.0684 2.6239-3.6484 2.7266v1.998c2.4152-0.10645 4.5641-1.6541 5.502-3.9727 0.984-2.4326 0.48684-5.2407-1.2852-7.1406-1.1629-1.2468-2.7412-1.9327-4.3555-1.9687z" style="color-rendering:auto;color:#000000;dominant-baseline:auto;fill:#f1f2f2;font-feature-settings:normal;font-variant-alternates:normal;font-variant-caps:normal;font-variant-ligatures:normal;font-variant-numeric:normal;font-variant-position:normal;image-rendering:auto;isolation:auto;mix-blend-mode:normal;shape-padding:0;shape-rendering:auto;solid-color:#000000;text-decoration-color:#000000;text-decoration-line:none;text-decoration-style:solid;text-indent:0;text-orientation:mixed;text-transform:none;white-space:normal"/>
</svg>
