<?xml version="1.0" encoding="UTF-8" standalone="no"?>
<!--Part of Monotone: https://github.com/sixsixfive/Monotone, released under cc-by-sa_v4-->
<svg id="svg6" xmlns="http://www.w3.org/2000/svg" version="1.1" viewBox="0 0 16 16"><path id="path2" style="color:#f1f2f2;text-indent:0;text-decoration-line:none;text-transform:none;fill:#f1f2f2" d="m7 1c-3.842 0-6.9922 3.1492-6.9922 6.9922 0.0000125 2.9958 1.9187 5.5768 4.584 6.5718-0.0799-0.112-0.1545-0.228-0.2188-0.349-0.5691-1.077-0.5165-2.437 0.1641-3.615l0.3008-0.522c-0.5102-0.5381-0.8223-1.2688-0.8223-2.0858 0-1.68 1.3034-2.9844 2.9844-2.9844 0.2144 0 0.4222 0.022 0.623 0.0625 0.0769-0.0395 0.149-0.0845 0.2344-0.1133 0.5746-0.1935 1.1857-0.0672 1.7129 0.1953a1.0198 1.0198 0 0 1 0.0801 0.045l0.8046 0.498 1.531-2.5996c-1.276-1.2907-3.0453-2.0957-4.986-2.0957zm-0.3086 5.043c-0.9479 0.1563-1.6875 0.9755-1.6875 1.9629 0 0.4245 0.1387 0.818 0.3691 1.1425l0.6465-1.1191a0.99 0.99 0 0 1 -0.0019 -0.0234 0.99 0.99 0 0 1 0.5527 -0.8946l0.0117-0.6289a1.0198 1.0198 0 0 1 0.1055 -0.4336c0.001-0.002 0.0029-0.0038 0.0039-0.0058zm7.3066 1.5996l-0.103 0.1738 0.115 0.0723c-0.001-0.0829-0.008-0.164-0.012-0.2461zm-2.838 5.1254c-0.274 0.284-0.426 0.726-0.402 1.125 0.326-0.21 0.633-0.446 0.92-0.705l-0.518-0.42z"/><path id="path906" style="text-decoration-color:#000000;color:#000000;isolation:auto;mix-blend-mode:normal;text-indent:0;text-decoration-line:none;white-space:normal;text-transform:none;text-decoration-style:solid;fill:#f1f2f2" d="m14.982 1.0195a1 1 0 0 0 -0.886 0.5059l-3.289 5.584-1.6918-1.0449c-0.757-0.377-1.2237-0.1475-1.5137 0.4375l-0.017578 0.9082 6.0195 3.5215 0.62305-0.2168c0.655-0.484 0.43798-1.2837-0.16602-1.5977l-1.552-0.9571 3.31-5.6211a1 1 0 0 0 -0.836 -1.5196zm-8.0332 7.4375-1.5293 2.6523c-1.0536 1.825-0.047 3.891 2.143 3.891h5.3711l-0.95117-0.81836a0.458 0.458 0 0 1 -0.08789 -0.70703l1.0449-1.541z"/></svg>
