<?xml version="1.0" encoding="UTF-8" standalone="no"?>
<!--Part of Monotone: https://github.com/sixsixfive/Monotone, released under cc-by-sa_v4-->
<svg xmlns="http://www.w3.org/2000/svg" version="1.1" viewBox="0 0 16 16">
 <path opacity=".5" style="text-decoration-line:none;text-transform:none;text-indent:0" d="m7.9883 0.99609c-3.842 0-6.9922 3.1492-6.9922 6.9922-0.00001 3.8417 3.1492 7.0157 6.9922 7.0157h0.0117v-4.008c-0.0039 0.000008-0.0078 0.000008-0.0117 0-1.68 0-2.9844-1.3277-2.9844-3.0077s1.3034-2.9844 2.9844-2.9844c0.3675 0 0.7093 0.0788 1.0312 0.1953-0.0066-0.0664-0.0195-0.131-0.0195-0.1992v-3c0-0.3224 0.0824-0.6214 0.2168-0.8906-0.3996-0.0718-0.8095-0.11332-1.2285-0.11332zm0.0176 5.0098c-1.099 0-2.0137 0.898-2.0137 1.9961 0 1.097 0.9115 1.9928 2.0078 1.996v-0.996c-0.55155 0.00125-0.99777-0.44847-0.9922-1-0.0045-0.5508 0.4414-0.9994 0.9922-0.9981v-0.0039c0.0002-0.3888 0.2257-0.7422 0.5781-0.9062-0.1855-0.0569-0.3782-0.0865-0.5722-0.0879zm0.9941 1.9941v8h7v-6l-1.896-2h-3.104zm1 1h4v1h1v5h-5z" fill="#f1f2f2"/>
 <path d="m12 0.004v1.996h-2v1.997h2v1.997h2v-1.997h2v-1.997h-2v-1.996z" fill="#f1f2f2"/>
</svg>
