<?xml version="1.0" encoding="UTF-8"?>
<svg version="1.1" viewBox="0 0 16 16" xmlns="http://www.w3.org/2000/svg">
<path d="m2.8203 1.0195c-0.32438-6.445e-4 -0.64364 0.085956-0.92383 0.28516-0.23913 0.17001-0.42083 0.41579-0.56445 0.70703a1.5 1.5 0 0 0-1.332 1.4883 1.5 1.5 0 0 0 1.5 1.5 1.5 1.5 0 0 0 1.5-1.5 1.5 1.5 0 0 0-0.66016-1.2422c0.045548-0.057845 0.092088-0.10694 0.13672-0.13867 0.20384-0.14492 0.47632-0.15268 0.86133 0.033203 0.65986 0.31858 1.4074 1.2392 1.6074 2.3047a8 6 0 0 0-4.9453 5.543 8 6 0 0 0 8 6 8 6 0 0 0 8-6 8 6 0 0 0-4.9453-5.5391c0.199-1.0671 0.94679-1.9896 1.6074-2.3086 0.38501-0.18588 0.65748-0.17813 0.86133-0.033203 0.044627 0.03173 0.09117 0.080827 0.13672 0.13867a1.5 1.5 0 0 0-0.66016 1.2422 1.5 1.5 0 0 0 1.5 1.5 1.5 1.5 0 0 0 1.5-1.5 1.5 1.5 0 0 0-1.332-1.4883c-0.14363-0.29124-0.32533-0.53702-0.56445-0.70703-0.28019-0.1992-0.59945-0.2858-0.92383-0.28516-0.32438 6.446e-4 -0.65429 0.088147-0.95313 0.23242-1.0055 0.48548-1.8904 1.5967-2.1465 2.957a8 6 0 0 0-2.0801-0.20898 8 6 0 0 0-2.0801 0.21289c-0.2551-1.362-1.14-2.475-2.1465-2.9609-0.29883-0.14427-0.62875-0.23178-0.95312-0.23242zm-1.3203 1.9805a0.5 0.5 0 0 1 0.5 0.5 0.5 0.5 0 0 1-0.5 0.5 0.5 0.5 0 0 1-0.5-0.5 0.5 0.5 0 0 1 0.5-0.5zm13 0a0.5 0.5 0 0 1 0.5 0.5 0.5 0.5 0 0 1-0.5 0.5 0.5 0.5 0 0 1-0.5-0.5 0.5 0.5 0 0 1 0.5-0.5zm-9.5 3a2 2 0 0 1 2 2 2 2 0 0 1-2 2 2 2 0 0 1-2-2 2 2 0 0 1 2-2zm6 0a2 2 0 0 1 2 2 2 2 0 0 1-2 2 2 2 0 0 1-2-2 2 2 0 0 1 2-2zm-7.5 5a1.5 1 0 0 1 1.5 1 1.5 1 0 0 1-1.5 1 1.5 1 0 0 1-1.5-1 1.5 1 0 0 1 1.5-1zm9 0a1.5 1 0 0 1 1.5 1 1.5 1 0 0 1-1.5 1 1.5 1 0 0 1-1.5-1 1.5 1 0 0 1 1.5-1zm-6.0254 1.9941a0.50005 0.50005 0 0 1 0.52344 0.53711c-0.010003 0.15569 0.03243 0.22034 0.20703 0.33008 0.1746 0.10974 0.48123 0.19235 0.78906 0.19531 0.30783 0.002958 0.61164-0.073918 0.78711-0.18164s0.22606-0.17559 0.21875-0.35352a0.50046 0.50046 0 1 1 1-0.042968c0.022237 0.54139-0.29997 1.0053-0.69531 1.248-0.39534 0.2427-0.85968 0.33448-1.3203 0.33008-0.46063-0.004428-0.92172-0.10523-1.3105-0.34961-0.38882-0.24438-0.70619-0.7042-0.67188-1.2383a0.50005 0.50005 0 0 1 0.47266-0.47461z" style="fill:#f1f2f2;paint-order:markers fill stroke"/>
<path d="m11.734 6.418a0.73511 0.79108 0 0 0-0.73438 0.79102 0.73511 0.79108 0 0 0 0.73438 0.79102 0.73511 0.79108 0 0 0 0.73633-0.79102 0.73511 0.79108 0 0 0-0.73633-0.79102zm-5.9219 0.021484a0.81347 0.77989 0 0 0-0.8125 0.78125 0.81347 0.77989 0 0 0 0.8125 0.7793 0.81347 0.77989 0 0 0 0.81445-0.7793 0.81347 0.77989 0 0 0-0.81445-0.78125zm-1.3125 1.5605a0.5 0.5 0 0 0-0.5 0.5 0.5 0.5 0 0 0 0.5 0.5 0.5 0.5 0 0 0 0.5-0.5 0.5 0.5 0 0 0-0.5-0.5zm6 0a0.5 0.5 0 0 0-0.5 0.5 0.5 0.5 0 0 0 0.5 0.5 0.5 0.5 0 0 0 0.5-0.5 0.5 0.5 0 0 0-0.5-0.5z" style="fill:#f1f2f2;paint-order:markers fill stroke"/>
</svg>
