<?xml version="1.0" encoding="UTF-8" standalone="no"?>
<!--Part of Monotone: https://github.com/sixsixfive/Monotone, released under cc-by-sa_v4-->
<svg id="svg2" xmlns="http://www.w3.org/2000/svg" viewBox="0 0 16 16" version="1.0" xmlns:xlink="http://www.w3.org/1999/xlink"><path id="path6475" style="color:#000000;fill-rule:evenodd;fill:#f1f2f2" d="m8.9238 1.0176c-2.961 0.5925-5.1562 3.3951-4.9355 5.9746 0.1578 1.8448 1.3878 3.7818 3.3613 3.5668 1.1686-0.128 1.9987-1.0716 1.8281-2.3246-0.1624-0.5393-0.9019-0.361-1.1777-0.2344 0-0.5635 0.7251-1.3564 1.4941-1 0.9509 0.5464 2.1369 2.8481 1.0509 4.205-1.0619 1.327-2.9005 1.746-4.2305 1.766-1.3301 0.019-2.6735-0.48-3.7989-1.229-0.5784-0.385-1.0794-0.839-1.5156-1.334v2.121c0 1.379 1.1115 2.489 2.4922 2.489l3.541-0.006c3.0048-0.563 5.4718-3.259 4.9788-5.9866-0.33-1.822-1.388-3.7799-3.3616-3.5645-1.1686 0.1276-1.7585 0.915-1.5879 2.168 0.1625 0.5393 0.6617 0.5172 0.9375 0.3906 0 0.5635-0.8696 1.2529-1.6387 0.8965-0.9511-0.5464-2.014-2.4359-0.9277-3.793 1.0618-1.3265 2.9219-2.0546 4.2519-2.0742 1.3305-0.0195 2.6735 0.4775 3.7985 1.2266 0.579 0.385 1.08 0.839 1.516 1.334v-2.1035c0-1.3784-1.112-2.4883-2.492-2.4883h-3.5842z"/><path id="path4552" style="color:#000000;fill-rule:evenodd;fill:#f1f2f2" d="m12.508 1.0176l-11.508 0.0019v11.51c0 1.378 1.1115 2.488 2.4922 2.488l11.508-0.018v-11.494c0-1.3785-1.112-2.4884-2.492-2.4884zm0 0.9824c0.854 0 1.51 0.6556 1.51 1.5059v10.514l-10.526 0.015c-0.854 0-1.5096-0.655-1.5096-1.506v-10.527l10.526-0.002z"/></svg>
