<?xml version="1.0" encoding="UTF-8" standalone="no"?>
<!--Part of Monotone: https://github.com/sixsixfive/Monotone, released under cc-by-sa_v4-->
<svg xmlns="http://www.w3.org/2000/svg" viewBox="0 0 16 16" version="1.1">
 <path style="text-decoration-line:none;text-transform:none;text-indent:0" fill="#f1f2f2" d="m7.9883 0.99609c-3.842 0-6.9922 3.1492-6.9922 6.9922 0 3.842 3.1492 7.0156 6.9922 7.0156 3.842 0 7.0156-3.1736 7.0156-7.0156s-3.1736-6.9922-7.0156-6.9922zm0.0117 1.0039c3.3137 0 6 2.6863 6 6s-2.6863 6-6 6-6-2.686-6-6c0-3.3137 2.6863-6 6-6z"/>
 <path fill="#f1f2f2" d="m8 1a7 7 0 0 0 -7 7 7 7 0 0 0 7 7 7 7 0 0 0 7 -7 7 7 0 0 0 -7 -7zm-0.5039 4.9844c0.136 0.0025 0.265 0.0604 0.3574 0.1601 0.036 0.0387 0.0657 0.0829 0.0879 0.1309 0.0347 0.0681 0.0586 0.1426 0.0586 0.2246v3c0 0.277-0.223 0.5-0.5 0.5s-0.5-0.223-0.5-0.5v-1.5137l-0.5977 0.8106c-0.0942 0.1277-0.2435 0.2031-0.4023 0.2031v0.0137c-0.1588 0-0.3081-0.0754-0.4023-0.2032l-0.5977-0.8105v1.5137c0 0.277-0.223 0.5003-0.5 0.5003s-0.5-0.2233-0.5-0.5003v-3c0-0.082 0.0239-0.1565 0.0586-0.2246 0.0222-0.048 0.0519-0.0922 0.0879-0.1309 0.0924-0.0998 0.2214-0.1576 0.3574-0.1602 0.1646-0.003 0.3202 0.0751 0.416 0.209l1.0801 1.4668v-0.0136l1.0801-1.4668c0.0958-0.1339 0.2514-0.2121 0.416-0.209zm2.0039 0.0156h2c0.277 0 0.5 0.223 0.5 0.5s-0.223 0.5-0.5 0.5h-1.5v2h1.5c0.277 0 0.5 0.223 0.5 0.5s-0.223 0.5-0.5 0.5h-2c-0.277 0-0.5-0.223-0.5-0.5v-3c0-0.277 0.223-0.5 0.5-0.5z"/>
</svg>
