<!--Part of Monotone: https://github.com/sixsixfive/Monotone, released under cc-by-sa_v4-->
<svg viewBox="0 0 16 16" xmlns="http://www.w3.org/2000/svg">
    <path d="M11 1C3.008 1 .351 9.726 0 10.375 3.27 13.8 6.331 15 10 15c2.647 0 4.514-2.007 5.313-4 .548-1.37.732-3.113.656-7-1-2-3.97-3-4.969-3zM4 5h7.719c.566 0 .702.058 1.156.188.793.34 1.092 1.078 1.125 1.75.024 1.11-.007 2.95 0 4.062h-2V7c0-.554-.447-1-1-1-.553 0-1 .446-1 1v3c.002.347.002.732 0 1H8V7c0-.554-.446-1-1-1s-1 .446-1 1c-.018.506-.006 1.253 0 2v2H4V5z" fill="#f1f2f2"/>
</svg>
