<?xml version="1.0" encoding="UTF-8"?>
<!--Part of Monotone: https://github.com/sixsixfive/Monotone, released under cc-by-sa_v4-->
<svg version="1.1" viewBox="0 0 16 16" xmlns="http://www.w3.org/2000/svg">
<path d="m5.377 1.002c-0.25918-0.011106-0.52167 0.031247-0.77734 0.14062-1.1339 0.48939-1.565 1.6909-1.5996 2.8574-0.16843 2.4825 0.94586 5.1246 2.9844 6.5449 0.46139 0.30752-0.18908 0.008189-0.33203-0.050781-0.54512-0.1223-1.1199-0.6297-1.6523-0.49414-1.1056 0.75721-1.9623 1.8814-1.998 3.2676-0.06609 0.7427 0.36011 1.5742 1.1426 1.7031 0.38609 0.067347 0.79254 0.015034 1.1621-0.11133 1.3348-0.52628 2.1902-1.8046 2.8027-3.0488 0.78759-1.6998 0.84237-3.5095 0.89062-5.3867 0.061553-1.4547 0.2878-3.0743-0.63281-4.2559-0.4631-0.61891-1.2127-1.1327-1.9902-1.166zm7.1523 4c-0.10315-0.0081776-0.21415 0.0050025-0.30469 0.039062-0.49341 0.1856-1.1925 0.99009-1.7715 2.043-0.3984 0.72445-1.0237 2.2878-1.8965 4.7402-0.16824 0.47274-0.35287 1.0485-0.41016 1.2793-0.25675 1.0342-0.17316 1.7609 0.2168 1.8809 0.22334 0.068731 0.55111-0.097593 0.85547-0.43359 0.66212-0.73095 1.1508-2.0375 1.2051-3.2285l0.017578-0.38867 0.26758-0.32812c0.78442-0.96559 1.4095-1.9648 1.8125-2.8945 0.51778-1.1944 0.63022-2.3297 0.26172-2.627-0.056698-0.04573-0.15075-0.073854-0.25391-0.082031z" style="fill:#f1f2f2;stroke-width:.032432"/>
</svg>
