<?xml version="1.0" encoding="UTF-8"?>
<!--Part of Monotone: https://github.com/sixsixfive/Monotone, released under cc-by-sa_v4-->
<svg version="1.1" viewBox="0 0 16 16" xmlns="http://www.w3.org/2000/svg">
<g transform="translate(0,-1)">
<path d="m7 2-6 3v8l6 3v-9l-2 1v3a1.5 1 0 0 1-1.5 1 1.5 1 0 0 1-1.5-1 1.5 1 0 0 1 1.5-1 1.5 1 0 0 1 0.5 0.058594v-4.0586l3-1.5z" style="fill:#f1f2f2"/>
<path d="m8 2v3.7051c0.30934 0.025987 0.60649 0.039247 0.86328 0.015625 0.58446-0.053765 0.98762-0.22889 1.2559-0.54492a0.5 0.5 0 0 1 0.38086-0.17578 0.5 0.5 0 0 1 0.5 0.5 0.5 0.5 0 0 1-0.11914 0.32422 0.5 0.5 0 0 0-2e-3 0.00195 0.5 0.5 0 0 1-0.08984 0.082031 0.5 0.5 0 0 1-0.0059 0.00391c-0.43558 0.44606-1.0382 0.64618-1.6737 0.73242 0.21594 0.14243 0.43836 0.25471 0.64648 0.42773a0.5 0.5 0 0 1 0.091797 0.068359 0.5 0.5 0 0 1 0.15234 0.35938 0.5 0.5 0 0 1-0.5 0.5 0.5 0.5 0 0 1-0.34766-0.14062c-0.34872-0.3377-0.7365-0.57465-1.1523-0.77539v1.9316c1.4607 0.35626 2.6598 0.12468 4.0332 0.021484 0.06123-0.68867 0.0939-0.99263-0.03125-2.4824a0.5 0.5 0 0 1 0-0.011719 0.5 0.5 0 0 1-2e-3 -0.042968 0.5 0.5 0 0 1 0.5-0.5 0.5 0.5 0 0 1 0.49805 0.45703c0.0012 0.014019 7.97e-4 0.013526 2e-3 0.027344a0.5 0.5 0 0 1-4.7e-5 0.015625c0.14636 1.7574 0.08299 1.9147 0 3a0.5 0.5 0 0 1-2e-3 0.037109 0.5 0.5 0 0 1-0.47652 0.46289c-0.19639 0.0088-0.39921 0.03171-0.59766 0.04883 0.17242 0.26446 0.28291 0.50868 0.36133 0.68164 0.07237 0.15962 0.12901 0.24622 0.14258 0.25977 0.01356 0.01355-0.02829 0.01019 0.07031 0.0098a0.5 0.5 0 0 0 2e-3 -4e-6 0.5 0.5 0 0 1 0.5 0.5 0.5 0.5 0 0 1-0.49805 0.5 0.5 0.5 0 0 0-2e-3 0 0.5 0.5 0 0 1-0.18164-0.0332 0.5 0.5 0 0 0-2e-3 -0.0019c-0.22901-0.03716-0.45035-0.12051-0.59566-0.26563-0.18513-0.18488-0.26632-0.38155-0.3457-0.55664-0.15695-0.34618-0.28283-0.66199-0.68359-1-0.82947 0.0677-1.715 0.06886-2.6914-0.12891v2.9258c0.19076-0.10411 0.35677-0.21132 0.48438-0.32226 0.39028-0.33932 0.52934-0.66375 0.51562-1.1016a0.5 0.5 0 0 1 0-0.01563 0.5 0.5 0 0 1 0.5-0.5 0.5 0.5 0 0 1 0.5 0.48438 0.5 0.5 0 0 1 0 0.01563 0.5 0.5 0 0 1-0.00195 0.03516c4.12e-5 0.0046-0.00197 0.0091-0.00195 0.01367 0.00144 0.50623-0.16063 0.98871-0.4668 1.4004 0.31176-0.0078 0.63561 0.0087 0.96875 0.05078a0.5 0.5 0 0 0 2e-3 0c0.01276 0.0016 0.02431 2.41e-4 0.03711 2e-3 0.01146 0.0015 0.02172 3.44e-4 0.0332 2e-3v2e-3a0.5 0.5 0 0 1 0.42964 0.494 0.5 0.5 0 0 1-0.5 0.5 0.5 0.5 0 0 1-0.07031-0.0059v2e-3c-0.81538-0.11427-1.6024 0.0133-2.4297 0.14257v1.8613l6-3v-8.0001z" style="fill:#f1f2f2"/>
</g>
</svg>
