<?xml version="1.0" encoding="UTF-8" standalone="no"?>
<!--Part of Monotone: https://github.com/sixsixfive/Monotone, released under cc-by-sa_v4-->
<svg id="svg1" xmlns="http://www.w3.org/2000/svg" viewBox="0 0 16 16" version="1.1"><defs id="defs3"><clipPath id="clipPath23756" clipPathUnits="userSpaceOnUse"><rect id="rect23758" style="color:#000000" rx="0" ry="0" height="16" width="16" y="876.36" x="312" fill="#bebebe"/></clipPath></defs><g id="layer1" style="fill:#f1f2f2" transform="matrix(1 0 0 .99960 -312 -876.01)"><g id="layer2" style="opacity:.5;display:none;fill:#f1f2f2" display="none" transform="translate(229.28,556.07)"><rect id="48x48" style="color:#000000;display:inline;fill:#f1f2f2" width="48" y="4.25" x="-2.25" height="48" display="inline"/><rect id="32x32" style="color:#000000;display:inline;fill:#f1f2f2" width="32" y="20.25" x="53.75" height="32" display="inline"/><rect id="24x24" style="color:#000000;display:inline;fill:#f1f2f2" width="24" y="28.25" x="93.75" height="24" display="inline"/><rect id="22x22" style="color:#000000;display:inline;fill:#f1f2f2" width="22" y="30.25" x="125.75" height="22" display="inline"/></g><path id="rect23745" style="color:#000000;fill:#f1f2f2" d="m314 877.36c-0.554 0-1 0.446-1 1v10c0 0.554 0.446 1 1 1h12c0.554 0 1-0.446 1-1v-9.9688c-0.40643 0.49032-0.79061 0.94173-1.125 1.3125-0.30207 0.33494-0.59509 0.64953-0.875 0.9375h-0.0312c-0.89538 0.949-2.2626 2.2734-3.9688 3.7188 0.0719 0.50544 0.0996 1.0384-0.15625 1.5312-0.30802 0.59343-0.90636 1.0625-1.6562 1.25-0.64451 0.16115-1.3707 0.26455-2.0625 0.21875-0.34592-0.0229-0.68055-0.0713-1.0312-0.21875-0.3507-0.1474-0.8009-0.47182-0.9375-1.0312a1.0086 1.0086 0 0 1 0.96875 -1.25c0.1948 0.0001 0.2045-0.0256 0.25-0.0625s0.12405-0.15195 0.21875-0.34375c0.18937-0.3836 0.26039-1.1475 1.125-1.7188 0.37715-0.2491 0.80763-0.3165 1.2188-0.3125 1.0056-1.4324 2.1187-2.9584 3.3125-4.2812-0.001 0.001 0.0292-0.0283 0.0312-0.0312 0.0107-0.0187 0.0336-0.0747 0.15625-0.21875a1.0086 1.0086 0 0 1 0.0312 -0.0312c0.133-0.14381 0.2449-0.21365 0.3125-0.28125 0.0132-0.0149 0.0183-0.017 0.0312-0.0312 0.0783-0.086 0.12125-0.11731 0.1875-0.1875h-9z"/><path id="path23225" style="color:#000000;text-indent:0;text-transform:none;fill:#f1f2f2" line-height="normal" d="m314.38 890.36-0.28125 0.5625a1.0063 1.0063 0 1 0 1.8125 0.875l0.72-1.44zm9 0 0.71875 1.4375a1.0063 1.0063 0 1 0 1.8125 -0.875l-0.28-0.56z"/><path id="path9274-5-7" style="fill:#f1f2f2" clip-path="url(#clipPath23756)" d="m330.03 872.36c-1.7996 1.2988-4.1852 3.3121-6.0938 5.3438-0.17324 0.18442-0.36758 0.34657-0.53125 0.53125-0.10346 0.10788-0.20907 0.20067-0.3125 0.3125-0.0653 0.0767-0.12423 0.17347-0.1875 0.25-1.3047 1.442-2.5877 3.1264-3.6562 4.6875-0.30993-0.15117-0.6844-0.17668-1.0938 0.0937-0.75359 0.49786-0.60416 2.2818-2.1562 2.2812 0.14696 0.60185 1.7391 0.58086 2.8125 0.3125 1.0131-0.25331 1.3178-1.1327 1.125-1.875-0.0273-0.10506-0.0928-0.20745-0.15625-0.3125 1.9784-1.6394 3.4153-3.0129 4.375-4.0312 0.2404-0.24587 0.52201-0.58075 0.84375-0.9375 1.2036-1.3346 2.9132-3.4268 5.0312-6.6562z"/></g></svg>
