<!--Part of Monotone: https://github.com/sixsixfive/Monotone, released under cc-by-sa_v4-->
<svg xmlns="http://www.w3.org/2000/svg" viewBox="0 0 16 16">
    <path d="M7.624.002a15.32 15.32 0 0 0-2.211.185C4.766.293 4.24.463 4.014.603c-.242.15-.688.604-1.141 1.213a19.345 19.345 0 0 0-1.361 2.17A20.093 20.093 0 0 0 .423 6.322 5.82 5.82 0 0 0 0 8c0 .54.567 2.04 1.357 3.466a21.903 21.903 0 0 0 1.644 2.532c.02-.642.015-1.42.053-2.056.034-.586.072-1.323.113-1.731a7.968 7.968 0 0 1 .11-.722c.019-.064.008-.12.129-.268a.7.7 0 0 1 .559-.235c.378.027.484.216.605.367.128.151.238.329.359.54.246.416.514.957.794 1.535.56 1.16 1.179 2.699 1.602 3.341.318.48.518.855.662 1.032.147.182.147.2.397.197a15.875 15.875 0 0 0 2.21-.185c.643-.106 1.169-.272 1.392-.409.246-.15.692-.604 1.141-1.22.45-.609.93-1.376 1.361-2.17a19.72 19.72 0 0 0 1.089-2.332A5.708 5.708 0 0 0 16 8c0-.537-.567-2.041-1.35-3.459a22.09 22.09 0 0 0-1.647-2.54c-.023.643-.016 1.626-.053 2.26a37.541 37.541 0 0 1-.114 1.528 7.975 7.975 0 0 1-.106.725c-.018.065-.007.117-.132.272a.7.7 0 0 1-.555.227c-.378-.022-.484-.215-.609-.366a4.03 4.03 0 0 1-.36-.537 23.427 23.427 0 0 1-.793-1.539c-.556-1.16-1.18-2.698-1.603-3.34C8.361.75 8.164.38 8.017.197 7.873.02 7.866.001 7.627.001z" fill="#f1f2f2" stroke-width="3.78" paint-order="markers stroke fill"/>
</svg>
