<!--Part of Monotone: https://github.com/sixsixfive/Monotone, released under cc-by-sa_v4-->
<svg xmlns="http://www.w3.org/2000/svg" viewBox="0 0 16 16">
    <g fill="#f1f2f2">
        <path style="line-height:normal;text-indent:0;text-align:start;text-decoration-line:none;text-decoration-style:solid;text-decoration-color:#000;text-transform:none;isolation:auto;mix-blend-mode:normal;marker:none" d="M4 11v1.01h3V13H2v2h12v-2H9v-.99h3V11z" color="#f1f2f2" font-weight="400" font-family="sans-serif" white-space="normal" overflow="visible" opacity=".5"/>
        <path style="marker:none" d="M8 1C6.355 1 5 2.355 5 4v1H4v1.01h8V5h-1V4c0-1.645-1.355-3-3-3zm0 2c.564 0 1 .436 1 1v1H7V4c0-.564.436-1 1-1z" color="#f1f2f2" overflow="visible" opacity=".5"/>
        <path d="M5 8.5A1.5 1.5 0 0 1 3.5 10 1.5 1.5 0 0 1 2 8.5 1.5 1.5 0 0 1 3.5 7 1.5 1.5 0 0 1 5 8.5zm4 0A1.5 1.5 0 0 1 7.5 10 1.5 1.5 0 0 1 6 8.5 1.5 1.5 0 0 1 7.5 7 1.5 1.5 0 0 1 9 8.5zm4 0a1.5 1.5 0 0 1-1.5 1.5A1.5 1.5 0 0 1 10 8.5 1.5 1.5 0 0 1 11.5 7 1.5 1.5 0 0 1 13 8.5z"/>
    </g>
</svg>
