<!--Part of Monotone: https://github.com/sixsixfive/Monotone, released under cc-by-sa_v4-->
<svg xmlns="http://www.w3.org/2000/svg" viewBox="0 0 16 16">
    <path style="marker:none" d="M2.063 0A2.048 2.048 0 0 0 0 2.063v11.874C0 15.088.912 16 2.063 16h11.874A2.048 2.048 0 0 0 16 13.937V2.063A2.048 2.048 0 0 0 13.937 0zM2 3h4a1 1 0 0 1 .875 1.438L5.5 7.217c.355.116.75.196.969.438C6.8 8.022 7 8.466 7 9v2c0 1.112-.907 2-2 2H2v-2h3V9H4a1 1 0 0 1-.875-1.438L4.375 5H2zm8.063.031h1.906c.003 0-.003.032 0 .031.527-.02 1.072.076 1.5.47.415.38.593 1.007.562 1.593h.031V6h-2v-.968c-.017-.003.003-.003-.03 0H10.03c-.006.003-.029-.004-.03 0-.008.022.006.046 0 .062v5.843c-.024-.021 0 .063 0 .063h1.968c.007-.02.03-.016.031 0V9.03h-1v-2h3v3.938c0 .562-.227 1-.562 1.375a1.966 1.966 0 0 1-1.47.625v.03H10c-.625 0-.994-.24-1.344-.562A1.863 1.863 0 0 1 8.031 11c0-.002-.03.002-.03 0V4.937c.062-.437.205-.889.562-1.28.357-.393.946-.626 1.5-.626z" color="#f1f2f2" overflow="visible" fill="#f1f2f2"/>
</svg>
