<!--Part of Monotone: https://github.com/sixsixfive/Monotone, released under cc-by-sa_v4-->
<svg xmlns="http://www.w3.org/2000/svg" viewBox="0 0 16 16">
    <defs>
        <clipPath id="a">
            <path style="marker:none" color="#f1f2f2" fill="#f1f2f2" stroke-width="2" overflow="visible" d="M26.999 221.502h1.876v4.878h-1.876z"/>
        </clipPath>
    </defs>
    <g fill="#f1f2f2">
        <path style="marker:none" d="M7.848 4.969c1.642-.092 3.096 1.17 3.188 2.812 0 1.402-.378 1.922-1.594 2.844-.191.144-.326.25-.375.313-.05.062-.031.033-.031.03.007.529-.472 1-1 1-.529 0-1.007-.471-1-1 0-.502.224-.943.468-1.25a3.82 3.82 0 0 1 .72-.687c.203-.16.46-.384.687-.656.093-.112.129-.308.125-.438v-.03a.988.988 0 0 0-1.063-.938c-.563.031-.969.437-.937 1h-2c-.092-1.643 1.17-2.908 2.812-3zm.188 8a1 1 0 1 1 0 2 1 1 0 0 1 0-2z" color="#f1f2f2" overflow="visible"/>
        <path transform="matrix(0 -2.66667 2.86852 0 -634.374 78)" style="line-height:normal;-inkscape-font-specification:Sans;text-indent:0;text-align:start;text-decoration-line:none;text-transform:none;marker:none" d="M27.125 221.313a.362.362 0 0 0-.219.593.362.362 0 0 0 .032.031 2.825 2.825 0 0 1 0 4 .362.362 0 1 0 .5.5 3.531 3.531 0 0 0 0-5 .362.362 0 0 0-.313-.125z" clip-path="url(#a)" color="#000" font-weight="400" font-family="Sans" overflow="visible" opacity=".35"/>
        <path d="M5 10h1.016c.024-.343.139-.72.514-1H5zM3 8h1.016c-.016-.68.102-1.652.664-2.18C4.096 6 3.433 6.503 3 7zm10 0h-1.016c.016-.68-.102-1.652-.664-2.18.584.18 1.247.683 1.68 1.18z" opacity=".35"/>
    </g>
</svg>
