<!--Part of Monotone: https://github.com/sixsixfive/Monotone, released under cc-by-sa_v4-->
<svg xmlns="http://www.w3.org/2000/svg" viewBox="0 0 16 16">
    <path style="marker:none" d="M7.848 4.969c1.642-.092 3.096 1.17 3.188 2.812 0 1.402-.378 1.922-1.594 2.844-.191.144-.326.25-.375.313-.05.062-.031.033-.031.03.007.529-.472 1-1 1-.529 0-1.007-.471-1-1 0-.502.224-.943.468-1.25a3.82 3.82 0 0 1 .72-.687c.203-.16.46-.384.687-.656.093-.112.129-.308.125-.438v-.03a.988.988 0 0 0-1.063-.938c-.563.031-.969.437-.937 1h-2c-.092-1.643 1.17-2.908 2.812-3zm.188 8a1 1 0 1 1 0 2 1 1 0 0 1 0-2z" color="#f1f2f2" overflow="visible" fill="#f1f2f2"/>
    <path d="M5 10h1.016c.024-.343.139-.72.514-1H5zM3 8h1.016c-.016-.68.102-1.652.664-2.18C4.096 6 3.433 6.503 3 7zm10 0h-1.016c.016-.68-.102-1.652-.664-2.18.584.18 1.247.683 1.68 1.18z" opacity=".35" fill="#f1f2f2"/>
    <path style="line-height:normal;-inkscape-font-specification:Sans;text-indent:0;text-align:start;text-decoration-line:none;text-transform:none;marker:none" d="M8 1.5C5.067 1.5 2.598 2.562.687 4.219a.5.5 0 0 0-.187.375V6a.5.5 0 0 0 .5.5h1.469a.5.5 0 0 0 .343-.125C4.264 5.167 5.806 4.5 8 4.5c2.187 0 3.76.703 5.219 1.875a.5.5 0 0 0 .312.125H15a.5.5 0 0 0 .5-.5V4.625a.5.5 0 0 0-.156-.375C13.609 2.7 10.95 1.5 8 1.5zm0 1c2.606 0 4.949 1.077 6.5 2.406V5.5h-.875c-1.536-1.182-3.312-2-5.625-2-2.307 0-4.083.775-5.625 2H1.5v-.656C3.22 3.414 5.39 2.5 8 2.5z" color="#000" font-weight="400" font-family="Sans" overflow="visible" opacity=".32" fill="none"/>
</svg>
