<!--Part of Monotone: https://github.com/sixsixfive/Monotone, released under cc-by-sa_v4-->
<svg xmlns="http://www.w3.org/2000/svg" viewBox="0 0 16 16">
    <path style="marker:none" d="M2.063 0A2.048 2.048 0 0 0 0 2.063v11.874C0 15.088.912 16 2.063 16h11.874A2.048 2.048 0 0 0 16 13.937V2.063A2.048 2.048 0 0 0 13.937 0zM6 3h6v2H6v2h6v2H6v2h6v2H6c-.625 0-.994-.241-1.344-.563-.33-.304-.644-.79-.625-1.437H4V5h.031c-.013-.475.11-1 .469-1.406.354-.401.934-.583 1.5-.563z" color="#f1f2f2" overflow="visible" fill="#f1f2f2"/>
</svg>
