<!--Part of Monotone: https://github.com/sixsixfive/Monotone, released under cc-by-sa_v4-->
<svg xmlns="http://www.w3.org/2000/svg" viewBox="0 0 16 16">
    <g color="#000" fill="#f1f2f2">
        <path d="M10 13a2 2 0 0 1-2 2 2 2 0 0 1-2-2 2 2 0 0 1 2-2 2 2 0 0 1 2 2z" style="isolation:auto;mix-blend-mode:normal;marker:none" overflow="visible" opacity=".32"/>
        <path style="marker:none" d="M8 2C5.186 2 2.828 3 1 4.586V6h1.48C4 4.736 5.7 4 8 4c2.3 0 4 .78 5.52 2H15V4.62C13.36 3.153 10.814 2 8 2z" overflow="visible" opacity=".32"/>
        <path style="marker:none" d="M8 5c-1.504 0-2.86.36-3.875 1h7.688C10.79 5.373 9.462 5 8 5z" overflow="visible" opacity=".32"/>
        <path d="M3.988 7h.016C4.833 7 5.5 7.667 5.5 8.496v.016c0 .829-.667 1.496-1.496 1.496h-.016a1.493 1.493 0 0 1-1.496-1.496v-.016C2.492 7.667 3.16 7 3.988 7zm4 0h.016C8.833 7 9.5 7.667 9.5 8.496v.016c0 .829-.667 1.496-1.496 1.496h-.016a1.493 1.493 0 0 1-1.496-1.496v-.016C6.492 7.667 7.16 7 7.988 7zm4 0h.016c.829 0 1.496.667 1.496 1.496v.016c0 .829-.667 1.496-1.496 1.496h-.016a1.493 1.493 0 0 1-1.496-1.496v-.016c0-.829.667-1.496 1.496-1.496z" style="isolation:auto;mix-blend-mode:normal;marker:none" display="block" overflow="visible"/>
    </g>
</svg>
