<?xml version="1.0" encoding="UTF-8"?>
<!--Part of Monotone: https://github.com/sixsixfive/Monotone, released under cc-by-sa_v4-->
<svg version="1.1" viewBox="0 0 16 16" xmlns="http://www.w3.org/2000/svg">
<g transform="translate(-1,1)" style="color:#000000;fill:#f1f2f2;opacity:.5">
<path d="m6 12a2 2 0 0 1-2 2 2 2 0 0 1-2-2 2 2 0 0 1 2-2 2 2 0 0 1 2 2z" overflow="visible"/>
<path d="m2 2v1c0 0.55 0.454 1 1 1a9 9 0 0 1 9 9c0 0.55 0.454 1 1 1h1v-1c0-6.075-4.925-11-11-11zm0 4v1c0 0.55 0.454 1 1 1a5 5 0 0 1 5 5c0 0.55 0.454 1 1 1h1v-1a7 7 0 0 0-7-7z" overflow="visible"/>
</g>
<path d="m 11,0 h 1.375 L 13.5,1.094 14.594,0 H 16 V 1.469 L 14.906,2.531 16,3.594 V 5 H 14.562 L 13.5,3.937 12.437,5 H 11 V 3.594 L 12.063,2.531 11,1.47 Z" overflow="visible" style="color:#f1f2f2;fill:#f1f2f2"/>
</svg>
