<?xml version="1.0" encoding="UTF-8" standalone="no"?>
<!--Part of Monotone: https://github.com/sixsixfive/Monotone, released under cc-by-sa_v4-->
<svg id="svg6" xmlns="http://www.w3.org/2000/svg" viewBox="0 0 16 16" version="1.1"><path id="rect4493" style="fill:#333333" d="m7.6426 8c-0.3562 0-0.6426 0.2864-0.6426 0.6426v7.3574h9v-8h-8.3574z"/><rect id="rect4491" style="fill:#f1f2f2" ry=".5" height="7" width="8" y="9" x="8"/><path id="path4725" style="color:#f1f2f2;fill:#333333" d="m11.538 9.981c-0.822 0-1.4811 0.72574-1.5 1.4845l-0.038 1.534h-0.5c-0.277 0-0.5 0.205-0.5 0.461v1.539h6v-1.539c0-0.256-0.223-0.461-0.5-0.461h-0.5l0.03829-1.5345c0.01896-0.75976-0.678-1.4845-1.5-1.4845zm0 1.0225h1c0.286 0 0.50658 0.19808 0.5 0.462l-0.038 1.534h-2l0.03829-1.5345c0.0066-0.26392 0.214-0.462 0.5-0.462z" overflow="visible"/><path id="path4727" style="color:#000000;text-indent:0;text-decoration-line:none;text-transform:none;fill:#f1f2f2" d="m-21.562 2.93c-1.373 0-2.5 1.101-2.5 2.469v9.062c0 1.369 1.126 2.469 2.5 2.469h4.562v-1h-4.563c-0.843 0-1.5-0.64-1.5-1.469v-9.061c0-0.828 0.657-1.469 1.5-1.469h9.126c0.843 0 1.5 0.64 1.5 1.469v4.53h0.937c0.022 0 0.04 0.01 0.063 0.012v-4.543c0-1.369-1.129-2.469-2.5-2.469z" overflow="visible" font-weight="400"/></svg>
