<?xml version="1.0" encoding="UTF-8" standalone="no"?>
<!--Part of Monotone: https://github.com/sixsixfive/Monotone, released under cc-by-sa_v4-->
<svg id="svg4" xmlns="http://www.w3.org/2000/svg" version="1.1" viewBox="0 0 16 16"><path id="path823" style="stroke:#f1f2f2;stroke-linecap:round;fill:none" d="m8 4c0 1-3 7-6.5 10.467"/><path id="path829" d="m6 8.5h4" style="stroke:#f1f2f2;fill:none"/><path id="path831" style="stroke:#f1f2f2;stroke-linecap:round;fill:none" d="m6 9 4 4"/><path id="path833" d="m10 9-4 4" style="stroke:#f1f2f2;stroke-linecap:round;fill:none"/><path id="path835" d="m8 4c0 1 3 7 6.5 10.467" style="stroke:#f1f2f2;stroke-linecap:round;fill:none"/><circle id="path825" r="1" style="paint-order:fill markers stroke;fill:#f1f2f2" cx="8" cy="4"/><rect id="rect837" style="paint-order:fill markers stroke;fill:#f1f2f2" ry=".5" height="1" width="12" y="13" x="2"/><path id="circle839" style="paint-order:fill markers stroke;fill:#f1f2f2" d="m8 1c-1.5708 0-3 1.4292-3 3 0 0.6698 0.2695 1.3057 0.6895 1.8242l0.5664-0.9101c-0.1565-0.2802-0.2559-0.5907-0.2559-0.9141 0-1.0472 0.9528-2 2-2s2 0.9528 2 2c0 0.3234-0.0994 0.6339-0.2559 0.9141l0.5669 0.9101c0.419-0.5185 0.689-1.1544 0.689-1.8242 0-1.5708-1.4292-3-3-3z"/></svg>
