<?xml version="1.0" encoding="UTF-8"?>
<!--Part of Monotone: https://github.com/sixsixfive/Monotone, released under cc-by-sa_v4-->
<svg version="1.1" viewBox="0 0 16 16" xmlns="http://www.w3.org/2000/svg">
<path d="m6.0039 10.004h-1.0039c-0.88883-5.54e-4 -1.6368-0.39484-2.1777-0.98243-0.54092-0.58759-0.90499-1.3549-1.168-2.1797-0.52591-1.6495-0.6465-3.5537-0.6543-4.834l1-0.00781c0.00742 1.2197 0.13713 3.064 0.60742 4.5391 0.23515 0.73751 0.55502 1.3765 0.94922 1.8047 0.3942 0.42821 0.83215 0.65977 1.4434 0.66015h1.002c2.998-0.0039 0 0 3.998 6e-6h1v1h-0.99805c-4.002-0.003906-0.001953-0.003906-3.998 0zm5.002-0.00391v-1c0.61121-3.8e-4 1.0492-0.23195 1.4434-0.66016 0.3942-0.4282 0.71408-1.0672 0.94922-1.8047 0.47029-1.4751 0.6-3.3194 0.60742-4.5391l1 0.00781c-0.0078 1.2803-0.12839 3.1845-0.6543 4.834-0.26298 0.8248-0.62705 1.5921-1.168 2.1797-0.5409 0.58759-1.2889 0.98187-2.1777 0.98242z" style="fill:#f1f2f2;stroke-width:.99917"/>
<circle cx="8.5" cy="9.5" r="2.5" style="fill:#f1f2f2"/>
</svg>
