<!--Part of Monotone: https://github.com/sixsixfive/Monotone, released under cc-by-sa_v4-->
<svg xmlns="http://www.w3.org/2000/svg" viewBox="0 0 16 16">
    <path d="M5 1C2.784 1 1 2.784 1 5v6c0 2.216 1.784 4 4 4h3.435c-3.592-3.185-4.912-7.35-4.912-7.35a.5.5 0 0 1 .128-.508s3.977-3.87 9.287-5.643A3.994 3.994 0 0 0 11 1zm7.938.499zm.319.196zm1.408 1.701z" fill="#f1f2f2" paint-order="markers stroke fill"/>
    <path d="M14.8 3.751c-4.378.922-6.428 3.75-6.724 4.188.134.473 1.336 4.438 4.677 6.655a3.98 3.98 0 0 0 .925-.624c-3.295-1.996-4.166-5.86-4.166-5.86a.5.5 0 0 1 .09-.412s1.884-2.484 5.332-3.41a3.983 3.983 0 0 0-.134-.537zm.134.537zm-1.256 9.682zm.262-.26zm-1.187.884z" fill="#f1f2f2" paint-order="markers stroke fill"/>
    <path d="M15 7.15a3.298 3.298 0 0 0-1.438 1c.046.263.36 1.953 1.42 3.203A4.07 4.07 0 0 0 15 11zm-.018 4.204zm-.053.391zm-.089.37zm-.124.364zm-.149.329zm-.18.32zm-2.054 1.642zm-.44.127zm-.445.077z" fill="#f1f2f2" paint-order="markers stroke fill"/>
</svg>
