<?xml version="1.0" encoding="UTF-8"?>
<svg version="1.1" viewBox="0 0 16 16" xmlns="http://www.w3.org/2000/svg">
<path d="m5 4c0 2 0.013014 2.7191-1.916 3.4395-1.5004 0.56027-2.084 1.5605-2.084 1.5605h0.015625c-0.66083 0.73963-1.0143 1.6097-1.0156 2.5 0 2.4853 2.6863 4.5 6 4.5 1.7436-0.0023 3.3997-0.57334 4.5371-1.5645-0.22039-0.0028-0.4411-0.02001-0.66016-0.07422-0.21433-0.0503-0.41951-0.12577-0.61914-0.21094-0.90579 0.54686-2.0616 0.8483-3.2578 0.84961-0.55228 0-1-0.67157-1-1.5s0.44772-1.5 1-1.5 1 0.67157 1 1.5c-6.57e-5 0.78743-0.40604 1.4407-0.92969 1.4961 0.97573-0.03447 1.784-0.7684 1.9121-1.7363-0.00347-0.0037-0.00631-8e-3 -0.00977-0.01172-0.10726-0.11569-0.20881-0.2363-0.30078-0.36524-0.00714-0.0099-0.012484-0.02124-0.019531-0.03125-0.084839-0.12148-0.16635-0.24696-0.23633-0.37891-0.02912-0.05433-0.049754-0.11392-0.076172-0.16992-0.045853-0.09829-0.09561-0.19378-0.13281-0.29688-0.058421-0.16009-0.10518-0.32518-0.14062-0.49609-0.01767-0.07432-0.026315-0.14839-0.039062-0.22266-0.31013-0.18694-0.66519-0.28617-1.0273-0.28711-1.1046 0-2 0.89543-2 2 4.995e-4 1.0496 0.81235 1.9203 1.8594 1.9941-0.052774-0.0014-0.10551-0.0033-0.1582-0.0059-2.6377-0.11053-4.6971-1.6386-4.7012-3.4883 0-1.933 2.2386-3.5 5-3.5 0.6498 2.386e-4 1.2933 0.089136 1.8945 0.26172 0.00272-0.00315 0.00704-0.00467 0.00977-0.00781 0.30267-0.34878 0.66663-0.64259 1.0781-0.85938-0.97665-0.86089-0.98242-1.4024-0.98242-2.3945l-3-1z" style="fill:#f1f2f2;paint-order:markers fill stroke"/>
<path d="m6 9a4 3 0 0 0-4 3 4 3 0 0 0 3.7012 2.9883 3 2.5 0 0 1-2.7012-2.4883 3 2.5 0 0 1 3-2.5 3 2.5 0 0 1 1.0332 0.15625c0.051567-0.34342 0.14099-0.67453 0.2832-0.98633a4 3 0 0 0-1.3164-0.16992zm2.5781 4.7734a3 2.5 0 0 1-2.3652 1.2207 4 3 0 0 0 2.748-0.98242c-0.13321-0.070984-0.2595-0.15232-0.38281-0.23828z" style="fill:#f1f2f2;paint-order:markers fill stroke"/>
<path d="m8.465 2.4413c-1.0652 1.4396-0.10632 1.7735 0.93014 1.4396 1.7349-0.51689 2.0593-1.7555 2.6048-2.8809-1.314 0.10215-2.6168 0.23543-3.5349 1.4413z" style="fill:#f1f2f2"/>
<path d="m6.675 1.8964c0.74439 1.0193 0.0743 1.2557-0.65002 1.0193-1.2124-0.36597-1.4391-1.2429-1.8203-2.0397 0.91826 0.072325 1.8287 0.16669 2.4704 1.0204z" style="fill:#f1f2f2"/>
<path d="m10.728 8.0015c-1.7596-0.06181-3.1803 1.8617-2.5942 3.5233 0.38608 1.3758 1.9888 2.239 3.3428 1.7988 0.28677-0.02404 0.60546-0.44992 0.75136-0.04104 0.63389 0.61976 1.2623 1.2453 1.8997 1.8614 0.41503 0.37307 1.1564 0.09056 1.218-0.4641 0.07914-0.37204-0.1971-0.65377-0.44714-0.88084-0.5547-0.54324-1.1052-1.0909-1.6626-1.6313-0.33597-0.13514 0.11926-0.47642 0.1087-0.74201 0.39185-1.2868-0.37339-2.7889-1.6423-3.2424-0.30956-0.11917-0.6441-0.1835-0.97428-0.18173zm0 1c0.87077-0.02278 1.6706 0.71463 1.715 1.585 0.08887 0.8677-0.58611 1.7218-1.4517 1.8323-0.94905 0.17332-1.9334-0.59332-1.9766-1.5633-0.08959-0.86816 0.58361-1.7245 1.4502-1.8354 0.08677-0.01266 0.17693-0.0209 0.26306-0.01867z" style="fill:#f1f2f2;text-decoration-line:none;text-indent:0;text-transform:none"/>
</svg>
