<?xml version="1.0" encoding="UTF-8"?>
<svg version="1" viewBox="0 0 16 16" xmlns="http://www.w3.org/2000/svg">
<g fill="#f1f2f2">
<path d="m3.5664 10-2.2578 1.1289c-0.41187 0.20594-0.41187 0.53625 0 0.74219l5.9473 2.9746c0.41187 0.20594 1.0764 0.20594 1.4883 0l5.9473-2.9746c0.41187-0.20594 0.41187-0.53625 0-0.74219l-2.2578-1.1289-3.6895 1.8457c-0.41187 0.20594-1.0764 0.20594-1.4883 0l-3.6895-1.8457z" style="fill-opacity:.99774;fill:#f1f2f2;opacity:.6;paint-order:markers fill stroke"/>
<path d="m3.5664 6-2.2578 1.1289c-0.41187 0.20594-0.41187 0.53625 0 0.74219l5.9473 2.9746c0.41187 0.20594 1.0764 0.20594 1.4883 0l5.9473-2.9746c0.41187-0.20594 0.41187-0.53625 0-0.74219l-2.2578-1.1289-3.6895 1.8457c-0.41187 0.20594-1.0764 0.20594-1.4883 0l-3.6895-1.8457z" style="fill-opacity:.99774;fill:#f1f2f2;opacity:.8;paint-order:markers fill stroke"/>
<rect transform="matrix(.89443 -.44721 .89443 .44721 0 0)" x="-3.597" y="4.2292" width="8.3121" height="8.3121" ry=".83121" style="fill-opacity:.99774;fill:#f1f2f2;paint-order:markers fill stroke"/>
</g>
</svg>
