<?xml version="1.0" encoding="UTF-8" standalone="no"?>
<!--Part of Monotone: https://github.com/sixsixfive/Monotone, released under cc-by-sa_v4-->
<svg xmlns="http://www.w3.org/2000/svg" version="1.1" viewBox="0 0 16 16">
 <path style="text-decoration-color:#000000;isolation:auto;mix-blend-mode:normal;text-indent:0;text-decoration-line:none;text-transform:none;text-decoration-style:solid" d="m9.0195 4-0.0195 11h2v-0.002c0.91842-0.007 1.7299-0.37555 2.25-0.95703 0.519-0.579 0.752-1.319 0.748-2.041h0.002v-2.9766h0.02344c-0.00005-0.00845 0.0021-0.016944 0.002-0.025391-0.003-0.7547-0.281-1.4817-0.781-2.0429-0.52-0.577-1.335-0.8754-2.244-0.9551h-0.008l0.008-2zm-3.5195 2c-1.3807 0-2.5 1.1193-2.5 2.5v4c0 1.381 1.1193 2.5 2.5 2.5s2.5-1.119 2.5-2.5v-4c0-1.3807-1.1193-2.5-2.5-2.5zm0 2c0.2761 0 0.5 0.2239 0.5 0.5v4c0 0.276-0.2239 0.5-0.5 0.5s-0.5-0.224-0.5-0.5v-4c0-0.2761 0.2239-0.5 0.5-0.5zm5.4844 0h0.016c0.41803 0 0.61882 0.12573 0.7793 0.30273 0.15264 0.16835 0.24602 0.42264 0.25781 0.68359-0.02062-0.00361-0.04098-0.00788-0.0625-0.00977h-0.99414zm0.016 1h1.0391c0.000269 0.00808 0.0038 0.015353 0.0039 0.023437v2.9766h-0.02539v0.002c0.004 0.276-0.08576 0.52927-0.23633 0.69727-0.147 0.164-0.349 0.331-0.782 0.301-0.0073-0.000505-0.01212 0.000618-0.01953 0v-2.023h0.02z" stroke-width=".99529" fill="#f1f2f2"/>
</svg>
