<!--Part of Monotone: https://github.com/sixsixfive/Monotone, released under cc-by-sa_v4-->
<svg viewBox="0 0 16 16" xmlns="http://www.w3.org/2000/svg">
    <path d="M1.092 11.39c2.059 1.547 5.183-.257 6.511-.964 2.602-1.384 2.995.353 3.351.592.552.472-1.36 1.965-1.253 3.016.059.584.14 1.048.14 1.048.244 0 3.012-1.38 2.927-2.75 1.118.63 1.358-.374 2.656-.174-.183-.28-.42-.694-.929-.912-.542-.203-1.46-.175-1.697-.866-.044-.781-.032-4.95-1.922-6.224-.276-.556.022-1.347.56-1.887.485-.489 1.215-.939 1.465-1.225-1.131-.013-2.277.306-3.36.937-.86.5-1.082.945-1.44 1.112C4.86 2.452 1.289 5.122.928 9.806c-.029.378-.023 1.466.164 1.583z" fill="#f1f2f2" fill-rule="evenodd"/>
</svg>
