<?xml version="1.0" encoding="UTF-8"?>
<svg version="1.1" viewBox="0 0 16 16" xmlns="http://www.w3.org/2000/svg">
<g fill="#f1f2f2">
<g fill-opacity=".97357">
<path d="m8 1-8 1v12l8 1v-14zm-1 2v0.375c0-0.1634-0.10474-0.29799-0.25-0.34961l0.25-0.025391zm-3 1a3 4 0 0 1 3 4 3 4 0 0 1-3 4 3 4 0 0 1-3-4 3 4 0 0 1 3-4zm0 1.8887c-0.60236 0-1.3809 0.88197-1.3809 2.1113s0.7785 2.1113 1.3809 2.1113 1.3809-0.88197 1.3809-2.1113-0.7785-2.1113-1.3809-2.1113zm3 6.7363v0.375l-0.25-0.025391c0.14526-0.051618 0.25-0.18621 0.25-0.34961z"/>
<path d="m9 4v1h5.625c0.20775 0 0.375 0.16725 0.375 0.375v5.25c0 0.20775-0.16725 0.375-0.375 0.375h-5.625v1h6.5c0.277 0 0.5-0.223 0.5-0.5v-7c0-0.277-0.223-0.5-0.5-0.5h-6.5z" style="fill-opacity:1;fill:#f1f2f2;paint-order:markers fill stroke"/>
<path d="m14 5-3 2.666-2-1.7773v1.4434l2 1.668 4-3.334v-0.66602h-1z" style="fill:#f1f2f2"/>
</g>
</g>
</svg>
