<?xml version="1.0" encoding="UTF-8"?>
<!--Part of Monotone: https://github.com/sixsixfive/Monotone, released under cc-by-sa_v4-->
<svg version="1.1" viewBox="0 0 16 16" xmlns="http://www.w3.org/2000/svg">
<path d="m2.334 1c-0.739 0-1.334 0.59498-1.334 1.334v11.332c0 0.739 0.59498 1.334 1.334 1.334h11.332c0.739 0 1.334-0.59498 1.334-1.334v-11.332c0-0.739-0.59498-1.334-1.334-1.334h-11.332zm5.666 4a3 3 0 0 1 2.625 1.5508 2 2 0 0 1 1.375-0.55078 2 2 0 0 1 2 2 2 2 0 0 1-2 2 2 2 0 0 1-1.377-0.55078 3 3 0 0 1-2.623 1.5508 3 3 0 0 1-2.625-1.5508 2 2 0 0 1-1.375 0.55078 2 2 0 0 1-2-2 2 2 0 0 1 2-2 2 2 0 0 1 1.377 0.55078 3 3 0 0 1 2.623-1.5508zm0 0.99805c-1.0439 0-1.9928 0.94704-2 1.9902a2 2 0 0 1 0 0.011719 2 2 0 0 1 0 0.013672c0.0084072 1.0424 0.95674 1.9883 2 1.9883 1.0439 0 1.9928-0.94704 2-1.9902a2 2 0 0 1 0-0.011719 2 2 0 0 1 0-0.013672c-0.0084072-1.0424-0.95674-1.9883-2-1.9883zm-4 1c-0.52423 0-1.002 0.47773-1.002 1.002s0.47773 1.002 1.002 1.002c0.52149 0 0.99505-0.47314 1-0.99414a3 3 0 0 1 0-0.0078125 3 3 0 0 1 0-0.0078125c-0.0049462-0.521-0.47851-0.99414-1-0.99414zm8 0c-0.52149 0-0.99505 0.47314-1 0.99414a3 3 0 0 1 0 0.0078125 3 3 0 0 1 0 0.0078125c0.004946 0.521 0.47851 0.99414 1 0.99414 0.52423 0 1.002-0.47773 1.002-1.002s-0.47773-1.002-1.002-1.002z" style="fill:#f1f2f2"/>
</svg>
