<?xml version="1.0" encoding="UTF-8"?>
<!--Part of Monotone: https://github.com/sixsixfive/Monotone, released under cc-by-sa_v4-->
<svg version="1.1" viewBox="0 0 16 16" xmlns="http://www.w3.org/2000/svg" xmlns:osb="http://www.openswatchbook.org/uri/2009/osb" xmlns:xlink="http://www.w3.org/1999/xlink">
<defs>
<linearGradient id="linearGradient899" osb:paint="solid">
<stop style="stop-color:#f1f2f2" offset="0"/>
</linearGradient>
<linearGradient id="linearGradient985" gradientTransform="matrix(1.3718,0,0,-1,-1985.1,-3251.9)" gradientUnits="userSpaceOnUse" xlink:href="#linearGradient899"/>
<linearGradient id="linearGradient1209" gradientTransform="matrix(10.974,0,0,-1,-15949,-3252.9)" gradientUnits="userSpaceOnUse" xlink:href="#linearGradient899"/>
</defs>
<path d="m5 5v3a3 3 0 0 1 3-3h-3zm3 0a3 3 0 0 1 3 3v-3h-3zm3 3a3 3 0 0 1-3 3h3v-3zm-3 3a3 3 0 0 1-3-3v3h3z" style="fill:#f1f2f2;opacity:.3"/>
<path d="m1 1v14h14v-14h-14zm1 1h12v12h-12v-12z" style="fill:#f1f2f2"/>
<path d="m8 5a3 3 0 0 0-1 0.17383v0.82617h1v-1zm0 1v1h-1v1h-1v1h1v1h1v-1h1v-1h1v-1h-1v-1h-1zm1 0h1v-0.23242a3 3 0 0 0-1-0.5918v0.82422zm1 0v1h0.82617a3 3 0 0 0-0.5957-1h-0.23047zm0 2v1h0.82422a3 3 0 0 0 0.17578-1h-1zm0 1h-1v1h1v-1zm0 1v0.23047a3 3 0 0 0 0.23242-0.23047h-0.23242zm-1 0h-1v1a3 3 0 0 0 1-0.17383v-0.82617zm-2 0h-1v0.23242a3 3 0 0 0 1 0.5918v-0.82422zm-1 0v-1h-0.82617a3 3 0 0 0 0.5957 1h0.23047zm0-2v-1h-0.82422a3 3 0 0 0-0.17578 1h1zm0-1h1v-1h-1v1zm0-1v-0.23047a3 3 0 0 0-0.23242 0.23047h0.23242z" style="fill:url(#linearGradient985)"/>
<path d="m8 3a5 5 0 0 0-1 0.10547v0.89453h-1v-0.57617a5 5 0 0 0-2.5801 2.5762h0.58008v1h-0.89844a5 5 0 0 0-0.10156 1h1v1h-0.89453a5 5 0 0 0 0.31836 1h0.57617v0.99023a5 5 0 0 0 1.0098 1.0098h0.99023v0.58008a5 5 0 0 0 1 0.31836v-0.89844h1v1a5 5 0 0 0 1-0.10547v-0.89453h1v0.57617a5 5 0 0 0 2.5801-2.5762h-0.58008v-1h0.89844a5 5 0 0 0 0.10156-1h-1v-1h0.89453a5 5 0 0 0-0.31836-1h-0.57617v-0.99023a5 5 0 0 0-1.0098-1.0098h-0.99023v-0.58008a5 5 0 0 0-1-0.31836v0.89844h-1v-1zm-3 2h6v6h-6v-6z" style="fill:url(#linearGradient1209);opacity:.3;stroke-width:2.8284"/>
</svg>
