<?xml version="1.0" encoding="UTF-8"?>
<svg version="1.1" viewBox="0 0 16 16" xmlns="http://www.w3.org/2000/svg">
<path d="m12 6c-0.554 0-1 0.446-1 1v1h-1-2v3.3398 0.32031 3.3398h5c1.108 0 2-0.892 2-2v-3c0-1.108-0.892-2-2-2v-1c0-0.554-0.446-1-1-1z" style="fill:#f1f2f2;paint-order:markers fill stroke"/>
<path d="m1 8v5c0 1.108 0.892 2 2 2h5v-2h1c0.554 0 1-0.446 1-1s-0.446-1-1-1h-1v-1-2h-2-5z" style="fill:#f1f2f2;opacity:.5;paint-order:markers fill stroke"/>
<path d="m3 1c-1.108 0-2 0.892-2 2v4 1h2v1c0 0.554 0.446 1 1 1s1-0.446 1-1v-1h3v-3h-1c-0.554 0-1-0.446-1-1s0.446-1 1-1h1c0-1.108-0.892-2-2-2h-3z" style="fill:#f1f2f2;paint-order:markers fill stroke"/>
</svg>
