<?xml version="1.0" encoding="UTF-8"?>
<svg version="1.1" viewBox="0 0 16 16" xmlns="http://www.w3.org/2000/svg" xmlns:osb="http://www.openswatchbook.org/uri/2009/osb">
<g id="path-difference" transform="translate(-165 -607.36)">
<g id="path-combine" transform="translate(-36.068 -116.07)">
<path d="m206.47 723.59c-1.2455-0.2089-2.629 0.3508-4.0726 1.9688a0.81973 1.0001 0 1 0 1.1014 1.4687c1.2202-1.3676 2.0396-1.5906 2.7663-1.4687s1.498 0.7316 2.3565 1.5c0.8584 0.7683 1.7771 1.6707 2.9712 2.0937 1.194 0.423 2.6417 0.2206 4.1238-1.0312a0.82782 1.01 0 0 0-0.9477-1.6563c-1.1818 0.9982-1.9369 1.0569-2.7151 0.7813-0.7782-0.2757-1.6013-1.022-2.4845-1.8125-0.8833-0.7906-1.8538-1.6349-3.0993-1.8438z" style="color:#000000;fill:#f1f2f2;stroke-width:2"/>
<path d="m202.85 736.43a0.82133 1.0011 0 1 0 0.0768 2h12.306a0.82051 1.0001 0 1 0 0-2h-12.306a0.82051 1.0001 0 0 0-0.0768 0z" style="color:#000000;fill:#f1f2f2;stroke-width:2"/>
<path d="m206.07 731.43h6l-3 3z" style="fill:#f1f2f2;stroke-width:1px"/>
</g>
</g>
</svg>
