<?xml version="1.0" encoding="UTF-8"?>
<!--Part of Monotone: https://github.com/sixsixfive/Monotone, released under cc-by-sa_v4-->
<svg version="1.1" viewBox="0 0 16 16" xmlns="http://www.w3.org/2000/svg" xmlns:osb="http://www.openswatchbook.org/uri/2009/osb">
<g id="show-path-outline" transform="translate(-799 -558.36)">
<g id="path-clip-edit" transform="translate(-30.024 .05348)">
<g id="path-mask-edit" transform="translate(-29.976 .93091)">
<g id="path-mode-spiro" transform="matrix(.99892 0 0 1 -59.002 .015591)">
<path d="m925.68 557.36a0.81882 0.81882 0 0 0-0.50391 0.17578l-5.873 4.6367a0.81882 0.81882 0 0 0 0.14063 1.375l3.7441 1.8711-1.5879 6.9414a0.81882 0.81882 0 0 0 1.3262 0.80859l5.8691-4.9473 5.0274 2.5137a0.81887 0.81887 0 1 0 0.73242-1.4648l-4.3965-2.1973 2.1426-1.8047a0.81882 0.81882 0 1 0-1.0547-1.252l-2.6816 2.2598-3.4941-1.7461 1.4121-6.168a0.81882 0.81882 0 0 0-0.80273-1.002zm-1.3125 2.9023-0.80469 3.5137-2.2324-1.1172zm0.32812 5.9102 2.5059 1.252-3.459 2.9141z" style="color-rendering:auto;color:#000000;dominant-baseline:auto;fill:#f1f2f2;font-feature-settings:normal;font-variant-alternates:normal;font-variant-caps:normal;font-variant-ligatures:normal;font-variant-numeric:normal;font-variant-position:normal;image-rendering:auto;isolation:auto;mix-blend-mode:normal;shape-padding:0;shape-rendering:auto;solid-color:#000000;text-decoration-color:#000000;text-decoration-line:none;text-decoration-style:solid;text-indent:0;text-orientation:mixed;text-transform:none;white-space:normal"/>
</g>
</g>
</g>
</g>
</svg>
