<?xml version="1.0" encoding="UTF-8"?>
<svg version="1.1" viewBox="0 0 16 16" xmlns="http://www.w3.org/2000/svg" xmlns:osb="http://www.openswatchbook.org/uri/2009/osb">
<g id="path-difference" transform="translate(-165 -607.36)">
<g id="path-combine" transform="translate(-36.068 -116.07)">
<path d="m213.04 728.43h0.031l-0.031 1h3v9h-9v-3c-0.4825 0.1142 0.048 0-0.4688 0-0.1711 0-0.3323-0.018-0.5-0.031v4.0313h11v-11h-4.0312z" style="fill:#f1f2f2"/>
<path d="m206.04 728.43v3h1v-2h2v-1h-1z" style="fill:#f1f2f2"/>
<path d="m206.57 723.43c-3.0376 0-5.5 2.4624-5.5 5.5s2.4624 5.5 5.5 5.5 5.5-2.4624 5.5-5.5-2.4624-5.5-5.5-5.5zm0 1c2.4853 0 4.5 2.0147 4.5 4.5s-2.0147 4.5-4.5 4.5-4.5-2.0147-4.5-4.5 2.0147-4.5 4.5-4.5z" style="fill:#f1f2f2"/>
</g>
</g>
</svg>
