<?xml version="1.0" encoding="UTF-8"?>
<!--Part of Monotone: https://github.com/sixsixfive/Monotone, released under cc-by-sa_v4-->
<svg version="1.1" viewBox="0 0 16 16" xmlns="http://www.w3.org/2000/svg" xmlns:osb="http://www.openswatchbook.org/uri/2009/osb">
<g id="show-path-outline" transform="translate(-799 -558.36)">
<g id="path-clip-edit" transform="translate(-30.024 .05348)">
<g id="path-mask-edit" transform="translate(-29.976 .93091)">
<g id="path-mode-spiro" transform="matrix(.99892 0 0 1 -59.002 .015591)">
<rect transform="translate(0 512.36)" x="919" y="45" width="16" height="16" style="fill:none"/>
<path d="m924.12 558.39c-1.5222 0.012-2.951 0.73483-3.8984 1.8945-0.94287 1.1542-1.3515 2.655-1.1914 4.1113 0.13059 1.1881 0.63197 2.3155 1.4258 3.209 0.79382 0.89352 1.8532 1.5214 3.0176 1.791a1.0006 1.0006 0 1 0 0.45117-1.9492c-0.7513-0.17396-1.4605-0.59536-1.9727-1.1719-0.51219-0.57653-0.84738-1.3311-0.93164-2.0977-0.10208-0.92871 0.1749-1.921 0.75-2.625 0.57057-0.69843 1.4881-1.1532 2.3652-1.1602 0.58629-4e-3 1.186 0.18009 1.6562 0.51367 0.46917 0.33281 0.83658 0.83605 1.0039 1.377 0.2072 0.66984 0.13385 1.5899 0.24414 2.6914 0.0707 0.70564 0.23801 1.4378 0.58594 2.1309 0.35056 0.69827 0.88084 1.3406 1.6074 1.7734 0.89555 0.53349 1.9711 0.67277 2.9707 0.39257 0.99848-0.27988 1.8378-0.95379 2.334-1.8594 0.44161-0.80594 0.5818-1.7424 0.39648-2.6426-0.18533-0.90012-0.68412-1.7055-1.4082-2.2715a1.0006 1.0006 0 1 0-1.2324 1.5762c0.33936 0.26525 0.59477 0.67575 0.68164 1.0977 0.0869 0.42188 0.0156 0.90153-0.19141 1.2793-0.23043 0.42054-0.66353 0.76432-1.1211 0.89258-0.45645 0.12795-1.0027 0.0568-1.4062-0.18359-0.33728-0.20093-0.63675-0.54275-0.8418-0.95118-0.20766-0.41366-0.33203-0.90705-0.38476-1.4336-0.0829-0.82849 0.0437-1.9008-0.32227-3.084-0.30328-0.9804-0.92817-1.8295-1.7578-2.418-0.82857-0.58774-1.824-0.8904-2.8301-0.88282z" style="color-rendering:auto;color:#000000;dominant-baseline:auto;fill:#f1f2f2;font-feature-settings:normal;font-variant-alternates:normal;font-variant-caps:normal;font-variant-ligatures:normal;font-variant-numeric:normal;font-variant-position:normal;image-rendering:auto;isolation:auto;mix-blend-mode:normal;shape-padding:0;shape-rendering:auto;solid-color:#000000;text-decoration-color:#000000;text-decoration-line:none;text-decoration-style:solid;text-indent:0;text-orientation:mixed;text-transform:none;white-space:normal"/>
</g>
</g>
</g>
</g>
</svg>
