<?xml version="1.0" encoding="UTF-8"?>
<!--Part of Monotone: https://github.com/sixsixfive/Monotone, released under cc-by-sa_v4-->
<svg version="1.1" viewBox="0 0 16 16" xmlns="http://www.w3.org/2000/svg" xmlns:osb="http://www.openswatchbook.org/uri/2009/osb">
<g id="show-path-outline" transform="translate(-799 -558.36)">
<g id="path-clip-edit" transform="translate(-30.024 .05348)">
<path d="m836.66 563.3-0.70703 0.70703c1.5491 1.5491 2.8399 2.6466 4.354 2.9218 1.5141 0.27528 2.5856-0.50852 3.6888-1.6116l-0.70703-0.70703c-0.89688 0.89688-1.5661 1.559-2.802 1.3343-1.236-0.22472-2.3757-1.1936-3.8266-2.6445z" style="color-rendering:auto;color:#000000;dominant-baseline:auto;fill:#f1f2f2;font-feature-settings:normal;font-variant-alternates:normal;font-variant-caps:normal;font-variant-ligatures:normal;font-variant-numeric:normal;font-variant-position:normal;image-rendering:auto;isolation:auto;mix-blend-mode:normal;shape-padding:0;shape-rendering:auto;solid-color:#000000;text-decoration-color:#000000;text-decoration-line:none;text-decoration-style:solid;text-indent:0;text-orientation:mixed;text-transform:none;white-space:normal"/>
<path d="m842.52 560.31a0.50005 0.50005 0 0 0-0.0859 0.01c-5.5784 1.0362-10.571 4.7277-11.404 11.43a0.50005 0.50005 0 1 0 0.99219 0.125c0.77875-6.2666 5.3235-9.591 10.596-10.57a0.50005 0.50005 0 0 0-0.0977-0.99414z" style="color-rendering:auto;color:#000000;dominant-baseline:auto;fill:#f1f2f2;font-feature-settings:normal;font-variant-alternates:normal;font-variant-caps:normal;font-variant-ligatures:normal;font-variant-numeric:normal;font-variant-position:normal;image-rendering:auto;isolation:auto;mix-blend-mode:normal;shape-padding:0;shape-rendering:auto;solid-color:#000000;text-decoration-color:#000000;text-decoration-line:none;text-decoration-style:solid;text-indent:0;text-orientation:mixed;text-transform:none;white-space:normal"/>
<circle transform="matrix(1.5 0 0 1.5 -420.5 487.36)" cx="842" cy="49" r="1" style="fill:#f1f2f2"/>
<circle transform="matrix(1.5 0 0 1.5 -431.5 498.36)" cx="842" cy="49" r="1" style="fill:#f1f2f2"/>
<path d="m834.38 565.64 0.79214-0.63121c1.7988 1.2504 3.0022 2.6348 3.5411 4.0762 0.53893 1.4414 0.36685 2.9468-0.52359 4.2278l-0.82101-0.57072c0.72396-1.0415 0.84751-2.1293 0.40758-3.306-0.43994-1.1767-1.7114-2.6249-3.3962-3.7961z" style="color-rendering:auto;color:#000000;dominant-baseline:auto;fill:#f1f2f2;font-feature-settings:normal;font-variant-alternates:normal;font-variant-caps:normal;font-variant-ligatures:normal;font-variant-numeric:normal;font-variant-position:normal;image-rendering:auto;isolation:auto;mix-blend-mode:normal;shape-padding:0;shape-rendering:auto;solid-color:#000000;text-decoration-color:#000000;text-decoration-line:none;text-decoration-style:solid;text-indent:0;text-orientation:mixed;text-transform:none;white-space:normal"/>
</g>
</g>
</svg>
