<svg version="1.1" viewBox="0 0 16 16" xmlns="http://www.w3.org/2000/svg"><path d="m2 1c-0.554 0-1 0.446-1 1v12c0 0.554 0.446 1 1 1h5.0176c-0.067157-0.24094-0.11523-0.48894-0.11523-0.75-2.3e-6 -0.0013-2.3e-6 -0.0026 0-0.0039 4.993e-4 -0.11726 0.019645-0.22912 0.037109-0.3418-0.76218-2.1119-2.4081-3.8754-4.3926-4.4043 2.7526-0.07996 5.7239-1.4787 8.4258-4.1641-0.37273 0.52615-0.69826 1.0812-0.98633 1.6582 0.2066 0.089958 0.3805 0.24135 0.49805 0.43359l0.87891 1.4336c0.16688-2.3537 1.194-4.3753 2.6367-5.7852v3.9258c0.30717-0.13977 0.66158-0.13041 0.96094 0.025391 0.01396 0.0073 0.02533 0.017775 0.03906 0.025391v-5.0527c2e-6 -0.554-0.446-1-1-1zm1 1h9.7305c-2.676 3.724-7.0155 6.4967-10.73 6.5117v-5.5117c0-0.554 0.446-1 1-1zm10.566 0.19727c0.07725 0.052786 0.14635 0.11662 0.20508 0.18945-0.30662 0.24856-0.60496 0.50717-0.89453 0.77539 0.235-0.305 0.46245-0.63784 0.68945-0.96484zm-11.566 8.0039c2.077 0.384 3.6956 1.9108 4.3496 3.7988h-3.3496c-0.554 0-1-0.446-1-1z" style="fill:#f1f2f2"/><path d="m9.5488 8c-0.53 0.277-0.70444 0.87988-0.39844 1.3594l2.2109 3.6406-0.18359 0.24805c-0.31796-0.45039-0.83963-0.74805-1.4277-0.74805a1.7575 1.7575 0 0 0-1.75 1.75c0 0.9605 0.7895 1.75 1.75 1.75 0.61512 0 1.1563-0.3254 1.4688-0.81055l0.78125-1.2051 0.78906 1.2422 0.00586-0.009765c0.31489 0.47103 0.85075 0.7832 1.4551 0.7832 0.9605 0 1.75-0.7895 1.75-1.75s-0.79-1.75-1.75-1.75a1.7575 1.7575 0 0 0-1.4336 0.75586l-0.17773-0.25586 2.2109-3.6406c0.306-0.48 0.13352-1.0824-0.39648-1.3594l-2.4531 4-2.4512-4zm0.20117 5.5c0.42 0 0.75 0.33 0.75 0.75s-0.33 0.75-0.75 0.75-0.75-0.33-0.75-0.75 0.33-0.75 0.75-0.75zm4.5 0c0.42 0 0.75 0.33 0.75 0.75s-0.33 0.75-0.75 0.75-0.75-0.33-0.75-0.75 0.33-0.75 0.75-0.75z" style="color:#000000;fill:#f1f2f2;isolation:auto;mix-blend-mode:normal;stroke-width:.5;text-decoration-color:#000000;text-decoration-line:none;text-decoration-style:solid;text-indent:0;text-transform:none;white-space:normal"/></svg>
