<!--Part of Monotone: https://github.com/sixsixfive/Monotone, released under cc-by-sa_v4-->
<svg viewBox="0 0 16 16" xmlns="http://www.w3.org/2000/svg">
    <path d="M8 0c-.011.001-.025.023-.031.031L4.844 3.906c-.007.008-.023.007-.031.063.04.032.05.029.062.031l.938.125c.087.015.162.07.187.156a.255.255 0 0 1-.062.25L2.75 7.75c-.007.007-.003.05 0 .063.003.011.02.027.031.03L4.844 8c.078.023.134.107.156.188.022.08-.007.157-.062.218L1 12.781c-.008.011-.008.056 0 .063l.031.031 5.813.156a.224.224 0 0 1 .187.219L7 15h2l-.031-1.75c0-.112.08-.197.187-.219l5.813-.156.031-.031c.008-.007.008-.052 0-.063l-3.937-4.375A.23.23 0 0 1 11 8.187c.022-.08.078-.164.156-.187l2.063-.156a.057.057 0 0 0 .031-.032c.003-.011.007-.055 0-.062l-3.188-3.219a.254.254 0 0 1-.062-.25.227.227 0 0 1 .187-.156L11.125 4c.013-.002.022.001.063-.031-.01-.056-.025-.055-.032-.063L8.031.031C8.024.023 8.011.001 8 0z" fill="#f1f2f2"/>
</svg>
