<?xml version="1.0" encoding="UTF-8"?>
<svg version="1.1" viewBox="0 0 16 16" xmlns="http://www.w3.org/2000/svg" xmlns:osb="http://www.openswatchbook.org/uri/2009/osb">
<g id="path-difference" transform="translate(-165 -607.36)">
<g id="path-combine" transform="translate(-36.068 -116.07)">
<g transform="translate(201.07 723.43)" style="fill:#f1f2f2">
<path d="m1 1v1h1v1h1v-2h-1zm2 2v1h1v-1zm1 0h1v-1h-1zm1-1h5v-1h-5zm5 0v1h3v-1h1v-1h-3v1zm-7 2h-1v2h1v-1zm-1 2h-1v2h1v-1zm0 2v1h1v-1zm0 1h-1v2h1v-1zm0 2v1h1v-1zm1 1v1h1v-1zm1 1v1h1v-1zm1 1v1h1v1h1v-2h-1zm7-10v1h1v-1zm1 1v4h1v-4zm1 4v2h1v-2zm0 2h-1v1h1zm-1 1h-1v1h1zm-1 1h-1v1h1zm-1 1h-2v2h1v-1h1zm-6-9v1h1v-1zm0 1h-1v1h1zm0 1v1h1v-1zm4-2v1h2v-1h-1zm2 1v1h1v-1zm0 1h-2v1h2zm-2 0v-1h-1v1z" style="fill:#f1f2f2"/>
<path d="m6 9v1h1v-1zm1 1v1h1v-1zm1 1v1h1v-1zm1 0h1v-1h-1zm-3-1h-1v1h1zm-1 1h-1v1h1z" style="fill:#f1f2f2;opacity:.5"/>
</g>
</g>
</g>
</svg>
