<?xml version="1.0" encoding="UTF-8"?>
<svg version="1.1" viewBox="0 0 16 16" xmlns="http://www.w3.org/2000/svg">
<path d="m12 0c-0.13973-1.7e-4 -0.17938 0.0041675-0.25195 0.023438-0.3674 0.09753-0.65796 0.38078-0.73438 0.71875-0.02393 0.10587-0.014202 0.4391 0.017578 0.62891 0.077942 0.46556 0.22176 0.87202 0.52734 1.4766 0.058332 0.11539 0.11976 0.23708 0.13672 0.27148l0.03125 0.0625 0.091797-0.023438c0.15252-0.0407 0.35234-0.077584 0.4668-0.083984 0.072337-0.0040701 0.10742-0.0094782 0.10742-0.017578 0-0.006646-0.021338-0.09516-0.048828-0.19727-0.12693-0.47141-0.16461-0.71437-0.14453-0.93555l0.007812-0.087891 0.0625-0.017578c0.15216-0.043847 0.35446-0.16481 0.46094-0.27344 0.19257-0.19647 0.28098-0.42079 0.26758-0.67969-0.016905-0.32637-0.24094-0.62824-0.57812-0.7793-0.16398-0.07345-0.22341-0.085718-0.41992-0.085938zm3.291 0.0097656c-0.10978-0.01946-0.28596-0.0079494-0.38867 0.025391-0.19604 0.06364-0.3579 0.20106-0.4707 0.40039-0.18234 0.32222-0.29311 0.82477-0.36328 1.6406-0.03098 0.36009-0.075759 1.0454-0.068359 1.0527 0.00389 0.0038001 0.042817 0.017127 0.085938 0.029297 0.15387 0.043457 0.31936 0.10675 0.41016 0.1582 0.05073 0.02873 0.094656 0.054021 0.097656 0.054688 0.00294 7.36e-4 0.011578-0.10032 0.017578-0.22461 0.024793-0.51375 0.10259-0.87685 0.26758-1.2402l0.050782-0.11328 0.20898-0.0058594c0.15881-0.00427 0.21976-0.0095075 0.26562-0.023438 0.23637-0.071817 0.42891-0.2512 0.52734-0.49023 0.09273-0.22513 0.09001-0.49224-0.00586-0.7207-0.11817-0.28163-0.36799-0.49565-0.63476-0.54297zm-10.291 3.9902a5 5 0 0 0-5 5 5 5 0 0 0 1.9492 3.9531c-0.3218 0.02406-0.64323 0.046875-0.94922 0.046875-1 0-1 9.55e-4 -0.99609 0.83984 0.097707 0.34476 1.143 0.6791 2.7969 0.89844 1.0087 0.13377 2.2514 0.22328 3.5254 0.25195 0.85974 0.01934 1.5475 0.01025 2.0059-0.02539 1.6374-0.12731 2.9225-0.5908 3.8809-1.4004 0.13438-0.11352 0.41512-0.39495 0.52734-0.52734 0.60285-0.71125 1.0013-1.5831 1.2168-2.6582 0.11485-0.57303 0.17441-1.169 0.19141-1.957l0.005859-0.32617 0.083984-0.042969c0.3916-0.1983 0.74835-0.56612 0.93555-0.96289 0.39002-0.82666 0.22174-1.7837-0.42578-2.4199-0.33496-0.32911-0.74113-0.52973-1.2109-0.60156-0.15415-0.023552-0.45694-0.023466-0.61328 0-0.47155 0.070805-0.8828 0.27329-1.2148 0.60156-0.3037 0.30024-0.50117 0.65808-0.58789 1.0664-0.03285 0.15466-0.044081 0.30162-0.050782 0.62305-0.043889 0.96934-0.40164 2.2004-1.0898 3.1465-0.0025552 0.0032189-0.0052478 0.0065507-0.0078126 0.0097656a5 5 0 0 0 0.027344-0.51562 5 5 0 0 0-5-5zm-2 3h0.45312 0.046875a0.49799 0.49799 0 0 1 0.25 0.0625l3.5 2c0.1555 0.085998 0.23438 0.2615 0.23438 0.4375 0 0.176-0.079379 0.3515-0.23438 0.4375l-3.5 2a0.49999 0.49999 0 0 1-0.25 0.0625h-0.5v-5z" style="fill:#f1f2f2;stroke-width:.0101"/>
</svg>
