<?xml version="1.0" encoding="UTF-8"?>
<!--Part of Monotone: https://github.com/sixsixfive/Monotone, released under cc-by-sa_v4-->
<svg version="1.1" viewBox="0 0 16 16" xmlns="http://www.w3.org/2000/svg">
<g fill="#f1f2f2">
<path d="m8.5 4c-0.277 0-0.5 0.223-0.5 0.5v7c0 0.277 0.223 0.5 0.5 0.5h4c0.277 0 0.5-0.223 0.5-0.5v-7c0-0.277-0.223-0.5-0.5-0.5h-4zm0.5 1h3v6h-3v-6z" style="fill:#f1f2f2;opacity:.8;paint-order:fill markers stroke"/>
<rect x="9" y="5" width="3" height="6" style="fill:#f1f2f2;opacity:.3;paint-order:fill markers stroke"/>
<rect x="4" y="9" width="2" height="2" style="fill:#f1f2f2;opacity:.3;paint-order:fill markers stroke"/>
<path d="m3.5 8c-0.277 0-0.5 0.223-0.5 0.5v3c0 0.277 0.223 0.5 0.5 0.5h3c0.277 0 0.5-0.223 0.5-0.5v-3c0-0.277-0.223-0.5-0.5-0.5h-3zm0.5 1h2v2h-2v-2z" style="fill:#f1f2f2;opacity:.8;paint-order:fill markers stroke"/>
<path d="m2 2c-0.554 0-1 0.446-1 1v10c0 0.554 0.446 1 1 1h12c0.554 0 1-0.446 1-1v-10c0-0.554-0.446-1-1-1zm0 1h12v10h-12z" style="fill:#f1f2f2"/>
</g>
</svg>
