<?xml version="1.0" encoding="UTF-8" standalone="no"?>
<!--Part of Monotone: https://github.com/sixsixfive/Monotone, released under cc-by-sa_v4-->
<svg xmlns="http://www.w3.org/2000/svg" version="1.1" viewBox="0 0 16 16">
 <path stroke-width=".031291" fill="#f1f2f2" d="m7.375 1.0373c-1.0192 0.1233-2.2193 0.9999-2.5801 1.747-0.0729 0.151-0.1148 0.2055-0.1484 0.1933-0.0258-0.0094-0.1871-0.0388-0.3594-0.0651-0.9698-0.1483-1.6082 0.1853-2.2031 0.8459-0.619 0.6873-0.4238 1.9002-0.2695 2.6402 0.078113 0.11862 0.14062 0.22256 0.14062 0.2307 0 0.00787-0.038566 0.044221-0.085937 0.080843-0.36708 0.28361-0.65037 0.67165-0.78125 1.0687-0.11769 0.35701-0.11812 0.80064 0 1.1594 0.23938 0.7271 0.92241 1.3178 1.7871 1.5459 0.21471 0.05665 0.26944 0.08126 0.2832 0.13605 0.026548 0.10563 0.25456 0.44459 0.41797 0.61914 0.32877 0.35118 0.85755 0.62628 1.4082 0.76111 0.00197-0.13126 0.00568-0.24256 0.00586-0.38253 0.0008-0.6075-0.030754-1.3206-0.042969-1.4138-0.0456-0.3457-0.3404-0.8301-0.6914-1.6049-0.0735-0.1621-0.1332-0.2869-0.1856-0.485-0.0524-0.1982-0.0554-0.4438-0.0449-0.5718 0.0675-0.822 0.7826-1.3567 1.3574-1.4769 0.2865-0.06 0.5953-0.0814 0.8965-0.004 0.3012 0.0775 0.5939 0.255 0.8457 0.5896a1.0408 1.0507 0 0 1 0.03125 0.041408c0.1504 0.2216 0.1432 0.2522 0.209 0.3904 0.0659 0.1383 0.1405 0.3011 0.2129 0.4673 0.1327 0.3043 0.1744 0.3355 0.2559 0.4634 0.1338-0.2271 0.2619-0.4455 0.5215-0.6527 0.282-0.2251 0.7097-0.3362 0.9902-0.3352h0.00195c0.46838 0.00283 1.0934 0.33266 1.3574 0.73548 0.16927 0.25824 0.2921 0.67737 0.26562 1.0234-0.02647 0.34599-0.1286 0.60465-0.24805 0.87942-0.44357 1.0203-0.59157 0.88716-0.61719 2.0842 0.34545-0.07275 0.6883-0.15746 1.0254-0.26816 0.48377-0.13069 0.99359-0.42369 1.291-0.74139 0.16341-0.17454 0.39339-0.51155 0.41992-0.61717 0.01379-0.05485 0.06655-0.08142 0.28125-0.13803 0.50442-0.13304 1.0313-0.44177 1.3438-0.78872 0.628-0.6973 0.707-1.6417 0.203-2.4075-0.182-0.2759-0.484-0.5615-0.772-0.7296-0.109-0.064-0.199-0.1273-0.199-0.14 0-0.012759 0.03451-0.08448 0.07617-0.15972 0.38706-0.69926 0.26138-1.6049-0.31055-2.24-0.6904-0.76658-1.9286-1.7168-3.0312-1.4079l-0.206 0.0573-0.061-0.0829c-0.555-0.7536-1.756-1.1722-2.791-1.047z"/>
 <path opacity=".6" d="m6.4474 14.898c-0.0952-0.0952-0.1002-0.11364-0.0793-0.29114 0.0255-0.21732 0.00092-0.35202-0.0693-0.37896-0.0268-0.0103-0.24863 0.0605-0.493 0.15718-0.51554 0.20406-0.61232 0.21505-0.72638 0.0825-0.1315-0.153-0.1067-0.256 0.127-0.525 0.2459-0.283 0.6965-0.748 0.7691-1.056 0.0719-0.305 0.0737-2.372 0.003-2.9058-0.0876-0.658-0.4701-1.2181-0.7763-1.8876-0.13805-0.30185-0.15409-0.36214-0.14037-0.52761 0.0494-0.59618 0.95897-0.70133 1.2342-0.33907 0.0452 0.066 0.19332 0.37246 0.32911 0.68102 0.5018 1.1403 0.87298 1.4292 1.2979 1.267 0.19395-0.0741 0.51719-0.23045 0.76003-0.64306 0.24146-0.41027 0.38505-0.52441 0.658-0.52302 0.22533 0.001 0.37687 0.0811 0.49666 0.26215 0.14788 0.22347 0.13158 0.43937-0.0674 0.89275-0.4065 0.9263-0.6923 1.1113-0.7125 2.5603-0.0155 1.1127-0.0129 1.1778 0.0565 1.4064 0.11923 0.39255 0.60642 0.89952 1.0443 1.2357 0.12036 0.0924 0.17325 0.22761 0.13175 0.33678-0.0399 0.10491-0.16491 0.19365-0.27282 0.19365-0.18838 0-0.91297-0.18926-1.2844-0.33549-0.5483-0.21586-0.60534-0.22711-0.81055-0.15994-0.094 0.0308-0.4066 0.17817-0.69468 0.32755-0.2882 0.149-0.5586 0.271-0.6011 0.271s-0.12302-0.0457-0.17891-0.10162z" stroke-width=".034575" fill="#f1f2f2"/>
</svg>
