<?xml version="1.0" encoding="UTF-8" standalone="no"?>
<!--Part of Monotone: https://github.com/sixsixfive/Monotone, released under cc-by-sa_v4-->
<svg xmlns="http://www.w3.org/2000/svg" version="1.1" viewBox="0 0 16 16">
 <g fill-opacity=".99827" stroke-width="2" fill="#f1f2f2">
  <path opacity=".7" d="m5.3984 2c-0.7756 0-1.3984 0.6228-1.3984 1.3984v0.5118 0.0898 0.1562 0.3438 0.5h0.5 3c0.277 0 0.5 0.223 0.5 0.5s-0.223 0.5-0.5 0.5h-3.5-0.5-0.5c-1 0-1 0-1 1v2.6016c0 0.7764 0.6228 1.3984 1.3984 1.3984h1.6016v-2c0-0.554 0.446-1 1-1h4.062c0.937 0 0.938 0 0.938-1v-3.9707c0-1.0297 0-1.0293-1-1.0293h-4.6016zm1.1016 1a0.5 0.5 0 0 1 0.5 0.5 0.5 0.5 0 0 1 -0.5 0.5 0.5 0.5 0 0 1 -0.5 -0.5 0.5 0.5 0 0 1 0.5 -0.5z"/>
  <path d="m12 6v2c0 0.416-0.25 0.7699-0.609 0.9219-0.12 0.05-0.253 0.0781-0.391 0.0781h-3.9785c-1.0219 0-1.0215 0-1.0215 1v4c0 1-0.0006 1 0.9766 1h4.6254c0.775 0 1.398-0.623 1.398-1.398v-0.338-0.264-0.117-0.096-0.787h-3.5c-0.277 0-0.5-0.223-0.5-0.5s0.223-0.5 0.5-0.5h3.486 0.514 0.5c1 0 1 0 1-1v-2.6016c0-0.7756-0.63-1.2778-1.396-1.3984h-1.604zm-1.5 7a0.5 0.5 0 0 1 0.5 0.5 0.5 0.5 0 0 1 -0.5 0.5 0.5 0.5 0 0 1 -0.5 -0.5 0.5 0.5 0 0 1 0.5 -0.5z"/>
 </g>
</svg>
