<?xml version="1.0" encoding="UTF-8" standalone="no"?>
<!--Part of Monotone: https://github.com/sixsixfive/Monotone, released under cc-by-sa_v4-->
<svg id="svg6" xmlns="http://www.w3.org/2000/svg" version="1" viewBox="0 0 16 16"><rect id="rect4491" style="fill:#f1f2f2" transform="scale(1,-1)" height="9" width="2" y="-12" x="9"/><path id="path4493" style="fill:#f1f2f2" d="m12.004 5.9727a3 3.0135 0 0 0 -3.004 3.0078 3 3.0135 0 0 0 2.99 3.0195 3 3.0135 0 0 0 3.01 -3v-0.0137a3 3.0135 0 0 0 -2.996 -3.0136zm-0.002 2.0273a1 1 0 0 1 0.99805 1v0.00391a1 1 0 0 1 -1.004 0.9961 1 1 0 0 1 -0.996 -1.002 1 1 0 0 1 1.002 -0.998z"/><rect id="rect4497" style="fill:#f1f2f2" transform="scale(-1,1)" height="9" width="2" y="6" x="-7"/><path id="path4499" style="fill:#f1f2f2" d="m4.0098 6a3 3.0135 0 0 0 -3.0098 3v0.013672a3 3.0135 0 0 0 2.9961 3.0133 3 3.0135 0 0 0 3.0039 -3.0075 3 3.0135 0 0 0 -2.9902 -3.0195zm-0.00586 2a1 1 0 0 1 0.9961 1.002 1 1 0 0 1 -1.0019 0.998 1 1 0 0 1 -0.9981 -1v-0.00391a1 1 0 0 1 1.0039 -0.9961z"/></svg>
