<?xml version="1.0" encoding="UTF-8"?>
<svg version="1.1" viewBox="0 0 16 16" xmlns="http://www.w3.org/2000/svg">
<path d="m3 1c-1.108 0-2 0.892-2 2v10c0 1.108 0.892 2 2 2h10c1.108 0 2-0.892 2-2v-10c0-1.108-0.892-2-2-2h-10zm4.5 1a5.5 5.5 0 0 1 5.5 5.5 5.5 5.5 0 0 1-0.98633 3.1387c0.030581 1.5084 0.19546 2.2749 0.98633 3.3613-1.8433-0.58538-3.1458-0.7515-4.1035-1.1855a5.5 5.5 0 0 1-1.3965 0.18555 5.5 5.5 0 0 1-5.5-5.5 5.5 5.5 0 0 1 5.5-5.5z" style="fill:#f1f2f2;paint-order:markers fill stroke"/>
<path d="m7.5 4a3.5 3.5 0 0 0-3.5 3.5 3.5 3.5 0 0 0 3.5 3.5 3.5 3.5 0 0 0 3.5-3.5 3.5 3.5 0 0 0-3.5-3.5zm0 1c1.3096 0 2.5 1.1904 2.5 2.5s-1.1904 2.5-2.5 2.5-2.5-1.1904-2.5-2.5 1.1904-2.5 2.5-2.5z" style="fill:#f1f2f2;paint-order:markers fill stroke"/>
<path d="m7.5156 6.9941a0.50005 0.50005 0 0 0-0.41602 0.80664l3 4a0.50078 0.50078 0 1 0 0.80078-0.60156l-3-4a0.50005 0.50005 0 0 0-0.38477-0.20508z" style="color-rendering:auto;color:#000000;dominant-baseline:auto;fill:#f1f2f2;font-feature-settings:normal;font-variant-alternates:normal;font-variant-caps:normal;font-variant-ligatures:normal;font-variant-numeric:normal;font-variant-position:normal;image-rendering:auto;isolation:auto;mix-blend-mode:normal;shape-padding:0;shape-rendering:auto;solid-color:#000000;text-decoration-color:#000000;text-decoration-line:none;text-decoration-style:solid;text-indent:0;text-orientation:mixed;text-transform:none;white-space:normal"/>
</svg>
