<?xml version="1.0" encoding="UTF-8" standalone="no"?>
<!--Part of Monotone: https://github.com/sixsixfive/Monotone, released under cc-by-sa_v4-->
<svg id="svg41" xmlns="http://www.w3.org/2000/svg" version="1.1" viewBox="0 0 16 16"><path id="path23" style="stroke-width:.375;fill:#f1f2f2" d="m7.7188 0.0039062a7.5 7.5 0 0 0 -7.7188 7.4961 7.5 7.5 0 0 0 12.26 5.785c1.088 0.066 2.312 0.004 3.74-0.285-0.865-0.133-1.768-0.427-2.67-0.795a7.5 7.5 0 0 0 1.67 -4.705 7.5 7.5 0 0 0 -7.2812 -7.4961zm-0.0293 0.99809a6.5 6.5 0 0 1 6.3105 6.498 6.5 6.5 0 0 1 -1.619 4.285c-1.841-0.844-3.6161-1.8593-5.0431-2.4061-0.0968-0.0371-0.2016-0.0849-0.2949-0.1172-0.3296-0.1139-0.6387-0.1986-0.92-0.2402 2.1145-1.0869 3.4309-1.7886 5.877-2.0215-2.1727-1.4742-3.5481-1.9226-5.8887-1.9707-1.3464-0.0277-3.5667 0.7599-4.9199 0.9355a6.5 6.5 0 0 1 6.4981 -4.9628zm-3.7227 9.539c1.8688 0.177 3.6198 1.952 6.7992 2.568a6.5 6.5 0 0 1 -8.7426 -2.119c0.6974-0.388 1.3271-0.508 1.9434-0.449z"/></svg>
