<?xml version="1.0" encoding="UTF-8" standalone="no"?>
<svg
   xmlns:dc="http://purl.org/dc/elements/1.1/"
   xmlns:cc="http://creativecommons.org/ns#"
   xmlns:rdf="http://www.w3.org/1999/02/22-rdf-syntax-ns#"
   xmlns:svg="http://www.w3.org/2000/svg"
   xmlns="http://www.w3.org/2000/svg"
   viewBox="0 0 16 16"
   version="1.1"
   id="svg8">
  <defs
     id="defs12" />
  <path
     id="path859"
     d="M 8,1 C 6.1225696,0.99997334 4.4396994,1.7950061 3,3 L 5,5 C 5.863923,4.3502962 6.9190402,4.0019713 8,4 9.0809599,4.00197 10.136077,4.3502961 11,5 L 13.128906,2.8710938 C 11.691565,1.6652788 9.8761477,1.0029903 8,1 Z m 6.134766,2.8652344 -2.138672,2.1386718 C 12.645798,6.8678292 12.998029,7.9190402 13,9 c -0.002,1.08096 -0.350296,2.136077 -1,3 l 2,2 c 1.205815,-1.437341 1.99701,-3.123852 2,-5 2.7e-5,-1.8774303 -0.66024,-3.6950661 -1.865234,-5.1347656 z M 2,4 C 0.794185,5.4373412 0.00299023,7.1238522 0,9 c -2.6756083e-5,1.877431 0.79500597,3.5603 2,5 L 4,12 C 3.3502961,11.136077 3.0019713,10.08096 3,9 3.0019713,7.9190402 3.3502962,6.863923 4,6 Z"
     style="fill:#f1f2f2;fill-opacity:1;stroke:none" />
  <path
     id="path861"
     d="M 9.9999999,10.496594 C 9.9999997,11.325022 9.1045693,12 8,12 6.8954307,12 6.0000003,11.328427 6.0000001,10.5 6,10 7,6 8,6 c 1,0 2,4 1.9999999,4.496594 z"
     style="fill:#f1f2f2;fill-opacity:1;stroke:none;stroke-width:1.7320509" />
</svg>
