<?xml version="1.0" encoding="UTF-8" standalone="no"?>
<svg
   xmlns:dc="http://purl.org/dc/elements/1.1/"
   xmlns:cc="http://creativecommons.org/ns#"
   xmlns:rdf="http://www.w3.org/1999/02/22-rdf-syntax-ns#"
   xmlns:svg="http://www.w3.org/2000/svg"
   xmlns="http://www.w3.org/2000/svg"
   viewBox="0 0 16 16"
   version="1.1"
   id="svg8">
  <defs
     id="defs12" />
  <path
     id="path859"
     d="m 8,1 c 1.8774304,-2.666e-5 3.560301,0.7950061 5,2 L 11,5 C 10.136077,4.3502962 9.0809598,4.0019713 8,4 6.9190401,4.00197 5.863923,4.3502961 5,5 L 2.871094,2.8710938 C 4.308435,1.6652788 6.1238523,1.0029903 8,1 Z M 1.865234,3.8652344 4.003906,6.0039062 C 3.354202,6.8678292 3.001971,7.9190402 3,9 c 0.002,1.08096 0.350296,2.136077 1,3 L 2,14 C 0.794185,12.562659 0.00299,10.876148 0,9 -2.6999847e-5,7.1225697 0.66024,5.3049339 1.865234,3.8652344 Z M 14,4 c 1.205815,1.4373412 1.99701,3.1238522 2,5 2.7e-5,1.877431 -0.795006,3.5603 -2,5 l -2,-2 c 0.649704,-0.863923 0.998029,-1.91904 1,-3 -0.002,-1.0809598 -0.350296,-2.136077 -1,-3 z"
     style="fill:#f1f2f2;fill-opacity:1;stroke:none" />
  <path
     id="path861"
     d="M 7.9355738,11.950056 C 8.7508079,12.15466 9.6396244,11.453676 9.9166684,10.383325 10.193712,9.3129745 9.7574237,8.279419 8.9421908,8.0748142 8.4501541,7.9513243 4.263045,7.9324261 4.012228,8.9014468 3.761411,9.8704675 7.4468889,11.827407 7.9355738,11.950056 Z"
     style="fill:#f1f2f2;fill-opacity:1;stroke:none;stroke-width:1.74545193" />
</svg>
