<?xml version="1.0" encoding="UTF-8" standalone="no"?>
<!--Part of Monotone: https://github.com/sixsixfive/Monotone, released under cc-by-sa_v4-->
<svg id="svg12" xmlns="http://www.w3.org/2000/svg" viewBox="0 0 16 16" version="1.1"><path id="path4530" style="opacity:.5;fill:#f1f2f2" d="m3 2c-1.662 0-3 1.338-3 3v8c0 0.554 0.446 1 1 1h2c0 0.554 0.446 1 1 1h1c0.554 0 1-0.446 1-1h4c0 0.554 0.446 1 1 1h1c0.554 0 1-0.446 1-1h2c0.554 0 1-0.446 1-1v-8c0-1.662-1.338-3-3-3zm-0.5 3c0.277 0 0.5 0.223 0.5 0.5v6c0 0.277-0.223 0.5-0.5 0.5s-0.5-0.223-0.5-0.5v-6c0-0.277 0.223-0.5 0.5-0.5zm2 0c0.277 0 0.5 0.223 0.5 0.5v6c0 0.277-0.223 0.5-0.5 0.5s-0.5-0.223-0.5-0.5v-6c0-0.277 0.223-0.5 0.5-0.5zm2 0c0.277 0 0.5 0.223 0.5 0.5v6c0 0.277-0.223 0.5-0.5 0.5s-0.5-0.223-0.5-0.5v-6c0-0.277 0.223-0.5 0.5-0.5zm2 0h5c0.277 0 0.5 0.223 0.5 0.5v1c0 0.277-0.223 0.5-0.5 0.5h-5c-0.277 0-0.5-0.223-0.5-0.5v-1c0-0.277 0.223-0.5 0.5-0.5zm2.5 3c1.1046 0 2 0.89543 2 2s-0.89543 2-2 2-2-0.895-2-2c0-1.1046 0.8954-2 2-2zm0 1c-0.55228 0-1 0.44772-1 1s0.5286 1 1 1 1-0.44772 1-1-0.44772-1-1-1z"/></svg>
