<!--Part of Monotone: https://github.com/sixsixfive/Monotone, released under cc-by-sa_v4-->
<svg viewBox="0 0 16 16" xmlns="http://www.w3.org/2000/svg">
    <path d="M5.526 1.08c-.461 0-.877.404-.877 1 0 .587.415 1 .82 1L4.065 7v3h.012c-.002.037-.012.073-.012.111v3.106c0 .97.782 1.752 1.752 1.752h4.448c.97 0 1.752-.782 1.752-1.752V10.11c0-.038-.009-.074-.012-.111h.012V7l-1.51-3.92c.51 0 .936-.392.936-1 0-.568-.427-1-.922-1zm.91 2c1.045-.39 2.13-.309 3.185 0L11.017 7s.17 1.166-.274 1.566c-.443.4-2.129-.052-2.738.3-.626.36-2.005.707-2.521.308C4.968 8.774 5.065 7 5.065 7z" color="#000" overflow="visible" fill="#f1f2f2"/>
</svg>
