<?xml version="1.0" encoding="UTF-8" standalone="no"?>
<!--Part of Monotone: https://github.com/sixsixfive/Monotone, released under cc-by-sa_v4-->
<svg id="svg8" xmlns="http://www.w3.org/2000/svg" version="1.1" viewBox="0 0 16 16"><path id="path4493" style="opacity:.5;fill:#f1f2f2" d="m5.9805 2a6 6 0 0 0 -5.9805 6.0137 6 6 0 0 0 6.0059 5.9863 6 6 0 0 0 1.9941 -0.35 6 6 0 0 0 2.006 0.35 6 6 0 0 0 5.994 -6v-0.0273a6 6 0 0 0 -6.0195 -5.9727 6 6 0 0 0 -1.9805 0.3496 6 6 0 0 0 -2.0195 -0.3496zm-0.4766 2.0352a6 6 0 0 0 -1.5039 3.9785 6 6 0 0 0 1.5078 3.9533 4 4 0 0 1 -3.5078 -3.9572 4 4 0 0 1 3.5039 -3.9746z"/></svg>
