<?xml version="1.0" encoding="UTF-8" standalone="no"?>
<!--Part of Monotone: https://github.com/sixsixfive/Monotone, released under cc-by-sa_v4-->
<svg id="svg2" xmlns="http://www.w3.org/2000/svg" viewBox="0 0 16 16" version="1.1"><path id="path4499" style="color-rendering:auto;text-decoration-color:#000000;color:#000000;font-variant-numeric:normal;text-orientation:mixed;shape-padding:0;shape-rendering:auto;solid-color:#000000;text-decoration-line:none;fill:#f1f2f2;font-variant-position:normal;mix-blend-mode:normal;font-feature-settings:normal;font-variant-alternates:normal;text-indent:0;dominant-baseline:auto;font-variant-caps:normal;image-rendering:auto;white-space:normal;text-decoration-style:solid;font-variant-ligatures:normal;isolation:auto;text-transform:none" d="m1.8131 1.0283a0.79881 0.778 0 0 0 -0.7821 0.9926l3.1949 11.409a0.79881 0.778 0 0 0 1.5392 0l3.195-11.409a0.79881 0.778 0 1 0 -1.5393 -0.4093l-2.4252 8.6603-2.4253-8.6603a0.79881 0.778 0 0 0 -0.7572 -0.5834z"/><path id="path4501" style="color-rendering:auto;text-decoration-color:#000000;color:#000000;font-variant-numeric:normal;text-orientation:mixed;shape-padding:0;shape-rendering:auto;solid-color:#000000;text-decoration-line:none;fill:#f1f2f2;font-variant-position:normal;mix-blend-mode:normal;font-feature-settings:normal;font-variant-alternates:normal;text-indent:0;dominant-baseline:auto;font-variant-caps:normal;image-rendering:auto;white-space:normal;text-decoration-style:solid;font-variant-ligatures:normal;isolation:auto;text-transform:none" d="m12.5 1c-0.583 0-1.171 0.1379-1.652 0.459-0.482 0.3211-0.848 0.8743-0.848 1.541v2h1v-2c0-0.3333 0.134-0.5301 0.402-0.709 0.269-0.1789 0.681-0.291 1.098-0.291s0.829 0.1121 1.098 0.291c0.268 0.1789 0.402 0.3757 0.402 0.709v2h1v-2c0-0.6667-0.366-1.2199-0.848-1.541-0.481-0.3211-1.069-0.459-1.652-0.459z"/><path id="path4503" style="color-rendering:auto;text-decoration-color:#000000;color:#000000;font-variant-numeric:normal;text-orientation:mixed;shape-padding:0;shape-rendering:auto;solid-color:#000000;text-decoration-line:none;fill:#f1f2f2;font-variant-position:normal;mix-blend-mode:normal;font-feature-settings:normal;font-variant-alternates:normal;text-indent:0;dominant-baseline:auto;font-variant-caps:normal;image-rendering:auto;white-space:normal;text-decoration-style:solid;font-variant-ligatures:normal;isolation:auto;text-transform:none" d="m12 6c-0.667 0-1.22 0.366-1.541 0.8477-0.321 0.4816-0.459 1.069-0.459 1.6523 0 0.1825 0.02 0.365 0.049 0.5449h1.021c-0.041-0.1735-0.07-0.3568-0.07-0.5449 0-0.4167 0.112-0.8293 0.291-1.0977 0.179-0.2683 0.376-0.4023 0.709-0.4023h3v-1h-3z"/><path id="path4553" d="m12.5 10c-0.822 0-1.5 0.626-1.5 1.385v1.685h-0.5c-0.277 0-0.5 0.205-0.5 0.461v2.469h6v-2.469c0-0.256-0.223-0.461-0.5-0.461h-0.5v-1.685c0-0.76-0.678-1.385-1.5-1.385zm0 0.923h1c0.286 0 0.5 0.198 0.5 0.462v1.685h-2v-1.685c0-0.264 0.214-0.462 0.5-0.462z" style="color:#f1f2f2;fill:#f1f2f2" overflow="visible"/></svg>
