<?xml version="1.0" encoding="UTF-8" standalone="no"?>
<!--Part of Monotone: https://github.com/sixsixfive/Monotone, released under cc-by-sa_v4-->
<svg id="svg4" xmlns="http://www.w3.org/2000/svg" viewBox="0 0 16 16" version="1.1"><path id="path2" style="stroke-width:1.1667;fill:#f1f2f2" d="m8.2051 1.0039a7 7 0 0 0 -7.2051 6.9961 7 7 0 0 0 8 6.924v-2.029a5 5 0 0 1 -6 -4.895 5 5 0 0 1 5.1465 -4.998 5 5 0 0 1 4.8535 4.998 5 5 0 0 1 -0.102 1h2.03a7 7 0 0 0 0.072 -1 7 7 0 0 0 -6.7949 -6.9961z"/><path id="path4491" style="color-rendering:auto;text-decoration-color:#000000;color:#000000;font-variant-numeric:normal;text-orientation:mixed;shape-rendering:auto;font-variant-ligatures:normal;text-decoration-line:none;fill:#f1f2f2;font-variant-position:normal;mix-blend-mode:normal;font-feature-settings:normal;shape-padding:0;font-variant-alternates:normal;text-indent:0;dominant-baseline:auto;font-variant-caps:normal;image-rendering:auto;white-space:normal;text-decoration-style:solid;solid-color:#000000;isolation:auto;text-transform:none" d="m5.6387 6.9961a0.6478 0.6478 0 0 0 -0.4317 1.1211l0.9219 0.8867-0.916 0.8828a0.6478 0.6478 0 1 0 0.8984 0.9313l1.8848-1.8141-1.8887-1.8203a0.6478 0.6478 0 0 0 -0.46875 -0.1875z"/><path id="path4498" style="color-rendering:auto;text-decoration-color:#000000;color:#000000;font-variant-numeric:normal;text-orientation:mixed;shape-rendering:auto;font-variant-ligatures:normal;text-decoration-line:none;fill:#f1f2f2;font-variant-position:normal;mix-blend-mode:normal;font-feature-settings:normal;shape-padding:0;font-variant-alternates:normal;text-indent:0;dominant-baseline:auto;font-variant-caps:normal;image-rendering:auto;white-space:normal;text-decoration-style:solid;solid-color:#000000;isolation:auto;text-transform:none" d="m10.342 4.9902a0.6481 0.6481 0 0 0 -0.4494 0.1856l-1.8887 1.8164 1.8926 1.8203a0.6481 0.6481 0 1 0 0.8985 -0.9336l-0.922-0.8867 0.916-0.8809a0.6481 0.6481 0 0 0 -0.447 -1.1211z"/><path id="path4553" style="color:#f1f2f2;fill:#f1f2f2" overflow="visible" d="m12.5 10c-0.822 0-1.5 0.626-1.5 1.385v1.685h-0.5c-0.277 0-0.5 0.205-0.5 0.461v2.469h6v-2.469c0-0.256-0.223-0.461-0.5-0.461h-0.5v-1.685c0-0.76-0.678-1.385-1.5-1.385zm0 0.923h1c0.286 0 0.5 0.198 0.5 0.462v1.685h-2v-1.685c0-0.264 0.214-0.462 0.5-0.462z"/></svg>
