<?xml version="1.0" encoding="UTF-8"?>
<svg version="1.1" viewBox="0 0 16 16" xmlns="http://www.w3.org/2000/svg">
<g fill="#f1f2f2" font-weight="400">
<path d="m1 16h14v-10h-4v9h-6v-9h-4v9zm1-1v-2h2v2zm0-3v-2h2v2zm0-3v-2h2v2zm10 6v-2h2v2zm0-3v-2h2v2zm0-3v-2h2v2z" style="fill:#f1f2f2;opacity:.5;paint-order:markers fill stroke;stroke-width:1.118"/>
<path d="m6 14h4v-7h-4v6zm1-1v-2h2v2zm0-3v-2h2v2z" style="fill:#f1f2f2;paint-order:markers fill stroke;stroke-width:1.118"/>
<path d="m11 5h-1c-0.258 0-0.53-0.13-0.72-0.313l-1.283-1.282-1.283 1.282c-0.19 0.183-0.462 0.313-0.72 0.313h-1v-1.001c0-0.31 0.09-0.553 0.281-0.75l2.722-2.66 2.722 2.66c0.191 0.197 0.281 0.44 0.281 0.75z" font-weight="400" overflow="visible" style="color:#f1f2f2;text-decoration-line:none;text-indent:0;text-transform:none"/>
</g>
</svg>
