<?xml version="1.0" encoding="UTF-8"?>
<svg version="1.1" viewBox="0 0 16 16" xmlns="http://www.w3.org/2000/svg">
<title>Gnome Symbolic Icon Theme</title>
<g transform="rotate(-45,8,8)">
<path d="m10.432 0.57101c-0.36167-0.34427-0.83322-0.56292-1.3894-0.68501l-1.062 1.062c1.145 0.30034 1.8525 1.0074 2.1213 2.1213l0.35355 0.35355c0.97934 0.97934 1.137 2.3985 0.35355 3.182-0.78347 0.78347-2.2026 0.62579-3.182-0.35355l-0.35355-0.35355 1.8133-1.8133c-0.32089-1.1864-1.0665-1.8452-2.1213-2.1213l-2.4113 2.4113a1.0001 1.0001 0 0 0-0.21821 0.21821l-2.7456 2.7456-0.91289 3.0342 3.0342-0.91289 2.1476-2.1476 0.70711 0.70711c0.2357 0.2357 0.27498 0.36717 0.28864 0.47647 0.013663 0.1093-0.0057682 0.25598-0.12292 0.49028-0.2343 0.46859-0.87284 1.1546-1.5799 1.8617l-0.70711 0.70711c-0.53033 0.53033-0.79301 1.3926-0.52066 2.0536 0.27235 0.66106 0.80389 0.99627 1.3327 1.214 0.52884 0.21769 1.1085 0.31597 1.7001 0.2776 0.59155-0.03838 1.2296-0.21592 1.7305-0.71677a1.0001 1.0001 0 1 0-1.4142-1.4142c-0.029189 0.02919-0.18695 0.11715-0.44608 0.13396-0.25914 0.01681-0.5854-0.0396-0.80792-0.1312-0.098585-0.04058-0.068059-0.02121-0.1091-0.05386l0.65601-0.65601c0.70711-0.70711 1.4828-1.4353 1.9556-2.381 0.14602-0.29204 0.25301-0.62055 0.30245-0.96813 1.2791 0.24303 2.5331-0.027877 3.3988-0.89355 1.5669-1.5669 1.2516-4.4053-0.70711-6.364l-0.70711-0.70711-0.04143 0.041432c-0.099222-0.15361-0.20814-0.29713-0.3356-0.41846z" style="fill:#f1f2f2;stroke-width:1.0231"/>
</g>
</svg>
