<?xml version="1.0" encoding="UTF-8"?>
<svg version="1.1" viewBox="0 0 16 16" xmlns="http://www.w3.org/2000/svg">
<path d="m13 0c-0.91446 1.6798e-16 -1.7715 0.49233-2.3359 1.207-0.5343-0.13054-1.0895-0.20703-1.6641-0.20703-2.3897 0-4.4968 1.1997-5.7598 3.0273-0.080402-0.0074861-0.15889-0.027344-0.24023-0.027344-1.5708 0-3 1.4292-3 3 0 1.3187 1.011 2.5255 2.2637 2.8828 0.82316 2.9502 3.5236 5.1172 6.7363 5.1172 0.57452 0 1.1298-0.07649 1.6641-0.20703 0.56444 0.7147 1.4215 1.207 2.3359 1.207 1.5708 0 3-1.4292 3-3 0-0.69626-0.29077-1.3563-0.74023-1.8848 0.46848-0.93938 0.74023-1.9942 0.74023-3.1152s-0.27175-2.1759-0.74023-3.1152c0.44947-0.52849 0.74023-1.1885 0.74023-1.8848 0-1.5708-1.4292-3-3-3zm0 1a2 2 0 0 1 0.15625 0.0078125 2 2 0 0 1 0.14062 0.015625 2 2 0 0 1 0.0625 0.0097656 2 2 0 0 1 0.10547 0.023438 2 2 0 0 1 0.10547 0.027344 2 2 0 0 1 0.091797 0.03125 2 2 0 0 1 0.082032 0.03125 2 2 0 0 1 0.10547 0.044922 2 2 0 0 1 0.078125 0.039063 2 2 0 0 1 0.091797 0.050781 2 2 0 0 1 0.091797 0.056641 2 2 0 0 1 0.017578 0.011719 2 2 0 0 1 0.039063 0.029297 2 2 0 0 1 0.10156 0.076172 2 2 0 0 1 0.06836 0.060547 2 2 0 0 1 0.076171 0.070312 2 2 0 0 1 0.070313 0.076172 2 2 0 0 1 0.060547 0.068359 2 2 0 0 1 0.076172 0.10156 2 2 0 0 1 0.029297 0.039063 2 2 0 0 1 0.011718 0.017578 2 2 0 0 1 0.056641 0.091797 2 2 0 0 1 0.050781 0.091797 2 2 0 0 1 0.039063 0.078125 2 2 0 0 1 0.044922 0.10547 2 2 0 0 1 0.03125 0.082031 2 2 0 0 1 0.03125 0.091797 2 2 0 0 1 0.027343 0.10547 2 2 0 0 1 0.023438 0.10547 2 2 0 0 1 0.009765 0.0625 2 2 0 0 1 0.015626 0.14062 2 2 0 0 1 0.007812 0.15625 2 2 0 0 1-0.007812 0.15625 2 2 0 0 1-0.013672 0.11719 2 2 0 0 1-0.017578 0.11133 2 2 0 0 1-0.001954 0.011719 2 2 0 0 1-0.005859 0.025391 2 2 0 0 1-0.039063 0.15039 2 2 0 0 1-0.021484 0.068359 2 2 0 0 1-0.048828 0.12891 2 2 0 0 1-0.003906 0.0097657 2 2 0 0 1-0.007813 0.017578 2 2 0 0 1-0.074219 0.15234 2 2 0 0 1-0.003906 0.0097656 2 2 0 0 1-0.019531 0.033203 2 2 0 0 1-1.7344 1.0078 2 2 0 0 1-1.2344-0.42969l-5.7793 2.3105c-0.031739-0.6835-0.32697-1.329-0.78516-1.8379l5.8223-2.3281a2 2 0 0 1 0.63281-1.1895c-0.001354-5.56e-4 -0.002552-0.0013979-0.003906-0.0019531a2 2 0 0 1 0.052734-0.042969 2 2 0 0 1 0.025391-0.021484 2 2 0 0 1 0.12305-0.09375 2 2 0 0 1 0.050781-0.035156 2 2 0 0 1 0.10742-0.066406 2 2 0 0 1 0.08789-0.046875 2 2 0 0 1 0.076172-0.037109 2 2 0 0 1 0.12109-0.048828 2 2 0 0 1 0.066406-0.023438 2 2 0 0 1 0.091797-0.029297 2 2 0 0 1 0.13281-0.033203 2 2 0 0 1 0.046875-0.0097657 2 2 0 0 1 0.125-0.019531 2 2 0 0 1 0.11133-0.0097656 2 2 0 0 1 0.12891-0.0058594zm-10 4c1.1046 0 2 0.89543 2 2-5.59e-4 0.011073-0.00121 0.022141-0.0019531 0.033203l6.1426 3.6855c-0.52394 0.43655-0.92196 1.028-1.0723 1.6875l-6.0996-3.6582c-0.29634 0.16474-0.6297 0.25144-0.96875 0.25195-0.34846 0-0.67175-0.097225-0.95703-0.25391 4.094e-4 0.0038451-4.146e-4 0.0078747 0 0.011719a2 2 0 0 1-0.16211-0.099609 2 2 0 0 1-0.29492-0.24414 2 2 0 0 1-0.22852-0.27539c-0.0072548-0.010453-0.014425-0.020653-0.021484-0.03125a2 2 0 0 1-0.16016-0.29297c-0.0088152-0.019714-0.019154-0.038548-0.027344-0.058594a2 2 0 0 1-0.099609-0.33008c-0.0027312-0.012544-0.007271-0.024479-0.0097656-0.037109a2 2 0 0 1-0.039062-0.38867 2 2 0 0 1 0.041016-0.40234 2 2 0 0 1 0.10547-0.34375c0.0084354-0.020942 0.016274-0.041916 0.025391-0.0625a2 2 0 0 1 0.15625-0.28711c0.0069619-0.01061 0.014327-0.020781 0.021484-0.03125a2 2 0 0 1 0-0.0019531 2 2 0 0 1 0.22461-0.27148c0.0061488-0.0062601 0.011348-0.013352 0.017578-0.019531a2 2 0 0 1 0.26758-0.2207c0.012387-0.0086219 0.024521-0.017044 0.037109-0.025391a2 2 0 0 1 0.28516-0.15625c0.023997-0.010794 0.047777-0.021386 0.072266-0.03125a2 2 0 0 1 0.32031-0.097656c0.013789-0.0030024 0.027122-0.0070493 0.041016-0.0097656a2 2 0 0 1 0.054688-0.011719c-8.723e-4 0.0018539-0.0010823 0.0040046-0.0019531 0.0058593 0.10872-0.018296 0.21811-0.033203 0.33203-0.033203zm9 0.79492c0.31859 0.12501 0.65388 0.20508 1 0.20508s0.68141-0.080071 1-0.20508v5.4746a2 2 0 0 1 0.73438 0.73828 2 2 0 0 1 0.003906 0.00586 2 2 0 0 1 0.085938 0.17188 2 2 0 0 1 0.060547 0.15234 2 2 0 0 1 0.013672 0.035156 2 2 0 0 1 0.003906 0.011719 2 2 0 0 1 0.027344 0.10352 2 2 0 0 1 0.02539 0.09961 2 2 0 0 1 0.023438 0.14062 2 2 0 0 1 0.005859 0.033203 2 2 0 0 1 0 0.003906 2 2 0 0 1 0.009766 0.13086 2 2 0 0 1 0.005859 0.10352 2 2 0 0 1-0.007812 0.15625 2 2 0 0 1-0.015626 0.14062 2 2 0 0 1-0.009765 0.0625 2 2 0 0 1-0.023438 0.10547 2 2 0 0 1-0.027343 0.10547 2 2 0 0 1-0.03125 0.091797 2 2 0 0 1-0.03125 0.082032 2 2 0 0 1-0.044922 0.10547 2 2 0 0 1-0.039063 0.078125 2 2 0 0 1-0.050781 0.091797 2 2 0 0 1-0.056641 0.091797 2 2 0 0 1-0.011718 0.017578 2 2 0 0 1-0.029297 0.039063 2 2 0 0 1-0.076172 0.10156 2 2 0 0 1-0.060547 0.06836 2 2 0 0 1-0.070313 0.076171 2 2 0 0 1-0.076171 0.070313 2 2 0 0 1-0.06836 0.060547 2 2 0 0 1-0.10156 0.076172 2 2 0 0 1-0.039063 0.029297 2 2 0 0 1-0.017578 0.011718 2 2 0 0 1-0.091797 0.056641 2 2 0 0 1-0.091797 0.050781 2 2 0 0 1-0.078125 0.039063 2 2 0 0 1-0.10547 0.044922 2 2 0 0 1-0.082032 0.03125 2 2 0 0 1-0.091797 0.03125 2 2 0 0 1-0.10547 0.027343 2 2 0 0 1-0.10547 0.023438 2 2 0 0 1-0.0625 0.009765 2 2 0 0 1-0.14062 0.015626 2 2 0 0 1-0.15625 0.007812 2 2 0 0 1-0.15625-0.007812 2 2 0 0 1-0.11719-0.013672 2 2 0 0 1-0.11133-0.017578 2 2 0 0 1-0.037109-0.007813 2 2 0 0 1-0.15039-0.039063 2 2 0 0 1-0.068359-0.021484 2 2 0 0 1-0.12891-0.048828 2 2 0 0 1-0.027344-0.011719 2 2 0 0 1-0.15234-0.074219 2 2 0 0 1-0.029297-0.015624 2 2 0 0 1-0.15039-0.09375 2 2 0 0 1-0.1582-0.12109 2 2 0 0 1-0.060547-0.052735 2 2 0 0 1-0.65234-1.4746 2 2 0 0 1 1-1.7285v-5.4766z" style="fill:#f1f2f2;paint-order:markers fill stroke"/>
</svg>
