<?xml version="1.0" encoding="UTF-8" standalone="no"?>
<!--Part of Monotone: https://github.com/sixsixfive/Monotone, released under cc-by-sa_v4-->
<svg id="svg2" xmlns="http://www.w3.org/2000/svg" viewBox="0 0 16 16" version="1.1"><g id="layer1" transform="translate(-317.03 -659.75)"><path id="path1431" style="fill:#f1f2f2" d="m5 3l1 2h-2c-0.4088 0-0.6467 0.3399-0.7383 0.7383l-0.5195 2.2617h-0.7422v-3h-2v3 1 0.2617c0 0.4088 0.32948 0.7383 0.73828 0.7383h1.5234c0.0076 0 0.0139-0.0037 0.0215-0.0039l-0.291 1.2659c-0.0916 0.398 0.3275 0.738 0.7363 0.738h0.2715l-1 2h2l1-2h6l1 2h2l-1-2h0.254c0.409 0 0.829-0.34 0.738-0.738l-0.287-1.2679c0.012 0.0006 0.022 0.0059 0.033 0.0059h1.524c0.409 0 0.738-0.3295 0.738-0.7383v-0.2617-4h-2v3h-0.748l-0.514-2.2617c-0.09-0.3987-0.329-0.7383-0.738-0.7383h-2l1-2h-2l-1 2-1-2h-2zm0.5996 4h0.8008c0.3324 0 0.5996 0.2672 0.5996 0.5996v1.8008c0 0.3324-0.2672 0.5996-0.5996 0.5996h-0.8008c-0.3324 0-0.5996-0.2672-0.5996-0.5996v-1.8008c0-0.3324 0.2672-0.5996 0.5996-0.5996zm4 0h0.8004c0.333 0 0.6 0.2672 0.6 0.5996v1.8008c0 0.3324-0.267 0.5996-0.6 0.5996h-0.8004c-0.3324 0-0.5996-0.2672-0.5996-0.5996v-1.8008c0-0.3324 0.2672-0.5996 0.5996-0.5996z" transform="translate(317.03 659.75)"/></g></svg>
