<!--Part of Monotone: https://github.com/sixsixfive/Monotone, released under cc-by-sa_v4-->
<svg xmlns="http://www.w3.org/2000/svg" viewBox="0 0 16 16">
    <g color="#000" fill="#f1f2f2">
        <path style="line-height:normal;-inkscape-font-specification:Sans;text-indent:0;text-align:start;text-decoration-line:none;text-transform:none;marker:none" d="M6.234 0a1.96 1.96 0 0 0-1.406.563l-4.25 4.25c-.771.77-.757 2.073 0 2.843l.472.374h2.844l-1.91-1.811L6.234 2l7.72 7.781c.014.016.043.02.03.032l-4.25 4.25L8 12.163v2.813l.298.462.031.03a1.999 1.999 0 0 0 2.812 0l4.25-4.25a2.004 2.004 0 0 0 0-2.812L7.64.562A1.946 1.946 0 0 0 6.234 0z" font-weight="400" font-family="Sans" overflow="visible"/>
        <path style="isolation:auto;mix-blend-mode:normal;marker:none" d="M1.73 13.015l2.808 2.809 2.81-2.81z" overflow="visible"/>
        <path style="line-height:normal;text-indent:0;text-align:start;text-decoration-line:none;text-decoration-style:solid;text-decoration-color:#000;text-transform:none;isolation:auto;mix-blend-mode:normal;marker:none" d="M1.015 9.024v1h1.422c.472 0 .875.14 1.147.373.272.233.44.551.44 1.041v2.242h1v-2.242c0-.744-.304-1.383-.79-1.799-.485-.415-1.126-.615-1.797-.615z" font-weight="400" font-family="sans-serif" white-space="normal" overflow="visible"/>
    </g>
</svg>
