<?xml version="1.0" encoding="UTF-8" standalone="no"?>
<!--Part of Monotone: https://github.com/sixsixfive/Monotone, released under cc-by-sa_v4-->
<svg id="svg10" xmlns="http://www.w3.org/2000/svg" version="1.1" viewBox="0 0 16 16"><path id="path4" style="fill:#f1f2f2" fill-rule="evenodd" d="m16 0c-1 1-4.135 0.975-6.193 1-4.474 0.054-6.517 0.886-7.807 3h14c0.037-1.306-0.029-2.693 0-4zm0 6l-14.99 0.023c-0.614 0.83-0.924 1.943-1.01 2.977h15.16c0.214-0.414 0.38-0.865 0.488-1.355a9.93 9.93 0 0 0 0.352 -1.645zm-16 5c-0.043 1.33 0.072 2.73 0 3.98 6.304 0.153 11.716-0.634 14.193-3.98h-14.193z" fill="#f1f2f2"/></svg>
