<?xml version="1.0" encoding="UTF-8" standalone="no"?>
<!--Part of Monotone: https://github.com/sixsixfive/Monotone, released under cc-by-sa_v4-->
<svg id="svg7384" xmlns="http://www.w3.org/2000/svg" viewBox="0 0 16 16" version="1.1"><g id="layer11" transform="matrix(2 0 0 2 -18 -548.22)"><path id="rect830" d="m4 1c-1.662 0-3 1.338-3 3v8c0 1.662 1.338 3 3 3h8c1.662 0 3-1.338 3-3v-8c0-1.662-1.338-3-3-3zm3.8027 1c1.1665 0 1.9161 0.1507 2.6833 0.4609 1.037 0.3934 1.697 0.9082 2.26 1.3653 0.22 0.178 0.031 0.3946-0.084 0.5527-0.288 0.3973-0.695 0.8874-0.822 1.1231-0.101 0.1714-0.289 0.2345-0.444 0.1152 0 0-0.381-0.2889-0.691-0.4668-0.31-0.1774-0.604-0.3113-0.9003-0.4375-0.2969-0.126-0.5624-0.2005-0.8203-0.2637-0.2583-0.0628-0.4647-0.0859-0.6582-0.0859-0.2323 0-0.4238 0.0608-0.5332 0.164-0.1099 0.1032-0.1483 0.197-0.1426 0.3575 0.0102 0.2891 0.0592 0.3429 0.3652 0.6035 0.2642 0.1778 0.4713 0.3069 1.0059 0.5605 0.3996 0.1896 0.829 0.3999 1.2875 0.6348 0.457 0.235 0.918 0.5369 1.318 0.8691 0.4 0.3328 0.712 0.7137 0.977 1.1778 0.264 0.4642 0.396 1.0262 0.396 1.6675 0 0.619-0.145 1.173-0.436 1.625-0.29 0.453-0.678 0.835-1.142 1.127-0.465 0.293-1.001 0.502-1.588 0.645-0.5873 0.143-1.188 0.205-1.7813 0.205-1.1871 0-2.1-0.167-2.9062-0.557-0.9202-0.389-2.1715-1.586-2.1465-1.771 0.0325-0.241 0.7395-0.875 1.168-1.416 0.2087-0.2638 0.2908-0.3871 0.6035-0.141 0 0 0.2721 0.239 0.543 0.428 0.2708 0.189 0.5743 0.32 0.8906 0.463 0.3159 0.143 0.5041 0.223 0.8847 0.324 0.3292 0.092 0.6986 0.129 0.9825 0.129 0.2836 0 0.4733-0.095 0.6074-0.203 0.1482-0.119 0.1914-0.244 0.1914-0.496 0-0.218-0.2065-0.471-0.4707-0.666-0.2645-0.1948-0.5617-0.3603-0.9551-0.5725-0.3937-0.2119-0.8293-0.4604-1.2871-0.707-0.4581-0.2463-0.8839-0.5544-1.2773-0.8868-0.3938-0.3322-0.6712-0.6387-0.9356-1.0683-0.2645-0.4298-0.418-0.9071-0.418-1.4688 0-0.5501 0.096-1.0874 0.3282-1.5s0.5438-0.7581 0.9375-1.039c0.3933-0.2807 0.8491-0.4932 1.3652-0.6368 0.5159-0.143 1.064-0.2148 1.6445-0.2148z" style="paint-order:fill markers stroke;fill:#f1f2f2" transform="matrix(.5 0 0 .5 9 274.11)"/></g></svg>
