<?xml version="1.0" encoding="UTF-8" standalone="no"?>
<!--Part of Monotone: https://github.com/sixsixfive/Monotone, released under cc-by-sa_v4-->
<svg xmlns="http://www.w3.org/2000/svg" version="1.1" viewBox="0 0 16 16">
<g fill="#f1f2f2">
<path style="color:#000000;isolation:auto;mix-blend-mode:normal" d="m1 1h1v1h-1zm2 0h1v1h-1zm2 0h1v1h-1zm2 0h1v1h-1zm2 0h1v1h-1zh1v1h-1zm2 0h1v1h-1zm0 2h1v1h-1zm0 2h1v1h-1zm0 2h1v1h-1zm0 2h1v1h-1zh1v1h-1zm0 2h1v1h-1zm-2 0h1v1h-1zh1v1h-1zm-2 0h1v1h-1zm-2 0h1v1h-1zm-2 0h1v1h-1zm-2 0h1v1h-1zm0-2h1v1h-1zh1v1h-1zm0-2h1v1h-1zm0-2h1v1h-1zm0-2h1v1h-1z" overflow="visible"/>
<path style="color:#000000;isolation:auto;mix-blend-mode:normal" d="m4 4h1v1h-1zm2 0h1v1h-1zm2 0h1v1h-1zm2 0h1v1h-1zm2 0h1v1h-1zh1v1h-1zm2 0h1v1h-1zm0 2h1v1h-1zm0 2h1v1h-1zm0 2h1v1h-1zm0 2h1v1h-1zh1v1h-1zm0 2h1v1h-1zm-2 0h1v1h-1zh1v1h-1zm-2 0h1v1h-1zm-2 0h1v1h-1zm-2 0h1v1h-1zm-2 0h1v1h-1zm0-2h1v1h-1zh1v1h-1zm0-2h1v1h-1zm0-2h1v1h-1zm0-2h1v1h-1z" overflow="visible"/>
<rect height="4" width="4" y="6" x="6"/>
</g>
</svg>
