<!--Part of Monotone: https://github.com/sixsixfive/Monotone, released under cc-by-sa_v4-->
<svg xmlns="http://www.w3.org/2000/svg" viewBox="0 0 16 16">
    <g color="#000" fill="#f1f2f2">
        <path style="line-height:normal;-inkscape-font-specification:Sans;text-indent:0;text-align:start;text-decoration-line:none;text-transform:none;marker:none" d="M7.997 1.005c.266 0 .499.1.665.24.166.138.277.32.39.5.224.358.392.768.565 1.203.173.435.347.888.505 1.233.157.344.345.578.358.587.013.01.307.117.696.152.389.035.881.05 1.363.07.482.02.97.036 1.393.128.212.046.416.101.605.21a.987.987 0 0 1 .45.53.994.994 0 0 1-.037.7c-.085.196-.226.366-.368.524-.283.317-.633.606-1.008.899-.375.293-.777.56-1.068.81a2.32 2.32 0 0 0-.459.523c-.005.014-.03.335.055.702.086.367.224.812.353 1.26.129.449.252.902.291 1.319.02.208.043.407-.005.614a.987.987 0 0 1-1.067.752 2.174 2.174 0 0 1-.635-.152c-.4-.162-.802-.428-1.206-.682-.405-.254-.809-.522-1.146-.711a2.645 2.645 0 0 0-.664-.269c-.016 0-.304.096-.64.288-.335.192-.725.465-1.127.722-.402.257-.82.497-1.218.663-.199.082-.389.15-.608.17-.218.02-.48-.03-.695-.18a.947.947 0 0 1-.39-.56 2.045 2.045 0 0 1-.024-.643c.036-.417.159-.864.284-1.314.125-.45.262-.887.344-1.255a2.64 2.64 0 0 0 .067-.701 2.957 2.957 0 0 0-.48-.501c-.294-.249-.677-.538-1.054-.827-.378-.29-.767-.572-1.053-.886a1.934 1.934 0 0 1-.33-.53.916.916 0 0 1-.054-.672c.081-.245.271-.413.46-.523.187-.11.366-.182.577-.23a8.4 8.4 0 0 1 1.395-.163c.482-.025.946-.04 1.335-.077.388-.038.715-.132.728-.14.013-.01.184-.237.339-.583.154-.346.326-.788.495-1.224.17-.436.335-.865.556-1.224.11-.18.234-.354.399-.494.164-.14.403-.257.669-.258zM7.988 2a1.42 1.42 0 0 0-.184.262c-.155.251-.33.627-.494 1.049-.163.422-.319.886-.496 1.283-.177.396-.314.733-.675.989-.36.255-.77.297-1.215.34-.445.044-.93.054-1.395.077-.466.024-.918.07-1.214.137-.147.033-.255.057-.303.085.022.05.08.155.18.265.199.22.537.487.902.767s.778.572 1.114.857c.336.285.64.533.78.942.14.41.054.777-.041 1.2-.095.421-.254.877-.375 1.312-.121.435-.227.847-.252 1.139-.012.132.017.234.027.292.06-.008.177-.032.304-.085.279-.116.647-.328 1.036-.577.389-.248.804-.53 1.188-.75.385-.22.708-.399 1.155-.4.448-.003.792.172 1.179.39.387.216.784.494 1.176.74.39.245.776.45 1.055.564.14.056.247.085.303.09.01-.058.015-.16.003-.292-.028-.292-.138-.71-.263-1.143a27.886 27.886 0 0 1-.353-1.319c-.098-.421-.186-.788-.05-1.2.137-.41.432-.641.766-.93.333-.287.705-.585 1.068-.868.363-.283.718-.56.916-.782.1-.11.162-.212.184-.262a1.312 1.312 0 0 0-.302-.09c-.296-.064-.745-.107-1.211-.127-.466-.02-.949-.03-1.394-.07-.445-.04-.847-.05-1.21-.302-.362-.252-.538-.605-.718-1-.18-.395-.338-.84-.505-1.261-.167-.42-.318-.836-.475-1.086A.972.972 0 0 0 7.989 2z" font-weight="400" font-family="Sans" overflow="visible"/>
        <path style="marker:none" d="M8 1.5c.927-.003 1.436 3.134 2.188 3.656.751.523 4.022.026 4.312.875.29.85-2.655 2.274-2.938 3.125-.282.851 1.248 3.69.5 4.219-.747.528-3.104-1.722-4.03-1.719H8z" overflow="visible"/>
    </g>
</svg>
