<!--Part of Monotone: https://github.com/sixsixfive/Monotone, released under cc-by-sa_v4-->
<svg xmlns="http://www.w3.org/2000/svg" viewBox="0 0 16 16">
    <g color="#000" fill="#f1f2f2">
        <path style="line-height:normal;-inkscape-font-specification:Sans;text-indent:0;text-align:start;text-decoration-line:none;text-transform:none;marker:none" d="M8.003 1.005c-.266 0-.499.1-.665.24-.166.138-.277.32-.39.5-.224.358-.392.768-.565 1.203-.173.435-.347.888-.505 1.233a2.606 2.606 0 0 1-.358.587 2.62 2.62 0 0 1-.696.152c-.389.035-.881.05-1.363.07-.482.02-.97.036-1.393.128a2.079 2.079 0 0 0-.605.21.987.987 0 0 0-.45.53.994.994 0 0 0 .037.7c.085.196.226.366.368.524.283.317.633.606 1.008.899.375.293.776.56 1.068.81.29.251.454.508.459.523a2.26 2.26 0 0 1-.055.702c-.086.367-.224.812-.353 1.26-.129.449-.252.902-.291 1.319-.02.208-.043.407.005.614a.987.987 0 0 0 1.067.752c.219-.018.435-.07.635-.152.4-.162.802-.428 1.207-.682.404-.254.808-.522 1.145-.711.338-.19.649-.269.665-.269.016 0 .303.096.639.288.335.192.725.465 1.127.722.403.257.82.497 1.218.663.2.082.39.15.608.17.219.02.48-.03.695-.18a.947.947 0 0 0 .39-.56c.05-.206.042-.435.024-.643-.036-.417-.159-.864-.284-1.314-.125-.45-.261-.887-.344-1.255a2.639 2.639 0 0 1-.067-.701c.005-.014.188-.252.48-.501.294-.249.677-.538 1.055-.827.377-.29.767-.572 1.053-.886.143-.157.241-.335.329-.53a.916.916 0 0 0 .054-.672c-.08-.245-.27-.413-.459-.523a1.965 1.965 0 0 0-.578-.23 8.387 8.387 0 0 0-1.395-.163c-.482-.025-.946-.04-1.334-.077a3.695 3.695 0 0 1-.729-.14 2.713 2.713 0 0 1-.338-.583 28.406 28.406 0 0 1-.496-1.224c-.169-.436-.335-.865-.556-1.224a2.01 2.01 0 0 0-.398-.494 1.061 1.061 0 0 0-.67-.258zM8.01 2c.043.036.107.136.184.262.155.251.331.627.494 1.049.164.422.32.886.496 1.283.177.396.315.733.676.989.36.255.77.297 1.215.34.445.044.929.054 1.395.077.466.024.918.07 1.213.137.148.033.256.057.304.085-.022.05-.08.155-.18.265-.2.22-.537.487-.902.767s-.778.572-1.114.857c-.336.285-.64.533-.78.942-.14.41-.054.777.04 1.2.095.421.255.877.376 1.312.12.435.227.847.252 1.139.012.132-.017.234-.028.292a1.289 1.289 0 0 1-.304-.085c-.278-.116-.646-.328-1.035-.577-.389-.248-.804-.53-1.188-.75-.385-.22-.708-.399-1.156-.4-.447-.003-.792.172-1.178.39-.387.216-.785.494-1.176.74-.391.245-.776.45-1.056.564-.14.056-.246.085-.302.09a1.168 1.168 0 0 1-.003-.292c.028-.292.139-.71.263-1.143.125-.434.254-.898.353-1.319.098-.421.186-.788.05-1.2-.137-.41-.432-.641-.766-.93a28.872 28.872 0 0 0-1.068-.868c-.363-.283-.718-.56-.916-.782-.1-.11-.162-.212-.184-.262.048-.027.154-.058.302-.09.296-.064.745-.107 1.211-.127.466-.02.949-.03 1.394-.07.445-.04.847-.05 1.21-.302s.538-.605.718-1c.18-.395.338-.84.505-1.261.167-.42.318-.836.475-1.086A.973.973 0 0 1 8.01 2z" font-weight="400" font-family="Sans" overflow="visible"/>
        <path style="marker:none" d="M8 1.5c-.927-.003-1.436 3.134-2.188 3.656-.751.523-4.022.026-4.312.875-.29.85 2.655 2.274 2.937 3.125.283.851-1.247 3.69-.5 4.219.748.528 3.105-1.722 4.032-1.719h.03z" overflow="visible"/>
    </g>
</svg>
