<?xml version="1.0" encoding="UTF-8" standalone="no"?>
<!--Part of Monotone: https://github.com/sixsixfive/Monotone, released under cc-by-sa_v4-->
<svg xmlns="http://www.w3.org/2000/svg" version="1.1" viewBox="0 0 16 16">
 <g fill="#f1f2f2">
  <path overflow="visible" d="m5.969 7.969a2.969 2.969 0 0 1 -2.969 2.969 2.969 2.969 0 0 1 -2.969 -2.97 2.969 2.969 0 0 1 2.97 -2.968 2.969 2.969 0 0 1 2.968 2.969zm9.969 5a2.969 2.969 0 0 1 -2.97 2.968 2.969 2.969 0 0 1 -2.968 -2.967 2.969 2.969 0 0 1 2.969 -2.97 2.969 2.969 0 0 1 2.969 2.969zm0-10a2.969 2.969 0 0 1 -2.97 2.969 2.969 2.969 0 0 1 -2.968 -2.97 2.969 2.969 0 0 1 2.969 -2.968 2.969 2.969 0 0 1 2.969 2.969z"/>
  <path style="text-decoration-line:none;text-transform:none;text-indent:0" font-family="Sans" d="m12.625 2.156l-10.063 4.875-1.812 0.907 1.812 0.906 10.032 5.062 0.906-1.812-8.22-4.156 8.219-4z" overflow="visible" font-weight="400"/>
 </g>
</svg>
