<?xml version="1.0" encoding="UTF-8"?>
<svg version="1.1" viewBox="0 0 16 16" xmlns="http://www.w3.org/2000/svg">
<path d="m8 0a4 4 0 0 0-4 4h-0.77734c-0.67711 0-1.2227 0.54555-1.2227 1.2227v8.5547c0 0.67711 0.54555 1.2227 1.2227 1.2227h9.5547c0.67711 0 1.2227-0.54554 1.2227-1.2227v-8.5547c0-0.67711-0.54554-1.2227-1.2227-1.2227h-0.77734a4 4 0 0 0-4-4zm0 1a3 3 0 0 1 3 3h-6a3 3 0 0 1 3-3zm-4 4h1a3 3 0 0 0 3 3 3 3 0 0 0 3-3h1a4 4 0 0 1-4 4 4 4 0 0 1-4-4z" style="fill:#f1f2f2;paint-order:markers fill stroke"/>
</svg>
