<!--Part of Monotone: https://github.com/sixsixfive/Monotone, released under cc-by-sa_v4-->
<svg viewBox="0 0 16 16" xmlns="http://www.w3.org/2000/svg">
    <g transform="translate(-283 85)" fill="#f1f2f2">
        <circle cx="288.848" cy="-71.5" r="1.5" style="marker:none"/>
        <circle cx="294.848" cy="-71.5" r="1.5" style="marker:none"/>
        <path d="M284.215-83.035a.989.989 0 0 0-.735.33 1.017 1.017 0 0 0-.244.67 1 1 0 0 0 .26.68c.181.197.465.32.76.32h2.043l.887 6.51.99-.137-1.14-8.373zm.021 1h.02c-.06 0-.033-.004-.024.006.01.01.004.008.004-.006z" style="line-height:normal;font-variant-ligatures:normal;font-variant-position:normal;font-variant-caps:normal;font-variant-numeric:normal;font-variant-alternates:normal;font-feature-settings:normal;text-indent:0;text-align:start;text-decoration-line:none;text-decoration-style:solid;text-decoration-color:#000;text-transform:none;text-orientation:mixed;shape-padding:0;isolation:auto;mix-blend-mode:normal" color="#000" font-weight="400" font-family="sans-serif" white-space="normal" overflow="visible"/>
        <path d="M287.082-74.984c-.467 0-.88.18-1.148.468-.27.288-.398.66-.397 1.026.001.366.133.739.404 1.025.272.287.687.465 1.157.465h7.53v-1h-7.53c-.236 0-.35-.069-.432-.154a.499.499 0 0 1-.129-.34c0-.13.046-.253.125-.338.08-.085.19-.152.42-.152h.902v-1z" style="line-height:normal;font-variant-ligatures:normal;font-variant-position:normal;font-variant-caps:normal;font-variant-numeric:normal;font-variant-alternates:normal;font-feature-settings:normal;text-indent:0;text-align:start;text-decoration-line:none;text-decoration-style:solid;text-decoration-color:#000;text-transform:none;text-orientation:mixed;shape-padding:0;isolation:auto;mix-blend-mode:normal" color="#000" font-weight="400" font-family="sans-serif" white-space="normal" overflow="visible"/>
        <path d="M296.953-80.984l-10.654.023.078.566.879 6.403h5.775c.972 0 1.741-.384 2.25-.963.51-.58.778-1.318.948-2.066l.004-.01zm-1.2 1.004l-.5 2.738c-.148.658-.383 1.239-.724 1.627-.34.388-.767.623-1.498.623h-4.904l-.682-4.973z" style="line-height:normal;font-variant-ligatures:normal;font-variant-position:normal;font-variant-caps:normal;font-variant-numeric:normal;font-variant-alternates:normal;font-feature-settings:normal;text-indent:0;text-align:start;text-decoration-line:none;text-decoration-style:solid;text-decoration-color:#000;text-transform:none;text-orientation:mixed;shape-padding:0;isolation:auto;mix-blend-mode:normal" color="#000" font-weight="400" font-family="sans-serif" white-space="normal" overflow="visible"/>
        <path style="marker:none" d="M289-79h1v1h-1zm2 0h1v1h-1zm-1 1h1v1h-1zm2 0h1v1h-1zm-3 1h1v1h-1zm2 0h1v1h-1zm2-2h1v1h-1zm1 1h1v1h-1zm-1 1h1v1h-1zm-5-1h1v1h-1zm7-1h1v1h-1zm-7-1h1v1h-1zm2 0h1v1h-1zm2 0h1v1h-1zm2 0h1v1h-1zm-6 4h1v1h-1zm2 0h1v1h-1zm2 0h1v1h-1zm2 0h1v1h-1zm-7-3h1v1h-1z"/>
    </g>
</svg>
