<?xml version="1.0" encoding="UTF-8"?>
<svg version="1.1" viewBox="0 0 16 16" xmlns="http://www.w3.org/2000/svg">
<path d="m1 15 14-14v2l-12 12z" style="fill:#f1f2f2"/>
<path d="m2.332 2c-0.1845 0-0.33203 0.14753-0.33203 0.33203v9.668l1-1v-5.668c0-0.1845 0.14753-0.33203 0.33203-0.33203h5.668l3-3h-9.668zm11.57 0.097656-2.9023 2.9023h1.668c0.184 0 0.33203 0.14753 0.33203 0.33203v7.3359c0 0.184-0.14803 0.33203-0.33203 0.33203h-9.3359c-0.09225 0-0.17444-0.037656-0.23438-0.097656l-1 1c0.059938 0.06 0.14213 0.097656 0.23438 0.097656h11.336c0.184 0 0.33203-0.14803 0.33203-0.33203v-11.336c0-0.09225-0.037656-0.17444-0.097656-0.23438z" style="fill:#f1f2f2"/>
</svg>
