<?xml version="1.0" encoding="UTF-8" standalone="no"?>
<!--Part of Monotone: https://github.com/sixsixfive/Monotone, released under cc-by-sa_v4-->
<svg xmlns="http://www.w3.org/2000/svg" version="1.1" viewBox="0 0 16 16">
 <path opacity=".5" fill="#f1f2f2" d="m8 2a6 6 0 0 0 -5.9219 5.0625 1.5 1.5 0 0 0 -1.0781 1.4375 1.5 1.5 0 0 0 1.3477 1.4922 6 6 0 0 0 4.6523 3.9158v-1.013c-0.9522-0.199-1.849-0.67-2.5371-1.358-0.5039-0.504-0.8807-1.124-1.1309-1.7909a1.5 1.5 0 0 0 0.6407 -0.9551l3.0273-0.3125v-0.4785c0-0.554 0.446-1 1-1h1.9102a1.5 1.5 0 0 0 -0.0313 -0.084l1.3651-1.9394a1.5 1.5 0 0 0 0.256 0.0234 1.5 1.5 0 0 0 0.424 -0.0625c0.469 0.6059 0.795 1.3164 0.957 2.0625h1.027a6 6 0 0 0 -1.164 -2.6621 1.5 1.5 0 0 0 0.256 -0.8379 1.5 1.5 0 0 0 -1.5 -1.5 1.5 1.5 0 0 0 -1.117 0.502 6 6 0 0 0 -2.383 -0.502zm0 0.998c0.6894 0 1.3725 0.157 2.004 0.4336a1.5 1.5 0 0 0 -0.004 0.0684 1.5 1.5 0 0 0 0.09 0.5098l-1.4084 2.0019a1.5 1.5 0 0 0 -0.1816 -0.0117 1.5 1.5 0 0 0 -1.3965 0.959l-3.6562 0.3789a1.5 1.5 0 0 0 -0.3594 -0.2168c0.1823-0.9971 0.6579-1.9411 1.375-2.6582 0.9258-0.9258 2.2278-1.4649 3.5371-1.4649z"/>
 <path d="m8.8671 15.963a0.863 0.863 0 0 1 -0.875 -0.875v-6.2501c0-0.492 0.383-0.875 0.875-0.875h6.25a0.863 0.863 0 0 1 0.875 0.875v6.2501a0.863 0.863 0 0 1 -0.875 0.875zm2.125-1h2v-1h-2zm0-2h2v-4.0001h-2z" fill="#f1f2f2"/>
</svg>
