<?xml version="1.0" encoding="UTF-8" standalone="no"?>
<!--Part of Monotone: https://github.com/sixsixfive/Monotone, released under cc-by-sa_v4-->
<svg id="svg24" xmlns="http://www.w3.org/2000/svg" version="1.1" xmlns:xlink="http://www.w3.org/1999/xlink" viewBox="0 0 16 16"><circle id="path837" r="1" style="paint-order:fill markers stroke;fill:#f1f2f2" cx="2" cy="8"/><circle id="circle839" r="1.25" cy="5.55" cx="4.45" style="paint-order:fill markers stroke;fill:#f1f2f2"/><circle id="circle841" r="1.25" style="paint-order:fill markers stroke;fill:#f1f2f2" cx="4.45" cy="10.55"/><circle id="circle861" cx="7.475" cy="8.025" r="1.375" style="paint-order:fill markers stroke;fill:#f1f2f2"/><circle id="circle863" r="1.375" style="paint-order:fill markers stroke;fill:#f1f2f2" cx="7.475" cy="2.525"/><circle id="circle865" cx="7.475" cy="13.525" r="1.375" style="paint-order:fill markers stroke;fill:#f1f2f2"/><circle id="circle873" cx="2" cy="8" r="1" style="paint-order:fill markers stroke;fill:#f1f2f2"/><circle id="circle875" r="1.25" style="paint-order:fill markers stroke;fill:#f1f2f2" cx="4.45" cy="5.55"/><circle id="circle877" r="1.25" cy="10.55" cx="4.45" style="paint-order:fill markers stroke;fill:#f1f2f2"/><circle id="circle879" r="1.375" style="paint-order:fill markers stroke;fill:#f1f2f2" cx="7.475" cy="8.025"/><circle id="circle881" cx="7.475" cy="2.525" r="1.375" style="paint-order:fill markers stroke;fill:#f1f2f2"/><circle id="circle883" r="1.375" style="paint-order:fill markers stroke;fill:#f1f2f2" cx="7.475" cy="13.525"/><circle id="circle5992" style="paint-order:fill markers stroke;fill:#f1f2f2" transform="scale(-1,1)" cy="7.875" cx="-13.525" r="1.625"/><circle id="circle5994" style="paint-order:fill markers stroke;fill:#f1f2f2" cx="-10.5" transform="scale(-1,1)" cy="4.9" r="1.5"/><circle id="circle5996" style="paint-order:fill markers stroke;fill:#f1f2f2" transform="scale(-1,1)" cy="10.9" cx="-10.5" r="1.5"/><circle id="circle6000" style="paint-order:fill markers stroke;fill:#f1f2f2" transform="scale(-1,1)" cy="4.9" cx="-10.5" r="1.5"/><circle id="circle6002" style="paint-order:fill markers stroke;fill:#f1f2f2" cx="-10.5" transform="scale(-1,1)" cy="10.9" r="1.5"/></svg>
