<?xml version="1.0" encoding="UTF-8"?>
<svg version="1.1" viewBox="0 0 16 16" xmlns="http://www.w3.org/2000/svg">
<path d="m8.0352 1c-0.8961-6.5e-4 -1.3368 0.060522-2.0996 0.29492-2.2518 0.69188-3.9696 2.4542-4.6602 4.7051h1.2246c0.277 0 0.5 0.223 0.5 0.5s-0.223 0.5-0.5 0.5h-1.4453c-0.032702 0.29978-0.055355 0.63725-0.054688 1h1.5c0.277 0 0.5 0.223 0.5 0.5s-0.223 0.5-0.5 0.5h-1.4414c0.014564 0.1252 0.026281 0.26523 0.046875 0.36133 0.6203 2.8934 2.936 5.1066 5.8145 5.5566 3.2978 0.5155 6.5614-1.4379 7.6934-4.6035 0.15028-0.4203 0.25404-0.86332 0.31641-1.3145h-1.4297c-0.277 0-0.5-0.223-0.5-0.5s0.223-0.5 0.5-0.5h1.4922c-7.48e-4 -0.33466-0.024146-0.66863-0.070313-1h-1.4219c-0.277 0-0.5-0.223-0.5-0.5s0.223-0.5 0.5-0.5h1.2129c-0.1199-0.41538-0.27392-0.81679-0.46875-1.1934-1.2162-2.3506-3.5861-3.8047-6.209-3.8066zm-0.035156 3c0.61218 0 1.4146 0.54366 1.7207 1.0508 0.011064 0.018331 0.016852 0.045043 0.027344 0.064453 1.0276 0.15866 1.8766 0.45009 2.1289 0.9043 0.77552 1.3961-2.3259 6.9805-3.877 6.9805s-4.6525-5.5844-3.877-6.9805c0.25231-0.45421 1.1013-0.74563 2.1289-0.9043 0.010492-0.01941 0.01628-0.046123 0.027344-0.064453 0.30609-0.50712 1.1085-1.0508 1.7207-1.0508zm0 2c-0.554 0-1 0.446-1 1v2c0 0.554 0.446 1 1 1s1-0.446 1-1v-2c0-0.554-0.446-1-1-1z" style="fill:#f1f2f2"/>
</svg>
