<?xml version="1.0" encoding="UTF-8" standalone="no"?>
<!--Part of Monotone: https://github.com/sixsixfive/Monotone, released under cc-by-sa_v4-->
<svg id="svg6" xmlns="http://www.w3.org/2000/svg" viewBox="0 0 16 16" version="1.1"><path id="path844" style="fill:#f1f2f2" d="m8 1a7 7 0 0 0 -7 7 7 7 0 0 0 7 7 7 7 0 0 0 7 -7 7 7 0 0 0 -7 -7zm0 0.998c1.5711 0 3.133 0.6469 4.244 1.7579 1.111 1.1109 1.758 2.673 1.758 4.2441s-0.647 3.133-1.758 4.244-2.6729 1.758-4.244 1.758-3.1332-0.647-4.2441-1.758c-1.111-1.111-1.7579-2.6729-1.7579-4.244s0.6469-3.1332 1.7579-4.2441c1.1109-1.111 2.673-1.7579 4.2441-1.7579z"/><path id="path821" style="fill:#f1f2f2" d="m8 2.998c-2.6193 0-5.002 2.3827-5.002 5.002 0 2.619 2.3827 5.002 5.002 5.002 2.619 0 5.002-2.383 5.002-5.002 0-2.6193-2.383-5.002-5.002-5.002zm-2 2.002l5 3-5 3v-6z"/></svg>
