<?xml version="1.0" encoding="UTF-8"?>
<!--Part of Monotone: https://github.com/sixsixfive/Monotone, released under cc-by-sa_v4-->
<svg version="1.1" viewBox="0 0 16 16" xmlns="http://www.w3.org/2000/svg" xmlns:osb="http://www.openswatchbook.org/uri/2009/osb">
<path d="m8.5529 13.487c3.5935 0 5.5271-1.3585 6.4851-2.7886s0.962-2.9183 0.962-2.9183c0.0064-0.69842-0.99938-0.69842-0.993 0 0 0 4e-3 1.1383-0.7757 2.3022-0.6813 1.0171-2.1693 1.9234-4.7165 2.1725 1.4171-2.1812 1.7524-4.0921 1.4852-5.6745-0.3113-1.8434-1.2309-3.1972-2.6643-4.1505-2.867-1.9064-6.7716-2.3995-6.7716-2.3995-0.55678-0.20888-0.71338 1.0596-0.1241 1.0052 0 0 3.7428 0.5447 6.3371 2.2698 1.2972 0.8626 1.9827 1.9732 2.2299 3.4372 0.2473 1.4639 0.10709 3.3757-1.8265 5.9014-0.25612 0.33398-0.036973 0.83012 0.3724 0.8431z" style="color:#000000;fill:#f1f2f2"/>
<rect x="6" y="11" width="4" height="4" style="fill:#f1f2f2"/>
</svg>
