<!--Part of Monotone: https://github.com/sixsixfive/Monotone, released under cc-by-sa_v4-->
<svg xmlns="http://www.w3.org/2000/svg" viewBox="0 0 16 16">
    <path opacity=".5" d="M2.334 1C1.595 1 1 1.596 1 2.334v11.332C1 14.405 1.595 15 2.334 15h11.332c.739 0 1.334-.595 1.334-1.334V2.334C15 1.595 14.405 1 13.666 1H2.334zm3.123 2.488a1 1 0 0 1 .858.43L8 6.278l1.685-2.36a1 1 0 0 1 .829-.43 1 1 0 0 1 .8 1.594L9.945 7H12c.554 0 1 .446 1 1s-.446 1-1 1H9.945l1.369 1.918a1.001 1.001 0 1 1-1.629 1.164L8 9.722l-1.686 2.36a1.001 1.001 0 1 1-1.629-1.164L6.055 9H4c-.554 0-1-.446-1-1s.446-1 1-1h2.055l-1.37-1.918a1 1 0 0 1 .772-1.594zM8 7c-.554 0-1 .446-1 1s.446 1 1 1 1-.446 1-1-.446-1-1-1z" stroke-width=".875" fill="#f1f2f2"/>
</svg>
