<?xml version="1.0" encoding="UTF-8" standalone="no"?>
<!--Part of Monotone: https://github.com/sixsixfive/Monotone, released under cc-by-sa_v4-->
<svg xmlns="http://www.w3.org/2000/svg" version="1.1" viewBox="0 0 16 16">
 <path opacity=".5" fill="#f1f2f2" d="m2.334 1c-0.739 0-1.334 0.596-1.334 1.334v11.332c0 0.739 0.595 1.334 1.334 1.334h6.4277a4.5 4.5 0 0 1 0 -0.002 4.5 4.5 0 0 1 -0.2031 -0.338 4.5 4.5 0 0 1 -0.0332 -0.058 4.5 4.5 0 0 1 -0.1367 -0.286 4.5 4.5 0 0 1 -0.0606 -0.138 4.5 4.5 0 0 1 -0.1113 -0.319 4.5 4.5 0 0 1 -0.0313 -0.091 4.5 4.5 0 0 1 -0.0781 -0.321 4.5 4.5 0 0 1 -0.0293 -0.131 4.5 4.5 0 0 1 -0.0332 -0.23 4.5 4.5 0 0 1 -0.0293 -0.238 4.5 4.5 0 0 1 -0.0156 -0.348 4.5 4.5 0 0 1 0.0234 -0.449 4.5 4.5 0 0 1 0.4844 -1.619l-0.5078-0.7093-1.6855 2.3593a1.0015 1.0015 0 1 1 -1.629 -1.164l1.3692-1.918h-2.0547c-0.554 0-1-0.446-1-1s0.446-1 1-1h2.0547l-1.3692-1.918a1 1 0 0 1 0.7715 -1.5937 1 1 0 0 1 0.8575 0.4297l1.6855 2.3593 1.6855-2.3593a1 1 0 0 1 0.8285 -0.4297 1 1 0 0 1 0.8 1.5937l-1.3687 1.918h2.0547c0.554 0 1 0.446 1 1 0 0.01-0.006 0.0183-0.006 0.0293a4.5 4.5 0 0 1 0.061 0.0098 4.5 4.5 0 0 1 0.383 0.0625 4.5 4.5 0 0 1 0.435 0.1152 4.5 4.5 0 0 1 0.008 0.0039 4.5 4.5 0 0 1 0.41 0.1543 4.5 4.5 0 0 1 0.002 0 4.5 4.5 0 0 1 0.016 0.0078 4.5 4.5 0 0 1 0.384 0.1895 4.5 4.5 0 0 1 0.307 0.1875v-6.4258c0-0.738-0.595-1.334-1.334-1.334h-11.332zm5.666 6c-0.554 0-1 0.446-1 1s0.446 1 1 1 1-0.446 1-1-0.446-1-1-1z"/>
 <path style="color:#f1f2f2" d="m12.5 9a3.5 3.5 0 1 0 0 7 3.5 3.5 0 0 0 0 -7zm-2.5 2.969h5v1.031h-5z" class="error" overflow="visible" fill="#f1f2f2"/>
</svg>
