<?xml version="1.0" encoding="UTF-8"?>
<svg version="1.1" viewBox="0 0 16 16" xmlns="http://www.w3.org/2000/svg">
<path d="m8.1895-0.013672c-0.39647-0.0058307-0.79301 0.0061858-1.1895 0.013672v7.3789c-0.411-0.20354-1.4749-0.31694-2-0.37891-2.7614 0-5 2.0147-5 4.5 0 2.4853 2.2386 4.5 5 4.5 2.5642-0.0017 4.7407-1.704 5-4 0.05799-1.7264 0.0011-3.9763 0-5.6074l0.19727-0.0625c1.6252 0.38752 2.6541 0.32069 2.8027 4.6699 5-3-0.74287-7.132-4.8105-11.014zm-4.6816 9.0039c0.28326 0 0.52344 0.31553 0.52344 0.68945v0.65039c0 0.37392-0.24018 0.66992-0.52344 0.66992s-0.50781-0.296-0.50781-0.66992v-0.65039c0-0.37392 0.22455-0.68945 0.50781-0.68945zm3 0.00977c0.28326-4.4e-6 0.52344 0.31748 0.52344 0.6914v0.64844c0 0.37392-0.24018 0.66992-0.52344 0.66992s-0.50781-0.296-0.50781-0.66992v-0.64844c0-0.37392 0.22455-0.69141 0.50781-0.69141zm-4.5078 3c1.2 0.99333 4.7931 0.99333 6.0195 0l-0.019531 0.4043c-0.0216 0.32756-0.6 2.5721-3 2.5957s-3-2.1174-3-2.5234z" style="fill-opacity:.99774;fill:#f1f2f2;paint-order:markers fill stroke"/>
<path d="m22.255-0.54594c0.558 0 1 0.473 1 1.031v0.969c0 0.558-0.442 1-1 1s-1-0.442-1-1v-0.969c0-0.558 0.442-1.031 1-1.031z"/>
</svg>
