<?xml version="1.0" encoding="UTF-8" standalone="no"?>
<!--Part of Monotone: https://github.com/sixsixfive/Monotone, released under cc-by-sa_v4-->
<svg id="svg2" xmlns="http://www.w3.org/2000/svg" viewBox="0 0 16 16" version="1.1"><path id="path4534" style="stroke-width:.046423;fill:#f1f2f2" d="m9.1445 3c-0.7583 0.0017-1.5186 0.1803-2.1777 0.5352-0.8824 0.475-1.514 1.1243-2.1523 2.2168-0.0405 0.0693-0.0666 0.0694-0.2657 0.0039-0.3024-0.0992-0.8118-0.0909-1.1367 0.0175-0.7231 0.2413-1.2956 0.9562-1.3887 1.7364l-0.0254 0.2168-0.3632 0.1875c-0.5177 0.2691-1.0543 0.8521-1.3145 1.4238-0.42789 0.9401-0.42817 1.9441 0.00001 2.8831 0.24505 0.537 0.79379 1.145 1.2754 1.412 0.6933 0.384 0.3238 0.362 6.2539 0.365l5.2754 0.002 0.328-0.125c1.058-0.407 1.814-1.082 2.209-1.965 0.246-0.551 0.338-0.987 0.338-1.635 0-0.6674-0.092-1.0882-0.369-1.7047-0.202-0.4494-0.271-0.5524-0.656-0.9629-0.333-0.3548-0.516-0.5067-0.797-0.6621-0.342-0.1891-0.37-0.2173-0.463-0.4551-0.142-0.3606-0.546-1.1211-0.762-1.4316-0.436-0.6273-1.078-1.2247-1.646-1.5332-0.648-0.3519-1.4041-0.5271-2.1625-0.5254zm-1.1601 3a1.0001 1.0001 0 0 1 0.7226 0.293l2 2a1.0001 1.0001 0 0 1 -0.707 1.707h-1v2c0 0.554-0.446 1-1 1s-1-0.446-1-1v-2h-1a1.0001 1.0001 0 0 1 -0.707 -1.707l2-2a1.0001 1.0001 0 0 1 0.6914 -0.293z"/></svg>
