<!--Part of Monotone: https://github.com/sixsixfive/Monotone, released under cc-by-sa_v4-->
<svg xmlns="http://www.w3.org/2000/svg" viewBox="0 0 16 16">
    <path stroke-width=".304" fill="#f1f2f2" d="M8 1C4.123 1 1 4.123 1 8s3.123 7 7 7c3.876 0 7-3.123 7-7s-3.124-7-7-7zM6.8 4c2.049 0 4.206.56 5.823 1.748.216.14.377.42.377.84-.054.49-.324.84-.701.84-.161 0-.216-.069-.377-.139-1.294-.98-3.235-1.539-5.121-1.539-.97 0-1.94.14-2.803.42-.108 0-.215.068-.377.068-.377.07-.646-.35-.646-.84s.214-.767.484-.838C4.483 4.14 5.561 4 6.801 4zm-.35 3.047c1.827 0 3.6.54 4.997 1.619.215.135.323.405.323.674 0 .404-.215.74-.538.74-.161 0-.267-.067-.375-.135C9.729 9.07 8.17 8.53 6.397 8.53c-.86 0-1.669.136-2.26.338-.161.067-.215.067-.323.067-.322 0-.537-.337-.537-.674 0-.405.161-.606.43-.74.807-.27 1.613-.473 2.742-.473zm.112 2.668c1.49 0 2.874.443 4.045 1.269.16.127.266.255.266.573-.053.253-.265.443-.478.443-.107 0-.214-.064-.321-.127-1.01-.698-2.234-1.08-3.564-1.08a8.34 8.34 0 0 0-2.184.318c-.106 0-.265.063-.318.063-.266 0-.426-.254-.426-.508 0-.317.16-.507.373-.57a8.97 8.97 0 0 1 2.607-.381z"/>
</svg>
