<?xml version="1.0" encoding="UTF-8" standalone="no"?>
<!--Part of Monotone: https://github.com/sixsixfive/Monotone, released under cc-by-sa_v4-->
<svg xmlns="http://www.w3.org/2000/svg" version="1.1" viewBox="0 0 16 16">
 <g fill="#f1f2f2" transform="matrix(1,0,0,-1,0,16)">
  <path d="m1 6v8h10v-5h-1v4h-8v-6h4v-1h-5z" transform="matrix(1,0,0,-1,0,16)"/>
  <path d="m10 6v1h4v6h-8v-4h-1v5h10v-8z"/>
  <g fill="#f1f2f2">
   <path opacity=".5" d="m6 3v4h-4v6h8v-4h4v-6h-8z" transform="matrix(1,0,0,-1,0,16)"/>
   <rect transform="scale(1,-1)" height="1" width="5" y="-10" x="6"/>
   <rect transform="scale(1,-1)" height="4" width="1" y="-10" x="10"/>
  </g>
 </g>
</svg>
