<!--Part of Monotone: https://github.com/sixsixfive/Monotone, released under cc-by-sa_v4-->
<svg xmlns="http://www.w3.org/2000/svg" viewBox="0 0 16 16">
    <path d="M1.875 0A1.87 1.87 0 0 0 0 1.875v4.208l4.8 2.982a2.813 2.813 0 0 1 1.762-.625 2.813 2.813 0 0 1 .308.019l.416-1.249a3.281 3.281 0 0 1-.724-2.05 3.281 3.281 0 0 1 3.282-3.283 3.281 3.281 0 0 1 3.281 3.283 3.281 3.281 0 0 1-2.77 3.237L8.963 9.791a2.813 2.813 0 0 1 .412 1.463 2.813 2.813 0 0 1-2.813 2.814 2.813 2.813 0 0 1-2.812-2.814 2.813 2.813 0 0 1 .084-.674L0 8.077v5.048A1.87 1.87 0 0 0 1.875 15h.937v-.002h10.313V15A1.87 1.87 0 0 0 15 13.125V1.875A1.87 1.87 0 0 0 13.125 0v.004H2.809V0zm7.969 2.814A2.344 2.344 0 0 0 7.5 5.16a2.344 2.344 0 0 0 2.344 2.344 2.344 2.344 0 0 0 2.343-2.344 2.344 2.344 0 0 0-2.343-2.346zm0 .94A1.406 1.406 0 0 1 11.25 5.16a1.406 1.406 0 0 1-1.406 1.406A1.406 1.406 0 0 1 8.437 5.16a1.406 1.406 0 0 1 1.407-1.406zm-3.28 5.622a1.875 1.875 0 0 0-.89.23l1.28.796a.938.938 0 0 1 .057.029.938.938 0 0 1 .048.03.938.938 0 0 1 .01.005.938.938 0 0 1 .012.007.938.938 0 0 1 .047.035.938.938 0 0 1 .059.048.938.938 0 0 1 .053.051.938.938 0 0 1 .015.015.938.938 0 0 1 .024.027.938.938 0 0 1 .01.013.938.938 0 0 1 .046.062.938.938 0 0 1 .04.064.938.938 0 0 1 .03.054.938.938 0 0 1 .005.012.938.938 0 0 1 .004.008.938.938 0 0 1 .023.058.938.938 0 0 1 .01.02.938.938 0 0 1 .005.017.938.938 0 0 1 .015.058.938.938 0 0 1 .005.015.938.938 0 0 1 .01.039.938.938 0 0 1 .002.016.938.938 0 0 1 .011.073.938.938 0 0 0 0 .002.938.938 0 0 1 .005.094.938.938 0 0 1-.005.091.938.938 0 0 1 0 .004.938.938 0 0 1-.002.01.938.938 0 0 1-.009.072.938.938 0 0 1-.002.007.938.938 0 0 1-.017.066.938.938 0 0 1-.002.007.938.938 0 0 1-.02.059.938.938 0 0 1-.007.023.938.938 0 0 1-.006.01.938.938 0 0 1-.02.048.938.938 0 0 1-.01.027.938.938 0 0 1-.015.026.938.938 0 0 1-.035.057.938.938 0 0 0-.002.001.938.938 0 0 1-.033.05.938.938 0 0 1-.031.038.938.938 0 0 1-.006.008.938.938 0 0 1-.042.047.938.938 0 0 1-.022.022.938.938 0 0 1-.047.042.938.938 0 0 1-.008.006.938.938 0 0 1-.038.031.938.938 0 0 1-.049.033.938.938 0 0 0-.002.002.938.938 0 0 1-.057.035.938.938 0 0 1-.026.015.938.938 0 0 1-.027.01.938.938 0 0 1-.047.02.938.938 0 0 1-.01.006.938.938 0 0 1-.022.007.938.938 0 0 1-.06.02.938.938 0 0 1-.037.01.938.938 0 0 1-.044.01.938.938 0 0 1-.071.01.938.938 0 0 1-.015.002.938.938 0 0 1-.09.005.938.938 0 0 1-.084-.005.938.938 0 0 1-.014 0 .938.938 0 0 1-.09-.013.938.938 0 0 1-.066-.017.938.938 0 0 1-.035-.011.938.938 0 0 1-.033-.012.938.938 0 0 1-.064-.024.938.938 0 0 1-.004-.004.938.938 0 0 1-.082-.043.938.938 0 0 1-.075-.05.938.938 0 0 1-.004 0 .938.938 0 0 1-.07-.057l-1.25-.817a1.875 1.875 0 0 0-.006.116 1.875 1.875 0 0 0 1.875 1.875 1.875 1.875 0 0 0 1.875-1.875 1.875 1.875 0 0 0-1.875-1.877z" fill-opacity=".986" paint-order="markers stroke fill" fill="#f1f2f2"/>
</svg>
