<svg version="1.1" viewBox="0 0 16 16" xmlns="http://www.w3.org/2000/svg"><path d="m2 1c-0.554 0-1 0.446-1 1v12c0 0.554 0.446 1 1 1h9v-1h-8.5c-0.277 0-0.5-0.223-0.5-0.5v-11c0-0.277 0.223-0.5 0.5-0.5h11c0.277 0 0.5 0.223 0.5 0.5v7.5h1v-8c0-0.554-0.446-1-1-1h-12z" style="fill:#f1f2f2"/><rect x="4" y="4" width="2" height="8" style="fill:#f1f2f2;paint-order:markers fill stroke"/><path d="m10 4v8h1a1.0001 1.0001 0 0 1 0.29297-0.70703l0.70703-0.70703v-6.5859h-2z" style="fill:#f1f2f2;paint-order:markers fill stroke"/><rect x="6" y="7" width="4" height="2" style="fill:#f1f2f2;paint-order:markers fill stroke"/><path d="m13 11-1 1v1h1v2h-1v1h4v-1h-1v-4z" style="fill:#f1f2f2"/></svg>
