<svg version="1.1" viewBox="0 0 16 16" xmlns="http://www.w3.org/2000/svg"><path d="m12 8-4-4-4 4h8z" style="fill:#f1f2f2"/><path d="m2 1c-0.554 0-1 0.446-1 1v12c0 0.554 0.446 1 1 1h7v-1h-6.5c-0.277 0-0.5-0.223-0.5-0.5v-11c0-0.277 0.223-0.5 0.5-0.5h11c0.277 0 0.5 0.223 0.5 0.5v6.5508c0.36701 0.072875 0.70524 0.22896 1 0.44141v-7.4922c0-0.554-0.446-1-1-1h-12z" style="fill:#f1f2f2"/><path d="m12.5 10c-0.822 0-1.5 0.626-1.5 1.385v1.685h-0.5c-0.277 0-0.5 0.205-0.5 0.461v2.469h6v-2.469c0-0.256-0.223-0.461-0.5-0.461h-0.5v-1.685c0-0.76-0.678-1.385-1.5-1.385zm0 0.923h1c0.286 0 0.5 0.198 0.5 0.462v1.685h-2v-1.685c0-0.264 0.214-0.462 0.5-0.462z" overflow="visible" style="color:#f1f2f2;fill:#f1f2f2"/><path d="m12 8-4 4-4-4h8z" style="fill:#f1f2f2"/></svg>
