<svg version="1.1" viewBox="0 0 16 16" xmlns="http://www.w3.org/2000/svg"><path d="m2 1c-0.554 0-1 0.446-1 1v12c0 0.554 0.446 1 1 1h7v-1h-6.5c-0.277 0-0.5-0.223-0.5-0.5v-11c0-0.277 0.223-0.5 0.5-0.5h11c0.277 0 0.5 0.223 0.5 0.5v6.5h1v-7c0-0.554-0.446-1-1-1h-12z" style="fill:#f1f2f2"/><rect x="4" y="4" width="3" height="3" style="fill:#f1f2f2;paint-order:markers fill stroke"/><rect x="9" y="4" width="3" height="3" style="fill:#f1f2f2;paint-order:markers fill stroke"/><rect x="4" y="9" width="3" height="3" style="fill:#f1f2f2;paint-order:markers fill stroke"/><path d="m9 9v3h1v-0.61328c0-1.1804 0.89043-2.1153 2-2.3359v-0.050781h-3z" style="fill:#f1f2f2;paint-order:markers fill stroke"/><g transform="translate(4.8558 2.8663)"><path d="m7.6442 7.1337c-0.822 0-1.5 0.626-1.5 1.385v1.685h-0.5c-0.277 0-0.5 0.205-0.5 0.461v2.469h6v-2.469c0-0.256-0.223-0.461-0.5-0.461h-0.5v-1.685c0-0.76-0.678-1.385-1.5-1.385zm0 0.923h1c0.286 0 0.5 0.198 0.5 0.462v1.685h-2v-1.685c0-0.264 0.214-0.462 0.5-0.462z" overflow="visible" style="color:#f1f2f2;fill:#f1f2f2"/></g></svg>
