<?xml version="1.0" encoding="UTF-8"?>
<!--Part of Monotone: https://github.com/sixsixfive/Monotone, released under cc-by-sa_v4-->
<svg version="1.1" viewBox="0 0 16 16" xmlns="http://www.w3.org/2000/svg">
<path d="m1.332 1c-0.1845 0-0.33203 0.14753-0.33203 0.33203v13.336c0 0.184 0.14753 0.33203 0.33203 0.33203h7.668v-0.88281a1.0079 1.0079 0 0 1-0.0078125-0.11719h-6.6602c-0.1845 0-0.33203-0.14803-0.33203-0.33203v-9.3359c0-0.1845 0.14753-0.33203 0.33203-0.33203h11.336c0.184 0 0.33203 0.14753 0.33203 0.33203v4.668h1v-7.668c0-0.1845-0.14803-0.33203-0.33203-0.33203h-13.336z" fill="#f1f2f2" opacity=".5"/>
<path d="m12 10.007v1.996h-2v1.997h2v1.997h2v-1.997h2v-1.997h-2v-1.996z" fill="#f1f2f2"/>
</svg>
