<?xml version="1.0" encoding="UTF-8" standalone="no"?>
<!--Part of Monotone: https://github.com/sixsixfive/Monotone, released under cc-by-sa_v4-->
<svg id="svg8" xmlns="http://www.w3.org/2000/svg" version="1.1" viewBox="0 0 16 16"><path id="path2" opacity=".5" style="opacity:1;text-decoration-line:none;text-transform:none;text-indent:0" font-family="Sans" d="m5 7c-0.31 0-0.615 0.09-0.812 0.281l-3.594 3.719 3.656 3.719c0.198 0.19 0.44 0.281 0.75 0.281h1v-1c0-0.257-0.13-0.529-0.312-0.719l-1.282-1.281h5.594v-2h-5.625l1.219-1.281c0.183-0.19 0.406-0.462 0.406-0.719v-1z" overflow="visible" font-weight="400" fill="#f1f2f2"/><path id="path6" opacity=".5" style="opacity:1;text-decoration-line:none;text-transform:none;text-indent:0" font-family="Sans" d="m11 9c0.31 0 0.615-0.09 0.813-0.281l3.593-3.719-3.656-3.719c-0.198-0.19-0.44-0.281-0.75-0.281h-1v1c0 0.257 0.13 0.529 0.313 0.719l1.28 1.281h-4.593c-0.528-0.007-1 0.472-1 1s0.472 1.007 1 1h4.625l-1.219 1.281c-0.182 0.19-0.406 0.462-0.406 0.719v1z" overflow="visible" font-weight="400" fill="#f1f2f2"/></svg>
