<?xml version="1.0" encoding="UTF-8" standalone="no"?>
<!--Part of Monotone: https://github.com/sixsixfive/Monotone, released under cc-by-sa_v4-->
<svg xmlns="http://www.w3.org/2000/svg" version="1.1" viewBox="0 0 16 16">
 <path opacity=".5" fill="#f1f2f2" d="m8 2a6 6 0 0 0 -5.9219 5.0625 1.5 1.5 0 0 0 -1.0781 1.4375 1.5 1.5 0 0 0 1.3477 1.4922 6 6 0 0 0 5.6523 4.0078 6 6 0 0 0 0.2578 -0.014 4.5 4.5 0 0 1 -0.2246 -0.988c-0.0112 0-0.022 0.004-0.0332 0.004-1.3093 0-2.6113-0.539-3.5371-1.465-0.5039-0.504-0.8807-1.124-1.1309-1.7909a1.5 1.5 0 0 0 0.6407 -0.9551l3.3613-0.3476a1.5 1.5 0 0 0 1.166 0.5566 1.5 1.5 0 0 0 0.3555 -0.0449l0.4179 0.416a4.5 4.5 0 0 1 1.2226 -0.8984l-0.5565-0.5547a1.5 1.5 0 0 0 0.0605 -0.418 1.5 1.5 0 0 0 -0.1211 -0.584l1.3651-1.9394a1.5 1.5 0 0 0 0.256 0.0234 1.5 1.5 0 0 0 0.424 -0.0625c0.676 0.8728 1.078 1.9577 1.078 3.0625 0 0.0104-0.002 0.0208-0.002 0.0312a4.5 4.5 0 0 1 0.986 0.2266 6 6 0 0 0 0.014 -0.2578 6 6 0 0 0 -1.256 -3.6621 1.5 1.5 0 0 0 0.256 -0.8379 1.5 1.5 0 0 0 -1.5 -1.5 1.5 1.5 0 0 0 -1.117 0.502 6 6 0 0 0 -2.383 -0.502zm0 0.998c0.6894 0 1.3725 0.157 2.004 0.4336a1.5 1.5 0 0 0 -0.004 0.0684 1.5 1.5 0 0 0 0.09 0.5098l-1.4084 2.0019a1.5 1.5 0 0 0 -0.1816 -0.0117 1.5 1.5 0 0 0 -1.3965 0.959l-3.6562 0.3789a1.5 1.5 0 0 0 -0.3594 -0.2168c0.1823-0.9971 0.6579-1.9411 1.375-2.6582 0.9258-0.9258 2.2278-1.4649 3.5371-1.4649z"/>
 <path style="color:#f1f2f2" d="m12.5 9a3.5 3.5 0 1 0 0 7 3.5 3.5 0 0 0 0 -7zm-2.5 2.969h5v1.031h-5z" class="error" overflow="visible" fill="#f1f2f2"/>
</svg>
