<?xml version="1.0" encoding="UTF-8" standalone="no"?>
<!--Part of Monotone: https://github.com/sixsixfive/Monotone, released under cc-by-sa_v4-->
<svg id="svg61" xmlns="http://www.w3.org/2000/svg" viewBox="0 0 16 16" version="1.1"><path id="path899" style="stroke-width:1.5;stroke-linecap:round;fill:#f1f2f2" d="m7.9902 1c-0.0814 0.0046-0.2134 0.0402-0.459 0.1211l-0.0078 0.0039c-0.0859 0.0264-0.0895 0.0264-0.0195 0.0039h-0.0039c0.0888-0.0271 0.0857-0.0255-0.0098 0.0059-0.0079 0.0024-0.0095 0.0018-0.0175 0.0039-0.0478 0.0159-0.0679 0.0187-0.0469 0.0117-0.0547 0.018-0.1095 0.0392-0.1699 0.0605-0.07 0.0244-0.1416 0.0487-0.211 0.0743-0.0646 0.0243-0.1296 0.054-0.2011 0.082-0.0707 0.0277-0.1408 0.0522-0.2032 0.0781-0.0483 0.0201-0.0979 0.044-0.1543 0.0684h-0.0058c-0.0188 0.0079-0.0521 0.0231-0.1055 0.0468-0.0383 0.0171-0.0772 0.0353-0.1152 0.0528-0.0535 0.0246-0.1061 0.0483-0.1602 0.0742 0.0172-0.0082 0.0076-0.0029-0.0312 0.0156-0.3631 0.1741-0.714 0.3709-1.0508 0.5879-0.0547 0.0356-0.1088 0.072-0.166 0.1113-0.036 0.0241-0.0777 0.0598-0.1289 0.0957-0.0447 0.0314-0.0614 0.0397-0.0411 0.0254v-0.0039c-0.054 0.0384-0.107 0.0778-0.1601 0.1172-0.3799 0.2827-1.0939 0.9546-1.3945 1.3125-0.9368 1.1138-1.5961 2.4886-1.92 4.002-0.45198 2.2378-0.207 5.0488 1.793 7.0488 0.0423-0.005 0.1413-0.031 0.2852-0.096 0.4866-0.447 0.9888-0.912 1.832-0.912h0.1055c0.0197 0 0.0545-0.001 0.1054 0 0.7538 0.028 1.8165 0.31 2.5117 0.873 0.0882 0.075 0.1312 0.106 0.1602 0.125 0.029-0.019 0.072-0.05 0.1602-0.125 0.6952-0.563 1.7579-0.845 2.5118-0.873 0.051-0.001 0.086 0 0.105 0h0.106c0.843 0 1.345 0.465 1.832 0.912 0.144 0.065 0.243 0.091 0.285 0.096 2-2 2.245-4.811 1.793-7.0488-0.324-1.5134-0.983-2.8882-1.92-4.002-0.301-0.3579-1.015-1.0298-1.394-1.3125-0.054-0.0394-0.107-0.0788-0.161-0.1172v0.0039c0.021 0.0143 0.004 0.0061-0.041-0.0254-0.051-0.0359-0.093-0.0716-0.129-0.0957-0.057-0.0393-0.111-0.0757-0.166-0.1113-0.336-0.217-0.687-0.4138-1.0504-0.5879-0.0388-0.0185-0.0484-0.0238-0.0312-0.0156-0.0541-0.0259-0.1067-0.0496-0.1602-0.0742-0.038-0.0175-0.0769-0.0357-0.1152-0.0528-0.0534-0.0237-0.0867-0.0389-0.1055-0.0468h-0.0058c-0.0564-0.0244-0.106-0.0483-0.1543-0.0684-0.0624-0.0259-0.1325-0.0504-0.2032-0.0781-0.0715-0.028-0.1365-0.0577-0.2011-0.082-0.0694-0.0256-0.141-0.0499-0.211-0.0743-0.0604-0.0213-0.1152-0.0425-0.1699-0.0605 0.021 0.007 0.0009 0.0042-0.0469-0.0117-0.0079-0.0021-0.0096-0.0015-0.0175-0.0039-0.0955-0.0314-0.0986-0.033-0.0098-0.0059h-0.0039c0.07 0.0225 0.0664 0.0225-0.0195-0.0039l-0.0078-0.0039c-0.2457-0.0809-0.3776-0.1165-0.459-0.1211h-0.0098zm1.5293 0.5137 0.1426 0.0312c0.05 0 0.0487-0.0076 0.0274-0.0058-0.021 0.0018-0.0767 0.0126-0.17-0.0254zm-3.039 0c-0.0933 0.038-0.149 0.0272-0.17 0.0254-0.0213-0.0018-0.0226 0.0058 0.0274 0.0058zm-1.4805 3.4863h6l1 0.93306v1.0669h-6v1h6v4l-0.98399 1h-6.0334l-0.9826-1v-1h6v-1h-6v-4z"/></svg>
