<?xml version="1.0" encoding="UTF-8"?>
<!--Part of Monotone: https://github.com/sixsixfive/Monotone, released under cc-by-sa_v4-->
<svg version="1.1" viewBox="0 0 16 16" xmlns="http://www.w3.org/2000/svg">
<path d="m1.8125 1c-0.1139 0.0226-0.22287 0.0649-0.32227 0.125-0.0043 0.0026-0.0094719 0.0031594-0.013672 0.0058594-0.0958 0.0588-0.18095 0.1335-0.25195 0.2207-0.0708 0.0877-0.12626 0.18677-0.16406 0.29297-0.0014 0.0041-0.0025063 0.0077188-0.0039063 0.011719-0.0388 0.1104-0.058041 0.22675-0.056641 0.34375v13c-1.6e-4 0.133 0.026425 0.26567 0.078125 0.38867 0.05 0.118 0.12229 0.22541 0.21289 0.31641 0.0013 1e-3 0.0026063 0.002906 0.0039063 0.003906 0.089 0.088 0.19369 0.15803 0.30859 0.20703 0.0055 2e-3 0.010225 0.005812 0.015625 0.007812 0.1208 0.05 0.25016 0.076172 0.38086 0.076172h11c0.133 0 0.26567-0.026125 0.38867-0.078125 0.118-0.05 0.22541-0.12189 0.31641-0.21289l0.003906-0.003906c0.088-0.089 0.15803-0.19359 0.20703-0.30859 2e-3 -5e-3 0.005812-0.010625 0.007812-0.015625 0.05-0.121 0.076172-0.24986 0.076172-0.38086v-9.4375c2e-3 -0.1309-0.021359-0.26091-0.068359-0.38281v-0.0039063c-1e-3 -0.0013999-0.001954-0.0026062-0.001953-0.0039062-0.048001-0.1222-0.11994-0.23372-0.21094-0.32812l-3.5625-3.5645c-0.095-0.0916-0.20843-0.16334-0.33203-0.21094-0.1231-0.0482-0.25452-0.071359-0.38672-0.068359h-7.4375c-0.0312-0.00147-0.06235-0.00147-0.09375 0-0.0312-0.00147-0.06255-0.00147-0.09375 0zm0.78711 1h4.8008c0.3324 0 0.59961 0.26721 0.59961 0.59961v2.9512h0.0097656c0.0245 0.2343 0.20515 0.41495 0.43945 0.43945v0.0097656h3.9512c0.333 0 0.59961 0.26721 0.59961 0.59961v7.8008c0 0.333-0.26661 0.59961-0.59961 0.59961h-9.8008c-0.3324 0-0.59961-0.26661-0.59961-0.59961v-6.8008c0-0.0353 0.013731-0.066009 0.019531-0.099609-0.0057999-0.0336-0.019531-0.064309-0.019531-0.099609v-4.8008c0-0.3324 0.26721-0.59961 0.59961-0.59961zm6.4004 0 3 3h-2c-1 1e-4 -1 0-1-1v-2zm-5.5 1c-0.277 0-0.5 0.223-0.5 0.5s0.223 0.5 0.5 0.5 0.5-0.223 0.5-0.5-0.223-0.5-0.5-0.5zm2 0c-0.277 0-0.5 0.223-0.5 0.5s0.223 0.5 0.5 0.5 0.5-0.223 0.5-0.5-0.223-0.5-0.5-0.5zm-2 2c-0.277 0-0.5 0.223-0.5 0.5s0.223 0.5 0.5 0.5 0.5-0.223 0.5-0.5-0.223-0.5-0.5-0.5zm2 0c-0.277 0-0.5 0.223-0.5 0.5s0.223 0.5 0.5 0.5 0.5-0.223 0.5-0.5-0.223-0.5-0.5-0.5zm-2 2c-0.277 0-0.5 0.223-0.5 0.5s0.223 0.5 0.5 0.5 0.5-0.223 0.5-0.5-0.223-0.5-0.5-0.5zm2 0c-0.277 0-0.5 0.223-0.5 0.5s0.223 0.5 0.5 0.5 0.5-0.223 0.5-0.5-0.223-0.5-0.5-0.5zm2 0c-0.277 0-0.5 0.223-0.5 0.5s0.223 0.5 0.5 0.5 0.5-0.223 0.5-0.5-0.223-0.5-0.5-0.5zm2 0c-0.277 0-0.5 0.223-0.5 0.5s0.223 0.5 0.5 0.5 0.5-0.223 0.5-0.5-0.223-0.5-0.5-0.5zm2 0c-0.277 0-0.5 0.223-0.5 0.5s0.223 0.5 0.5 0.5 0.5-0.223 0.5-0.5-0.223-0.5-0.5-0.5zm-8 2c-0.277 0-0.5 0.223-0.5 0.5s0.223 0.5 0.5 0.5 0.5-0.223 0.5-0.5-0.223-0.5-0.5-0.5zm2 0c-0.277 0-0.5 0.223-0.5 0.5s0.223 0.5 0.5 0.5 0.5-0.223 0.5-0.5-0.223-0.5-0.5-0.5zm2 0c-0.06925 0-0.13545 0.013828-0.19531 0.039062-0.17958 0.075703-0.30469 0.25319-0.30469 0.46094 0 0.277 0.223 0.5 0.5 0.5s0.5-0.223 0.5-0.5-0.223-0.5-0.5-0.5zm2 0c-0.06925 0-0.13545 0.013828-0.19531 0.039062-0.17958 0.075703-0.30469 0.25319-0.30469 0.46094 0 0.277 0.223 0.5 0.5 0.5s0.5-0.223 0.5-0.5-0.223-0.5-0.5-0.5zm2 0c-0.06925 0-0.13545 0.013828-0.19531 0.039062-0.17958 0.075703-0.30469 0.25319-0.30469 0.46094 0 0.277 0.223 0.5 0.5 0.5s0.5-0.223 0.5-0.5-0.223-0.5-0.5-0.5zm-8 2c-0.277 0-0.5 0.223-0.5 0.5s0.223 0.5 0.5 0.5 0.5-0.223 0.5-0.5-0.223-0.5-0.5-0.5zm2 0c-0.277 0-0.5 0.223-0.5 0.5s0.223 0.5 0.5 0.5 0.5-0.223 0.5-0.5-0.223-0.5-0.5-0.5zm2 0c-0.06925 0-0.13545 0.013829-0.19531 0.039062-0.17958 0.075704-0.30469 0.25319-0.30469 0.46094 0 0.277 0.223 0.5 0.5 0.5s0.5-0.223 0.5-0.5-0.223-0.5-0.5-0.5zm2 0c-0.06925 0-0.13545 0.013829-0.19531 0.039062-0.17958 0.075704-0.30469 0.25319-0.30469 0.46094 0 0.277 0.223 0.5 0.5 0.5s0.5-0.223 0.5-0.5-0.223-0.5-0.5-0.5zm2 0c-0.06925 0-0.13545 0.013829-0.19531 0.039062-0.17958 0.075704-0.30469 0.25319-0.30469 0.46094 0 0.277 0.223 0.5 0.5 0.5s0.5-0.223 0.5-0.5-0.223-0.5-0.5-0.5zm-8 2c-0.277 0-0.5 0.223-0.5 0.5s0.223 0.5 0.5 0.5 0.5-0.223 0.5-0.5-0.223-0.5-0.5-0.5zm2 0c-0.277 0-0.5 0.223-0.5 0.5s0.223 0.5 0.5 0.5 0.5-0.223 0.5-0.5-0.223-0.5-0.5-0.5zm2 0c-0.06925 0-0.13545 0.013829-0.19531 0.039062-0.17958 0.075704-0.30469 0.25319-0.30469 0.46094 0 0.277 0.223 0.5 0.5 0.5s0.5-0.223 0.5-0.5-0.223-0.5-0.5-0.5zm2 0c-0.06925 0-0.13545 0.013829-0.19531 0.039062-0.17958 0.075704-0.30469 0.25319-0.30469 0.46094 0 0.277 0.223 0.5 0.5 0.5s0.5-0.223 0.5-0.5-0.223-0.5-0.5-0.5zm2 0c-0.277 0-0.5 0.223-0.5 0.5s0.223 0.5 0.5 0.5 0.5-0.223 0.5-0.5-0.223-0.5-0.5-0.5z" style="fill:#f1f2f2;opacity:.5;text-decoration-line:none;text-indent:0;text-transform:none"/>
</svg>
