<?xml version="1.0" encoding="UTF-8" standalone="no"?>
<!--Part of Monotone: https://github.com/sixsixfive/Monotone, released under cc-by-sa_v4-->
<svg xmlns="http://www.w3.org/2000/svg" viewBox="0 0 16 16" version="1.1">
 <path d="m7.9883 0.99609c-3.842 0-6.9922 3.1492-6.9922 6.9922-0.00001 3.8417 3.1492 7.0157 6.9922 7.0157 3.8417 0 7.0157-3.174 7.0157-7.0157 0-3.842-3.174-6.9922-7.0157-6.9922zm0.0117 1.0039c3.314 0 6 2.6863 6 6 0 3.314-2.686 6-6 6-3.3137 0-6-2.686-6-6 0-3.3137 2.6863-6 6-6zm0 3a3 3 0 0 0 -3 3 3 3 0 0 0 3 3 3 3 0 0 0 3 -3 3 3 0 0 0 -3 -3zm0 2a1 1 0 0 1 1 1 1 1 0 0 1 -1 1 1 1 0 0 1 -1 -1 1 1 0 0 1 1 -1z" fill="#f1f2f2"/>
 <path d="m8 3v0.998c1.0475 0 2.089 0.4312 2.83 1.1719s1.172 1.7826 1.172 2.8301h0.998a5 5 0 0 0 -5 -5zm-5 5a5 5 0 0 0 5 5v-0.998c-1.0475 0-2.0894-0.431-2.8301-1.172s-1.1719-1.7825-1.1719-2.83h-0.998z" fill="#f1f2f2"/>
</svg>
