<?xml version="1.0" encoding="UTF-8"?>
<svg version="1.1" viewBox="0 0 16 16" xmlns="http://www.w3.org/2000/svg">
<g id="show-path-outline" transform="translate(-799 -558.36)">
<g id="path-clip-edit" transform="translate(-30.024 .05348)">
<path transform="translate(829.02 558.31)" d="m5.998 2.002-3.002 0.0019531v2h3c0.428 0 1 0.613 1 1v1h-2c-0.92 0-1.735 0.3818-2.25 0.9668-0.49267 0.56089-0.75989 1.2848-0.75 2.0312 0.0059999 0.72 0.27025 1.4542 0.78125 2.0332 0.51299 0.578 1.3087 0.9668 2.2188 0.9668h4.002v-7c0-1.6569-1.3431-3-3-3zm-1.002 6v0.0019531h2v2h-2c-0.39801 0-0.56675-0.1112-0.71875-0.2832-0.17378-0.20001-0.274-0.45389-0.28125-0.71875-0.0040001-0.2613 0.0847-0.51436 0.25-0.7168 0.144-0.166 0.327-0.2832 0.75-0.2832zm-3.5 4.002a1.5 1.5 0 0 0-1.5 1.5 1.5 1.5 0 0 0 1.5 1.5 1.5 1.5 0 0 0 1.416-1.0117h7.168a1.5 1.5 0 0 0 1.416 1.0117 1.5 1.5 0 0 0 1.5-1.5 1.5 1.5 0 0 0-1.5-1.5 1.5 1.5 0 0 0-1.416 1.0117h-7.166a1.5 1.5 0 0 0-1.418-1.0117z" style="fill:#f1f2f2;opacity:.5;stroke-width:1.5"/>
<path d="m841.02 559.31v1.996h-2v1.997h2v1.997h2v-1.997h2v-1.997h-2v-1.996z" style="fill:#f1f2f2"/>
</g>
</g>
</svg>
