<?xml version="1.0" encoding="UTF-8"?>
<!--Part of Monotone: https://github.com/sixsixfive/Monotone, released under cc-by-sa_v4-->
<svg version="1.1" viewBox="0 0 16 16" xmlns="http://www.w3.org/2000/svg" xmlns:osb="http://www.openswatchbook.org/uri/2009/osb">
<g id="text_letter_spacing" transform="matrix(.99946 0 0 1 -348.81 -836.36)" fill="#f1f2f2">
<path d="m351.5 836.37-2.5031 6.9896h1.5019c0.744-1.997-2e-3 1e-3 0.7423-1.9955l2.5586 0.018 0.7041 1.9775h1.5018l-2.5031-6.9896zm1.0013 1.4978 1.0123 2.4963h-2.0025z"/>
<path d="m360.51 843.35-2.5014 6.9896h1.5009c0.74347-1.997-2e-3 1e-3 0.74177-1.9955l2.5568 0.018 0.7036 1.9775h1.5008l-2.5013-6.9896zm1.0006 1.4978 1.0116 2.4963h-2.0011z" stroke-width=".99965"/>
<rect x="349" y="844.36" width="8.0044" height="1" stroke-width="1.0693"/>
<rect x="357" y="851.34" width="8.201" height="1" stroke-width="1.0125"/>
<rect x="356" y="844.36" width="1" height="8"/>
</g>
</svg>
