<?xml version="1.0" encoding="UTF-8" standalone="no"?>
<!--Part of Monotone: https://github.com/sixsixfive/Monotone, released under cc-by-sa_v4-->
<svg xmlns="http://www.w3.org/2000/svg" viewBox="0 0 16 16" version="1.1">
 <g fill="#f1f2f2">
  <path style="text-decoration-line:none;text-transform:none;text-indent:0" d="m1.8125 1c-0.1139 0.0226-0.2229 0.0649-0.3223 0.125-0.0043 0.0026-0.0094 0.0032-0.0137 0.0059-0.0958 0.0588-0.1809 0.1335-0.2519 0.2207-0.0708 0.0877-0.1263 0.1867-0.1641 0.2929-0.00144 0.00402-0.00251 0.00768-0.00391 0.011719-0.0388 0.1104-0.058 0.2268-0.0566 0.3438v13c-0.0001579 0.13347 0.026406 0.26563 0.078125 0.38867 0.050009 0.11815 0.12229 0.22557 0.21289 0.31641 0.00127 0.0013 0.00263 0.0026 0.00391 0.0039 0.089026 0.08769 0.1937 0.15791 0.30859 0.20703 0.00544 0.0024 0.010137 0.0055 0.015625 0.0078 0.1208 0.05 0.2502 0.076 0.3809 0.076h11c0.13347 0.000158 0.26563-0.02641 0.38867-0.07813 0.11815-0.05001 0.22557-0.12229 0.31641-0.21289l0.0039-0.0039c0.08769-0.08903 0.15791-0.1937 0.20703-0.30859 0.0024-0.0054 0.0055-0.01014 0.0078-0.01563 0.05-0.121 0.076-0.25 0.076-0.381v-9.4375c0.0025-0.13085-0.02074-0.26091-0.06836-0.38281 0.000003-0.0013 0.000003-0.0026 0-0.00391-0.000527-0.00135-0.0014-0.00256-0.002-0.00391-0.048-0.1222-0.12-0.2337-0.211-0.3281l-3.563-3.5645c-0.095-0.0916-0.2082-0.1633-0.3318-0.2109-0.1231-0.0482-0.2545-0.0714-0.3867-0.0684h-7.4375c-0.0312-0.00147-0.0624-0.00147-0.0938 0-0.0312-0.00147-0.0625-0.00147-0.0937 0zm0.7871 1h4.8008c0.3324 0 0.5996 0.2672 0.5996 0.5996v2.9514h0.0098c0.0245 0.2343 0.2051 0.4149 0.4394 0.4394v0.00977h3.9508c0.333 0 0.6 0.2672 0.6 0.5996v7.8002c0 0.333-0.267 0.6-0.6 0.6h-9.8004c-0.3324 0-0.5996-0.267-0.5996-0.6v-6.8004c0-0.0353 0.0137-0.066 0.0195-0.0996-0.0058-0.0336-0.0195-0.0643-0.0195-0.0996v-4.8008c0-0.3324 0.2672-0.5996 0.5996-0.5996zm6.4004 0l3 3-2 0.0001953c-1 0.0000977-1 0-1-1z"/>
  <path d="m6.5 8c-0.277 0-0.5 0.223-0.5 0.5v4c0 0.277 0.223 0.5 0.5 0.5h2.5v-1h-1.6992c-0.1662 0-0.3008-0.135-0.3008-0.301v-2.3982c0-0.1662 0.1346-0.3008 0.3008-0.3008h1.6992v-1z" fill-opacity=".99827"/>
  <rect fill-opacity=".99827" ry="0.3" height="5" width="1" y="8" x="6"/>
 </g>
</svg>
