<?xml version="1.0" encoding="UTF-8" standalone="no"?>
<!--Part of Monotone: https://github.com/sixsixfive/Monotone, released under cc-by-sa_v4-->
<svg xmlns="http://www.w3.org/2000/svg" xmlns:osb="http://www.openswatchbook.org/uri/2009/osb" version="1.1" xmlns:xlink="http://www.w3.org/1999/xlink" viewBox="0 0 16 16">
 <path fill="#f1f2f2" d="m9.0156 6c-0.5518 0-0.9961 0.2546-0.9961 0.5625v0.875c0 0.3079 0.4443 0.5625 0.9961 0.5625h-1.9922c-0.5494 0-1.0981 0.5305-0.9649 1.1562l0.96497 4.6875c0.1331 0.625 0.4466 1.156 0.996 1.156h5.9766c0.54945 0 0.86299-0.53053 0.99609-1.1562l0.99609-4.6875c0.133-0.626-0.446-1.1565-0.996-1.1565h-1.992c0.55184 0 0.99609-0.25455 0.99609-0.5625v-0.875c0-0.3079-0.444-0.5625-0.996-0.5625z"/>
 <path d="m6 0c-3 0.59369-6 3-5.9922 7-0.0078 4 1.463 5 1.463 5 0.0934 2 0.5292 3 0.5292 3l0.9961-1s-0.9961-2.5 0.9961-3c-0.4981-5-1.0842-8 2.0078-11z" fill="#f1f2f2"/>
</svg>
