<?xml version="1.0" encoding="UTF-8" standalone="no"?>
<!--Part of Monotone: https://github.com/sixsixfive/Monotone, released under cc-by-sa_v4-->
<svg xmlns="http://www.w3.org/2000/svg" xmlns:osb="http://www.openswatchbook.org/uri/2009/osb" version="1.1" xmlns:xlink="http://www.w3.org/1999/xlink" viewBox="0 0 16 16">
 <g fill="#f1f2f2">
  <path d="m3.9392 3c-0.9086 0.3833-1.2052 1.2172-0.6806 1.8811l3.7878 5.0378-1.4964 1.6381 1.2118 1.443 1.3796-1.719 1.3528 1.719 1.2008-1.382-1.4587-1.6991 3.7877-5.0378c0.525-0.6639 0.228-1.4978-0.681-1.8811l-4.2016 5.5351z"/>
  <path d="m12 10c-1.6568 0-3 1.3431-3 3s1.3432 3 3 3 3-1.3431 3-3-1.3432-3-3-3zm0 2c0.55228 0 1 0.44772 1 1s-0.44772 1-1 1-1-0.44772-1-1 0.44772-1 1-1z"/>
  <path d="m4 10c-1.6568 0-3 1.3432-3 3s1.3432 3 3 3 3-1.3432 3-3-1.3432-3-3-3zm0 2c0.55228 0 1 0.44771 1 1 0 0.55228-0.44772 1-1 1s-1-0.44772-1-1c0-0.55229 0.44772-1 1-1z"/>
  <rect height="1" width="1" y="5" x="7"/>
  <rect height="1" width="1" y="3" x="7"/>
  <rect height="1" width="1" y="1" x="7"/>
  <rect height="1" width="1" y="1" x="9"/>
  <rect height="1" width="1" y="1" x="11"/>
  <rect height="1" width="1" y="1" x="13"/>
  <rect height="1" width="1" y="1" x="15"/>
 </g>
</svg>
