<?xml version="1.0" encoding="UTF-8"?>
<!--Part of Monotone: https://github.com/sixsixfive/Monotone, released under cc-by-sa_v4-->
<svg version="1.1" viewBox="0 0 16 16" xmlns="http://www.w3.org/2000/svg">
<g id="tools" transform="translate(66.423,-347.23)">
<g transform="matrix(.13819 0 0 -.1473 -140.35 376.89)" fill="#bebebe">
<path d="m591.03 194.97c-15.24-1e-5 -27.835-5.5145-38.1-14.612-6.0536-4.8879-5.9161-12.729 0-14.612-2.5548-2.3634-3.2288-5.9359-1.479-9.4527l1.479-2.1689c1.9433-2.0041 5.0006-2.7616 5.0006-2.7616-2.5548-2.8478-3.2674-8.2076-0.3066-10.668l1.1906-1.1415c2.9607-2.46 7.4464-2.1628 10.001 0.68492 0 0-0.50323-0.5819 0 0l-24.458-27.231c-8.3907-7.503 5.6272-19.245 14.049-10.274l34.052 36.072 6.1912 6.3925c11.91 15.516 27.427-7.5723 10.33-13.433 0 0-7.0792-0.51711-14.526-0.22831-5.8869 0.22831-10.428-15.126 9.2868-13.111 29.718-0.40817 33.008 25.402 33.008 39.786-4e-5 29.451-22.86 36.757-45.72 36.757z" fill="#f1f2f2"/>
</g>
</g>
</svg>
