<?xml version="1.0" encoding="UTF-8" standalone="no"?>
<!--Part of Monotone: https://github.com/sixsixfive/Monotone, released under cc-by-sa_v4-->
<svg xmlns="http://www.w3.org/2000/svg" xmlns:osb="http://www.openswatchbook.org/uri/2009/osb" version="1.1" xmlns:xlink="http://www.w3.org/1999/xlink" viewBox="0 0 16 16">
 <g fill="#f1f2f2">
  <rect transform="scale(-1,1)" height="2" width="2" y="6" x="-5"/>
  <rect opacity=".3" height="3" width="3" y="3" x="3"/>
  <path d="m1 1v14h14v-14zm1 1h12v12h-12z"/>
  <rect transform="matrix(0,-1,-1,0,0,0)" height="3" width="3" y="-13" x="-6"/>
  <rect transform="rotate(90)" height="2" width="2" y="-8" x="3"/>
  <rect height="3" width="2" y="8" x="11"/>
  <rect transform="rotate(90)" height="2" width="2" y="-10" x="6"/>
  <rect opacity=".3" transform="matrix(0,-1,-1,0,0,0)" height="2" width="2" y="-13" x="-13"/>
  <rect opacity=".3" transform="matrix(.0000033047 -1 -1 0 0 0)" height="3" width="3" y="-9" x="-11"/>
  <rect opacity=".3" transform="matrix(0,-1,-1,0,0,0)" height="3" width="2" y="-8" x="-8"/>
  <rect transform="rotate(90)" height="2" width="2" y="-11" x="11"/>
  <rect height="3" width="3" y="10" x="3"/>
 </g>
</svg>
