<?xml version="1.0" encoding="UTF-8" standalone="no"?>
<!--Part of Monotone: https://github.com/sixsixfive/Monotone, released under cc-by-sa_v4-->
<svg xmlns="http://www.w3.org/2000/svg" xmlns:osb="http://www.openswatchbook.org/uri/2009/osb" version="1.1" xmlns:xlink="http://www.w3.org/1999/xlink" viewBox="0 0 16 16">
 <g id="tools" transform="translate(111.32 -346.08)" fill="#f1f2f2">
  <path d="m-99.321 346.95-2.4941 4.3633a5 5 0 0 1 1.9961 1.1973l2.498-4.4356zm-4 4.125c-0.0329 0-0.0649 0.003-0.0977 0.004a5 5 0 0 1 0.17579 0.004c-0.0267-0.00051-0.0513-0.008-0.0781-0.008zm-0.67383 0.0508c-0.11621 0.0157-0.23217 0.0312-0.3457 0.0547a5 5 0 0 1 0.3457 -0.0547zm-1.2246 0.32813c-0.0207 0.008-0.042 0.0147-0.0625 0.0234a5 5 0 0 1 0.0625 -0.0234zm-0.84179 0.44531c-0.025 0.0164-0.0515 0.03-0.0762 0.0469a5 5 0 0 1 0.0762 -0.0469zm-0.75782 0.60937c-0.0175 0.0172-0.0355 0.0334-0.0527 0.0508a5 5 0 0 1 0.0527 -0.0508zm-0.59765 0.70899c-0.0256 0.0366-0.0516 0.0721-0.0762 0.10937a5 5 0 0 1 0.0762 -0.10937zm-0.46875 0.83398c-0.0209 0.0471-0.043 0.0928-0.0625 0.14063a5 5 0 0 1 0.0625 -0.14063zm-0.31055 0.9375c-0.0144 0.0651-0.0291 0.12931-0.041 0.19531a5 5 0 0 1 0.041 -0.19531zm-0.0723 0.39063c-0.0129 0.0925-0.0235 0.18521-0.0312 0.27929a5 5 0 0 1 0.0312 -0.27929zm9.9375 0.51953-0.99219 0.0352-3.998 0.14062 3.998-0.13867 0.99219-0.0352c-0.000022-0.00065 0.000023-0.001 0-0.002zm-9.9824 0.0176c-0.002 0.053-0.008 0.10484-0.008 0.1582 0 0.0329 0.003 0.0649 0.004 0.0977a5 5 0 0 1 0.004 -0.25586zm9.9883 0.0664a5 5 0 0 1 -0.0039 0.24805c0.0016-0.0523 0.0078-0.10356 0.0078-0.15626 0-0.0309-0.0033-0.061-0.0039-0.0918zm-0.01758 0.51172a5 5 0 0 1 -0.03125 0.26953c0.01235-0.0894 0.02368-0.1787 0.03125-0.26953zm-9.9355 0.20507c0.0166 0.13301 0.0356 0.26498 0.0625 0.39453a5 5 0 0 1 -0.0625 -0.39453zm9.873 0.27344a5 5 0 0 1 -0.04102 0.18164c0.01342-0.0608 0.02983-0.12007 0.04102-0.18164zm-0.28906 0.98437a5 5 0 0 1 -0.0625 0.14063c0.02093-0.0471 0.04299-0.0928 0.0625-0.14063zm-9.252 0.006c0.0106 0.0258 0.0183 0.0526 0.0293 0.0781a5 5 0 0 1 -0.0293 -0.0781zm0.45117 0.85352c0.016 0.0242 0.0286 0.0503 0.0449 0.0742a5 5 0 0 1 -0.0449 -0.0742zm8.3418 0.0117a5 5 0 0 1 -0.06836 0.0996c0.02314-0.0332 0.04601-0.0659 0.06836-0.0996zm-7.7383 0.73828c0.019 0.0195 0.0353 0.0414 0.0547 0.0606a5 5 0 0 1 -0.0547 -0.0606zm7.127 0.0176a5 5 0 0 1 -0.06836 0.0645c0.02248-0.0219 0.04629-0.0421 0.06836-0.0645zm-6.4102 0.58984c0.0332 0.0231 0.0659 0.046 0.0996 0.0684a5 5 0 0 1 -0.0996 -0.0684zm5.666 0.0332a5 5 0 0 1 -0.0625 0.0371c0.0203-0.0134 0.0425-0.0234 0.0625-0.0371zm-4.8359 0.43164c0.0471 0.0209 0.0928 0.043 0.14063 0.0625a5 5 0 0 1 -0.14063 -0.0625zm3.9902 0.0312a5 5 0 0 1 -0.0801 0.0293c0.0264-0.0108 0.0539-0.0181 0.0801-0.0293zm-3.0469 0.2793c0.0608 0.0134 0.12007 0.0298 0.18164 0.041a5 5 0 0 1 -0.18164 -0.041zm2.0996 0.0195a5 5 0 0 1 -0.39453 0.0625c0.13301-0.0166 0.26498-0.0357 0.39453-0.0625zm-1.7109 0.0527c0.0906 0.0126 0.18131 0.0236 0.27344 0.0312a5 5 0 0 1 -0.27344 -0.0312zm0.53516 0.0449c0.0523 0.002 0.10355 0.008 0.15625 0.008 0.0329 0 0.0649-0.003 0.0977-0.004a5 5 0 0 1 -0.25391 -0.004z"/>
  <path d="m-98.324 355.91a5 5 0 0 1 -4.8222 5.1711 5 5 0 0 1 -5.1717 -4.8215 5 5 0 0 1 4.8208 -5.1723 5 5 0 0 1 5.173 4.8202l-4.9969 0.1767z"/>
 </g>
</svg>
