<?xml version="1.0" encoding="UTF-8" standalone="no"?>
<!--Part of Monotone: https://github.com/sixsixfive/Monotone, released under cc-by-sa_v4-->
<svg id="svg30" xmlns="http://www.w3.org/2000/svg" viewBox="0 0 16 16" version="1.1"><path id="path817" style="fill:#f1f2f2" d="m9.3906 1.0039a6.398 7.5542 45 0 0 -1.3906 0.0918 6.398 7.5542 45 0 0 -7 8.0566 6.398 7.5542 45 0 0 7 5.7517 6.398 7.5542 45 0 0 7 -8.0563 6.398 7.5542 45 0 0 -5.6094 -5.8438zm-0.2129 1.0098c1.1613 0.0412 2.2523 0.4281 3.0863 1.1133 1.111 0.9135 1.754 2.3429 1.754 3.8828s-0.643 3.1772-1.754 4.4572c-1.112 1.279-2.6816 2.183-4.264 2.443-1.5824 0.261-3.154-0.125-4.2656-1.039-1.1117-0.913-1.7539-2.341-1.7539-3.8808 0-1.5399 0.6422-3.1794 1.7539-4.459 1.1116-1.2795 2.6832-2.1808 4.2656-2.4414 0.3956-0.065 0.7906-0.0899 1.1777-0.0761z"/><path id="rect821" style="fill:#f1f2f2" d="m4 7h1v3l1 1v-4h2l-1-1h-4z"/><path id="path833" d="m9 7h1v4l1-1v-3h2l-1-1h-4z" style="fill:#f1f2f2"/></svg>
