<?xml version="1.0" encoding="UTF-8"?>
<!--Part of Monotone: https://github.com/sixsixfive/Monotone, released under cc-by-sa_v4-->
<svg version="1.1" viewBox="0 0 16 16" xmlns="http://www.w3.org/2000/svg" xmlns:osb="http://www.openswatchbook.org/uri/2009/osb" xmlns:xlink="http://www.w3.org/1999/xlink">
<defs>
<linearGradient id="linearGradient19282" gradientTransform="matrix(1.1667 0 0 1 627.67 1787.4)" osb:paint="solid">
<stop stop-color="#f1f2f2" offset="0"/>
</linearGradient>
<linearGradient id="linearGradient5164" gradientTransform="matrix(1.3718 0 0 1 -3514.3 -364.55)" gradientUnits="userSpaceOnUse" xlink:href="#linearGradient19282"/>
</defs>
<g id="text_remove_kerns" transform="translate(-529 -836.36)" fill="url(#linearGradient5164)">
<path d="m532 841.36c-0.2612 0.0228-0.4772 0.2723-0.4527 0.5231 0.0245 0.2509 0.2849 0.4575 0.5461 0.4333l4.3894 0.0313c1.1783 9e-3 1.4357 0.046 1.8652 0.4401 0.4294 0.3941 0.6535 1.0316 0.6535 2.0621-4e-3 0.2526 0.2348 0.485 0.4979 0.485 0.263 0 0.5016-0.2324 0.4979-0.485 0-1.1691-0.2739-2.1155-0.9647-2.7495s-1.2386-0.6997-2.5497-0.7091l-4.3895-0.0313c-0.0311-3e-3 -0.0623-3e-3 -0.0933 0z" color="#000000" stroke-width="1px"/>
<path d="m534 848.36v2.0201h2v-2.0201z" color="#000000" stroke-width="1.3918px"/>
<path d="m538 850.36v-2h3v-2l2.9883 3-2.9883 3v-2z"/>
<path d="m531 848.38v2.0202h2v-2.0202z" color="#000000" stroke-width="1.3918px"/>
<path d="m531.81 837.37a1.0044 1.0044 0 1 0 0.1875 2h5.5c1.5595 0 2.6551 0.4219 3.375 1.0937 0.7199 0.6719 1.125 1.6285 1.125 2.9063a1.0001 1.0001 0 1 0 2 0c0-1.7222-0.5949-3.2969-1.75-4.375-1.1551-1.0782-2.8095-1.625-4.75-1.625h-5.5a1.0001 1.0001 0 0 0-0.1875 0z" color="#000000" stroke-width="2"/>
</g>
</svg>
