<?xml version="1.0" encoding="UTF-8"?>
<svg version="1.1" viewBox="0 0 16 16" xmlns="http://www.w3.org/2000/svg">
<g fill="#f1f2f2">
<g transform="translate(0,-1)">
<path transform="translate(0,1)" d="m1.9238 2c-0.51138 0-0.92383 0.41244-0.92383 0.92383v10.152c0 0.51138 0.41244 0.92383 0.92383 0.92383h12.152c0.51138 0 0.92383-0.41244 0.92383-0.92383v-10.152c0-0.51138-0.41244-0.92383-0.92383-0.92383h-12.152zm6.0566 1 3.0195 3h-2.0059l-0.013672 2.0215 0.013672 1.9785h2.0059l-3.0195 3-2.9746-3h1.9883l-0.0097656-0.97656h-0.0058594l0.0039063-1.002-0.0039063-1h0.0058594l0.0097656-1.0215h-1.9883l2.9746-3z" style="fill:#f1f2f2;paint-order:markers fill stroke"/>
</g>
</g>
</svg>
