<!--Part of Monotone: https://github.com/sixsixfive/Monotone, released under cc-by-sa_v4-->
<svg xmlns="http://www.w3.org/2000/svg" viewBox="0 0 16 16">
    <path d="M6.28 1.006a.27.27 0 0 0-.15.094C3.508 4.202 1.45 8.287.019 12.416a.3.3 0 0 0 .07.31l1.22 1.2a.27.27 0 0 0 .448-.108C2.223 12.538 3.266 12.156 4 12c.734-.155 1.205-.047 2.094.326.888.374 1.909.988 2.672 1.328.38.17.732.3 1.06.346.328.045.663-.008.901-.25a.297.297 0 0 0 .027-.381c-.7-.958-1.706-2.471-2.754-3.37 1.415.02 2.447.896 3.584 1.26.677.218 1.267.444 1.727.616.229.086.425.159.589.21.165.053.284.093.434.087a.286.286 0 0 0 .262-.338c-.027-.165-.087-.22-.158-.32a4.821 4.821 0 0 0-.278-.342C12 8 12.563 9.01 12 8c1.455-.82 2.517-1.318 3.855-2.077a.295.295 0 0 0 .016-.498c-.338-.22-.785-.205-1.381-.166-.596.04-1.323.146-2.099.284-1.24.219-2.284.222-3.391.457.772-.796 1.424-1.362 2.191-2.16.49-.51.924-.988 1.243-1.407.318-.418.555-.746.535-1.146a.285.285 0 0 0-.227-.27.651.651 0 0 0-.138-.011 1.252 1.252 0 0 0-.407.101 5.42 5.42 0 0 0-.681.326c-.515.283-1.143.69-1.807 1.18C8.579 3.446 6.934 4.922 6 6l.615-4.7a.283.283 0 0 0-.336-.295zM7.972 6.97a.527.527 0 0 1 .052 0A.527.527 0 0 1 8.166 8c-2.955.985-4.42 1.855-6.63 5.098a.527.527 0 0 1-.872-.594C2.954 9.145 4.79 8.015 7.834 7a.527.527 0 0 1 .139-.03z" fill-rule="evenodd" stroke-width=".354" fill="#f1f2f2"/>
</svg>
