<?xml version="1.0" encoding="UTF-8" standalone="no"?>
<!--Part of Monotone: https://github.com/sixsixfive/Monotone, released under cc-by-sa_v4-->
<svg id="svg4111" xmlns="http://www.w3.org/2000/svg" version="1.1" viewBox="0 0 16 16"><g id="layer1" transform="translate(0,-32)"><path id="rect4519" style="color:#000000;fill:#f1f2f2" d="m9.3615 34c-1.5156 0-2.8278 0.89604-3.4784 2.1962-0.42167-0.27654-0.92103-0.43909-1.4576-0.43909-1.5041 0-2.7236 1.2586-2.7236 2.8109 0 0.24682 0.038269 0.48492 0.09616 0.71301-1.0864 0.756-1.7981 2.043-1.7981 3.503 0 2.336 1.822 4.216 4.0851 4.216h7.8299c2.2631 0 4.0851-1.8803 4.0851-4.216 0-1.8652-1.1667-3.4377-2.7873-3.9965 0.04398-0.24243 0.06365-0.49156 0.06365-0.74716 0-2.231-1.752-4.04-3.9145-4.04zm-2.3615 3h3l1 8h-2l-0.0329-1.977-2.8552-0.034-1.1119 2.011h-2zm1.0341 1.659-1.4773 3.4092 2.3069-0.13638-0.13937-3.3075z"/></g></svg>
