<?xml version="1.0" encoding="UTF-8"?>
<!--Part of Monotone: https://github.com/sixsixfive/Monotone, released under cc-by-sa_v4-->
<svg version="1.1" viewBox="0 0 16 16" xmlns="http://www.w3.org/2000/svg">
<g fill="#f1f2f2">
<path d="m3.5 1a2.495 2.495 0 0 0-2.5 2.5v5c0 1.385 1.115 2.5 2.5 2.5h6.3887l3.1113 4v-4.0508c1.1441-0.2302 2-1.2354 2-2.4492v-5c0-1.385-1.115-2.5-2.5-2.5h-9zm0.5 4a1 1 0 0 1 1 1 1 1 0 0 1-1 1 1 1 0 0 1-1-1 1 1 0 0 1 1-1zm4 0a1 1 0 0 1 1 1 1 1 0 0 1-1 1 1 1 0 0 1-1-1 1 1 0 0 1 1-1zm4 0a1 1 0 0 1 1 1 1 1 0 0 1-1 1 1 1 0 0 1-1-1 1 1 0 0 1 1-1z" opacity=".5"/>
</g>
</svg>
