<?xml version="1.0" encoding="UTF-8"?>
<svg version="1.1" viewBox="0 0 16 16" xmlns="http://www.w3.org/2000/svg"><g color="#f1f2f2" fill="#f1f2f2"><path d="m1.5 2c-0.277 0-0.5 0.223-0.5 0.5v11c0 0.277 0.223 0.5 0.5 0.5h13c0.277 0 0.5-0.223 0.5-0.5v-11c0-0.277-0.223-0.5-0.5-0.5h-13zm4.4844 0.98633a1.0001 1.0001 0 0 1 1.0156 1.0137v1h2v-1a1.0001 1.0001 0 0 1 0.98438 -1.0137 1.0001 1.0001 0 0 1 1.0156 1.0137v1h1a1.0001 1.0001 0 1 1 0 2h-1v2h1a1.0001 1.0001 0 1 1 0 2h-1v1a1.0001 1.0001 0 1 1 -2 0v-1h-2v1a1.0001 1.0001 0 1 1 -2 0v-1h-1a1.0001 1.0001 0 1 1 0 -2h1v-2h-1a1.0001 1.0001 0 1 1 0 -2h1v-1a1.0001 1.0001 0 0 1 0.98438 -1.0137zm1.0156 4.0137v2h2v-2h-2z" fill="#f1f2f2"/></g></svg>
