<!--Part of Monotone: https://github.com/sixsixfive/Monotone, released under cc-by-sa_v4-->
<svg xmlns="http://www.w3.org/2000/svg" viewBox="0 0 16 16">
    <path style="text-decoration-color:#000;isolation:auto;mix-blend-mode:normal;text-indent:0;text-decoration-line:none;text-transform:none;text-decoration-style:solid" fill="#f1f2f2" d="M8 0v.002C4.855-.041 1.838 1.952.637 4.881v.002C-.24 6.963-.168 9.355.592 11.43l.002.002v.002a.402.402 0 0 0 .017.039c.155.315.318.619.4.892.086.277.1.499-.001.748v.002a.402.402 0 0 0-.02.059L.084 15.48c-.07.282.19.555.469.491.81-.188 2.013-.822 2.779-.955.296.01.597.124.938.279.347.157.738.349 1.205.41 2.268.554 4.81.374 6.834-.963l.005-.004.008-.006c2.555-1.605 4.017-4.718 3.61-7.724C15.56 3.54 12.706.6 9.285.102a8.2 8.2 0 0 0-1.28-.1L8 0zM4.365 4a8.258 8.258 0 0 1 .424.008c.136.008.318-.055.498.41.185.478.628 1.653.684 1.773.055.12.091.258.017.418-.074.16-.11.26-.22.399-.111.139-.232.31-.332.418-.111.119-.226.246-.096.486.129.24.571 1.021 1.23 1.654.845.813 1.56 1.066 1.782 1.186.222.12.348.099.478-.061.13-.159.553-.696.701-.935.148-.24.295-.2.498-.12.203.08 1.293.656 1.514.776.222.119.37.179.426.279.055.099.055.577-.129 1.135-.185.558-1.071 1.069-1.496 1.137a2.828 2.828 0 0 1-1.395-.096c-.322-.11-.733-.256-1.261-.502C5.467 11.33 4.014 8.92 3.904 8.76 3.794 8.6 3 7.465 3 6.29c0-1.176.572-1.752.775-1.991A.788.788 0 0 1 4.365 4z"/>
</svg>
