<?xml version="1.0" encoding="UTF-8" standalone="no"?>
<!--Part of Monotone: https://github.com/sixsixfive/Monotone, released under cc-by-sa_v4-->
<svg id="svg2" xmlns="http://www.w3.org/2000/svg" viewBox="0 0 16 16" version="1.0" xmlns:xlink="http://www.w3.org/1999/xlink"><g id="layer1" transform="translate(0,-32)"><path id="path3649" style="fill:#f1f2f2" d="m1 33 4.8764 14h4.3371l0.10112-0.29214c-0.02172-0.01622-0.04616-0.02826-0.06742-0.04494-0.191-0.149-0.4054-0.285-0.5177-0.494-0.2754-0.513-0.2202-1.046 0.4497-1.495-0.5328-0.362-1.2104-0.493-1.2587-1.202-0.06158-0.90411 0.85232-1.0148 1.4045-1.2022-0.3965-0.67108-0.54632-1.0066-0.03371-1.5169 0.6037-0.60097 0.99246-0.32636 1.7079 0.11236 0.13703-0.81253 0.01145-1.0457 0.69663-1.1124l2.303-6.753h-4.0562l-2.8653 10.079-2.8989-10.079z"/></g></svg>
