<?xml version="1.0" encoding="UTF-8" standalone="no"?>
<!--Part of Monotone: https://github.com/sixsixfive/Monotone, released under cc-by-sa_v4-->
<svg xmlns="http://www.w3.org/2000/svg" version="1.1" viewBox="0 0 16 16">
 <g fill="#f1f2f2">
  <path d="m1.332 1c-0.1845 0-0.332 0.1475-0.332 0.332v13.336c0 0.184 0.1475 0.332 0.332 0.332h13.336c0.184 0 0.332-0.148 0.332-0.332v-13.336c0-0.1845-0.148-0.332-0.332-0.332h-1.668v1.668c0 0.1845-0.148 0.332-0.332 0.332h-1.336c-0.184 0-0.332-0.1475-0.332-0.332v-1.668h-6v1.668c0 0.1845-0.1475 0.332-0.332 0.332h-1.336c-0.1845 0-0.332-0.1475-0.332-0.332v-1.668h-1.668zm1 3h11.336c0.184 0 0.332 0.1475 0.332 0.332v9.336c0 0.184-0.148 0.332-0.332 0.332h-11.336c-0.1845 0-0.332-0.148-0.332-0.332v-9.336c0-0.1845 0.1475-0.332 0.332-0.332z"/>
  <g>
   <circle cx="8" cy="9" r="1"/>
   <circle cx="11" cy="9" r="1"/>
   <circle cx="5" cy="9" r="1"/>
  </g>
 </g>
</svg>
