<?xml version="1.0" encoding="UTF-8"?>
<svg version="1.1" viewBox="0 0 16 16" xmlns="http://www.w3.org/2000/svg">
<path d="m10 1a1 1 0 0 0-1 1 1 1 0 0 0 0.33984 0.75l-0.45117 2.2539a2 2 0 0 0-1.8887 1.9961 2 2 0 0 0 0.2793 1.0137l-1.543 1.543a3 3 0 0 0-1.6602-0.55273l-0.30859-2.1602a2 2 0 0 0 1.2324-1.8438 2 2 0 0 0-2-2 2 2 0 0 0-2 2 2 2 0 0 0 1.7793 1.9863l0.30859 2.1582a3 3 0 0 0-2.0879 2.8555 3 3 0 0 0 3 3 3 3 0 0 0 2.8711-2.1367l3.1484 0.39258a2 2 0 0 0 1.9805 1.7441 2 2 0 0 0 2-2 2 2 0 0 0-2-2 2 2 0 0 0-1.8574 1.2637l-3.1465-0.39258a3 3 0 0 0-0.55469-1.6055l1.5449-1.5449a2 2 0 0 0 1.0137 0.2793 2 2 0 0 0 1.9941-1.8887l2.2559-0.45117a1 1 0 0 0 0.75 0.33984 1 1 0 0 0 1-1 1 1 0 0 0-1-1 1 1 0 0 0-0.94531 0.67969l-2.2559 0.45117a2 2 0 0 0-0.92969-0.92969l0.45117-2.2559a1 1 0 0 0 0.67969-0.94531 1 1 0 0 0-1-1z" style="fill-opacity:.99444;fill:#f1f2f2;paint-order:markers fill stroke"/>
</svg>
