<?xml version="1.0" encoding="UTF-8"?>
<svg version="1.1" viewBox="0 0 16 16" xmlns="http://www.w3.org/2000/svg">
<path d="m6.5449 1c-3.0758 0-5.5449 2.5108-5.5449 5.6973v7.8027c0 0.277 0.223 0.5 0.5 0.5h0.25l2.25-3 2 3 2-3 2 3 2-3 2.25 3h0.25c0.277 0 0.5-0.223 0.5-0.5v-7.8027c0-3.1853-2.4693-5.6973-5.5449-5.6973h-2.9102zm-1.5449 3c1.399-0.019 2.3192 1.8042 1.9082 3.2402-0.273 1.477-1.9741 2.3272-3.0371 1.3242-1.238-1.019-1.1293-3.458 0.22266-4.293 0.276-0.176 0.58925-0.27248 0.90625-0.27148zm6 0c1.399-0.019 2.3192 1.8042 1.9082 3.2402-0.273 1.477-1.9731 2.3272-3.0371 1.3242-1.237-1.02-1.1293-3.458 0.22266-4.293 0.275-0.176 0.58925-0.27148 0.90625-0.27148zm-6 2a1 1 0 0 0-1 1 1 1 0 0 0 1 1 1 1 0 0 0 1-1 1 1 0 0 0-1-1zm6 0a1 1 0 0 0-1 1 1 1 0 0 0 1 1 1 1 0 0 0 1-1 1 1 0 0 0-1-1z" style="fill-rule:evenodd;fill:#f1f2f2"/>
</svg>
