<?xml version="1.0" encoding="UTF-8"?>
<svg version="1.1" viewBox="0 0 16 16" xmlns="http://www.w3.org/2000/svg">
<g style="fill:#f1f2f2">
<path d="m1.332 1c-0.1845 0-0.33203 0.14753-0.33203 0.33203v13.336c0 0.184 0.14753 0.33203 0.33203 0.33203h8.5098a1.0099 1.0099 0 0 1-0.85156-0.99609v-0.003906h-6.6582c-0.1845 0-0.33203-0.14803-0.33203-0.33203v-9.3359c0-0.1845 0.14753-0.33203 0.33203-0.33203h11.336c0.184 0 0.33203 0.14753 0.33203 0.33203v4.668a1.0099 1.0099 0 0 1 1 0.87891v-8.5469c0-0.1845-0.14803-0.33203-0.33203-0.33203h-1.668v1.668c0 0.1845-0.14803 0.33203-0.33203 0.33203h-1.3359c-0.184 0-0.33203-0.14753-0.33203-0.33203v-1.668h-6v1.668c0 0.1845-0.14753 0.33203-0.33203 0.33203h-1.3359c-0.1845 0-0.33203-0.14753-0.33203-0.33203v-1.668z" style="opacity:.5"/>
<circle cx="8" cy="9" r="1" style="opacity:.5"/>
<path d="m11 8a1 1 0 0 0-1 1 1 1 0 0 0 0.99023 1 1.0099 1.0099 0 0 1 1.0098-1 1 1 0 0 0-1-1z" style="opacity:.5"/>
<circle cx="5" cy="9" r="1" style="opacity:.5"/>
</g>
<path transform="translate(-.083984 .56641)" d="m12.084 9.4434v1.9961h-2v1.998h2v1.9961h2v-1.9961h2v-1.998h-2v-1.9961z" style="fill:#f1f2f2"/>
</svg>
