<?xml version="1.0" encoding="UTF-8"?>
<svg version="1.1" viewBox="0 0 16 16" xmlns="http://www.w3.org/2000/svg">
<g fill="#f1f2f2">
<path d="M 1.332,1 C 1.1475,1 1,1.1475 1,1.332 V 14.668 C 1,14.852 1.1475,15 1.332,15 H 14.668 C 14.852,15 15,14.852 15,14.668 V 1.332 C 15,1.1475 14.852,1 14.668,1 Z m 1,3 H 13.668 C 13.852,4 14,4.1475 14,4.332 v 9.336 C 14,13.852 13.852,14 13.668,14 H 2.332 C 2.1475,14 2,13.852 2,13.668 V 4.332 C 2,4.1475 2.1475,4 2.332,4 Z"/>
<rect transform="rotate(90)" x="5" y="-13" width="3" height="10" style="stroke-width:1.7321"/>
</g>
</svg>
