<?xml version="1.0" encoding="UTF-8"?>
<svg version="1.1" viewBox="0 0 16 16" xmlns="http://www.w3.org/2000/svg">
<g fill="#f1f2f2">
<path d="m8 3h6v2h-6z"/>
<path d="m8 9h6v2h-6z"/>
<path d="M2.384 3h3.231A.38.38 0 0 1 6 3.379V6.62a.38.38 0 0 1-.385.38h-3.23A.38.38 0 0 1 2 6.621V3.38A.38.38 0 0 1 2.384 3zm0 6h3.231A.38.38 0 0 1 6 9.379V12.6a.38.38 0 0 1-.385.38h-3.23A.38.38 0 0 1 2 12.6V9.38A.38.38 0 0 1 2.384 9z" overflow="visible"/>
</g>
<rect x="8" y="12" width="4" height="1" style="fill:#f1f2f2;paint-order:markers fill stroke"/>
<rect x="8" y="6" width="4" height="1" style="fill:#f1f2f2;paint-order:markers fill stroke"/>
</svg>
