<?xml version="1.0" encoding="UTF-8"?>
<svg version="1.1" viewBox="0 0 16 16" xmlns="http://www.w3.org/2000/svg">
<g fill="#f1f2f2">
<g style="opacity:.5">
<path d="m1.332 1c-0.1845 0-0.33203 0.14753-0.33203 0.33203v13.336c0 0.184 0.14753 0.33203 0.33203 0.33203h9.668v-1h-8.668c-0.1845 0-0.33203-0.14803-0.33203-0.33203v-9.3359c0-0.1845 0.14753-0.33203 0.33203-0.33203h11.336c0.184 0 0.33203 0.14753 0.33203 0.33203v6.668h1v-9.668c0-0.1845-0.14803-0.33203-0.33203-0.33203h-13.336z" style=""/>
<rect x="3" y="5" width="3" height="8" style="stroke-width:1.5492"/>
</g>
</g>
<g transform="translate(18.085 4.7048)" style="fill:#f1f2f2">
<path d="m-3.0847 11.295h1v-1l-3-3h-1v1z"/>
<path d="m-5.0847 11.295h-1v-1l3-3h1v1z"/>
</g>
</svg>
