<!--Part of Monotone: https://github.com/sixsixfive/Monotone, released under cc-by-sa_v4-->
<svg xmlns="http://www.w3.org/2000/svg" viewBox="0 0 16 16">
    <g color="#f1f2f2" fill="#f1f2f2">
        <path d="M9.625 11h-3.25a.374.374 0 0 0-.375.375v1.25c0 .208.167.375.375.375h3.25a.374.374 0 0 0 .375-.375v-1.25A.374.374 0 0 0 9.625 11zm0-11h-3.25A.374.374 0 0 0 6 .375v1.25c0 .208.167.375.375.375h3.25A.374.374 0 0 0 10 1.625V.375A.374.374 0 0 0 9.625 0zm0 14h-3.25a.374.374 0 0 0-.375.375v1.25c0 .208.167.375.375.375h3.25a.374.374 0 0 0 .375-.375v-1.25A.374.374 0 0 0 9.625 14zm0-11h-3.25A.374.374 0 0 0 6 3.375v1.25c0 .208.167.375.375.375h3.25A.374.374 0 0 0 10 4.625v-1.25A.374.374 0 0 0 9.625 3z" style="marker:none" overflow="visible" opacity=".35"/>
        <path d="M14 7H2v2h12z" style="marker:none" overflow="visible"/>
    </g>
</svg>
