<?xml version="1.0" encoding="UTF-8"?>
<svg version="1.1" viewBox="0 0 16 16" xmlns="http://www.w3.org/2000/svg">
<path d="m10.328 4.1332c0.0702 0.0172 0.10326-0.0551 0.1549-0.0861 0.0826-0.0496 0.85849-0.29259 0.86675-0.30154 0.0785-0.0778-0.0392-0.26781 0.0282-0.3098 0.0723-0.0454 0.22443-0.0241 0.28433-0.0599 0.29947-0.17968 0.74971-0.18794 1.0416-0.37038 0.0895-0.0564 0.17418-0.20378 0.26643-0.24096 0.19001-0.0757 0.4234-0.073 0.62855-0.1549 0.10602-0.0427 0.13494-0.21066 0.19827-0.28433 0.11979-0.13975 0.05424-0.17073 0.19606-0.28363 0.20378-0.16385-0.58227 0.0324-0.22222-0.3277 0.3456-0.3456 1.7418-0.20929 1.8767-0.34423l0.0255-0.0427c0.0943-0.0943 0.32701 0.0186 0.32701-0.24096v-0.0861c-0.011-8e-3 -0.89774 0.0867-0.96383 0.10326-0.57898 0.14458-1.3252 0.0778-1.8678 0.24096-0.23476 0.0702-1.4444 0.26092-1.5332 0.34973l-0.2141 0.14939c-1.0065 0.20103-2.0233 0.31393-3.0305 0.48191-0.49912 0.0833-1.2281 0.30619-1.664 0.45145-0.39792 0.13287-1.0389 0.16385-1.4347 0.274-0.31118 0.0867-1.1876-0.10051-1.463 0.0172-0.0633 0.0268-0.12805 0.33665-0.0861 0.37864 0.0372 0.0379 0.15146 0.0282 0.19759 0.0606 0.0406 0.0282 0.11221 0.064 0.0861 0.12874-0.0351 0.0874-0.38966-0.0165-0.48192 0.13769-0.11221 0.18725 0.28502 0.44611 0.35318 0.5597 0.10464 0.17418-0.30705 0.25266-0.21549 0.48191h0.17214c0.0861 0 0.15903 0.0275 0.21549 0.11222l0.075 0.0599c0.16455 0.2327 3.9964-0.61322 3.9964-0.61322s-1.1194 9.1509-5.6466 9.6542c-1.0334 0.11497-2.13-1.2123-2.2037-1.2399-0.0682-0.0255-0.20103-0.0317-0.24509 1e-3 -0.0441 0.0337-0.0929 0.24096 0.0434 0.39586 0.51496 0.58586 2.0474 1.8436 3.5758 1.8064 4.7516-0.11415 6.6628-10.859 6.6628-10.859z" style="fill:#f1f2f2;stroke-width:.068845"/>
</svg>
