<?xml version="1.0" encoding="UTF-8" standalone="no"?>
<!--Part of Monotone: https://github.com/sixsixfive/Monotone, released under cc-by-sa_v4-->
<svg id="svg2527" xmlns="http://www.w3.org/2000/svg" viewBox="0 0 16 16" version="1.0" xmlns:xlink="http://www.w3.org/1999/xlink"><path id="rect3267" d="m7.0334 1c-0.27548 0-0.49855 0.22853-0.49855 0.50872v0.9869c-0.4925 0.1313-0.9632 0.3295-1.3938 0.58l-0.7021-0.7021c-0.099-0.099-0.2177-0.1515-0.3459-0.1526-0.1282-0.0012-0.2587 0.0451-0.3561 0.1425l-1.3735 1.3735c-0.1948 0.1948-0.188 0.5039 0.0101 0.7021l0.7021 0.702c-0.2505 0.4306-0.4487 0.9013-0.58 1.3939h-0.9869c-0.28019 0-0.50872 0.22306-0.50872 0.49855v1.9332c0 0.27548 0.22853 0.49855 0.50872 0.49855h0.98692c0.13124 0.49258 0.32948 0.96325 0.57994 1.3939l-0.70203 0.70203c-0.19813 0.19812-0.20497 0.50724-0.010181 0.70204l1.3735 1.3735c0.1948 0.1948 0.50391 0.18796 0.70203-0.01015l0.70203-0.70204c0.43064 0.25046 0.90131 0.4487 1.3939 0.57994v0.98692c0 0.2802 0.22306 0.50872 0.49855 0.50872h1.9331c0.27548 0 0.49855-0.22853 0.49855-0.50872v-0.98692c0.49258-0.13124 0.96325-0.32948 1.3939-0.57994l0.70203 0.70204c0.19812 0.19812 0.50724 0.20497 0.70204 0.01015l1.3735-1.3735c0.19479-0.1948 0.18795-0.50391-0.01015-0.70203l-0.70203-0.70204c0.25046-0.43064 0.4487-0.90131 0.57994-1.3939h0.98691c0.28019 0 0.50872-0.22306 0.50872-0.49855v-1.9322c0-0.27548-0.22853-0.49855-0.50872-0.49855h-0.987c-0.131-0.4925-0.329-0.9632-0.58-1.3938l0.70203-0.70203c0.19813-0.19813 0.20497-0.50724 0.01015-0.70204l-1.373-1.3736c-0.195-0.1948-0.504-0.188-0.702 0.0101l-0.702 0.7021c-0.431-0.2505-0.9013-0.4487-1.3939-0.58v-0.9869c0-0.28019-0.22306-0.50872-0.49855-0.50872zm0.96657 4.8837c1.1682 0 2.1163 0.94809 2.1163 2.1163s-0.94809 2.1163-2.1163 2.1163-2.1163-0.94809-2.1163-2.1163 0.94809-2.1163 2.1163-2.1163z" style="display:block;fill:#f1f2f2"/></svg>
