<!--Part of Monotone: https://github.com/sixsixfive/Monotone, released under cc-by-sa_v4-->
<svg xmlns="http://www.w3.org/2000/svg" viewBox="0 0 16 16">
    <path d="M2.334 1C1.595 1 1 1.595 1 2.334v11.332C1 14.405 1.595 15 2.334 15h11.332c.739 0 1.334-.595 1.334-1.334V2.334C15 1.595 14.405 1 13.666 1H2.334zm9.379 2c.233 0 .449.05.619.162.661.349.87 1.361.451 2.014-1.237 2.395-2.468 4.791-3.72 7.176A1.228 1.228 0 0 1 7.77 13c-.702-.115-.954-.942-1.283-1.523C5.368 9.3 4.224 7.14 3.123 4.951c-.412-.86.276-2.016 1.15-1.947.544-.04.954.431 1.172.931.621 1.15 1.18 2.341 1.83 3.471.612.95 1.364.938 2.229.42.652-.39.815-1.277.83-2.021.012-.595-.389-1.097-.273-1.71.119-.632.954-1.093 1.652-1.095z" fill-opacity=".969" stroke-width=".333" fill="#f1f2f2"/>
</svg>
