<?xml version="1.0" encoding="UTF-8" standalone="no"?>
<!--Part of Monotone: https://github.com/sixsixfive/Monotone, released under cc-by-sa_v4-->
<svg id="svg4" xmlns="http://www.w3.org/2000/svg" version="1.1" viewBox="0 0 16 16"><path id="rect4489" style="fill:#f1f2f2" d="m1 0c-0.277 0-0.52628 0.11222-0.70703 0.29297s-0.29297 0.43003-0.29297 0.70703v4c1.4803e-16 0.554 0.446 1 1 1s1-0.446 1-1v-1.5859l2 2v1.5859h3v-3h-1.5859l-2-2h1.5859c0.554 0 1-0.446 1-1s-0.446-1-1-1h-4zm10 0c-0.554 0-1 0.446-1 1s0.446 1 1 1h1.586l-2 2h-1.586v3h3v-1.5859l2-2v1.5859c0 0.554 0.446 1 1 1s1-0.446 1-1v-4c0-0.277-0.112-0.52628-0.293-0.70703s-0.43-0.29297-0.707-0.29297h-4zm-7 9v2.5c0 0.277 0.223 0.5 0.5 0.5h2.5v-3h-3zm5 0v3h1.586l2 2h-1.586c-0.554 0-1 0.446-1 1s0.446 1 1 1h4c0.277 0 0.526-0.112 0.707-0.293s0.293-0.43 0.293-0.707v-4c0-0.554-0.446-1-1-1s-1 0.446-1 1v1.586l-2-2v-1.586h-3z"/></svg>
