<?xml version="1.0" encoding="UTF-8" standalone="no"?>
<!--Part of Monotone: https://github.com/sixsixfive/Monotone, released under cc-by-sa_v4-->
<svg id="svg4" xmlns="http://www.w3.org/2000/svg" viewBox="0 0 16 16" version="1.1"><path id="rect4489" style="fill:#f1f2f2" d="m5.2227 1c-0.6772 0-1.2227 0.5455-1.2227 1.2227v0.7773h8.223c0.431 0 0.777 0.3465 0.777 0.7773v5.4454c0 0.4308-0.346 0.7773-0.777 0.7773h-5.4457c-0.4308 0-0.7773-0.3465-0.7773-0.7773v-2.2227h-2v3.777c0 0.677 0.5455 1.223 1.2227 1.223h8.5543c0.677 0 1.223-0.546 1.223-1.223v-8.5543c0-0.6772-0.546-1.2227-1.223-1.2227h-8.5543zm-1.2227 3v2h2v-2h-2z"/><path id="path4496" style="fill:#f1f2f2" d="m2.2227 4c-0.6772 0-1.2227 0.5455-1.2227 1.2227v8.5543c0 0.677 0.5455 1.223 1.2227 1.223h8.5543c0.677 0 1.223-0.546 1.223-1.223v-0.777h-2.5c-0.0491 0-0.0939-0.014-0.1387-0.027-0.0467 0.008-0.0893 0.027-0.1386 0.027h-5.4454c-0.4308 0-0.7773-0.346-0.7773-0.777v-5.4457c0-0.4308 0.3465-0.7773 0.7773-0.7773h5.4454c0.4308 0 0.7773 0.3465 0.7773 0.7773v2.2227h2v-3.7773c0-0.6772-0.546-1.2227-1.223-1.2227h-8.5543zm7.7773 6v2h2v-2h-2z"/></svg>
