<?xml version="1.0" encoding="UTF-8"?>
<svg version="1.1" viewBox="0 0 16 16" xmlns="http://www.w3.org/2000/svg">
<path d="m1.2734 6c-0.70502 0-1.2734 0.56842-1.2734 1.2734v6.4531c0 0.70502 0.56842 1.2734 1.2734 1.2734h9.4531c0.70502 0 1.2734-0.56842 1.2734-1.2734v-1.7266h-2.5c-0.277 0-0.5-0.223-0.5-0.5v-2c0-0.277 0.223-0.5 0.5-0.5h2.5v-1.7266c0-0.70502-0.56842-1.2734-1.2734-1.2734h-9.4531z" style="fill:#f1f2f2;paint-order:markers fill stroke"/>
<path d="m1.4141 2c-0.78336 0-1.4141 0.63071-1.4141 1.4141v7.1719c0 0.78336 0.63071 1.4141 1.4141 1.4141h8.0859c-0.277 0-0.5-0.223-0.5-0.5v-0.5h-7.5859c-0.2466 0-0.41406-0.16746-0.41406-0.41406v-7.1719c0-0.2466 0.16746-0.41406 0.41406-0.41406h8.1719c0.2466 0 0.41406 0.16746 0.41406 0.41406v5.5859h1v-5.5859c1e-6 -0.78336-0.63071-1.4141-1.4141-1.4141h-8.1719z" style="fill:#f1f2f2;paint-order:markers fill stroke"/>
<rect x="2" y="4" width="7" height="1" ry=".5" style="fill:#f1f2f2;paint-order:markers fill stroke"/>
<path d="m10.24 10c-0.13296 0-0.23984 0.074334-0.23984 0.16667v0.66667c0 0.092333 0.10688 0.16667 0.23984 0.16667h1.7602v-1z" style="fill:#f1f2f2;paint-order:markers fill stroke"/>
</svg>
