<?xml version="1.0" encoding="UTF-8"?>
<svg version="1.1" viewBox="0 0 16 16" xmlns="http://www.w3.org/2000/svg">
<path d="m1.2734 6c-0.70502 0-1.2734 0.56842-1.2734 1.2734v6.4531c0 0.70502 0.56842 1.2734 1.2734 1.2734h9.4531c0.70502 0 1.2734-0.56842 1.2734-1.2734v-0.72656c-0.554 0-1-0.446-1-1v-3c0-0.554 0.446-1 1-1v-0.72656c0-0.70502-0.56842-1.2734-1.2734-1.2734h-9.4531zm7.2266 4a0.5 0.5 0 0 1 0.5 0.5 0.5 0.5 0 0 1-0.5 0.5 0.5 0.5 0 0 1-0.5-0.5 0.5 0.5 0 0 1 0.5-0.5z" style="fill:#f1f2f2;paint-order:markers fill stroke"/>
<path d="m1.4141 2c-0.78336 0-1.4141 0.63071-1.4141 1.4141v7.1719c0 0.78336 0.63071 1.4141 1.4141 1.4141h8.1719c0.78336 0 1.4141-0.63071 1.4141-1.4141v-7.1719c1e-6 -0.78336-0.63071-1.4141-1.4141-1.4141h-0.1875l0.22852 1.0078c0.2221 0.018936 0.37305 0.17474 0.37305 0.40625v1.2324l0.02734 0.12109c0.041761 0.18588 0.032311 0.37961-0.02734 0.56055v5.2578c1e-6 0.2466-0.16746 0.41406-0.41406 0.41406h-8.1719c-0.2466 0-0.41406-0.16746-0.41406-0.41406v-5.2617c-0.068624-0.21137-0.068624-0.43902 0-0.65039v-1.2598c0-0.2466 0.16746-0.41406 0.41406-0.41406h1.5859l1.2-1z" style="fill:#f1f2f2;paint-order:markers fill stroke"/>
<circle transform="scale(-1,1)" cx="-14.5" cy="10.5" r=".5" style="fill:#f1f2f2;paint-order:markers fill stroke"/>
<path d="m12 9v3h2.5c0.277 0 0.5-0.223 0.5-0.5v-2c0-0.277-0.223-0.5-0.5-0.5h-2.5zm1.5 1a0.5 0.5 0 0 1 0.5 0.5 0.5 0.5 0 0 1-0.5 0.5 0.5 0.5 0 0 1-0.5-0.5 0.5 0.5 0 0 1 0.5-0.5z" style="fill:#f1f2f2;paint-order:markers fill stroke"/>
<path d="m7.1133 1.4473c-0.21128-0.002011-0.41777 0.062944-0.58984 0.18555l-4.5234 3.3672h7l-1-3c-0.16817-0.33628-0.51074-0.54982-0.88672-0.55273z" style="fill:#f1f2f2"/>
</svg>
