<?xml version="1.0" encoding="UTF-8" standalone="no"?>
<!--Part of Monotone: https://github.com/sixsixfive/Monotone, released under cc-by-sa_v4-->
<svg id="Capa_1" xmlns="http://www.w3.org/2000/svg" xml:space="preserve" viewBox="0 0 16 16" version="1.1" y="0px" x="0px"><g id="g4" transform="matrix(.031098 0 0 .03125 .062953 0)"><path id="path2" style="fill:#f1f2f2" d="m416.02 416h-128.63v-128h-64.314v128h-128.63c-32.157 0-32.157 23.156-32.157 32s0 32 32.157 32h321.57c32.156 0 32.156-23.156 32.156-32s0-32-32.157-32z"/><path id="rect850" style="paint-order:fill markers stroke;fill:#f1f2f2" d="m30.133 32v128c0 106.37 85.631 192 192 192h66.198c106.37 0 192-85.632 192-192l0.00001-128h-64.31l0.37684 128c0.2 72.04-56.03 128.06-128.07 128.06h-66.2c-72.04 0-128.06-56.02-128.06-128.06l0.37684-128z"/><rect id="rect860" style="paint-order:fill markers stroke;fill:#f1f2f2" ry="32" height="64" width="385.88" y="32" x="62.289"/><path id="rect862" style="opacity:.5;paint-order:fill markers stroke;fill:#f1f2f2" d="m4.9961 4c-0.5513 0-0.9961 0.446-0.9961 1 0 1.662 1.3268 3 2.9746 3h2.0215c1.5479 0 2.7979-1.1859 2.9449-2.707 0.029-0.0941 0.059-0.1891 0.059-0.293 0-0.554-0.445-1-0.996-1h-6.0079z" transform="matrix(32.157 0 0 32 -2.0244 0)"/><path id="path870" style="fill:#f1f2f2" d="m287.39 160h64.314c-3.8986 36.46-28.189 55.333-64.314 64z"/></g></svg>
