<?xml version="1.0" encoding="UTF-8" standalone="no"?>
<!--Part of Monotone: https://github.com/sixsixfive/Monotone, released under cc-by-sa_v4-->
<svg xmlns="http://www.w3.org/2000/svg" version="1.1" viewBox="0 0 16 16">
<path d="m9.5 1c-0.9669 0.0016-1.8461 0.5607-2.2578 1.4355-0.3531-0.2811-0.7909-0.4346-1.2422-0.4355-0.8489 0.0013-1.6045 0.5385-1.8848 1.3398-0.3297-0.2215-0.718-0.3398-1.1152-0.3398-1.1046 0-2 0.8954-2 2 0 0.1133 0.0151 0.222 0.0332 0.3301a2.5 3 39.411 0 0 -0.25195 0.2734 2.5 3 39.411 0 0 0.02734 3.9043 2.5 3 39.411 0 0 2.207 0.3731c-0.0025 0.0403-0.0155 0.0784-0.0156 0.1191 0.0007 0.787 0.4623 1.5 1.1797 1.822 0.1171 0.26 0.2975 0.472 0.5019 0.655a1.5 2 0 0 0 -0.0527 0.523 1.5 2 0 0 0 1.5 2 1.5 2 0 0 0 1.5 -2 1.5 2 0 0 0 -0.0312 -0.4 1.5 2 0 0 0 0.0312 -0.161c0.3698 0.353 0.8557 0.56 1.3711 0.561 0.6015-0.001 1.148-0.28 1.52-0.723a2.5 1.8527 0 0 0 0.496 0.358 1.5 2 0 0 0 0.004 0.051 1.5 2 0 0 0 -0.02 0.314 1.5 2 0 0 0 1.5 2 1.5 2 0 0 0 1.5 -2 1.5 2 0 0 0 -0.02 -0.326 1.5 2 0 0 0 0.004 -0.037 2.5 1.8527 0 0 0 1.016 -1.491 2.5 1.8527 0 0 0 -0.705 -1.2866c1.005-0.338 1.704-1.2766 1.705-2.3594-0.001-0.8571-0.441-1.654-1.166-2.1113 0.109-0.2837 0.165-0.5848 0.166-0.8887 0-1.3807-1.119-2.5-2.5-2.5-0.303 0.0005-0.604 0.0561-0.887 0.1641-0.458-0.7248-1.256-1.1642-2.113-1.1641zm0 0.9531h0.002c0.531 0.0006 1.023 0.2716 1.307 0.7207 0.242 0.383 0.721 0.5423 1.144 0.3809 0.175-0.0666 0.36-0.101 0.547-0.1016h0.002c0.865 0.0011 1.545 0.6817 1.545 1.5469-0.001 0.1874-0.035 0.3719-0.102 0.5469-0.163 0.4246-0.004 0.9057 0.381 1.1484 0.449 0.2834 0.72 0.7737 0.721 1.3047-0.002 0.74-0.513 1.3662-1.238 1.5137-0.462 0.0939-0.786 0.5116-0.762 0.9824v0.0039c0 0.135-0.029 0.26-0.072 0.377 0.273 0.06 0.518 0.161 0.683 0.283 0.257 0.19 0.318 0.363 0.319 0.486 0 0.124-0.062 0.298-0.319 0.489-0.257 0.19-0.702 0.342-1.158 0.342s-0.901-0.152-1.158-0.342c-0.516-0.409-0.527-0.937-1.3557-0.289-0.1475 0.422-0.5396 0.697-0.9863 0.699-0.3003-0.001-0.5868-0.128-0.7852-0.354-0.3793-0.43-1.0503-0.43-1.4296 0-0.1984 0.226-0.4849 0.353-0.7852 0.354-0.4124-0.002-0.7815-0.239-0.9512-0.615-0.0959-0.212-0.2661-0.382-0.4785-0.477-0.3773-0.17-0.6161-0.538-0.6172-0.951 0.0006-0.3825 0.2062-0.7312 0.541-0.9161 0.3828-0.2111 0.5728-0.6555 0.461-1.0781-0.001-0.0039-0.002-0.0077-0.002-0.0117-0.002-0.5249-0.4282-0.9494-0.9531-0.9492-0.0374 0-0.0469-0.0095-0.0469-0.0469 0.0002-0.5265-0.4266-0.9533-0.9531-0.9531-0.5897 0-1.0469-0.4572-1.0469-1.0469s0.4572-1.0469 1.0469-1.0469c0.2081 0 0.4112 0.0617 0.584 0.1778 0.5177 0.3469 1.2237 0.1116 1.4297-0.4766 0.1476-0.4223 0.5391-0.6997 0.9863-0.7012 0.2358 0.0009 0.4639 0.0816 0.6484 0.2285 0.4811 0.3826 1.1933 0.2163 1.4551-0.3398 0.2555-0.5429 0.7966-0.8869 1.3965-0.8887z" fill="#f1f2f2"/>
</svg>
