<?xml version="1.0" encoding="UTF-8" standalone="no"?>
<!--Part of Monotone: https://github.com/sixsixfive/Monotone, released under cc-by-sa_v4-->
<svg xmlns="http://www.w3.org/2000/svg" version="1.1" viewBox="0 0 16 16">
 <path d="m2.469 1c-0.821 0-1.469 0.648-1.469 1.469v11.061c0 0.822 0.648 1.47 1.469 1.47h9.062c0.821 0 1.469-0.648 1.469-1.469v-11.061c0-0.822-0.648-1.47-1.469-1.47zm-0.469 1h10v11h-10z" fill="#f1f2f2"/>
 <path d="m3.5 4c-0.277 0-0.5 0.223-0.5 0.5s0.223 0.5 0.5 0.5h1 5 1c0.277 0 0.5-0.223 0.5-0.5s-0.223-0.5-0.5-0.5h-1-5-1zm0 2c-0.277 0-0.5 0.223-0.5 0.5s0.223 0.5 0.5 0.5h4.25 1c0.277 0 0.5-0.223 0.5-0.5s-0.223-0.5-0.5-0.5h-1-4.25zm0 2c-0.277 0-0.5 0.223-0.5 0.5s0.223 0.5 0.5 0.5h6 1c0.277 0 0.5-0.223 0.5-0.5s-0.223-0.5-0.5-0.5h-1-6zm0 2c-0.277 0-0.5 0.223-0.5 0.5s0.223 0.5 0.5 0.5h2.5 1c0.277 0 0.5-0.223 0.5-0.5s-0.223-0.5-0.5-0.5h-1-2.5z" fill-opacity=".99827" fill="#f1f2f2"/>
</svg>
