<?xml version="1.0" encoding="UTF-8" standalone="no"?>
<!--Part of Monotone: https://github.com/sixsixfive/Monotone, released under cc-by-sa_v4-->
<svg id="svg6" xmlns="http://www.w3.org/2000/svg" version="1.1" viewBox="0 0 16 16"><path id="path2" style="text-indent:0;text-decoration-line:none;text-transform:none;fill:#f1f2f2" d="m7.9883 0.99609c-3.842 0-6.9922 3.1492-6.9922 6.9922-0.00001 3.1517 2.1208 5.8497 5.0039 6.7187v-4.473c-0.6107-0.5477-0.9961-1.3416-0.9961-2.2457 0-1.68 1.3034-2.9844 2.9844-2.9844 1.3298 0 2.4277 0.8219 2.8317 1.9961h4.104c-0.489-3.3782-3.43-6.0039-6.9357-6.0039zm0.0176 5.0098c-1.099 0-2.0137 0.8981-2.0137 1.9961 0 0.0261 0.0068 0.0502 0.0078 0.0761v-0.0781c0-0.554 0.446-1 1-1h2.7266a2.002 2.002 0 0 0 -1.7207 -0.9941z"/><path id="path125" style="color:#000000;text-indent:0;text-decoration-line:none;text-transform:none;fill:#f1f2f2" d="m7 8v8h9v-6l-2-2zm1 1h5v2h2v4h-7z" overflow="visible" font-weight="400"/><path id="path127" style="opacity:.7;color:#000000;stroke-width:1.0072;fill:#f1f2f2" overflow="visible" d="m9 12.783c1.9333 1.2173 2.5375-2.0208 5 0v1.217h-5z"/></svg>
