<?xml version="1.0" encoding="UTF-8" standalone="no"?>
<!--Part of Monotone: https://github.com/sixsixfive/Monotone, released under cc-by-sa_v4-->
<svg xmlns="http://www.w3.org/2000/svg" version="1.1" viewBox="0 0 16 16">
 <path opacity=".5" fill="#f1f2f2" d="m3.5 1c-1.3819-0.00277-2.5028 1.1181-2.5 2.5v5.5117c0.0195-0.0023 0.0365-0.0117 0.0566-0.0117h5.9434v-1c0-0.554 0.446-1 1-1h7v-3.5c0-1.385-1.115-2.5-2.5-2.5h-9zm-2.5 8.9883v1.5117c0 1.385 1.115 2.5 2.5 2.5h3.5v-4h-5.9434c-0.0205 0-0.0371-0.0094-0.0566-0.0117z"/>
 <path fill="#f1f2f2" d="m8.875 8a0.863 0.863 0 0 0 -0.875 0.875v6.25c0 0.492 0.383 0.875 0.875 0.875h6.25a0.863 0.863 0 0 0 0.875 -0.875v-6.25a0.863 0.863 0 0 0 -0.875 -0.875zm2.125 1h2v1h-2zm0 2h2v4h-2z"/>
</svg>
