<?xml version="1.0" encoding="UTF-8" standalone="no"?>
<!--Part of Monotone: https://github.com/sixsixfive/Monotone, released under cc-by-sa_v4-->
<svg xmlns:rdf="http://www.w3.org/1999/02/22-rdf-syntax-ns#" xmlns="http://www.w3.org/2000/svg" version="1.1" xmlns:cc="http://creativecommons.org/ns#" xmlns:dc="http://purl.org/dc/elements/1.1/" viewBox="0 0 16 16">
 <metadata>
  <rdf:RDF>
   <cc:Work rdf:about="">
    <dc:format>image/svg+xml</dc:format>
    <dc:type rdf:resource="http://purl.org/dc/dcmitype/StillImage"/>
    <dc:title/>
   </cc:Work>
  </rdf:RDF>
 </metadata>
 <path fill="#f1f2f2" d="m3.5 1c-1.3819-0.00277-2.5028 1.1181-2.5 2.5v5.5117c0.0195-0.0023 0.0365-0.0117 0.0566-0.0117h11.443 1 1.5v-5.5c0-1.385-1.115-2.5-2.5-2.5h-9zm-2.5 8.9883v1.5117c0 1.385 1.115 2.5 2.5 2.5h5.5v-0.469c0-0.635 0.46-1.052 1-1.261v-0.885c0-0.525 0.178-0.999 0.471-1.385h-9.4144c-0.0205 0-0.0371-0.0094-0.0566-0.0117z"/>
 <path style="color:#f1f2f2" fill="#f1f2f2" overflow="visible" d="m12.5 10c-0.822 0-1.5 0.626-1.5 1.385v1.685h-0.5c-0.277 0-0.5 0.205-0.5 0.461v2.469h6v-2.469c0-0.256-0.223-0.461-0.5-0.461h-0.5v-1.685c0-0.76-0.678-1.385-1.5-1.385zm0 0.923h1c0.286 0 0.5 0.198 0.5 0.462v1.685h-2v-1.685c0-0.264 0.214-0.462 0.5-0.462z"/>
</svg>
