<?xml version="1.0" encoding="UTF-8" standalone="no"?>
<!--Part of Monotone: https://github.com/sixsixfive/Monotone, released under cc-by-sa_v4-->
<svg xmlns="http://www.w3.org/2000/svg" version="1" viewBox="0 0 16 16">
<g fill="#f1f2f2">
<path opacity=".5" d="m2 1c-0.554 0-1 0.446-1 1v12c0 0.554 0.446 1 1 1h7.8867a1.0079 1.0079 0 0 1 -0.8945 -1v-1.996a1.0079 1.0079 0 0 1 0.9394 -1.004h-0.9316v-1c0-0.257 0.1305-0.5288 0.3125-0.7188l1.2815-1.2812-1.2815-1.2812c-0.182-0.191-0.3125-0.4618-0.3125-0.7188v-1h1c0.31 0 0.552 0.0912 0.75 0.2812l2.656 2.7188-0.976 1h1.57a1.0079 1.0079 0 0 1 1 0.8926v-7.8926c0-0.554-0.446-1-1-1h-12zm4 4h1v1c0 0.257-0.1305 0.5278-0.3125 0.7188l-1.2813 1.2812 1.2813 1.2812c0.182 0.19 0.3125 0.4618 0.3125 0.7188v1h-1c-0.31 0-0.552-0.09-0.75-0.281l-2.6562-2.719 2.6562-2.7188c0.198-0.19 0.44-0.2812 0.75-0.2812zm4.992 5.471l-0.242 0.248c-0.192 0.185-0.429 0.272-0.727 0.277h0.969v-0.525z"/>
</g>
<path fill="#f1f2f2" d="m12 10.007v1.996h-2v1.997h2v1.997h2v-1.997h2v-1.997h-2v-1.996z"/>
</svg>
