<?xml version="1.0" encoding="UTF-8"?>
<!--Part of Monotone: https://github.com/sixsixfive/Monotone, released under cc-by-sa_v4-->
<svg version="1.1" viewBox="0 0 16 16" xmlns="http://www.w3.org/2000/svg">
<g transform="translate(0,-32)">
<path d="m2 46c8-1 12-6 13-13l-5 1c0 4-3 9-8 12z" style="fill:#f1f2f2"/>
<path transform="translate(0,32)" d="m1 1c0.52691 3.6884 1.8973 6.8124 4.2363 9.0977 0.15916-0.17123 0.31113-0.34453 0.46094-0.51953-0.10459-0.10258-0.21218-0.20237-0.3125-0.30859-1.7893-1.8946-2.8448-4.4423-3.416-7.3633l3.4336 0.6875c0.10616 1.6984 0.67357 3.4755 1.6348 5.1914 0.13434-0.20921 0.26162-0.4184 0.38281-0.62891-0.91927-1.7502-1.4199-3.5348-1.4199-5.1562l-5-1zm9.7168 10.492c-0.1524 0.12775-0.30977 0.25136-0.46875 0.37305 0.28613 0.27435 0.57062 0.55086 0.87891 0.8125-0.46591-0.13893-0.90741-0.2987-1.3359-0.4707-0.2321 0.16273-0.47173 0.31647-0.7168 0.4668 1.4381 0.63778 3.0695 1.0941 4.9258 1.3262-1.2187-0.73123-2.3166-1.5824-3.2832-2.5078z" style="fill:#f1f2f2"/>
</g>
</svg>
