<?xml version="1.0" encoding="UTF-8" standalone="no"?>
<!--Part of Monotone: https://github.com/sixsixfive/Monotone, released under cc-by-sa_v4-->
<svg id="svg12" xmlns="http://www.w3.org/2000/svg" viewBox="0 0 16 16" version="1.1"><path id="path820" style="fill:#f1f2f2" d="m3 2l3 7v1.623c0.132-0.004 0.2567-0.003 0.4121-0.025 0.7601-0.11 1.7616-0.54 2.6367-1.1585-0.0245-0.1452-0.0488-0.2908-0.0488-0.4395 0-1.307 0.9933-2.5038 2.23-2.873l1.77-4.127h-3l-2 5-2-5h-3zm7 10.846c-0.9878 0.54-2.0352 0.932-3.0723 1.082-0.3114 0.045-0.6207 0.061-0.9277 0.064v1.008h4v-2.154z"/><path id="path822" style="opacity:0.7;fill:#f1f2f2" d="m9.8789 2.0039a4.6013 6.714 51.959 0 0 -3.4609 1.041l0.5273 1.3203c0.832-0.4955 1.7095-0.8408 2.4902-0.955l0.5625-1.4063a4.6013 6.714 51.959 0 0 -0.1191 0zm-5.6973 2.7559a4.6013 6.714 51.959 0 0 -1.1953 7.1832 4.6013 6.714 51.959 0 0 8.2067 -1.115 2 2 0 0 0 0.807 0.172 2 2 0 0 0 2 -2 2 2 0 0 0 -2 -2 2 2 0 0 0 -2 2 2 2 0 0 0 0.186 0.834c-1.1066 0.946-2.478 1.591-3.6294 1.758-1.1863 0.171-2.0357-0.108-2.5175-0.582-0.4821-0.474-0.7356-1.2798-0.4903-2.3772 0.1718-0.768 0.6226-1.6291 1.2559-2.4199l-0.6231-1.4531z"/></svg>
