<?xml version="1.0" encoding="UTF-8" standalone="no"?>
<!--Part of Monotone: https://github.com/sixsixfive/Monotone, released under cc-by-sa_v4-->
<svg id="svg4" xmlns="http://www.w3.org/2000/svg" version="1.1" viewBox="0 0 16 16"><path id="path4489" style="fill:#f1f2f2" d="m3.1875 2c-0.664 0-1.1875 0.5488-1.1875 1.2188v9.5622c0 0.67 0.5245 1.219 1.1875 1.219h9.6245c0.664 0 1.188-0.549 1.188-1.219v-9.5603c0-0.671-0.524-1.2207-1.188-1.2207h-9.6245zm1.8125 2h1v5h-1v-4h-1v-0.5c0.347 0 1-0.174 1-0.5zm2 2h1v4h-1v-4zm2.498 1h0.002 2.5v1 1.5 0.002c-0.001 0.2753-0.224 0.498-0.5 0.498h-1-0.5v1h1.5c0.275 0 0.499 0.223 0.5 0.498v0.002c0 0.276-0.222 0.499-0.498 0.5h-0.002-2.5v-0.5-0.5-1.498-0.002c0-0.2758 0.2223-0.4994 0.498-0.5h0.002 1 0.5v-1h-1.5c-0.2754 0-0.4989-0.2227-0.5-0.498v-0.002c0-0.2758 0.2223-0.4994 0.498-0.5z"/></svg>
