<?xml version="1.0" encoding="UTF-8"?>
<!--Part of Monotone: https://github.com/sixsixfive/Monotone, released under cc-by-sa_v4-->
<svg version="1.1" viewBox="0 0 16 16" xmlns="http://www.w3.org/2000/svg">
<path d="m3.1875 2c-0.664 0-1.1875 0.54875-1.1875 1.2188v9.5625c0 0.67 0.5245 1.2188 1.1875 1.2188h9.625c0.664 0 1.1875-0.54875 1.1875-1.2188v-9.5605c0-0.671-0.5235-1.2207-1.1875-1.2207h-9.625zm0.8125 2h1v1h1v-1h1v1h1v-1h1v1h1v-1h1v1h1v1h-1v1h1v1h-1v1h1v1h-1v1h1v1h-1v-1h-1v1h-1v-1h-1v1h-1v-1h-1v1h-1v-1h-1v-1h1v-1h-1v-1h1v-1h-1v-1h1v-1h-1v-1zm1 2v1h1v-1h-1zm1 0h1v-1h-1v1zm1 0v1h1v-1h-1zm1 0h1v-1h-1v1zm1 0v1h1v-1h-1zm1 0h1v-1h-1v1zm0 1v1h1v-1h-1zm0 1h-1v1h1v-1zm0 1v1h1v-1h-1zm0 1h-1v1h1v-1zm-1 0v-1h-1v1h1zm-1 0h-1v1h1v-1zm-1 0v-1h-1v1h1zm-1 0h-1v1h1v-1zm0-1v-1h-1v1h1zm0-1h1v-1h-1v1zm1 0v1h1v-1h-1zm1 0h1v-1h-1v1z" style="fill:#f1f2f2"/>
</svg>
