<?xml version="1.0" encoding="UTF-8"?>
<!--Part of Monotone: https://github.com/sixsixfive/Monotone, released under cc-by-sa_v4-->
<svg version="1.1" viewBox="0 0 16 16" xmlns="http://www.w3.org/2000/svg">
<path d="m3.1875 2c-0.664 0-1.1875 0.5487-1.1875 1.2188v9.5625c0 0.67 0.5245 1.2188 1.1875 1.2188h9.625c0.664 0 1.1875-0.5487 1.1875-1.2188v-9.5605c0-0.671-0.5235-1.2207-1.1875-1.2207h-9.625zm1.3145 1.998a0.50005 0.50005 0 0 1 0.050781 0.0039062c4.0013 0.43193 6.0567 1.6568 6.9316 3.209 0.8749 1.5522 0.48513 3.2634-0.023437 4.4824a0.50005 0.50005 0 0 1-0.86524 0.10156c-1.0986-1.5114-2.0696-1.8942-2.9844-1.7793-0.9148 0.11488-1.8812 0.81885-2.7324 1.8105a0.50005 0.50005 0 0 1-0.875-0.39258c0.013808-0.10285 0.10912-0.15575 0.13867-0.25l-0.021484-0.009766c0.016036-0.01868 0.03659-0.030258 0.052734-0.048828 0.1461-0.41239 0.34332-0.79973 0.61523-1.1172 0.34702-0.40514 0.71058-0.78673 0.91016-1.1152 0.19957-0.3285 0.24683-0.51446 0.11914-0.78125s-0.55318-0.68812-1.5352-1.1602a0.50056 0.50056 0 1 1 0.43359-0.90234c1.0802 0.51927 1.7119 1.0207 2.0039 1.6309 0.28853 0.60282 0.12296 1.2381-0.16016 1.7129 0.30809-0.12732 0.59382-0.32745 0.92578-0.36914 1.0767-0.1352 2.1878 0.45548 3.2383 1.5527 0.27588-0.93386 0.40851-1.9527-0.11133-2.875-0.65483-1.1617-2.3275-2.2888-6.166-2.7031a0.50005 0.50005 0 0 1 0.0058594-0.99805 0.50005 0.50005 0 0 1 0.048828-0.0019531z" style="fill:#f1f2f2"/>
</svg>
