<?xml version="1.0" encoding="UTF-8" standalone="no"?>
<!--Part of Monotone: https://github.com/sixsixfive/Monotone, released under cc-by-sa_v4-->
<svg id="svg4" xmlns="http://www.w3.org/2000/svg" version="1.1" viewBox="0 0 16 16"><path id="path2" style="fill:#f1f2f2" d="m3.1875 2c-0.664 0-1.1875 0.5488-1.1875 1.2188v9.5622c0 0.67 0.5245 1.219 1.1875 1.219h9.6245c0.664 0 1.188-0.549 1.188-1.219v-9.5603c0-0.671-0.524-1.2207-1.188-1.2207h-9.6245zm2.8105 2h0.002 5v2 2 0.0039c-0.002 0.5508-0.449 0.9961-1 0.9961h-2-0.5371v1h2.5371a1 1 0 0 1 1 0.996v0.004a1 1 0 0 1 -0.998 1h-0.002-5v-1-1-1.9961-0.0039c0-0.5515 0.4465-0.9989 0.998-1h0.002 2 1v-1h-3a1 1 0 0 1 -1 -0.9961v-0.0039a1 1 0 0 1 0.998 -1z"/></svg>
