<?xml version="1.0" encoding="UTF-8" standalone="no"?>
<!--Part of Monotone: https://github.com/sixsixfive/Monotone, released under cc-by-sa_v4-->
<svg xmlns="http://www.w3.org/2000/svg" version="1.1" viewBox="0 0 16 16">
 <g fill="#f1f2f2">
  <path style="color:#000000;text-decoration-line:none;text-transform:none;text-indent:0" d="m6.5078 0.99609c-3.027 0-5.5117 2.4789-5.5117 5.5039-0.00001 3.025 2.4837 5.504 5.5117 5.504 3.03 0 5.5102-2.479 5.5102-5.504 0-0.5202-0.078-1.0219-0.215-1.5h-0.803v1a1.0001 1.0001 0 0 1 -1.0293 1 1.0001 1.0001 0 0 1 -0.0019 0 3.479 3.479 0 0 1 -3.461 2.9961 3.48 3.48 0 0 1 -3.5 -3.4961 3.479 3.479 0 0 1 2.9942 -3.459 1.0001 1.0001 0 0 1 0.291 -0.748l1.2011-1.2012c-0.3209-0.0588-0.6491-0.09571-0.9863-0.09571z"/>
  <path style="color:#000000;text-decoration-line:none;text-transform:none;text-indent:0" d="m9.812 9a1 1 0 0 0 -0.5 1.719l4 4a1.0056 1.0056 0 1 0 1.406 -1.438l-4-4a1 1 0 0 0 -0.906 -0.281z" overflow="visible"/>
  <g transform="matrix(0 -1 -1 0 54 17.926)">
   <path d="m17.926 44h-2v-5h-2v5h-2l3 3z"/>
  </g>
 </g>
</svg>
