<?xml version="1.0" encoding="UTF-8"?>
<!--Part of Monotone: https://github.com/sixsixfive/Monotone, released under cc-by-sa_v4-->
<svg version="1.1" viewBox="0 0 16 16" xmlns="http://www.w3.org/2000/svg">
<path d="m3.1875 2c-0.664 0-1.1875 0.54875-1.1875 1.2188v9.5625c0 0.67 0.5245 1.2188 1.1875 1.2188h9.625c0.664 0 1.1875-0.54875 1.1875-1.2188v-9.5605c0-0.671-0.5235-1.2207-1.1875-1.2207h-9.625zm3.8125 2a3 3 0 0 1 3 3 3 3 0 0 1-0.44141 1.5586l2.4414 2.4414c0 0.53884 0 1-1 1l-2.4414-2.4414a3 3 0 0 1-1.5586 0.44141 3 3 0 0 1-3-3 3 3 0 0 1 3-3zm0 1a2 2 0 0 0-2 2 2 2 0 0 0 2 2 2 2 0 0 0 2-2 2 2 0 0 0-2-2z" style="fill:#f1f2f2"/>
</svg>
