<?xml version="1.0" encoding="UTF-8" standalone="no"?>
<!--Part of Monotone: https://github.com/sixsixfive/Monotone, released under cc-by-sa_v4-->
<svg id="svg8" xmlns="http://www.w3.org/2000/svg" viewBox="0 0 16 16" version="1.1"><g id="g4" fill="#333333"><path id="path2" style="fill:#333333" d="m8.035 0c-4.383 0-7.941 3.6-7.941 8s3.558 8 7.941 8c4.384 0 7.97-3.594 7.97-8a7.87 7.87 0 0 0 -0.126 -1.297 1 1 0 0 0 -1.656 -0.586l-5.729 5.133-2.67-2.672 0.676-0.662 1.227 1.313a1 1 0 0 0 1.423 0.039l5.063-4.862a1 1 0 0 0 0.098 -1.336 7.943 7.943 0 0 0 -6.276 -3.07z" fill-rule="evenodd"/></g><path id="path6" fill-rule="evenodd" d="m8.036 1c-3.84 0-6.942 3.135-6.942 7s3.103 7 6.942 7c3.838 0 6.97-3.135 6.97-7a7.04 7.04 0 0 0 -0.116 -1.137l-6.434 5.763-4.053-4.055 2.126-2.086 1.928 2.06 5.062-4.862a6.93 6.93 0 0 0 -5.483 -2.683z" fill="#f1f2f2"/></svg>
