<?xml version="1.0" encoding="UTF-8" standalone="no"?>
<!--Part of Monotone: https://github.com/sixsixfive/Monotone, released under cc-by-sa_v4-->
<svg id="svg8" xmlns="http://www.w3.org/2000/svg" viewBox="0 0 16 16" version="1.1"><g id="g6"><path id="path2" style="fill:#333333" overflow="visible" d="m8 0c-0.255 0-0.505 0.013-0.748 0.035a1 1 0 0 0 -0.89 0.805l-0.26 1.34-0.973-0.934a1 1 0 0 0 -1.201 -0.139c-0.48 0.285-0.868 0.615-1.217 0.926a1 1 0 0 0 -0.239 1.178l0.569 1.193-1.315-0.175a1 1 0 0 0 -1.05 0.591 7.895 7.895 0 0 0 -0.466 1.465 1 1 0 0 0 0.5 1.094l1.145 0.621-1.144 0.621a1 1 0 0 0 -0.5 1.094c0.109 0.497 0.257 0.987 0.465 1.465a1 1 0 0 0 1.05 0.592l1.315-0.176-0.569 1.193a1 1 0 0 0 0.239 1.178c0.35 0.31 0.736 0.641 1.217 0.926a1 1 0 0 0 1.2 -0.139l0.973-0.934 0.26 1.34a1 1 0 0 0 0.89 0.805 8.108 8.108 0 0 0 1.497 0 1 1 0 0 0 0.89 -0.805l0.26-1.34 0.973 0.934a1 1 0 0 0 1.201 0.139c0.48-0.285 0.867-0.615 1.217-0.926a1 1 0 0 0 0.238 -1.178l-0.568-1.193 1.314 0.175a1 1 0 0 0 1.051 -0.591c0.208-0.478 0.356-0.968 0.465-1.465a1 1 0 0 0 -0.5 -1.094l-1.145-0.621 1.145-0.621a1 1 0 0 0 0.5 -1.094 7.892 7.892 0 0 0 -0.465 -1.465 1 1 0 0 0 -1.05 -0.591l-1.315 0.175 0.568-1.193a1 1 0 0 0 -0.238 -1.178c-0.35-0.31-0.737-0.641-1.217-0.926a1 1 0 0 0 -1.201 0.14l-0.973 0.933-0.26-1.34a1 1 0 0 0 -0.89 -0.805 8.093 8.093 0 0 0 -0.748 -0.035zm0 6c1.116 0 2 0.884 2 2s-0.884 2-2 2c-1.117 0-2-0.884-2-2s0.883-2 2-2z" fill="#333333"/><path id="path4" overflow="visible" d="m8 1c-0.22 0-0.44 0.011-0.656 0.031l-0.406 2.094a5.012 5.012 0 0 0 -0.969 0.312l-1.531-1.467c-0.389 0.23-0.727 0.514-1.063 0.812l0.906 1.906a5.057 5.057 0 0 0 -0.593 0.813l-2.094-0.281a6.91 6.91 0 0 0 -0.406 1.28l1.843 1a4.826 4.826 0 0 0 -0.03 0.5c0 0.173 0.013 0.332 0.03 0.5l-1.843 1c0.097 0.445 0.228 0.872 0.406 1.281l2.094-0.281c0.17 0.29 0.371 0.563 0.593 0.812l-0.906 1.907c0.336 0.298 0.674 0.582 1.063 0.812l1.531-1.469c0.306 0.137 0.634 0.24 0.969 0.313l0.406 2.094a7.118 7.118 0 0 0 1.312 0l0.407-2.094c0.334-0.073 0.663-0.176 0.968-0.313l1.532 1.47c0.388-0.23 0.727-0.515 1.062-0.813l-0.906-1.907c0.222-0.249 0.424-0.522 0.594-0.812l2.093 0.281a6.91 6.91 0 0 0 0.407 -1.281l-1.844-1c0.017-0.168 0.031-0.327 0.031-0.5s-0.014-0.332-0.031-0.5l1.844-1a6.908 6.908 0 0 0 -0.407 -1.281l-2.093 0.281a5.057 5.057 0 0 0 -0.594 -0.813l0.906-1.906c-0.335-0.298-0.674-0.582-1.062-0.812l-1.533 1.468a5.015 5.015 0 0 0 -0.968 -0.312l-0.407-2.094a7.118 7.118 0 0 0 -0.655 -0.031zm0 4a3 3 0 1 1 0 6 3 3 0 0 1 0 -6z" fill="#f1f2f2"/></g></svg>
