<?xml version="1.0" encoding="UTF-8" standalone="no"?>
<!--Part of Monotone: https://github.com/sixsixfive/Monotone, released under cc-by-sa_v4-->
<svg xmlns="http://www.w3.org/2000/svg" version="1.1" viewBox="0 0 16 16">
 <rect ry=".5" height="14" width="16" y="2" x="0" fill="#333333"/>
 <g fill="#f1f2f2">
  <path d="m1 7v7.477c0 0.29 0.2335 0.523 0.5234 0.523h12.954c0.29 0 0.523-0.233 0.523-0.523v-7.477h-5v0.8027c0 0.649-0.6095 1.1973-1.3301 1.1973h-1.3398c-0.7206 0-1.3301-0.5483-1.3301-1.1973v-0.8027h-5z"/>
  <path d="m1.4707 3c-0.261 0-0.4707 0.2097-0.4707 0.4707v2.5293h5v-3h-4.5293zm8.5293 0v3h5v-2.5293c0-0.261-0.21-0.4707-0.471-0.4707h-4.529z"/>
  <rect ry=".15702" height="5" width="2" y="3" x="7"/>
 </g>
</svg>
