<?xml version="1.0" encoding="UTF-8" standalone="no"?>
<!--Part of Monotone: https://github.com/sixsixfive/Monotone, released under cc-by-sa_v4-->
<svg xmlns="http://www.w3.org/2000/svg" version="1.1" viewBox="0 0 16 16">
 <g color="#f1f2f2" font-weight="400" font-family="Sans">
  <path style="text-decoration-line:none;text-transform:none;text-indent:0" d="m13.875-0.004a0.973 0.973 0 0 0 -0.15 0.016c-0.05 0.009-0.103 0.024-0.157 0.039a1.94 1.94 0 0 0 -1.54 1.972v0.178c-1.208-0.677-2.535-1.174-4.028-1.174-3.718 0-6.888 2.391-7.928 5.68a0.973 0.973 0 0 0 0.928 1.266h2.191a0.973 0.973 0 0 0 0.885 -0.567c0.648-1.411 2.145-2.433 3.924-2.433 0.148 0 0.249 0.11 0.393 0.125-0.155 0.28-0.357 0.537-0.36 0.888a1.983 1.983 0 0 0 0 0.34l-0.006-0.107v0.781a0.973 0.973 0 0 0 0.973 0.973h6a0.973 0.973 0 0 0 0.973 -0.973v-5l-0.004 0.094a1.96 1.96 0 0 0 0 -0.375l0.004 0.093v-0.812a0.973 0.973 0 0 0 -0.973 -0.973h-0.813l0.243 0.03a1.968 1.968 0 0 0 -0.555 -0.06zm-12.875 8.031a0.973 0.973 0 0 0 -0.973 0.973v5l0.004-0.094a1.96 1.96 0 0 0 0 0.375l-0.004-0.094v0.813a0.973 0.973 0 0 0 0.973 0.973h0.813l-0.243-0.03c0.18 0.047 0.367 0.067 0.555 0.06a0.973 0.973 0 0 0 0.15 -0.015c0.05-0.009 0.103-0.024 0.157-0.039a1.94 1.94 0 0 0 1.54 -1.972v-0.178c1.208 0.677 2.534 1.174 4.028 1.174 3.718 0 6.888-2.391 7.928-5.68a0.973 0.973 0 0 0 -0.928 -1.266h-2.191a0.973 0.973 0 0 0 -0.885 0.567c-0.648 1.411-2.145 2.433-3.924 2.433-0.148 0-0.249-0.11-0.393-0.125 0.155-0.28 0.357-0.537 0.36-0.888a1.983 1.983 0 0 0 0 -0.34l0.006 0.107v-0.781a0.973 0.973 0 0 0 -0.973 -0.973h-3.809z" overflow="visible" fill="#333333"/>
  <path style="text-decoration-line:none;text-transform:none;text-indent:0" d="m13.906 0.969a1.048 1.048 0 0 0 -0.125 0.031c-0.447 0.1-0.792 0.542-0.781 1v1.688c0 0.104-0.007 0.153-0.008 0.242a7.416 7.416 0 0 0 -4.992 -1.93c-3.3 0-6.091 2.126-7 5h2.191c0.81-1.765 2.657-3 4.809-3 1.176 0 2.253 0.378 3.127 1h-1.127c-0.524 0-1 0.476-1 1a1 1 0 0 0 0 0.219v0.781h6v-5a0.979 0.979 0 0 0 0 -0.188v-0.812h-0.813a1.002 1.002 0 0 0 -0.28 -0.031zm-12.906 8.031v5a0.979 0.979 0 0 0 0 0.188v0.812h0.813c0.091 0.024 0.186 0.034 0.28 0.031 0.043-0.008 0.085-0.018 0.126-0.031 0.447-0.1 0.792-0.542 0.781-1v-1.688c0-0.104 0.007-0.153 0.008-0.242a7.416 7.416 0 0 0 4.992 1.93c3.3 0 6.091-2.126 7-5h-2.191c-0.81 1.765-2.657 3-4.809 3a5.374 5.374 0 0 1 -3.127 -1h1.127c0.524 0 1-0.476 1-1a1 1 0 0 0 0 -0.219v-0.781h-6z" overflow="visible" fill="#f1f2f2"/>
 </g>
</svg>
