<!--Part of Monotone: https://github.com/sixsixfive/Monotone, released under cc-by-sa_v4-->
<svg xmlns="http://www.w3.org/2000/svg" version="1.1" viewBox="0 0 16 16"><path d="m12.99 0a1.0744 1.0744 0 0 0 -0.705 0.26367l-0.998 0.86913a1.0744 1.0744 0 0 0 -0.34766 0.60938 1.0744 1.0744 0 0 0 -0.65234 0.26172l-6.9921 6.0918a1.0744 1.0744 0 0 0 -0.3496 0.6074h-0.9473a1.0744 1.0744 0 0 0 -1.0332 0.7774l-1 3.4824a1.0744 1.0744 0 0 0 0.052734 0.73438 1.0744 1.0744 0 0 0 -0.091797 0.43164v0.871a1.0744 1.0744 0 0 0 1.0743 1.074h11.992a1.0744 1.0744 0 0 0 1.074 -1.074v-0.87109a1.0744 1.0744 0 0 0 -0.0918 -0.43555 1.0744 1.0744 0 0 0 0.05078 -0.73047l-1-3.4824a1.0744 1.0744 0 0 0 -1.033 -0.7775h-2.1268l3.8318-3.3379a1.0744 1.0744 0 0 0 0.34766 -0.60742 1.0744 1.0744 0 0 0 0.65039 -0.26172l1-0.87109a1.0744 1.0744 0 0 0 0.369 -0.8105c0-1.4892-1.327-2.8145-3.074-2.8145z" stroke-width=".93298" fill="#333333"/><g fill="#f1f2f2" transform="matrix(1 0 0 .87046 -264 -186.08)"><path d="m266 225-1 4h11.993l-1-4h-2.998l-2.49 2h-3.506v-2z"/><rect ry="0" height="1" width="11.992" y="230" x="265"/><path fill-rule="evenodd" d="m268 224 6.993-6.999c1 0 1.999 1 1.999 2l-6.996 7h-1.998z"/><path d="m275.99 216c1 0 1.999 1 1.999 2l1-1c0-1-0.752-2-2-2z" overflow="visible"/></g></svg>
