<?xml version="1.0" encoding="UTF-8" standalone="no"?>
<svg
   xmlns:dc="http://purl.org/dc/elements/1.1/"
   xmlns:cc="http://creativecommons.org/ns#"
   xmlns:rdf="http://www.w3.org/1999/02/22-rdf-syntax-ns#"
   xmlns:svg="http://www.w3.org/2000/svg"
   xmlns="http://www.w3.org/2000/svg"
   xmlns:sodipodi="http://sodipodi.sourceforge.net/DTD/sodipodi-0.dtd"
   xmlns:inkscape="http://www.inkscape.org/namespaces/inkscape"
   viewBox="0 0 16 16"
   version="1.1"
   id="svg20"
   sodipodi:docname="syncthing.svg"
   inkscape:version="0.92.2 (5c3e80d, 2017-08-06)">
  <defs
     id="defs24" />
  <sodipodi:namedview
     pagecolor="#ffffff"
     bordercolor="#666666"
     borderopacity="1"
     objecttolerance="10"
     gridtolerance="10"
     guidetolerance="10"
     inkscape:pageopacity="0"
     inkscape:pageshadow="2"
     inkscape:window-width="1686"
     inkscape:window-height="689"
     id="namedview22"
     showgrid="true"
     inkscape:zoom="14.75"
     inkscape:cx="-1.559322"
     inkscape:cy="8"
     inkscape:window-x="808"
     inkscape:window-y="51"
     inkscape:window-maximized="0"
     inkscape:current-layer="svg20">
    <inkscape:grid
       type="xygrid"
       id="grid38" />
  </sodipodi:namedview>
  <metadata
     id="metadata2">
    <rdf:RDF>
      <cc:Work
         rdf:about="">
        <dc:format>image/svg+xml</dc:format>
        <dc:type
           rdf:resource="http://purl.org/dc/dcmitype/StillImage" />
        <dc:title></dc:title>
      </cc:Work>
    </rdf:RDF>
  </metadata>
  <path
     sodipodi:type="inkscape:offset"
     inkscape:radius="1"
     inkscape:original="M 8 2 A 6 6 0 0 0 2.078125 7.0625 A 1.5 1.5 0 0 0 1 8.5 A 1.5 1.5 0 0 0 2.3476562 9.9921875 A 6 6 0 0 0 8 14 A 6 6 0 0 0 11.662109 12.744141 A 1.5 1.5 0 0 0 12.5 13 A 1.5 1.5 0 0 0 14 11.5 A 1.5 1.5 0 0 0 13.498047 10.382812 A 6 6 0 0 0 14 8 A 6 6 0 0 0 12.744141 4.3378906 A 1.5 1.5 0 0 0 13 3.5 A 1.5 1.5 0 0 0 11.5 2 A 1.5 1.5 0 0 0 10.382812 2.5019531 A 6 6 0 0 0 8 2 z M 8 2.9980469 C 8.6893657 2.9980469 9.372482 3.1549886 10.003906 3.4316406 A 1.5 1.5 0 0 0 10 3.5 A 1.5 1.5 0 0 0 10.089844 4.0097656 L 8.6816406 6.0117188 A 1.5 1.5 0 0 0 8.5 6 A 1.5 1.5 0 0 0 7.1035156 6.9589844 L 3.4472656 7.3378906 A 1.5 1.5 0 0 0 3.0878906 7.1210938 C 3.2701693 6.1240499 3.7458134 5.1799678 4.4628906 4.4628906 C 5.3886906 3.5370906 6.6907 2.9980469 8 2.9980469 z M 11.923828 4.9375 C 12.600099 5.8102815 13.001953 6.8951634 13.001953 8 C 13.001953 8.6893657 12.845014 9.372482 12.568359 10.003906 A 1.5 1.5 0 0 0 12.5 10 A 1.5 1.5 0 0 0 12.085938 10.058594 L 9.9394531 7.9179688 A 1.5 1.5 0 0 0 10 7.5 A 1.5 1.5 0 0 0 9.8789062 6.9160156 L 11.244141 4.9765625 A 1.5 1.5 0 0 0 11.5 5 A 1.5 1.5 0 0 0 11.923828 4.9375 z M 7.3339844 8.4433594 A 1.5 1.5 0 0 0 8.5 9 A 1.5 1.5 0 0 0 8.8554688 8.9550781 L 11.044922 11.138672 A 1.5 1.5 0 0 0 11 11.5 A 1.5 1.5 0 0 0 11.0625 11.923828 C 10.189665 12.600099 9.1048366 13.001953 8 13.001953 C 6.6907 13.001953 5.3886906 12.463109 4.4628906 11.537109 C 3.9589851 11.033095 3.5822399 10.413358 3.3320312 9.7460938 A 1.5 1.5 0 0 0 3.9726562 8.7910156 L 7.3339844 8.4433594 z "
     style="fill:#333333"
     id="path34"
     d="M 8,1 C 6.3513076,1.0012174 4.7082584,1.6083671 3.4550781,2.6796875 2.3104739,3.6581882 1.5588868,5.0350034 1.2304688,6.5039062 0.53819974,6.9616029 0.00108568,7.663841 0,8.4980469 A 1.0001,1.0001 0 0 0 0,8.5 C 3.6134265e-5,9.4638244 0.70875519,10.22836 1.5742188,10.632812 2.6292884,13.169816 5.2437885,14.996664 7.9980469,15 a 1.0001,1.0001 0 0 0 0.00391,0 C 9.3567092,14.99747 10.672415,14.530021 11.804688,13.787109 12.040036,13.858687 12.253992,13.999995 12.5,14 13.808997,14 15,12.808997 15,11.5 a 1.0001,1.0001 0 0 0 0,-0.002 C 14.999273,11.077326 14.70124,10.749071 14.498047,10.380859 14.779489,9.6153906 14.997329,8.8195203 15,8.0039062 a 1.0001,1.0001 0 0 0 0,-0.00586 C 14.99747,6.6432907 14.530021,5.3275849 13.787109,4.1953125 13.858687,3.9599646 13.999995,3.7460077 14,3.5 14,2.1910031 12.808997,1 11.5,1 a 1.0001,1.0001 0 0 0 -0.002,0 C 11.077326,1.000727 10.749071,1.2987596 10.380859,1.5019531 9.6153906,1.2205114 8.8195203,1.0026714 8.0039062,1 A 1.0001,1.0001 0 0 0 8,1 Z m 0,2.9980469 c 0.2541181,0 0.5032761,0.1130411 0.7578125,0.1660156 L 8.0742188,5.1367188 C 7.4984606,5.2504435 7.0255699,5.5500281 6.6503906,6.0019531 L 4.6347656,6.2109375 C 4.8186333,5.8589386 4.8949403,5.4449035 5.1699219,5.1699219 5.9014761,4.4383677 6.9651692,3.9980469 8,3.9980469 Z m 3.445312,2.4316406 C 11.684272,6.9469771 12.001953,7.44717 12.001953,8 c 0,0.1544719 -0.07972,0.3056286 -0.09961,0.4609375 l -0.910156,-0.90625 c 4.29e-4,-0.017805 0.0078,-0.034924 0.0078,-0.052734 a 1.0001,1.0001 0 0 0 0,-0.00586 C 10.999503,7.3811869 10.947969,7.2738947 10.931641,7.1601562 Z M 7.3417969,9.4472656 C 7.7145017,9.664726 8.0410974,9.9804938 8.4726562,9.9863281 L 9.8378906,11.349609 C 9.2512185,11.671312 8.6471257,12.001953 8,12.001953 c -1.0349325,0 -2.0985834,-0.440222 -2.8300781,-1.171875 C 4.8741553,10.534248 4.6782402,10.136289 4.4863281,9.7421875 Z" />
  <path
     style="fill:#f1f2f2"
     d="M 8 2 A 6 6 0 0 0 2.078125 7.0625 A 1.5 1.5 0 0 0 1 8.5 A 1.5 1.5 0 0 0 2.3476562 9.9921875 A 6 6 0 0 0 8 14 A 6 6 0 0 0 11.662109 12.744141 A 1.5 1.5 0 0 0 12.5 13 A 1.5 1.5 0 0 0 14 11.5 A 1.5 1.5 0 0 0 13.498047 10.382812 A 6 6 0 0 0 14 8 A 6 6 0 0 0 12.744141 4.3378906 A 1.5 1.5 0 0 0 13 3.5 A 1.5 1.5 0 0 0 11.5 2 A 1.5 1.5 0 0 0 10.382812 2.5019531 A 6 6 0 0 0 8 2 z M 8 2.9980469 C 8.6893657 2.9980469 9.3724818 3.1549886 10.003906 3.4316406 A 1.5 1.5 0 0 0 10 3.5 A 1.5 1.5 0 0 0 10.089844 4.0097656 L 8.6816406 6.0117188 A 1.5 1.5 0 0 0 8.5 6 A 1.5 1.5 0 0 0 7.1035156 6.9589844 L 3.4472656 7.3378906 A 1.5 1.5 0 0 0 3.0878906 7.1210938 C 3.2701693 6.1240499 3.7458134 5.1799678 4.4628906 4.4628906 C 5.3886906 3.5370906 6.6907 2.9980469 8 2.9980469 z M 11.923828 4.9375 C 12.600099 5.8102815 13.001953 6.8951634 13.001953 8 C 13.001953 8.6893657 12.845014 9.3724818 12.568359 10.003906 A 1.5 1.5 0 0 0 12.5 10 A 1.5 1.5 0 0 0 12.085938 10.058594 L 9.9394531 7.9179688 A 1.5 1.5 0 0 0 10 7.5 A 1.5 1.5 0 0 0 9.8789062 6.9160156 L 11.244141 4.9765625 A 1.5 1.5 0 0 0 11.5 5 A 1.5 1.5 0 0 0 11.923828 4.9375 z M 7.3339844 8.4433594 A 1.5 1.5 0 0 0 8.5 9 A 1.5 1.5 0 0 0 8.8554688 8.9550781 L 11.044922 11.138672 A 1.5 1.5 0 0 0 11 11.5 A 1.5 1.5 0 0 0 11.0625 11.923828 C 10.189665 12.600099 9.1048366 13.001953 8 13.001953 C 6.6907 13.001953 5.3886906 12.463109 4.4628906 11.537109 C 3.9589851 11.033095 3.5822398 10.413358 3.3320312 9.7460938 A 1.5 1.5 0 0 0 3.9726562 8.7910156 L 7.3339844 8.4433594 z "
     id="path4" />
</svg>
