<?xml version="1.0" encoding="UTF-8" standalone="no"?>
<!--Part of Monotone: https://github.com/sixsixfive/Monotone, released under cc-by-sa_v4-->
<svg id="svg8" xmlns="http://www.w3.org/2000/svg" viewBox="0 0 16 16" version="1.1"><path id="path2" d="m2.031 3c-1.09 0-2 0.909-2 2v7c0 1.091 0.91 2 2 2h7.969c1.091 0 2-0.909 2-2v-1.1l1.79 1.805a1 1 0 0 0 0.71 0.295h0.5a1 1 0 0 0 1 -1v-7a1 1 0 0 0 -1 -1h-0.531a1 1 0 0 0 -0.707 0.293l-1.762 1.762v-1.055c0-1.091-0.909-2-2-2z" color="#f1f2f2" overflow="visible" fill="#333333"/><g id="g6" color="#f1f2f2" fill="#f1f2f2"><path id="path4" overflow="visible" d="m2.031 4h7.97c0.553 0 0.999 0.446 0.999 1v7c0 0.554-0.446 1-1 1h-7.969c-0.554 0-1-0.446-1-1v-7c0-0.554 0.446-1 1-1zm8.969 4.47l3.47-3.47h0.53v7h-0.5z"/></g></svg>
