<?xml version="1.0" encoding="UTF-8"?>
<!--Part of Monotone: https://github.com/sixsixfive/Monotone, released under cc-by-sa_v4-->
<svg version="1.1" viewBox="0 0 16 16" xmlns="http://www.w3.org/2000/svg">
<path d="m8 1c-1.6487 0.0012-3.2917 0.60839-4.5449 1.6797-1.1446 0.9785-1.8962 2.3553-2.2246 3.8242-0.6923 0.4577-1.2294 1.1599-1.2305 1.9941a1.0001 1.0001 0 0 0 0 0.0019531c3.6134e-5 0.9638 0.70878 1.7278 1.5742 2.1328 1.0551 2.537 3.6696 4.3642 6.4238 4.3672a1.0001 1.0001 0 0 0 0.0039062 0c1.3548-3e-3 2.6697-0.46989 3.8027-1.2129 0.235 0.072 0.44931 0.21289 0.69531 0.21289 1.309 0 2.5-1.191 2.5-2.5a1.0001 1.0001 0 0 0 0-0.001953c-1e-3 -0.421-0.29895-0.74919-0.50195-1.1172 0.281-0.7656 0.49895-1.5614 0.50195-2.377a1.0001 1.0001 0 0 0 0-0.0058593c-3e-3 -1.3547-0.46989-2.6704-1.2129-3.8027 0.072-0.2353 0.21289-0.44931 0.21289-0.69531 0-1.309-1.191-2.5-2.5-2.5a1.0001 1.0001 0 0 0-0.001953 0c-0.421 7e-4 -0.74919 0.29875-1.1172 0.50195-0.7656-0.2815-1.5614-0.49925-2.377-0.50195a1.0001 1.0001 0 0 0-0.0039062 0zm0 1a6 6 0 0 1 2.3828 0.50195 1.5 1.5 0 0 1 1.1172-0.50195 1.5 1.5 0 0 1 1.5 1.5 1.5 1.5 0 0 1-0.25586 0.83789 6 6 0 0 1 1.2559 3.6621 6 6 0 0 1-0.50195 2.3828 1.5 1.5 0 0 1 0.50195 1.1172 1.5 1.5 0 0 1-1.5 1.5 1.5 1.5 0 0 1-0.83789-0.25586 6 6 0 0 1-3.6621 1.2559 6 6 0 0 1-5.6523-4.0078 1.5 1.5 0 0 1-1.3477-1.4922 1.5 1.5 0 0 1 1.0781-1.4375 6 6 0 0 1 5.9219-5.0625zm0 0.99805c-1.3093 0-2.6113 0.53904-3.5371 1.4648-0.7171 0.7171-1.1927 1.6611-1.375 2.6582a1.5 1.5 0 0 1 0.35938 0.2168l3.6562-0.37891a1.5 1.5 0 0 1 1.3965-0.95898 1.5 1.5 0 0 1 0.18164 0.011719l1.4082-2.002a1.5 1.5 0 0 1-0.089844-0.50977 1.5 1.5 0 0 1 0.003906-0.068359c-0.6315-0.2766-1.3145-0.43359-2.0039-0.43359zm0 1c0.25412 0 0.50328 0.11304 0.75781 0.16602l-0.68359 0.97266c-0.5757 0.1137-1.0486 0.41323-1.4238 0.86523l-2.0156 0.20898c0.1838-0.352 0.26016-0.76602 0.53516-1.041 0.7316-0.7315 1.7953-1.1719 2.8301-1.1719zm3.9238 0.93945a1.5 1.5 0 0 1-0.42383 0.0625 1.5 1.5 0 0 1-0.25586-0.023438l-1.3652 1.9395a1.5 1.5 0 0 1 0.12109 0.58398 1.5 1.5 0 0 1-0.060547 0.41797l2.1465 2.1406a1.5 1.5 0 0 1 0.41406-0.058594 1.5 1.5 0 0 1 0.068359 0.003906c0.277-0.6315 0.43359-1.3145 0.43359-2.0039 0-1.1048-0.40212-2.1897-1.0781-3.0625zm-0.47852 1.4922c0.239 0.5174 0.55664 1.0175 0.55664 1.5703 0 0.15447-0.079719 0.30563-0.099609 0.46094l-0.91016-0.90625c4.29e-4 -0.017805 0.007812-0.034924 0.007812-0.052734a1.0001 1.0001 0 0 0 0-0.0058593c0-0.1148-0.052359-0.22224-0.068359-0.33594l0.51367-0.73047zm-4.1113 2.0137-3.3613 0.34766a1.5 1.5 0 0 1-0.64062 0.95508c0.2502 0.6669 0.62696 1.287 1.1309 1.791 0.9258 0.926 2.2278 1.4648 3.5371 1.4648 1.1048 0 2.1905-0.40212 3.0625-1.0781a1.5 1.5 0 0 1-0.0625-0.42383 1.5 1.5 0 0 1 0.044922-0.36133l-2.1895-2.1836a1.5 1.5 0 0 1-0.35547 0.044922 1.5 1.5 0 0 1-1.166-0.55664zm0.0078125 1.0039c0.3727 0.2174 0.69926 0.53326 1.1309 0.53906l1.3652 1.3633c-0.5867 0.321-1.1908 0.65234-1.8379 0.65234-1.0349 0-2.0986-0.4402-2.8301-1.1719-0.2957-0.296-0.49169-0.69409-0.68359-1.0879l2.8555-0.29492z" style="fill:#333333"/>
<path d="m8 2a6 6 0 0 0-5.9219 5.0625 1.5 1.5 0 0 0-1.0781 1.4375 1.5 1.5 0 0 0 1.3477 1.4922 6 6 0 0 0 5.6523 4.0078 6 6 0 0 0 3.662-1.256 1.5 1.5 0 0 0 0.838 0.256 1.5 1.5 0 0 0 1.5-1.5 1.5 1.5 0 0 0-0.502-1.117 6 6 0 0 0 0.502-2.383 6 6 0 0 0-1.256-3.6621 1.5 1.5 0 0 0 0.256-0.8379 1.5 1.5 0 0 0-1.5-1.5 1.5 1.5 0 0 0-1.117 0.502 6 6 0 0 0-2.383-0.502zm0 0.998c0.6894 0 1.3725 0.157 2.004 0.4336a1.5 1.5 0 0 0-4e-3 0.0684 1.5 1.5 0 0 0 0.09 0.5098l-1.4084 2.0019a1.5 1.5 0 0 0-0.1816-0.0117 1.5 1.5 0 0 0-1.3965 0.959l-3.6562 0.3789a1.5 1.5 0 0 0-0.3594-0.2168c0.1823-0.9971 0.6579-1.9411 1.375-2.6582 0.9258-0.9258 2.2278-1.4649 3.5371-1.4649zm3.924 1.9395c0.676 0.8728 1.078 1.9577 1.078 3.0625 0 0.6894-0.157 1.3725-0.434 2.004a1.5 1.5 0 0 0-0.068-4e-3 1.5 1.5 0 0 0-0.414 0.059l-2.1465-2.141a1.5 1.5 0 0 0 0.0605-0.418 1.5 1.5 0 0 0-0.1211-0.584l1.3651-1.9394a1.5 1.5 0 0 0 0.256 0.0234 1.5 1.5 0 0 0 0.424-0.0625zm-4.59 3.5059a1.5 1.5 0 0 0 1.166 0.5566 1.5 1.5 0 0 0 0.3555-0.0449l2.1895 2.1839a1.5 1.5 0 0 0-0.045 0.361 1.5 1.5 0 0 0 0.062 0.424c-0.872 0.676-1.9572 1.078-3.062 1.078-1.3093 0-2.6113-0.539-3.5371-1.465-0.5039-0.504-0.8807-1.124-1.1309-1.7909a1.5 1.5 0 0 0 0.6407-0.9551l3.3613-0.3476z" fill="#f1f2f2" opacity=".5" style="fill:#f1f2f2"/>
<circle cx="11.5" cy="11.5" r="4.5" fill="#333333"/>
<path class="error" d="m11.5 8a3.5 3.5 0 1 0 0 7 3.5 3.5 0 0 0 0-7zm-2.5 2.969h5v1.031h-5z" fill="#f1f2f2" overflow="visible" style="color:#f1f2f2"/>
</svg>
