<?xml version="1.0" encoding="UTF-8" standalone="no"?>
<!--Part of Monotone: https://github.com/sixsixfive/Monotone, released under cc-by-sa_v4-->
<svg xmlns="http://www.w3.org/2000/svg" version="1.1" viewBox="0 0 16 16">
 <g fill="#f1f2f2">
  <path fill="#333333" d="m2 1a1.0001 1.0001 0 0 0 -1 1v7.9688a1.0001 1.0001 0 0 0 0.9922 1.0002l4 0.031a1.0001 1.0001 0 0 0 0.0078 0v2.969a1.0001 1.0001 0 0 0 1 1h5a1.0001 1.0001 0 0 0 0.703 -0.289l2.01-1.987a1.0001 1.0001 0 0 0 0.297 -0.714l-0.02-4.9829a1.0001 1.0001 0 0 0 -1 -0.9961h-3.99a1.0001 1.0001 0 0 0 0 -0.0078l-0.0312-4a1.0001 1.0001 0 0 0 -1 -0.9922h-6.9688z"/>
  <path d="m7 7v6.9688h5l2.0098-1.9865-0.01953-4.9824zm1 1h4.9746l0.01367 3.5684-1.4023 1.4004h-3.586z"/>
  <path d="m2 2v7.9688l4 0.0312v-4h3l-0.0312-4h-6.9688zm1 1h4.9766l0.0156 2h-1.9922a1.0001 1.0001 0 0 0 -1 1v2.9922l-2-0.0156v-5.9766z"/>
 </g>
</svg>
