<?xml version="1.0" encoding="UTF-8"?>
<!--Part of Monotone: https://github.com/sixsixfive/Monotone, released under cc-by-sa_v4-->
<svg version="1.1" viewBox="0 0 16 16" xmlns="http://www.w3.org/2000/svg">
<path d="m5.9629 0a1.0001 1.0001 0 0 0-0.47656 0.14258l-5 3a1.0001 1.0001 0 0 0 0.066406 1.752l0.98633 0.49414-1.3711 2.0566a1.0001 1.0001 0 0 0 0.31836 1.4121l1.5918 0.95508a1.0001 1.0001 0 0 0-0.078125 0.38672v1.8008a1.0001 1.0001 0 0 0 0.48633 0.85742l5 3a1.0001 1.0001 0 0 0 1.0273 0l5-3a1.0001 1.0001 0 0 0 0.48633-0.85742v-1.8008a1.0001 1.0001 0 0 0-0.078125-0.38672l1.5918-0.95508a1.0001 1.0001 0 0 0 0.31836-1.4121l-1.3711-2.0566 0.98633-0.49414a1.0001 1.0001 0 0 0 0.066406-1.752l-5-3a1.0001 1.0001 0 0 0-0.96094-0.037109l-1.5527 0.77734-1.5527-0.77734a1.0001 1.0001 0 0 0-0.48438-0.10547zm0.037109 1 2 1 2-1 5 3-2 1 2 3-5 3-2-3-2 3-5-3 2-3-2-1 5-3zm-3 4 1.6777 1.0078 3.3223 1.9922 3.041-1.8242 1.959-1.1758-5-3-5 3zm5-1.834 3.0566 1.834-0.5293 0.31836-2.5273 1.5156-2.8086-1.6836-0.25-0.15039 3.0586-1.834zm0 5.834 2 3 3-1.8008v1.8008l-5 3-5-3v-1.8008l3 1.8008 2-3z" style="fill:#333333"/>
<path d="m6 1-5 3 2 1 5-3-2-1zm2 1 5 3 2-1-5-3-2 1zm5 3-1.959 1.1758-3.041 1.8242 2 3 5-3-2-3zm-5 3-3.3223-1.9922-1.6777-1.0078-2 3 5 3 2-3zm0 1-2 3-3-1.8008v1.8008l5 3 5-3v-1.8008l-3 1.8008-2-3z" style="fill:#f1f2f2;opacity:.5"/>
<circle cx="11.5" cy="11.5" r="4.5" style="fill:#333333"/>
<path class="error" d="m11.5 8a3.5 3.5 0 1 0 0 7 3.5 3.5 0 0 0 0-7zm-2.5 2.969h5v1.031h-5z" overflow="visible" style="color:#f1f2f2;fill:#f1f2f2"/>
</svg>
