<?xml version="1.0" encoding="UTF-8"?>
<svg version="1.1" viewBox="0 0 16 16" xmlns="http://www.w3.org/2000/svg">
<path d="m8.5723-0.0019531c-1.6885 0-3.2326 0.41305-4.4238 1.1523-1.1913 0.73929-2.0879 1.8874-2.0879 3.2676 0 1.2752 0.73564 2.389 1.8008 3.0254 1.0651 0.63644 2.4265 0.95177 4.0684 1.1348l1.7324 0.19531c0.63235 0.073887 1.0318 0.24432 1.207 0.38086 0.1752 0.13654 0.19922 0.18157 0.19922 0.4082 0 0.20173-0.07188 0.37648-0.45312 0.61328-0.38124 0.2368-1.0637 0.44336-1.9707 0.44336-1.4732 0-2.3352-0.51219-2.5684-0.89648a1.003 1.003 0 0 0-0.00586-0.00977c-0.11186-0.18008-0.16011-0.4631-0.41406-0.92968-0.12698-0.23329-0.34497-0.52094-0.66797-0.71289-0.32299-0.19195-0.70053-0.26562-1.0723-0.26562-0.48692 0-1.0175 0.082807-1.4316 0.48828-0.38246 0.37448-0.43736 0.84768-0.44922 1.2266-0.1809-0.079007-0.32883-0.22461-0.53516-0.22461-0.81526 0-1.502 0.6867-1.502 1.502v3.7031c0 0.81526 0.6867 1.502 1.502 1.502h12.297c0.81526 0 1.502-0.6867 1.502-1.502s-0.6867-1.502-1.502-1.502h-1.2598c0.16823-0.0876 0.38192-0.12523 0.53711-0.22656 1.165-0.7607 1.9277-1.9959 1.9277-3.3828 0-1.1549-0.52604-2.239-1.4375-2.9316-0.91145-0.69265-2.1224-1.0556-3.6074-1.2129a1.003 1.003 0 0 0-0.00391 0l-1.8769-0.19336c-0.8255-0.088597-1.4731-0.27124-1.8086-0.45312-0.33545-0.18189-0.29688-0.20047-0.29688-0.25781 0-0.16376 0.089969-0.36079 0.52734-0.61133 0.43738-0.25054 1.1617-0.44531 1.9785-0.44531 1.0474 0 1.7864 0.37395 2.0059 0.63477 0.0999 0.1187 0.14568 0.31286 0.38867 0.73242 0.1215 0.20978 0.32972 0.48095 0.64258 0.66602 0.31286 0.18507 0.6797 0.25781 1.0391 0.25781 0.42962 0 0.87829-0.089454 1.2676-0.39062 0.38929-0.30117 0.62696-0.83442 0.62695-1.3105v-0.095703a1.003 1.003 0 0 0-2e-3 -0.085938l-0.16988-1.9805a1.003 1.003 0 0 0-2e-3 -0.00977c-0.027316-0.28629-0.058506-0.79171-0.51167-1.1992-0.45317-0.40751-0.94433-0.42578-1.4512-0.42578-0.33807 0-0.68604-0.0045833-1.1035 0.25586-0.047 0.029319-0.03011 0.10174-0.07226 0.13867-0.8581-0.23725-1.6984-0.47266-2.5625-0.47266z" style="fill:#333333;paint-order:markers fill stroke"/>
<path d="m8.5723 1c-3.0395 0-5.5098 1.5345-5.5098 3.418 0 1.9029 1.8426 2.8145 4.9785 3.1641l1.7383 0.19531c1.4956 0.17476 2.291 0.79487 2.291 1.7852 0 1.165-1.3271 2.0586-3.4258 2.0586-1.6886 0-2.9192-0.54396-3.4258-1.3789-0.43421-0.69903-0.3137-1.4355-1.3027-1.4355-0.72368 0-0.91602 0.27076-0.91602 0.81445v0.19531l0.14453 2.1934c0.048245 0.67961 0.33823 0.99023 1.0137 0.99023 0.65132 0 0.86904-0.19471 0.94141-0.75781 1.182 0.42718 2.2665 0.66016 3.4727 0.66016 3.3048 0 5.4277-1.4166 5.4277-3.5137 0-1.7864-1.3984-2.8552-4.1484-3.1465l-1.8828-0.19336c-1.8092-0.19417-3-0.75753-3-1.709 0-1.2039 1.578-2.0586 3.5078-2.0586 1.2544 0 2.2669 0.38829 2.7734 0.99023 0.50658 0.60194 0.36194 1.3008 1.3027 1.3008 0.55482 0 0.89258-0.25262 0.89258-0.69922v-0.095703l-0.16992-1.9805c-0.04825-0.50485-0.12055-0.71875-0.96484-0.71875-0.5307 0-0.74609 0.11544-0.74609 0.48438-1.0855-0.34951-2.0273-0.5625-2.9922-0.5625zm-7.0723 9.2969c-0.277 0-0.5 0.223-0.5 0.5v3.7031c0 0.277 0.223 0.5 0.5 0.5h12.297c0.277 0 0.5-0.223 0.5-0.5s-0.223-0.5-0.5-0.5h-11.797v-3.2031c0-0.277-0.223-0.5-0.5-0.5z" style="fill:#f1f2f2;paint-order:markers fill stroke"/>
</svg>
