<?xml version="1.0" encoding="UTF-8" standalone="no"?>
<!--Part of Monotone: https://github.com/sixsixfive/Monotone, released under cc-by-sa_v4-->
<svg id="svg12" xmlns="http://www.w3.org/2000/svg" viewBox="0 0 16 16" version="1.1"><g id="g10" transform="translate(-582 -382)"><rect id="rect2" style="fill:#333333" ry="1.634" height="4" width="4" y="391" x="585" fill="#333333"/><rect id="rect4" style="fill:#333333" ry="1.414" height="4" width="4" y="391" x="592" fill="#333333"/><path id="path6" style="fill-opacity:.92952;fill:#333333" d="m588 383a1 1 0 0 0 -1 1v5a4.048 4.048 0 0 0 -2.828 1.172 4.048 4.048 0 0 0 -1.17 2.83c0 1.047 0.431 2.088 1.172 2.828 0.74 0.74 1.78 1.172 2.828 1.172a4.048 4.048 0 0 0 2.828 -1.172c0.288-0.288 0.485-0.65 0.672-1.012 0.187 0.362 0.384 0.724 0.672 1.012 0.74 0.74 1.78 1.172 2.828 1.172a4.048 4.048 0 0 0 2.828 -1.172 4.048 4.048 0 0 0 1.17 -2.83v-9a1 1 0 0 0 -1 -1h-7zm3 4h3v2a4.048 4.048 0 0 0 -2.828 1.172c-0.074 0.073-0.105 0.178-0.172 0.258zm-4 4l0.766 0.152 0.648 0.434 0.434 0.648 0.152 0.766-0.152 0.766-0.434 0.648-0.648 0.434-0.77 0.15-0.766-0.152-0.648-0.434-0.434-0.648-0.15-0.77 0.152-0.766 0.434-0.648 0.648-0.434 0.77-0.15zm7 0l0.766 0.152 0.648 0.434 0.434 0.648 0.152 0.766-0.152 0.766-0.434 0.648-0.648 0.434-0.77 0.15-0.766-0.152-0.648-0.434-0.434-0.648-0.15-0.77 0.152-0.766 0.434-0.648 0.648-0.434 0.77-0.15z" overflow="visible" fill="#333333"/><path id="path8" d="m588 384v6.174a3 3 0 0 0 -1 -0.174 3 3 0 0 0 -3 3 3 3 0 0 0 3 3 3 3 0 0 0 3 -3v-7h5v4.174a3 3 0 0 0 -1 -0.174 3 3 0 0 0 -3 3 3 3 0 0 0 3 3 3 3 0 0 0 3 -3v-9h-9zm-1 8a1 1 0 0 1 1 1 1 1 0 0 1 -1 1 1 1 0 0 1 -1 -1 1 1 0 0 1 1 -1zm7 0a1 1 0 0 1 1 1 1 1 0 0 1 -1 1 1 1 0 0 1 -1 -1 1 1 0 0 1 1 -1z" overflow="visible" fill="#f1f2f2"/></g></svg>
