<?xml version="1.0" encoding="UTF-8" standalone="no"?>
<!--Part of Monotone: https://github.com/sixsixfive/Monotone, released under cc-by-sa_v4-->
<svg id="svg8" xmlns="http://www.w3.org/2000/svg" viewBox="0 0 16 16" version="1.1"><g id="g6"><path id="path2" overflow="visible" d="m12.031 0c-1.038 0-2.07 0.425-2.808 1.154-0.567 0.56-0.883 1.308-1.04 2.088l-2.584 1.254c-0.51-0.225-1.011-0.496-1.569-0.496a1.032 1.032 0 0 0 -0.002 0 4.046 4.046 0 0 0 -2.761 1.111c-0.603 0.579-0.949 1.367-1.101 2.189a1.032 1.032 0 0 0 -0.047 1.14c0.104 0.89 0.45 1.755 1.084 2.39 0.74 0.74 1.78 1.171 2.828 1.171 0.6 0 1.132-0.31 1.672-0.57l2.465 1.244c0.144 0.803 0.458 1.577 1.035 2.154 0.74 0.74 1.78 1.172 2.828 1.172a4.047 4.047 0 0 0 2.828 -1.172 4.047 4.047 0 0 0 1.172 -2.829 4.047 4.047 0 0 0 -1.172 -2.828 4.047 4.047 0 0 0 -2.828 -1.172 4.047 4.047 0 0 0 2.828 -1.172 4.047 4.047 0 0 0 1.172 -2.828 4.047 4.047 0 0 0 -1.172 -2.828 4.047 4.047 0 0 0 -2.828 -1.172zm-2.383 7.088c0.695 0.53 1.506 0.91 2.381 0.912-0.835 0.001-1.611 0.35-2.289 0.836l-1.713-0.87c0-0.027-0.009-0.055-0.01-0.083z" fill="#333333"/><path id="path4" overflow="visible" d="m12.031 1.031a2.969 2.969 0 0 0 -2.967 2.93l-3.324 1.613a2.969 2.969 0 0 0 -1.709 -0.543 2.969 2.969 0 0 0 -2.96 2.838l-0.071 0.035 0.066 0.034a2.969 2.969 0 0 0 -0.004 0.062 2.969 2.969 0 0 0 2.97 2.969 2.969 2.969 0 0 0 1.816 -0.621l3.216 1.625a2.969 2.969 0 0 0 -0.002 0.027 2.969 2.969 0 0 0 2.97 2.969 2.969 2.969 0 0 0 2.968 -2.969 2.969 2.969 0 0 0 -2.969 -2.969 2.969 2.969 0 0 0 -2.217 0.998l-2.87-1.455a2.969 2.969 0 0 0 0.056 -0.574 2.969 2.969 0 0 0 -0.092 -0.725l2.838-1.382a2.969 2.969 0 0 0 2.285 1.076 2.969 2.969 0 0 0 2.969 -2.969 2.969 2.969 0 0 0 -2.969 -2.969z" fill="#f1f2f2"/></g></svg>
