<?xml version="1.0" encoding="UTF-8" standalone="no"?>
<!--Part of Monotone: https://github.com/sixsixfive/Monotone, released under cc-by-sa_v4-->
<svg id="svg2" xmlns="http://www.w3.org/2000/svg" viewBox="0 0 16 16" version="1.1"><path id="path817" style="fill:#333333" d="m1 0a1.0001 1.0001 0 0 0 -0.78711 1.6172l5.0156 6.3828-5.0156 6.383a1.0001 1.0001 0 0 0 0.7871 1.617h1a1.0001 1.0001 0 0 0 0.7871 -0.383l4.2129-5.361 4.213 5.361a1.0001 1.0001 0 0 0 0.787 0.383h3a1.0001 1.0001 0 0 0 0.78711 -1.6172l-5.016-6.383 5.016-6.3828a1.0001 1.0001 0 0 0 -0.787 -1.6172h-1a1.0001 1.0001 0 0 0 -0.787 0.38281l-4.213 5.3613-4.2129-5.3613a1.0001 1.0001 0 0 0 -0.7871 -0.3828z"/><path id="path4493" style="fill:#f1f2f2" d="m1 1l5.5 7-5.5 7h1l5-6.3633 1.5-1.9101-4.5-5.7266h-3zm13 0l-5 6.3633-1.5 1.9101 4.5 5.7266h3l-5.5-7 5.5-7h-1z"/></svg>
