<?xml version="1.0" encoding="UTF-8" standalone="no"?>
<!--Part of Monotone: https://github.com/sixsixfive/Monotone, released under cc-by-sa_v4-->
<svg id="svg6" xmlns="http://www.w3.org/2000/svg" viewBox="0 0 16 16" version="1.1"><path id="path2" style="fill:#333333" d="m4.77 0.87c-2.698 0-4.914 2.201-4.914 4.895 0 1.401 0.6 2.678 1.551 3.57v0.002l5.715 5.486a1.142 1.142 0 0 0 1.57 0.012l5.898-5.495a1.142 1.142 0 0 0 0 -0.002 4.897 4.897 0 0 0 1.552 -3.572c0-2.694-2.215-4.897-4.912-4.897-1.283 0-2.352 0.605-3.23 1.416-0.88-0.811-1.948-1.415-3.23-1.415z" fill="#333333"/><path id="path4" d="m15 5.766a3.763 3.763 0 0 0 -3.77 -3.757c-1.37 0-2.57 0.73-3.23 1.822a3.77 3.77 0 0 0 -3.23 -1.822 3.763 3.763 0 0 0 -3.77 3.757 3.74 3.74 0 0 0 1.19 2.738h-0.001l5.725 5.496 5.898-5.496h-0.002a3.739 3.739 0 0 0 1.19 -2.738" fill="#f1f2f2"/></svg>
