<?xml version="1.0" encoding="UTF-8"?>
<!--Part of Monotone: https://github.com/sixsixfive/Monotone, released under cc-by-sa_v4-->
<svg version="1.1" viewBox="0 0 16 16" xmlns="http://www.w3.org/2000/svg">
<path d="m11.922-0.0019531a1.0134 1.0134 0 0 0-0.03125 0.0019531c-1.1311 0.059658-2.0774 0.60272-2.7754 1.2539-0.74365 0.69492-1.3514 1.7435-1.0547 2.9824a1.0134 1.0134 0 0 0 0.27539 0.48438c-0.024654 0.013-0.17368 0.083479-0.16602 0.083984-0.13862-0.0035065-0.34367-0.087207-0.75391-0.30078-0.41867-0.21796-1.0404-0.53516-1.8477-0.53516a1.0134 1.0134 0 0 0-0.10547 0.00586c-1.6921 0.17596-3.0048 0.98343-3.7285 2.1387-0.72376 1.1552-0.87479 2.5584-0.65625 3.9375a1.0134 1.0134 0 0 0 0.00977 0.05664c0.20801 0.95426 0.64592 2.2749 1.3594 3.4668 0.71345 1.1919 1.7696 2.3838 3.3398 2.4492a1.0134 1.0134 0 0 0 0.033203 2e-3c0.81982 0.0075 1.3965-0.48141 1.6758-0.70117 0.27924-0.21977 0.30806-0.27544 0.66211-0.27734 0.35049-0.0019 0.45581 0.07976 0.77734 0.30469 0.32153 0.22493 0.88477 0.67865 1.709 0.67188a1.0134 1.0134 0 0 0 0.21289-0.02539c1.2307-0.27339 2.065-1.1658 2.6855-2.0566 0.62059-0.89086 1.0585-1.8512 1.3711-2.502a1.0134 1.0134 0 0 0-0.58594-1.3985c-1.1647-0.39808-1.2975-0.96932-1.2148-1.6328 0.08265-0.66349 0.62748-1.3074 1.1172-1.4219a1.0134 1.0134 0 0 0 0.54492-1.6387c-0.89711-1.0666-2.1305-1.2563-3.1523-1.3086 0.16501-0.12911 0.377-0.23021 0.51562-0.36719 0.77766-0.76857 0.98832-1.875 0.79883-2.8535a1.0134 1.0134 0 0 0-1.0156-0.82031z" style="clip-rule:evenodd;fill-rule:evenodd;fill:#333333;stroke-width:.84261"/>
<path d="m11.943 1.0117c-0.83361 0.043969-1.5674 0.45126-2.1367 0.98242-0.51618 0.48235-0.92617 1.3111-0.75977 2.0059 0.90965 0.022357 1.8323-0.50872 2.3789-1.0488 0.50936-0.50341 0.65829-1.2128 0.51758-1.9395zm-6.375 3.9707c-2.9014 0.30172-3.8706 2.5096-3.4902 4.9102 0.36856 1.6908 1.6812 5.0329 3.752 5.1191 0.91456 0.0084 1.0811-0.97184 2.3223-0.97852 1.2411-0.0066 1.5689 0.98409 2.4844 0.97656 1.6886-0.37512 2.7255-2.6818 3.3633-4.0098-3.0518-1.0431-1.9941-4.534 0-5-0.7226-0.85916-2.0395-1.0176-2.9961-1.0176-1.6226 0-2.1156 0.8234-2.8184 0.8418-0.90514 0-1.5218-0.8418-2.6172-0.8418z" style="clip-rule:evenodd;fill-rule:evenodd;fill:#f1f2f2;stroke-width:.84261"/>
</svg>
