<?xml version="1.0" encoding="UTF-8"?>
<!--Part of Monotone: https://github.com/sixsixfive/Monotone, released under cc-by-sa_v4-->
<svg version="1.1" viewBox="0 0 16 16" xmlns="http://www.w3.org/2000/svg">
<path d="m8 0c-4.4064 0-8 3.5936-8 8-1.0744e-4 0.0084633-1.0744e-4 0.016928 0 0.025391 0.0029512 0.11272 0.011819 0.2254 0.019531 0.33789-0.011696 0.058062-0.019531 0.016064-0.019531 0.13672v1c0 0.12588 3.4718e-4 0.00465 0.0058594 0.052734-0.004128 0.01608-0.0058594-0.12388-0.0058594 0.046875v3.8008c0 1.4228 1.1768 2.5996 2.5996 2.5996h3.8008c0.16593 0 0.027167 2.66e-4 0.046875-0.0039 0.048618 0.005461-0.070655 0.0039 0.052734 0.0039h1c0.14288 0 0.067704-0.0047 0.11719-0.01563 0.12334 0.0073 0.24756 0.01408 0.37109 0.01563 0.00391 2.3e-5 0.00781 2.3e-5 0.011719 0 4.4064 0 8-3.5936 8-8-2e-7 -4.4064-3.5936-8-8-8z" style="fill:#333333"/>
<path d="m8 1c-3.866 0-7 3.134-7 7 0.0034477 0.13169 0.010612 0.26325 0.021484 0.39453-0.0077233 0.035034-0.021484 0.068047-0.021484 0.10547v1c0 0.016647 0.00819 0.030655 0.00977 0.046875-7.628e-4 0.018395-0.00977 0.034104-0.00977 0.052734v3.8008c0 0.8864 0.71321 1.5996 1.5996 1.5996h3.8008c0.018634 0 0.034326-9e-3 0.052734-0.0098 0.01622 0.001608 0.030229 0.0098 0.046875 0.0098h1c0.029831 0 0.055617-0.01262 0.083984-0.01758 0.13847 0.009985 0.2772 0.015847 0.41602 0.01758 3.866 0 7-3.134 7-7 0-3.866-3.134-7-7-7zm1.9999 2.0996c1.2005 0 1.2005 1.8008 0 1.8008-0.2 0-0.5047 0.12775-0.73828 0.36133-0.23358 0.23358-0.36133 0.53828-0.36133 0.73828v1h1.0117c0.554 0 1 0.446 1 1s-0.446 1-1 1h-1.0117v1c0 0.8-0.37225 1.4953-0.88867 2.0117-0.51642 0.51642-1.2117 0.88867-2.0117 0.88867-1.2005 0-1.2005-1.8008 0-1.8008 0.2 0 0.5047-0.12775 0.73828-0.36133 0.23358-0.23358 0.50275-0.59686 0.36133-0.73828v-1h-1.0996c-0.554 0-1-0.446-1-1s0.446-1 1-1h1.0996v-1c0-0.8 0.37225-1.4953 0.88867-2.0117 0.51642-0.51642 1.2117-0.88867 2.0117-0.88867z" style="fill:#f1f2f2"/>
</svg>
