<?xml version="1.0" encoding="UTF-8"?>
<svg version="1.1" viewBox="0 0 16 16" xmlns="http://www.w3.org/2000/svg">
<rect x="11" y="7" width="1" height="4" style="fill:#f1f2f2"/>
<rect transform="rotate(90)" x="7" y="-11" width="1" height="2" style="fill:#f1f2f2"/>
<rect transform="rotate(90)" x="11" y="-12" width="1" height="3" style="fill:#f1f2f2"/>
<rect transform="scale(-1)" x="-9" y="-11" width="1" height="3" style="fill:#f1f2f2"/>
<path d="m8 8 1-1v1z" style="fill:#f1f2f2"/>
<path d="m9 12-1-1h1z" style="fill:#f1f2f2"/>
<rect transform="rotate(90)" x="11" y="-13" width="1" height="3" style="fill:#f1f2f2"/>
<rect transform="scale(1,-1)" x="6" y="-13" width="1" height="6" style="fill:#f1f2f2"/>
<rect transform="matrix(0,-1,-1,0,0,0)" x="-12" y="-7" width="1" height="3" style="fill:#f1f2f2"/>
<rect transform="matrix(0,-1,-1,0,0,0)" x="-8" y="-7" width="1" height="3" style="fill:#f1f2f2"/>
<rect transform="scale(-1,1)" x="-4" y="8" width="1" height="3" style="fill:#f1f2f2"/>
<path d="m3 11 1 1v-1z" style="fill:#f1f2f2"/>
<path d="m4 7-1 1h1z" style="fill:#f1f2f2"/>
<path d="m6 14 1-1h-1z" style="fill:#f1f2f2"/>
<rect x="4" y="13" width="2" height="1" style="fill-opacity:.99444;fill:#f1f2f2;paint-order:markers fill stroke"/>
</svg>
