<?xml version="1.0" encoding="UTF-8"?>
<!--Part of Monotone: https://github.com/sixsixfive/Monotone, released under cc-by-sa_v4-->
<svg version="1.1" viewBox="0 0 16 16" xmlns="http://www.w3.org/2000/svg">
<g fill="#f1f2f2">
<rect x="6" y="7" width="1" height="4"/>
<rect transform="rotate(90)" x="7" y="-6" width="1" height="2"/>
<rect transform="rotate(90)" x="11" y="-7" width="1" height="3"/>
<rect transform="scale(-1)" x="-4" y="-11" width="1" height="3"/>
<path d="m3 8 1-1v1z"/>
<path d="m4 12-1-1h1z"/>
<rect transform="rotate(90)" x="11" y="-8" width="1" height="3"/>
<rect transform="scale(-1,1)" x="-10" y="8" width="1" height="4" stroke-width=".70711"/>
<rect transform="scale(-1,1)" x="-14" y="8" width="1" height="4" stroke-width="1.1547"/>
<rect transform="scale(-1,1)" x="-12" y="8" width="1" height="4" stroke-width="1.1547"/>
<rect transform="matrix(0,1,1,0,0,0)" x="7" y="12" width="1" height="1" stroke-width=".57735"/>
<path d="m11 8 1-1v1z"/>
<path d="m14 8-1-1v1z"/>
<path d="m9 8 1-1v1z"/>
<path d="m12 8-1-1v1z"/>
<rect transform="matrix(0,1,1,0,0,0)" x="7" y="10" width="1" height="1" stroke-width=".57735"/>
</g>
</svg>
