<?xml version="1.0" encoding="UTF-8"?>
<!--Part of Monotone: https://github.com/sixsixfive/Monotone, released under cc-by-sa_v4-->
<svg version="1.1" viewBox="0 0 16 16" xmlns="http://www.w3.org/2000/svg">
<g fill="#f1f2f2">
<rect x="6" y="7" width="1" height="4"/>
<rect transform="rotate(90)" x="7" y="-6" width="1" height="2"/>
<rect transform="rotate(90)" x="11" y="-7" width="1" height="3"/>
<rect transform="scale(-1)" x="-4" y="-11" width="1" height="3"/>
<path d="m3 8 1-1v1z"/>
<path d="m4 12-1-1h1z"/>
<rect transform="rotate(90)" x="11" y="-8" width="1" height="3"/>
<rect x="6" y="7" width="1" height="4"/>
<rect transform="rotate(90)" x="7" y="-6" width="1" height="2"/>
<rect transform="rotate(90)" x="11" y="-7" width="1" height="3"/>
<rect transform="scale(-1)" x="-4" y="-11" width="1" height="3"/>
<path d="m3 8 1-1v1z"/>
<path d="m4 12-1-1h1z"/>
<rect transform="rotate(90)" x="11" y="-8" width="1" height="3"/>
<rect x="9" y="5" width="1" height="7"/>
<rect x="9" y="9" width="2" height="1"/>
<path d="m10 9 1.5-2h1.5l-2 2.5 2 2.5h-1.5c-1.5-2-1.7429-2.162-1.5-2 0.33333-0.33333-0.33333-0.66667 0-1z"/>
</g>
</svg>
