<?xml version="1.0" encoding="UTF-8"?>
<svg version="1.1" viewBox="0 0 16 16" xmlns="http://www.w3.org/2000/svg">
<g transform="translate(6)" style="fill:#f1f2f2">
<rect x="6" y="8" width="1" height="2"/>
<rect transform="rotate(90)" x="7" y="-6" width="1" height="2"/>
<rect transform="rotate(90)" x="11" y="-7" width="1" height="3"/>
<rect transform="scale(-1)" x="-4" y="-11" width="1" height="3"/>
<path d="m3 8 1-1v1z"/>
<path d="m4 12-1-1h1z"/>
<path d="m7 8-1-1v1z"/>
<rect transform="rotate(90)" x="9" y="-7" width="1" height="3"/>
</g>
<rect x="6" y="7" width="1" height="4" style="fill:#f1f2f2"/>
<rect transform="rotate(90)" x="7" y="-6" width="1" height="2" style="fill:#f1f2f2"/>
<rect transform="rotate(90)" x="11" y="-7" width="1" height="3" style="fill:#f1f2f2"/>
<rect transform="scale(-1)" x="-4" y="-11" width="1" height="3" style="fill:#f1f2f2"/>
<path d="m3 8 1-1v1z" style="fill:#f1f2f2"/>
<path d="m4 12-1-1h1z" style="fill:#f1f2f2"/>
<rect transform="rotate(90)" x="11" y="-8" width="1" height="3" style="fill:#f1f2f2"/>
</svg>
