<?xml version="1.0" encoding="UTF-8"?>
<svg version="1.1" viewBox="0 0 16 16" xmlns="http://www.w3.org/2000/svg">
<path d="m8 1c-0.22 0-0.44 0.011-0.656 0.031l-0.406 2.094a5.012 5.012 0 0 0-0.969 0.312l-1.531-1.467c-0.389 0.23-0.727 0.514-1.063 0.812l0.906 1.906a5.057 5.057 0 0 0-0.593 0.813l-2.094-0.281a6.91 6.91 0 0 0-0.406 1.28l1.843 1a4.826 4.826 0 0 0-0.03 0.5c0 0.173 0.013 0.332 0.03 0.5l-1.843 1c0.097 0.445 0.228 0.872 0.406 1.281l2.094-0.281c0.17 0.29 0.371 0.563 0.593 0.812l-0.906 1.907c0.336 0.298 0.674 0.582 1.063 0.812l1.531-1.469c0.306 0.137 0.634 0.24 0.969 0.313l0.406 2.094a7.118 7.118 0 0 0 1.312 0l0.407-2.094c0.334-0.073 0.663-0.176 0.968-0.313l1.532 1.47c0.388-0.23 0.727-0.515 1.062-0.813l-0.906-1.907c0.222-0.249 0.424-0.522 0.594-0.812l2.093 0.281a6.91 6.91 0 0 0 0.407-1.281l-1.844-1c0.017-0.168 0.031-0.327 0.031-0.5s-0.014-0.332-0.031-0.5l1.844-1a6.908 6.908 0 0 0-0.407-1.281l-2.093 0.281a5.057 5.057 0 0 0-0.594-0.813l0.906-1.906c-0.335-0.298-0.674-0.582-1.062-0.812l-1.533 1.468a5.015 5.015 0 0 0-0.968-0.312l-0.407-2.094a7.118 7.118 0 0 0-0.655-0.031zm0 4a3 3 0 1 1 0 6 3 3 0 0 1 0-6z" overflow="visible" style="fill:#f1f2f2"/>
</svg>
