<?xml version="1.0" encoding="UTF-8" standalone="no"?>
<!--Part of Monotone: https://github.com/sixsixfive/Monotone, released under cc-by-sa_v4-->
<svg xmlns="http://www.w3.org/2000/svg" version="1.1" viewBox="0 0 16 16">
 <g fill="#f1f2f2">
  <path d="m5 9c-0.554 0-1 0.446-1 1v4c0 0.554 0.446 1 1 1h4c0.554 0 1-0.446 1-1v-4c0-0.554-0.446-1-1-1zm0 1h2v4h-2z" color="#f1f2f2" overflow="visible"/>
  <path d="m2 1c-0.554 0-1 0.446-1 1v12c0 0.554 0.446 1 1 1h1v-1c-0.554 0-1-0.446-1-1v-10c0-0.554 0.446-1 1-1h10c0.554 0 1 0.446 1 1v10c0 0.554-0.446 1-1 1h-2v1h3c0.554 0 1-0.446 1-1v-12c0-0.554-0.446-1-1-1h-12z"/>
  <path opacity=".7" d="m4.25 3c-0.6925 0-1.25 0.5575-1.25 1.25v2.5c0 0.6925 0.5575 1.25 1.25 1.25h7.5c0.692 0 1.25-0.5575 1.25-1.25v-2.5c0-0.6925-0.558-1.25-1.25-1.25h-7.5zm0 1h7.5c0.138 0 0.25 0.1115 0.25 0.25v0.5c0 0.1385-0.112 0.25-0.25 0.25h-7.5c-0.1385 0-0.25-0.1115-0.25-0.25v-0.5c0-0.1385 0.1115-0.25 0.25-0.25zm0 2h4.5c0.1385 0 0.25 0.1115 0.25 0.25v0.5c0 0.1385-0.1115 0.25-0.25 0.25h-4.5c-0.1385 0-0.25-0.1115-0.25-0.25v-0.5c0-0.1385 0.1115-0.25 0.25-0.25z" stroke-width="1.118"/>
 </g>
</svg>
