<?xml version="1.0" encoding="UTF-8" standalone="no"?>
<!--Part of Monotone: https://github.com/sixsixfive/Monotone, released under cc-by-sa_v4-->
<svg xmlns="http://www.w3.org/2000/svg" version="1.1" viewBox="0 0 16 16">
 <path style="color:#000000;text-decoration-line:none;text-transform:none;text-indent:0" fill="#f1f2f2" d="m2.5 0c-0.277 0-0.5 0.223-0.5 0.5v1.5h1v-1h11v5.0059 2.9882 5.0059h-5.0098-5.9902v-1h-1v1.5c0 0.277 0.223 0.5 0.5 0.5h7.3789 4.6211c0.277 0 0.5-0.223 0.5-0.5v-4.6348-4.7304-4.6348c0-0.277-0.223-0.5-0.5-0.5h-12zm-0.9668 3a0.53381 0.5 0 0 0 0 1h1.9336a0.53381 0.5 0 0 0 0 -1h-1.9336zm7.6191 0.0137c-0.9177-0.0834-1.8325 0.2088-2.5664 0.8203-0.7297 0.6183-1.3232 1.5141-1.4824 2.5117-0.1072 0.7002-0.0428 1.4198 0.1856 2.084 0.228 0.6596 0.7197 1.2503 1.2207 1.6933 0.5 0.442 1.1082 0.733 1.7422 0.834 0.381 0.061 0.9366 0.064 1.5292 0.057a1.0099 1.0099 0 0 1 0.2188 -0.024h0.99v-0.986a1.0099 1.0099 0 0 1 0.006 -0.1017c-0.456 0.3257-1.8537 0.2047-2.3944 0.1877-0.5467-0.02-1.0753-0.2226-1.5137-0.5822-0.4366-0.3619-0.8631-0.8623-1.0332-1.4336-0.168-0.5721-0.1713-1.1866-0.0117-1.7617 0.198-0.6839 0.7058-1.2721 1.2539-1.6621 0.543-0.3881 1.1997-0.5712 1.8457-0.5371 0.537 0.0286 1.0814 0.2119 1.4824 0.6055 0.2 0.1978 0.363 0.4436 0.457 0.7207 0.095 0.277 0.12 0.5839 0.061 0.873-0.054 0.2639-0.181 0.9094-0.356 1.0996-0.178 0.19-0.401 0.321-0.644 0.375v-1.5742c-0.121-0.329-0.3291-0.6114-0.5961-0.8106-0.2675-0.1978-0.5818-0.3038-0.9043-0.3046-0.32 0-0.6393 0.1079-0.9043 0.3046-0.266 0.1979-0.4767 0.4841-0.5957 0.8106-0.158 0.4331-0.1518 1.4394 0.0332 1.8594 0.186 0.421 0.5498 0.7455 0.9668 0.8379 0.328 0.0725 0.666 0.0077 1 0s0.6686 0.0439 1.0004 0c0.624-0.0814 1.196-0.5064 1.523-1.0957 0.323-0.6021 0.416-1.721 0.26-2.3985-0.162-0.6739-0.526-1.2681-1.033-1.6855-0.508-0.4139-1.1106-0.6623-1.7407-0.7168zm-7.6191 1.9863a0.53381 0.5 0 0 0 0 1h1.9336a0.53381 0.5 0 0 0 0 -1h-1.9336zm7.0918 1.0254c0.1863-0.0162 0.3727 0.049 0.5176 0.1875l0.0371 1.623c-0.215 0.235-0.5429 0.2948-0.8145 0.1465-0.2698-0.1515-0.4227-0.4752-0.3789-0.8047 0.0395-0.2783 0.213-1.0115 0.4532-1.1093 0.0602-0.024 0.1234-0.0376 0.1855-0.043zm-7.0918 0.9746a0.53381 0.5 0 0 0 0 1h1.9336a0.53381 0.5 0 0 0 0 -1h-1.9336zm0 2a0.53381 0.5 0 0 0 0 1h1.9336a0.53381 0.5 0 0 0 0 -1h-1.9336zm0 2a0.53381 0.5 0 0 0 0 1h1.9336a0.53381 0.5 0 0 0 0 -1h-1.9336z"/>
</svg>
