<!--Part of Monotone: https://github.com/sixsixfive/Monotone, released under cc-by-sa_v4-->
<svg xmlns="http://www.w3.org/2000/svg" viewBox="0 0 16 16">
    <path d="M8 0a8 8 0 1 0 0 16A8 8 0 0 0 8 0zm0 1.943a2.03 2.03 0 1 1 0 4.06 2.03 2.03 0 0 1 0-4.06zm-4.797 4.12c3.206-.045 6.412-.015 9.62.012 0 0 .43-.008.43.424v.208c0 .23-.236.29-.236.29l-2.985.579v2.11l1.355 3.907c.136.226-.159.29-.159.29l-.526.005c-.254 0-.348-.213-.348-.213l-2.072-3.592c-.223-.504-.236-.44-.447.001L5.666 13.67c-.072.218-.355.223-.355.223l-.57-.01s-.21-.005-.161-.208l1.387-3.99v-2.11L3.075 7.02c-.232-.079-.328-.294-.328-.294v-.218s-.01-.443.455-.443z" fill="#f1f2f2"/>
</svg>
