<?xml version="1.0" encoding="UTF-8"?>
<!--Part of Monotone: https://github.com/sixsixfive/Monotone, released under cc-by-sa_v4-->
<svg version="1.1" viewBox="0 0 16 16" xmlns="http://www.w3.org/2000/svg">
<path d="m3.5116 14.657c-1.7026-0.80406-2.5116-2.4909-2.5116-5.237 0-2.6081 0.74566-4.5652 2.3533-6.1767 1.5364-1.5401 3.4783-2.2722 5.9487-2.2428 2.8294 0.03367 4.4022 1.1887 4.671 3.4303 0.027035 0.56882 0.027035 0.94596-0.84513 0.31097-0.84823-0.61756-2.0344-1.1733-3.6631-1.1806-1.8881-0.0085-2.8495 0.33159-4.0564 1.435-1.301 1.1895-1.7112 2.1267-1.7176 3.9247-0.00567 1.6064 0.32499 2.4368 1.1994 3.012 0.95619 0.62893 2.1819 0.36686 3.2954-0.70462 0.76943-0.74036 1.1965-0.92274 1.7575-2.8689 0.56325-1.9542 0.53019-2.3309 0.94003-2.3309 0.43123 0 1.9365 0.7823 2.0456 1.0631 0.05236 0.13476-0.13212 1.0862-0.40996 2.1143-0.78277 2.8965-0.83763 3.3268 0.66614 3.526 1.2289 0.11338 0.79484 0.40999 0.13614 1.2544-1.3817 1.7713-3.6265 0.93218-3.9701-0.7646l-0.22673-0.17876-0.70737 0.5161c-1.2404 0.90502-1.7536 1.3455-3.0204 1.423-0.87365 0.05344-1.2041-0.0035-1.8848-0.32502z" style="fill-opacity:.97143;fill:#f1f2f2;stroke-width:.16176"/>
</svg>
