<?xml version="1.0" encoding="UTF-8" standalone="no"?>
<svg
   xmlns:dc="http://purl.org/dc/elements/1.1/"
   xmlns:cc="http://creativecommons.org/ns#"
   xmlns:rdf="http://www.w3.org/1999/02/22-rdf-syntax-ns#"
   xmlns:svg="http://www.w3.org/2000/svg"
   xmlns="http://www.w3.org/2000/svg"
   id="svg4"
   viewBox="0 0 16 16"
   version="1.1">
  <metadata
     id="metadata10">
    <rdf:RDF>
      <cc:Work
         rdf:about="">
        <dc:format>image/svg+xml</dc:format>
        <dc:type
           rdf:resource="http://purl.org/dc/dcmitype/StillImage" />
        <dc:title></dc:title>
      </cc:Work>
    </rdf:RDF>
  </metadata>
  <defs
     id="defs8" />
  <path
     id="rect14"
     d="M 3 1 C 2.446 1 2 1.446 2 2 C 2 2.5436125 2.4311813 2.9778458 2.9707031 2.9941406 C 2.9707007 2.9961206 2.9707031 2.99802 2.9707031 3 C 2.9707031 5.1221661 4.3752071 6.9191013 5.8417969 8 C 4.3752071 9.0808987 2.9707031 10.877834 2.9707031 13 C 2.9707031 13.002 2.9707007 13.003859 2.9707031 13.005859 C 2.4311813 13.022113 2 13.456387 2 14 C 2 14.554 2.446 15 3 15 L 13 15 C 13.554 15 14 14.554 14 14 C 14 13.456387 13.568819 13.022154 13.029297 13.005859 C 13.029299 13.003859 13.029297 13.002 13.029297 13 C 13.029297 10.877834 11.624793 9.0808987 10.158203 8 C 11.624793 6.9191013 13.029297 5.1221661 13.029297 3 C 13.029297 2.99802 13.029299 2.9961206 13.029297 2.9941406 C 13.568819 2.9778874 14 2.5436125 14 2 C 14 1.446 13.554 1 13 1 L 3 1 z M 3.9707031 3 L 12.029297 3 C 12.029297 5.0318692 10.636159 6.7836604 9.2519531 7.5644531 C 8.9127666 7.7557634 8.9127666 8.2442366 9.2519531 8.4355469 C 10.636159 9.2163395 12.029297 10.968131 12.029297 13 L 10.791016 13 C 9.2422921 11.47674 7.8450684 9.3456933 5.0019531 13 L 3.9707031 13 C 3.9707031 10.968131 5.3638404 9.2163395 6.7480469 8.4355469 C 7.0872334 8.2442366 7.0872334 7.7557634 6.7480469 7.5644531 C 5.3638403 6.7836604 3.9707031 5.0318693 3.9707031 3 z M 5.4003906 5 C 6.1673642 5.6687138 7.8292269 6.7591338 8 8 C 7.9922265 6.8689105 9.1337553 6.5191412 10 6 C 8.0492658 6.0237269 7.3218411 5.0697068 5.4003906 5 z "
     style="opacity:1;fill:#f1f2f2;fill-opacity:1;stroke:none;stroke-width:0.93117827;stroke-linecap:round;stroke-linejoin:round;stroke-miterlimit:4;stroke-dasharray:none;stroke-opacity:1;paint-order:markers fill stroke" />
</svg>
