<?xml version="1.0" encoding="UTF-8"?>
<svg version="1.1" viewBox="0 0 16 16" xmlns="http://www.w3.org/2000/svg">
<g transform="translate(0 -.07042)" style="color:#000000;fill:#f1f2f2">
<path transform="translate(0 .07042)" d="m4.2812 0.92969a3.289 3.289 0 0 0-3.2812 3.2812c0 0.405 0.08375 0.767 0.21875 1.125 1.206-1.822 3.1848-3.1028 5.4688-3.3438a3.263 3.263 0 0 0-2.4062-1.0625zm6.4375 0a3.26 3.26 0 0 0-2.4062 1.0625 7.533 7.533 0 0 1 5.4688 3.375 3.14 3.14 0 0 0 0.21875-1.1562 3.289 3.289 0 0 0-3.2812-3.2812zm-3.2441 2.0625c-3.56 0-6.4434 2.9146-6.4434 6.4746 0 1.6725 0.64168 3.1975 1.6855 4.3496l-0.4043 0.39453a1 1 0 1 0 1.375 1.4375l0.58789-0.57031c0.81285 0.46996 1.739 0.75587 2.7246 0.83008v-1.9883c-0.79754-0.086345-1.5302-0.37202-2.1426-0.81836a1 1 0 0 0-0.14844-0.125c-1.029-0.82151-1.6953-2.0777-1.6953-3.5098 0-2.489 1.9729-4.4922 4.4609-4.4922a4.482 4.482 0 0 1 3.7559 2.0254h2.2246c-0.97531-2.3459-3.2921-4.0078-5.9805-4.0078zm0.019531 2.9277a0.5 0.5 0 0 0-0.08789 0.0097656 0.5 0.5 0 0 0-0.40625 0.5v0.87305c0-0.16728 0.13545-0.30273 0.30273-0.30273h0.69727v-0.57031a0.5 0.5 0 0 0-0.50586-0.50977zm-1.9941 3.0098a0.5 0.5 0 0 0 0 1h1.5v-1z" style="opacity:.5;text-decoration-line:none;text-indent:0;text-transform:none"/>
<path d="m8.875 16.07a0.863 0.863 0 0 1-0.875-0.875v-6.25c0-0.492 0.383-0.875 0.875-0.875h6.25a0.863 0.863 0 0 1 0.875 0.875v6.25a0.863 0.863 0 0 1-0.875 0.875zm2.125-1h2v-1h-2zm0-2h2v-4h-2z" style="fill:#f1f2f2"/>
</g>
</svg>
