<!--Part of Monotone: https://github.com/sixsixfive/Monotone, released under cc-by-sa_v4-->
<svg xmlns="http://www.w3.org/2000/svg" viewBox="0 0 16 16">
    <path d="M2.334 1C1.595 1 1 1.595 1 2.334v11.332C1 14.405 1.595 15 2.334 15h11.332c.739 0 1.334-.595 1.334-1.334V2.334C15 1.595 14.405 1 13.666 1H2.334zm10.717 2.684c-1.334 2.833-.001.001-1.401 2.843-.412.527-1.025 1.09-1.732 1.672.304.654.645 1.226 1.115 1.54.816.543 1.422.095 2.987-.9-1.658 2.522-.051.112-1.635 2.536-.552.401-1.563.703-2.02.588-.64-.117-1.344-.989-1.86-1.852-.107-.18-.204-.386-.304-.586-.41.3-.83.599-1.26.903a9.295 9.295 0 0 1-2.908 1.396c-.707.21-1.748.405-1.976-.506-.238-.949.329-2.413.447-2.73.89-2.393 2.222-4.877 4.549-4.508 1.251.199 1.83 1.62 2.394 3.022.87-.811 1.935-1.88 3.604-3.418zM5.799 5.945c-.32.011-.667.22-1.08.573-.41.35-.69.946-1 1.619-.334.81-.63 1.314.666 1.619 1.02.106 1.314-.079 2.666-.81.237-.136.46-.277.676-.425-.32-.72-.637-1.437-1.01-1.966-.307-.435-.598-.62-.918-.61z" fill="#f1f2f2"/>
</svg>
