<?xml version="1.0" encoding="UTF-8" standalone="no"?>
<!--Part of Monotone: https://github.com/sixsixfive/Monotone, released under cc-by-sa_v4-->
<svg id="svg4" xmlns="http://www.w3.org/2000/svg" version="1.1" viewBox="0 0 16 16"><path id="rect819" style="fill:#f1f2f2" d="m15.004 0.9707l-10.004 0.0293h-1-1v1 12 1h1 1l10.004-0.029c0.554-0.002 1-0.446 1-1v-12c0-0.5543-0.446-1.0019-1-1.0003zm-6.004 2.0293a5 5.001 0 0 1 5 5 5 5.001 0 0 1 -5 5.002 5 5.001 0 0 1 -5 -5.002 5 5.001 0 0 1 5 -5z"/><path id="rect821" style="fill:#f1f2f2" d="m1 1c-0.554 0-1 0.446-1 1v12c0 0.554 0.446 1 1 1h1v-14z"/><path id="ellipse825" style="fill:#f1f2f2" d="m8.998 6c-1.0462 0-1.9981 0.9524-1.998 2-0.0001 1.0476 0.9518 2 1.998 2 1.046 0 1.998-0.9524 1.998-2s-0.952-2-1.998-2zm0.002 0.9961c0.5236 0 1.002 0.4781 1.002 1.0039s-0.4784 1.0039-1.002 1.0039-1.002-0.4781-1.002-1.0039 0.4784-1.0039 1.002-1.0039z"/></svg>
