<!--Part of Monotone: https://github.com/sixsixfive/Monotone, released under cc-by-sa_v4-->
<svg xmlns="http://www.w3.org/2000/svg" version="1" viewBox="0 0 16 16">
    <path style="text-decoration-color:#000;font-variant-numeric:normal;font-variant-ligatures:normal;text-decoration-line:none;font-variant-position:normal;mix-blend-mode:normal;font-feature-settings:normal;shape-padding:0;font-variant-alternates:normal;text-indent:0;font-variant-caps:normal;text-decoration-style:solid;text-orientation:mixed;isolation:auto;text-transform:none" d="M7.719.066C5.234.156 2.783 1.311 1.4 3.506v.002c-3.089 4.17-.775 10.804 4.239 12.15 4.892 1.715 10.545-2.443 10.355-7.629a.5.5 0 0 0 0-.012 8.009 8.009 0 0 0-1.729-4.964.5.5 0 0 0-.023-.028l.02.026C12.771 1.02 10.344.08 7.93.105a.5.5 0 0 0-.211-.039zm.031 1a.5.5 0 0 0 .004 0c2.2-.078 4.389.788 5.701 2.577a.5.5 0 0 0 .022.025l.003.006a7.01 7.01 0 0 1 1.514 4.346l.002-.012v.045a.5.5 0 0 0 0 .008c.168 4.43-4.846 8.118-9.025 6.654a.995.995 0 0 0-.067-.022.5.5 0 0 0-.005-.002C1.617 13.542-.434 7.663 2.205 4.102a.5.5 0 0 0 .002-.002c.015-.02.028-.04.041-.06C3.43 2.164 5.552 1.147 7.75 1.067z" fill="#f1f2f2" color="#000" white-space="normal"/>
    <path fill="#f1f2f2" d="M3.982 4.002c-.551.029-1.186.946-.918 1.13L5.11 6.968 3.95 8.06 3 7.87l.41 1.046c1.242-.27 2.965 1.29 3.426 1.813.452.514 1.56 3.08 1.885 4.73a4.1 4.1 0 0 0 .144.506 8 8 0 0 0 6.635-5.19c-.005-.005-.051-.068-.051-.068l-1.51-1.082 1.139-2.658c-.53.145-3.533-1.087-3.18-.895l-.904.483L10.02 6l-1.9.078-3.91-2.03a.445.445 0 0 0-.228-.046z"/>
</svg>
