<?xml version="1.0" encoding="UTF-8"?>
<svg version="1.1" viewBox="0 0 16 16" xmlns="http://www.w3.org/2000/svg"><path d="m8 0c-2.2091 0-4 1.7909-4 4h-0.77734c-0.67711 0-1.2227 0.54551-1.2227 1.2227v8.5547c0 0.67711 0.54551 1.2227 1.2227 1.2227h5.7773v-4h2v-2h3v-3.7773c0-0.67711-0.5455-1.2227-1.2227-1.2227h-0.77734c0-2.2091-1.7909-4-4-4zm0 1c1.6569 0 3 1.3431 3 3h-6c0-1.6569 1.3431-3 3-3zm-4 4h1c0 1.6569 1.3431 3 3 3s3-1.3431 3-3h1c0 2.2091-1.7909 4-4 4s-4-1.7909-4-4z" fill="#f1f2f2" opacity=".5" style="paint-order:markers fill stroke"/><path d="m12 10.007v1.996h-2v1.997h2v1.997h2v-1.997h2v-1.997h-2v-1.996z" fill="#f1f2f2"/></svg>
