<?xml version="1.0" encoding="UTF-8" standalone="no"?>
<!--Part of Monotone: https://github.com/sixsixfive/Monotone, released under cc-by-sa_v4-->
<svg id="svg4" xmlns="http://www.w3.org/2000/svg" viewBox="0 0 16 16" version="1.1"><path id="path4798" style="text-indent:0;text-decoration-line:none;text-transform:none;fill:#f1f2f2" d="m1.8125 1c-0.1139 0.0226-0.2229 0.0649-0.3223 0.125-0.0043 0.0026-0.0094 0.0032-0.0136 0.0059-0.0958 0.0588-0.181 0.1335-0.252 0.2207-0.0708 0.0877-0.1263 0.1867-0.1641 0.2929-0.0014 0.0041-0.0025 0.0077-0.0039 0.0117-0.0388 0.1104-0.058 0.2268-0.0566 0.3438v13c-0.00016 0.133 0.0264 0.266 0.0781 0.389 0.05 0.118 0.1223 0.225 0.2129 0.316 0.0013 0.001 0.0026 0.003 0.0039 0.004 0.089 0.088 0.1937 0.158 0.3086 0.207 0.0055 0.002 0.0102 0.006 0.0156 0.008 0.1208 0.05 0.2502 0.076 0.3809 0.076h11c0.133 0 0.266-0.026 0.389-0.078 0.118-0.05 0.225-0.122 0.316-0.213l0.004-0.004c0.088-0.089 0.158-0.194 0.207-0.309 0.002-0.005 0.006-0.01 0.008-0.015 0.05-0.121 0.076-0.25 0.076-0.381v-9.4375c0.002-0.1309-0.021-0.2609-0.068-0.3828v-0.0039c-0.001-0.0014-0.002-0.0026-0.002-0.0039-0.048-0.1222-0.12-0.2337-0.211-0.3281l-3.563-3.5645c-0.095-0.0916-0.2082-0.1633-0.3318-0.2109-0.1231-0.0482-0.2545-0.0714-0.3867-0.0684h-7.4375c-0.0312-0.00147-0.0624-0.00147-0.0938 0-0.0312-0.00147-0.0625-0.00147-0.0937 0zm0.7871 1h4.8008c0.3324 0 0.5996 0.2672 0.5996 0.5996v2.9512h0.0098c0.0245 0.2343 0.2051 0.4149 0.4394 0.4394v0.0098h3.9508c0.333 0 0.6 0.2672 0.6 0.5996v7.8004c0 0.333-0.267 0.6-0.6 0.6h-9.8004c-0.3324 0-0.5996-0.267-0.5996-0.6v-6.8004c0-0.0353 0.0137-0.066 0.0195-0.0996-0.0058-0.0336-0.0195-0.0643-0.0195-0.0996v-4.8008c0-0.3324 0.2672-0.5996 0.5996-0.5996zm6.4004 0l3 3h-2c-1 0.0001-1 0-1-1v-2z"/><path id="path13140" style="color:#000000;fill:#f1f2f2" d="m1.5762 6.9668c-0.166 0.012-0.3191 0.0377-0.4571 0.0547-0.013 0.001-0.0299-0.002-0.0429 0a0.347 0.347 0 0 0 -0.0762 0.0176v4.0919a4 4 0 0 1 1 -0.131 4 4 0 0 1 4 4 4 4 0 0 1 -0.1328 1h3.6621l0.1562-0.025a0.347 0.347 0 0 0 0.293 -0.305 8.01 8.01 0 0 0 -0.0762 -1.852 0.347 0.347 0 0 0 -0.2832 -0.283l-1.9023-0.349c-0.15-0.47-0.3671-0.91-0.6191-1.317l1.1093-1.525a0.347 0.347 0 0 0 -0.0117 -0.4241 8.068 8.068 0 0 0 -1.3476 -1.3086 0.347 0.347 0 0 0 -0.4024 -0.0097l-1.6191 1.1113a5.841 5.841 0 0 0 -1.293 -0.5234l-0.2949-1.8731a0.347 0.347 0 0 0 -0.293 -0.2949 8.103 8.103 0 0 0 -0.9453 -0.0547c-0.075 0-0.1638-0.003-0.2598 0-0.013 0-0.0568-0.004-0.1308 0 0.032-0.002 0.0228-0.004-0.0332 0z"/></svg>
