<?xml version="1.0" encoding="UTF-8" standalone="no"?>
<!--Part of Monotone: https://github.com/sixsixfive/Monotone, released under cc-by-sa_v4-->
<svg id="svg4" xmlns="http://www.w3.org/2000/svg" viewBox="0 0 16 16" version="1.1"><path id="path4798" style="text-indent:0;text-decoration-line:none;text-transform:none;fill:#f1f2f2" d="m1.8125 1c-0.1139 0.0226-0.2229 0.0649-0.3223 0.125-0.0043 0.0026-0.0094 0.0032-0.0136 0.0059-0.0958 0.0588-0.181 0.1335-0.252 0.2207-0.0708 0.0877-0.1263 0.1867-0.1641 0.2929-0.0014 0.0041-0.0025 0.0077-0.0039 0.0117-0.0388 0.1104-0.058 0.2268-0.0566 0.3438v8.09a0.99813 0.99813 0 0 0 0.0059 0.111 0.99813 0.99813 0 0 0 0.0156 0.098 0.99813 0.99813 0 0 0 0.0058 0.021 0.99813 0.99813 0 0 0 0.0567 0.17 0.99813 0.99813 0 0 0 0.043 0.088 0.99813 0.99813 0 0 0 0.0019 0.002 0.99813 0.99813 0 0 0 0.1133 0.162 0.99813 0.99813 0 0 0 0.1445 0.137 0.99813 0.99813 0 0 0 0.168 0.105 0.99813 0.99813 0 0 0 0.0527 0.024 0.99813 0.99813 0 0 0 0.0391 0.017 0.99813 0.99813 0 0 0 0.1933 0.051 0.99813 0.99813 0 0 0 0.0977 0.012 0.99813 0.99813 0 0 0 0.002 0 0.99813 0.99813 0 0 0 0.0605 0.002v-1.8146-1.0215-0.6543c0-0.0353 0.0137-0.066 0.0195-0.0996-0.0058-0.0336-0.0195-0.0643-0.0195-0.0996v-4.8008c0-0.3324 0.2672-0.5996 0.5996-0.5996h4.8008c0.3324 0 0.5996 0.2672 0.5996 0.5996v2.9512h0.0098c0.0245 0.2343 0.2051 0.4149 0.4394 0.4394v0.0098h3.9508c0.333 0 0.6 0.2672 0.6 0.5996v7.8004c0 0.333-0.267 0.6-0.6 0.6h-0.884-3.7914-1.8125a0.99813 0.99813 0 0 0 0.9981 1h6.0898c0.133 0 0.266-0.026 0.389-0.078 0.118-0.05 0.225-0.122 0.316-0.213l0.004-0.004c0.088-0.089 0.158-0.194 0.207-0.309 0.002-0.005 0.006-0.01 0.008-0.015 0.05-0.121 0.076-0.25 0.076-0.381v-9.4375c0.002-0.1309-0.021-0.2609-0.068-0.3828v-0.0039c-0.001-0.0014-0.002-0.0026-0.002-0.0039-0.048-0.1222-0.12-0.2337-0.211-0.3281l-3.563-3.5645c-0.095-0.0916-0.2082-0.1633-0.3318-0.2109-0.1231-0.0482-0.2545-0.0714-0.3867-0.0684h-7.4375c-0.0312-0.00147-0.0624-0.00147-0.0938 0-0.0312-0.00147-0.0625-0.00147-0.0937 0zm7.1875 1l3 3h-2c-1 0.0001-1 0-1-1v-2zm-7 9.908a0.99813 0.99813 0 0 0 -0.0742 0.002 0.99813 0.99813 0 0 0 -0.1836 0.031 0.99813 0.99813 0 0 0 -0.0938 0.03 0.99813 0.99813 0 0 0 -0.0761 0.031 0.99813 0.99813 0 0 0 -0.0215 0.01 0.99813 0.99813 0 0 0 -0.0235 0.015 0.99813 0.99813 0 0 0 -0.0683 0.039 0.99813 0.99813 0 0 0 -0.0781 0.057 0.99813 0.99813 0 0 0 -0.0235 0.02 0.99813 0.99813 0 0 0 -0.0527 0.045 0.99813 0.99813 0 0 0 -0.0176 0.019 0.99813 0.99813 0 0 0 -0.0508 0.055 0.99813 0.99813 0 0 0 -0.0019 0.002 0.99813 0.99813 0 0 0 -0.0528 0.068 0.99813 0.99813 0 0 0 -0.0527 0.084 0.99813 0.99813 0 0 0 -0.0449 0.09 0.99813 0.99813 0 0 0 -0.0313 0.082 0.99813 0.99813 0 0 0 -0.0058 0.016 0.99813 0.99813 0 0 0 -0.0098 0.035 0.99813 0.99813 0 0 0 -0.0176 0.066 0.99813 0.99813 0 0 0 0 0.008 0.99813 0.99813 0 0 0 -0.0136 0.094 0.99813 0.99813 0 0 0 -0.0059 0.088 0.99813 0.99813 0 0 0 0 0.011v2.094c-0.00016 0.133 0.0264 0.266 0.0781 0.389 0.05 0.118 0.1223 0.225 0.2129 0.316 0.0013 0.001 0.0026 0.003 0.0039 0.004 0.089 0.088 0.1937 0.158 0.3086 0.207 0.0055 0.002 0.0102 0.006 0.0156 0.008 0.1208 0.05 0.2502 0.076 0.3809 0.076h2.1055a0.99813 0.99813 0 0 0 0.9863 -1h-2.6074c-0.2678 0-0.4844-0.217-0.4844-0.484v-2.608z"/><path id="rect4489" style="fill:#f1f2f2" d="m5.5 6c-0.831 0-1.5 0.669-1.5 1.5 0 0.1768 0.0361 0.3428 0.0918 0.5h-1.9492c-0.6325 0-1.1415 0.5084-1.1426 1.1406v0.9494c-0.00002 0.004-0.00002 0.008 0 0.012v3.414 1.341c0 0.634 0.5094 1.143 1.1426 1.143h0.3418c-0.2678 0-0.4844-0.217-0.4844-0.484v-0.653c-0.0001-0.002-0.002-0.003-0.002-0.006v-1.332c0.0001-0.003 0.002-0.006 0.002-0.009v-2.973-1.0586-0.291c0-0.0035-0.0019-0.0064-0.002-0.0098v-0.041l0.002-0.002v-0.1406h0.4844 2.0996 0.4551c-0.0256-0.0588-0.0391-0.1229-0.0391-0.1914v-1.3242c0-0.2678 0.2166-0.4844 0.4844-0.4844h0.0312c0.2678 0 0.4844 0.2166 0.4844 0.4844v1.3242c0 0.0685-0.0135 0.1326-0.0391 0.1914h1.5547c0.2678 0 0.4844 0.2166 0.4844 0.4844v1.5766c0.0671-0.036 0.1392-0.061 0.2207-0.061h1.2949c0.2678 0 0.4844 0.217 0.4844 0.484v0.032c0 0.2-0.121 0.373-0.2949 0.447-0.0587 0.024-0.1246 0.036-0.1953 0.037-0.0036 0-0.0062 0.002-0.0098 0.002-0.0024 0-0.0073-0.002-0.0098-0.002h-1.2695c-0.0815 0-0.1536-0.025-0.2207-0.061v3.061h-5.2129c-0.2678 0-0.4844 0.217-0.4844 0.484v0.032c0 0.267 0.2166 0.484 0.4844 0.484h4.7285 0.3438 2.1896c0.268 0 0.484-0.217 0.484-0.484v-0.032c0-0.267-0.216-0.484-0.484-0.484h-1.0783c0.0063-0.049 0.0293-0.092 0.0293-0.143v-1.949c0.1572 0.056 0.3232 0.092 0.5 0.092 0.831 0 1.5-0.669 1.5-1.5s-0.669-1.5-1.5-1.5c-0.1768 0-0.3428 0.036-0.5 0.092v-0.9494c0-0.6332-0.5094-1.1426-1.1426-1.1426h-0.9492c0.0557-0.1572 0.0918-0.3232 0.0918-0.5 0-0.831-0.669-1.5-1.5-1.5z"/></svg>
