<!--Part of Monotone: https://github.com/sixsixfive/Monotone, released under cc-by-sa_v4-->
<svg xmlns="http://www.w3.org/2000/svg" viewBox="0 0 16 16">
    <path d="M16 6.384v3.231c0 .213-.224.385-.502.385h-2.996c-.278 0-.502-.172-.502-.385v-3.23c0-.214.224-.385.502-.385h2.996c.278 0 .502.171.502.384zm-6 0v3.231c0 .213-.224.385-.502.385H6.502C6.224 10 6 9.828 6 9.615v-3.23C6 6.17 6.224 6 6.502 6h2.996c.278 0 .502.171.502.384zm-6 0v3.231c0 .213-.224.385-.502.385H.502C.224 10 0 9.828 0 9.615v-3.23C0 6.17.224 6 .502 6h2.996c.278 0 .502.17.502.384z" style="marker:none" overflow="visible" color="#000" fill="#f1f2f2"/>
</svg>
