<?xml version="1.0" encoding="UTF-8"?>
<!--Part of Monotone: https://github.com/sixsixfive/Monotone, released under cc-by-sa_v4-->
<svg version="1.1" viewBox="0 0 16 16" xmlns="http://www.w3.org/2000/svg">
<path d="m1.8125 1c-0.1139 0.0226-0.2229 0.0649-0.3223 0.125-0.0043 0.0026-0.0094 0.0032-0.0136 0.0059-0.0958 0.0588-0.181 0.1335-0.252 0.2207-0.0708 0.0877-0.1263 0.1867-0.1641 0.2929-0.0014 0.0041-0.0025 0.0077-0.0039 0.0117-0.0388 0.1104-0.058 0.2268-0.0566 0.3438v13c-1.6e-4 0.133 0.0264 0.266 0.0781 0.389 0.05 0.118 0.1223 0.225 0.2129 0.316 0.0013 1e-3 0.0026 3e-3 0.0039 4e-3 0.089 0.088 0.1937 0.158 0.3086 0.207 0.0055 2e-3 0.0102 6e-3 0.0156 8e-3 0.1208 0.05 0.2502 0.076 0.3809 0.076h11c0.133 0 0.266-0.026 0.389-0.078 0.118-0.05 0.225-0.122 0.316-0.213l4e-3 -4e-3c0.088-0.089 0.158-0.194 0.207-0.309 2e-3 -5e-3 6e-3 -0.01 8e-3 -0.015 0.05-0.121 0.076-0.25 0.076-0.381v-9.4375c2e-3 -0.1309-0.021-0.2609-0.068-0.3828v-0.0039c-1e-3 -0.0014-2e-3 -0.0026-2e-3 -0.0039-0.048-0.1222-0.12-0.2337-0.211-0.3281l-3.563-3.5645c-0.095-0.0916-0.2082-0.1633-0.3318-0.2109-0.1231-0.0482-0.2545-0.0714-0.3867-0.0684h-7.4375c-0.0312-0.00147-0.0624-0.00147-0.0938 0-0.0312-0.00147-0.0625-0.00147-0.0937 0zm0.7871 1h4.8008c0.3324 0 0.5996 0.2672 0.5996 0.5996v2.9512h0.0098c0.0245 0.2343 0.2051 0.4149 0.4394 0.4394v0.0098h3.9508c0.333 0 0.6 0.2672 0.6 0.5996v7.8004c0 0.333-0.267 0.6-0.6 0.6h-9.8004c-0.3324 0-0.5996-0.267-0.5996-0.6v-6.8004c0-0.0353 0.0137-0.066 0.0195-0.0996-0.0058-0.0336-0.0195-0.0643-0.0195-0.0996v-4.8008c0-0.3324 0.2672-0.5996 0.5996-0.5996zm6.4004 0 3 3h-2c-1 1e-4 -1 0-1-1v-2z" style="fill:#f1f2f2;text-decoration-line:none;text-indent:0;text-transform:none"/>
<path d="m7.502 7.0003a0.23348 0.23348 0 0 0-0.21099 0.12899l-3.2663 6.5326a0.23348 0.23348 0 0 0 0.30248 0.31848s0.28748-0.11749 0.67296-0.24498v-0.98544a0.24998 0.24998 0 1 1 0.49997 0v0.84195c0.17099-0.0465 0.33598-0.09249 0.51747-0.12699a0.24898 0.24898 0 0 1-0.0175-0.08799v-1.6269a0.24998 0.24998 0 1 1 0.49997 0v1.6269c0 7e-3 -0.0035 0.0135-4e-3 0.02 0.0825-7e-3 0.16599-0.0175 0.24498-0.019 0.09349 1e-3 0.17449 0.01 0.25898 0.0175v-1.1454a0.24998 0.24998 0 1 1 0.49997 0v1.2199c0.15999 0.036 0.33248 0.086 0.49997 0.13449v-0.85444a0.24998 0.24998 0 1 1 0.49997 0v0.98844c0.15199 0.039 0.31898 0.0755 0.49997 0.10999v-0.59846a0.24998 0.24998 0 1 1 0.49997 0v0.67596c0.15749 0.019 0.31698 0.0375 0.49997 0.05v-0.22598a0.24998 0.24998 0 1 1 0.49997 0v0.24098c0.09199 2e-3 0.16899 0.0095 0.26748 9e-3a0.23348 0.23348 0 0 0 0.20799-0.33798l-3.2663-6.5326a0.23348 0.23348 0 0 0-0.20699-0.12899z" style="fill:#f1f2f2;stroke-width:.49997"/>
</svg>
