<?xml version="1.0" encoding="UTF-8"?>
<svg version="1.1" viewBox="0 0 16 16" xmlns="http://www.w3.org/2000/svg">
<path d="m1.8125 1c-0.1139 0.0226-0.22287 0.0649-0.32227 0.125-0.0043 0.0026-0.0094699 0.0031594-0.013672 0.0058594-0.0958 0.0588-0.18095 0.1335-0.25195 0.2207-0.0708 0.0877-0.12626 0.18677-0.16406 0.29297-0.0014 0.0041-0.0025063 0.0077198-0.0039063 0.011719-0.038796 0.1104-0.058041 0.22675-0.056641 0.34375v7h1c1.7e-5 -0.0026039-1.69e-5 -0.0052086 0-0.0078125 0.006689 7.903e-4 0.012737 0.0034708 0.019531 0.0039063v0.0058593c1.0987 0.010682 1.9805 0.89674 1.9805 1.998 0 1.1013-0.88178 1.9874-1.9805 1.998v0.001953h-0.019531-0.072266-0.92773v2c-1.6e-4 0.133 0.026425 0.26567 0.078125 0.38867 0.05 0.118 0.12229 0.22541 0.21289 0.31641 0.0013 1e-3 0.0026063 0.002906 0.0039063 0.003906 0.089 0.088 0.19369 0.15803 0.30859 0.20703 0.0055 2e-3 0.010225 0.005812 0.015625 0.007812 0.1208 0.050018 0.25016 0.076172 0.38086 0.076172h11c0.133 0 0.26567-0.026125 0.38867-0.078125 0.118-0.05 0.22541-0.12189 0.31641-0.21289l0.003906-0.003906c0.088-0.089 0.15803-0.19359 0.20703-0.30859 2e-3 -5e-3 0.005812-0.010615 0.007812-0.015625 0.050018-0.121 0.076172-0.24986 0.076172-0.38086v-1.1875c1.1573-0.41743 2-1.5196 2-2.8125 0-1.2929-0.84274-2.3951-2-2.8125v-2.625c2e-3 -0.1309-0.021359-0.26091-0.068359-0.38281v-0.0039063c-1e-3 -0.0014-0.001953-0.0026062-0.001953-0.0039062-0.047955-0.12219-0.11994-0.23372-0.21094-0.32812l-3.5625-3.5645c-0.095-0.0916-0.20843-0.16334-0.33203-0.21094-0.1231-0.0482-0.25452-0.071359-0.38672-0.068359h-7.4375c-0.0312-0.00147-0.06235-0.00147-0.09375 0-0.0312-0.00147-0.06255-0.00147-0.09375 0zm0.78711 1h4.8008c0.3324 0 0.59961 0.26721 0.59961 0.59961v2.9512h0.0097656c0.0245 0.2343 0.20515 0.41495 0.43945 0.43945v0.0097656h3.9512c0.333 0 0.59961 0.26721 0.59961 0.59961v1.4004 1c0.17395 0 0.34054 0.027429 0.5 0.070312 0.022574 0.0058057 0.044153 0.012968 0.066406 0.019531 0.1522 0.046761 0.29817 0.107 0.43359 0.18555 0.5958 0.34556 1 0.98354 1 1.7246s-0.4042 1.379-1 1.7246c-0.13542 0.078545-0.28139 0.13879-0.43359 0.18555-0.022253 0.006563-0.043832 0.013725-0.066406 0.019532-0.15946 0.042882-0.32605 0.070312-0.5 0.070312v1 0.40039c0 0.333-0.26661 0.59961-0.59961 0.59961h-9.8008c-0.3324 0-0.59961-0.26661-0.59961-0.59961v-0.40039h0.072266c0.028962 0 0.054992-0.009454 0.082031-0.015625 1.5729-0.083081 2.8457-1.3925 2.8457-2.9844 0-1.6133-1.3062-2.9399-2.9082-2.9902-0.016636-0.0022441-0.031557-0.0097656-0.048828-0.0097656-0.0047827 0-0.0089338 0.001777-0.013672 0.0019531-0.0033001-3.3e-5 -0.0064632 2.21e-5 -0.0097657 0v0.0019531c-0.0067946 4.355e-4 -0.012842 0.003116-0.019531 0.0039063 0.0053131-1.7997 0-3.5929 0-5.4082 0-0.3324 0.26721-0.59961 0.59961-0.59961zm6.4004 0 3 3h-2c-1 1e-4 -1 0-1-1v-2z" style="fill:#f1f2f2;text-decoration-line:none;text-indent:0;text-transform:none"/>
</svg>
