<?xml version="1.0" encoding="UTF-8"?>
<svg version="1.1" viewBox="0 0 16 16" xmlns="http://www.w3.org/2000/svg">
<path d="m1.8125 1c-0.1139 0.0226-0.22287 0.0649-0.32227 0.125-0.0043 0.0026-0.0094699 0.0031594-0.013672 0.0058594-0.0958 0.0588-0.18095 0.1335-0.25195 0.2207-0.0708 0.0877-0.12626 0.18677-0.16406 0.29297-0.0014 0.0041-0.0025063 0.0077198-0.0039063 0.011719-0.038796 0.1104-0.058041 0.22675-0.056641 0.34375v7c0 0.554 0.446 1 1 1h1.0254c-0.0053796 0.044868-0.025391 0.084507-0.025391 0.13086v1.8691h-1v0.011719a1.1668 1.0001 0 0 0-0.6582 1.6953l2.334 2a1.1668 1.0001 0 0 0 1.6484 0l1.6758-1.4355v0.72852 1h6c0.133 0 0.26567-0.026125 0.38867-0.078125 0.118-0.05 0.22541-0.12189 0.31641-0.21289l0.003906-0.003906c0.088-0.089 0.15803-0.19359 0.20703-0.30859 2e-3 -5e-3 0.005812-0.010615 0.007812-0.015625 0.050018-0.121 0.076172-0.24986 0.076172-0.38086v-9.4375c2e-3 -0.1309-0.021359-0.26091-0.068359-0.38281v-0.0039063c-1e-3 -0.0014-0.001953-0.0026062-0.001953-0.0039062-0.047953-0.12219-0.11994-0.23372-0.21094-0.32812l-3.5625-3.5645c-0.095-0.0916-0.20843-0.16334-0.33203-0.21094-0.1231-0.0482-0.25452-0.071359-0.38672-0.068359h-7.4375c-0.0312-0.00147-0.06235-0.00147-0.09375 0-0.0312-0.00147-0.06255-0.00147-0.09375 0zm0.78711 1h4.8008c0.3324 0 0.59961 0.26721 0.59961 0.59961v2.9512h0.0097656c0.0245 0.2343 0.20515 0.41495 0.43945 0.43945v0.0097656h3.9512c0.333 0 0.59961 0.26721 0.59961 0.59961v7.8008c0 0.333-0.26661 0.59961-0.59961 0.59961h-4.4004v-2a1.1668 1.0001 0 0 0-1-0.99023v-0.009766h-1v-1.8691c0-0.62602-0.50484-1.1309-1.1309-1.1309h-0.73828c-0.046352 0-0.085992 0.020011-0.13086 0.025391v-0.025391h-1-1v-1-0.40039c0-0.0353 0.013731-0.066009 0.019531-0.099609-0.0057998-0.0336-0.019531-0.064309-0.019531-0.099609v-4.8008c0-0.3324 0.26721-0.59961 0.59961-0.59961zm6.4004 0 3 3h-2c-1 1e-4 -1 0-1-1v-2zm-4.5 8c0.277 0 0.5 0.223 0.5 0.5v2.3574 0.14258h1.9844c0.0036016 0.037098-0.0014437 0.074324-0.033203 0.10156l-2.332 2c-0.061963 0.05309-0.17632 0.05309-0.23828 0l-2.332-2c-0.031759-0.027239-0.036805-0.064464-0.033203-0.10156h1.9844v-1-1.5c0-0.277 0.223-0.5 0.5-0.5z" style="fill:#f1f2f2;text-decoration-line:none;text-indent:0;text-transform:none"/>
</svg>
