<!--Part of Monotone: https://github.com/sixsixfive/Monotone, released under cc-by-sa_v4-->
<svg xmlns="http://www.w3.org/2000/svg" viewBox="0 0 16 16">
    <g color="#000" fill="#f1f2f2">
        <path style="line-height:normal;-inkscape-font-specification:Sans;text-indent:0;text-align:start;text-decoration-line:none;text-transform:none;marker:none" d="M4.906.094a1 1 0 0 0-.375 1.875l.469.25v2.75c-.126.2-.256.374-.438.688-.272.47-.607 1.04-.968 1.687-.724 1.294-1.54 2.816-2.188 4-.57 1.044-.562 2.441.281 3.5.01.013.022.018.031.031.674.89 1.717 1.125 2.594 1.125h7.375c.877 0 1.92-.235 2.594-1.125.009-.011.022-.02.031-.031.836-1.05.837-2.428.281-3.469-.004-.009.004-.022 0-.03-1.167-2.379-2.471-4.219-3.562-6.407V2.25l.5-.28a1 1 0 0 0-.5-1.876H5a1 1 0 0 0-.094 0zm2.094 2h2.03v3.125a1 1 0 0 0 .094.438c1.201 2.457 2.575 4.32 3.687 6.593a1 1 0 0 0 .031.063c.24.438.26.88-.093 1.312a1 1 0 0 0-.063.031c-.144.199-.46.344-1 .344H4.312c-.54 0-.855-.145-1-.344a1 1 0 0 0-.062-.03c-.354-.432-.334-.875-.094-1.313.646-1.182 1.47-2.717 2.188-4 .358-.642.705-1.203.968-1.656.264-.454.474-.84.5-.875A1 1 0 0 0 7 5.219z" font-weight="400" font-family="Sans" overflow="visible"/>
        <path style="marker:none" d="M6.219 9.002L4 13h8L9.781 9z" overflow="visible" opacity=".25"/>
    </g>
</svg>
