<?xml version="1.0" encoding="UTF-8" standalone="no"?>
<!--Part of Monotone: https://github.com/sixsixfive/Monotone, released under cc-by-sa_v4-->
<svg id="svg4" xmlns="http://www.w3.org/2000/svg" viewBox="0 0 16 16" version="1.1"><path id="path4798" style="text-indent:0;text-decoration-line:none;text-transform:none;fill:#f1f2f2" d="m1.8125 1c-0.1139 0.0226-0.2229 0.0649-0.3223 0.125-0.0043 0.0026-0.0094 0.0032-0.0136 0.0059-0.0958 0.0588-0.181 0.1335-0.252 0.2207-0.0708 0.0877-0.1263 0.1867-0.1641 0.2929-0.0014 0.0041-0.0025 0.0077-0.0039 0.0117-0.0388 0.1104-0.058 0.2268-0.0566 0.3438v13c-0.00016 0.133 0.0264 0.266 0.0781 0.389 0.05 0.118 0.1223 0.225 0.2129 0.316 0.0013 0.001 0.0026 0.003 0.0039 0.004 0.089 0.088 0.1937 0.158 0.3086 0.207 0.0055 0.002 0.0102 0.006 0.0156 0.008 0.1208 0.05 0.2502 0.076 0.3809 0.076h11c0.133 0 0.266-0.026 0.389-0.078 0.118-0.05 0.225-0.122 0.316-0.213l0.004-0.004c0.088-0.089 0.158-0.194 0.207-0.309 0.002-0.005 0.006-0.01 0.008-0.015 0.05-0.121 0.076-0.25 0.076-0.381v-9.4375c0.002-0.1309-0.021-0.2609-0.068-0.3828v-0.0039c-0.001-0.0014-0.002-0.0026-0.002-0.0039-0.048-0.1222-0.12-0.2337-0.211-0.3281l-3.563-3.5645c-0.095-0.0916-0.2082-0.1633-0.3318-0.2109-0.1231-0.0482-0.2545-0.0714-0.3867-0.0684h-7.4375c-0.0312-0.00147-0.0624-0.00147-0.0938 0-0.0312-0.00147-0.0625-0.00147-0.0937 0zm0.7871 1h4.8008c0.3324 0 0.5996 0.2672 0.5996 0.5996v2.9512h0.0098c0.0245 0.2343 0.2051 0.4149 0.4394 0.4394v0.0098h3.9508c0.333 0 0.6 0.2672 0.6 0.5996v7.8004c0 0.333-0.267 0.6-0.6 0.6h-9.8004c-0.3324 0-0.5996-0.267-0.5996-0.6v-6.8004c0-0.0353 0.0137-0.066 0.0195-0.0996-0.0058-0.0336-0.0195-0.0643-0.0195-0.0996v-4.8008c0-0.3324 0.2672-0.5996 0.5996-0.5996zm6.4004 0l3 3h-2c-1 0.0001-1 0-1-1v-2z"/><path id="path4715" style="color:#000000;text-indent:0;text-decoration-line:none;stroke-width:.5;text-transform:none;fill:#f1f2f2" d="m5 8v3.0879c-0.16046-0.05749-0.32955-0.08722-0.5-0.08789-0.82843 0-1.5 0.67157-1.5 1.5s0.67157 1.5 1.5 1.5c0.17045-0.000675 0.33954-0.0304 0.5-0.08789v0.0918c0.21068-0.1007 0.38206-0.25072 0.5332-0.41797 0.29767-0.28283 0.46639-0.67532 0.4668-1.0859-0.0004255-0.01498-0.00108-0.02996-0.00195-0.04492 0.000087-0.004 0.0019-0.0077 0.002-0.01172v-2.4434-1.001h3l0.000024 1v1.0879c-0.16046-0.05749-0.32955-0.08722-0.5-0.08789-0.82843 0-1.5 0.67157-1.5 1.5s0.67157 1.5 1.5 1.5c0.17045-0.000675 0.33954-0.0304 0.5-0.08789v0.08789c0.20053-0.09685 0.36913-0.24111 0.51948-0.40234 0.071413-0.06646 0.13617-0.13972 0.19336-0.21875 0.18586-0.25543 0.28634-0.56301 0.28711-0.87891-0.0005273-0.01107-0.00118-0.02214-0.00195-0.0332 0.000064-0.0027 0.0019-0.0051 0.002-0.0078v-4.459z"/></svg>
