<?xml version="1.0" encoding="UTF-8"?>
<svg version="1.1" viewBox="0 0 16 16" xmlns="http://www.w3.org/2000/svg">
<path d="m16.001 14.187c-0.0226 0.1139-0.0649 0.2229-0.125 0.3223-0.0026 0.0043-0.0032 0.0094-0.0059 0.0136-0.0588 0.0958-0.1335 0.181-0.2207 0.252-0.0877 0.0708-0.1867 0.1263-0.2929 0.1641-0.0041 0.0014-0.0077 0.0025-0.0117 0.0039-0.1104 0.0388-0.2268 0.058-0.3438 0.0566h-14c-0.133 1.6e-4 -0.266-0.0264-0.389-0.0781-0.118-0.05-0.225-0.1223-0.316-0.2129-1e-3 -0.0013-3e-3 -0.0026-4e-3 -0.0039-0.088-0.089-0.158-0.1937-0.207-0.3086-2e-3 -0.0055-6e-3 -0.0102-8e-3 -0.0156-0.05-0.1208-0.076-0.2502-0.076-0.3809v-12c0-0.133 0.026-0.266 0.078-0.389 0.05-0.118 0.122-0.225 0.213-0.316l4e-3 -4e-3c0.089-0.088 0.194-0.158 0.309-0.207 5e-3 -2e-3 0.01-6e-3 0.015-8e-3 0.121-0.05 0.25-0.076 0.381-0.076h11.438c0.1309-2e-3 0.2609 0.021 0.3828 0.068h0.0039c0.0014 1e-3 0.0026 2e-3 0.0039 2e-3 0.1222 0.048 0.2337 0.12 0.3281 0.211l2.564 2.5622c0.0916 0.095 0.1633 0.2082 0.2109 0.3318 0.0482 0.1231 0.0714 0.2545 0.0684 0.3867v9.4382c0.0015 0.0312 0.0015 0.0624 0 0.0938 0.0015 0.0312 0.0015 0.0625 0 0.0937zm-1-0.7871v-6.8012c0-0.3324-0.2672-0.5996-0.5996-0.5996h-1.951v-0.0098c-0.234-0.0245-0.415-0.2051-0.439-0.4394h-0.01v-2.9504c0-0.333-0.2672-0.6-0.5996-0.6h-9.7998c-0.333 0-0.6 0.267-0.6 0.6v10.8c0 0.3324 0.267 0.5996 0.6 0.5996h7.8005c0.0353 0 0.066-0.0137 0.0996-0.0195 0.0336 0.0058 0.0643 0.0195 0.0996 0.0195h4.8008c0.3324 0 0.5996-0.2672 0.5996-0.5996zm0-8.4011-2.0002-1.9996v0.9999c-1e-4 1 0 1 1 1z" style="fill:#f1f2f2;text-decoration-line:none;text-indent:0;text-transform:none"/>
<path d="m3 2v3.0879c-0.59859 0.21163-0.99911 0.77721-1 1.4121 0 0.82843 0.67157 1.5 1.5 1.5 0.6349-8.908e-4 1.2005-0.40141 1.4121-1h2.1758c0.21163 0.59859 0.77721 0.99911 1.4121 1 0.82843 0 1.5-0.67157 1.5-1.5s-0.67157-1.5-1.5-1.5c-0.6349 8.91e-4 -1.2005 0.40141-1.4121 1h-2.1758c-0.15111-0.42591-0.48619-0.761-0.91211-0.91211v-3.0879zm0.5 4c0.27614 0 0.5 0.22386 0.5 0.5s-0.22386 0.5-0.5 0.5c-0.27614 0-0.5-0.22386-0.5-0.5s0.22386-0.5 0.5-0.5zm5 0c0.27614 0 0.5 0.22386 0.5 0.5s-0.22386 0.5-0.5 0.5c-0.27614 0-0.5-0.22386-0.5-0.5s0.22386-0.5 0.5-0.5z" style="fill-opacity:.99774;fill:#f1f2f2;paint-order:markers fill stroke"/>
<path d="m15 8-5.2754 2.6367c-0.28051-0.3986-0.7372-0.63605-1.2246-0.63672-0.82843 0-1.5 0.67157-1.5 1.5s0.67157 1.5 1.5 1.5c0.82843 0 1.5-0.67157 1.5-1.5l5-2.5zm-6.5 3c0.27614 0 0.5 0.22386 0.5 0.5s-0.22386 0.5-0.5 0.5c-0.27614 0-0.5-0.22386-0.5-0.5s0.22386-0.5 0.5-0.5z" style="fill-opacity:.99774;fill:#f1f2f2;paint-order:markers fill stroke"/>
<path d="m3.5 10a1.5 1.5 0 0 0-1.5 1.5 1.5 1.5 0 0 0 1.5 1.5 1.5 1.5 0 0 0 1.5-1.5 1.5 1.5 0 0 0-1.5-1.5zm0 1a0.5 0.5 0 0 1 0.5 0.5 0.5 0.5 0 0 1-0.5 0.5 0.5 0.5 0 0 1-0.5-0.5 0.5 0.5 0 0 1 0.5-0.5z" style="fill-opacity:.99774;fill:#f1f2f2;paint-order:markers fill stroke"/>
<rect x="1" y="11" width="2" height="1" style="fill-opacity:.99774;fill:#f1f2f2;paint-order:markers fill stroke"/>
</svg>
