<?xml version="1.0" encoding="UTF-8"?>
<svg version="1.1" viewBox="0 0 16 16" xmlns="http://www.w3.org/2000/svg">
<path d="m1.8125 1c-0.1139 0.0226-0.22287 0.0649-0.32227 0.125-0.0043 0.0026-0.0094699 0.0031594-0.013672 0.0058594-0.0958 0.0588-0.18095 0.1335-0.25195 0.2207-0.0708 0.0877-0.12626 0.18677-0.16406 0.29297-0.0014 0.0041-0.0025063 0.0077198-0.0039063 0.011719-0.038796 0.1104-0.058041 0.22675-0.056641 0.34375v2.627 0.37305 10c-1.6e-4 0.133 0.026425 0.26567 0.078125 0.38867 0.05 0.118 0.12229 0.22541 0.21289 0.31641 0.0013 1e-3 0.0026063 0.002906 0.0039063 0.003906 0.089 0.088 0.19369 0.15803 0.30859 0.20703 0.0055 2e-3 0.010225 0.005812 0.015625 0.007812 0.1208 0.050018 0.25016 0.076172 0.38086 0.076172h5.498c-0.44514-0.45338-0.87529-0.91991-1.2402-1.4395-0.15939-0.28373-0.43839-1.3877-0.47852-0.51758-0.0639 0.486-0.0473 1.4081-0.77539 1.293-0.66913-0.30842-0.87964-1.1302-1.0293-1.791-0.21868-1.1215-0.14688-2.2908 0.21289-3.3594-0.32929-0.51421-0.55356-1.0643-0.72461-1.668-0.26869-0.71789-0.32565-1.5257-0.83594-2.1328-0.39452-0.58493-0.99993-1.3165-0.57617-2.0449 0.35263-0.59682 1.151-0.34877 1.6367-0.078125 0.61735 0.28923 1.0133 0.95865 1.7715 0.80859 0.69491 0.12692 1.3119 0.46752 1.873 0.88477 1.2242 0.7571 2.3231 1.7651 2.9629 3.0723 0.37697 0.82956 0.66703 1.7029 1.0527 2.5313 0.41209 0.61849 1.3582 0.68208 1.873 1.2559 0.25378 0.22049 0.52658 0.43291 0.7793 0.66211v-7.4863h-5.4512c-0.016849 0.0017009-0.031516 0.0097656-0.048828 0.0097656-0.277 0-0.5-0.223-0.5-0.5v-0.0058594-2.4941-0.03125-1.9688h-6c-0.0312-0.00147-0.06235-0.00147-0.09375 0-0.0312-0.00147-0.06255-0.00147-0.09375 0zm7.1875 0v1.9688 0.03125 1c0 1 0 1 1 1h3.8184c-0.0341-0.05188-0.056379-0.11141-0.099609-0.15625l-1.8418-1.8438-1.7207-1.7207c-0.095-0.0916-0.20843-0.16334-0.33203-0.21094-0.1231-0.0482-0.25452-0.071359-0.38672-0.068359h-0.4375zm-6 4c-0.06563 0.021471-0.095703 0.076526-0.095703 0.18359 0 0.78586 0.65226 0.89756 0.8125 1.5312 0.39485 0.92115 0.31341 2.0402 1.0391 2.793 0.43539 0.61642-0.0052994 1.3273-0.13086 1.9648-0.15525 0.79414-0.045277 1.6231 0.18945 2.3965 0.0908 0.29966 0.18921 0.29914 0.22461 0.009765 0.07503-0.61341 0.11631-1.5373 0.58594-1.9082 0.61026-0.06296 0.6311 0.76808 0.84961 1.1445 0.39909 1.0928 1.5306 1.935 2.209 2.8555 0.0055493 0.009312 0.011987 0.019859 0.017578 0.029297h3.498c-0.10104-0.12215-0.18001-0.24194-0.20117-0.35352-0.26308-0.35802-0.55487-0.99554 0.003906-1.2422 0.3337-0.20997 0.79867-0.22823 1.1484-0.35547 0.21492-0.07972 0.092155-0.19786-0.052735-0.31836-0.41914-0.33592-0.85816-0.66116-1.3828-0.81055-0.65013-0.14564-1.2025-0.57962-1.3496-1.25-0.51898-1.2459-0.89876-2.6201-1.9043-3.582-0.75421-0.75324-1.6358-1.3762-2.5566-1.9062-0.5549-0.3347-1.2653-0.084537-1.791-0.43164-0.27611-0.26752-0.42445-0.68024-0.80664-0.73828-0.13952-0.021186-0.24101-0.03319-0.30664-0.011719zm2.1855 1.9688c0.03832 0.00308 0.075945 0.01601 0.10938 0.037109 0.24263 0.092374 0.50759 0.35416 0.47656 0.68945-5.86e-4 0.16974-0.15689 0.32812-0.29492 0.25586-0.17632-0.10622-0.24579-0.34682-0.36133-0.52344-0.05273-0.10877-0.22519-0.11197-0.20898-0.26953 0.04325-0.12951 0.16433-0.19869 0.2793-0.18945zm8.8145 7.8496c-0.27089 0.03401-0.55134 0.059576-0.71289 0.14258-0.88148 0.013493-0.19642 0.58457 0.24609 0.86328 0.05811-0.037681 0.1225-0.065857 0.17188-0.11524l0.003906-0.003906c0.088-0.089 0.15803-0.19359 0.20703-0.30859 2e-3 -5e-3 0.005812-0.010615 0.007812-0.015625 0.050018-0.121 0.076172-0.24986 0.076172-0.38086v-0.18164z" style="fill:#f1f2f2;text-decoration-line:none;text-indent:0;text-transform:none"/>
</svg>
