<?xml version="1.0" encoding="UTF-8" standalone="no"?>
<!--Part of Monotone: https://github.com/sixsixfive/Monotone, released under cc-by-sa_v4-->
<svg id="svg4" xmlns="http://www.w3.org/2000/svg" viewBox="0 0 16 16" version="1.1"><path id="path4798" style="text-indent:0;text-decoration-line:none;text-transform:none;fill:#f1f2f2" d="m16.001 14.187c-0.0226 0.1139-0.0649 0.2229-0.125 0.3223-0.0026 0.0043-0.0032 0.0094-0.0059 0.0136-0.0588 0.0958-0.1335 0.181-0.2207 0.252-0.0877 0.0708-0.1867 0.1263-0.2929 0.1641-0.0041 0.0014-0.0077 0.0025-0.0117 0.0039-0.1104 0.0388-0.2268 0.058-0.3438 0.0566h-14c-0.133 0.00016-0.266-0.0264-0.389-0.0781-0.118-0.05-0.225-0.1223-0.316-0.2129-0.001-0.0013-0.003-0.0026-0.004-0.0039-0.088-0.089-0.158-0.1937-0.207-0.3086-0.002-0.0055-0.006-0.0102-0.008-0.0156-0.05-0.1208-0.076-0.2502-0.076-0.3809v-12c0-0.133 0.026-0.266 0.078-0.389 0.05-0.118 0.122-0.225 0.213-0.316l0.004-0.004c0.089-0.088 0.194-0.158 0.309-0.207 0.005-0.002 0.01-0.006 0.015-0.008 0.121-0.05 0.25-0.076 0.381-0.076h11.438c0.1309-0.002 0.2609 0.021 0.3828 0.068h0.0039c0.0014 0.001 0.0026 0.002 0.0039 0.002 0.1222 0.048 0.2337 0.12 0.3281 0.211l2.564 2.5622c0.0916 0.095 0.1633 0.2082 0.2109 0.3318 0.0482 0.1231 0.0714 0.2545 0.0684 0.3867v9.4382c0.0015 0.0312 0.0015 0.0624 0 0.0938 0.0015 0.0312 0.0015 0.0625 0 0.0937zm-1-0.7871v-6.8012c0-0.3324-0.2672-0.5996-0.5996-0.5996h-1.951v-0.0098c-0.234-0.0245-0.415-0.2051-0.439-0.4394h-0.01v-2.9504c0-0.333-0.2672-0.6-0.5996-0.6h-9.7998c-0.333 0-0.6 0.267-0.6 0.6v10.8c0 0.3324 0.267 0.5996 0.6 0.5996h7.8005c0.0353 0 0.066-0.0137 0.0996-0.0195 0.0336 0.0058 0.0643 0.0195 0.0996 0.0195h4.8008c0.3324 0 0.5996-0.2672 0.5996-0.5996zm0-8.4011-2.0002-1.9996v0.9999c-0.0001 1 0 1 1 1z"/><g id="g4625" transform="translate(-38.169 -2.6184)"><path id="rect4629" style="fill:#f1f2f2" d="m47.169 6.6184c-1.108 0-2 0.892-2 2v2h1v-1.9996c0-0.57106 0.42894-1 1-1s1 0.42894 1 1v2h1v-1.9996c0-1.108-0.892-2-2-2z"/><path id="path4633" style="stroke-linejoin:round;stroke:#f1f2f2;stroke-linecap:round;fill:none" d="m40.669 7.1184 1.5 8 1.5-8"/><path id="path4667" style="fill:#f1f2f2" d="m45.169 13.618c0 1.108 0.892 2 2 2h2v-1h-2c-0.57106 0-1-0.42894-1-1s0.42894-1 1-1h2v-1h-2c-1.108 0-2 0.892-2 2z"/></g></svg>
