<?xml version="1.0" encoding="UTF-8" standalone="no"?>
<!--Part of Monotone: https://github.com/sixsixfive/Monotone, released under cc-by-sa_v4-->
<svg xmlns="http://www.w3.org/2000/svg" version="1.1" viewBox="0 0 16 16">
 <g fill="#f1f2f2">
  <path d="m1.8574 3c-0.4748 0-0.8574 0.3826-0.8574 0.8574v10.286c0 0.474 0.3826 0.857 0.8574 0.857h3.1426v-1h-3v-10h12v5.0039c0.006-0.0002 0.011-0.0039 0.018-0.0039h0.769 0.213v-5.1426c0-0.4744-0.383-0.8574-0.857-0.8574h-12.286z"/>
  <path style="color:#f1f2f2" fill="#f1f2f2" d="m9.75 8c-0.471 0-0.743 0.3994-0.75 0.8574v1.1426h-2c-0.469 0.065-1 0.399-1 0.857v4.143c0 0.458 0.527 1 1 1h8c0.473 0 1-0.542 1-1v-4.143c0-0.458-0.529-0.812-1-0.857h-2v-1.1426c0-0.458-0.34-0.8574-0.812-0.8574h-2.438zm1.25 3a2 2 0 0 1 2 2 2 2 0 0 1 -2 2 2 2 0 0 1 -2 -2 2 2 0 0 1 2 -2zm0 1a1 1 0 0 0 -1 1 1 1 0 0 0 1 1 1 1 0 0 0 1 -1 1 1 0 0 0 -1 -1z"/>
 </g>
</svg>
