<?xml version="1.0" encoding="UTF-8"?>
<svg version="1.1" viewBox="0 0 16 16" xmlns="http://www.w3.org/2000/svg">
<path d="m1.8125 1c-0.1139 0.0226-0.2229 0.0649-0.3223 0.125-0.0043 0.0026-0.0094 0.0032-0.0136 0.0059-0.0958 0.0588-0.181 0.1335-0.252 0.2207-0.0708 0.0877-0.1263 0.1867-0.1641 0.2929-0.0014 0.0041-0.0025 0.0077-0.0039 0.0117-0.0388 0.1104-0.058 0.2268-0.0566 0.3438v13c-1.6e-4 0.133 0.0264 0.266 0.0781 0.389 0.05 0.118 0.1223 0.225 0.2129 0.316 0.0013 1e-3 0.0026 3e-3 0.0039 4e-3 0.089 0.088 0.1937 0.158 0.3086 0.207 0.0055 2e-3 0.0102 6e-3 0.0156 8e-3 0.1208 0.05 0.2502 0.076 0.3809 0.076h11c0.133 0 0.266-0.026 0.389-0.078 0.118-0.05 0.225-0.122 0.316-0.213l4e-3 -4e-3c0.088-0.089 0.158-0.194 0.207-0.309 2e-3 -5e-3 6e-3 -0.01 8e-3 -0.015 0.05-0.121 0.076-0.25 0.076-0.381v-9.4375c2e-3 -0.1309-0.021-0.2609-0.068-0.3828v-0.0039c-1e-3 -0.0014-2e-3 -0.0026-2e-3 -0.0039-0.048-0.1222-0.12-0.2337-0.211-0.3281l-3.563-3.5645c-0.095-0.0916-0.2082-0.1633-0.3318-0.2109-0.1231-0.0482-0.2545-0.0714-0.3867-0.0684h-7.4375c-0.0312-0.00147-0.0624-0.00147-0.0938 0-0.0312-0.00147-0.0625-0.00147-0.0937 0zm0.7871 1h4.8008c0.3324 0 0.5996 0.2672 0.5996 0.5996v2.9512h0.0098c0.0245 0.2343 0.2051 0.4149 0.4394 0.4394v0.0098h3.9508c0.333 0 0.6 0.2672 0.6 0.5996v7.8004c0 0.333-0.267 0.6-0.6 0.6h-9.8004c-0.3324 0-0.5996-0.267-0.5996-0.6v-6.8004c0-0.0353 0.0137-0.066 0.0195-0.0996-0.0058-0.0336-0.0195-0.0643-0.0195-0.0996v-4.8008c0-0.3324 0.2672-0.5996 0.5996-0.5996zm6.4004 0 3 3h-2c-1 1e-4 -1 0-1-1v-2z" fill="#f1f2f2" style="text-decoration-line:none;text-indent:0;text-transform:none"/>
<g transform="matrix(1.285 0 0 1.4712 -.85126 -5.6428)" fill="#f9f9f9" style="fill:#f1f2f2">
<path d="m3 12c0.021261-0.03225 0.055252-0.03411 0.10202-0.0061 1.0627 0.5831 2.1999 0.75805 3.4497 0.75805 0.83317 0 1.6748-0.03018 2.4867-0.32374 0.02133-0.0083 0.05199-0.02021 0.09246-0.03619 0.04046-0.016 0.0691-0.02806 0.08608-0.03619 0.06376-0.02413 0.11372-0.01206 0.14984 0.03619 0.03606 0.04826 0.02453 0.0925-0.03507 0.13271-0.07652 0.0522-0.1743 0.11259-0.29331 0.18097-0.36559 0.2051-0.77367 0.36395-1.2243 0.47654-0.4506 0.11259-0.89056 0.1689-1.3199 0.1689-0.66314 0-1.2902-0.10957-1.881-0.32876-0.59088-0.21912-1.1201-0.52775-1.5877-0.92588-0.025505-0.020112-0.038258-0.040217-0.038258-0.060322 0-0.01206 0.00414-0.02413 0.012752-0.03619z" stroke-width=".0062019" style="fill:#f1f2f2"/>
<path d="m8.6941 12.219c0.00856-0.01451 0.021305-0.02923 0.038259-0.04374 0.10626-0.06201 0.20828-0.10388 0.30607-0.12575 0.16154-0.03639 0.31882-0.05655 0.47185-0.06014 0.04242-0.0039 0.08289 0 0.12115 0.0055 0.19129 0.01451 0.30607 0.04185 0.34432 0.08201 0.01692 0.02184 0.02551 0.05464 0.02551 0.09838v0.03827c0 0.12758-0.04047 0.27793-0.12115 0.45105-0.08073 0.17312-0.19343 0.31254-0.33795 0.41825-0.02134 0.01451-0.04046 0.02187-0.05739 0.02187-0.0087 0-0.01692 0-0.02551-0.0055-0.02551-0.01093-0.03188-0.03091-0.01913-0.06014 0.15727-0.3171 0.23593-0.53762 0.23593-0.66154 0-0.04018-0.0087-0.06922-0.02551-0.08748-0.04243-0.04374-0.16155-0.06561-0.35708-0.06561-0.07229 0-0.15728 0.0039-0.25505 0.01093-0.10626 0.01093-0.20404 0.02187-0.29331 0.0328-0.025505 0-0.042448-0.0039-0.051011-0.01093-0.00856-0.0075-0.010578-0.01451-0.00638-0.02187 0-0.0039 0.00265-9e-3 0.00638-0.0164z" stroke-width=".0059043" style="fill:#f1f2f2"/>
</g>
<path d="m8.5605 6.9688-2.5918 0.031249 0.03125 1 2.5293-0.029296c0.14888 0.00617 0.29161 0.061063 0.40625 0.15625 0.067 0.06 0.125 0.1083 0.125 0.2793v0.59375h-2.5c-0.43019-0.02585-0.85093 0.13335-1.1562 0.4375-0.272 0.286-0.3913 0.66425-0.4043 1.0312-0.014 0.368 0.081797 0.7595 0.3418 1.0625 0.255 0.297 0.6962 0.47375 1.1582 0.46875h3.5v-0.5l0.06055-3.0937c0-0.402-0.1615-0.78225-0.4375-1.0312-0.27918-0.24237-0.63089-0.38526-1-0.40625zm-2.0625 3.0313h2.5312l-0.03125 1h-2.5c-0.22 7e-3 -0.305-0.044-0.375-0.125-0.084291-0.10651-0.12853-0.23922-0.125-0.375 0.00763-0.1392 0.062781-0.27157 0.15625-0.375 0.078-0.083 0.14375-0.14 0.34375-0.125z" color="#000000" fill="#f1f2f2" style="text-decoration-line:none;text-indent:0;text-transform:none"/>
</svg>
