<!--Part of Monotone: https://github.com/sixsixfive/Monotone, released under cc-by-sa_v4-->
<svg xmlns="http://www.w3.org/2000/svg" viewBox="0 0 16 16">
    <g color="#000" fill="#f1f2f2">
        <path d="M4.031 2.047a2.016 2.016 0 0 1-2.015 2.015A2.016 2.016 0 0 1 0 2.047 2.016 2.016 0 0 1 2.016.03 2.016 2.016 0 0 1 4.03 2.047zm0 11.937A2.016 2.016 0 0 1 2.016 16 2.016 2.016 0 0 1 0 13.984a2.016 2.016 0 0 1 2.016-2.015 2.016 2.016 0 0 1 2.015 2.015zm12 0A2.016 2.016 0 0 1 14.016 16 2.016 2.016 0 0 1 12 13.984a2.016 2.016 0 0 1 2.016-2.015 2.016 2.016 0 0 1 2.015 2.015zm0-11.968a2.016 2.016 0 0 1-2.015 2.015A2.016 2.016 0 0 1 12 2.016 2.016 2.016 0 0 1 14.016 0a2.016 2.016 0 0 1 2.015 2.016z" style="marker:none" overflow="visible"/>
        <path style="line-height:normal;-inkscape-font-specification:Sans;text-indent:0;text-align:start;text-decoration-line:none;text-transform:none;marker:none" d="M1.062 1.063V15.03h13.97V1.062H2.061zm2 2h9.97v9.968h-9.97z" font-weight="400" font-family="Sans" overflow="visible"/>
        <path style="line-height:normal;-inkscape-font-specification:Sans;text-indent:0;text-align:start;text-decoration-line:none;text-transform:none;marker:none" d="M4.969 5.031v6h6.062v-6H5.47zm1 1h4.062v4H5.97z" font-weight="400" font-family="Sans" overflow="visible"/>
        <path d="M12.031 10.516a1.516 1.516 0 0 1-1.515 1.515A1.516 1.516 0 0 1 9 10.516 1.516 1.516 0 0 1 10.516 9a1.516 1.516 0 0 1 1.515 1.516zm-5 0a1.516 1.516 0 0 1-1.515 1.515A1.516 1.516 0 0 1 4 10.516 1.516 1.516 0 0 1 5.516 9a1.516 1.516 0 0 1 1.515 1.516zm0-4.969a1.516 1.516 0 0 1-1.515 1.515A1.516 1.516 0 0 1 4 5.547 1.516 1.516 0 0 1 5.516 4.03 1.516 1.516 0 0 1 7.03 5.547zm5.063 0a1.516 1.516 0 0 1-1.516 1.515 1.516 1.516 0 0 1-1.516-1.515 1.516 1.516 0 0 1 1.516-1.516 1.516 1.516 0 0 1 1.516 1.516z" style="marker:none" overflow="visible"/>
        <path style="line-height:normal;-inkscape-font-specification:Sans;text-indent:0;text-align:start;text-decoration-line:none;text-transform:none;marker:none" d="M10.875 10.219l-.688.687 3.407 3.438.718-.719zm-5.281 0l-3.407 3.406.688.719 3.437-3.438zm8-8l-3.407 3.406.688.719 3.437-3.438zm-10.719 0l-.688.687 3.407 3.438.718-.719z" font-weight="400" font-family="Sans" overflow="visible"/>
    </g>
</svg>
