<?xml version="1.0" encoding="UTF-8" standalone="no"?>
<!--Part of Monotone: https://github.com/sixsixfive/Monotone, released under cc-by-sa_v4-->
<svg xmlns="http://www.w3.org/2000/svg" version="1.1" viewBox="0 0 16 16">
 <g opacity=".5" fill="#f1f2f2">
  <path style="" d="m1 7v7.477c0 0.29 0.2335 0.523 0.5234 0.523h9.4566a1.0099 1.0099 0 0 1 0 -0.012v-0.984h-0.9898a1.0099 1.0099 0 0 1 -1.0097 -1.01v-1.998a1.0099 1.0099 0 0 1 1.0097 -1.0097h0.9898v-0.9863a1.0099 1.0099 0 0 1 1.01 -1.0098h2a1.0099 1.0099 0 0 1 1.01 1.0098v-2h-5v0.8027c0 0.649-0.6095 1.1973-1.3301 1.1973h-1.3398c-0.7206 0-1.3301-0.5483-1.3301-1.1973v-0.8027h-5z"/>
  <path style="" d="m1.4707 3c-0.261 0-0.4707 0.2097-0.4707 0.4707v2.5293h5v-3h-4.5293zm8.5293 0v3h5v-2.5293c0-0.261-0.21-0.4707-0.471-0.4707h-4.529z"/>
  <rect style="" ry=".15702" height="5" width="2" y="3" x="7"/>
 </g>
 <path d="m12 9.01v1.996h-2v1.997h2v1.997h2v-1.997h2v-1.997h-2v-1.996z" fill="#f1f2f2"/>
</svg>
