<?xml version="1.0" encoding="UTF-8"?>
<svg version="1.1" viewBox="0 0 16 16" xmlns="http://www.w3.org/2000/svg">
<path d="m8 1.562-5.719 5.72a1.01 1.01 0 0 0-0.281 0.718v1h1c0.256 0 0.523-0.085 0.719-0.281l4.281-4.282 4.281 4.282a1.01 1.01 0 0 0 0.719 0.281h1v-1c0-0.256-0.085-0.523-0.281-0.719z" style="fill:#f1f2f2"/>
<path d="m8 6.562-5.719 5.72a1.01 1.01 0 0 0-0.281 0.718v1h1c0.256 0 0.523-0.085 0.719-0.281l4.281-4.282 4.281 4.282a1.01 1.01 0 0 0 0.719 0.281h1v-1c0-0.256-0.085-0.523-0.281-0.719z" style="fill:#f1f2f2"/>
</svg>
