<!--Part of Monotone: https://github.com/sixsixfive/Monotone, released under cc-by-sa_v4-->
<svg xmlns="http://www.w3.org/2000/svg" viewBox="0 0 16 16">
    <path d="M8.35 2c-2.718 0-4.19.56-5.295 1.173-.566.322-1.384 1.082-1.837 2.836-.113.438-.142.553-.17.991H6.17c.056-.321.084-.202.14-.378.369-.818 1.19-.589 1.955-.589 1.077 0 1.2-.083 1.511.356.713.979-.09 1.612-1.161 1.812-.539.117-.576.175-1.114.234-1.728.204-4.278.439-5.807 1.579C.25 11.066 0 12.82 0 13.492c0 .182.011.349.026.508h6.132a1.432 1.432 0 0 1-.073-.128c-.113-.205-.142-.41-.17-.643 0-.322.114-.585.17-.673.284-.526.737-.73 1.842-.964 1.444-.263 1.33-.528 2.124-.966V14h5.947V7.149c0-.497.085-1.842-.934-3.07C13.988 2.793 11.806 2 8.35 2z" fill="#f1f2f2"/>
</svg>
