<?xml version="1.0" encoding="UTF-8" standalone="no"?>
<svg
   xmlns:dc="http://purl.org/dc/elements/1.1/"
   xmlns:cc="http://creativecommons.org/ns#"
   xmlns:rdf="http://www.w3.org/1999/02/22-rdf-syntax-ns#"
   xmlns:svg="http://www.w3.org/2000/svg"
   xmlns="http://www.w3.org/2000/svg"
   id="svg5"
   version="1.1"
   viewBox="0 0 16 16">
  <metadata
     id="metadata9">
    <rdf:RDF>
      <cc:Work
         rdf:about="">
        <dc:format>image/svg+xml</dc:format>
        <dc:type
           rdf:resource="http://purl.org/dc/dcmitype/StillImage" />
        <dc:title></dc:title>
      </cc:Work>
    </rdf:RDF>
  </metadata>
  <defs
     id="defs7" />
  <g
     id="surface1"
     style="opacity:0.5;fill:#f1f2f2"
     transform="matrix(1.001807,0,0,1.2542624,-0.08356065,-0.79899189)">
    <path
       id="path2"
       style="fill:#f1f2f2;stroke-width:0.98874003"
       d="m 7.0547,11 -1,-1.5975 c 0,0 -0.53906,0.90686 -1.9648,0.90686 -1.2656,0 -2.054,-1.0884 -2.054,-2.8297 0,-2.2302 1.0267,-2.8745 2.1439,-2.8745 1.6133,0 2.125,0.8811 2.5664,2.2062 l 0.58594,1.8139 c 0.5859,1.7567 1.6835,3.1737 4.8559,3.1737 2.273,0 3.812,-0.688 3.812,-2.5056 0,-1.4664 -0.844,-2.2302 -2.422,-2.593 l -0.571,-0.2558 c -0.805,-0.1795 -0.961,-0.5079 -0.961,-1.0502 0,-0.61865 0.38216,-0.80567 1.1908,-0.80567 0.87891,0 0.81771,0.37048 0.81771,0.81995 h 2 c -0.148,-1.6307 -0.809,-2.4087 -2.68,-2.4087 -1.6484,0 -3.2617,0.61865 -3.2617,2.593 0,1.2335 0.60547,2.0163 2.125,2.3791 l 1.2461,0.29023 c 0.9375,0.21767 0.61816,0.59573 0.61816,1.1227 0,0.67211 -0.68766,0.83339 -1.9338,0.83339 -1.8516,0 -2.5661,-0.85249 -3.0036,-2.1738 l -0.6052,-1.8139 c -0.7695,-2.36 -2,-3.2307 -4.4375,-3.2307 -2.6914,0 -4.0386,1.7099 -4.0386,4.574 0,2.7572 1.3472,4.2245 3.9136,4.2245 2.0703,0 3.0586,-0.79873 3.0586,-0.79873 z" />
  </g>
</svg>
