<?xml version="1.0" encoding="UTF-8" standalone="no"?>
<!--Part of Monotone: https://github.com/sixsixfive/Monotone, released under cc-by-sa_v4-->
<svg id="svg6" xmlns="http://www.w3.org/2000/svg" version="1.1" viewBox="0 0 16 16"><path id="path2" style="text-indent:0;text-decoration-line:none;text-transform:none;fill:#f1f2f2" d="m9.3789 1.1367l0.6211 1.8633-2 2v0.0059 1 0.9941l-0.8145-0.8145-0.75-0.75-0.4355-0.4355 1-2-1.5254-1.5254c-2.6103 1.0169-4.4785 3.5567-4.4785 6.5137-0.00001 3.8417 3.1492 7.0157 6.9922 7.0157 3.8417 0 7.0157-3.174 7.0157-7.0157 0-3.3665-2.437-6.2013-5.6251-6.8516zm-0.3789 4.0469c1.169 0.4041 1.996 1.4818 1.996 2.8047a2.981 2.981 0 0 1 -3.0077 3.0077c-1.68 0-2.9844-1.3277-2.9844-3.0077 0-0.7404 0.2643-1.397 0.6914-1.9121l0.7422 0.6953c-0.2736 0.3406-0.4453 0.7644-0.4453 1.2305 0 1.099 0.9147 1.996 2.0137 1.996a2.002 2.002 0 0 0 1.9961 -1.996 2.002 2.002 0 0 0 -1.002 -1.7247v-1.0937zm-0.9941 1.8203a0.99 0.99 0 0 1 0.998 0.9981 0.99 0.99 0 0 1 -0.998 1 0.99 0.99 0 0 1 -0.9981 -1 0.99 0.99 0 0 1 0.9981 -0.9981z"/></svg>
