<?xml version="1.0" encoding="UTF-8"?>
<svg version="1.1" viewBox="0 0 16 16" xmlns="http://www.w3.org/2000/svg">
<circle cx="8" cy="8" r="1" style="fill-opacity:.99774;fill:#f1f2f2;paint-order:markers fill stroke"/>
<path d="m8 1a7 7 0 0 0-4.0352 1.2852c0.29514 0.17586 0.54637 0.4194 0.72852 0.71094a6 6 0 0 1 3.3066-0.99609 6 6 0 0 1 6 6 6 6 0 0 1-6 6 6 6 0 0 1-6-6 6 6 0 0 1 0.39453-2.1172c-0.32472-0.11523-0.61742-0.31156-0.85156-0.56836a7 7 0 0 0-0.54297 2.6855 7 7 0 0 0 7 7 7 7 0 0 0 7-7 7 7 0 0 0-7-7z" style="fill-opacity:.99774;fill:#f1f2f2;opacity:.5;paint-order:markers fill stroke"/>
<path d="m8 4a4 4 0 0 0-4 4 4 4 0 0 0 4 4 4 4 0 0 0 1.8105-0.4375c-0.27942-0.21885-0.50922-0.50101-0.65039-0.82422-0.36306 0.16677-0.7567 0.26367-1.1602 0.26367-1.5714 0-3.002-1.4305-3.002-3.002s1.4305-3.002 3.002-3.002 3.002 1.4305 3.002 3.002c0.35152 3.988e-4 0.68869 0.11626 0.98633 0.29883a4 4 0 0 0 0.011719-0.29883 4 4 0 0 0-4-4z" style="fill-opacity:.99774;fill:#f1f2f2;opacity:.5;paint-order:markers fill stroke"/>
<circle cx="3" cy="4" r="1" style="fill-opacity:.99774;fill:#f1f2f2;paint-order:markers fill stroke"/>
<circle cx="11" cy="10" r="1" style="fill-opacity:.99774;fill:#f1f2f2;paint-order:markers fill stroke"/>
</svg>
