<!--Part of Monotone: https://github.com/sixsixfive/Monotone, released under cc-by-sa_v4-->
<svg xmlns="http://www.w3.org/2000/svg" viewBox="0 0 16 16">
    <path d="M7.689 1.965c-1.4-.024-3.08.358-4.183 1.104-.731.462-.595 1.5.018 1.998.73.57 1.646-.105 2.476-.02 1.007-.324 1.405 1.183.357 1.321-1.348.417-2.463.474-3.495 1.565-1.125 1.283-1.046 3.357.048 4.634.944 1.247 2.817 1.929 4.192 1.006 1.533-1.371 2.78.32 4.192.358.801.057 1.974-.563 2.193-1.428.773-1.957.503-4.022.276-6.11-.018-2.084-1.785-3.734-3.684-4.184A6.115 6.115 0 0 0 8.268 2a6.404 6.404 0 0 0-.58-.035zm.234 7.037a.981 1 0 0 1 .98 1 .981 1 0 0 1-.98 1 .981 1 0 0 1-.982-1 .981 1 0 0 1 .982-1z" fill="#f1f2f2"/>
</svg>
