<?xml version="1.0" encoding="UTF-8" standalone="no"?>
<svg
   xmlns:dc="http://purl.org/dc/elements/1.1/"
   xmlns:cc="http://creativecommons.org/ns#"
   xmlns:rdf="http://www.w3.org/1999/02/22-rdf-syntax-ns#"
   xmlns:svg="http://www.w3.org/2000/svg"
   xmlns="http://www.w3.org/2000/svg"
   id="svg12"
   version="1.1"
   viewBox="0 0 16 16">
  <metadata
     id="metadata18">
    <rdf:RDF>
      <cc:Work
         rdf:about="">
        <dc:format>image/svg+xml</dc:format>
        <dc:type
           rdf:resource="http://purl.org/dc/dcmitype/StillImage" />
        <dc:title></dc:title>
      </cc:Work>
    </rdf:RDF>
  </metadata>
  <defs
     id="defs16" />
  <g
     id="g10"
     fill="#f1f2f2"
     color="#000">
    <path
       id="path4"
       overflow="visible"
       font-weight="400"
       style="font-weight:400;line-height:normal;font-family:sans-serif;font-variant-ligatures:normal;font-variant-position:normal;font-variant-caps:normal;font-variant-numeric:normal;font-variant-alternates:normal;font-feature-settings:normal;text-indent:0;text-align:start;text-decoration:none;text-decoration-line:none;text-decoration-style:solid;text-decoration-color:#000000;text-transform:none;text-orientation:mixed;white-space:normal;shape-padding:0;overflow:visible;isolation:auto;mix-blend-mode:normal;marker:none"
       d="m 13,5 v 3 h 3 V 5 Z m 1,1 h 1 v 1 h -1 z m -1,3 v 3 h 3 V 9 Z m 1,1 h 1 v 1 h -1 z" />
    <path
       id="path6"
       d="M 0 3 L 0 15 L 11.017578 15 L 11.017578 14 L 13 14 L 13 13 L 9 13 L 9.0175781 14 L 1 14 L 1 4 L 5 4 L 5 3 L 0 3 z M 12 3 L 12 4 L 13 4 L 13 3 L 12 3 z "
       style="font-weight:400;line-height:normal;font-family:sans-serif;font-variant-ligatures:normal;font-variant-position:normal;font-variant-caps:normal;font-variant-numeric:normal;font-variant-alternates:normal;font-feature-settings:normal;text-indent:0;text-align:start;text-decoration:none;text-decoration-line:none;text-decoration-style:solid;text-decoration-color:#000000;text-transform:none;text-orientation:mixed;white-space:normal;shape-padding:0;overflow:visible;isolation:auto;mix-blend-mode:normal" />
    <rect
       ry="0.5"
       y="1"
       x="13"
       height="14"
       width="1"
       id="rect22"
       style="opacity:1;fill:#f1f2f2;fill-opacity:1;stroke:none;stroke-width:1;stroke-linecap:round;stroke-linejoin:round;stroke-miterlimit:4;stroke-dasharray:none;stroke-opacity:1;paint-order:markers fill stroke" />
    <rect
       ry="0.5"
       y="1"
       x="13"
       height="1"
       width="3"
       id="rect24"
       style="opacity:1;fill:#f1f2f2;fill-opacity:1;stroke:none;stroke-width:1;stroke-linecap:round;stroke-linejoin:round;stroke-miterlimit:4;stroke-dasharray:none;stroke-opacity:1;paint-order:markers fill stroke" />
    <path
       id="path6-3"
       d="m 6,1 5,4 H 8 V 9.531 H 6 Z" />
    <path
       style="stroke-width:1.09608519"
       id="path8"
       d="M 7.995,9.505 A 2.9975,2.495 0 0 1 4.9975,12 2.9975,2.495 0 0 1 2,9.505 2.9975,2.495 0 0 1 4.9975,7.01 2.9975,2.495 0 0 1 7.995,9.505 Z" />
  </g>
</svg>
