<!--Part of Monotone: https://github.com/sixsixfive/Monotone, released under cc-by-sa_v4-->
<svg xmlns="http://www.w3.org/2000/svg" viewBox="0 0 16 16">
    <defs>
        <clipPath id="a">
            <path style="marker:none" color="#f1f2f2" fill="none" stroke="#fff" stroke-width="2" stroke-linecap="round" stroke-linejoin="round" overflow="visible" d="M21 281h14v11H21z"/>
        </clipPath>
    </defs>
    <g fill="#f1f2f2">
        <path style="marker:none" d="M13 1a2 2 0 1 0 0 4 2 2 0 0 0 0-4zm0 1a1 1 0 1 1 0 2 1 1 0 0 1 0-2z" color="#000" overflow="visible" opacity=".5"/>
        <path d="M5.5.987c1.385 0 2.5 1.115 2.5 2.5V8.5C8 9.885 6.885 11 5.5 11A2.495 2.495 0 0 1 3 8.5V3.487c0-1.385 1.115-2.5 2.5-2.5z" style="marker:none" color="#f1f2f2" overflow="visible"/>
        <path transform="matrix(.99397 0 0 1 -22.293 -275.486)" style="line-height:normal;-inkscape-font-specification:Sans;text-indent:0;text-align:start;text-decoration-line:none;text-transform:none;marker:none" d="M27.969 273.625a4.531 4.531 0 0 0-4.532 4.531v5.813a4.531 4.531 0 0 0 9.063 0v-5.813a4.531 4.531 0 0 0-4.531-4.531zm0 1a3.514 3.514 0 0 1 3.531 3.531v5.813a3.514 3.514 0 0 1-3.531 3.531 3.514 3.514 0 0 1-3.532-3.531v-5.813a3.514 3.514 0 0 1 3.532-3.531z" clip-path="url(#a)" color="#f1f2f2" font-weight="400" font-family="Sans" overflow="visible"/>
        <path d="M2 5.5a.5.5 0 0 1-.5.5.5.5 0 0 1-.5-.5.5.5 0 0 1 .5-.5.5.5 0 0 1 .5.5zm8 0a.5.5 0 0 1-.5.5.5.5 0 0 1-.5-.5.5.5 0 0 1 .5-.5.5.5 0 0 1 .5.5z" style="marker:none" color="#f1f2f2" overflow="visible"/>
        <path style="line-height:normal;-inkscape-font-specification:Sans;text-indent:0;text-align:start;text-decoration-line:none;text-transform:none;marker:none" d="M1.906 14A1.001 1.001 0 1 0 2 16h7a1 1 0 1 0 0-2H2a1 1 0 0 0-.094 0z" color="#f1f2f2" font-weight="400" font-family="Sans" overflow="visible"/>
        <path d="M1 15h9v1H1z" style="marker:none" color="#f1f2f2" overflow="visible"/>
        <path d="M4 12h3v4H4z" style="marker:none" color="#f1f2f2" overflow="visible"/>
        <path d="M15 13a2 2 0 0 1-2 2 2 2 0 0 1-2-2 2 2 0 0 1 2-2 2 2 0 0 1 2 2zm0-5a2 2 0 0 1-2 2 2 2 0 0 1-2-2 2 2 0 0 1 2-2 2 2 0 0 1 2 2z" style="marker:none" color="#000" overflow="visible"/>
    </g>
</svg>
