<?xml version="1.0" encoding="UTF-8" standalone="no"?>
<!--Part of Monotone: https://github.com/sixsixfive/Monotone, released under cc-by-sa_v4-->
<svg id="svg2408" xmlns="http://www.w3.org/2000/svg" xml:space="preserve" version="1.1" viewBox="0 0 16 16"><filter id="filter3794" style="color-interpolation-filters:sRGB" height="1.384" width="1.384" y="-.192" x="-.192"><feGaussianBlur id="feGaussianBlur3796" stdDeviation="5.28"/></filter><filter id="filter3218" style="color-interpolation-filters:sRGB"><feGaussianBlur id="feGaussianBlur3220" stdDeviation="1.71"/></filter><path id="rect3200" style="fill:#f1f2f2" d="m1.5 0c-0.831 0-1.5 0.669-1.5 1.5v13c0 0.831 0.669 1.5 1.5 1.5h13c0.831 0 1.5-0.669 1.5-1.5v-13c0-0.831-0.669-1.5-1.5-1.5zm6.2539 0.97461c0.0093-0.00103 0.01801-0.00103 0.02734 0h2.7637c0.05987-0.0001838 0.11676 0.046899 0.12695 0.10547l2.2773 12.848c0.01196 0.07254-0.05096 0.1466-0.125 0.14648h-2.49c-0.05987 0.000184-0.11676-0.0469-0.12695-0.10547l-0.4922-2.883h-4.3164l-1.3496 2.918c-0.020817 0.04138-0.066697 0.06956-0.11328 0.07031h-2.1094c-0.085527-0.0017-0.14882-0.1053-0.11133-0.18164l5.9551-12.847c0.01575-0.034289 0.04723-0.060854 0.08398-0.070313zm0.8301 2.7149-2.2988 5.4218h3.1699z"/><g id="layer2" style="display:none" transform="translate(0,-80)"><g id="rect3745" style="opacity:.9;filter:url(#filter3218);display:inline"><linearGradient id="SVGID_1_" y2="62.786" gradientUnits="userSpaceOnUse" x2="37.868" gradientTransform="matrix(1.0059 0 0 -.9942 9.9104 69.418)" y1="-22.713" x1="37.868"><stop id="stop10" style="stop-color:#000000" offset="0"/><stop id="stop12" style="stop-color:#000000;stop-opacity:.58820" offset="1"/></linearGradient><path id="path14" style="fill:url(#SVGID_1_)" d="m12 7h72c3.866 0 7 3.134 7 7v71c0 3.866-3.134 7-7 7h-72c-3.866 0-7-3.134-7-7v-71c0-3.866 3.134-7 7-7z"/></g></g></svg>
