<!--Part of Monotone: https://github.com/sixsixfive/Monotone, released under cc-by-sa_v4-->
<svg xmlns="http://www.w3.org/2000/svg" viewBox="0 0 16 16">
    <path d="M0 7v8h16V7H0zm6.385 2a.4.4 0 0 1 .193.043l3.201 1.6a.4.4 0 0 1 0 .714l-3.2 1.6A.4.4 0 0 1 6 12.6V9.4a.4.4 0 0 1 .385-.4zM3 1l1.127 1c.832.738 1.487 1 2.5 1H8L6.873 2c-.832-.738-1.487-1-2.5-1H3zm5 0l1.127 1c.832.738 1.487 1 2.5 1H13l-1.127-1c-.832-.738-1.487-1-2.5-1H8zm5 0l1.127 1c.646.573 1.19.854 1.873.953V1.387C15.51 1.123 15.014 1 14.373 1H13zM0 1.047v1.566C.49 2.877.986 3 1.627 3H3L1.873 2C1.227 1.427.683 1.146 0 1.047zM1.627 4C.987 4 .49 4.123 0 4.387v1.566c.683-.1 1.227-.38 1.873-.953L3 4H1.627zm5 0c-1.013 0-1.668.262-2.5 1L3 6h1.373c1.013 0 1.668-.262 2.5-1L8 4H6.627zm5 0c-1.013 0-1.668.262-2.5 1L8 6h1.373c1.013 0 1.668-.262 2.5-1L13 4h-1.373zM16 4.047c-.683.1-1.227.38-1.873.953L13 6h1.373c.641 0 1.137-.123 1.627-.387V4.047z" fill="#f1f2f2"/>
</svg>
