<?xml version="1.0" encoding="UTF-8" standalone="no"?>
<!--Part of Monotone: https://github.com/sixsixfive/Monotone, released under cc-by-sa_v4-->
<svg xmlns="http://www.w3.org/2000/svg" version="1.1" viewBox="0 0 16 16">
 <path d="m2 1c-0.554 0-1 0.446-1 1v3h9.5c0.277 0 0.5 0.223 0.5 0.5s-0.223 0.5-0.5 0.5h-9.5v8c0 0.554 0.446 1 1 1h8v-0.625-1.875-1.5h-4.5c-0.277 0-0.5-0.223-0.5-0.5s0.223-0.5 0.5-0.5h5c0.277 0 0.5 0.223 0.5 0.5 0 0.019-0.01 0.036-0.012 0.055 0.003 0.024 0.012 0.045 0.012 0.07v1.875 1.875 0.625h3c0.554 0 1-0.446 1-1v-12c0-0.554-0.446-1-1-1h-12z" fill-opacity=".99827" fill="#f1f2f2"/>
</svg>
