<?xml version="1.0" encoding="UTF-8" standalone="no"?>
<!--Part of Monotone: https://github.com/sixsixfive/Monotone, released under cc-by-sa_v4-->
<svg xmlns="http://www.w3.org/2000/svg" version="1.1" viewBox="0 0 16 16">
 <g fill="#f1f2f2">
  <path opacity=".5" style="color:#000000" d="m1 2.998v10h6v-1h-5v-7.998l10-0.002v2h2v1.002h1v-0.5332c0-0.49-0.22775-0.79625-0.46875-1.0312-0.24-0.235-0.527-0.4375-1-0.4375h-0.531v-2z"/>
  <path opacity=".5" style="color:#000000" d="m3 4.998v6h2v-6z"/>
  <path d="m8.875 16a0.863 0.863 0 0 1 -0.875 -0.875v-6.25c0-0.492 0.383-0.875 0.875-0.875h6.25a0.863 0.863 0 0 1 0.875 0.875v6.25a0.863 0.863 0 0 1 -0.875 0.875zm2.125-1h2v-1h-2zm0-2h2v-4h-2z"/>
 </g>
</svg>
