<?xml version="1.0" encoding="UTF-8" standalone="no"?>
<!--Part of Monotone: https://github.com/sixsixfive/Monotone, released under cc-by-sa_v4-->
<svg xmlns="http://www.w3.org/2000/svg" version="1.1" viewBox="0 0 16 16">
 <g transform="rotate(90,8,8)" fill="#f1f2f2">
  <path style="color:#000000" d="m1 2.998v10h7.0137v-0.787l0.0215 0.209c-0.03-0.138-0.0365-0.281-0.0352-0.422h-6v-7.998l10-0.002v2h2v1.0157a0.98699 0.98699 0 0 1 0.986 0.9863v0.7129l-0.037-0.2695c0.154 0.5391-0.067 1.0948-0.365 1.5686h0.266c0.074-0.1815 0.12-0.3758 0.121-0.5765h0.029v-2.9687c0-0.49-0.228-0.7963-0.469-1.0313-0.24-0.235-0.527-0.4375-1-0.4375h-0.531v-2h-12zm2 2v6h2v-6h-2zm3 0v6h2v-6h-2zm3 0v5.168l2-1.998v-3.17h-2z" transform="rotate(-90,8,8)"/>
 </g>
 <path style="color:#f1f2f2;text-decoration-line:none;text-transform:none;text-indent:0" d="m13.033 7.9863a1 1 0 0 0 -0.158 0.0117v0.002a1 1 0 0 0 -0.59375 0.28125l-3 3a1 1 0 0 0 -0.281 0.93v0.789h3.1152l-0.92188 1.3828a1.0165 1.0165 0 0 0 -0.193 0.797v0.82h0.82422a1.0165 1.0165 0 0 0 0.89453 -0.28125l3-3a1 1 0 0 0 0.281 -0.938v-0.781h-0.949a1 1 0 0 0 -0.051 -0.002h-2.113l0.894-1.3418a1 1 0 0 0 0.219 -0.9433v-0.7129h-0.79688a1 1 0 0 0 -0.16992 -0.013672z" fill="#f1f2f2"/>
</svg>
