<?xml version="1.0" encoding="UTF-8" standalone="no"?>
<!--Part of Monotone: https://github.com/sixsixfive/Monotone, released under cc-by-sa_v4-->
<svg xmlns="http://www.w3.org/2000/svg" version="1.1" xmlns:xlink="http://www.w3.org/1999/xlink" viewBox="0 0 16 16">
 <defs>
  <linearGradient id="linearGradient147" x1="37.868" xlink:href="#SVGID_1_" gradientUnits="userSpaceOnUse" y1="-22.713" gradientTransform="matrix(1.0059 0 0 -.9942 9.9104 69.418)" x2="37.868" y2="62.786"/>
 </defs>
 <path opacity=".5" style="color:#000000" fill="#f1f2f2" d="m1 2.998v10h7.0332a4.5 4.5 0 0 1 -0.0332 -0.498 4.5 4.5 0 0 1 0.0312 -0.502h-6.0312v-7.998l10-0.002v2h2v2.2657a4.5 4.5 0 0 1 1.002 0.498v-2.2949c0-0.49-0.228-0.7963-0.469-1.0313-0.24-0.235-0.527-0.4375-1-0.4375h-0.531v-2h-12.002zm2 2v6h2v-6h-2zm3 0v6h2v-6h-2z"/>
 <g display="none" transform="translate(-21.966 -78.551)">
  <g opacity=".9" filter="url(#filter3218)" display="inline">
   <linearGradient id="SVGID_1_" x1="37.868" gradientUnits="userSpaceOnUse" y1="-22.713" gradientTransform="matrix(1.0059 0 0 -.9942 9.9104 69.418)" x2="37.868" y2="62.786">
    <stop offset="0"/>
    <stop stop-opacity=".5882" offset="1"/>
   </linearGradient>
   <path d="m12 7h72c3.866 0 7 3.134 7 7v71c0 3.866-3.134 7-7 7h-72c-3.866 0-7-3.134-7-7v-71c0-3.866 3.134-7 7-7z" fill="url(#linearGradient147)"/>
  </g>
 </g>
 <g display="none" transform="translate(9.6266 -79.161)">
  <g opacity=".9" filter="url(#filter3218-5)" display="inline">
   <path d="m12 7h72c3.866 0 7 3.134 7 7v71c0 3.866-3.134 7-7 7h-72c-3.866 0-7-3.134-7-7v-71c0-3.866 3.134-7 7-7z" fill="url(#linearGradient147)"/>
  </g>
 </g>
 <path style="color:#f1f2f2" d="m12.5 9a3.5 3.5 0 1 0 0 7 3.5 3.5 0 0 0 0 -7zm-2.5 2.969h5v1.031h-5z" class="error" overflow="visible" fill="#f1f2f2"/>
</svg>
