<?xml version="1.0" encoding="UTF-8" standalone="no"?>
<svg
   xmlns:dc="http://purl.org/dc/elements/1.1/"
   xmlns:cc="http://creativecommons.org/ns#"
   xmlns:rdf="http://www.w3.org/1999/02/22-rdf-syntax-ns#"
   xmlns:svg="http://www.w3.org/2000/svg"
   xmlns="http://www.w3.org/2000/svg"
   id="svg6"
   viewBox="0 0 16 16"
   version="1.1">
  <metadata
     id="metadata12">
    <rdf:RDF>
      <cc:Work
         rdf:about="">
        <dc:format>image/svg+xml</dc:format>
        <dc:type
           rdf:resource="http://purl.org/dc/dcmitype/StillImage" />
        <dc:title></dc:title>
      </cc:Work>
    </rdf:RDF>
  </metadata>
  <defs
     id="defs10" />
  <g
     id="g4"
     fill="#f1f2f2">
    <path
       id="path2"
       d="M 2.34375 2 C 1.04595 1.9921785 -0.0078 3.04595 0 4.34375 L 0 11.65625 C -0.0078215 12.95405 1.04595 14.0078 2.34375 14 L 13.65625 14 C 14.95405 14.0078 16.0078 12.95405 16 11.65625 L 16 4.34375 C 16.007822 3.04595 14.95405 1.9922 13.65625 2 L 2.34375 2 z M 2.3378906 3 A 1.0001 1.0001 0 0 0 2.34375 3 L 8 3 L 8 13 L 2.34375 13 A 1.0001 1.0001 0 0 0 2.3378906 13 C 1.5846152 13.004527 0.99546033 12.415365 1 11.662109 A 1.0001 1.0001 0 0 0 1 11.65625 L 1 4.34375 A 1.0001 1.0001 0 0 0 1 4.3378906 C 0.99547269 3.5846152 1.5846349 2.9954603 2.3378906 3 z "
       style="fill:#f1f2f2" />
  </g>
</svg>
