<!--Part of Monotone: https://github.com/sixsixfive/Monotone, released under cc-by-sa_v4-->
<svg xmlns="http://www.w3.org/2000/svg" viewBox="0 0 16 16">
    <g color="#000" fill="#f1f2f2">
        <path style="line-height:normal;text-indent:0;text-align:start;text-decoration-line:none;text-decoration-style:solid;text-decoration-color:#000;text-transform:none;isolation:auto;mix-blend-mode:normal;marker:none" d="M11.088.05a1 1 0 0 0-.887.505L6.888 6.18a1 1 0 1 0 1.723 1.015l3.313-5.625a1 1 0 0 0-.836-1.52z" font-weight="400" font-family="sans-serif" white-space="normal" overflow="visible"/>
        <path style="marker:none" d="M5.219 5.094l4.947 3.054c.604.314.82 1.113.165 1.597l-.622.216-6.02-3.521.018-.908c.29-.585.755-.815 1.512-.438z" overflow="visible"/>
        <path style="isolation:auto;mix-blend-mode:normal;marker:none" d="M3.054 7.488l5.99 3.475-1.045 1.542a.458.458 0 0 0 .089.707l.95.818h-5.37c-2.19 0-3.197-2.065-2.143-3.89z" overflow="visible"/>
    </g>
</svg>
