<!--Part of Monotone: https://github.com/sixsixfive/Monotone, released under cc-by-sa_v4-->
<svg xmlns="http://www.w3.org/2000/svg" version="1" viewBox="0 0 16 16">
    <path fill="#f1f2f2" d="M9 1L7 3l2 2H2v3h1c1.055.001.941.002 2 0l-5 3 1 3 4.21-2.855a5.239 5.239 0 0 0 1.05 1.925 5.445 5.445 0 0 0 1.834 1.399A5.61 5.61 0 0 0 10.5 15a5.627 5.627 0 0 0 2.408-.539 5.481 5.481 0 0 0 1.832-1.404 5.28 5.28 0 0 0 1.047-1.93 5.162 5.162 0 0 0-.504-4.088c-.57-.857-.775-1.12-1.808-2.176L9 1zm1.521 6A3.478 3 0 0 1 14 10a3.478 3 0 0 1-3.479 3 3.478 3 0 0 1-3.478-3 3.478 3 0 0 1 3.478-3z"/>
    <path d="M12 10a1.5 1 0 0 1-1.5 1A1.5 1 0 0 1 9 10a1.5 1 0 0 1 1.5-1 1.5 1 0 0 1 1.5 1z" fill="#f1f2f2"/>
</svg>
