<?xml version="1.0" encoding="UTF-8" standalone="no"?>
<!--Part of Monotone: https://github.com/sixsixfive/Monotone, released under cc-by-sa_v4-->
<svg xmlns="http://www.w3.org/2000/svg" version="1.1" viewBox="0 0 16 16">
 <g fill="#f1f2f2">
  <path opacity=".965" d="m5 10v3h-1c-1 0-1 0-1 1s0 1 1.01 1h7.99c1 0 1 0 1-1s0-1-1-1h-1v-3z"/>
  <path d="m0.8 1c-0.44183 0-0.8 0.3582-0.8 0.8v9.4c0 0.442 0.35817 0.8 0.8 0.8h14.4c0.442 0 0.8-0.358 0.8-0.8v-9.4c0-0.4418-0.358-0.8-0.8-0.8zm0.2 1h14v8h-14z"/>
 </g>
</svg>
