<?xml version="1.0" encoding="UTF-8"?>
<!--Part of Monotone: https://github.com/sixsixfive/Monotone, released under cc-by-sa_v4-->
<svg version="1.1" viewBox="0 0 16 16" xmlns="http://www.w3.org/2000/svg">
<path d="m10 9a1.0001 1.0001 0 0 0-1 1v1.4707a1.0001 1.0001 0 0 0 0.29297 0.70703l0.3554 0.353-0.3554 0.356a1.0001 1.0001 0 0 0-0.293 0.707v1.406a1.0001 1.0001 0 0 0 1 1h1.4375a1.0001 1.0001 0 0 0 0.70703-0.29297l0.355-0.355 0.355 0.355a1.0001 1.0001 0 0 0 0.707 0.293h1.438a1.0001 1.0001 0 0 0 1-1v-1.406a1.0001 1.0001 0 0 0-0.303-0.717l-0.355-0.346 0.355-0.345a1.0001 1.0001 0 0 0 0.303-0.717v-1.469a1.0001 1.0001 0 0 0-1-1h-1.4062a1.0001 1.0001 0 0 0-0.70703 0.29297l-0.39648 0.39648-0.41797-0.40625a1.0001 1.0001 0 0 0-0.698-0.2832z" color="#f1f2f2" fill="#333333" fill-opacity=".98745"/>
<path d="m10 10h1.375l1.125 1.094 1.094-1.094h1.406v1.469l-1.094 1.062 1.094 1.063v1.406h-1.438l-1.062-1.063-1.063 1.063h-1.437v-1.406l1.062-1.063-1.062-1.061z" color="#f1f2f2" fill="#f1f2f2" overflow="visible"/>
</svg>
