<?xml version="1.0" encoding="UTF-8"?>
<!--Part of Monotone: https://github.com/sixsixfive/Monotone, released under cc-by-sa_v4-->
<svg version="1.1" viewBox="0 0 16 16" xmlns="http://www.w3.org/2000/svg">
 <g transform="matrix(-1,0,0,1,15.999,0)" color="#000000" fill="#f1f2f2">
  <path d="m8.281 0a4.454 4.454 0 0 0-3.031 1.188c-0.836 0.78-1.25 1.788-1.25 2.812s0.414 2.032 1.25 2.813c1.24 1.157 3.058 1.432 4.594 0.875l4.436 4.312h1.281l0.438-0.406v-1.844l-0.749-0.75h-0.75l-0.75-1.5h-0.75v-1.5l-0.75-0.563c0.597-1.433 0.302-3.092-0.938-4.25a4.454 4.454 0 0 0-3.029-1.187zm-0.781 1a1.5 1.5 0 1 1 0 3 1.5 1.5 0 0 1 0-3z" overflow="visible"/>
  <path d="m4 1c-2.21 0-4 1.692-4 3.781 0 1.544 0.973 2.88 2.375 3.469v0.75h0.625l1 1-1 1v1l0.812 1-0.812 0.486v0.434l1 1.08h1l1-1v-5.477l-0.156-0.054a5.014 5.014 0 0 1-2.625-3.125 1.353 1.353 0 0 1-1.219-1.344c0-0.685 0.523-1.237 1.188-1.313a4.879 4.879 0 0 1 0.812-1.687z" overflow="visible"/>
 </g>
</svg>
