<?xml version="1.0" encoding="UTF-8"?>
<svg version="1.1" viewBox="0 0 16 16" xmlns="http://www.w3.org/2000/svg">
<g fill="#f1f2f2">
<path d="m2.9688 0c-1.0886-0.0027749-1.9715 0.88015-1.9688 1.9688v12.061c0 1.092 0.87775 1.9707 1.9688 1.9707h10.031c0.554 0 1-0.446 1-1v-11c0-0.554-0.446-1-1-1h-10c-0.554 0-1-0.446-1-1s0.446-1 1-1h10c0-0.559-0.441-1-1-1h-9.0312zm-0.95703 3c0.017754 0.55368 0.44867 0.99456 0.98828 0.99805v0.0019531h1v1.0332 0.9668c0.0019635 0 0.0038986 1.86e-5 0.0058594 0v5.9668c0 0.010429-0.0055652 0.018944-0.0058594 0.029297v1.9707 1.0332h-1c-0.554 0-1-0.46092-1-1.0332v-8.9336c0-0.010429 0.0055652-0.018944 0.0058594-0.029297v-1.9707c0-0.011768 0.0054852-0.021533 0.0058594-0.033203zm4.3223 2h5.332c0.18467 0 0.33398 0.14932 0.33398 0.33398v1.332c0 0.18467-0.14932 0.33398-0.33398 0.33398h-5.332c-0.18467 0-0.33398-0.14932-0.33398-0.33398v-1.332c0-0.18467 0.14932-0.33398 0.33398-0.33398z" style="color:#000000"/>
</g>
</svg>
