<?xml version="1.0" encoding="UTF-8"?>
<svg version="1.1" viewBox="0 0 16 16" xmlns="http://www.w3.org/2000/svg"><g fill="#f1f2f2" opacity=".5"><path d="m5 9c-0.554 0-1 0.446-1 1v4c0 0.554 0.446 1 1 1h4v-4h1v-1c0-0.554-0.446-1-1-1h-4zm0 1h2v4h-2v-4z" color="#f1f2f2"/><path d="m2 1c-0.554 0-1 0.446-1 1v12c0 0.554 0.446 1 1 1h1v-1c-0.554 0-1-0.446-1-1v-10c0-0.554 0.446-1 1-1h10c0.554 0 1 0.446 1 1v6h1v-7c0-0.554-0.446-1-1-1h-12z"/><path d="M 4.25,3 C 3.5575,3 3,3.5575 3,4.25 v 2.5 C 3,7.4425 3.5575,8 4.25,8 h 7.5 C 12.442,8 13,7.4425 13,6.75 V 4.25 C 13,3.5575 12.442,3 11.75,3 Z m 0,1 h 7.5 C 11.888,4 12,4.1115 12,4.25 v 0.5 C 12,4.8885 11.888,5 11.75,5 H 4.25 C 4.1115,5 4,4.8885 4,4.75 V 4.25 C 4,4.1115 4.1115,4 4.25,4 Z m 0,2 h 4.5 C 8.8885,6 9,6.1115 9,6.25 v 0.5 C 9,6.8885 8.8885,7 8.75,7 H 4.25 C 4.1115,7 4,6.8885 4,6.75 V 6.25 C 4,6.1115 4.1115,6 4.25,6 Z" opacity=".7" stroke-width="1.118"/></g><path d="m12 10.007v1.996h-2v1.997h2v1.997h2v-1.997h2v-1.997h-2v-1.996z" fill="#f1f2f2"/></svg>
