<?xml version="1.0" encoding="UTF-8" standalone="no"?>
<!--Part of Monotone: https://github.com/sixsixfive/Monotone, released under cc-by-sa_v4-->
<svg xmlns="http://www.w3.org/2000/svg" viewBox="0 0 16 16" version="1.1">
 <path style="paint-order:fill markers stroke" fill="#f1f2f2" d="m6.3242 0.65039l-0.0644 0.02344v-0.00195l-1.875 0.69922 0.955 2.5586c-0.076 0.0594-0.1506 0.1211-0.2246 0.1855l0.0059 0.0059c-0.3544 0.2999-0.6737 0.6512-0.9512 1.0488l-0.0019-0.0019c-0.0118 0.0175-0.0236 0.035-0.0352 0.0527-0.0577 0.0846-0.1141 0.1695-0.168 0.2578-0.0368 0.063-0.0726 0.1268-0.1074 0.1914-0.0617 0.1099-0.1279 0.2151-0.1836 0.3301h-1.6738v1h1.291c-0.09 0.3026-0.1567 0.6129-0.2051 0.9277v0.0078c-0.0072 0.0475-0.0132 0.0949-0.0195 0.1426v0.0078c-0.0395 0.302-0.0655 0.6073-0.0664 0.9141h-2v1h2.0703c0.0463 0.313 0.1184 0.617 0.2051 0.916 0.0079 0.028 0.0113 0.058 0.0195 0.086 0.0096 0.029 0.0194 0.059 0.0293 0.088 0.0183 0.059 0.0469 0.113 0.0664 0.172 0.0302 0.086 0.0524 0.177 0.086 0.261l0.0097-0.009c0.0611 0.163 0.113 0.331 0.1875 0.486h-1.6738v1h2.2793c0.03 0.04 0.0623 0.077 0.0937 0.115 0.0944 0.12 0.1928 0.234 0.295 0.344 0.02 0.022 0.0402 0.044 0.0605 0.066 0.0116 0.012 0.0234 0.024 0.0352 0.036 0.1111 0.116 0.2264 0.226 0.3457 0.33l0.0019-0.002 0.0078 0.006c0.071 0.06 0.1455 0.114 0.2188 0.169 0.0724 0.057 0.146 0.112 0.2207 0.165 0.0738 0.049 0.1508 0.093 0.2266 0.138 0.0739 0.046 0.1488 0.09 0.2246 0.131 0.0263 0.014 0.0534 0.025 0.08 0.037 0.016 0.008 0.0328 0.014 0.0489 0.022 0.0444 0.02 0.088 0.042 0.1328 0.062 0.0703 0.033 0.1413 0.065 0.2129 0.094 0.0404 0.015 0.082 0.027 0.123 0.041 0.024 0.008 0.0482 0.015 0.0723 0.023 0.0399 0.013 0.0792 0.027 0.1191 0.039 0.0584 0.019 0.117 0.037 0.1758 0.053 0.0542 0.014 0.1094 0.021 0.1641 0.031 0.0165 0.004 0.0323 0.011 0.0488 0.014 0.0299 0.006 0.0599 0.011 0.0898 0.016 0.0065 0.001 0.0131 0 0.0196 0.002 0.0137 0.002 0.0272 0.005 0.041 0.007 0.0481 0.01 0.0962 0.018 0.1445 0.026 0.1711 0.021 0.3439 0.035 0.5176 0.035s0.3465-0.014 0.5176-0.035c0.0483-0.008 0.0964-0.016 0.1445-0.026 0.0138-0.002 0.0273-0.005 0.041-0.007 0.0065-0.001 0.0131-0.001 0.0196-0.002 0.0299-0.005 0.0599-0.01 0.0898-0.016 0.0165-0.003 0.0323-0.01 0.0488-0.014 0.0547-0.01 0.1099-0.017 0.1641-0.031 0.0588-0.016 0.1174-0.034 0.1758-0.053 0.0399-0.012 0.0792-0.026 0.1191-0.039 0.0241-0.008 0.0483-0.015 0.0723-0.023 0.041-0.014 0.0826-0.026 0.123-0.041 0.0716-0.029 0.1426-0.061 0.2129-0.094 0.0448-0.02 0.0884-0.042 0.1328-0.062 0.0161-0.008 0.0329-0.014 0.0489-0.022 0.0266-0.012 0.0537-0.023 0.08-0.037 0.0758-0.041 0.1508-0.085 0.2248-0.131 0.076-0.045 0.153-0.089 0.226-0.138 0.075-0.053 0.149-0.108 0.221-0.165 0.073-0.055 0.148-0.109 0.219-0.169l0.008-0.006 0.002 0.002c0.119-0.104 0.234-0.214 0.345-0.33 0.012-0.012 0.024-0.024 0.035-0.036 0.021-0.022 0.041-0.044 0.061-0.066 0.102-0.11 0.201-0.224 0.295-0.344 0.031-0.038 0.064-0.075 0.094-0.115h2.279v-1h-1.674c0.075-0.155 0.127-0.323 0.188-0.486l0.009 0.009c0.034-0.084 0.056-0.175 0.086-0.261 0.02-0.059 0.048-0.113 0.067-0.172 0.01-0.029 0.019-0.059 0.029-0.088 0.008-0.028 0.012-0.058 0.02-0.086 0.086-0.299 0.158-0.603 0.205-0.916h2.07v-1h-2c-0.001-0.3068-0.027-0.6121-0.066-0.9141v-0.0078c-0.007-0.0477-0.013-0.0951-0.02-0.1426v-0.0078c-0.048-0.3148-0.115-0.6251-0.205-0.9277h1.291v-1h-1-0.674c-0.056-0.115-0.122-0.2202-0.183-0.3301-0.035-0.0646-0.071-0.1284-0.108-0.1914-0.054-0.0883-0.11-0.1732-0.168-0.2578-0.011-0.0177-0.023-0.0352-0.035-0.0527l-0.002 0.0019c-0.277-0.3976-0.597-0.7489-0.951-1.0488l0.006-0.0059c-0.074-0.0644-0.149-0.1261-0.225-0.1855l0.955-2.5586-1.8748-0.69922v0.00195l-0.0644-0.02344-0.9082 2.4297c-0.2538-0.0504-0.5104-0.0771-0.7676-0.0801-0.2572 0.003-0.5138 0.0297-0.7676 0.0801l-0.9082-2.4297zm0.1758 4.3496c0.2761 0 0.5 0.2239 0.5 0.5s-0.2239 0.5-0.5 0.5-0.5-0.2239-0.5-0.5 0.2239-0.5 0.5-0.5zm3 0c0.2761 0 0.5 0.2239 0.5 0.5s-0.2239 0.5-0.5 0.5-0.5-0.2239-0.5-0.5 0.2239-0.5 0.5-0.5z"/>
</svg>
