<?xml version="1.0" encoding="UTF-8"?>
<svg version="1.1" viewBox="0 0 16 16" xmlns="http://www.w3.org/2000/svg">
<g fill="#f1f2f2">
<path d="m2 2a1.0001 1.0001 0 0 0-1 1v2a1.0001 1.0001 0 0 0 1.707 0.70703l2-2a1.0001 1.0001 0 0 0-0.70703-1.707h-2zm10 0a1.0001 1.0001 0 0 0-0.70703 1.707l2 2a1.0001 1.0001 0 0 0 1.707-0.70703v-2a1.0001 1.0001 0 0 0-1-1h-2zm-6.0273 1c-0.0038 0.3502-0.085512 0.6957-0.25781 1h4.5703c-0.172-0.3043-0.25381-0.6498-0.25781-1h-4.0547zm-2.9727 3.7148c-0.3043 0.1723-0.6498 0.25401-1 0.25781v2.0332c0.0198-1e-4 0.038794-0.0064594 0.058594-0.0058594 0.3314 0.0099 0.65461 0.1133 0.94141 0.2793v-2.5645zm10 0v1.3047c0.34151 0.039382 0.67584 0.11353 1 0.22852v-1.2754c-0.35-0.0038-0.696-0.085512-1-0.25781zm-10.971 3.2852a1.0001 1.0001 0 0 0-1.0293 1v2a1.0001 1.0001 0 0 0 1 1h2a1.0001 1.0001 0 0 0 0.70703-1.707l-2-2a1.0001 1.0001 0 0 0-0.67773-0.29297zm3.6855 2c0.1723 0.304 0.25401 0.65 0.25781 1h2.0469c-0.019223-0.16669-0.050781-0.33204-0.050781-0.5s0.031558-0.33331 0.050781-0.5h-2.3047z" style="opacity:.5"/>
<path d="m2 2a1.0001 1.0001 0 0 0-1 1v2a1.0001 1.0001 0 0 0 1.707 0.707l2-2a1.0001 1.0001 0 0 0-0.707-1.707h-2zm10 0a1.0001 1.0001 0 0 0-0.707 1.707l2 2a1.0001 1.0001 0 0 0 1.707-0.707v-2a1.0001 1.0001 0 0 0-1-1h-2zm-9.9707 8a1.0001 1.0001 0 0 0-1.0293 1v2a1.0001 1.0001 0 0 0 1 1h2a1.0001 1.0001 0 0 0 0.707-1.707l-2-2a1.0001 1.0001 0 0 0-0.6777-0.293zm11.987 0a1.0001 1.0001 0 0 0-0.723 0.293l-2 2a1.0001 1.0001 0 0 0 0.707 1.707h2a1.0001 1.0001 0 0 0 1-1v-2a1.0001 1.0001 0 0 0-0.984-1z" style="opacity:.5"/>
</g>
<circle cx="12.5" cy="12.5" r="3.5" style="color-rendering:auto;color:#000000;enable-background:new;fill-opacity:.98636;fill:#f1f2f2;image-rendering:auto;isolation:auto;mix-blend-mode:normal;paint-order:normal;shape-rendering:auto;solid-color:#000000"/>
</svg>
