<?xml version="1.0" encoding="UTF-8" standalone="no"?>
<!--Part of Monotone: https://github.com/sixsixfive/Monotone, released under cc-by-sa_v4-->
<svg xmlns="http://www.w3.org/2000/svg" viewBox="0 0 16 16" version="1.1">
 <g fill="#f1f2f2">
  <path d="m2.5 2c-0.277 0-0.5 0.223-0.5 0.5v12c0 0.277 0.223 0.5 0.5 0.5h11c0.277 0 0.5-0.223 0.5-0.5v-12c0-0.277-0.223-0.5-0.5-0.5h-11zm0.5 1h10v11h-10v-11z"/>
  <path d="m4 4v4h8.031v-4h-8.031zm2.5059 1.4297a0.5 0.5 0 0 1 0.4941 0.5078v0.0625h2v-0.0625a0.5 0.5 0 0 1 1 0v0.0625c0 0.545-0.455 1-1 1h-2c-0.546 0-1-0.455-1-1v-0.0625a0.5 0.5 0 0 1 0.3438 -0.5 0.5 0.5 0 0 1 0.0624 0 0.5 0.5 0 0 1 0.0997 -0.0078z"/>
  <path d="m4.0293 9v4h8.0317v-4h-8.0317zm2.4746 1.43a0.5 0.5 0 0 1 0.4941 0.508v0.062h2v-0.062a0.5 0.5 0 0 1 1 0v0.062c0 0.545-0.455 1-1 1h-1.998c-0.546 0-1-0.455-1-1v-0.062a0.5 0.5 0 0 1 0.3438 -0.5 0.5 0.5 0 0 1 0.0605 0 0.5 0.5 0 0 1 0.0996 -0.008z"/>
 </g>
</svg>
