<?xml version="1.0" encoding="UTF-8"?>
<svg version="1.1" viewBox="0 0 16 16" xmlns="http://www.w3.org/2000/svg">
<path d="m5.998 4a0.998 0.998 0 0 0-0.99805 1v3.4707 3.5293c0 0.554 0.446 1 1 1h4.1523a1.0001 1.0001 0 0 1-0.15234-0.5293v-1.4707a1.0001 1.0001 0 0 1 1-1h1.375a1.0001 1.0001 0 0 1 0.69727 0.2832l0.41797 0.40625 0.39648-0.39648a1.0001 1.0001 0 0 1 0.70703-0.29297h0.375v-5c0-0.554-0.446-1-1-1h-7.9707zm-0.99805 4.4707-3.4707-3.4707h-0.5293v7h0.5l3.5-3.5293z" style="fill:#f1f2f2;opacity:.5"/>
<g transform="translate(16.816 -1.5609)" style="fill:#f1f2f2;opacity:.35">
<path d="m3 3.01h1v1h-1zm0 9h1v1h-1zm3 3h1v1h-1zm0-15h1v1h-1z"/>
</g>
<path d="m11 11h1.375l1.125 1.094 1.094-1.094h1.406v1.469l-1.094 1.062 1.094 1.063v1.406h-1.438l-1.062-1.063-1.063 1.063h-1.437v-1.406l1.063-1.063-1.063-1.061z" overflow="visible" style="color:#f1f2f2;fill:#f1f2f2"/>
</svg>
