<?xml version="1.0" encoding="UTF-8"?>
<svg version="1" viewBox="0 0 16 16" xmlns="http://www.w3.org/2000/svg">
<g fill="#f1f2f2">
<path d="m4 3v9h7v-9h-7zm1 1h5v7h-5v-7z" style="fill-opacity:.99774;fill:#f1f2f2;paint-order:markers fill stroke"/>
<rect x="12" y="11" width="2" height="1" style="fill-opacity:.99774;fill:#f1f2f2;paint-order:markers fill stroke"/>
<rect x="12" y="9" width="2" height="1" style="fill-opacity:.99774;fill:#f1f2f2;paint-order:markers fill stroke"/>
<rect x="12" y="7" width="2" height="1" style="fill-opacity:.99774;fill:#f1f2f2;paint-order:markers fill stroke"/>
<rect x="12" y="5" width="2" height="1" style="fill-opacity:.99774;fill:#f1f2f2;paint-order:markers fill stroke"/>
<rect x="12" y="3" width="2" height="1" style="fill-opacity:.99774;fill:#f1f2f2;paint-order:markers fill stroke"/>
<rect transform="rotate(90)" x="-5.381e-17" y="-5" width="2" height="1" style="fill-opacity:.99774;fill:#f1f2f2;paint-order:markers fill stroke"/>
<rect transform="rotate(90)" x="-3.0926e-17" y="-7" width="2" height="1" style="fill-opacity:.99774;fill:#f1f2f2;paint-order:markers fill stroke"/>
<rect transform="rotate(90)" x="-8.0409e-18" y="-9" width="2" height="1" style="fill-opacity:.99774;fill:#f1f2f2;paint-order:markers fill stroke"/>
<rect transform="rotate(90)" x="1.4844e-17" y="-11" width="2" height="1" style="fill-opacity:.99774;fill:#f1f2f2;paint-order:markers fill stroke"/>
<rect transform="rotate(90)" x="13" y="-5" width="2" height="1" style="fill-opacity:.99774;fill:#f1f2f2;paint-order:markers fill stroke"/>
<rect transform="rotate(90)" x="13" y="-7" width="2" height="1" style="fill-opacity:.99774;fill:#f1f2f2;paint-order:markers fill stroke"/>
<rect transform="rotate(90)" x="13" y="-9" width="2" height="1" style="fill-opacity:.99774;fill:#f1f2f2;paint-order:markers fill stroke"/>
<rect transform="rotate(90)" x="13" y="-11" width="2" height="1" style="fill-opacity:.99774;fill:#f1f2f2;paint-order:markers fill stroke"/>
<rect x="1" y="11" width="2" height="1" style="fill-opacity:.99774;fill:#f1f2f2;paint-order:markers fill stroke"/>
<rect x="1" y="9" width="2" height="1" style="fill-opacity:.99774;fill:#f1f2f2;paint-order:markers fill stroke"/>
<rect x="1" y="7" width="2" height="1" style="fill-opacity:.99774;fill:#f1f2f2;paint-order:markers fill stroke"/>
<rect x="1" y="5" width="2" height="1" style="fill-opacity:.99774;fill:#f1f2f2;paint-order:markers fill stroke"/>
<rect x="1" y="3" width="2" height="1" style="fill-opacity:.99774;fill:#f1f2f2;paint-order:markers fill stroke"/>
</g>
</svg>
