<?xml version="1.0" encoding="UTF-8" standalone="no"?>
<!--Part of Monotone: https://github.com/sixsixfive/Monotone, released under cc-by-sa_v4-->
<svg id="svg12" xmlns="http://www.w3.org/2000/svg" version="1.1" viewBox="0 0 16 16"><path id="rect2" style="stroke-width:.875;fill:#f1f2f2" d="m2.334 1c-0.7388 0-1.334 0.5952-1.334 1.334v11.332c0 0.739 0.5952 1.334 1.334 1.334h5.7363v-4.93h-2.0703l-0.0703-2.07h2.0703l0.0684-1.9453c0-1.978 1.252-3.0547 3.0816-3.0547 0.876 0 1.63 0.0638 1.85 0.0918v2.9082h-1c-0.995 0-0.996 0.2832-0.996 0.2832l-0.004 1.7168h2v2h-2v5h2.666c0.739 0 1.334-0.595 1.334-1.334v-11.332c0-0.7388-0.595-1.334-1.334-1.334h-11.332z"/></svg>
