<?xml version="1.0" encoding="UTF-8"?>
<!--Part of Monotone: https://github.com/sixsixfive/Monotone, released under cc-by-sa_v4-->
<svg version="1.1" viewBox="0 0 16 16" xmlns="http://www.w3.org/2000/svg">
<path d="m3.5 3c-0.277 0-0.5 0.223-0.5 0.5v9c0 0.277 0.223 0.5 0.5 0.5h9c0.277 0 0.5-0.223 0.5-0.5v-9c0-0.277-0.223-0.5-0.5-0.5zm3 1h3c0.3139 0 0.5 0.091797 0.5 0.091797 0.58135 0.20659 1 0.75599 1 1.4082v6.5l-2 3e-6v-1.5c0-0.277-0.22324-0.48854-0.5-0.5h-1c-0.277 0-0.5 0.223-0.5 0.5v1.5l-2-3e-6v-6.5c0-0.65221 0.41865-1.2016 1-1.4082 0 0 0.25186-0.091797 0.5-0.091797zm1 2c-0.214 0-0.5 0.3065-0.5 0.5v1.5h2v-1.5c0-0.1935-0.286-0.5-0.5-0.5z" style="fill:#f1f2f2"/>
<path d="m2 1c-0.554 0-1 0.446-1 1v12c0 0.554 0.446 1 1 1h12c0.554 0 1-0.446 1-1v-12c0-0.554-0.446-1-1-1h-12zm0.5 1h11c0.277 0 0.5 0.223 0.5 0.5v11c0 0.277-0.223 0.5-0.5 0.5h-11c-0.277 0-0.5-0.223-0.5-0.5v-11c0-0.277 0.223-0.5 0.5-0.5z" style="fill:#f1f2f2"/>
</svg>
