<?xml version="1.0" encoding="UTF-8"?>
<!--Part of Monotone: https://github.com/sixsixfive/Monotone, released under cc-by-sa_v4-->
<svg version="1.1" viewBox="0 0 16 16" xmlns="http://www.w3.org/2000/svg">
<path d="m2 1c-0.554 0-1 0.446-1 1v12c0 0.554 0.446 1 1 1h12c0.554 0 1-0.446 1-1v-12c0-0.554-0.446-1-1-1h-12zm0.5 1h11c0.277 0 0.5 0.223 0.5 0.5v11c0 0.277-0.223 0.5-0.5 0.5h-11c-0.277 0-0.5-0.223-0.5-0.5v-11c0-0.277 0.223-0.5 0.5-0.5z" style="fill:#f1f2f2"/>
<path d="m6 5v1h3.5c0.214 0 0.5 0.3065 0.5 0.5v1.5h-3-0.5c-0.10388 0-0.20491 0.011334-0.30273 0.03125-0.00125 2.375e-4 -0.00266-2.404e-4 -0.00391 0-0.33193 0.064044-0.61994 0.22774-0.81836 0.45312-0.24633 0.28045-0.37995 0.64239-0.375 1.0156v1c0 0.38286 0.14643 0.72768 0.38086 0.99219 0.00379 0.0048 0.00592 0.01908 0.00977 0.02344 0.011952 0.01347 0.028412 0.02562 0.041016 0.03906 0.00586 0.0059 0.011619 0.01174 0.017578 0.01758 0.25792 0.26854 0.63638 0.51978 1.0508 0.42773h0.5 4v-5.5c0-0.82843-0.67157-1.5-1.5-1.5zm0.5 4h0.5 3v2h-3-0.5c-0.20265 0-0.37445-0.12043-0.45312-0.29297-0.023852-0.053737-0.046898-0.1129-0.046875-0.20703v-1c0-0.277 0.223-0.5 0.5-0.5z" style="fill:#f1f2f2;stroke-width:.5;text-decoration-line:none;text-indent:0;text-transform:none"/>
</svg>
