<?xml version="1.0" encoding="UTF-8"?>
<svg version="1.1" viewBox="0 0 16 16" xmlns="http://www.w3.org/2000/svg">
 <title>Ivy icon theme</title>
 <g fill="#f1f2f2">
  <path d="m8 8c1.1656-0.088089 1.4824-2.9335 0.025695-6.0236 0-0.70667 0-0.91396 0.35291-0.97476 1.0692 0.29143 1.912 0.25007 2.6471-0.025238 1.4074 0 1.9743 7.0236-3.0257 7.0236z"/>
  <path d="m8.0014 7.9976c0.43017-1.0869-1.9907-2.6154-5.4066-2.6556-0.63561-0.30884-0.82206-0.39943-0.72251-0.74343 0.72939-0.83428 1.0605-1.6104 1.1342-2.3919 0.6151-1.2659 7.1802 1.2938 4.995 5.791z"/>
  <path d="m7.9971 7.9768c-0.95308-0.67671-3.0143 1.3103-3.8673 4.6183-0.45138 0.54373-0.58378 0.70322-0.89415 0.52459-0.63649-0.90715-1.3114-1.4137-2.0529-1.6714-1.0829-0.89898 2.9671-6.6652 6.8143-3.4715z"/>
  <path d="m7.9774 7.9749c-0.96318 0.66226 0.19382 3.2811 3.0068 5.2195 0.35536 0.61082 0.4596 0.79 0.18514 1.02-1.0707 0.28574-1.7784 0.74532-2.2754 1.3529-1.2165 0.70775-5.2384-5.0781-0.91661-7.5925z"/>
  <path d="m7.9691 7.9938c0.35565 1.1135 3.1971 0.76267 5.8657-1.3701 0.68746-0.16367 0.88911-0.21168 1.03 0.11754-0.03588 1.1076 0.19957 1.9179 0.63765 2.5693 0.32598 1.3692-6.3753 3.5474-7.5334-1.3167z"/>
 </g>
</svg>
