<?xml version="1.0" encoding="UTF-8" standalone="no"?>
<!--Part of Monotone: https://github.com/sixsixfive/Monotone, released under cc-by-sa_v4-->
<svg xmlns="http://www.w3.org/2000/svg" version="1.1" viewBox="0 0 16 16">
 <path opacity=".5" style="color:#f1f2f2" fill="#f1f2f2" d="m5 0c-1.645 0-3 1.355-3 3v3h2v-3c0-0.571 0.429-1 1-1h2c0.3452 0 0.6247 0.1678 0.8027 0.418 0.3367-0.2571 0.7486-0.418 1.1973-0.418h0.8125c-0.4174-1.1573-1.5193-2-2.8125-2h-2zm-3.0625 9c-0.554 0-1.064 0.45-1 1v5h10.062v-3h-2-0.125c-1.01 0-1.875-0.867-1.875-1.877v-0.123-1h-5.0625z"/>
 <path d="m8.875 11a0.863 0.863 0 0 1 -0.875 -0.875v-6.25c0-0.492 0.383-0.875 0.875-0.875h6.25a0.863 0.863 0 0 1 0.875 0.875v6.25a0.863 0.863 0 0 1 -0.875 0.875zm2.125-1h2v-1h-2zm0-2h2v-4h-2z" fill="#f1f2f2"/>
</svg>
