<!--Part of Monotone: https://github.com/sixsixfive/Monotone, released under cc-by-sa_v4-->
<svg xmlns="http://www.w3.org/2000/svg" viewBox="0 0 16 16">
    <g fill="#f1f2f2">
        <path d="M12.996 10.499a.513.5 0 0 1-.513.5.513.5 0 0 1-.513-.5.513.5 0 0 1 .513-.5.513.5 0 0 1 .513.5z" color="#000"/>
        <path d="M10 16h5s.335-1 0-2c-.18.157-1.566 1-2.5 1-.934 0-2.14-.686-2.5-1-.312 1.226 0 2 0 2z"/>
        <path d="M0 0v16h8.5v-2H2V2h12v4h2V0z"/>
        <path d="M2 6v2.219c0 2.318 2.781 4.586 6.563 4.75-.625-.741-1.032-1.672-1.032-2.719 0-1.246.619-2.472 1.47-3.25-6 .765-7-1-7-1zm5-1C5.333 3.563 3.667 3.606 2 5c0-1.105 1.12-2 2.5-2S7 3.895 7 5zm2 0c1.667-1.437 3.333-1.394 5 0 0-1.105-1.12-2-2.5-2S9 3.895 9 5zm3.5 2a3.5 3.5 0 1 0 0 7 3.5 3.5 0 0 0 0-7zm0 2a1.5 1.5 0 1 1 .001 2.999A1.5 1.5 0 0 1 12.5 9z"/>
    </g>
</svg>
