<?xml version="1.0" encoding="UTF-8" standalone="no"?>
<!--Part of Monotone: https://github.com/sixsixfive/Monotone, released under cc-by-sa_v4-->
<svg id="svg7384" xmlns="http://www.w3.org/2000/svg" viewBox="0 0 16 16" version="1.1"><title id="title9167">Gnome Symbolic Icon Theme</title><g id="layer9" transform="translate(-423 145)"><path id="path832" style="paint-order:fill markers stroke;fill:#f1f2f2" d="m8 1a7 7 0 0 0 -7 7 7 7 0 0 0 7 7 7 7 0 0 0 7 -7 7 7 0 0 0 -7 -7zm-1 2h3l-1 1.0625v0.9375h3v0.5 1.6562l-1.844 1.8438h-1.156v4l-1 1v-5h-2l-2-4h4v-0.9375l-1-1.0625zm-1.5 3l1 2h1.5v-2h-2.5zm3.5 0v2h0.75l1.25-1.25v-0.75h-2z" transform="translate(423,-145)"/></g></svg>
