<?xml version="1.0" encoding="UTF-8"?>
<svg version="1.1" viewBox="0 0 16 16" xmlns="http://www.w3.org/2000/svg">
<path d="m9 0c-1.758 0-2.7424 0.77545-2.9551 3h-0.044922c-3 0-5 1-5 10.1 0 1.0526 0.84779 1.9004 1.9004 1.9004h10.199c1.0526 0 1.9004-0.84779 1.9004-1.9004 0-9.0996-2-10.1-5-10.1h-0.12891c0.11631-0.63606 0.51376-1.3848 1.1289-2-1 0-2 0-3 1zm-3.5508 5c0.82843 0 1.5 0.89543 1.5 2s-0.67157 2-1.5 2-1.5-0.89543-1.5-2 0.67157-2 1.5-2zm5 0c0.82843 0 1.5 0.89543 1.5 2s-0.67157 2-1.5 2c-0.82843 1e-7 -1.5-0.89543-1.5-2s0.67157-2 1.5-2zm-5 2c-0.27614 0-0.5 0.22386-0.5 0.5s0.22386 0.5 0.5 0.5 0.5-0.22386 0.5-0.5-0.22386-0.5-0.5-0.5zm5 0c-0.27614-1e-7 -0.5 0.22386-0.5 0.5s0.22386 0.5 0.5 0.5c0.27614 0 0.5-0.22386 0.5-0.5s-0.22386-0.5-0.5-0.5zm-2.5 3c2.0508 0 3.0508 1 3.0508 2l-3 2-3-2c0-1 1-2 2.9492-2z" style="fill-opacity:.99774;fill:#f1f2f2;paint-order:markers fill stroke"/>
</svg>
