<?xml version="1.0" encoding="UTF-8" standalone="no"?>
<!--Part of Monotone: https://github.com/sixsixfive/Monotone, released under cc-by-sa_v4-->
<svg id="svg8" xmlns="http://www.w3.org/2000/svg" viewBox="0 0 16 16" version="1.1"><g id="g6" fill="#f1f2f2"><path id="path2" overflow="visible" d="m10.012 0.031c-2.19 0-3.988 1.698-3.988 3.781 0 3.1 3.139 8.126 3.988 8.188 0.85 0.062 3.958-5.151 3.958-8.188 0-2.083-1.766-3.78-3.958-3.78zm-0.03 2.969c0.55 0 0.996 0.448 0.996 1s-0.446 1-0.997 1a0.999 0.999 0 0 1 -0.997 -1 1 1 0 0 1 0.997 -1z"/><path id="path4" style="block-progression:tb;text-transform:none;text-indent:0" font-family="Sans" d="m14.78 11a0.997 1 0 0 0 -0.343 0.156l-4.269 2.656-4.082-2.53a0.997 1 0 0 0 -1.028 0l-4.58 2.812a1.007 1.01 0 1 0 1.06 1.719l4.019-2.5 4.081 2.53a0.997 1 0 0 0 1.06 0l4.798-3a0.997 1 0 0 0 -0.716 -1.843z" overflow="visible" font-weight="400"/></g></svg>
