<?xml version="1.0" encoding="UTF-8" standalone="no"?>
<!--Part of Monotone: https://github.com/sixsixfive/Monotone, released under cc-by-sa_v4-->
<svg id="svg4" xmlns="http://www.w3.org/2000/svg" version="1.1" viewBox="0 0 16 16"><path id="path4489" style="fill:#f1f2f2" d="m8 1a7 7 0 0 0 -7 7 7 7 0 0 0 7 7 7 7 0 0 0 7 -7 7 7 0 0 0 -7 -7zm-3 4h0.6094 0.0644a0.67046 0.5976 0 0 1 0.336 0.0742l4.7132 2.4004c0.209 0.1032 0.314 0.3142 0.314 0.5254s-0.106 0.4222-0.314 0.5254l-4.7132 2.4006a0.67315 0.6 0 0 1 -0.336 0.074h-0.6738v-6z"/></svg>
