<!--Part of Monotone: https://github.com/sixsixfive/Monotone, released under cc-by-sa_v4-->
<svg xmlns="http://www.w3.org/2000/svg" viewBox="0 0 16 16">
    <path fill="#f1f2f2" d="M8.205 1.004A7 7 0 0 0 1 8a7 7 0 1 0 14 0 7 7 0 0 0-6.795-6.996zm2.357 4.004c.369-.045.511.114.403.61-.128.581-.924 2.806-1.14 3.39v.002c-.172.46-.47 1.444-.692 1.779-.424.588-.868-.189-1.055-.646-.913-1.788-.333-1.296-2.377-2.262-.684-.256-.982-.75-.369-1.072.299-.143 1.744-.623 2.041-.727s2.058-.747 2.746-.967c.172-.055.321-.092.443-.107z"/>
</svg>
