<?xml version="1.0" encoding="UTF-8" standalone="no"?>
<!--Part of Monotone: https://github.com/sixsixfive/Monotone, released under cc-by-sa_v4-->
<svg id="svg4" xmlns="http://www.w3.org/2000/svg" version="1.1" viewBox="0 0 16 16"><path id="path4487" style="fill:#f1f2f2;text-decoration-line:none;text-transform:none;text-indent:0" d="m2.8125 1c-0.1139 0.0226-0.2229 0.0649-0.3223 0.125-0.0043 0.0026-0.0094 0.0032-0.0136 0.0059-0.0958 0.0588-0.181 0.1335-0.252 0.2207-0.0708 0.0877-0.1263 0.1867-0.1641 0.2929-0.0014 0.0041-0.0025 0.0077-0.0039 0.0117-0.0388 0.1104-0.058 0.2268-0.0566 0.3438v13c-0.0002 0.133 0.0264 0.266 0.0781 0.389 0.05 0.118 0.1223 0.225 0.2129 0.316 0.0013 0.001 0.0026 0.003 0.0039 0.004 0.089 0.088 0.1937 0.158 0.3086 0.207 0.0055 0.002 0.0102 0.006 0.0156 0.008 0.1208 0.05 0.2502 0.076 0.3809 0.076h10c0.133 0 0.266-0.026 0.389-0.078 0.118-0.05 0.225-0.122 0.316-0.213l0.004-0.004c0.088-0.089 0.158-0.194 0.207-0.309 0.002-0.005 0.006-0.01 0.008-0.015 0.05-0.121 0.076-0.25 0.076-0.381v-9.4375c0.002-0.1308-0.021-0.2609-0.068-0.3828v-0.0039c-0.001-0.0014-0.002-0.0026-0.002-0.0039-0.048-0.1222-0.12-0.2337-0.211-0.3281l-3.563-3.5645c-0.095-0.0916-0.2082-0.1633-0.3318-0.2109-0.1231-0.0482-0.2545-0.0714-0.3867-0.0684h-6.4375c-0.0312-0.00147-0.0625-0.00147-0.0938 0-0.0312-0.00147-0.0625-0.00147-0.0937 0zm6.1875 1l4 4h-3c-1 0-1 0-1-1v-3zm-5.9004 1h3.8008c0.0554 0 0.0996 0.0442 0.0996 0.0996v0.8008c0 0.0554-0.0442 0.0996-0.0996 0.0996h-3.8008c-0.0554 0-0.0996-0.0442-0.0996-0.0996v-0.8008c0-0.0554 0.0442-0.0996 0.0996-0.0996zm0 2h3.8008c0.0554 0 0.0996 0.0442 0.0996 0.0996v0.8008c0 0.0554-0.0442 0.0996-0.0996 0.0996h-3.8008c-0.0554 0-0.0996-0.0442-0.0996-0.0996v-0.8008c0-0.0554 0.0442-0.0996 0.0996-0.0996zm0 2h8.8004c0.056 0 0.1 0.0442 0.1 0.0996v0.8008c0 0.0554-0.044 0.0996-0.1 0.0996h-8.8004c-0.0554 0-0.0996-0.0442-0.0996-0.0996v-0.8008c0-0.0554 0.0442-0.0996 0.0996-0.0996zm0 2h8.8004c0.056 0 0.1 0.0442 0.1 0.0996v0.8008c0 0.0554-0.044 0.0996-0.1 0.0996h-8.8004c-0.0554 0-0.0996-0.0442-0.0996-0.0996v-0.8008c0-0.0554 0.0442-0.0996 0.0996-0.0996zm0 2h8.8004c0.056 0 0.1 0.044 0.1 0.1v0.8c0 0.056-0.044 0.1-0.1 0.1h-8.8004c-0.0554 0-0.0996-0.044-0.0996-0.1v-0.8c0-0.056 0.0442-0.1 0.0996-0.1zm0 2h8.8004c0.056 0 0.1 0.044 0.1 0.1v0.8c0 0.056-0.044 0.1-0.1 0.1h-8.8004c-0.0554 0-0.0996-0.044-0.0996-0.1v-0.8c0-0.056 0.0442-0.1 0.0996-0.1z"/></svg>
