<svg version="1.1" viewBox="0 0 16 16" xmlns="http://www.w3.org/2000/svg"><path d="m6 5.3145c-2.8908 0.67158-5 2.7566-5 5.2285 0 3.0142 3.134 5.457 7 5.457 3.866 0 7-2.4429 7-5.457 0-2.472-2.1092-4.5569-5-5.2285v1.9668c0.69406 0.21368 1.307 0.52161 1.7852 0.89453 0.89869 0.70092 1.3223 1.5161 1.3223 2.3672 0 0.85112-0.42174 1.6648-1.3203 2.3652s-2.2528 1.1992-3.7871 1.1992c-1.5344 0-2.8885-0.49874-3.7871-1.1992s-1.3203-1.5141-1.3203-2.3652c0-0.85112 0.42357-1.6663 1.3223-2.3672 0.47815-0.37293 1.0911-0.68085 1.7852-0.89453v-1.9668z" style="fill:#f1f2f2;stroke-width:.77261"/><rect x="7" y="1" width="2" height="9" ry=".5" style="fill:#f1f2f2;paint-order:markers fill stroke"/><path transform="translate(-6.8214e-5 1)" d="m8.0078-1a1.0001 1.0001 0 0 0-0.90234 0.55273l-1 2a1.0001 1.0001 0 0 0 0.89453 1.4473h2a1.0001 1.0001 0 0 0 0.89453-1.4473l-1-2a1.0001 1.0001 0 0 0-0.88672-0.55273z" style="fill:#f1f2f2"/></svg>
