<?xml version="1.0" encoding="UTF-8" standalone="no"?>
<!--Part of Monotone: https://github.com/sixsixfive/Monotone, released under cc-by-sa_v4-->
<svg id="svg6" xmlns="http://www.w3.org/2000/svg" version="1.1" viewBox="0 0 16 16"><path id="path888" style="fill:#f1f2f2" d="m3.0519 0.97481c-1.3114 1.5268-2.0487 3.4831-2.0519 5.5252 0 4.694 3.8056 8.5 8.5 8.5 2.0276 0.00029 3.9718-0.72334 5.4959-2.0147 1.0086-0.96041 1.0183-0.97108 0.05053-1.9389l-4.1109-4.1109c-0.191 0.6327-0.774 1.065-1.435 1.0649-0.8284 0-1.5-0.6716-1.5-1.5 0.001-0.6605 0.4341-1.2427 1.0664-1.4336l-4.1009-4.1009c-0.9449-0.9428-0.9942-0.92038-1.9136 0.00931zm0.7586 0.91579c0.00195-0.0000114 0.00391-0.0000114 0.00586 0 0.1353-0.00207 0.26567 0.050779 0.36133 0.14648l2.9166 2.8207c0.1484 0.1485 0.1882 0.374 0.0996 0.5644-0.0339 0.0731-0.0653 0.1527-0.0957 0.2422-0.0686 0.2028-0.2586 0.3394-0.4727 0.3399h-4.1015c-0.3038-0.0006-0.5368-0.2696-0.4942-0.5704 0.1823-1.2663 0.6571-2.3622 1.394-3.3441 0.0918-0.1219 0.2342-0.1953 0.3867-0.1992zm0.1778 1.3711c-0.3419 0.5585-0.5715 1.0916-0.7319 1.7426h2.5703zm5.5117 2.7383c-0.2761 0-0.5 0.2239-0.5 0.5s0.2239 0.5 0.5 0.5 0.5-0.2239 0.5-0.5-0.2239-0.5-0.5-0.5zm-7.0059 1.0762c0.0026-0.0000203 0.00521-0.0000203 0.00781 0h4.1055c0.21302-0.0001293 0.40274 0.13471 0.47266 0.33594 0.029359 0.084864 0.060789 0.16539 0.095703 0.24023 0.088623 0.1904 0.048831 0.41589-0.099609 0.56445l-2.8926 2.8922c-0.215 0.216-0.5711 0.191-0.7539-0.052-0.7356-0.981-1.2363-2.1462-1.4219-3.4086-0.0436-0.2983 0.1848-0.5671 0.4863-0.5722zm0.74219 1c0.162 0.6485 0.414 1.2529 0.7559 1.8105l1.8105-1.8105zm4.9494 0.705c0.00391-0.0000458 0.00781-0.0000458 0.011719 0 0.084029-0.00518 0.168 0.010948 0.24414 0.046875 0.065025 0.030522 0.14604 0.060549 0.24219 0.09375 0.20123 0.069913 0.33607 0.25963 0.33594 0.47266v4.1055c-0.0004 0.305-0.2708 0.538-0.5722 0.494-1.2648-0.183-2.5252-0.683-3.5061-1.422-0.2434-0.183-0.2683-0.539-0.0527-0.754l2.9865-2.8903c0.083-0.0839 0.193-0.1358 0.3105-0.1465zm2.6294 0c0.0039-0.0000458 0.0078-0.0000458 0.01172 0 0.1353-0.00207 0.26567 0.050778 0.36133 0.14648l2.765 2.8843c0.21558 0.21496 0.19068 0.57105-0.05273 0.75391-0.9803 0.73768-2.0243 1.2373-3.2844 1.4238-0.30145 0.044-0.57186-0.18949-0.57227-0.49414v-4.0956c-0.000129-0.21302 0.13471-0.40274 0.33594-0.47266 0.08242-0.028768 0.16326-0.060365 0.24219-0.097656 0.06052-0.029094 0.12628-0.0457 0.19336-0.048828zm-2.7955 1.416-1.9084 1.8125c0.55759 0.34273 1.2589 0.59669 1.9084 0.75781zm3.024 0v2.5645c0.64721-0.16224 1.1302-0.4158 1.6868-0.75781z"/></svg>
