<?xml version="1.0" encoding="UTF-8" standalone="no"?>
<svg
   xmlns:dc="http://purl.org/dc/elements/1.1/"
   xmlns:cc="http://creativecommons.org/ns#"
   xmlns:rdf="http://www.w3.org/1999/02/22-rdf-syntax-ns#"
   xmlns:svg="http://www.w3.org/2000/svg"
   xmlns="http://www.w3.org/2000/svg"
   id="svg10"
   viewBox="0 0 16 16"
   version="1.1">
  <defs
     id="defs14" />
  <g
     id="g8"
     fill="#f1f2f2">
    <path
       id="path4"
       d="m5.53 0h5.002c0.29271 0 0.53 0.23729 0.53 0.53v2.94c0 0.2927-0.237 0.53-0.53 0.53h-5.002c-0.2927 0-0.53-0.2373-0.53-0.53v-2.94c0-0.29271 0.2373-0.53 0.53-0.53z" />
    <path
       id="path6"
       fill="#f1f2f2"
       stroke-width=".92582"
       d="m2.5 1c-0.277 0-0.5 0.223-0.5 0.5v13c0 0.277 0.223 0.5 0.5 0.5h11c0.277 0 0.5-0.223 0.5-0.5v-13c0-0.277-0.223-0.5-0.5-0.5h-1.438v1h0.938v12h-10v-12h1v-1h-1.5z" />
  </g>
</svg>
