<?xml version="1.0" encoding="UTF-8"?>
<svg version="1" viewBox="0 0 16 16" xmlns="http://www.w3.org/2000/svg">
<g fill="#f1f2f2">
<path d="m2 1c-0.554 0-1 0.446-1 1v12c0 0.554 0.446 1 1 1h7.8867a1.0079 1.0079 0 0 1-0.8945-1v-1.996a1.0079 1.0079 0 0 1 0.9394-1.004h-0.9316v-1c0-0.257 0.1305-0.5288 0.3125-0.7188l1.2815-1.2812-1.2815-1.2812c-0.182-0.191-0.3125-0.4618-0.3125-0.7188v-1h1c0.31 0 0.552 0.0912 0.75 0.2812l2.656 2.7188-0.976 1h1.57a1.0079 1.0079 0 0 1 1 0.8926v-7.8926c0-0.554-0.446-1-1-1h-12zm4 4h1v1c0 0.257-0.1305 0.5278-0.3125 0.7188l-1.2813 1.2812 1.2813 1.2812c0.182 0.19 0.3125 0.4618 0.3125 0.7188v1h-1c-0.31 0-0.552-0.09-0.75-0.281l-2.6562-2.719 2.6562-2.7188c0.198-0.19 0.44-0.2812 0.75-0.2812zm4.992 5.471-0.242 0.248c-0.192 0.185-0.429 0.272-0.727 0.277h0.969v-0.525z" opacity=".5"/>
<path d="m2 1c-0.554 0-1 0.446-1 1v7.8926 4.1074c0 0.554 0.446 1 1 1h4.1133 3.7734 4.1133c0.554 0 1-0.446 1-1v-4.1074-7.8926c0-0.554-0.446-1-1-1h-12zm4 4h1v1c0 0.257-0.1305 0.52775-0.3125 0.71875l-1.2812 1.2812 1.2812 1.2812c0.182 0.19 0.3125 0.46175 0.3125 0.71875v1h-0.92969-0.070312c-0.0086959 0-0.014848-0.003764-0.023438-0.003906-0.149-0.0025-0.28184-0.024813-0.40234-0.070313-0.1205-0.0455-0.22822-0.11453-0.32422-0.20703l-0.24219-0.24805-1.4375-1.4707-0.97656-1 2.6562-2.7188c0.198-0.19 0.44-0.28125 0.75-0.28125zm3 0h1c0.155 0 0.29202 0.02375 0.41602 0.070312 5.64e-4 2.106e-4 0.001389-2.115e-4 0.001953 0 0.12336 0.046566 0.23344 0.11633 0.33203 0.21094l2.6562 2.7188-0.97656 1-1.4375 1.4707-0.24219 0.24805c-0.096 0.0925-0.20383 0.16145-0.32422 0.20703s-0.25334 0.067813-0.40234 0.070313c-0.00859 1.42e-4 -0.014742 0.003906-0.023438 0.003906h-0.070312-0.92969v-1c0-0.257 0.1305-0.52875 0.3125-0.71875l1.2812-1.2812-1.2812-1.2812c-0.182-0.191-0.3125-0.46175-0.3125-0.71875v-1z"/>
</g>
</svg>
