<?xml version="1.0" encoding="UTF-8"?>
<svg version="1.1" viewBox="0 0 16 16" xmlns="http://www.w3.org/2000/svg">
<path d="m8 1c-0.34661 0.00168-0.69261 0.029097-1.0352 0.082031l-0.55664 0.56641c-0.22157 0.22499-0.42629 0.3593-0.54102 0.49609l-0.01172 0.01562c-0.58837 0.63448-0.86097 1.5761-0.69922 2.418l0.00195 0.00586v0.00586c0.20299 1.2783 1.4513 2.362 2.748 2.3438h0.023438c1.0092 0.045154 2.0276-0.55278 2.5273-1.4395l0.12109-0.21484 0.24609 0.00977c1.3627 0.046214 2.6722 0.73952 3.4531 1.873l2e-3 0.00195v0.00195c0.33791 0.49987 0.55382 1.116 0.63672 1.7617 0.0027 0.0084 0.0081 0.015467 0.01172 0.023437 0.04564-0.31504 0.069785-0.63284 0.072217-0.95117 0-3.866-3.134-7-7-7zm-3.4453 0.91602c-2.1936 1.2403-3.5513 3.564-3.5547 6.084 0.00148 1.604 0.55377 3.1588 1.5645 4.4043l1.0176 0.29688c0.62679 0.18281 1.2904 0.20861 1.877 0h0.00391l0.00391-2e-3c0.79793-0.26415 1.4732-0.91908 1.7637-1.7109v-2e-3c0.32213-0.86265 0.19414-1.9128-0.3418-2.6444l-0.00195-0.00391-0.00391-0.00391c-0.40364-0.58058-1.0538-0.9994-1.752-1.1465-0.22434-0.039116-0.46277-0.060698-0.7168-0.083984l-0.22656-0.019531-0.10156-0.20312c-0.95471-1.7679-0.76572-3.5793 0.46875-4.9648zm6.6211 5.2207c-0.18818 0.015738-0.37343 0.051078-0.55273 0.10547l-2e-3 0.00195h-0.0039c-0.90029 0.25829-1.6601 1.0121-1.916 1.916v0.00391l-0.00195 0.00195c-0.21836 0.72354-0.12526 1.5395 0.22265 2.2109l0.10352 0.19727-0.11133 0.19336c-0.61262 1.0614-1.6981 1.8027-2.8906 2.0312h-0.00195c-0.73986 0.1548-1.488 0.04995-2.1895-0.18555 1.2045 0.89747 2.6658 1.3837 4.168 1.3867 2.8964-0.0039 5.4913-1.7913 6.5273-4.4961l-0.31641-1.1992c-0.20027-0.75804-0.70902-1.4376-1.3867-1.8125h-4e-3c-0.49368-0.27818-1.0799-0.40268-1.6444-0.35547z" style="fill:#f1f2f2"/>
</svg>
