<?xml version="1.0" encoding="UTF-8" standalone="no"?>
<!--Part of Monotone: https://github.com/sixsixfive/Monotone, released under cc-by-sa_v4-->
<svg xmlns="http://www.w3.org/2000/svg" version="1.1" viewBox="0 0 16 16">
 <path opacity="0.965" fill="#f1f2f2" d="m0.80078 1c-0.44183 0-0.80078 0.359-0.80078 0.8008v9.3982c0 0.442 0.35895 0.801 0.80078 0.801h4.1992v1h-1c-1 0-1 0-1 1s-0.0002 1 1.0098 1h7.9902c1 0 1 0 1-1s0-1-1-1h-1v-1h4.199c0.442 0 0.801-0.359 0.801-0.801v-9.3982c0-0.4418-0.359-0.8008-0.801-0.8008h-14.398zm5.1992 2c0.559 0 1.0312 0.4732 1.0312 1.0312v0.9688c0 0.558-0.4712 1-1.0292 1-0.56 0-1-0.442-1-1v-0.9688c-0.001-0.558 0.438-1.0312 0.998-1.0312zm4 0c0.559 0 1 0.4732 1 1.0312v0.9688c0 0.558-0.441 1-1 1-0.558 0-1-0.442-1-1v-0.9688c0-0.558 0.442-1.0312 1-1.0312zm-2 4.0391c3.256 0 5 0.8713 5 1.4043v0.5c-0.996-0.637-4.016-0.918-5-0.918-0.983 0-3.804-0.05-5 0.918v-0.5c0-0.681 1.744-1.4043 5-1.4043z"/>
</svg>
