<!--Part of Monotone: https://github.com/sixsixfive/Monotone, released under cc-by-sa_v4-->
<svg xmlns="http://www.w3.org/2000/svg" viewBox="0 0 16 16">
    <path d="M7.533 1a7.014 7.014 0 0 0-.605.068l-.29 1.455a5.573 5.573 0 0 0-1.515.647L3.88 2.338a7.104 7.104 0 0 0-1.53 1.531l.854 1.277c-.26.451-.465.942-.592 1.461l-1.527.3a6.991 6.991 0 0 0 0 2.17l1.557.307c.133.499.337.971.593 1.405l-.882 1.326a7.104 7.104 0 0 0 1.53 1.533l1.329-.885a5.57 5.57 0 0 0 1.402.596l.309 1.557a6.973 6.973 0 0 0 2.17 0l.3-1.526c.52-.126 1.01-.33 1.461-.59l1.278.85a7.098 7.098 0 0 0 1.53-1.531l-.827-1.242c.286-.465.5-.973.642-1.514l1.455-.291c.032-.199.055-.4.069-.604v-.953a6.942 6.942 0 0 0-.067-.6l-1.427-.284a5.568 5.568 0 0 0-.639-1.575l.795-1.19a7.102 7.102 0 0 0-1.53-1.53l-1.189.795a5.557 5.557 0 0 0-1.574-.637l-.285-1.428a6.942 6.942 0 0 0-.6-.066zm.643 2.912c1.088 0 2.112.423 2.882 1.191L9.936 6.228a2.493 2.493 0 0 0-4.25 1.764 2.493 2.493 0 0 0 4.25 1.764l1.123 1.125a4.056 4.056 0 0 1-2.883 1.191 4.053 4.053 0 0 1-2.885-1.195 4.053 4.053 0 0 1-1.195-2.885c0-1.09.425-2.114 1.195-2.885s1.795-1.195 2.885-1.195z" fill="#f1f2f2"/>
</svg>
