<!--Part of Monotone: https://github.com/sixsixfive/Monotone, released under cc-by-sa_v4-->
<svg xmlns="http://www.w3.org/2000/svg" viewBox="0 0 16 16">
    <path style="line-height:normal;-inkscape-font-specification:Sans;text-indent:0;text-align:start;text-decoration-line:none;text-transform:none;marker:none" d="M5 7c-.31 0-.615.09-.813.281L.594 11l3.656 3.719c.198.19.44.281.75.281h1v-1c0-.257-.13-.529-.313-.719L4.407 12H9c.528.007 1-.472 1-1s-.472-1.007-1-1H4.375l1.219-1.281C5.776 8.529 6 8.257 6 8V7zm6.594 2c.31 0 .614-.09.812-.281L16 5l-3.656-3.719c-.198-.19-.44-.281-.75-.281h-1v1c0 .257.13.529.312.719L12.187 4H7c-.528-.007-1 .472-1 1s.472 1.007 1 1h5.219L11 7.281c-.183.19-.406.462-.406.719v1z" overflow="visible" color="#000" font-weight="400" font-family="Sans" fill="#f1f2f2"/>
</svg>
