<?xml version="1.0" encoding="UTF-8" standalone="no"?>
<!--Part of Monotone: https://github.com/sixsixfive/Monotone, released under cc-by-sa_v4-->
<svg xmlns="http://www.w3.org/2000/svg" version="1.1" viewBox="0 0 16 16">
 <g fill="#f1f2f2">
  <path opacity=".5" d="m3.4414 8.0859c-1.109 0.363-2.4365 1.2884-2.4375 2.9021l-0.0039 3.012c0 0.554 0.446 1 1 1h7.9902v-0.986h-0.9902a1.0099 1.0099 0 0 1 -1.0098 -1.01v-1.998a1.0099 1.0099 0 0 1 1.0098 -1.0099h0.9902v-0.9863a1.0099 1.0099 0 0 1 0.0078 -0.1289c-0.4064-0.3675-0.9024-0.6462-1.4433-0.7871-0.706 0.623-1.5397 0.9062-2.5547 0.9062-1.016 0-1.8526-0.2901-2.5586-0.9141z"/>
  <path opacity=".5" style="color:#f1f2f2" d="m9 5a3 3 0 0 1 -3 3 3 3 0 0 1 -3 -3 3 3 0 0 1 3 -3 3 3 0 0 1 3 3z" overflow="visible"/>
  <path d="m11 9.01v1.996h-2v1.997h2v1.997h2v-1.997h2v-1.997h-2v-1.996z"/>
 </g>
</svg>
