<?xml version="1.0" encoding="UTF-8" standalone="no"?>
<!--Part of Monotone: https://github.com/sixsixfive/Monotone, released under cc-by-sa_v4-->
<svg id="svg8" xmlns="http://www.w3.org/2000/svg" viewBox="0 0 16 16" version="1.1"><path id="path9756" style="fill:#f1f2f2;fill-rule:evenodd" d="m6 11v1h-2c-0.4458 0-0.7928-0.129-0.9316-1h-1.0684c0.20691 2.7523 1.3305 3 2.5488 3h1.4512l0.0254 1 1.9746-1v-2z"/><path id="path4490" style="fill:#f1f2f2" d="m1 3v7h7v-7z"/><path id="path4492" style="fill:#f1f2f2" d="m11.5 8a3.5 3.5 0 0 0 -3.4453 2.908l0.3926 0.197a1.0001 1.0001 0 0 1 0.5527 0.895v1.949a3.5 3.5 0 0 0 2.5 1.051 3.5 3.5 0 0 0 3.5 -3.5 3.5 3.5 0 0 0 -3.5 -3.5z"/></svg>
