<?xml version="1.0" encoding="UTF-8" standalone="no"?>
<!--Part of Monotone: https://github.com/sixsixfive/Monotone, released under cc-by-sa_v4-->
<svg id="svg6" xmlns="http://www.w3.org/2000/svg" version="1.1" viewBox="0 0 16 16"><g id="g4" transform="matrix(.053754 0 0 .053691 -29.169 -28.599)"><path id="path2" style="stroke-width:.99586;fill:#f1f2f2" d="m635.59 812.04c111.53 0 168.8-93.168 168.8-173.96 0-2.6463-0.0535-5.2806-0.17118-7.903 17.477-4.3896 26.92-12.845 36.08-23.015-12.952 0-22.327 0-40.655 0.98031 12.519-7.5693 36.121-23.957 40.655-38.231-11.715 7.0031-38.68 16.507-52.494 19.255-11.065-11.884-23.094-19.317-40.537-19.317-33.485 0-55.057 27.381-55.057 61.132 0 4.7978-1.3332 9.4646-0.29283 13.941-50.395-2.5569-100.76-19.392-130.67-56.386 0.93153 25.098 0 55.876 18.603 74.501h-18.603c0 10.797 9.4617 50.274 37.207 55.876-10.108 0-9.5668 0.62015-18.603 0 7.7195 24.293 29.271 36.757 55.81 37.251-28.179 25.178-74.413 37.251-93.017 37.251 26.836 17.344 58.7 18.621 92.948 18.621"/></g></svg>
