<!--Part of Monotone: https://github.com/sixsixfive/Monotone, released under cc-by-sa_v4-->
<svg xmlns="http://www.w3.org/2000/svg" viewBox="0 0 16 16">
    <g color="#f1f2f2" fill="#f1f2f2">
        <path style="line-height:normal;-inkscape-font-specification:Sans;text-indent:0;text-align:start;text-decoration-line:none;text-transform:none;marker:none" d="M2 1v7c0 2.072 1.51 3.681 2.844 4.875a20.44 20.44 0 0 0 2.656 2l.5.281.531-.312s1.295-.798 2.625-2C12.487 11.64 14 10.044 14 8V1H3zm2 2h8v5c0 .92-.987 2.318-2.156 3.375-.906.819-1.48 1.139-1.844 1.375-.354-.222-.929-.525-1.844-1.344C4.99 10.363 4 8.98 4 8z" font-weight="400" font-family="Sans" overflow="visible"/>
        <path style="marker:none" d="M8 4v7.5c-.42-.294-.581-.355-1.156-.875C5.755 9.641 5 8.357 5 8V4z" overflow="visible"/>
    </g>
</svg>
