<?xml version="1.0" encoding="UTF-8" standalone="no"?>
<!--Part of Monotone: https://github.com/sixsixfive/Monotone, released under cc-by-sa_v4-->
<svg xmlns="http://www.w3.org/2000/svg" version="1.1" viewBox="0 0 16 16">
 <g fill="#f1f2f2">
  <path opacity="0.965" d="m5 10v3h-1c-1 0-1 0-1 1s0 1 1.01 1h7.99c1 0 1 0 1-1s0-1-1-1h-1v-3z"/>
  <path d="m0.8 1c-0.44183 0-0.8 0.3582-0.8 0.8v9.4c0 0.442 0.35817 0.8 0.8 0.8h14.4c0.442 0 0.8-0.358 0.8-0.8v-9.4c0-0.4418-0.358-0.8-0.8-0.8zm0.2 1h14v8h-14z"/>
  <path opacity=".5" d="m2.5996 3c-0.3324 0-0.5996 0.2672-0.5996 0.5996v4.8008c0 0.3324 0.2672 0.5996 0.5996 0.5996h10.8c0.333 0 0.6-0.2672 0.6-0.5996v-4.8008c0-0.3324-0.267-0.5996-0.6-0.5996h-10.8zm0.8008 1h9.1996c0.221 0 0.4 0.1788 0.4 0.4004v3.1992c0 0.2216-0.179 0.4004-0.4 0.4004h-9.1996c-0.2216 0-0.4004-0.1788-0.4004-0.4004v-3.1992c0-0.2216 0.1788-0.4004 0.4004-0.4004z" stroke-width="1.0954"/>
  <circle cx="5" cy="6" r="1"/>
  <circle cx="8" cy="6" r="1"/>
  <circle cx="11" cy="6" r="1"/>
 </g>
</svg>
