<?xml version="1.0" encoding="UTF-8"?>
<svg version="1.1" viewBox="0 0 16 16" xmlns="http://www.w3.org/2000/svg">
<g>
<title>Layer 1</title>
<rect x="8" y="8.9997" width="3.9998" height="2" fill="#f1f2f2" opacity=".5" stroke-width="3.7795"/>
<path d="m2 3v1.9999h0.99997v5.9999c0 1.108 0.89199 2 2 2h9v-8.0002c0-1.1078-0.89195-1.9999-2.0001-1.9999h-5l-4.9999 3e-4zm2.9999 1.9999h1v2.6386h-0.00195v2.3675h5.006v-0.5101c0 0.0078-0.0036 0.01383-0.003901 0.02146v-0.6089c0.001201-4.2e-4 0.002701 4.3e-4 0.003901 0v-1.4044c0-0.29679-0.21106-0.50977-0.50195-0.50977-0.28808 0-0.49783 0.20962-0.50195 0.50195v0.00389 1.4996h-1.0005v-1.4997c0-0.00537 0.00189-0.01028 0.00195-0.01561-0.00684-0.28912-0.21392-0.49609-0.49998-0.49609-0.29089 0-0.50195 0.21296-0.50195 0.50977v1.5016h-0.9996v-1.4997c0-0.83099 0.669-1.5 1.5-1.5 0.38637 0 0.73461 0.14841 0.99997 0.38671 0.26532-0.23811 0.61341-0.38664 0.99967-0.38664 0.8311 0 1.5001 0.66896 1.5001 1.5001v2.5c0 0.55399-0.44598 0.99997-0.99997 0.99997h-5.0002c-0.55399 0-0.99997-0.44598-0.99997-0.99997v-4l3.3e-4 -1.0003z" fill="#f1f2f2" stroke-width="3.7795"/>
</g>
</svg>
