<?xml version="1.0" encoding="UTF-8" standalone="no"?>
<!--Part of Monotone: https://github.com/sixsixfive/Monotone, released under cc-by-sa_v4-->
<svg xmlns="http://www.w3.org/2000/svg" version="1.1" viewBox="0 0 16 16">
 <g fill="#f1f2f2">
  <path opacity=".5" d="m8.909 3.974c0.018 0.167 0.062 0.328 0.062 0.5a4.5 4.5 0 0 1 -4.5 4.5c-0.118 0-0.228-0.022-0.344-0.031v2.219c0 1.004 0.809 1.812 1.813 1.812h1.545l2 2.047 2.062-2.047h1.612a1.809 1.809 0 0 0 1.812 -1.812v-5.375a1.809 1.809 0 0 0 -1.812 -1.813z" overflow="visible"/>
  <path d="m4.471 0.974a3.5 3.5 0 1 0 0 7 3.5 3.5 0 0 0 0 -7zm-0.531 1h1.03l-0.06 1.376a0.2 0.2 0 0 0 0 0.063 0.2 0.2 0 0 0 0 0.03 0.2 0.2 0 0 0 0.125 0.126 0.2 0.2 0 0 0 0.03 0 0.2 0.2 0 0 0 0.063 0 0.2 0.2 0 0 0 0.063 0 0.2 0.2 0 0 0 0.031 -0.031l1.156-0.75 0.5 0.906-1.218 0.625a0.2 0.2 0 0 0 -0.032 0 0.2 0.2 0 0 0 -0.03 0.031 0.2 0.2 0 0 0 -0.032 0.094 0.2 0.2 0 0 0 0 0.062 0.2 0.2 0 0 0 0 0.032 0.2 0.2 0 0 0 0.031 0.062 0.2 0.2 0 0 0 0.031 0.031 0.2 0.2 0 0 0 0.032 0.031l1.25 0.625-0.532 0.907-1.156-0.781a0.2 0.2 0 0 0 -0.031 0 0.2 0.2 0 0 0 -0.063 -0.032 0.2 0.2 0 0 0 -0.062 0 0.2 0.2 0 0 0 -0.125 0.094 0.2 0.2 0 0 0 -0.031 0.031 0.2 0.2 0 0 0 0 0.032 0.2 0.2 0 0 0 0 0.062l0.062 1.375h-1.032l0.094-1.375a0.2 0.2 0 0 0 -0.032 -0.094 0.2 0.2 0 0 0 -0.03 -0.062 0.2 0.2 0 0 0 -0.063 -0.031 0.2 0.2 0 0 0 -0.063 -0.031 0.2 0.2 0 0 0 -0.031 0 0.2 0.2 0 0 0 -0.094 0.03l-1.187 0.782-0.5-0.906 1.25-0.625a0.2 0.2 0 0 0 0.031 -0.031 0.2 0.2 0 0 0 0.031 -0.032 0.2 0.2 0 0 0 0.031 -0.062 0.2 0.2 0 0 0 0 -0.031 0.2 0.2 0 0 0 0 -0.063 0.2 0.2 0 0 0 0 -0.031 0.2 0.2 0 0 0 -0.03 -0.063 0.2 0.2 0 0 0 -0.032 -0.03 0.2 0.2 0 0 0 -0.031 0l-1.25-0.626 0.5-0.906 1.187 0.75a0.2 0.2 0 0 0 0.031 0.031 0.2 0.2 0 0 0 0.063 0 0.2 0.2 0 0 0 0.062 0 0.2 0.2 0 0 0 0.032 0 0.2 0.2 0 0 0 0.03 -0.031 0.2 0.2 0 0 0 0.032 -0.031 0.2 0.2 0 0 0 0.031 -0.031 0.2 0.2 0 0 0 0 -0.032 0.2 0.2 0 0 0 0.031 -0.062 0.2 0.2 0 0 0 0 -0.031z" overflow="visible"/>
 </g>
</svg>
