<?xml version="1.0" encoding="UTF-8"?>
<svg version="1.1" viewBox="0 0 16 16" xmlns="http://www.w3.org/2000/svg">
<path d="m10 2.043v2.9805c1.6762 0.00411 3 1.306 3 2.9844a2.981 2.981 0 0 1-3 3.0078v2.9844a6.5 6 0 0 0 6-5.9805 6.5 6 0 0 0-6-5.9766z" style="color:#f1f2f2;fill:#f1f2f2;text-decoration-line:none;text-indent:0;text-transform:none"/>
<path d="m10.01 6.0254c-0.0034 0-0.0064 0.00194-0.0098 0.00195v0.99609a0.99 0.99 0 0 1 0.0098 0 0.99 0.99 0 0 1 0.99805 0.99805 0.99 0.99 0 0 1-0.99805 1 0.99 0.99 0 0 1-0.0098 0v0.99609c0.0033 1.6e-5 0.0065 0 0.0098 0a2.002 2.002 0 0 0 1.9961-1.9961 2.002 2.002 0 0 0-1.9961-1.9961z" style="color:#f1f2f2;fill:#f1f2f2;text-decoration-line:none;text-indent:0;text-transform:none"/>
<path d="m1 1c-0.554 0-1 0.446-1 1v12c0 0.554 0.446 1 1 1h7c0.554 0 1-0.446 1-1v-12c0-0.554-0.446-1-1-1h-7zm2.8184 2c2.518 2.424 5.9886 4.877 3.1816 7-0.092-2.716-0.9334-2.7971-1.9395-3.0391l-0.060547 0.039062v2 1.375c0 0.007603-0.0036543 0.013949-0.0039062 0.021484a2 1.4743 0 0 1 0.0039062 0.078125 2 1.4743 0 0 1-2 1.4746 2 1.4743 0 0 1-2-1.4746 2 1.4743 0 0 1 2-1.4746 2 1.4743 0 0 1 0.81836 0.13086v-0.13086-1-1.375-3.625z" style="fill-opacity:.99774;fill:#f1f2f2;paint-order:markers fill stroke"/>
</svg>
