<?xml version="1.0" encoding="UTF-8"?>
<svg version="1.1" viewBox="0 0 16 16" xmlns="http://www.w3.org/2000/svg">
<path d="m3.0273 2c0.036726 2.8172 0.21223 5.1742 1.2266 6.2812 0.011711 0.011517 0.023328 0.023954 0.035156 0.035156 0.075287 0.078772 0.15783 0.14708 0.24219 0.21289 0.12934 0.094247 0.25975 0.18225 0.39844 0.24609h0.0019531c0.33816 0.15538 0.70116 0.22461 1.0684 0.22461v1 4h10v-12h-12.973zm0.97266 1h2v2h-2v-2zm3 0h2v2h-2v-2zm3 0h2v2h-2v-2zm3 0h2v2h-2v-2zm-5 3 3 2-3 2v-4zm-1 5h2v2h-2v-2zm3 0h2v2h-2v-2zm3 0h2v2h-2v-2z" style="fill-opacity:.99774;fill:#f1f2f2;paint-order:markers fill stroke"/>
<path d="m0 2 2-1c0 5 0 9 3 9v5l-5-1z" style="fill-opacity:.99774;fill:#f1f2f2;paint-order:markers fill stroke"/>
</svg>
