<?xml version="1.0" encoding="UTF-8"?>
<svg version="1.1" viewBox="0 0 16 16" xmlns="http://www.w3.org/2000/svg">
<path d="m2 1c-0.554 0-1 0.446-1 1v11c0 0.554 0.446 1 1 1v0.5c0 0.277 0.223 0.5 0.5 0.5h2c0.277 0 0.5-0.223 0.5-0.5v-0.5h6v0.5c0 0.277 0.223 0.5 0.5 0.5h2c0.277 0 0.5-0.223 0.5-0.5v-0.5c0.554 0 1-0.446 1-1v-11c0-0.554-0.446-1-1-1zm0 1h12v11h-12z" style="fill:#f1f2f2;paint-order:markers fill stroke"/>
<path d="m3.5 3c-0.277 0-0.5 0.223-0.5 0.5v8c0 0.277 0.223 0.5 0.5 0.5h9c0.277 0 0.5-0.223 0.5-0.5v-1.5h-0.5c-0.277 0-0.5-0.223-0.5-0.5s0.223-0.5 0.5-0.5h0.5v-3h-0.5c-0.277 0-0.5-0.223-0.5-0.5s0.223-0.5 0.5-0.5h0.5v-1.5c0-0.277-0.223-0.5-0.5-0.5zm4.1094 2a1.3909 1.5 0 0 1 1.3906 1.5 1.3909 1.5 0 0 1-0.72852 1.3164l0.72852 2.1836h-3l0.76953-2.3066a1.3909 1.5 0 0 1-0.55078-1.1934 1.3909 1.5 0 0 1 1.3906-1.5z" style="fill:#f1f2f2;paint-order:markers fill stroke"/>
</svg>
