<?xml version="1.0" encoding="UTF-8" standalone="no"?>
<!--Part of Monotone: https://github.com/sixsixfive/Monotone, released under cc-by-sa_v4-->
<svg xmlns="http://www.w3.org/2000/svg" version="1.1" viewBox="0 0 16 16">
<path d="m8 1l-4 6h0.0078a5 5 0 0 0 -1.0078 3 5 5 0 0 0 5 5 5 5 0 0 0 5 -5 5 5 0 0 0 -1.008 -3h0.008l-4-6zm0 1.9629l3.037 4.5566a1.0886 1.0886 0 0 0 0.086 0.1367c0.506 0.6705 0.787 1.506 0.789 2.3458 0 1.023-0.423 2.04-1.146 2.764-0.724 0.724-1.742 1.146-2.766 1.146s-2.0415-0.422-2.7656-1.146-1.1465-1.742-1.1465-2.766c0.0022-0.8391 0.2839-1.6738 0.7891-2.3438a1.0886 1.0886 0 0 0 0.0918 -0.1445l3.0312-4.5488z" fill="#f1f2f2"/>
<path d="m8.4375 7.9395c-0.2717-0.0188-0.5483 0.0078-0.8184 0.0839-1.7408 0.4601-3.1453 1.6334-4.5605 2.7036a5 5 0 0 0 4.9414 4.273 5 5 0 0 0 4.041 -2.068c-0.768 0.039-1.537 0.039-2.3027-0.067-0.7428-0.12-1.9151-0.428-1.7715-1.396 0.3708-0.981 1.5437-1.321 2.4882-1.442 0.875 0.174 0.292-0.4902 0.029-0.8805-0.456-0.6941-1.2315-1.1508-2.0465-1.207z" fill="#f1f2f2"/>
</svg>
