<svg version="1.1" viewBox="0 0 16 16" xmlns="http://www.w3.org/2000/svg"><rect x="1" y="1" width="1" height="3" ry=".5" style="fill:#f1f2f2;paint-order:markers fill stroke"/><rect x="3" y="1" width="1" height="3" ry=".5" style="fill:#f1f2f2;paint-order:markers fill stroke"/><rect x="3" width="1" height="3" ry=".5" style="fill:#f1f2f2;paint-order:markers fill stroke"/><rect transform="rotate(90)" x="1" y="-4" width="1" height="3" ry=".5" style="fill:#f1f2f2;paint-order:markers fill stroke"/><rect transform="rotate(90)" x="5" y="-4" width="1" height="3" ry=".5" style="fill:#f1f2f2;paint-order:markers fill stroke"/><rect x="1" y="3" width="1" height="3" ry=".5" style="fill:#f1f2f2;paint-order:markers fill stroke"/><rect x="3" y="3" width="1" height="3" ry=".5" style="fill:#f1f2f2;paint-order:markers fill stroke"/><rect x="5" y="1" width="1" height="3" ry=".5" style="fill:#f1f2f2;paint-order:markers fill stroke"/><rect x="5" width="1" height="3" ry=".5" style="fill:#f1f2f2;paint-order:markers fill stroke"/><rect x="5" y="3" width="1" height="3" ry=".5" style="fill:#f1f2f2;paint-order:markers fill stroke"/><rect transform="rotate(90)" x="-6.5253e-17" y="-8" width="1" height="3" ry=".5" style="fill:#f1f2f2;paint-order:markers fill stroke"/><rect transform="rotate(90)" x="2" y="-8" width="1" height="3" ry=".5" style="fill:#f1f2f2;paint-order:markers fill stroke"/><rect transform="rotate(90)" x="5" y="-8" width="1" height="3" ry=".5" style="fill:#f1f2f2;paint-order:markers fill stroke"/><rect x="7" y="4" width="1" height="2" ry=".5" style="fill:#f1f2f2;paint-order:markers fill stroke"/><rect x="11" y="3" width="1" height="3" ry=".5" style="fill:#f1f2f2;paint-order:markers fill stroke"/><rect x="11" y="2" width="1" height="3" ry=".5" style="fill:#f1f2f2;paint-order:markers fill stroke"/><rect transform="rotate(90)" x="5" y="-12" width="1" height="3" ry=".5" style="fill:#f1f2f2;paint-order:markers fill stroke"/><rect transform="rotate(90)" x="11" y="-14" width="1" height="2" ry=".5" style="fill:#f1f2f2;paint-order:markers fill stroke"/><rect x="9" y="4" width="1" height="2" ry=".5" style="fill:#f1f2f2;paint-order:markers fill stroke"/><rect transform="rotate(90)" x="2" y="-12" width="1" height="3" ry=".5" style="fill:#f1f2f2;paint-order:markers fill stroke"/><rect x="9" width="1" height="3" ry=".5" style="fill:#f1f2f2;paint-order:markers fill stroke"/><rect transform="rotate(90)" x="-4.2368e-17" y="-12" width="1" height="3" ry=".5" style="fill:#f1f2f2;paint-order:markers fill stroke"/><rect x="3" y="7" width="1" height="3" ry=".5" style="fill:#f1f2f2;paint-order:markers fill stroke"/><rect x="7" y="7" width="1" height="3" ry=".5" style="fill:#f1f2f2;paint-order:markers fill stroke"/><rect transform="rotate(90)" x="13" y="-14" width="1" height="2" ry=".5" style="fill:#f1f2f2;paint-order:markers fill stroke"/><rect transform="rotate(90)" x="15" y="-14" width="1" height="2" ry=".5" style="fill:#f1f2f2;paint-order:markers fill stroke"/><rect x="5" y="7" width="1" height="3" ry=".5" style="fill:#f1f2f2;paint-order:markers fill stroke"/><rect transform="rotate(90)" x="7" y="-8" width="1" height="3" ry=".5" style="fill:#f1f2f2;paint-order:markers fill stroke"/><rect transform="rotate(90)" x="7" y="-6" width="1" height="3" ry=".5" style="fill:#f1f2f2;paint-order:markers fill stroke"/><rect x="9" y="7" width="1" height="3" ry=".5" style="fill:#f1f2f2;paint-order:markers fill stroke"/><rect x="11" y="7" width="1" height="3" ry=".5" style="fill:#f1f2f2;paint-order:markers fill stroke"/><rect transform="rotate(90)" x="9" y="-12" width="1" height="3" ry=".5" style="fill:#f1f2f2;paint-order:markers fill stroke"/><rect x="6" y="11" width="1" height="3" ry=".5" style="fill:#f1f2f2;paint-order:markers fill stroke"/><rect x="10" y="11" width="1" height="3" ry=".5" style="fill:#f1f2f2;paint-order:markers fill stroke"/><rect x="8" y="11" width="1" height="3" ry=".5" style="fill:#f1f2f2;paint-order:markers fill stroke"/><rect transform="rotate(90)" x="11" y="-11" width="1" height="3" ry=".5" style="fill:#f1f2f2;paint-order:markers fill stroke"/><rect transform="rotate(90)" x="11" y="-9" width="1" height="3" ry=".5" style="fill:#f1f2f2;paint-order:markers fill stroke"/><rect x="12" y="11" width="1" height="3" ry=".5" style="fill:#f1f2f2;paint-order:markers fill stroke"/><rect transform="scale(-1)" x="-13" y="-16" width="1" height="3" ry=".5" style="fill:#f1f2f2;paint-order:markers fill stroke"/><rect x="10" y="13" width="1" height="3" ry=".5" style="fill:#f1f2f2;paint-order:markers fill stroke"/><rect x="8" y="13" width="1" height="3" ry=".5" style="fill:#f1f2f2;paint-order:markers fill stroke"/><rect x="6" y="13" width="1" height="3" ry=".5" style="fill:#f1f2f2;paint-order:markers fill stroke"/></svg>
