<?xml version="1.0" encoding="UTF-8" standalone="no"?>
<!--Part of Monotone: https://github.com/sixsixfive/Monotone, released under cc-by-sa_v4-->
<svg id="svg10" xmlns="http://www.w3.org/2000/svg" version="1.1" viewBox="0 0 16 16"><g id="g8" color="#f1f2f2" fill="#f1f2f2"><path id="rect20" style="opacity:.9;fill:#f1f2f2" d="m1 1c-0.554 0-1 0.446-1 1v12c0 0.554 0.446 1 1 1h14c0.554 0 1-0.446 1-1v-12c0-0.554-0.446-1-1-1h-14zm0.8574 1h12.286c0.474 0 0.857 0.3826 0.857 0.8574v10.286c0 0.474-0.383 0.857-0.857 0.857h-12.286c-0.4744 0-0.857-0.383-0.857-0.857v-10.286c0-0.4744 0.3826-0.857 0.8574-0.857z"/><g id="g107" style="fill:#f1f2f2" font-weight="400" transform="translate(22.812,1)"><path id="path105" style="color:#000000;text-decoration-line:none;text-transform:none;text-indent:0" d="m-14.499 2.969c-0.16648 0.047392-0.29661 0.17752-0.344 0.344l-1.689 6.092-0.874-1.185c-0.091-0.1352-0.243-0.2173-0.406-0.22h-3v1h2.75l1.313 1.781c0.24671 0.32284 0.75506 0.23221 0.875-0.156l1.53-5.438 1.063 3.47c0.06704 0.20276 0.25546 0.34056 0.469 0.343h4v-1h-3.625l-1.438-4.688c-0.07594-0.26835-0.35674-0.4227-0.624-0.343z" overflow="visible"/></g></g></svg>
