<?xml version="1.0" encoding="UTF-8" standalone="no"?>
<!--Part of Monotone: https://github.com/sixsixfive/Monotone, released under cc-by-sa_v4-->
<svg xmlns="http://www.w3.org/2000/svg" version="1" viewBox="0 0 16 16">
 <g fill="#f1f2f2">
  <path d="m2 1c-0.554 0-1 0.446-1 1v12c0 0.554 0.446 1 1 1h12c0.554 0 1-0.446 1-1v-12c0-0.554-0.446-1-1-1h-12zm4 4h1v1c0 0.257-0.1305 0.5278-0.3125 0.7188l-1.2813 1.2812 1.2813 1.2812c0.182 0.19 0.3125 0.4618 0.3125 0.7188v1h-1c-0.31 0-0.552-0.09-0.75-0.281l-2.6562-2.719 2.6562-2.7188c0.198-0.19 0.44-0.2812 0.75-0.2812zm3 0h1c0.31 0 0.552 0.0912 0.75 0.2812l2.656 2.7188-2.656 2.719c-0.198 0.191-0.44 0.281-0.75 0.281h-1v-1c0-0.257 0.1305-0.5288 0.3125-0.7188l1.2815-1.2812-1.2815-1.2812c-0.182-0.191-0.3125-0.4618-0.3125-0.7188v-1z" fill="#f1f2f2"/>
 </g>
</svg>
