<?xml version="1.0" encoding="UTF-8" standalone="no"?>
<!--Part of Monotone: https://github.com/sixsixfive/Monotone, released under cc-by-sa_v4-->
<svg xmlns="http://www.w3.org/2000/svg" version="1.1" viewBox="0 0 16 16">
 <g fill="#f1f2f2">
  <path d="m3.384 2h3.231c0.213 0 0.385 0.224 0.385 0.502v2.996c0 0.278-0.172 0.502-0.385 0.502h-3.23c-0.215 0-0.385-0.224-0.385-0.502v-2.996c0-0.278 0.17-0.502 0.384-0.502z"/>
  <path d="m3.3848 8c-0.214 0-0.3848 0.224-0.3848 0.502v4.9961c0 0.278 0.1698 0.502 0.3848 0.502h3.2304c0.213 0 0.3848-0.224 0.3848-0.502v-4.9961c0-0.2779-0.1718-0.5019-0.3848-0.5019z"/>
  <path d="m12.616 10h-3.231c-0.213 0-0.385 0.224-0.385 0.502v2.996c0 0.278 0.172 0.502 0.385 0.502h3.23c0.215 0 0.385-0.224 0.385-0.502v-2.996c0-0.278-0.17-0.502-0.384-0.502z"/>
  <path d="m12.615 2c0.214 0 0.385 0.224 0.385 0.502v4.9961c0 0.2779-0.17 0.5019-0.385 0.5019h-3.2302c-0.213 0-0.38477-0.22395-0.38477-0.50195v-4.9961c0-0.2779 0.1718-0.5019 0.3848-0.5019z"/>
 </g>
</svg>
