<?xml version="1.0" encoding="UTF-8" standalone="no"?>
<!--Part of Monotone: https://github.com/sixsixfive/Monotone, released under cc-by-sa_v4-->
<svg id="svg6" xmlns="http://www.w3.org/2000/svg" version="1" viewBox="0 0 16 16"><path id="path4491" style="opacity:.7;fill:#f1f2f2" d="m6 1a5 5 0 0 0 -5 5 5 5 0 0 0 4.0859 4.912 5 5 0 0 1 -0.0859 -0.912 5 5 0 0 1 5 -5 5 5 0 0 1 0.914 0.0879 5 5 0 0 0 -4.914 -4.0879z"/><path id="circle4493" style="opacity:.5;fill:#f1f2f2" d="m10.914 5.0879a5 5 0 0 1 0.086 0.9121 5 5 0 0 1 -5 5 5 5 0 0 1 -0.9141 -0.088 5 5 0 0 0 4.9141 4.088 5 5 0 0 0 5 -5 5 5 0 0 0 -4.086 -4.9121z"/><path id="circle4501" style="fill:#f1f2f2" d="m9.8652 6.1348a5 5 0 0 0 -3.7285 3.7285 5 5 0 0 0 3.7285 -3.7285z"/></svg>
