<?xml version="1.0" encoding="UTF-8" standalone="no"?>
<!--Part of Monotone: https://github.com/sixsixfive/Monotone, released under cc-by-sa_v4-->
<svg id="svg6" xmlns="http://www.w3.org/2000/svg" version="1.1" viewBox="0 0 16 16"><path id="path824" style="fill:#f1f2f2" d="m7 1l-4.7793 11.469a6 2 0 0 0 -0.2207 0.531 6 2 0 0 0 6 2 6 2 0 0 0 6 -2 6 2 0 0 0 -0.316 -0.633l-3.684-7.367 5 1-7-5h-1zm0.5137 0.7695h0.2402l3.8831 2.7735-1.487-0.2969a0.7694 0.7694 0 0 0 -0.8375 1.0977l3.6835 7.3672a0.7694 0.7694 0 0 0 0.149 0.205c0.103 0.102 0.084 0.114 0.082 0.088 0-0.035 0.021 0.011-0.166 0.162-0.193 0.155-0.563 0.352-1.061 0.518-0.996 0.332-2.4963 0.546-4 0.546s-3.0039-0.214-4-0.546c-0.498-0.166-0.8684-0.363-1.0605-0.518-0.1878-0.151-0.167-0.197-0.1661-0.162-0.0025 0.02-0.0178 0.024 0.0371-0.041a0.7694 0.7694 0 0 0 0.1211 -0.197l4.5821-10.996z"/><path id="path836" style="color:#f1f2f2;stroke-width:.44633;fill:#f1f2f2" d="m4.9724 12c3.7428 3.1559 8.0038-2.2402 2-4 0.82343 1.162 2.4237 3.4418-2 4z"/><path id="path844" style="color:#f1f2f2;stroke-width:.69348;fill:#f1f2f2" d="m7.5 6c0.2774 0 0.5 0.2233 0.5 0.5a0.49931 0.49931 0 0 1 -0.4993 0.5 0.49931 0.49931 0 0 1 -0.5007 -0.4993c0-0.2774 0.2233-0.5007 0.5-0.5007z"/><path id="path846" style="color:#f1f2f2;stroke-width:.69348;fill:#f1f2f2" d="m5.5 9c0.2774 0 0.5 0.2233 0.5 0.5a0.49931 0.49931 0 0 1 -0.4993 0.5 0.49931 0.49931 0 0 1 -0.5007 -0.4993c0-0.2774 0.2233-0.5007 0.5-0.5007z"/><path id="path848" style="color:#f1f2f2;stroke-width:.69348;fill:#f1f2f2" d="m7.5 4c0.2774 0 0.5 0.2233 0.5 0.5a0.49931 0.49931 0 0 1 -0.4993 0.5 0.49931 0.49931 0 0 1 -0.5007 -0.4993c0-0.2774 0.2233-0.5007 0.5-0.5007z"/><path id="path850" style="color:#f1f2f2;stroke-width:.69348;fill:#f1f2f2" d="m11.5 12c0.27739 0 0.5 0.2233 0.5 0.5a0.49931 0.49931 0 0 1 -0.499 0.5 0.49931 0.49931 0 0 1 -0.501 -0.499c0-0.278 0.223-0.501 0.5-0.501z"/></svg>
