<?xml version="1.0" encoding="UTF-8" standalone="no"?>
<!--Part of Monotone: https://github.com/sixsixfive/Monotone, released under cc-by-sa_v4-->
<svg xmlns="http://www.w3.org/2000/svg" version="1.1" viewBox="0 0 16 16">
 <g fill="#f1f2f2">
  <path opacity=".5" d="m4 1v2h8v-2zm-2 3c-0.5 0-1 0.5-1 1v4c0 0.5 0.5 1 1 1h1v-2h5.125a3.66 3.66 0 0 1 2.531 -1.031 3.707 3.707 0 0 1 3.625 2.968c0.393-0.137 0.72-0.53 0.72-0.937v-4c0-0.5-0.5-1-1-1zm2 5v5h5.094a3.709 3.709 0 0 1 -2.125 -3.344c0-0.595 0.152-1.156 0.406-1.656z"/>
  <path style="text-decoration-line:none;text-transform:none;text-indent:0" font-family="Sans" d="m10.656 7.938a2.726 2.726 0 0 0 -2.718 2.718 2.726 2.726 0 0 0 2.718 2.719c0.488 0 0.948-0.148 1.344-0.375a0.75 0.75 0 0 0 0.156 0.219l1.844 1.811a0.751 0.751 0 1 0 1.063 -1.062l-1.844-1.813a0.75 0.75 0 0 0 -0.219 -0.155c0.227-0.396 0.375-0.857 0.375-1.344a2.726 2.726 0 0 0 -2.719 -2.719zm0 1c0.956 0 1.72 0.763 1.72 1.718s-0.764 1.719-1.72 1.719a1.711 1.711 0 0 1 -1.718 -1.719c0-0.955 0.763-1.719 1.718-1.719z" overflow="visible" font-weight="400"/>
 </g>
</svg>
