<!--Part of Monotone: https://github.com/sixsixfive/Monotone, released under cc-by-sa_v4-->
<svg xmlns="http://www.w3.org/2000/svg" viewBox="0 0 16 16">
    <path style="marker:none" d="M2.938 1c-.633.045-1.028.72-.938 1.313.003 4.25.021 8.5.031 12.75.057.624.693 1.026 1.281.937 3.253-.003 6.498-.021 9.75-.031.625-.057 1.027-.692.938-1.281-.004-3.256-.016-6.526-.031-9.782-.094-.598-.665-.913-1.031-1.343-.803-.79-1.555-1.606-2.376-2.375-.49-.304-1.11-.146-1.656-.188H2.937zM8 4h1c.31 0 .552.09.75.281L13.406 8 9.75 11.719c-.198.19-.44.281-.75.281H8v-1c0-.257.13-.528.313-.719L9.592 9H6.47C5.529 9 5 9.659 5 10.5c0 .43.165.823.438 1.094L4.28 13.219A3.452 3.452 0 0 1 2.97 10.5c0-1.92 1.578-3.5 3.5-3.5h3.125L8.313 5.719C8.13 5.529 8 5.257 8 5z" color="#f1f2f2" overflow="visible" fill="#f1f2f2" fill-rule="evenodd"/>
</svg>
