<!--Part of Monotone: https://github.com/sixsixfive/Monotone, released under cc-by-sa_v4-->
<svg xmlns="http://www.w3.org/2000/svg" viewBox="0 0 16 16">
    <path style="marker:none" d="M2.938 1c-.633.045-1.028.72-.938 1.312.003 4.25.021 8.5.031 12.75.057.625.693 1.027 1.281.938 3.253-.003 6.498-.021 9.75-.031.625-.057 1.027-.692.938-1.282-.004-3.256-.016-6.525-.031-9.78-.094-.6-.665-.915-1.031-1.345-.803-.789-1.555-1.605-2.376-2.375-.49-.303-1.11-.145-1.656-.187zM7 4h1v1c0 .257-.13.528-.313.719l-1.28 1.28H9.53c1.922 0 3.5 1.58 3.5 3.5a3.45 3.45 0 0 1-1.322 2.714l-1.145-1.631c.272-.271.436-.653.436-1.082 0-.841-.67-1.756-1.469-1.5H6.406l1.282 1.281c.182.19.312.462.312.719v1H7c-.31 0-.552-.09-.75-.281l-3.656-3.72L6.25 4.282C6.448 4.091 6.69 4 7 4z" color="#f1f2f2" overflow="visible" fill="#f1f2f2"/>
</svg>
