<!--Part of Monotone: https://github.com/sixsixfive/Monotone, released under cc-by-sa_v4-->
<svg xmlns="http://www.w3.org/2000/svg" viewBox="0 0 16 16">
    <g fill="#f1f2f2">
        <path style="line-height:normal;-inkscape-font-specification:Sans;text-indent:0;text-align:start;text-decoration-line:none;text-transform:none;marker:none" d="M4.406 9a.5.5 0 0 0-.312.219l-1 1.5a.5.5 0 1 0 .812.562l1-1.5a.5.5 0 0 0-.5-.781zm7 0a.5.5 0 0 0-.312.781l1 1.5a.5.5 0 1 0 .812-.562l-1-1.5a.5.5 0 0 0-.5-.219z" color="#f1f2f2" font-weight="400" font-family="Sans" overflow="visible"/>
        <g color="#000">
            <path style="line-height:normal;-inkscape-font-specification:'Bitstream Vera Sans';text-indent:0;text-align:start;text-decoration-line:none;text-transform:none;marker:none" d="M7 1v5.563L5.719 5.28A1.015 1.015 0 0 0 5 5H4v1c0 .265.093.53.281.719l3 3 .282.281h.875l.28-.281 3-3A1.01 1.01 0 0 0 12 6V5h-1c-.265 0-.53.093-.719.281L9 6.563V1z" font-weight="400" font-family="Bitstream Vera Sans" overflow="visible"/>
            <path style="marker:none" d="M3 11v4h10v-4zm3.344 1.438a.651.651 0 0 1 .062 0c.291-.056.6.203.594.5V13h2v-.063a.52.52 0 0 1 .5-.507.52.52 0 0 1 .5.507V13c0 .545-.455 1-1 1H7c-.545 0-1-.455-1-1v-.063a.515.515 0 0 1 .344-.5z" overflow="visible" fill-rule="evenodd"/>
        </g>
    </g>
</svg>
