<!--Part of Monotone: https://github.com/sixsixfive/Monotone, released under cc-by-sa_v4-->
<svg xmlns="http://www.w3.org/2000/svg" viewBox="0 0 16 16">
    <g fill="#f1f2f2">
        <path d="M4 5v1c0 .265.093.53.281.719l3 3 .282.281h.875l.28-.281 3-3A1.01 1.01 0 0 0 12 6V5h-1c-.265 0-.53.093-.719.281L8 7.563 5.719 5.28A1.015 1.015 0 0 0 5 5z" style="line-height:normal;-inkscape-font-specification:'Bitstream Vera Sans';text-indent:0;text-align:start;text-decoration-line:none;text-transform:none;marker:none" color="#000" font-weight="400" font-family="Bitstream Vera Sans" overflow="visible"/>
        <path d="M7 3v5h2V3z" style="line-height:normal;-inkscape-font-specification:Sans;text-indent:0;text-align:start;text-decoration-line:none;text-transform:none;marker:none" color="#000" font-weight="400" font-family="Sans" overflow="visible"/>
        <path d="M3 11v4h10v-4zm3.344 1.438a.651.651 0 0 1 .062 0c.291-.056.6.203.594.5V13h2v-.063a.52.52 0 0 1 .5-.507.52.52 0 0 1 .5.507V13c0 .545-.455 1-1 1H7c-.545 0-1-.455-1-1v-.063a.515.515 0 0 1 .344-.5z" style="marker:none" color="#000" overflow="visible" fill-rule="evenodd"/>
        <path d="M3 0c-.546 0-1 .455-1 1v2c0 .545.454 1 1 1h10c.545 0 1-.455 1-1V1c0-.545-.455-1-1-1zm0 1h10v2H3zm1.406 8a.5.5 0 0 0-.312.219l-1 1.5a.5.5 0 1 0 .812.562l1-1.5a.5.5 0 0 0-.5-.781zm7 0a.5.5 0 0 0-.312.781l1 1.5a.5.5 0 1 0 .812-.562l-1-1.5a.5.5 0 0 0-.5-.219z" style="line-height:normal;-inkscape-font-specification:Sans;text-indent:0;text-align:start;text-decoration-line:none;text-transform:none;marker:none" color="#f1f2f2" font-weight="400" font-family="Sans" overflow="visible"/>
    </g>
</svg>
