<?xml version="1.0" encoding="UTF-8" standalone="no"?>
<!--Part of Monotone: https://github.com/sixsixfive/Monotone, released under cc-by-sa_v4-->
<svg xmlns="http://www.w3.org/2000/svg" version="1.1" viewBox="0 0 16 16">
 <g font-weight="400" font-family="Sans" fill="#f1f2f2">
  <path style="text-decoration-line:none;text-transform:none;text-indent:0" d="m10.03 8.0386a3.264 3.1865 0 0 0 -0.994 -0.00293l0.976 1.687c0.2 0.34755-0.024 0.74488-0.45 0.98602l-0.77 0.43346c-0.43 0.2343-0.91 0.20306-1.11-0.14351l-0.976-1.6883a3.22 3.1435 0 0 0 -0.515 0.82786c-0.565 1.4361 0.237 2.8233 1.792 3.0996 0.325 0.0576 0.667 0.04393 0.994 0.0029 0.026-0.004 1.518 2.699 1.518 2.699l3.505 0.061-2.667-4.032c0.207-0.24992 0.37-0.53108 0.489-0.83079 0.565-1.4348-0.237-2.8231-1.792-3.0984z" overflow="visible" stroke-width=".98806"/>
  <path style="text-decoration-line:none;text-transform:none;text-indent:0" fill="#f1f2f2" d="m2.8125 0c-0.1139 0.0226-0.2229 0.0649-0.3223 0.125-0.0043 0.0026-0.0094 0.00316-0.0136 0.00586-0.0958 0.0588-0.181 0.1335-0.252 0.2207-0.0708 0.0877-0.1263 0.18677-0.1641 0.29297-0.0014 0.0041-0.0025 0.00772-0.0039 0.01172-0.0388 0.1104-0.058 0.22675-0.0566 0.34375v13c-0.0002 0.133 0.0264 0.266 0.0781 0.389 0.05 0.118 0.1223 0.225 0.2129 0.316 0.0013 0.001 0.0026 0.003 0.0039 0.004 0.089 0.088 0.1937 0.158 0.3086 0.207 0.0055 0.002 0.0102 0.006 0.0156 0.008 0.1208 0.05 0.2502 0.076 0.3809 0.076h1 3 1.793c-0.1496-0.268-0.2955-0.529-0.416-0.742-0.1942-0.002-0.3658 0.031-0.5743-0.006-0.289-0.051-0.5612-0.141-0.8203-0.252h-2.9824-0.4004c-0.3324 0-0.5996-0.267-0.5996-0.6v-6.8004c0-0.0353 0.0137-0.066 0.0195-0.0996-0.0058-0.0336-0.0195-0.0643-0.0195-0.0996v-1-2.8008-1c0-0.3324 0.2672-0.5996 0.5996-0.5996h0.4004 3 1.4004c0.3324 0 0.5996 0.2672 0.5996 0.5996v1 1.4004 0.5 0.0508h0.0098c0.0245 0.2343 0.2051 0.4149 0.4394 0.4394v0.0098h0.5508 3.4c0.333 0 0.6 0.2672 0.6 0.5996v7.8004c0 0.176-0.077 0.329-0.195 0.438l0.675 1.021c0.079-0.044 0.161-0.086 0.225-0.15l0.004-0.004c0.088-0.089 0.158-0.194 0.207-0.309 0.002-0.005 0.006-0.01 0.008-0.015 0.05-0.121 0.076-0.25 0.076-0.381v-9.4375c0.002-0.1309-0.021-0.2609-0.068-0.3828v-0.0039c-0.001-0.0014-0.002-0.0026-0.002-0.0039-0.048-0.1222-0.12-0.2337-0.211-0.3281l-3.563-3.5645c-0.095-0.0916-0.208-0.16334-0.332-0.21094-0.123-0.048201-0.254-0.07136-0.386-0.06836h-3.438-3-1c-0.0312-0.00147-0.0624-0.00147-0.0938 0-0.0312-0.00147-0.0625-0.00147-0.0937 0zm7.1875 1l3 3h-2c-1 0.0001-1 0-1-1v-2z"/>
 </g>
</svg>
