<?xml version="1.0" encoding="UTF-8"?>
<svg version="1.1" viewBox="0 0 16 16" xmlns="http://www.w3.org/2000/svg">
 <path d="m3.7715 5a0.73467 0.68476 0 0 0-0.2168 0.035156 0.73467 0.68476 0 0 0-0.55469 0.62891 0.73467 0.68476 0 0 0 0 0.068359 0.73467 0.68476 0 0 0 0.24805 0.48047l1.9141 1.7832-1.9141 1.7832a0.75794 0.70645 0 0 0-0.24805 0.46094v0.10547a0.75794 0.70645 0 0 0 1.3184 0.43164l2.4492-2.2832a0.73467 0.68476 0 0 0 0-0.99805l-2.4492-2.2812a0.73467 0.68476 0 0 0-0.52344-0.21484 0.73467 0.68476 0 0 0-0.023438 0zm4.2285 5v1h4v-1h-4z" fill="#f1f2f2"/>
 <path d="m2 2c-0.554 0-1 0.446-1 1v10c0 0.554 0.446 1 1 1h12c0.554 0 1-0.446 1-1v-10c0-0.554-0.446-1-1-1h-12zm0.5 1h11c0.277 0 0.5 0.223 0.5 0.5v9c0 0.277-0.223 0.5-0.5 0.5h-11c-0.277 0-0.5-0.223-0.5-0.5v-9c0-0.277 0.223-0.5 0.5-0.5z" color="#f1f2f2" fill="#f1f2f2"/>
</svg>
