<?xml version="1.0" encoding="UTF-8" standalone="no"?>
<!--Part of Monotone: https://github.com/sixsixfive/Monotone, released under cc-by-sa_v4-->
<svg id="svg10" xmlns="http://www.w3.org/2000/svg" version="1.1" viewBox="0 0 16 16"><g id="g8" fill="#f1f2f2"><path id="path2" style="text-decoration-line:none;text-transform:none;text-indent:0" font-family="Andale Mono" d="m2 8.003v1.031c0.011 0.255 0.129 0.51 0.313 0.688l5.218 5.281 0.969-0.003 5.219-5.278c0.188-0.188 0.281-0.453 0.281-0.719v-1h-1.707c-0.265 0-0.53 0.093-0.719 0.282l-3.556 3.844-0.003 0.14-0.018-0.14-3.584-3.844a0.909 0.909 0 0 0 -0.75 -0.282z" color="#f1f2f2" overflow="visible" font-weight="400"/><path id="path4" overflow="visible" d="m7.5 7h1c0.277 0 0.5 0.223 0.5 0.5v1c0 0.277-0.223 0.5-0.5 0.5h-1a0.499 0.499 0 0 1 -0.5 -0.5v-1c0-0.277 0.223-0.5 0.5-0.5z"/><path id="path6" style="isolation:auto;mix-blend-mode:normal" overflow="visible" d="m7.5 1h1c0.277 0 0.5 0.223 0.5 0.5v1c0 0.277-0.223 0.5-0.5 0.5h-1a0.499 0.499 0 0 1 -0.5 -0.5v-1c0-0.277 0.223-0.5 0.5-0.5zm0 3h1c0.277 0 0.5 0.2 0.5 0.45v1.1c0 0.25-0.223 0.45-0.5 0.45h-1c-0.277 0-0.5-0.2-0.5-0.45v-1.1c0-0.25 0.223-0.45 0.5-0.45z"/></g></svg>
