<?xml version="1.0" encoding="UTF-8" standalone="no"?>
<!--Part of Monotone: https://github.com/sixsixfive/Monotone, released under cc-by-sa_v4-->
<svg id="svg4" xmlns="http://www.w3.org/2000/svg" viewBox="0 0 16 16" version="1.1"><g id="use117961" style="fill:#f1f2f2"><title id="title4495">tool-pointer-16px</title><g id="use120709" style="fill:#f1f2f2" transform="translate(-.00765)"><title id="title4585">tool-node-editor-16px</title><g id="use142866" style="fill:#f1f2f2" transform="translate(.00765)"><title id="title4747">draw-freehand-16px</title><g id="use145663" style="fill:#f1f2f2" transform="translate(0 .00014283)"><title id="title4796">draw-path-16px</title><path id="path4800" style="fill:#f1f2f2" d="m9.0999 10.108-1.0563 3.0222c-0.2795 0.8208 0.8665 1.2595 1.1572 0.4085l1.1732-2.9992z"/><path id="path4802" style="fill:#f1f2f2" d="m8.4298 6.0485 0.50775 0.7917 3.7908 1.624 0.9989-0.3413l1.273-3.688c-1.5997 0-0.31991-4.0216-4.4792-4.0216z"/><path id="path4804" style="fill:#f1f2f2" d="m8.8929 7.7921-0.4677 1.3405 3.3333 1.273 0.4677-1.273z"/><path id="path4806" style="color-rendering:auto;text-decoration-color:#000000;color:#000000;font-variant-numeric:normal;text-orientation:mixed;shape-rendering:auto;font-variant-ligatures:normal;text-decoration-line:none;fill:#f1f2f2;font-variant-position:normal;mix-blend-mode:normal;font-feature-settings:normal;shape-padding:0;font-variant-alternates:normal;text-indent:0;dominant-baseline:auto;font-variant-caps:normal;image-rendering:auto;white-space:normal;text-decoration-style:solid;solid-color:#000000;isolation:auto;text-transform:none" d="m0.49609 0.98828 0.63091 0.79692s1.9142 2.4355 2.9727 4.957c0.52924 1.2608 0.82134 2.5336 0.62881 3.457-0.19253 0.92344-0.73746 1.5577-2.2896 1.8281l0.19428 0.98438c1.8503-0.322 2.8843-1.364 3.1461-2.62 0.2619-1.2563-0.1169-2.6653-0.6831-4.014-0.8467-2.0172-1.9267-3.5587-2.5382-4.3887h5.442v-1z"/><path id="path4808" style="fill:#f1f2f2" d="m1 12h3v3.0017h-3z"/><path id="path4810" style="color-rendering:auto;text-decoration-color:#000000;color:#000000;font-variant-numeric:normal;text-orientation:mixed;shape-rendering:auto;font-variant-ligatures:normal;text-decoration-line:none;fill:#f1f2f2;font-variant-position:normal;mix-blend-mode:normal;font-feature-settings:normal;shape-padding:0;font-variant-alternates:normal;text-indent:0;dominant-baseline:auto;font-variant-caps:normal;image-rendering:auto;white-space:normal;text-decoration-style:solid;solid-color:#000000;isolation:auto;text-transform:none" d="m1.5 13.051v0.89844h5.5v-0.89844z"/><rect id="rect4812" style="fill:#f1f2f2" height="3" width="3" y="0" x="0"/></g></g></g></g></svg>
