<?xml version="1.0" encoding="UTF-8" standalone="no"?>
<!--Part of Monotone: https://github.com/sixsixfive/Monotone, released under cc-by-sa_v4-->
<svg id="svg8" xmlns="http://www.w3.org/2000/svg" version="1.1" viewBox="0 0 16 16"><g id="use68262" style="fill:#f1f2f2"><title id="title4506">object-rotate-right</title><path id="path4748" style="opacity:.8;fill:#f1f2f2" d="m11.156 1c-0.079 0.0161-0.159 0.0696-0.218 0.125l-4.2812 4 4.0312 4.3437 4.1562-3.875c0.23699-0.2214 0.17839-0.6828-0.125-1.0312l-2.781-3.2188c-0.228-0.2613-0.545-0.392-0.782-0.3437z"/><path id="path4750" style="fill:#f1f2f2" d="m5.5 6.2187-2.3438 2.1875c-0.2369 0.2215-0.2096 0.6829 0.0938 1.0313l2.8125 3.2187c0.30339 0.3485 0.73176 0.4402 0.96875 0.2188l2.4688-2.313z"/><path id="path4752" style="fill:#f1f2f2" d="m8.7 14c-0.3878 0-0.7 0.223-0.7 0.5s0.3122 0.5 0.7 0.5h6.3v-1h-4.9z"/><path id="path4754" style="fill:#f1f2f2" d="m3.3 14c0.3878 0 0.7 0.223 0.7 0.5s-0.3122 0.5-0.7 0.5h-2.3v-1h2.3z"/></g></svg>
