<?xml version="1.0" encoding="UTF-8" standalone="no"?>
<!--Part of Monotone: https://github.com/sixsixfive/Monotone, released under cc-by-sa_v4-->
<svg id="svg8" xmlns="http://www.w3.org/2000/svg" viewBox="0 0 16 16" version="1.1"><path id="path4505" style="fill:#f1f2f2" d="m15.745 3.8584-0.74494 0.92239-3.3437-3.5938 1.125-1.2187m-1.7812 1.9374 1.3437 1.4375 0.65622 0.7188 1.3437 1.4375-0.68752 0.7188c-0.666 0.7177-0.646 0.7205-1.312 2.8749-2.6666 2.8718-5.344 2.8748-5.344 2.8748l-0.65622 0.7187s-0.67719 0.71789-1.3438 0l4-4.3125 0.06248-0.093664c0.52751 0.27708 1.1555 0.19014 1.5938-0.28119 0.55232-0.59491 0.55192-1.5623 0-2.1563-0.55192-0.59401-1.4476-0.59481-2.0001 0-0.43809 0.47153-0.50746 1.182-0.24993 1.75l-0.06248 0.062543-4 4.3125c-0.66655-0.71789 0-1.4375 0-1.4375l0.6562-0.718s-0.01023-2.8785 2.6563-5.75c2.0001-0.7187 2.0209-0.7196 2.6875-1.4375z"/><path id="path4507" style="fill:#f1f2f2" d="m0.000217 0.63703v0.3351c3.6611 1.4659 0 9.0352 0 12.047 0 6.1329 4.0508 1.0039 4.0508 1.0039v-1.0039s-1.8291 3.0867-2.3718-0.26393c-0.90944-5.6142 6.7871-12.118-1.679-12.118z"/></svg>
