<?xml version="1.0" encoding="UTF-8" standalone="no"?>
<!--Part of Monotone: https://github.com/sixsixfive/Monotone, released under cc-by-sa_v4-->
<svg xmlns="http://www.w3.org/2000/svg" version="1.1" viewBox="0 0 16 16">
 <path d="m3.5 1c-1.3819-0.00277-2.5028 1.1181-2.5 2.5v5.5117c0.0195-0.0023 0.0365-0.0117 0.0566-0.0117h13.943v-5.5c0-1.385-1.115-2.5-2.5-2.5h-9zm4.5 2c0.134-0.0037 0.2633 0.0471 0.3594 0.1406l2.4996 2c0.079 0.0806 0.129 0.185 0.141 0.2969v0.5625h-6v-0.5625c0.0124-0.1119 0.062-0.2163 0.1406-0.2969l2.5-2c0.096-0.0934 0.2255-0.1442 0.3594-0.1406zm-3 4h6v1h-6v-1zm-4 2.9883v1.5117c0 1.385 1.115 2.5 2.5 2.5h9c1.385 0 2.5-1.115 2.5-2.5v-1.5h-13.943c-0.0205 0-0.0375-0.0094-0.057-0.0117z" fill="#f1f2f2"/>
</svg>
