<?xml version="1.0" encoding="UTF-8" standalone="no"?>
<!--Part of Monotone: https://github.com/sixsixfive/Monotone, released under cc-by-sa_v4-->
<svg xmlns="http://www.w3.org/2000/svg" version="1.1" xml:space="preserve" enable-background="new 0 0 256 256" y="0px" x="0px" viewBox="0 0 16 16"><path style="block-progression:tb;color:#000000;enable-background:accumulate;text-transform:none;text-indent:0" d="m4.9043 0.25781c-0.1799-0.00533-0.3595 0.01275-0.5293 0.05469-0.3397 0.08387-0.6496 0.27717-0.9062 0.53125l-0.8438 0.81245c-0.3416 0.3385-0.8769 0.8804-1.2188 1.2188l-0.8437 0.8438c-0.51323 0.5084-0.69127 1.2498-0.46875 1.9374l0.73242 2.3516c-0.84003 1.6627-0.91081 3.2672-0.51367 4.3982 0.16432 0.468 0.41786 0.878 0.75 1.156 0.3321 0.279 0.7754 0.433 1.2187 0.344 0.7599-0.152 1.3386-0.882 1.7813-2.078l0.7637 0.736c0.0558 0.305 0.109 0.609 0.1816 0.909 0.1702 0.703 0.658 0.984 1.3906 0.931 0.0984-0.007 0.1944-0.031 0.293-0.043l1.2774 1.233c0.5409 0.525 1.4021 0.531 1.9374 0l2.2498-2.219c0.174-0.172 0.406-0.405 0.637-0.637 0.048-0.013 0.096-0.026 0.145-0.039 0.056-0.015 0.106-0.051 0.177-0.088-0.004-0.06-0.007-0.123-0.011-0.183 0.102-0.103 0.219-0.221 0.302-0.303l2.25-2.2188c0.432-0.4278 0.426-1.0487 0.156-1.5624a0.50005 0.50005 0 0 0 -0.031 -0.0938 0.50005 0.50005 0 0 0 -0.093 -0.2188c-0.017-0.0181-0.014-0.045-0.032-0.0624l-0.031-0.0313a0.50005 0.50005 0 0 0 -0.094 -0.0625l-3.203-3.1211c-0.033-0.1931-0.057-0.3886-0.096-0.5801-0.22-1.0785-0.763-1.4475-1.783-1.248l-0.8865-0.8633c-0.4363-0.4235-1.1035-0.7937-1.6875-0.9687l-2.4375-0.75005c-0.173-0.05184-0.3533-0.0806-0.5332-0.08594zm0.0254 1.0352c0.0886-0.004 0.1672 0.0017 0.2265 0.0195l2.4376 0.7187c0.3451 0.1035 1.0271 0.5034 1.2812 0.75l0.4414 0.4297c-1.2735 0.3316-2.5417 0.6819-3.8008 1.0606-0.0811-0.633-0.6104-1.1153-1.2656-1.1153-0.7121 0-1.3125 0.5673-1.3125 1.2813 0 0.2549 0.0958 0.4774 0.2266 0.6758-0.6648 0.5665-1.2079 1.154-1.6407 1.748l-0.4922-1.5175c-0.07119-0.2202 0.0486-0.7377 0.2188-0.9063l0.8438-0.8437c0.3419-0.3386 0.9081-0.8801 1.25-1.2188l0.8437-0.8438c0.1278-0.1265 0.4763-0.2262 0.7422-0.2382zm-0.6797 2.8632c0.1822 0 0.2812 0.1186 0.2812 0.2813 0 0.1628-0.099 0.2813-0.2812 0.2813-0.1823 0-0.3125-0.1185-0.3125-0.2813 0-0.1627 0.1302-0.2813 0.3125-0.2813zm5.0527 1.2051c0.1371-0.0011 0.2189 0.0756 0.2422 0.2657 0.0643 0.5254 0.1568 1.0473 0.1934 1.5742 0.0096 0.1372-0.1173 0.3776-0.2324 0.414-0.7535 0.2393-1.5211 0.4346-2.3399 0.6602-0.0905-0.6863-0.1927-1.3008-0.2363-1.9199-0.0098-0.1381 0.157-0.3762 0.293-0.4219 0.6316-0.2104 1.2824-0.3648 1.9238-0.5469 0.0579-0.0164 0.1105-0.025 0.1562-0.0254zm-5.2949 0.334c-0.0443 0.2384-0.0509 0.5057-0.0195 0.8067 0.1529 1.4703 0.3606 2.9345 0.5683 4.398 0.0012 0.009 0.0027 0.017 0.0039 0.026l-1.998-1.926c-0.1993-0.1934-0.4472-0.6196-0.6113-0.9668 0.4573-0.7801 1.1181-1.5766 2.0566-2.3379zm8.5312 0.6563l2.399 2.3359c0.149 0.1454 0.179 0.3532 0.031 0.5l-1.957 1.9295c-0.016-0.227-0.031-0.443-0.047-0.678-0.229 0.063-0.395 0.109-0.561 0.155-1.408 0.388-2.819 0.766-4.2224 1.17-0.4029 0.116-0.5599-0.007-0.5918-0.393-0.0309-0.371-0.0845-0.74-0.1367-1.18 0.2145-0.059 0.396-0.108 0.5762-0.16 1.082-0.3136 2.1727-0.601 3.2417-0.9509 0.982-0.3209 1.407-0.8952 1.344-1.9004-0.017-0.2759-0.05-0.552-0.076-0.8281zm-11.131 2.8007c0.1462 0.2091 0.3024 0.4069 0.4668 0.5665l1.416 1.3652c-0.4088 1.295-0.9443 1.772-1.1972 1.822-0.1319 0.027-0.2556 0.001-0.4063-0.125s-0.3188-0.349-0.4375-0.687c-0.2414-0.688-0.26876-1.751 0.1582-2.9417zm9.4338 4.1227l-1.6232 1.6c-0.1481 0.147-0.4129 0.145-0.5626 0l-0.8085-0.779c0.9982-0.272 1.9965-0.546 2.9943-0.821z" fill="#f1f2f2"/></svg>
