<?xml version="1.0" encoding="UTF-8" standalone="no"?>
<!--Part of Monotone: https://github.com/sixsixfive/Monotone, released under cc-by-sa_v4-->
<svg xmlns="http://www.w3.org/2000/svg" viewBox="0 0 16 16" version="1.1">
 <g fill="#f1f2f2">
  <ellipse opacity=".1" rx="4.5" ry="4.5104" cy="8.5" cx="6.4648"/>
  <path d="m6.5 3a5.5 5.5 0 0 0 -5.5 5.5 5.5 5.5 0 0 0 5.5 5.5 5.5 5.5 0 0 0 4.898 -3h-1.119c-0.166 0.254-0.357 0.492-0.572 0.707-0.8394 0.839-2.0199 1.328-3.207 1.328s-2.3676-0.489-3.207-1.328-1.3282-2.0199-1.3282-3.207 0.4888-2.3676 1.3282-3.207 2.0199-1.3282 3.207-1.3282 2.3676 0.4888 3.207 1.3282c0.215 0.215 0.406 0.4529 0.572 0.707h1.114a5.5 5.5 0 0 0 -4.893 -3zm4.258 4c0.114 0.3243 0.187 0.6586 0.226 1h0.991a5.5 5.5 0 0 0 -0.19 -1h-1.027zm0.226 2c-0.039 0.3414-0.112 0.6757-0.226 1h1.031a5.5 5.5 0 0 0 0.184 -1h-0.989z"/>
  <path d="m9.5 3a5.5 5.5 0 0 0 -4.8926 3h9.7906a5.5 5.5 0 0 0 -4.898 -3zm-5.2852 4a5.5 5.5 0 0 0 -0.1894 1h10.948a5.5 5.5 0 0 0 -0.184 -1h-10.574zm-0.1875 2a5.5 5.5 0 0 0 0.1836 1h10.574a5.5 5.5 0 0 0 0.19 -1h-10.948zm0.5743 2a5.5 5.5 0 0 0 4.8984 3 5.5 5.5 0 0 0 4.893 -3h-9.7914z"/>
 </g>
</svg>
