<?xml version="1.0" encoding="UTF-8"?>
<!--Part of Monotone: https://github.com/sixsixfive/Monotone, released under cc-by-sa_v4-->
<svg version="1.1" viewBox="0 0 16 16" xmlns="http://www.w3.org/2000/svg">
<path d="m1 15c0.42161-3-1.0352-13.374 4.1732-14.009 0.49274-8.1e-4 0.53253 0.0322 0.37727 0.3128-0.1625 0.29369-0.63866 1.7547-0.5011 1.7547 0.034386 0 0.39279-0.14063 0.79645-0.31252 1.2955-0.55166 4.1589-1.8054 6.1542-1.7455 1.0078 0.0302 1.8951 0.11624 1.9717 0.19117 0.07661 0.0749-0.35186 0.58678-0.95215 1.1374-1.1076 1.0161-3.5484 2.5584-4.922 2.9513l-1.1067 0.75107c0.4728-0.17613 0.94559-0.30286 1.4184-0.068674 0.56559 0.26256 1.3219 0.76136 1.6808 1.1084 0.44947 0.43474 0.83843 0.94308 1.164 0.94308 1.4872 0 2.8779 0.57391 3.4202 1.8317 0.51669 1.1982 0.24615 3.2272-0.54284 4.0711-0.97913 1.0473-3.2741 1.2929-4.9883 0.53379-0.52597-0.23291-1.1736-0.42347-1.4391-0.42347-0.42462 0-0.7692 0.06736-0.68305 0.48654v0.48655h-3.1479-2.8731zm10.883-5.3068c-0.35621-0.85989-1.1706-0.73028-1.6703-0.39051-0.16348 0.42374 0.01477 0.83188 1.0587 0.83188 1.0214 0 0.91189-0.12001 0.61153-0.44137zm-3.9246-0.91219c-1.2837-0.74323-0.031966-1.6412 0.041654-1.781-1.3223-0.3947-2.4788 0.32171-1.766 1.61 0.29733 0.53738 1.7243 0.61402 1.7243 0.17102z" style="fill:#f1f2f2;stroke-width:.1649"/>
</svg>
