<?xml version="1.0" encoding="UTF-8" standalone="no"?>
<!--Part of Monotone: https://github.com/sixsixfive/Monotone, released under cc-by-sa_v4-->
<svg id="svg8" xmlns="http://www.w3.org/2000/svg" version="1.1" viewBox="0 0 16 16"><g id="g6" fill="#f1f2f2"><path id="path2" d="m7 7v3.4766l1 0.523v-3h4c0.554 0 1 0.446 1 1v1c0 0.18637-0.06427 0.35094-0.15234 0.5 0.088 0.149 0.152 0.314 0.152 0.5v1c0 0.554-0.446 1-1 1h-3c0 1 0.00132 0.5818 0 1h3l1.99-2.018-0.019-4.982zm3 2v1h1.5c0.277 0 0.5-0.223 0.5-0.5s-0.223-0.5-0.5-0.5zm0 2v1h1.5c0.277 0 0.5-0.223 0.5-0.5s-0.223-0.5-0.5-0.5z"/><path id="path4" d="m2 2v7.9688l4 0.0312v-3h-1v2h-2l1-6h3l0.5 3h1.5l-0.0312-4zm3 2v2h1v-2z"/></g><path id="path9756" style="fill-rule:evenodd;fill:#f1f2f2" d="m6 11v1h-2c-0.4458 0-0.7928-0.129-0.9316-1h-1.0684c0.20691 2.7523 1.3305 3 2.5488 3h1.4512l0.0254 1 1.9746-1v-2z"/></svg>
