<!--Part of Monotone: https://github.com/sixsixfive/Monotone, released under cc-by-sa_v4-->
<svg xmlns="http://www.w3.org/2000/svg" viewBox="0 0 16 16">
    <g font-weight="400" fill="#f1f2f2">
        <path style="line-height:normal;-inkscape-font-specification:Sans;text-indent:0;text-align:start;text-decoration-line:none;text-transform:none;marker:none" d="M5.5 6A3.515 3.515 0 0 0 2 9.5C2 11.421 3.579 13 5.5 13H6v-2h-.5C4.66 11 4 10.34 4 9.5S4.66 8 5.5 8H12V6z" color="#000" font-family="Sans" overflow="visible"/>
        <path style="line-height:normal;-inkscape-font-specification:'Bitstream Vera Sans';text-indent:0;text-align:start;text-decoration-line:none;text-transform:none;marker:none" d="M9 3v1c0 .257.13.528.313.719L11.593 7l-2.28 2.281C9.13 9.471 9 9.743 9 10v1h1c.31 0 .552-.09.75-.281L14.406 7 10.75 3.281C10.552 3.091 10.31 3 10 3z" color="#f1f2f2" font-family="Bitstream Vera Sans" overflow="visible"/>
    </g>
</svg>
