<!--Part of Monotone: https://github.com/sixsixfive/Monotone, released under cc-by-sa_v4-->
<svg xmlns="http://www.w3.org/2000/svg" viewBox="0 0 16 16">
    <path style="line-height:normal;-inkscape-font-specification:'Bitstream Vera Sans';text-indent:0;text-align:start;text-decoration-line:none;text-transform:none;marker:none" d="M2 5v1c0 .257.13.528.312.719L3.594 8 2.312 9.281C2.13 9.471 2 9.743 2 10v1h1c.31 0 .552-.09.75-.281L6.406 8 3.75 5.281C3.552 5.091 3.31 5 3 5zm12 0v1c0 .257-.13.528-.312.719L12.406 8l1.282 1.281c.182.19.312.462.312.719v1h-1c-.31 0-.552-.09-.75-.281L9.594 8l2.656-2.719c.198-.19.44-.281.75-.281z" overflow="visible" color="#f1f2f2" font-weight="400" font-family="Bitstream Vera Sans" fill="#f1f2f2"/>
</svg>
