<?xml version="1.0" encoding="UTF-8"?>
<!--Part of Monotone: https://github.com/sixsixfive/Monotone, released under cc-by-sa_v4-->
<svg version="1.1" viewBox="0 0 16 16" xmlns="http://www.w3.org/2000/svg">
<path d="m4 0c-2 0-2 2-2 2h-2v2h15v-2h-2c0-2-2-2-2-2h-7zm0 1h7v1h-7v-1zm-3 4v9s0 2 2 2h4v-2h-4v-9h-2zm11 0v2h2v-2h-2zm-7 1v6h1v-6h-1zm2 0v1.5c0-0.277 0.223-0.5 0.5-0.5h0.5v-1h-1zm2 0v1h1v-1h-1z" style="fill:#f1f2f2;opacity:.5"/>
<path d="m8.875 8c-0.492 0-0.875 0.383-0.875 0.875v6.25a0.863 0.863 0 0 0 0.875 0.875h6.25a0.863 0.863 0 0 0 0.875-0.875v-6.25a0.863 0.863 0 0 0-0.875-0.875zm2.5703 0.99609h0.55469v0.625c0 0.16075-0.07227 0.33038-0.17383 0.44922l-0.82422 0.92969h1.998c1.108 0 2 0.892 2 2v1.5c0 0.277-0.223 0.5-0.5 0.5s-0.5-0.223-0.5-0.5v-1.5c0-0.57086-0.42914-1-1-1h-1.9941l0.82031 0.92383c0.10155 0.11884 0.17383 0.2898 0.17383 0.45117v0.625h-0.55469c-0.17203 0-0.30614-0.05632-0.41602-0.17578l-2.0293-2.3262 2.0293-2.3262c0.10988-0.11884 0.24398-0.17578 0.41602-0.17578z" style="fill:#f1f2f2"/>
</svg>
