<?xml version="1.0" encoding="UTF-8"?>
<svg version="1.1" viewBox="0 0 16 16" xmlns="http://www.w3.org/2000/svg">
<path d="m1 1h1v1h-1zm2 0h1v1h-1zm2 0h1v1h-1zm2 0h1v1h-1zm2 0h1v1h-1zm2 0h1v1h-1zm2 0h1v1h-1zm0 2h1v1h-1zm0 2h1v1h-1zm0 2h1v1h-1zm0 2h1v1h-1zm0 2h1v1h-1zm0 2h1v1h-1zm-2 0h1v1h-1zm-2 0h1v1h-1zm-2 0h1v1h-1zm-2 0h1v1h-1zm-2 0h1v1h-1zm-2 0h1v1h-1zm0-2h1v1h-1zm0-2h1v1h-1zm0-2h1v1h-1zm0-2h1v1h-1zm0-2h1v1h-1z" overflow="visible" style="color:#000000;fill:#f1f2f2;isolation:auto;mix-blend-mode:normal"/>
<path d="m4 11 1-2h6l-1 2z" style="fill:#f1f2f2;stroke-width:.77778"/>
<path d="m4 8 1-2h6l-1 2z" style="fill:#f1f2f2;stroke-width:.77778"/>
<path d="m4 5 1-2h6l-1 2z" style="fill:#f1f2f2;stroke-width:.77778"/>
</svg>
