<?xml version="1.0" encoding="UTF-8"?>
<svg version="1.1" viewBox="0 0 16 16" xmlns="http://www.w3.org/2000/svg">
<g fill="#f1f2f2" font-weight="400">
<path d="m11 5.001v1c0 0.257 0.118 0.528 0.284 0.719l1.163 1.28-1.163 1.282a1.145 1.145 0 0 0-0.284 0.719v1h0.908c0.28 0 0.501-0.09 0.68-0.281l2.412-2.72-2.411-2.718a0.88 0.88 0 0 0-0.681-0.281z" overflow="visible" style="color:#f1f2f2;fill:#f1f2f2;text-decoration-line:none;text-indent:0;text-transform:none"/>
<rect transform="scale(-1,1)" x="-5" y="3" width="4" height="2" ry="2.7756e-17" style="fill:#f1f2f2;paint-order:markers fill stroke"/>
<rect transform="scale(-1,1)" x="-5" y="11" width="4" height="2" ry="2.7756e-17" style="fill:#f1f2f2;paint-order:markers fill stroke"/>
<path d="m5 3c1 0 1 0 5 4h3v2h-3c-4 4-4 4-5 4l-1-2c1 0 1 0 4-3-3-3-3-3-4-3z" style="fill:#f1f2f2"/>
</g>
</svg>
