<?xml version="1.0" encoding="UTF-8"?>
<!--Part of Monotone: https://github.com/sixsixfive/Monotone, released under cc-by-sa_v4-->
<svg version="1.1" viewBox="0 0 16 16" xmlns="http://www.w3.org/2000/svg">
<path d="m3.8125 1c-0.1139 0.0226-0.22287 0.0649-0.32227 0.125-0.0043 0.0026-0.00947 0.00316-0.013672 0.00586-0.0958 0.0588-0.18095 0.1335-0.25195 0.2207-0.0708 0.0877-0.12626 0.18677-0.16406 0.29297-0.0014 0.0041-0.00251 0.00772-0.00391 0.011719-0.038796 0.1104-0.058037 0.22675-0.056637 0.34375v8h1v-2.4004c0-0.0353 0.013731-0.066009 0.019531-0.099609-0.0057999-0.0336 0.0054297-0.074648-0.019531-0.099609v-4.8008c0-0.25357 0.1652-0.59961 0.59961-0.59961h2.8008c0.3324 0 0.59961 0.26721 0.59961 0.59961v2.9512h0.00977c0.0245 0.2343 0.20515 0.41495 0.43945 0.43945v0.0097656h3.9512c0.333 0 0.59961 0.26721 0.59961 0.59961v3.4004h1v-4.4375c2e-3 -0.1309-0.02136-0.26091-0.06836-0.38281v-0.00391c-1e-3 -0.0014-2e-3 -0.00261-2e-3 -0.00391-0.047953-0.12219-0.11989-0.23372-0.21089-0.32812l-3.5625-3.5645c-0.095-0.0916-0.20843-0.16334-0.33203-0.21094-0.1231-0.0482-0.25452-0.071359-0.38672-0.068359h-5.4375c-0.0312-0.00147-0.06235-0.00147-0.09375 0-0.0312-0.00147-0.06255-0.00147-0.09375 0zm5.1875 1 3 3h-2c-1 1e-4 -1 0-1-1z" style="fill:#f1f2f2;text-decoration-line:none;text-indent:0;text-transform:none"/>
<path d="m0.5 8c-0.277 0-0.5 0.223-0.5 0.5v2c0 0.277 0.223 0.5 0.5 0.5h15c0.277 0 0.5-0.223 0.5-0.5v-2c0-0.277-0.223-0.5-0.5-0.5h-15zm1 1a0.5 0.5 0 0 1 0.5 0.5 0.5 0.5 0 0 1-0.5 0.5 0.5 0.5 0 0 1-0.5-0.5 0.5 0.5 0 0 1 0.5-0.5z" style="fill:#f1f2f2"/>
<rect y="7" width="1" height="3" ry=".5" style="fill:#f1f2f2"/>
<rect x="15" y="7" width="1" height="3" ry=".5" style="fill:#f1f2f2"/>
<rect x="3" y="11" width="1" height="3" style="fill:#f1f2f2"/>
<rect x="5" y="11" width="1" height="4" style="fill:#f1f2f2"/>
<rect x="7" y="11" width="1" height="3" style="fill:#f1f2f2"/>
<rect x="9" y="11" width="1" height="4" style="fill:#f1f2f2"/>
<rect x="11" y="11" width="1" height="3" style="fill:#f1f2f2"/>
<rect x="13" y="11" width="1" height="4" style="fill:#f1f2f2"/>
</svg>
