<?xml version="1.0" encoding="UTF-8" standalone="no"?>
<svg
   xmlns:dc="http://purl.org/dc/elements/1.1/"
   xmlns:cc="http://creativecommons.org/ns#"
   xmlns:rdf="http://www.w3.org/1999/02/22-rdf-syntax-ns#"
   xmlns:svg="http://www.w3.org/2000/svg"
   xmlns="http://www.w3.org/2000/svg"
   id="svg4"
   version="1.1"
   viewBox="0 0 16 16">
  <metadata
     id="metadata10">
    <rdf:RDF>
      <cc:Work
         rdf:about="">
        <dc:format>image/svg+xml</dc:format>
        <dc:type
           rdf:resource="http://purl.org/dc/dcmitype/StillImage" />
        <dc:title></dc:title>
      </cc:Work>
    </rdf:RDF>
  </metadata>
  <defs
     id="defs8" />
  <path
     id="path2"
     overflow="visible"
     style="color:#000000;overflow:visible;isolation:auto;mix-blend-mode:normal;fill:#f1f2f2;marker:none;opacity:0.5"
     d="M 1,1 H 2 V 2 H 1 Z M 3,1 H 4 V 2 H 3 Z M 5,1 H 6 V 2 H 5 Z M 7,1 H 8 V 2 H 7 Z m 2,0 h 1 V 2 H 9 Z m 2,0 h 1 v 1 h -1 z m 2,0 h 1 v 1 h -1 z m 0,2 h 1 v 1 h -1 z m 0,2 h 1 v 1 h -1 z m 0,2 h 1 v 1 h -1 z m 0,2 h 1 v 1 h -1 z m 0,2 h 1 v 1 h -1 z m 0,2 h 1 v 1 h -1 z m -2,0 h 1 v 1 h -1 z m -2,0 h 1 v 1 H 9 Z m -2,0 h 1 v 1 H 7 Z m -2,0 h 1 v 1 H 5 Z m -2,0 h 1 v 1 H 3 Z m -2,0 h 1 v 1 H 1 Z m 0,-2 h 1 v 1 H 1 Z M 1,9 h 1 v 1 H 1 Z M 1,7 H 2 V 8 H 1 Z M 1,5 H 2 V 6 H 1 Z M 1,3 H 2 V 4 H 1 Z" />
  <path
     id="path72"
     overflow="visible"
     d="M 3.0005525,3.000125 H 4.1603563 C 4.4472137,3.0125 4.7340711,3.145248 4.9343088,3.3522451 L 7.5002763,5.9160845 10.102242,3.3511201 C 10.400348,3.0912487 10.603961,3.0068749 10.875069,2.999 H 12 v 1.1249844 c 0,0.3217455 -0.03825,0.6187414 -0.281233,0.8437383 L 9.1527998,7.534937 11.683894,10.066152 C 11.895381,10.277649 12,10.576895 12,10.875016 V 12 h -1.124931 c -0.298107,0 -0.596213,-0.104624 -0.808825,-0.316121 L 7.5002763,9.11779 4.9343088,11.682754 A 1.1418049,1.1418591 0 0 1 4.1254834,12 H 3.0005525 v -1.124984 c 0,-0.298121 0.1046186,-0.596242 0.3161056,-0.808864 L 5.8837505,7.534937 3.3155332,4.9688476 A 1.0225622,1.0226108 0 0 1 3.0005525,4.1251094 Z"
     font-weight="400"
     style="color:#f1f2f2;font-weight:400;font-family:'Andale Mono';text-indent:0;text-decoration:none;text-decoration-line:none;text-transform:none;overflow:visible;fill:#f1f2f2;stroke-width:1.12495768" />
</svg>
