<?xml version="1.0" encoding="UTF-8" standalone="no"?>
<svg
   xmlns:dc="http://purl.org/dc/elements/1.1/"
   xmlns:cc="http://creativecommons.org/ns#"
   xmlns:rdf="http://www.w3.org/1999/02/22-rdf-syntax-ns#"
   xmlns:svg="http://www.w3.org/2000/svg"
   xmlns="http://www.w3.org/2000/svg"
   id="svg4"
   version="1.1"
   viewBox="0 0 16 16">
  <metadata
     id="metadata10">
    <rdf:RDF>
      <cc:Work
         rdf:about="">
        <dc:format>image/svg+xml</dc:format>
        <dc:type
           rdf:resource="http://purl.org/dc/dcmitype/StillImage" />
        <dc:title></dc:title>
      </cc:Work>
    </rdf:RDF>
  </metadata>
  <defs
     id="defs8" />
  <path
     id="path16"
     d="M 5.9667969,2.9511719 C 5.7250341,2.9617262 5.5032145,3.0882724 5.3710938,3.2910156 L 3.2695312,6.5136719 2.7207031,4.59375 C 2.5545817,4.0154075 1.8093075,3.8582714 1.4238281,4.3203125 L 0.42382812,5.5195312 C -0.21688343,6.2877679 0.93546035,7.2487055 1.5761719,6.4804688 L 1.6679688,6.3691406 2.2792969,8.5058594 C 2.3511645,8.7563025 2.5478497,8.9515089 2.7988281,9.0214844 2.8660629,9.014418 2.9311357,9 3,9 H 3.265625 C 3.4145154,8.9439733 3.5417371,8.8420592 3.6289062,8.7089844 L 5.6484375,5.6113281 6.2675781,8.4589844 c 0.133526,0.6172012 0.9233875,0.8032574 1.3183594,0.3105468 L 8.8964844,7.1308594 9.5898438,8.3417969 C 9.9759535,7.9315128 10.298487,7.4864369 10.560547,7.0214844 L 9.6503906,5.4277344 C 9.3873216,4.9688058 8.7446249,4.9190552 8.4140625,5.3320312 L 7.3984375,6.6015625 6.7324219,3.5410156 C 6.6547771,3.1842709 6.3315462,2.9352511 5.9667969,2.9511719 Z"
     style="color:#000000;font-style:normal;font-variant:normal;font-weight:normal;font-stretch:normal;font-size:medium;line-height:normal;font-family:sans-serif;font-variant-ligatures:normal;font-variant-position:normal;font-variant-caps:normal;font-variant-numeric:normal;font-variant-alternates:normal;font-feature-settings:normal;text-indent:0;text-align:start;text-decoration:none;text-decoration-line:none;text-decoration-style:solid;text-decoration-color:#000000;letter-spacing:normal;word-spacing:normal;text-transform:none;writing-mode:lr-tb;direction:ltr;text-orientation:mixed;dominant-baseline:auto;baseline-shift:baseline;text-anchor:start;white-space:normal;shape-padding:0;clip-rule:nonzero;display:inline;overflow:visible;visibility:visible;opacity:0.5;isolation:auto;mix-blend-mode:normal;color-interpolation:sRGB;color-interpolation-filters:linearRGB;solid-color:#000000;solid-opacity:1;vector-effect:none;fill:#f1f2f2;fill-opacity:1;fill-rule:nonzero;stroke:none;stroke-width:1.5;stroke-linecap:round;stroke-linejoin:round;stroke-miterlimit:4;stroke-dasharray:none;stroke-dashoffset:0;stroke-opacity:1;color-rendering:auto;image-rendering:auto;shape-rendering:auto;text-rendering:auto;enable-background:accumulate" />
  <path
     style="fill:#f1f2f2"
     id="path2"
     d="m 15,1 c 0.534,0 0.97,0.427 0.97,0.97 V 2.032 C 16,10 11,15 3.001,15 H 2.969 C 2.424,15 2,14.554 2,14 v -3 c 0,-0.554 0.446,-1 1,-1 h 2 c 0.554,0 1,0.446 1,1 v 0.47 C 9,11 12,8 12.438,5 h -0.469 c -0.554,0 -1,-0.446 -1,-1 V 2 c 0,-0.554 0.446,-1 1,-1 z" />
</svg>
