<?xml version="1.0" encoding="UTF-8"?>
<svg version="1.1" viewBox="0 0 16 16" xmlns="http://www.w3.org/2000/svg"><path d="m2 3c-1.108 0-2 0.892-2 2v9h1.1387c0.44369-1.7263 1.9928-3 3.8613-3h6c1.8686 0 3.4176 1.2737 3.8613 3h1.1387v-9c0-1.108-0.892-2-2-2zm0.5 1h11c0.831 0 1.5 0.669 1.5 1.5v3c0 0.831-0.669 1.5-1.5 1.5h-11c-0.831 0-1.5-0.669-1.5-1.5v-3c0-0.831 0.669-1.5 1.5-1.5zm1.5 1c-1.108 0-2 0.892-2 2s0.892 2 2 2h8c1.108 0 2-0.892 2-2s-0.892-2-2-2zm0 1h0.00977c0.52102 0.00607 0.99219 0.47834 0.99219 1s-0.47116 0.99393-0.99219 1h-0.00977c-0.5713 0-1-0.4287-1-1s0.4287-1 1-1zm2.8242 0h2.3496a3 3 0 0 0 -0.17383 1 3 3 0 0 0 0.17578 1h-2.3496a3 3 0 0 0 0.17383 -1 3 3 0 0 0 -0.17578 -1zm5.166 0h0.009766c0.5713 0 1 0.4287 1 1s-0.4287 1-1 1h-0.0098c-0.52099-0.00607-0.99215-0.47834-0.99215-1s0.47116-0.99393 0.99219-1zm-6.9902 6c-1.3254 0-2.4167 0.82759-2.8223 2h11.645c-0.4056-1.1724-1.4968-2-2.8223-2z" fill="#f1f2f2" stroke-width=".79772"/></svg>
