<?xml version="1.0" encoding="UTF-8"?>
<svg version="1.1" viewBox="0 0 16 16" xmlns="http://www.w3.org/2000/svg">
<path transform="matrix(.91515 0 0 1 .17362 0)" d="m7.9336 0.99609a0.98918 0.98918 0 0 0-0.38281 0.10352l-6 3a0.98918 0.98918 0 0 0-0.19727 0.12891c-6.99e-4 5.913e-4 -0.00126 0.00136-0.00195 0.00195l-0.00195 0.00195c-0.00105 8.87e-4 -9.082e-4 0.00301-0.00195 0.00391-0.039869 0.034384-0.07928 0.071132-0.11328 0.11133-5.933e-4 6.975e-4 -0.00136 0.00125-0.00195 0.00195-5.933e-4 6.975e-4 -0.00136 0.00125-0.00195 0.00195-8.913e-4 0.00104-0.00107 0.00286-0.00195 0.00391a0.98918 0.98918 0 0 0-0.056641 0.074219 0.98918 0.98918 0 0 0-0.00195 0.00391 0.98918 0.98918 0 0 0-0.09375 0.16992 0.98918 0.98918 0 0 0-0.00195 0.00391 0.98918 0.98918 0 0 0-0.03125 0.087891 0.98918 0.98918 0 0 0-0.00195 0.00391 0.98918 0.98918 0 0 0-0.023437 0.091797 0.98918 0.98918 0 0 0-0.021484 0.14453c-3.808e-5 6.459e-4 3.683e-5 0.00131 0 0.00195v0.00585c-3.807e-5 6.459e-4 3.682e-5 0.00131 0 0.00195-0.001783 0.036193-0.002132 0.0732 0 0.10938 3.682e-5 6.46e-4 -3.807e-5 0.00131 0 0.00195 3.682e-5 6.46e-4 -3.807e-5 0.00131 0 0.00195 3.682e-5 6.46e-4 -3.807e-5 0.00131 0 0.00195 3.682e-5 6.46e-4 -3.807e-5 0.00131 0 0.00195 3.683e-5 6.46e-4 -3.808e-5 0.00131 0 0.00195a0.98918 0.98918 0 0 0 0.013672 0.10156 0.98918 0.98918 0 0 0 0.017578 0.09375 0.98918 0.98918 0 0 0 0.00195 0.00391 0.98918 0.98918 0 0 0 0.029297 0.089844 0.98918 0.98918 0 0 0 0.00195 0.00391 0.98918 0.98918 0 0 0 0.039063 0.087891 0.98918 0.98918 0 0 0 0 0.00195 0.98918 0.98918 0 0 0 0.046875 0.083984 0.98918 0.98918 0 0 0 0.00195 0.00391 0.98918 0.98918 0 0 0 0.054687 0.076172 0.98918 0.98918 0 0 0 0.00195 0.00391 0.98918 0.98918 0 0 0 0.023437 0.029297 0.98918 0.98918 0 0 0 0.00195 0.00391c5.913e-4 6.991e-4 0.00136 0.00126 0.00195 0.00195 5.913e-4 6.991e-4 0.00136 0.00126 0.00195 0.00195 0.034384 0.039868 0.073085 0.077327 0.11328 0.11133 0.00104 8.913e-4 9.046e-4 0.00302 0.00195 0.00391 6.975e-4 5.933e-4 0.00125 0.00136 0.00195 0.00195 6.974e-4 5.933e-4 0.00125 0.00136 0.00195 0.00195a0.98918 0.98918 0 0 0 0.58008 0.23242c0.039402 0.00232 0.079738 0.00232 0.11914 0 6.46e-4 -3.68e-5 0.00131 3.81e-5 0.00195 0 6.46e-4 -3.68e-5 0.00131 3.81e-5 0.00195 0 6.46e-4 -3.68e-5 0.00131 3.81e-5 0.00195 0h11.941c0.02006 1.94e-5 0.04052 0.00118 0.06055 0 6.46e-4 -3.68e-5 0.0013 3.81e-5 2e-3 0 6.46e-4 -3.68e-5 0.0013 3.81e-5 2e-3 0a0.98918 0.98918 0 0 0 0.10156-0.013672 0.98918 0.98918 0 0 0 0.09375-0.017578 0.98918 0.98918 0 0 0 0.0039-0.00195 0.98918 0.98918 0 0 0 0.08984-0.029297 0.98918 0.98918 0 0 0 0.0039-0.00195 0.98918 0.98918 0 0 0 2e-3 -0.00195 0.98918 0.98918 0 0 0 0.08398-0.035156 0.98918 0.98918 0 0 0 0.0039-0.00195 0.98918 0.98918 0 0 0 2e-3 -0.00195 0.98918 0.98918 0 0 0 0.08203-0.044922 0.98918 0.98918 0 0 0 0.0039-0.00195 0.98918 0.98918 0 0 0 2e-3 -0.00195 0.98918 0.98918 0 0 0 0.07422-0.052734 0.98918 0.98918 0 0 0 0.0039-0.00195 0.98918 0.98918 0 0 0 2e-3 -0.00195 0.98918 0.98918 0 0 0 2e-3 -0.00195 0.98918 0.98918 0 0 0 0.0059-0.00391 0.98918 0.98918 0 0 0 0.01953-0.015625c0.0017-0.00148 0.0041-0.00242 0.0059-0.00391 6.99e-4 -5.913e-4 0.0013-0.00136 2e-3 -0.00195l0.0078-0.00977c0.0045-0.00394 0.0093-0.0077 0.01367-0.011719 0.0051-0.0046 0.01063-0.00896 0.01563-0.013672a0.98918 0.98918 0 0 0 0.06836-0.070313 0.98918 0.98918 0 0 0 0.0059-0.00781c0.0021-0.00243 0.0057-0.00341 0.0078-0.00586a0.98918 0.98918 0 0 0 0.04102-0.054687 0.98918 0.98918 0 0 0 0.0078-0.00977 0.98918 0.98918 0 0 0 0.0098-0.013672 0.98918 0.98918 0 0 0 0.04297-0.070312 0.98918 0.98918 0 0 0 0.13086-0.43164c3.8e-5 -6.459e-4 -3.7e-5 -0.00131 0-0.00195v-0.12302c-3.7e-5 -6.46e-4 3.8e-5 -0.00131 0-0.00195-3.7e-5 -6.46e-4 3.8e-5 -0.00131 0-0.00195v-0.00195c-3.7e-5 -6.46e-4 3.8e-5 -0.00131 0-0.00195a0.98918 0.98918 0 0 0-0.0332-0.19727 0.98918 0.98918 0 0 0-0.0293-0.091797 0.98918 0.98918 0 0 0-2e-3 -0.00195 0.98918 0.98918 0 0 0-0.03711-0.087891 0.98918 0.98918 0 0 0-2e-3 -0.00195 0.98918 0.98918 0 0 0-0.04687-0.085937 0.98918 0.98918 0 0 0-2e-3 -0.00195 0.98918 0.98918 0 0 0-0.05469-0.078125 0.98918 0.98918 0 0 0-2e-3 -0.00195 0.98918 0.98918 0 0 0-2e-3 -0.00195 0.98918 0.98918 0 0 0-0.0039-0.00391 0.98918 0.98918 0 0 0-0.01953-0.027344c-5.91e-4 -6.991e-4 -0.0014-0.00126-2e-3 -0.00195l-0.021678-0.021546-0.013672-0.015625a0.98918 0.98918 0 0 0-0.0078-0.00781 0.98918 0.98918 0 0 0-0.0625-0.060547 0.98918 0.98918 0 0 0-0.0078-0.00781 0.98918 0.98918 0 0 0-0.0039-0.00391c-6.98e-4 -5.933e-4 -0.0013-0.00136-2e-3 -0.00195a0.98918 0.98918 0 0 0-0.02344-0.017578 0.98918 0.98918 0 0 0-0.04102-0.03125 0.98918 0.98918 0 0 0-0.09766-0.0625 0.98918 0.98918 0 0 0-0.03711-0.019531l-6-3a0.98918 0.98918 0 0 0-0.38279-0.10352c-6.459e-4 -3.807e-5 -0.00131 3.682e-5 -0.00195 0-6.459e-4 -3.808e-5 -0.00131 3.683e-5 -0.00195 0-6.459e-4 -3.807e-5 -0.00131 3.682e-5 -0.00195 0-6.46e-4 -3.807e-5 -0.00131 3.682e-5 -0.00195 0-6.46e-4 -3.807e-5 -0.00131 3.682e-5 -0.00195 0-6.459e-4 -3.807e-5 -0.00131 3.682e-5 -0.00195 0-6.46e-4 -3.808e-5 -0.00131 3.683e-5 -0.00195 0-0.039402-0.002322-0.079738-0.002322-0.11914 0z" style="fill:#f1f2f2"/>
<rect y="14" width="15" height="2" ry=".5" style="fill:#f1f2f2;paint-order:markers fill stroke"/>
<rect x="1" y="13" width="13" height="2" ry="1" style="fill:#f1f2f2;paint-order:markers fill stroke"/>
<rect x="2" y="7" width="2" height="5" ry=".41667" style="fill:#f1f2f2;paint-order:markers fill stroke"/>
<rect x="11" y="7" width="2" height="5" ry=".41667" style="fill:#f1f2f2;paint-order:markers fill stroke"/>
<rect x="5" y="7" width="2" height="5" ry=".5" style="fill:#f1f2f2;paint-order:markers fill stroke"/>
<rect x="8" y="7" width="2" height="5" ry=".5" style="fill:#f1f2f2;paint-order:markers fill stroke"/>
</svg>
