<?xml version="1.0" encoding="UTF-8"?>
<svg version="1.1" viewBox="0 0 16 16" xmlns="http://www.w3.org/2000/svg">
<path d="m 1.563,8 5.718,5.719 C 7.477,13.915 7.744,14 8,14 H 9 V 13 A 1.01,1.01 0 0 0 8.719,12.281 L 4.438,8 8.718,3.719 A 1.01,1.01 0 0 0 9,3 V 2 H 8 A 1.01,1.01 0 0 0 7.281,2.281 Z" style="fill:#f1f2f2"/>
<path d="m6.563 8 5.718 5.719c0.196 0.196 0.463 0.281 0.719 0.281h1v-1a1.01 1.01 0 0 0-0.281-0.719l-4.281-4.281 4.28-4.281a1.01 1.01 0 0 0 0.282-0.719v-1h-1a1.01 1.01 0 0 0-0.719 0.281z" style="fill:#f1f2f2"/>
</svg>
