<?xml version="1.0" encoding="UTF-8" standalone="no"?>
<!--Part of Monotone: https://github.com/sixsixfive/Monotone, released under cc-by-sa_v4-->
<svg xmlns="http://www.w3.org/2000/svg" viewBox="0 0 16 16" version="1.1">
<g color="#f1f2f2" fill="#f1f2f2">
<path d="m1.5 2c-0.277 0-0.5 0.223-0.5 0.5v11c0 0.277 0.223 0.5 0.5 0.5h13c0.277 0 0.5-0.223 0.5-0.5v-11c0-0.277-0.223-0.5-0.5-0.5h-13zm2.2715 3a0.73467 0.68476 0 0 1 0.0234 0 0.73467 0.68476 0 0 1 0.5235 0.2148l2.4492 2.2813a0.73467 0.68476 0 0 1 0 0.998l-2.4492 2.2829a0.75794 0.70645 0 0 1 -1.3184 -0.431v-0.106a0.75794 0.70645 0 0 1 0.248 -0.4607l1.9141-1.7832-1.9141-1.7832a0.73467 0.68476 0 0 1 -0.248 -0.4805 0.73467 0.68476 0 0 1 0 -0.0683 0.73467 0.68476 0 0 1 0.5547 -0.6289 0.73467 0.68476 0 0 1 0.2168 -0.0352zm4.2285 5h4v1h-4v-1z" fill="#f1f2f2"/>
</g>
</svg>
