<!--Part of Monotone: https://github.com/sixsixfive/Monotone, released under cc-by-sa_v4-->
<svg xmlns="http://www.w3.org/2000/svg" viewBox="0 0 16 16">
    <path d="M1 1c1.72 1.811.973 2.97 1.917 5.103C3.792 8.083 5.698 6.6 7.003 8 5.698 9.4 3.786 7.911 2.91 9.89 1.967 12.025 2.72 13.19 1 15c1.811-1.72 2.976-.967 5.11-1.91 1.979-.876.497-2.782 1.897-4.086 1.389 1.305-.087 3.218 1.89 4.092C12.031 14.04 13.19 13.28 15 15c-1.72-1.811-.96-2.97-1.904-5.103C12.222 7.92 10.315 9.39 9.01 8c1.305-1.39 3.212.08 4.086-1.897C14.04 3.969 13.28 2.81 15 1c-1.811 1.72-2.969.96-5.103 1.904-1.977.874-.501 2.787-1.89 4.092-1.4-1.304.082-3.21-1.898-4.086C3.976 1.967 2.811 2.719 1 1z" fill-rule="evenodd" fill="#f1f2f2"/>
</svg>
