<?xml version="1.0" encoding="UTF-8"?>
<svg version="1.1" viewBox="0 0 16 16" xmlns="http://www.w3.org/2000/svg">
<g transform="translate(-31.976 -220.36)">
<path transform="translate(31.976 220.36)" d="m1.0244 15h14v-7h-2v5h-10v-5h-2z" style="fill:#f1f2f2"/>
<path d="m36.422 224.97a1.0011 1.0011 0 1 0 1.4805 1.3479l2.1213-2.1213 2.1213 2.1213a1.0001 1.0001 0 1 0 1.4142-1.4142l-3.5355-3.5355-3.5355 3.5355a1.0001 1.0001 0 0 0-0.06629 0.0663z" style="color:#000000;fill:#f1f2f2;text-decoration-line:none;text-indent:0;text-transform:none"/>
<path d="m39 223.36v5h2v-5z" style="color:#000000;fill:#f1f2f2;stroke-width:.79057;text-decoration-line:none;text-indent:0;text-transform:none"/>
<path d="m36.374 229.96a1.0011 1.0011 0 1 0 1.4805 1.3479l2.1213-2.1213 2.1213 2.1213a1.0001 1.0001 0 1 0 1.4142-1.4142l-3.5355-3.5355-3.5355 3.5355a1.0001 1.0001 0 0 0-0.06629 0.0663z" style="color:#000000;fill:#f1f2f2;text-decoration-line:none;text-indent:0;text-transform:none"/>
</g>
</svg>
