<!--Part of Monotone: https://github.com/sixsixfive/Monotone, released under cc-by-sa_v4-->
<svg xmlns="http://www.w3.org/2000/svg" viewBox="0 0 16 16">
    <path d="M6.098-.016a.5.5 0 0 0-.434.69l.57 1.644a6.973 6.973 0 0 0-.17.065 6.68 6.68 0 0 0-.007.002 6.68 6.68 0 0 0-.602.256L4.434.877a.501.501 0 0 0-.868.502l1.018 1.756a10.81 10.81 0 0 0-.977.705L2.353 2.586a.5.5 0 1 0-.707.707l1.221 1.219a16.47 16.47 0 0 0-.598.597l-.001-.002c-.064.065-.133.132-.194.198l-.72-.72v-.001a.502.502 0 0 0-.344-.15.5.5 0 0 0-.39.828.5.5 0 0 0 .003.006.5.5 0 0 0 .023.023.5.5 0 0 0 0 .002l.764.762A20.262 20.262 0 0 0 .373 7.432C.133 7.782 0 8 0 8v.002s.218.362.611.908a18.684 18.684 0 0 0 1.572 1.908c.034.036.058.07.092.106.881.925 1.97 1.85 3.196 2.443l.004.002c.147.071.298.133.449.193a5.653 5.653 0 0 0 1.012.313c.112.024.223.05.337.066.24.036.482.059.727.059s.487-.023.727-.059c.113-.016.225-.042.337-.066a5.64 5.64 0 0 0 1.012-.313 6.815 6.815 0 0 0 .453-.195c1.226-.593 2.315-1.518 3.196-2.443.034-.036.058-.07.091-.106a18.61 18.61 0 0 0 1.573-1.908c.144-.2.129-.191.224-.334C15.772 8.336 16 8 16 8c-.001-.002-.526-.87-1.41-1.945l.764-.762a.5.5 0 0 0 0-.002.5.5 0 0 0 .033-.037.5.5 0 0 0 .013-.016.5.5 0 0 0 .006-.007.5.5 0 0 0 .022-.034.5.5 0 0 0-.438-.763.502.502 0 0 0-.224.062.502.502 0 0 0-.043.026.502.502 0 0 0-.039.029.502.502 0 0 0-.038.033v.002l-.72.719c-.061-.066-.13-.133-.194-.198l-.002.002a16.47 16.47 0 0 0-.597-.597l1.221-1.219a.5.5 0 0 0-.708-.707L12.393 3.84a10.81 10.81 0 0 0-.977-.705l1.018-1.756a.501.501 0 1 0-.868-.502l-1.021 1.764a6.68 6.68 0 0 0-.602-.256 6.973 6.973 0 0 0-.008-.002 6.973 6.973 0 0 0-.17-.065l.571-1.644a.5.5 0 0 0-.484-.69.5.5 0 0 0-.3.116.5.5 0 0 0-.257-.1.5.5 0 0 0-.527.377l-.452 1.635A5.062 5.062 0 0 0 8 2.002a5.062 5.062 0 0 0-.316.01L7.232.377A.5.5 0 0 0 6.705 0a.5.5 0 0 0-.26.1.5.5 0 0 0-.297-.116.5.5 0 0 0-.05 0zM8 4.002a5.472 5.472 0 0 1 1.021.105c1.566.297 2.774 1.216 3.614 2.096l.029.033a9.754 9.754 0 0 1 .606.698 9.754 9.754 0 0 1 .005.005l.01.016a9.754 9.754 0 0 1 .49.69c.086.139.225.354.225.355 0 0-.088.135-.107.17-.124.21-.514.853-1.276 1.646-.834.869-2.026 1.772-3.566 2.073a6.732 6.732 0 0 1-.483.074C8.382 11.982 8.195 12 8 12s-.382-.018-.568-.037a6.197 6.197 0 0 1-.483-.074c-1.54-.301-2.732-1.204-3.566-2.073C2.62 9.023 2.23 8.38 2.107 8.17A9.753 9.753 0 0 0 2 8.002V8s.137-.21.215-.338a9.754 9.754 0 0 1 .5-.709 9.754 9.754 0 0 1 .015-.02 9.754 9.754 0 0 1 .606-.697 9.754 9.754 0 0 1 .03-.033c.84-.88 2.047-1.8 3.612-2.096A5.472 5.472 0 0 1 8 4.002zM8 5a3 3 0 0 0-.299.016 3 3 0 0 0-.588.119 3 3 0 0 0-1.265.775 3 3 0 0 0-.198.225 3 3 0 0 0 0 .002 3 3 0 0 0-.173.242 3 3 0 0 0 0 .002 3 3 0 0 0-.15.258 3 3 0 0 0 0 .002 3 3 0 0 0-.124.271 3 3 0 0 0 0 .002 3 3 0 0 0-.094.283 3 3 0 0 0 0 .002 3 3 0 0 0-.101.588 3 3 0 0 0 0 .002A3 3 0 0 0 5 8v.004a3 3 0 0 0 0 .004 3 3 0 0 0 .014.252 3 3 0 0 0 .013.125 3 3 0 0 0 .03.181 3 3 0 0 0 .027.125 3 3 0 0 0 .039.153 3 3 0 0 0 .045.136 3 3 0 0 0 .059.16 3 3 0 0 0 .046.106 3 3 0 0 0 .079.158 3 3 0 0 0 .082.145 3 3 0 0 0 .058.095 3 3 0 0 0 .115.16 3 3 0 0 0 .069.089 3 3 0 0 0 .095.111 3 3 0 0 0 .122.131 3 3 0 0 0 .064.058 3 3 0 0 0 .164.143 3 3 0 0 0 .072.055 3 3 0 0 0 .15.109 3 3 0 0 0 .15.09 3 3 0 0 0 .103.058 3 3 0 0 0 .142.071 3 3 0 0 0 .147.064 3 3 0 0 0 .101.037 3 3 0 0 0 .178.061 3 3 0 0 0 .121.031 3 3 0 0 0 .18.039 3 3 0 0 0 .092.014 3 3 0 0 0 .216.025 3 3 0 0 0 .131.006 3 3 0 0 0 .073.004l.023.002a3 3 0 0 0 1.168-.238 3 3 0 0 0 .766-.469 3 3 0 0 0 .218-.205 3 3 0 0 0 .805-1.578 3 3 0 0 0 0-.002A3 3 0 0 0 11 8.002 3 3 0 0 0 11 8a3 3 0 0 0 0-.004 3 3 0 0 0-.014-.256 3 3 0 0 0-.013-.113 3 3 0 0 0-.03-.195 3 3 0 0 0-.023-.104 3 3 0 0 0-.045-.176 3 3 0 0 0-.041-.127 3 3 0 0 0-.055-.152 3 3 0 0 0-.066-.146 3 3 0 0 0-.059-.12 3 3 0 0 0-.103-.177 3 3 0 0 0-.028-.05 3 3 0 0 0-.011-.015 3 3 0 0 0-.137-.193 3 3 0 0 0-.025-.035 3 3 0 0 0-.012-.014 3 3 0 0 0-.135-.154 3 3 0 0 0-.08-.086 3 3 0 0 0-.121-.114 3 3 0 0 0-.096-.084 3 3 0 0 0-.154-.115 3 3 0 0 0-.084-.06 3 3 0 0 0-.195-.12 3 3 0 0 0-.036-.02 3 3 0 0 0-.011-.007 3 3 0 0 0-.233-.113 3 3 0 0 0-.025-.012 3 3 0 0 0-.01-.004 3 3 0 0 0-.215-.078 3 3 0 0 0-.086-.029 3 3 0 0 0-.195-.049 3 3 0 0 0-.092-.021 3 3 0 0 0-.199-.03 3 3 0 0 0-.105-.013A3 3 0 0 0 8 5zm0 2a1 1 0 0 1 1 1 1 1 0 0 1-1 1 1 1 0 0 1-.2-.02 1 1 0 0 1-.095-.025A1 1 0 0 1 7 8a1 1 0 0 1 .006-.1A1 1 0 0 1 8 7z" fill="#f1f2f2"/>
</svg>
