<?xml version="1.0" encoding="UTF-8"?>
<svg version="1.1" viewBox="0 0 16 16" xmlns="http://www.w3.org/2000/svg">
<path d="m13 4c0-2-4.2758-2.9469-6.2353-3.0008-2.941-0.042425-5.1337 2.0008-6.7647 4.0008h2c-0.39911 0.66994-2.1523 2.39-2 4 0.64591-1 2-1 2-1-0.97528 2.9221 0.21825 6.2498 2 7-0.21081-0.93777-0.23482-2.5311 0-3 0.90251 1.5267 3.1403 2.6091 4 3 0-7 4-7 5-7s2 1 2 2c2.307-2 0.12393-5.3409-2-6zm-3.5166 1c-0.63993 0-1.3664-0.57838-1.4834-1-0.1613-0.1793-0.87471-0.74718-1-1 0.32109 0.30534 3 1 4 1 0 0.39986-0.64856 1-1.5166 1z" style="fill:#f1f2f2;stroke-width:.75021"/>
</svg>
