<?xml version="1.0" encoding="UTF-8"?>
<svg version="1.1" viewBox="0 0 16 16" xmlns="http://www.w3.org/2000/svg">
 <path d="m8.0098 0.69727c-1-3e-3 -1.561 3.5351-2.373 4.1191-0.812 0.585-4.3442-0.0027343-4.6563 0.94727-0.313 0.95 2.8766 2.5763 3.1816 3.5293 0.306 0.952-1.3451 4.1317-0.53906 4.7227 0.808 0.591 3.3418-1.9415 4.3418-1.9375 0.25854 0.001034 0.62219 0.1764 1.0273 0.41992v-0.49414a1.0079 1.0079 0 0 1 1.0078-1.0078h0.99219v-0.98828a1.0079 1.0079 0 0 1 0.99609-1.0078c0.76003-0.95961 3.2827-2.3268 3.0098-3.1797-0.306-0.952-3.8434-0.39438-4.6504-0.98438-0.807-0.592-1.3379-4.1347-2.3379-4.1387z" fill="#f1f2f2" opacity=".5"/>
 <path d="m12 10.007v1.996h-2v1.997h2v1.997h2v-1.997h2v-1.997h-2v-1.996z" fill="#f1f2f2"/>
</svg>
