<?xml version="1.0" encoding="UTF-8"?>
<svg version="1.1" viewBox="0 0 16 16" xmlns="http://www.w3.org/2000/svg">
 <path d="m8.0098 0.69727c-1-3e-3 -1.561 3.5351-2.373 4.1191-0.812 0.585-4.3442-0.0027343-4.6563 0.94727-0.313 0.95 2.8766 2.5763 3.1816 3.5293 0.306 0.952-1.3451 4.1317-0.53906 4.7227 0.808 0.591 3.3418-1.9415 4.3418-1.9375 0.5847 0.002339 1.6839 0.86815 2.6602 1.4766l0.023438-0.023438-0.35547-0.35352a1.0001 1.0001 0 0 1-0.29297-0.70703v-1.4707a1.0001 1.0001 0 0 1 1-1h0.78711c-0.038165-0.27006-0.053635-0.51494 0-0.67773 0.312-0.95 3.5159-2.549 3.2109-3.502-0.306-0.952-3.8434-0.39438-4.6504-0.98438-0.807-0.592-1.3379-4.1347-2.3379-4.1387z" fill="#f1f2f2" opacity=".5"/>
 <path d="m11 11h1.375l1.125 1.094 1.094-1.094h1.406v1.469l-1.094 1.062 1.094 1.063v1.406h-1.438l-1.062-1.063-1.063 1.063h-1.437v-1.406l1.063-1.063-1.063-1.061z" color="#f1f2f2" fill="#f1f2f2" overflow="visible"/>
</svg>
