<?xml version="1.0" encoding="UTF-8" standalone="no"?>
<!--Part of Monotone: https://github.com/sixsixfive/Monotone, released under cc-by-sa_v4-->
<svg id="svg4" xmlns="http://www.w3.org/2000/svg" viewBox="0 0 16 16" version="1.1"><path id="path821" style="paint-order:fill markers stroke;fill:#f1f2f2" d="m8 1a7 7 0 0 0 -7 7 7 7 0 0 0 7 7 7 7 0 0 0 7 -7 7 7 0 0 0 -0.08 -1h-1.92-1.131-3.869v3h3.459a4 4 0 0 1 -3.459 2 4 4 0 0 1 -4 -4 4 4 0 0 1 4 -4 4 4 0 0 1 2.281 0.7188l2.141-2.1407a7 7 0 0 0 -4.422 -1.5781z"/></svg>
