<?xml version="1.0" encoding="UTF-8" standalone="no"?>
<!--Part of Monotone: https://github.com/sixsixfive/Monotone, released under cc-by-sa_v4-->
<svg id="svg4" xmlns="http://www.w3.org/2000/svg" viewBox="0 0 16 16" version="1.1"><path id="rect823" style="paint-order:fill markers stroke;fill:#f1f2f2" d="m2 1c-0.554 0-1 0.446-1 1v12c0 0.554 0.446 1 1 1h12c0.554 0 1-0.446 1-1v-12c0-0.554-0.446-1-1-1h-12zm0.0762 1h4.9238c0 3 0.1128 4.5228-0.6504 6.6777 0.5827 0.8731 0.9515 2.0863 1.6504 3.3223h-1c-0.5389-0.953-0.5628-1.313-1-2-1.3944 3.125-3 4-3 4l-1-1c0.4406-0.461 1.7067-0.658 3-4-0.7657-1.1064-1.5826-2.2311-3-4l1-1c1.1813 1.4742 1.9402 2.6798 2.6348 3.6426 0.5509-1.9057 0.2942-3.9992 0.3652-4.6426h-3.9238v-1zm5.9238 0h6.076c-0.047 2.6701-0.521 5.3953-1.99 7.9902 0.623 1.0838 0.531 1.3498 1.914 2.4668l-0.002 1.627c-1.281-1.034-1.926-1.848-2.582-2.871-1.393 1.987-2.4433 2.871-2.4433 2.871l-1.0391-1.022s1.6416-0.934 2.9294-2.976c-1.391-2.0485-1.7316-4.4708-2.2302-7.086h-0.6328v-1zm2 1c0.33 2.0731 0.751 4.081 1.449 6.0137 0 0 0.006-0.0102 0.008-0.0157 0.757-1.68 1.434-4.1449 1.543-5.998h-3z"/></svg>
