<?xml version="1.0" encoding="UTF-8" standalone="no"?>
<!--Part of Monotone: https://github.com/sixsixfive/Monotone, released under cc-by-sa_v4-->
<svg id="svg4" xmlns="http://www.w3.org/2000/svg" viewBox="0 0 16 16" version="1.1"><rect id="rect817" style="paint-order:fill markers stroke;fill:#f1f2f2" height="1" width="7" y="2" x="2"/><rect id="rect819" style="paint-order:fill markers stroke;fill:#f1f2f2" transform="rotate(90)" height="1" width="11" y="-6" x="3"/><path id="path821" style="paint-order:fill markers stroke;fill:#f1f2f2" d="m11 4a3 3 0 0 0 -3 3 3 3 0 0 0 3 3 3 3 0 0 0 0.605 -0.0625l-2.3081 4.0625h1.1481l2.971-5.2285a3 3 0 0 0 0.584 -1.7715 3 3 0 0 0 -3 -3zm0 0.998c1.048 0 2.002 0.9541 2.002 2.002s-0.954 2.002-2.002 2.002c-1.0479 0-2.002-0.9541-2.002-2.002s0.9541-2.002 2.002-2.002z"/></svg>
