<?xml version="1.0" encoding="UTF-8" standalone="no"?>
<!--Part of Monotone: https://github.com/sixsixfive/Monotone, released under cc-by-sa_v4-->
<svg id="svg2" xmlns="http://www.w3.org/2000/svg" viewBox="0 0 16 16" version="1.1"><g id="text3755" style="fill:#f1f2f2" transform="translate(-.87241 -32.792)"><path id="path828" style="color-rendering:auto;text-decoration-color:#000000;color:#000000;font-variant-numeric:normal;text-orientation:mixed;shape-rendering:auto;font-variant-ligatures:normal;text-decoration-line:none;fill:#f1f2f2;font-variant-position:normal;mix-blend-mode:normal;font-feature-settings:normal;shape-padding:0;font-variant-alternates:normal;text-indent:0;dominant-baseline:auto;font-variant-caps:normal;image-rendering:auto;white-space:normal;text-decoration-style:solid;solid-color:#000000;isolation:auto;text-transform:none" transform="translate(.87241 32.792)" d="m4 1a3 3 0 0 0 -3 3 3 3 0 0 0 3 3 3 3 0 0 0 1 -0.1758v7.1758a1.0001 1.0001 0 0 0 1.9102 0.414l4.9508-10.892c0.308-0.4788 0.627-0.5364 0.893-0.5044 0.122 0.0147 0.207 0.0624 0.246 0.0898v10.893a1.0001 1.0001 0 1 0 2 0v-11c0-0.5833-0.305-1.0908-0.682-1.4102-0.377-0.3193-0.834-0.4995-1.324-0.5586-0.122-0.0147-0.248-0.0208-0.375-0.0175-0.891 0.023-1.866 0.4921-2.469 1.457a1.0001 1.0001 0 0 0 -0.06 0.1152l-3.09 6.7969v-5.3828a3 3 0 0 0 -3 -3zm0 2a1 1 0 0 1 1 1 1 1 0 0 1 -1 1 1 1 0 0 1 -1 -1 1 1 0 0 1 1 -1z"/></g></svg>
