<?xml version="1.0" encoding="UTF-8" standalone="no"?>
<!--Part of Monotone: https://github.com/sixsixfive/Monotone, released under cc-by-sa_v4-->
<svg id="svg8" xmlns="http://www.w3.org/2000/svg" version="1.1" viewBox="0 0 16 16"><path id="path817" style="stroke-width:.037840;fill:#f1f2f2" d="m2.1184 14.891c-0.13977-0.13634-0.18145-0.43822-0.058047-0.88745 0.20334-0.43312 0.29983-0.60524 0.49066-0.94266 0.23412-0.41396 0.99319-1.951 1.4928-2.6013 2.1315-2.7748 4.8722-5.3078 7.8836-7.2863 0.63309-0.41594 0.72692-0.51222 0.6208-0.63695-0.30328-0.35644-2.4852 0.84852-4.5589 2.5176-1.2845 1.0339-2.7076 2.422-3.6836 3.5932-0.75077 0.90086-1.5277 2.0264-1.9139 2.7727-0.06508 0.12575-0.13145 0.21171-0.14946 0.19356-0.055504-0.0559-0.1516-0.58851-0.19447-1.0778-0.097855-1.1169 0.1539-2.3275 0.70613-3.3953 0.66797-1.2917 1.6658-2.3271 3.1675-3.2868 0.77722-0.49672 1.8631-1.0962 1.9813-1.052 0.13154 0.0492 0.16894 0.3812 0.096482 0.85641-0.023754 0.1558-0.03092 0.29523-0.015932 0.30984 0.014999 0.0146 0.2609-0.10862 0.42406-0.27385 0.38358-0.38844 0.61357-0.64084 0.62478-1.0219 0.00543-0.18331 0.025415-0.2865 0.059687-0.30757 0.028367-0.0174 0.31314-0.14821 0.75566-0.2906 1.2718-0.40925 2.5426-0.70341 4.0421-0.93567 0.41091-0.0636 0.79967-0.12408 0.86391-0.13429 0.06815-0.0108 0.1473 0.003 0.19001 0.0336 0.07002 0.0499 0.07109 0.0732 0.02454 0.53283-0.06804 0.67199-0.24861 1.687-0.41792 2.3492l-0.144 0.1614-0.192-0.009c-0.105-0.005-0.433-0.0133-0.728-0.0183-0.5-0.008-0.674-0.0793-0.971 0.0185-0.40668 0.13379-0.52014 0.91673-0.49417 0.94205 0.69958-0.075024 1.4232 0.19223 2.0129 0.55344 0.01015 0.0696-0.29492 0.95979-0.47562 1.3315l-0.07267 0.14949-0.77256-0.03664c-0.64427 0.002-0.76219 0.05194-1.0207 0.12184-0.38097 0.10309-1.0327 0.25614-1.0505 0.30815-0.0082 0.0239 0.12029 0.0573 0.32347 0.0842 0.52862 0.0698 1.4408 0.25379 1.644 0.33166 0.21409 0.082 0.26562 0.14372 0.23133 0.27698-0.08465 0.32897-0.9841 1.3067-1.749 1.9013-1.3372 1.0394-2.8335 1.485-4.2679 1.827-0.68687 0.1638-1.2035 0.12955-1.8811 0.14037l-0.61269 0.01c-0.7985 0.99758-1.3258 2.027-2.0383 2.9883-0.034273 0-0.11272-0.0492-0.17431-0.10924z"/></svg>
