<?xml version="1.0" encoding="UTF-8" standalone="no"?>
<!--Part of Monotone: https://github.com/sixsixfive/Monotone, released under cc-by-sa_v4-->
<svg id="svg4" xmlns="http://www.w3.org/2000/svg" viewBox="0 0 16 16" version="1.1"><path id="path833" style="fill:#f1f2f2" d="m6.0004 3-2e-7 10h1l2e-7 -4 2.5 4h0.5v-1.5l-2-3.5 2-3.5v-1.5h-0.5l-2.5 4v-4z"/><path id="path850" style="fill:#f1f2f2" d="m11 3v10h1v-4l2.5 4h0.5v-1.5l-2-3.5 2-3.5v-1.5h-0.5l-2.5 4v-4z"/><path id="path834" d="m5 10.143c0-0.8335-0.1536-1.5868-0.5215-2.1123-0.3678-0.5255-0.8952-0.745-1.4785-0.745-0.4167 0-0.6393-0.1377-0.7715-0.3264-0.1321-0.1888-0.2285-0.5069-0.2285-1.1022 0-0.5952 0.0964-0.9133 0.2285-1.1021 0.1322-0.1888 0.3548-0.3264 0.7715-0.3264 0.41667 0 0.63934 0.13771 0.77148 0.32644 0.1321 0.1888 0.2285 0.6498 0.2285 1.245h1c0-0.8333-0.1536-1.7295-0.5215-2.255-0.3678-0.5255-0.8952-0.745-1.4785-0.745s-1.1107 0.2195-1.4785 0.745c-0.3679 0.5255-0.5215 1.2788-0.5215 2.1121 0 0.8334 0.1536 1.5867 0.5215 2.1122 0.3678 0.5255 0.8952 0.745 1.4785 0.745 0.4167 0 0.6393 0.1377 0.7715 0.3264 0.1321 0.1888 0.2285 0.5069 0.2285 1.1023 0 0.595-0.0964 0.913-0.2285 1.102-0.1322 0.189-0.3548 0.326-0.7715 0.326-0.41667 0-0.63934-0.13772-0.77148-0.32646-0.1321-0.189-0.2285-0.65-0.2285-1.245h-1c0 0.83333 0.15363 1.7295 0.52148 2.255 0.3678 0.526 0.8952 0.745 1.4785 0.745s1.1107-0.219 1.4785-0.745c0.3679-0.525 0.5215-1.279 0.5215-2.112z" style="fill:#f1f2f2"/></svg>
