<?xml version="1.0" encoding="UTF-8" standalone="no"?>
<!--Part of Monotone: https://github.com/sixsixfive/Monotone, released under cc-by-sa_v4-->
<svg id="svg4" xmlns="http://www.w3.org/2000/svg" viewBox="0 0 16 16" version="1.1"><path id="rect861" style="paint-order:fill markers stroke;fill:#f1f2f2" d="m3 1c-1.108 0-2 0.892-2 2v10c0 1.108 0.892 2 2 2h10c1.108 0 2-0.892 2-2v-10c0-1.108-0.892-2-2-2h-10zm5 1h1c-0.0101 0.0507-0.0438 0.1944-0.0566 0.2441 1.8766 2.2891 5.0566 3.7559 5.0566 3.7559v1s-0.984-0.353-2-0.8691v0.8691h-3v2h3v1h-3v3h5v1h-11v-1h5v-3h-3v-1h3v-2h-3v-1c-1.0287 0.5017-2 1-2 1v-1s0.6713-0.4595 2.0664-1.248c1.3951-0.7886 2.7477-1.8226 2.9336-2.752zm-3 4h6.734c-1.191-0.6305-2.1178-1.5528-3.234-2.7676-0.6676 0.9969-1.7875 1.7911-2.8828 2.4102-0.2478 0.14-0.3797 0.2364-0.6172 0.3574z"/><rect id="rect4263" style="fill:none" height="22" width="22" y="-1.5763" x="-35.271"/></svg>
