<?xml version="1.0" encoding="UTF-8" standalone="no"?>
<!--Part of Monotone: https://github.com/sixsixfive/Monotone, released under cc-by-sa_v4-->
<svg xmlns="http://www.w3.org/2000/svg" version="1.1" viewBox="0 0 16 16">
 <path opacity=".5" d="m0.814 3c-0.451 0-0.814 0.383-0.814 0.86v8.28c0 0.477 0.363 0.86 0.814 0.86h14.372c0.451 0 0.814-0.383 0.814-0.86v-8.28c0-0.477-0.363-0.86-0.814-0.86zm0.186 1h2v2h-2zm3 0h2v2h-2zm3 0h2v2h-2zm3 0h2v2h-2zm3 0h2v2h-2zm-12 3h2v2h-2zm3 0h2v2h-2zm3 0h2v2h-2zm3 0h2v2h-2zm3 0h2v2h-2zm-12 3h2v2h-2zm3 0h8v2h-8zm9 0h2v2h-2z" fill="#f1f2f2"/>
</svg>
