<?xml version="1.0" encoding="UTF-8" standalone="no"?>
<!--Part of Monotone: https://github.com/sixsixfive/Monotone, released under cc-by-sa_v4-->
<svg id="svg4" xmlns="http://www.w3.org/2000/svg" viewBox="0 0 16 16" version="1.1"><path id="path821" style="fill:#f1f2f2" d="m2.0762 2v1h3.9238c-0.071 0.6434 0.1857 2.7369-0.3652 4.6426-0.6946-0.9628-1.4535-2.1684-2.6348-3.6426l-1 1c1.4174 1.7689 2.2343 2.8936 3 4-1.2933 3.3423-2.5594 3.5391-3 4l1 1s1.6056-0.8747 3-4c0.43716 0.68656 0.46112 1.0466 1 2h1c-0.6989-1.236-1.0677-2.4492-1.6504-3.3223 0.7632-2.1549 0.6504-3.6777 0.6504-6.6777z"/><path id="path819" style="fill:#f1f2f2" d="m8 2v1h0.63212c0.49861 2.6152 0.83991 5.0375 2.2312 7.0859-1.2881 2.0417-2.9307 2.9774-2.9307 2.9774l1.0407 1.0207s1.0495-0.88497 2.4427-2.8719c0.65567 1.0236 1.3014 1.8374 2.5825 2.8717l0.95736-1.0822c-1.383-1.117-2.247-1.927-2.87-3.0106 1.469-2.5949 1.944-5.3213 1.991-7.9914zm2 1h3c-0.10862 1.8531-0.78602 4.318-1.543 5.998-0.0025 0.0055-0.0078 0.01563-0.0078 0.01563-0.698-1.9327-1.119-3.9405-1.449-6.0136z"/></svg>
