<?xml version="1.0" encoding="UTF-8" standalone="no"?>
<!--Part of Monotone: https://github.com/sixsixfive/Monotone, released under cc-by-sa_v4-->
<svg id="svg4" xmlns="http://www.w3.org/2000/svg" viewBox="0 0 16 16" version="1.1"><path id="path833" style="fill:#f1f2f2" d="m1 3-2e-7 10h1v-4l2.5 4h0.5v-1.5l-2-3.5 2-3.5v-1.5h-0.5l-2.5 4v-4z"/><path id="path831" style="fill:#f1f2f2" d="m13 3c-0.58333 0-1.1107 0.15363-1.4785 0.52148-0.36785 0.36786-0.52148 0.89519-0.52148 1.4785v6c0 0.58333 0.15363 1.1106 0.52148 1.4785 0.36785 0.36785 0.89518 0.52149 1.4785 0.52149 0.58333 0 1.1107-0.15364 1.4785-0.52149 0.36785-0.36786 0.52148-0.89518 0.52148-1.4785h-1c0 0.41667-0.09637 0.63934-0.22852 0.77148-0.13215 0.13215-0.35482 0.22852-0.77148 0.22852-0.41667 0-0.63934-0.0964-0.77148-0.22852-0.13215-0.13214-0.22852-0.35481-0.22852-0.77148v-6c0-0.41667 0.09637-0.63935 0.22852-0.77149 0.13215-0.13215 0.35482-0.22851 0.77148-0.22851 0.41667 0 0.63934 0.0964 0.77148 0.22851 0.13215 0.13214 0.22852 0.35482 0.22852 0.77149h1c0-0.58333-0.15363-1.1107-0.52148-1.4785-0.369-0.3679-0.896-0.5215-1.479-0.5215z"/><path id="path850" style="fill:#f1f2f2" d="m5.9996 3v10h1v-4l2.5 4h0.5v-1.5l-2-3.5 2-3.5v-1.5h-0.5l-2.5 4v-4z"/></svg>
