<?xml version="1.0" encoding="UTF-8" standalone="no"?>
<!--Part of Monotone: https://github.com/sixsixfive/Monotone, released under cc-by-sa_v4-->
<svg xmlns="http://www.w3.org/2000/svg" version="1.1" xmlns:xlink="http://www.w3.org/1999/xlink" viewBox="0 0 16 16">
 <g transform="translate(0 -1036.4)">
  <path style="color:#000000;text-indent:0;text-decoration-line:none;text-transform:none" d="m4.0117 3c-1.6528 0-3.0117 1.3588-3.0117 3.0117 0 1.6528 1.3589 2.9883 3.0117 2.9883 1.6529 0 3.0117-1.3355 3.0117-2.9883 0-1.6529-1.3588-3.0117-3.0117-3.0117zm7.9763 0c-1.653 0-3.0114 1.3588-3.0114 3.0117 0 1.5733 1.2354 2.8448 2.7794 2.9649-0.547 0.7562-1.297 1.5254-2.3048 2.1874a1.0001 1.0001 0 1 0 1.0978 1.672c1.621-1.065 2.721-2.377 3.42-3.6055 0.698-1.2282 1.013-2.3334 1.031-3.209a1.0001 1.0001 0 0 0 0 -0.0098v-0.0019a1.0001 1.0001 0 0 0 -0.025 -0.2383c-0.126-1.5404-1.416-2.7715-2.987-2.7715zm-7.988 1a2 2 0 0 1 2 2 2 2 0 0 1 -2 2 2 2 0 0 1 -2 -2 2 2 0 0 1 2 -2zm8 0a2 2 0 0 1 2 2 2 2 0 0 1 -2 2 2 2 0 0 1 -2 -2 2 2 0 0 1 2 -2z" transform="translate(0 1036.4)" fill="#f1f2f2"/>
 </g>
</svg>
