<?xml version="1.0" encoding="UTF-8" standalone="no"?>
<!--Part of Monotone: https://github.com/sixsixfive/Monotone, released under cc-by-sa_v4-->
<svg xmlns="http://www.w3.org/2000/svg" viewBox="0 0 16 16" version="1.1">
 <path fill="#f1f2f2" d="m8 1.0004c-0.1859 0.9294-1.5385 1.9634-2.9336 2.752-1.3951 0.7885-4.0664 1.2476-4.0664 1.2476v1s2.9713-0.4979 4-0.9996c0.2375-0.121 0.3694-0.2173 0.6172-0.3574 1.0953-0.619 2.2152-1.4132 2.8828-2.4101 1.1162 1.2148 2.0434 2.1371 3.2344 2.7676l0.266 0.1308c1.016 0.5161 4 0.8687 4 0.8687v-1s-5.18-1.4663-7.0566-3.7554c0.0128-0.0497 0.0465-0.1935 0.0566-0.2442z"/>
 <rect height="22" width="22" y="-1.5763" x="-35.271" fill="none"/>
 <g fill="#f1f2f2">
  <path style="color-rendering:auto;text-decoration-color:#000000;color:#000000;font-variant-numeric:normal;shape-rendering:auto;font-variant-ligatures:normal;text-decoration-line:none;font-variant-position:normal;mix-blend-mode:normal;solid-color:#000000;font-feature-settings:normal;shape-padding:0;font-variant-alternates:normal;text-indent:0;dominant-baseline:auto;font-variant-caps:normal;image-rendering:auto;white-space:normal;text-decoration-style:solid;text-orientation:mixed;isolation:auto;text-transform:none" d="m7.1309 3.9473-0.2618 0.9648c0.5843 0.1593 1.0367 0.1516 1.3575 0.1309 0.3207-0.0208 0.4619-0.0333 0.5996 0.0175l0.3476-0.9394c-0.3876-0.1432-0.7247-0.0948-1.0117-0.0762s-0.5719 0.0276-1.0312-0.0976z"/>
  <rect height="1" width="11" y="6.0004" x="3"/>
  <rect transform="rotate(90)" height="1" width="5" y="-14" x="6.0004"/>
  <rect transform="scale(-1)" height="1" width="11" y="-11" x="-14"/>
  <rect transform="scale(-1)" height="1" width="11" y="-9.0004" x="-14"/>
  <path style="color-rendering:auto;text-decoration-color:#000000;color:#000000;font-variant-numeric:normal;shape-rendering:auto;font-variant-ligatures:normal;text-decoration-line:none;font-variant-position:normal;mix-blend-mode:normal;solid-color:#000000;font-feature-settings:normal;shape-padding:0;font-variant-alternates:normal;text-indent:0;dominant-baseline:auto;font-variant-caps:normal;image-rendering:auto;white-space:normal;text-decoration-style:solid;text-orientation:mixed;isolation:auto;text-transform:none" d="m3 6.4629c-0.0034 1.3021 0.115 2.4236 0 3.4121-0.115 0.988-0.4274 1.845-1.3535 2.771l0.70703 0.70703c1.0739-1.073 1.5073-2.217 1.6406-3.3628 0.1334-1.1458 0.0027-2.2905 0.0059-3.5254z"/>
  <rect height="1" width="10" y="12" x="5"/>
  <rect height="1" width="10" y="14" x="5"/>
  <rect transform="rotate(90)" height="1" width="4" y="-5" x="12"/>
  <rect transform="rotate(90)" height="1" width="4" y="-15" x="12"/>
 </g>
</svg>
