<?xml version="1.0" encoding="UTF-8" standalone="no"?>
<!--Part of Monotone: https://github.com/sixsixfive/Monotone, released under cc-by-sa_v4-->
<svg id="svg4" xmlns="http://www.w3.org/2000/svg" viewBox="0 0 16 16" version="1.1"><path id="path828" style="fill:#f1f2f2" d="m7.9004 1.7012l-0.8008 0.5996 1.2754 1.6992h-1.375v1h1v3h-1.8828l0.1055-0.0527-0.4454-0.8946-0.7773 0.3887v-2.4414h1v-1h-1v-2h-1v2h-2v1h2v2.9414l-2.2227 1.1113 0.4454 0.8946 1.7773-0.8887v3.9414h-2v1h3v-5.4414l1-0.5v0.9414h1.9609c-0.0886 0.895-0.3916 1.612-0.7929 2.307-0.4973 0.861-1.5098 1.83-1.5098 1.83l0.6836 0.728s1.0707-0.983 1.6914-2.058c0.4487-0.778 0.8296-1.688 0.9258-2.807h2.041v5h1v-5h2v-1h-2v-3h2v-1h-2.375l1.275-1.6992-0.8-0.5996-1.5 2 0.398 0.2988h-1.996l0.3984-0.2988-1.5-2zm1.0996 3.2988h2v3h-2v-3z"/></svg>
