<?xml version="1.0" encoding="UTF-8" standalone="no"?>
<!--Part of Monotone: https://github.com/sixsixfive/Monotone, released under cc-by-sa_v4-->
<svg xmlns="http://www.w3.org/2000/svg" version="1.1" viewBox="0 0 16 16">
 <path d="m7 0v1h-2v1h2v2h2.0501c-0.011724 0.33606-0.0076 0.66642-0.00977 1h-4.0403v3h4.0482c0.0000217 0.34657-0.012748 0.67201-0.023437 1h-4.0248v1h3.972c-0.03647 0.39099-0.083691 0.76802-0.16016 1.1133-0.0714 0.323 0.0307 0.612-0.0794 0.887h-3.7324v1h3.1484c-0.09675 0.11608-0.19261 0.23241-0.30664 0.33594-0.61002 0.55384-1.5177 0.9662-2.9648 1.125l0.16406 1.4922c1.6653-0.183 2.9184-0.7 3.8085-1.508 0.4111-0.373 0.7272-0.805 0.9824-1.269 0.694 1.06 1.453 1.73 2.256 2.111 0.999 0.475 1.975 0.544 2.912 0.703v-1.478c-1.014-0.172-1.579-0.25-2.27-0.578-0.396-0.189-0.782-0.479-1.173-0.934h4.443v-1h-5.1289c-0.06855-0.11908-0.13538-0.21191-0.20508-0.3457l-0.29297 0.15234c0.03369-0.12336 0.07576-0.24379 0.10352-0.36914 0.10277-0.46402 0.46458-0.94676 0.50921-1.4375h4.014v-0.9994h-3.9634c0.01157-0.33207 0.0274-0.66211 0.02734-1h3.936v-3h-3.9556c0.00061-0.32474-0.0056-0.65173 0.0059-0.97266l-1.05-0.0273h3v-2h3v-1h-3v-1h-1v1h-4v-1zm-6 1v1l3 1v-2zm7 1h4v1h-4zm-7.0527 2.9355 0.05273 1.0645 3 2v-2zm5.0527 1.0645h3.0306c0.00321 0.34173 0.00762 0.66735 0.011719 1h-3.0423zm5.0424 0h2.958v1h-2.9439c-0.0055-0.33338-0.0084-0.66587-0.01367-1zm-8.042 4-3 4h2l2-4z" fill="#f1f2f2"/>
</svg>
