<?xml version="1.0" encoding="UTF-8" standalone="no"?>
<svg
   xmlns:dc="http://purl.org/dc/elements/1.1/"
   xmlns:cc="http://creativecommons.org/ns#"
   xmlns:rdf="http://www.w3.org/1999/02/22-rdf-syntax-ns#"
   xmlns:svg="http://www.w3.org/2000/svg"
   xmlns="http://www.w3.org/2000/svg"
   id="svg3"
   viewBox="0 0 16 16"
   version="1.1">
  <defs
     id="defs7" />
  <path
     style="fill:#f1f2f2;stroke-width:0.69999999"
     d="m 3.5507,0.9648 c -4.5661,0 -2.9294,14 4.4766,14 7.278,0 9.019,-14 4.494,-14 -1.408,0 -3.0632,0.8524 -4.4725,2.0293 0.7879,0.948 1.5179,1.9681 2.0355,3.0312 0.77,1.5838 1.116,3.1482 0.859,4.2035 -0.128,0.527 -0.385,0.932 -0.836,1.236 -0.4509,0.304 -1.1152,0.5 -2.0507,0.5 -0.9488,0 -1.6281,-0.195 -2.0879,-0.5 C 5.509,11.1598 5.2476,10.7518 5.1152,10.2248 4.8505,9.1706 5.1921,7.6087 5.9628,6.0253 6.4792,4.9646 7.211,3.9463 8,3 6.6015,1.8205 4.9552,0.9648 3.5507,0.9648 Z"
     id="fill-rule-nonzero" />
</svg>
