<?xml version="1.0" encoding="UTF-8"?>
<svg version="1.1" viewBox="0 0 16 16" xmlns="http://www.w3.org/2000/svg">
<g style="opacity:.5">
<path d="m7.1543 3c0.25659 0.035094 0.49106 0.15649 0.66016 0.3418 0.68257 0.7511 0.97397 1.7112 1.0938 2.6582h3.0918v-3h-4.8457zm5.8457 0v3h3v-3h-3zm-4.166 4v0.0019531c0.0039-6.683e-4 0.0077984-0.0013231 0.011719-0.0019531h-0.011719zm1.166 0v0.60352c0.098806 0.15529 0.31098 0.45579 0.53906 0.85156a4.5 4.5 0 0 1 1.9609-0.45508 4.5 4.5 0 0 1 2.5 0.75977v-1.7598h-1-1-3z" style="fill:#f1f2f2;opacity:.75;paint-order:markers fill stroke"/>
<path d="m5.4551 2c-1.8182 0.41045-1.9946 1.7928-2.4551 3-0.33968 0.8903 0.25951 1.9828-0.12305 2.8555-0.18964 0.43264-0.53454 1.0864-1 1.0059-0.67554-0.11687-0.87695-0.45669-0.87695-1.8613-0.49231 0.71003-1 1.598-1 2.7402 0 1.8831 1.123 3.7659 4.123 4.2598h1.3848c0.93329 0 1.8223-0.26166 2.5645-0.70703a4.5 4.5 0 0 1-0.072266-0.79297 4.5 4.5 0 0 1 1.6406-3.4707c-0.22759-0.412-0.49985-0.78837-0.64062-1.0293 0 1.2966-0.15376 1.6073-0.81836 1.7402-0.34367 0.068737-0.69326-0.3107-0.8125-0.63281-0.30443-0.82239 0.58428-1.7033 0.52344-2.5781-0.062003-0.89162-0.41566-2.0045-0.89258-2.5293 0 1.3429-0.32357 2.3164-1.1855 2.2988-0.64439-0.013153-0.73141-1.1148-0.81445-1.7539-0.11106-0.8548-0.10047-1.6849 0.45508-2.5449z" style="fill:#f1f2f2;stroke-width:.07705"/>
</g>
<path class="error" d="m12.5 9a3.5 3.5 0 1 0 0 7 3.5 3.5 0 0 0 0-7zm-2.5 2.969h5v1.031h-5z" overflow="visible" style="color:#f1f2f2;fill:#f1f2f2"/>
</svg>
