<?xml version="1.0" encoding="UTF-8"?>
<svg version="1.1" viewBox="0 0 16 16" xmlns="http://www.w3.org/2000/svg">
<path d="m7.1543 3c0.25659 0.035094 0.49106 0.15649 0.66016 0.3418 0.68257 0.7511 0.97402 1.7112 1.0938 2.6582h3.0918v-3h-4.8457zm5.8457 0v3h3v-3h-3zm-4.166 4v0.0019531c0.0039-6.714e-4 0.0077987-0.0013231 0.011719-0.0019531h-0.011719zm1.166 0v0.60352c0.09907 0.15571 0.31224 0.45617 0.54102 0.85352 0.239 0.4151 0.49437 0.91073 0.52344 1.543h1.9355 1 1v-3h-1-1-3zm0.97852 4c-0.25761 1.2564-1.0577 2.2908-2.1289 3h3.1504v-3h-1.0215zm2.0215 0v3h3v-3h-3z" style="fill:#f1f2f2;opacity:.5;paint-order:markers fill stroke"/>
<path d="m5.4545 2c-1.8182 0.41045-1.994 1.7928-2.4545 3-0.33968 0.8903 0.25898 1.9833-0.12358 2.856-0.18964 0.43264-0.53418 1.085-0.99964 1.0045-0.67554-0.11687-0.87678-0.45586-0.87678-1.8605-0.49231 0.71003-1 1.5972-1 2.7394 0 1.8831 1.1229 3.7667 4.1229 4.2606h1.3849c2.3692 0 4.4922-1.6354 4.4922-3.889 0-0.75634-0.73846-1.6634-1-2.111 0 1.2966-0.15358 1.6065-0.81818 1.7394-0.34367 0.068737-0.69397-0.3107-0.81321-0.63281-0.30443-0.82239 0.58463-1.7033 0.52379-2.5781-0.062003-0.89162-0.41548-2.0037-0.8924-2.5285 0 1.3429-0.32302 2.3167-1.185 2.2991-0.64439-0.013153-0.73195-1.1143-0.81499-1.7534-0.11106-0.8548-0.101-1.6857 0.45455-2.5457z" style="fill:#f1f2f2;stroke-width:.07705"/>
</svg>
