<?xml version="1.0" encoding="UTF-8" standalone="no"?>
<!--Part of Monotone: https://github.com/sixsixfive/Monotone, released under cc-by-sa_v4-->
<svg xmlns="http://www.w3.org/2000/svg" xmlns:osb="http://www.openswatchbook.org/uri/2009/osb" version="1.1" viewBox="0 0 16 16">
 <title>Gnome Symbolic Icon Theme</title>
 <g style="" transform="translate(-503 145)" fill="#f1f2f2">
  <path d="m506-130.5a1.5 1.5 0 0 1 -1.5 1.5 1.5 1.5 0 0 1 -1.5 -1.5 1.5 1.5 0 0 1 1.5 -1.5 1.5 1.5 0 0 1 1.5 1.5z"/>
  <path d="m506-142.5a1.5 1.5 0 0 1 -1.5 1.5 1.5 1.5 0 0 1 -1.5 -1.5 1.5 1.5 0 0 1 1.5 -1.5 1.5 1.5 0 0 1 1.5 1.5z"/>
  <path d="m510-142.5a1.5 1.5 0 0 1 -1.5 1.5 1.5 1.5 0 0 1 -1.5 -1.5 1.5 1.5 0 0 1 1.5 -1.5 1.5 1.5 0 0 1 1.5 1.5z"/>
  <path d="m514-130.5a1.5 1.5 0 0 1 -1.5 1.5 1.5 1.5 0 0 1 -1.5 -1.5 1.5 1.5 0 0 1 1.5 -1.5 1.5 1.5 0 0 1 1.5 1.5z"/>
  <path d="m506-134.5a1.5 1.5 0 0 1 -1.5 1.5 1.5 1.5 0 0 1 -1.5 -1.5 1.5 1.5 0 0 1 1.5 -1.5 1.5 1.5 0 0 1 1.5 1.5z"/>
  <path d="m510-134.5a1.5 1.5 0 0 1 -1.5 1.5 1.5 1.5 0 0 1 -1.5 -1.5 1.5 1.5 0 0 1 1.5 -1.5 1.5 1.5 0 0 1 1.5 1.5z"/>
  <path d="m518-130.5a1.5 1.5 0 0 1 -1.5 1.5 1.5 1.5 0 0 1 -1.5 -1.5 1.5 1.5 0 0 1 1.5 -1.5 1.5 1.5 0 0 1 1.5 1.5z"/>
  <path d="m514-138.5a1.5 1.5 0 0 1 -1.5 1.5 1.5 1.5 0 0 1 -1.5 -1.5 1.5 1.5 0 0 1 1.5 -1.5 1.5 1.5 0 0 1 1.5 1.5z"/>
  <path d="m518-134.5a1.5 1.5 0 0 1 -1.5 1.5 1.5 1.5 0 0 1 -1.5 -1.5 1.5 1.5 0 0 1 1.5 -1.5 1.5 1.5 0 0 1 1.5 1.5z"/>
  <path d="m518-142.5a1.5 1.5 0 0 1 -1.5 1.5 1.5 1.5 0 0 1 -1.5 -1.5 1.5 1.5 0 0 1 1.5 -1.5 1.5 1.5 0 0 1 1.5 1.5z"/>
  <path d="m510-138.5a1.5 1.5 0 0 1 -1.5 1.5 1.5 1.5 0 0 1 -1.5 -1.5 1.5 1.5 0 0 1 1.5 -1.5 1.5 1.5 0 0 1 1.5 1.5z"/>
 </g>
</svg>
