<?xml version="1.0" encoding="UTF-8" standalone="no"?>
<!--Part of Monotone: https://github.com/sixsixfive/Monotone, released under cc-by-sa_v4-->
<svg xmlns="http://www.w3.org/2000/svg" viewBox="0 0 16 16" version="1.1">
 <path d="m1.9277 2c-0.5144 0-0.9277 0.4133-0.9277 0.9277v11.144c0 0.515 0.4133 0.928 0.9277 0.928h12.144c0.515 0 0.928-0.413 0.928-0.928v-11.144c0-0.5147-0.413-0.928-0.928-0.928h-12.144zm0.1446 1h1.8554c0.0396 0 0.0723 0.0327 0.0723 0.0723v1.8554c0 0.0396-0.0327 0.0723-0.0723 0.0723h-1.8554c-0.0396 0-0.0723-0.0327-0.0723-0.0723v-1.8554c0-0.0396 0.0327-0.0723 0.0723-0.0723zm3.4277 0h5c0.277 0 0.5 0.223 0.5 0.5s-0.223 0.5-0.5 0.5h-5c-0.277 0-0.5-0.223-0.5-0.5s0.223-0.5 0.5-0.5zm6.572 0h1.856c0.039 0 0.072 0.0327 0.072 0.0723v1.8554c0 0.0396-0.033 0.0723-0.072 0.0723h-1.856c-0.039 0-0.072-0.0327-0.072-0.0723v-1.8554c0-0.0396 0.033-0.0723 0.072-0.0723zm-5.072 2h3c-3.8697 2.7073 0.913 2.8109-0.9238 3.9746-1.1507 0.1376-2.0346 1.8004-0.0547 1.9644 0.8462 0.195 1.0335 0.419 0.9785 1.061h-5l2-7zm-4.9277 1h1.8554c0.0396 0 0.0723 0.0327 0.0723 0.0723v1.8554c0 0.0396-0.0327 0.0723-0.0723 0.0723h-1.8554c-0.0396 0-0.0723-0.0327-0.0723-0.0723v-1.8554c0-0.0396 0.0327-0.0723 0.0723-0.0723zm9.9997 0h1.856c0.039 0 0.072 0.0327 0.072 0.0723v1.8554c0 0.0396-0.033 0.0723-0.072 0.0723h-1.856c-0.039 0-0.072-0.0327-0.072-0.0723v-1.8554c0-0.0396 0.033-0.0723 0.072-0.0723zm-9.9997 3h1.8554c0.0396 0 0.0723 0.0327 0.0723 0.0723v1.8557c0 0.039-0.0327 0.072-0.0723 0.072h-1.8554c-0.0396 0-0.0723-0.033-0.0723-0.072v-1.8557c0-0.0396 0.0327-0.0723 0.0723-0.0723zm9.9997 0h1.856c0.039 0 0.072 0.0327 0.072 0.0723v1.8557c0 0.039-0.033 0.072-0.072 0.072h-1.856c-0.039 0-0.072-0.033-0.072-0.072v-1.8557c0-0.0396 0.033-0.0723 0.072-0.0723zm-9.9997 3h1.8554c0.0396 0 0.0723 0.033 0.0723 0.072v1.856c0 0.039-0.0327 0.072-0.0723 0.072h-1.8554c-0.0396 0-0.0723-0.033-0.0723-0.072v-1.856c0-0.039 0.0327-0.072 0.0723-0.072zm9.9997 0h1.856c0.039 0 0.072 0.033 0.072 0.072v1.856c0 0.039-0.033 0.072-0.072 0.072h-1.856c-0.039 0-0.072-0.033-0.072-0.072v-1.856c0-0.039 0.033-0.072 0.072-0.072zm-6.572 1h5c0.277 0 0.5 0.223 0.5 0.5s-0.223 0.5-0.5 0.5h-5c-0.277 0-0.5-0.223-0.5-0.5s0.223-0.5 0.5-0.5z" fill-opacity=".99827" fill="#f1f2f2"/>
</svg>
