<?xml version="1.0" encoding="UTF-8" standalone="no"?>
<!--Part of Monotone: https://github.com/sixsixfive/Monotone, released under cc-by-sa_v4-->
<svg id="svg8" xmlns="http://www.w3.org/2000/svg" version="1.1" viewBox="0 0 16 16"><g id="g6" fill="#f1f2f2"><path id="path2" style="text-decoration-line:none;text-transform:none;text-indent:0" font-family="Sans" d="m4.906 0.094a1 1 0 0 0 -0.375 1.875l0.469 0.25v2.75c-0.126 0.2-0.256 0.374-0.438 0.688-0.272 0.47-0.607 1.04-0.968 1.687-0.724 1.294-1.54 2.816-2.188 4-0.57 1.044-0.562 2.441 0.281 3.5 0.01 0.013 0.022 0.018 0.031 0.031 0.674 0.89 1.717 1.125 2.594 1.125h7.375c0.877 0 1.92-0.235 2.594-1.125 0.009-0.011 0.022-0.02 0.031-0.031 0.836-1.05 0.837-2.428 0.281-3.469-0.004-0.009 0.004-0.022 0-0.03-1.167-2.379-2.471-4.219-3.562-6.407v-2.688l0.5-0.28a1 1 0 0 0 -0.5 -1.876h-6.031a1 1 0 0 0 -0.094 0zm2.094 2h2.03v3.125a1 1 0 0 0 0.094 0.438c1.201 2.457 2.575 4.32 3.687 6.593a1 1 0 0 0 0.031 0.063c0.24 0.438 0.26 0.88-0.093 1.312a1 1 0 0 0 -0.063 0.031c-0.144 0.199-0.46 0.344-1 0.344h-7.374c-0.54 0-0.855-0.145-1-0.344a1 1 0 0 0 -0.062 -0.03c-0.354-0.432-0.334-0.875-0.094-1.313 0.646-1.182 1.47-2.717 2.188-4 0.358-0.642 0.705-1.203 0.968-1.656 0.264-0.454 0.474-0.84 0.5-0.875a1 1 0 0 0 0.188 -0.563z" overflow="visible" font-weight="400"/></g><rect id="rect4493" style="fill:#f1f2f2" height="4" width="1" y="9" x="6"/><rect id="rect4495" style="fill:#f1f2f2" height="1" width="1" y="9" x="7"/><rect id="rect4497" style="fill:#f1f2f2" height="4" width="1" y="9" x="9"/><rect id="rect4499" style="fill:#f1f2f2" height="1" width="1" y="12" x="10"/><rect id="rect4501" style="fill:#f1f2f2" height="1" width="1" y="11" x="7"/></svg>
