<?xml version="1.0" encoding="UTF-8"?>
<svg version="1.1" viewBox="0 0 16 16" xmlns="http://www.w3.org/2000/svg">
<path d="m4.043 1c-1.6861 0-3.043 1.3569-3.043 3.043v7.9141c0 0.10287 0.005582 0.20456 0.015625 0.30469h-0.015625v2.7383h2.7383v-0.015625c0.10013 0.01004 0.20182 0.015625 0.30469 0.015625h7.9141c1.6861 0 3.043-1.3569 3.043-3.043v-7.9141c0-0.10287-0.005615-0.20456-0.015625-0.30469h0.015625v-2.7383h-2.7383v0.015625a3.1056 3.1056 0 0 0-0.30469-0.015625h-7.9141zm4.0098 2c0.50013 8.029e-4 1.0008 0.018386 1.5 0.052734 0.54255 0.03684 1.083 0.098324 1.6211 0.18359 0.16019 0.049065 0.27008 0.11819 0.33008 0.20898 0.06269 0.090785 0.095703 0.1876 0.095703 0.28906 0 0.06642-0.010396 0.13752-0.029297 0.21094-0.0156 0.073429-0.041371 0.14199-0.076171 0.20508-0.034498 0.062754-0.080925 0.11453-0.14062 0.15625-0.056696 0.038719-0.12454 0.058594-0.20312 0.058594h-0.042969c-0.0126-0.003334-0.025416-0.0083788-0.041016-0.011719-0.20429-0.038708-0.42723-0.071571-0.66602-0.099609-0.2491-0.032504-0.49768-0.055823-0.74805-0.072266-0.26098-0.021029-0.53096-0.036289-0.81055-0.042969-0.27688-0.010348-0.55757-0.015625-0.84375-0.015625-0.084894 0-0.1889 0.005611-0.30859 0.015625-0.11317 0.010153-0.22509 0.022786-0.33789 0.037109-0.12569 0.014019-0.25759 0.031705-0.39258 0.052734 0 0.038388-0.0018125 0.081792-0.0078125 0.13086-0.006299 0.04873-0.016698 0.11764-0.029297 0.20508-0.012599 0.087447-0.027976 0.19943-0.046875 0.33594l-0.060547 0.5293c-0.025198 0.21328-0.05474 0.471-0.085938 0.77539-0.031798 0.30406-0.065719 0.40077-0.10352 0.82031h1.918c0.075298 0 0.13303 0.015733 0.17383 0.050781 0.0012 0.00334 0.0010531 0.0039062 0.0019531 0.0039062 0.035689 0.006178 0.07192 0.012131 0.10742 0.019531 0.16889 0.048396 0.24797 0.24955 0.19727 0.42578l0.37695 3.5781c0.15509-0.031708 0.14829-0.31738 0.23828-0.44922 0.28198-0.70892-0.0040479-1.9901 0.36133-2.6543 0.19799-0.37182 0.57802-0.59927 0.9668-0.56055 0.19739-0.01335 0.63601 0.31323 0.56641 0.56055-0.17894 0.95861-0.18765 2.0016-0.080078 3.1035 0.10769 0.021694 0.10284-0.13784 0.15234-0.21094 0.36268-0.86713 0.72251-2.3354 1.0879-3.2012 0.23578-0.34445 0.6983-0.40357 1.0469-0.26172 0.28678 0.093122 0.30632 0.46013 0.20312 0.7168-0.58701 1.2994-1.145 3.0815-2.084 4.2949-0.19949 0.24632-0.45892 0.5209-0.7793 0.49219-0.20608-0.20393-0.17752-0.56338-0.22852-0.84375-0.0462-0.56073-0.050634-1.1248-0.052734-1.6875-0.046501-0.00835-0.094725-0.017691-0.14062-0.025391-0.20339 0.78402-0.48327 1.5769-0.99023 2.1816-0.21419 0.25266-0.55491 0.49578-0.87109 0.32422-0.52756-1.1059-0.87798-3.318-1.0957-4.8496-0.12989 0.005674-0.25731 0.012191-0.4043 0.019531-0.38361 0.012464-0.067637 0.025887-0.45117 0.041016-0.16019 0.00534-0.28139 0.0058594-0.36328 0.0058594-0.054146 0.40941-0.11718 1.1179-0.19141 1.5234-0.072595 0.39151-0.16364 0.75878-0.27344 1.1016-0.10007 0.32244-0.22871 0.63283-0.38281 0.92774-0.14016 0.26962-0.31781 0.51219-0.52734 0.71875-0.20773 0.20161-0.44752 0.35752-0.70703 0.46094-0.26728 0.11214-0.57434 0.16797-0.91992 0.16797-0.19328-0.00236-0.38478-0.025659-0.57422-0.068359-0.11186-0.02492-0.2222-0.0583-0.33008-0.09961-0.10679-0.038721-0.20417-0.087074-0.28906-0.14648-0.084894-0.059745-0.15364-0.12888-0.20703-0.20898-0.053397-0.077433-0.080078-0.16807-0.080078-0.26953 0.002161-0.069193 0.010772-0.13834 0.027344-0.20508 0.02214-0.087814 0.055277-0.17066 0.095703-0.25 0.043019-0.079114 0.096876-0.151 0.16016-0.21094 0.066733-0.05958 0.15079-0.090091 0.23633-0.087891 0.11035 0.00112 0.21898 0.019701 0.32422 0.056641 0.12057 0.040012 0.241 0.083429 0.35938 0.13086 0.12239 0.04539 0.24796 0.088233 0.37695 0.12695 0.12869 0.03806 0.25863 0.056641 0.39062 0.056641 0.10379 0 0.20524-0.045609 0.30273-0.13672 0.097494-0.094456 0.18659-0.22194 0.27148-0.38281 0.088194-0.16455 0.1714-0.35336 0.25-0.57031 0.082467-0.23254 0.15739-0.46977 0.22266-0.70898 0.07115-0.26371 0.13574-0.52911 0.19336-0.79688 0.059696-0.27602 0.11367-0.85255 0.16406-1.1289h-0.67969c-0.1449-0.00284-0.28798-0.033696-0.42383-0.089844-0.072295-0.03505-0.1332-0.080976-0.18359-0.13672-0.050397-0.056073-0.076172-0.12521-0.076172-0.20898-1.111e-4 -0.05913 0.015203-0.11755 0.042969-0.16797 0.028198-0.052731 0.074629-0.090867 0.14062-0.11523l0.46289-0.11133c0.13199-0.031376 0.34873-0.057096 0.44922-0.078125 0.10379-0.024366 0.19484-0.045143 0.27344-0.0625 0.078595-0.017691 0.1508-0.032622 0.2168-0.042969 0.066008-0.3238 0.12477-0.34903 0.17773-0.67578 0.044398-0.27602 0.083736-0.52442 0.11523-0.74805 0.031498-0.2273 0.059393-0.44137 0.087891-0.64062 0.028198-0.19926 0.061812-0.41114 0.099609-0.63477-0.27358 0.087447-0.71112 0.19229-0.91211 0.31445-0.20129 0.12249-0.36801 0.25435-0.5 0.39453-0.13199 0.13985-0.22802 0.28535-0.29102 0.43555-0.062996 0.15019-0.095703 0.29593-0.095703 0.43945 0 0.00701-9.063e-4 0.032162-0.0039063 0.074219-0.006143 0.04997-0.0247 0.097085-0.052734 0.13672-0.031498 0.049058-0.082302 0.092139-0.1543 0.13086-0.069295 0.038052-0.17165 0.056641-0.30664 0.056641-0.18239 0-0.32589-0.010221-0.42969-0.03125-0.10049-0.024032-0.17647-0.055698-0.22656-0.09375-0.042077-0.033998-0.07361-0.081753-0.089844-0.13672-0.009599-0.052071-0.013672-0.1058-0.013672-0.1582 0-0.52101 0.11773-0.96708 0.35352-1.3379 0.23548-0.37382 0.56606-0.67999 0.99023-0.91797 0.42747-0.23764 1.1385-0.41162 1.7324-0.52344 0.59696-0.11181 1.2547-0.16797 1.9746-0.16797v-0.0019531z" style="fill-rule:evenodd;fill:#f1f2f2;stroke-width:.30435"/>
</svg>
