<?xml version="1.0" encoding="UTF-8" standalone="no"?>
<!--Part of Monotone: https://github.com/sixsixfive/Monotone, released under cc-by-sa_v4-->
<svg xmlns="http://www.w3.org/2000/svg" version="1.1" viewBox="0 0 16 16">
 <path fill="#f1f2f2" d="m1.5215 10.998c0.0034 0 0.0063 0.002 0.0097 0.002h5.4688v2h-5.5312a0.464 0.464 0 0 0 -0.4688 0.469v1.0605c0 0.262 0.2058 0.47 0.4688 0.47h13.061a0.464 0.464 0 0 0 0.46875 -0.4707v-1.06a0.464 0.464 0 0 0 -0.47 -0.469h-5.529v-2h5.4688a0.525 0.525 0 0 0 0.02734 -0.002z"/>
 <path d="m2 1c-0.554 0-1 0.446-1 1v8c0 0.554 0.446 1 1 1h12c0.554 0 1-0.446 1-1v-6c0-0.554-0.446-1.0039-1-1h-3.77l-2.23-2zm1 3h10c0.554 0 1 0.446 1 1v4c0 0.554-0.446 1-1 1h-10c-0.554 0-1-0.446-1-1v-4c0-0.554 0.446-1 1-1z" fill="#f1f2f2"/>
</svg>
