<?xml version="1.0" encoding="UTF-8" standalone="no"?>
<!--Part of Monotone: https://github.com/sixsixfive/Monotone, released under cc-by-sa_v4-->
<svg xmlns="http://www.w3.org/2000/svg" version="1.1" viewBox="0 0 16 16">
<path d="m2 2c-0.554 0-1 0.446-1 1v11c0 0.554 0.446 1 1 1h12c0.554 0 1-0.446 1-1v-9c0-0.554-0.446-1.0039-1-1h-3.77l-2.23-2h-6zm1 3h10c0.554 0 1 0.446 1 1v7c0 0.554-0.446 1-1 1h-10c-0.554 0-1-0.446-1-1v-7c0-0.554 0.446-1 1-1z" fill="#f1f2f2"/>
<g fill="#f1f2f2" transform="translate(-20,3)">
<path stroke-width=".5" d="m24.5 5c-0.25 0-0.5 0.25-0.5 0.5v2c0 0.25 0.25 0.5 0.5 0.5h0.5v-1h6v1h0.5c0.25 0 0.5-0.25 0.5-0.5v-2c0-0.25-0.25-0.5-0.5-0.5z"/>
<path stroke-width=".5" d="m26 3v1h4v-1z"/>
<path stroke-width=".44721" d="m26 8v2h4v-2z"/>
</g>
</svg>
