<?xml version="1.0" encoding="UTF-8" standalone="no"?>
<!--Part of Monotone: https://github.com/sixsixfive/Monotone, released under cc-by-sa_v4-->
<svg xmlns="http://www.w3.org/2000/svg" version="1.1" viewBox="0 0 16 16">
 <path d="m2 2c-0.554 0-1 0.446-1 1v11c0 0.554 0.446 1 1 1h12c0.554 0 1-0.446 1-1v-9c0-0.554-0.446-1.0039-1-1h-3.77l-2.23-2h-6zm1 3h10c0.554 0 1 0.446 1 1v7c0 0.554-0.446 1-1 1h-10c-0.554 0-1-0.446-1-1v-7c0-0.554 0.446-1 1-1z" fill="#f1f2f2"/>
 <g fill="#f1f2f2" transform="translate(-21,3)">
  <path style="color:#f1f2f2" d="m27 6.4871-1.47-1.4871h-0.53v3h0.5z" stroke-width=".65465"/>
  <rect ry=".71429" height="5" width="6" y="4" x="27"/>
 </g>
</svg>
