<?xml version="1.0" encoding="UTF-8" standalone="no"?>
<svg
   xmlns:dc="http://purl.org/dc/elements/1.1/"
   xmlns:cc="http://creativecommons.org/ns#"
   xmlns:rdf="http://www.w3.org/1999/02/22-rdf-syntax-ns#"
   xmlns:svg="http://www.w3.org/2000/svg"
   xmlns="http://www.w3.org/2000/svg"
   id="svg4"
   viewBox="0 0 16 16"
   version="1.1">
  <metadata
     id="metadata10">
    <rdf:RDF>
      <cc:Work
         rdf:about="">
        <dc:format>image/svg+xml</dc:format>
        <dc:type
           rdf:resource="http://purl.org/dc/dcmitype/StillImage" />
        <dc:title></dc:title>
      </cc:Work>
    </rdf:RDF>
  </metadata>
  <defs
     id="defs8" />
  <path
     style="fill:#f1f2f2"
     id="path2"
     d="M 2 2 C 1.446 2 1 2.446 1 3 L 1 14 C 1 14.554 1.446 15 2 15 L 9.3828125 15 L 9.1054688 14.447266 A 1.0001 1.0001 0 0 1 9 14 L 3 14 C 2.446 14 2 13.554 2 13 L 2 6 C 2 5.446 2.446 5 3 5 L 13 5 C 13.554 5 14 5.446 14 6 L 14 9 A 1.0001 1.0001 0 0 1 14.447266 9.1054688 L 15 9.3828125 L 15 5 C 15 4.446 14.554 3.9961 14 4 L 10.230469 4 L 8 2 L 2 2 z M 15 13.617188 L 14.447266 13.894531 A 1.0001 1.0001 0 0 1 14 14 A 1.0001 1.0001 0 0 1 13.894531 14.447266 L 13.617188 15 L 14 15 C 14.554 15 15 14.554 15 14 L 15 13.617188 z " />
  <path
     id="rect26"
     d="m 11,7 -1,2 h 1 v 2 H 9 v -1 l -2,1 v 1 l 2,1 v -1 h 2 v 2 h -1 l 1,2 h 1 l 1,-2 h -1 v -2 h 2 v 1 l 2,-1 v -1 l -2,-1 v 1 H 12 V 9 h 1 L 12,7 Z"
     style="opacity:1;fill:#f1f2f2;fill-opacity:0.99773751;stroke:none;stroke-width:1.40312147;stroke-linecap:round;stroke-linejoin:round;stroke-miterlimit:4;stroke-dasharray:none;stroke-opacity:1;paint-order:markers fill stroke" />
</svg>
