<?xml version="1.0" encoding="UTF-8"?>
<!--Part of Monotone: https://github.com/sixsixfive/Monotone, released under cc-by-sa_v4-->
<svg version="1.1" viewBox="0 0 16 16" xmlns="http://www.w3.org/2000/svg">
<path d="m2 2c-0.554 0-1 0.446-1 1v11c0 0.554 0.446 1 1 1h12c0.554 0 1-0.446 1-1v-9c0-0.554-0.446-1.0039-1-1h-3.77l-2.23-2h-6zm1 3h10c0.554 0 1 0.446 1 1v7c0 0.554-0.446 1-1 1h-10c-0.554 0-1-0.446-1-1v-7c0-0.554 0.446-1 1-1z" fill="#f1f2f2"/>
<path d="m5 2.0002v1h-1v1h1v1h-1v1h1v2h-1c-0.554 0-1 0.446-1 1s0.446 1 1 1v1.9238c0 0.596 0.4795 1.076 1.0762 1.076h0.8476c0.5967 0 1.0762-0.48 1.0762-1.076v-1.924c0.554 0 1-0.446 1-1s-0.446-1-1-1h-1v-1h1v-1h-1v-1h1v-1h-1v-1h1v-1zm0.5 9c0.2761 0 0.5 0.224 0.5 0.5s-0.2239 0.5-0.5 0.5-0.5-0.224-0.5-0.5 0.2239-0.5 0.5-0.5z" fill="#f1f2f2"/>
</svg>
