<?xml version="1.0" encoding="UTF-8" standalone="no"?>
<!--Part of Monotone: https://github.com/sixsixfive/Monotone, released under cc-by-sa_v4-->
<svg xmlns="http://www.w3.org/2000/svg" version="1.1" viewBox="0 0 16 16">
 <path d="m2 2c-0.554 0-1 0.446-1 1v11c0 0.554 0.446 1 1 1h12c0.554 0 1-0.446 1-1v-9c0-0.554-0.446-1.0039-1-1h-3.77l-2.23-2h-6zm1 3h10c0.554 0 1 0.446 1 1v7c0 0.554-0.446 1-1 1h-10c-0.554 0-1-0.446-1-1v-7c0-0.554 0.446-1 1-1z" fill="#f1f2f2"/>
 <g fill="#f1f2f2" transform="translate(-21,3)">
  <path d="m6.5 7c-0.277 0-0.5 0.223-0.5 0.5 0 0.0194 0.0096 0.0358 0.0117 0.0547-0.0022 0.0242-0.0117 0.0453-0.0117 0.0703v2.463a1.5 1.5 0 0 0 -0.5 -0.088 1.5 1.5 0 0 0 -1.5 1.5 1.5 1.5 0 0 0 1.5 1.5 1.5 1.5 0 0 0 1.5 -1.5 1.5 1.5 0 0 0 -0.0039 -0.105c0.0002-0.007 0.0039-0.013 0.0039-0.02v-3.375h3v2.088a1.5 1.5 0 0 0 -0.5 -0.088 1.5 1.5 0 0 0 -1.5 1.5 1.5 1.5 0 0 0 1.5 1.5 1.5 1.5 0 0 0 1.5 -1.5 1.5 1.5 0 0 0 -0.004 -0.102 1.5 1.5 0 0 0 0 -0.003c0-0.007 0.004-0.013 0.004-0.02v-3.75c0-0.025-0.009-0.0461-0.012-0.0703 0.002-0.0189 0.012-0.0353 0.012-0.0547 0-0.277-0.223-0.5-0.5-0.5h-4zm-1 4a0.5 0.5 0 0 1 0.5 0.5 0.5 0.5 0 0 1 -0.5 0.5 0.5 0.5 0 0 1 -0.5 -0.5 0.5 0.5 0 0 1 0.5 -0.5zm4 0a0.5 0.5 0 0 1 0.5 0.5 0.5 0.5 0 0 1 -0.5 0.5 0.5 0.5 0 0 1 -0.5 -0.5 0.5 0.5 0 0 1 0.5 -0.5z" transform="translate(21,-3)" fill="#f1f2f2"/>
 </g>
</svg>
