<?xml version="1.0" encoding="UTF-8" standalone="no"?>
<!--Part of Monotone: https://github.com/sixsixfive/Monotone, released under cc-by-sa_v4-->
<svg xmlns="http://www.w3.org/2000/svg" version="1.1" viewBox="0 0 16 16">
 <path d="m2 2c-0.554 0-1 0.446-1 1v11c0 0.554 0.446 1 1 1h12c0.554 0 1-0.446 1-1v-9c0-0.554-0.446-1.0039-1-1h-3.77l-2.23-2h-6zm1 3h10c0.554 0 1 0.446 1 1v7c0 0.554-0.446 1-1 1h-10c-0.554 0-1-0.446-1-1v-7c0-0.554 0.446-1 1-1z" fill="#f1f2f2"/>
 <path style="color:#000000" d="m8.75 7a1.245 1.3833 0 0 0 -1.2345 1.2328c-0.1635-0.0678-0.3305-0.1217-0.5155-0.1217a1.5 1.6667 0 0 0 -1.5 1.6667c0 0.054444 0.011 0.10278 0.0155 0.15611a1.007 1.1189 0 0 0 -0.5155 -0.15611 1 1.1111 0 1 0 0 2.2222h6.25a0.75 0.83333 0 1 0 0 -1.6667c-0.1035 0-0.207 0.02778-0.297 0.06944a1.22 1.3556 0 0 0 0.047 -0.346c0-0.6838-0.446-1.2382-1.0315-1.3549a1.25 1.3889 0 0 0 -1.2185 -1.7011z" overflow="visible" stroke-width=".52705" fill="#f1f2f2"/>
</svg>
