<!--Part of Monotone: https://github.com/sixsixfive/Monotone, released under cc-by-sa_v4-->
<svg xmlns="http://www.w3.org/2000/svg" viewBox="0 0 16 16">
    <g font-weight="400" fill="#f1f2f2">
        <path style="line-height:normal;-inkscape-font-specification:'Bitstream Vera Sans';text-indent:0;text-align:start;text-decoration-line:none;text-transform:none;marker:none" d="M0 5v1c0 .257.13.528.313.719L1.593 8 .314 9.281C.13 9.471 0 9.743 0 10v1h1c.31 0 .552-.09.75-.281L4.406 8 1.75 5.281C1.552 5.091 1.31 5 1 5zm16 0v1c0 .257-.13.528-.312.719L14.406 8l1.282 1.281c.182.19.312.462.312.719v1h-1c-.31 0-.552-.09-.75-.281L11.594 8l2.656-2.719c.198-.19.44-.281.75-.281z" color="#f1f2f2" font-family="Bitstream Vera Sans" overflow="visible"/>
        <path style="line-height:normal;-inkscape-font-specification:Sans;text-indent:0;text-align:start;text-decoration-line:none;text-transform:none;marker:none" d="M7 3v2h1.906C8.851 5 9 5.171 9 5.094v.937H8c-1.716 0-3.038 1.11-3.063 2.469-.012.68.32 1.353.875 1.812.556.46 1.31.72 2.188.72h3V5.093C11 3.923 10.103 3 8.906 3zm1 5.031h1v1H8c-.52 0-.78-.145-.906-.25-.126-.104-.158-.178-.157-.25.003-.144.093-.5 1.063-.5z" color="#000" font-family="Sans" overflow="visible"/>
    </g>
</svg>
