<!--Part of Monotone: https://github.com/sixsixfive/Monotone, released under cc-by-sa_v4-->
<svg xmlns="http://www.w3.org/2000/svg" viewBox="0 0 16 16">
    <path style="line-height:normal;-inkscape-font-specification:Sans;text-indent:0;text-align:start;text-decoration-line:none;text-transform:none;marker:none" d="M4 2v2h6c.428 0 1 .614 1 1v1H6c-.92 0-1.736.384-2.25.969A3.017 3.017 0 0 0 3 9c.006.72.269 1.453.781 2.031C4.293 11.61 5.091 12 6 12h7V5a3 3 0 0 0-3-3zm2 6h5v2H6c-.398 0-.567-.11-.719-.281A1.144 1.144 0 0 1 5 9c-.002-.28.104-.554.25-.719C5.395 8.116 5.577 8 6 8zm-4 5v2h12v-2z" overflow="visible" color="#000" font-weight="400" font-family="Sans" fill="#f1f2f2"/>
</svg>
