<?xml version="1.0" encoding="UTF-8"?>
<!--Part of Monotone: https://github.com/sixsixfive/Monotone, released under cc-by-sa_v4-->
<svg version="1.1" viewBox="0 0 16 16" xmlns="http://www.w3.org/2000/svg">
<g fill="#f1f2f2" font-weight="400">
<path d="m9.9995 5v2h3.0005c0.428 0 1 0.613 1 1v1h-2.0005c-0.92 0-1.735 0.383-2.25 0.968-0.49267 0.56089-0.75989 1.2845-0.75 2.031 6e-3 0.72 0.27 1.453 0.781 2.032 0.513 0.578 1.31 0.968 2.22 0.968h4.0005v-7c0-1.6569-1.3431-3-3-3zm2 6h2.0005v2h-2.0005c-0.398 0-0.567-0.11-0.719-0.282-0.17378-0.20001-0.27275-0.45414-0.28-0.719-0.0038-0.2613 0.08474-0.51556 0.25-0.718 0.144-0.166 0.327-0.282 0.75-0.282z" font-size="xx-small" overflow="visible" style="text-decoration-line:none;text-indent:0;text-transform:none"/>
<path d="m3 1c-1 0-2 1-2 2v12h2v-4h3v4h2v-12c0-1-1-2-2-2zm1 2h1c0.52105 0 1 0.54711 1 1v5h-3v-5c0-0.48995 0.43073-1 1-1z" style="fill:#f1f2f2"/>
</g>
</svg>
