<?xml version="1.0" encoding="UTF-8" standalone="no"?>
<!--Part of Monotone: https://github.com/sixsixfive/Monotone, released under cc-by-sa_v4-->
<svg id="svg10" xmlns="http://www.w3.org/2000/svg" version="1.1" viewBox="0 0 16 16"><path id="path2" style="color:#000000;text-indent:0;text-decoration-line:none;text-transform:none;fill:#f1f2f2" d="m2 0v2h6c0.428 0 1 0.614 1 1v1h-5c-0.92 0-1.735 0.384-2.25 0.969a3.017 3.017 0 0 0 -0.75 2.031c0.006 0.72 0.269 1.453 0.781 2.031 0.513 0.579 1.31 0.969 2.22 0.969h7v-7a3 3 0 0 0 -3 -3zm2 6h5v2h-5c-0.398 0-0.567-0.11-0.719-0.281a1.144 1.144 0 0 1 -0.28 -0.719c-0.003-0.28 0.104-0.554 0.25-0.719 0.143-0.165 0.326-0.281 0.749-0.281z" font-size="xx-small" overflow="visible"/><path id="path4" style="color:#000000;text-indent:0;text-decoration-line:none;text-transform:none;fill:#f1f2f2" d="m16 11h-1c-0.265 0-0.52975 0.09325-0.71875 0.28125l-0.281 0.281v-11.624h-2v11.624l-0.281-0.281a1.015 1.015 0 0 0 -0.719 -0.281h-1v1c0 0.265 0.09325 0.52975 0.28125 0.71875l2 2 0.281 0.281h0.875l0.28125-0.28125 2-2a1.015 1.015 0 0 0 0.282 -0.719z"/></svg>
