<?xml version="1.0" encoding="UTF-8" standalone="no"?>
<svg
   xmlns:dc="http://purl.org/dc/elements/1.1/"
   xmlns:cc="http://creativecommons.org/ns#"
   xmlns:rdf="http://www.w3.org/1999/02/22-rdf-syntax-ns#"
   xmlns:svg="http://www.w3.org/2000/svg"
   xmlns="http://www.w3.org/2000/svg"
   id="svg8"
   viewBox="0 0 16 16"
   version="1.1">
  <metadata
     id="metadata14">
    <rdf:RDF>
      <cc:Work
         rdf:about="">
        <dc:format>image/svg+xml</dc:format>
        <dc:type
           rdf:resource="http://purl.org/dc/dcmitype/StillImage" />
        <dc:title></dc:title>
      </cc:Work>
    </rdf:RDF>
  </metadata>
  <defs
     id="defs12" />
  <g
     id="g6"
     font-weight="400"
     fill="#f1f2f2">
    <path
       id="path4"
       style="fill:#f1f2f2"
       d="m3 1c-1 0-2 1-2 2v12h2v-4h3v4h2v-12c0-1-1-2-2-2zm1 2h1c0.52105 0 1 0.54711 1 1v5h-3v-5c0-0.48995 0.43073-1 1-1z" />
    <path
       d="M 11,1 C 10,1 9,2 9,3 v 12 h 2 v -4 h 3 v 4 h 2 V 3 C 16,2 15,1 14,1 Z m 1,2 h 1 c 0.52105,0 1,0.54711 1,1 V 9 H 11 V 4 c 0,-0.48995 0.43073,-1 1,-1 z"
       style="fill:#f1f2f2"
       id="path16" />
  </g>
</svg>
