<?xml version="1.0" encoding="UTF-8" standalone="no"?>
<!--Part of Monotone: https://github.com/sixsixfive/Monotone, released under cc-by-sa_v4-->
<svg id="svg7384" style="enable-background:new" xmlns="http://www.w3.org/2000/svg" xmlns:osb="http://www.openswatchbook.org/uri/2009/osb" viewBox="0 0 16 16" version="1.1"><title id="title8473">Moka Symbolic Icon Theme</title><g id="layer12" transform="translate(-397 -201)"><path id="path11643-3-2" style="block-progression:tb;text-indent:0;color:#000000;enable-background:accumulate;text-transform:none;fill:#f1f2f2" d="m401 204v2h4.1562l2-2c-0.0513-0.003-0.10426 0-0.15625 0h-6zm9 2.8438-3.1562 3.1562h1.1562v2h-3.1562l-2 2c0.0528 0.003 0.10267 0 0.15625 0h6c0.9998-0.00002 1-1 1-1v-6c0-0.0532 0.003-0.10368 0-0.15625zm-7 1.1562c-0.91927 0-1.7356 0.38396-2.25 0.96875s-0.75639 1.3106-0.75 2.0312c0.00036 0.043 0.0291 0.0819 0.0312 0.125l3.125-3.125h-0.15625z"/><path id="path2986-2" style="color:#000000;enable-background:accumulate;fill:#f1f2f2" d="m410.66 201.94-12.719 12.719 1.4062 1.4062 12.719-12.719z"/></g></svg>
