<?xml version="1.0" encoding="UTF-8"?>
<svg version="1.1" viewBox="0 0 16 16" xmlns="http://www.w3.org/2000/svg">
<path d="m8 1c-3.697 0-6.717 2.8686-6.9746 6.5h2.9746v1h-2.9746c0.25763 3.6314 3.2776 6.5 6.9746 6.5 3.697 0 6.717-2.8686 6.9746-6.5h-2.9746v-1h2.9746c-0.25763-3.6314-3.2776-6.5-6.9746-6.5zm-3.5527 2.7773 1.0527 2.1055-0.55859 1.1172-1.3887-2.7754 0.89453-0.44727zm7.1055 0 0.89453 0.44727-3 6-0.89453-0.44727 3-6zm-5 2 0.89453 0.44727-3 6-0.89453-0.44726 3-6zm2 0 0.89453 0.44727-2 4-0.89453-0.44727 2-4zm2.5059 3.2246 1.3887 2.7754-0.89453 0.44726-1.0527-2.1035 0.55859-1.1191z" style="fill:#f1f2f2"/>
</svg>
