<?xml version="1.0" encoding="UTF-8" standalone="no"?>
<!--Part of Monotone: https://github.com/sixsixfive/Monotone, released under cc-by-sa_v4-->
<svg id="svg4" xmlns="http://www.w3.org/2000/svg" viewBox="0 0 16 16" version="1.1"><path id="path2" style="stroke-width:1.1667;fill:#f1f2f2" d="m2.3848 1c-0.7747 0-1.3848 0.6402-1.3848 1.4219v11.156c0 0.782 0.6113 1.422 1.3848 1.422h11.228c0.775 0 1.387-0.64 1.387-1.422v-11.154c0-0.783-0.612-1.424-1.387-1.424h-11.228zm1.6152 2h2v2h4v-2h2v2h1v2 2h-2v2h2v2h-2v-2h-6v2h-2v-2h2v-2h-2v-2-2h1v-2zm1 6h6v-2h-6v2z"/></svg>
