<?xml version="1.0" encoding="UTF-8"?>
<svg version="1.1" viewBox="0 0 16 16" xmlns="http://www.w3.org/2000/svg">
<g fill="#f1f2f2">
<path d="M 8.5,2 A 7.5,5.5 0 0 1 16,7.5 7.5,5.5 0 0 1 13.521484,11.578125 C 13.545493,12.691189 13.966373,14.121398 15,15 11.884252,14.367606 11.305009,13.562233 10.685547,12.759766 A 7.5,5.5 0 0 1 8.5,13 7.5,5.5 0 0 1 8.21875,12.992188 7,5.5 0 0 1 8,13 7,5.5 0 0 1 1.056641,8.140625 7.5,5.5 0 0 1 1.033203,7.9902344 7,5.5 0 0 1 1,7.5 7.5,5.5 0 0 1 1.029297,7.0585938 7,5.5 0 0 1 1.109375,6.5644531 7,5.5 0 0 1 8,2 7,5.5 0 0 1 8.2421875,2.0097656 7.5,5.5 0 0 1 8.5,2 Z m 4,4 A 1.5,1.5 0 0 0 11,7.5 1.5,1.5 0 0 0 12.5,9 1.5,1.5 0 0 0 14,7.5 1.5,1.5 0 0 0 12.5,6 Z m -4,0 A 1.5,1.5 0 0 0 7,7.5 1.5,1.5 0 0 0 8.5,9 1.5,1.5 0 0 0 10,7.5 1.5,1.5 0 0 0 8.5,6 Z m -4,0 A 1.5,1.5 0 0 0 3,7.5 1.5,1.5 0 0 0 4.5,9 1.5,1.5 0 0 0 6,7.5 1.5,1.5 0 0 0 4.5,6 Z" style="fill:#f1f2f2"/>
</g>
</svg>
