<?xml version="1.0" encoding="UTF-8" standalone="no"?>
<!--Part of Monotone: https://github.com/sixsixfive/Monotone, released under cc-by-sa_v4-->
<svg xmlns="http://www.w3.org/2000/svg" version="1.1" xmlns:xlink="http://www.w3.org/1999/xlink" viewBox="0 0 16 16">
 <defs>
  <linearGradient id="b" gradientUnits="userSpaceOnUse" x2="0" gradientTransform="translate(0 -1004.4)" y1="1012.4" y2="1018.4">
   <stop stop-color="#fff" offset="0"/>
   <stop stop-opacity="0" stop-color="#fff" offset="1"/>
  </linearGradient>
 </defs>
 <g fill="none">
  <path opacity=".4" stroke="#000" d="m41.813-1016.9l4.374 3.5-4.374 3.5h-32.313v-7h32.313z"/>
  <path opacity=".4" stroke="url(#b)" d="m9.563 8.515l-3.126 2.5 3.125 2.5h30.938v-5h-30.938z" transform="matrix(-1 0 0 1 51 -1024.4)"/>
 </g>
 <path d="m7.5 1c-0.277 0-0.5 0.223-0.5 0.5v0.5h2v-0.5c0-0.277-0.223-0.5-0.5-0.5h-1zm-3.4004 2c-0.0069 0-0.0127 0.0036-0.0195 0.0039-0.1732 0.0104-0.3414 0.0545-0.4922 0.1289l-1 0.502-0.9981 0.498-0.0019 0.002c-0.1911 0.0952-0.3357 0.1644-0.4317 0.2207l-0.0019 0.0019c-0.0951 0.0563-0.1417 0.0991-0.1406 0.1426-0.0011 0.0435 0.0455 0.0863 0.1406 0.1426l0.0019 0.0019c0.0961 0.0566 0.2403 0.1249 0.4317 0.2207l0.0019 0.002 0.9981 0.498 1 0.502c0.0754 0.0372 0.1557 0.0663 0.2383 0.0879 0.0825 0.0216 0.1673 0.0358 0.2539 0.041 0.0013 0.0001 0.0026-0.0001 0.0039 0 0.0055 0.0002 0.01 0.0039 0.0156 0.0039h0.0313 0.0078 2.3613 0.5 2 1.5 2c0.21 0 0.386-0.1282 0.461-0.3105 0.025-0.0573 0.039-0.1203 0.039-0.1895v-2c0-0.0679-0.015-0.1325-0.039-0.1914-0.075-0.1814-0.252-0.3086-0.461-0.3086h-2.355-1.145-2-0.5-2.3613-0.0391zm0.4004 1h1c0.277 0 0.5 0.223 0.5 0.5s-0.223 0.5-0.5 0.5h-1c-0.277 0-0.5-0.223-0.5-0.5s0.223-0.5 0.5-0.5zm3 0h3c0.277 0 0.5 0.223 0.5 0.5s-0.223 0.5-0.5 0.5h-3c-0.277 0-0.5-0.223-0.5-0.5s0.223-0.5 0.5-0.5zm-0.5 3v1h2v-1h-2zm-3.4863 2c-0.2098 0-0.3865 0.1282-0.461 0.3105-0.0254 0.0573-0.039 0.1203-0.039 0.1895v2c0 0.068 0.0147 0.132 0.039 0.191 0.0749 0.182 0.2519 0.309 0.461 0.309h2.6445 0.8418 2 1.5 1.375 0.039c0.007 0 0.013-0.004 0.02-0.004 0.173-0.01 0.341-0.054 0.492-0.129l1-0.502 0.998-0.498 0.002-0.002c0.191-0.095 0.336-0.164 0.431-0.22l0.002-0.002c0.095-0.057 0.142-0.1 0.141-0.143 0.001-0.044-0.046-0.086-0.141-0.143l-0.002-0.002c-0.096-0.056-0.24-0.124-0.431-0.22l-0.002-0.002-0.998-0.4982-1-0.502c-0.076-0.0372-0.156-0.0663-0.238-0.0879-0.083-0.0216-0.168-0.0358-0.254-0.041-0.002-0.0001-0.003 0.0001-0.004 0-0.006-0.0001-0.01-0.0039-0.016-0.0039h-0.031-0.008-1.752-1.123-2-0.8867-2.5996zm1.9863 1h5c0.277 0 0.5 0.223 0.5 0.5s-0.223 0.5-0.5 0.5h-5c-0.277 0-0.5-0.223-0.5-0.5s0.223-0.5 0.5-0.5zm1.5 3v1.5c0 0.277 0.223 0.5 0.5 0.5h1c0.277 0 0.5-0.223 0.5-0.5v-1.5h-2z" fill="#f1f2f2"/>
</svg>
