<?xml version="1.0" encoding="UTF-8"?>
<svg version="1.1" viewBox="0 0 16 16" xmlns="http://www.w3.org/2000/svg">
<path d="m3 1v3 9 2h4 3 1c1.108 0 2-0.892 2-2v-10-2h-8-2zm1 1h8v5c0 0.554-0.446 1-1 1h-7v-6zm1 8h1v1h1v1h-1v1h-1v-1h-1v-1h1v-1zm6.5 0c0.27614 0 0.5 0.22386 0.5 0.5s-0.22386 0.5-0.5 0.5-0.5-0.22386-0.5-0.5 0.22386-0.5 0.5-0.5zm-2 1c0.27614 0 0.5 0.22386 0.5 0.5s-0.22386 0.5-0.5 0.5-0.5-0.22386-0.5-0.5 0.22386-0.5 0.5-0.5z" style="fill:#f1f2f2;opacity:.9"/>
<rect x="6" y="3" width="4" height="4" style="fill:#f1f2f2;paint-order:markers fill stroke"/>
</svg>
