<?xml version="1.0" encoding="UTF-8" standalone="no"?>
<!--Part of Monotone: https://github.com/sixsixfive/Monotone, released under cc-by-sa_v4-->
<svg xmlns="http://www.w3.org/2000/svg" version="1.1" viewBox="0 0 16 16">
 <g fill="#f1f2f2">
  <path d="m7 1c-1.645 0-3 1.355-3 3v3h-1c-0.554 0-1 0.446-1 1v1h12v-1c0-0.554-0.446-1-1-1h-1v-3c0-1.645-1.355-3-3-3h-2zm0 2h2c0.571 0 1 0.429 1 1v3h-4v-3c0-0.571 0.429-1 1-1z"/>
  <path stroke-width="1.2247" d="m1.5 9c-0.277 0-0.5 0.223-0.5 0.5v5c0 0.277 0.223 0.5 0.5 0.5h13c0.277 0 0.5-0.223 0.5-0.5v-5c0-0.277-0.223-0.5-0.5-0.5h-13zm0.5 1h12v4h-12v-4z"/>
  <circle cx="4" cy="12" r="1"/>
  <circle cx="7" cy="12" r="1"/>
  <circle cx="10" cy="12" r="1"/>
 </g>
</svg>
