<?xml version="1.0" encoding="UTF-8" standalone="no"?>
<!--Part of Monotone: https://github.com/sixsixfive/Monotone, released under cc-by-sa_v4-->
<svg id="svg8570" xmlns="http://www.w3.org/2000/svg" version="1.1" viewBox="0 0 16 16"><g id="layer1" transform="translate(0 -1036.4)"><rect id="rect5839-9" style="opacity:.35;color:#bebebe;fill:#f1f2f2" rx="0" ry="0" height="5" width="14" y="1046.4" x="1"/><path id="rect11749-5-0-9" style="color-rendering:auto;text-decoration-color:#000000;color:#bebebe;shape-rendering:auto;solid-color:#000000;text-decoration-line:none;fill:#f1f2f2;mix-blend-mode:normal;block-progression:tb;text-indent:0;image-rendering:auto;white-space:normal;text-decoration-style:solid;isolation:auto;text-transform:none" d="m2.1953 1036.4c-1.2051 0-2.1953 1-2.1953 2.2v12.799a1.0001 1.0001 0 0 0 1 1h14a1.0001 1.0001 0 0 0 1 -1v-12.799c0-1.2008-0.99019-2.209-2.1953-2.209h-11.609zm0 2h11.609c0.12025 0 0.19531 0.07 0.19531 0.209v11.799h-12v-11.799c0-0.1386 0.075058-0.209 0.19531-0.209z"/><path id="rect11749-5-0-9-8" style="color-rendering:auto;text-decoration-color:#000000;color:#bebebe;shape-rendering:auto;solid-color:#000000;text-decoration-line:none;fill:#f1f2f2;mix-blend-mode:normal;block-progression:tb;text-indent:0;image-rendering:auto;white-space:normal;text-decoration-style:solid;isolation:auto;text-transform:none" d="m2 1045.4v2h12v-2h-12z"/><path id="path8300-0-8-4" style="color-rendering:auto;text-decoration-color:#000000;color:#bebebe;shape-rendering:auto;solid-color:#000000;text-decoration-line:none;fill:#f1f2f2;mix-blend-mode:normal;block-progression:tb;text-indent:0;image-rendering:auto;white-space:normal;text-decoration-style:solid;isolation:auto;text-transform:none" d="m9.9785 1041.4a0.50005 0.50005 0 0 0 -0.35547 0.834l3.5 4a0.5004 0.5004 0 1 0 0.75391 -0.6582l-3.5-4a0.50005 0.50005 0 0 0 -0.39844 -0.1758z"/><path id="path8300-0-8-4-7" style="color-rendering:auto;text-decoration-color:#000000;color:#bebebe;shape-rendering:auto;solid-color:#000000;text-decoration-line:none;fill:#f1f2f2;mix-blend-mode:normal;block-progression:tb;text-indent:0;image-rendering:auto;white-space:normal;text-decoration-style:solid;isolation:auto;text-transform:none" d="m6.0059 1041.4a0.50005 0.50005 0 0 0 -0.38281 0.1758l-3.5 4a0.5004 0.5004 0 1 0 0.75391 0.6582l3.5-4a0.50005 0.50005 0 0 0 -0.37109 -0.834z"/><path id="path8300-0-8-4-7-6" style="color-rendering:auto;text-decoration-color:#000000;color:#bebebe;shape-rendering:auto;solid-color:#000000;text-decoration-line:none;fill:#f1f2f2;mix-blend-mode:normal;block-progression:tb;text-indent:0;image-rendering:auto;white-space:normal;text-decoration-style:solid;isolation:auto;text-transform:none" d="m1.4785 1037.4a0.50005 0.50005 0 0 0 -0.2832 0.9004l6.5 5a0.50005 0.50005 0 0 0 0.60938 0l6.5-5a0.50005 0.50005 0 1 0 -0.60938 -0.791l-6.196 4.7-6.1953-4.7a0.50005 0.50005 0 0 0 -0.32617 -0.1094z"/><path id="rect11749-5-0-9-8-6" style="color-rendering:auto;text-decoration-color:#000000;color:#bebebe;shape-rendering:auto;solid-color:#000000;text-decoration-line:none;fill:#f1f2f2;mix-blend-mode:normal;block-progression:tb;text-indent:0;image-rendering:auto;white-space:normal;text-decoration-style:solid;isolation:auto;text-transform:none" d="m2 1048.4v1h12v-1h-12z"/></g></svg>
