<?xml version="1.0" encoding="UTF-8" standalone="no"?>
<!--Part of Monotone: https://github.com/sixsixfive/Monotone, released under cc-by-sa_v4-->
<svg xmlns="http://www.w3.org/2000/svg" version="1.1" xmlns:xlink="http://www.w3.org/1999/xlink" viewBox="0 0 16 16">
 <path d="m7.5847 1c-3.5997 0.0498-6.5847 3.137-6.5847 7.1864 0 2.0583 0.72342 3.742 1.985 4.922s3.073 1.8604 5.2934 1.8604c4.3072 0 7.3944-4.1259 6.5954-8.494h-6.585c-0.9867 0-1.4902 0.71238-1.5368 1.4245-0.023274 0.35607 0.085462 0.69844 0.29882 0.93551s0.54093 0.39591 1.0779 0.37208c0.46789-0.020768 0.57735-0.16817 0.77906-0.40397s0.49407-0.60682 1.0459-0.65911c0.22717-0.021527 0.50111 0.02402 0.75772 0.18072s0.47909 0.45145 0.51226 0.85046c0.0684 0.82276-0.28198 1.5344-0.8431 1.9986-0.5613 0.464-1.32 0.706-2.1346 0.701-2.6616-0.015-4.1319-1.9631-4.1835-3.8906-0.0258-0.9637 0.2912-1.9348 0.9605-2.6683s1.6954-1.2119 3.0202-1.2119h5.8274c-1.057-1.5521-2.926-3.1507-6.2863-3.1042z" fill="#f1f2f2"/>
</svg>
