<!--Part of Monotone: https://github.com/sixsixfive/Monotone, released under cc-by-sa_v4-->
<svg xmlns="http://www.w3.org/2000/svg" viewBox="0 0 16 16">
    <path fill="#f1f2f2" d="M4.426 0C1.982 0 0 1.953 0 4.363c0 .805.221 1.56.607 2.207a7.456 7.456 0 0 0-.154 1.514c0 4.156 3.418 7.523 7.633 7.523.477 0 .943-.042 1.396-.125.623.33 1.335.518 2.092.518C14.018 16 16 14.047 16 11.637c0-.696-.167-1.355-.461-1.938a7.47 7.47 0 0 0 .178-1.615c0-4.156-3.417-7.598-7.631-7.598-.446 0-.883.11-1.307.184A4.449 4.449 0 0 0 4.426 0zm3.299 2.906a5.924 5.924 0 0 1 1.76.197c.978.285 1.957 1.04 2.081 2.114.119.674-.746.924-1.423.72-.588-.159-.509-.128-.866-.539-.35-.526-1.028-.614-1.609-.576-.572.024-1.296.28-1.422.91-.086.533.449.562.879.715 1.321.442 2.8.549 3.947 1.405.859.644 1.086 1.834.836 2.834-.247 1.063-1.161 1.854-2.181 2.16a6.074 6.074 0 0 1-3.583-.039C5.018 12.421 4.048 11.37 4 10.146c-.032-.663.48-1.301 1.088-1.06.61.246.903.727 1.25 1.207.416.682 1.291.813 2.02.717.653-.066 1.426-.477 1.472-1.207.073-.581-.43-.609-.934-.774-1.256-.42-2.662-.51-3.755-1.326-.687-.497-1.025-1.361-.946-2.193.046-1.04.827-1.92 1.78-2.266l.054-.02.053-.02a5.924 5.924 0 0 1 1.643-.298z"/>
</svg>
