<?xml version="1.0" encoding="UTF-8"?>
<svg version="1.1" viewBox="0 0 16 16" xmlns="http://www.w3.org/2000/svg">
<title>Gnome Symbolic Icon Theme</title>
<path d="m10.277 3.998s-2.2996 3.5182-2.2773 3.5723c0.023383 0.054092 2.2637 3.4277 2.2637 3.4277h1.6797 1.6816l2.3672-3.4609-2.3711-3.5391h-3.3438zm0.72266 1.002h2l1 1v3l-1 1h-2l-1-1v-3l1-1zm0 1v3h2v-3h-2z" style="fill:#f1f2f2;stroke-width:0"/>
<path d="m3.2031 0s-2.209 3.3154-2.2188 3.4199c-0.010425 0.10434 2.2246 3.5996 2.2246 3.5996l3.5293 0.021484s2.2125-3.3023 2.2617-3.4434c0.052908-0.15142-2.1953-3.5977-2.1953-3.5977h-3.6016zm0.79688 1h1 1v5h-1v-4h-1v-1z" style="fill:#f1f2f2;stroke-width:0"/>
<path d="m3.2461 7.9883s-2.3105 3.4839-2.2461 3.5996c0.061477 0.11036 2.2637 3.377 2.2637 3.377l3.3633-0.003906 2.373-3.5176-2.3555-3.4551h-3.3984zm0.75391 1.0117h1 1v5h-1v-4h-1v-1z" style="fill:#f1f2f2;stroke-width:0"/>
</svg>
