<?xml version="1.0" encoding="UTF-8"?>
<svg version="1.1" viewBox="0 0 16 16" xmlns="http://www.w3.org/2000/svg" xmlns:osb="http://www.openswatchbook.org/uri/2009/osb" xmlns:xlink="http://www.w3.org/1999/xlink">
<g id="stock" transform="translate(-85.021 -6.5427)">
<g id="gimp-curve-smooth" transform="translate(85.021 -1029.8)">
<path transform="translate(0 1036.3)" d="m13 1.0566a2 1.9714 0 0 0-2 1.9727 2 1.9714 0 0 0 0.9707 1.6855c-0.045589 0.93526-0.15248 2.0855-0.40039 2.9824-0.125 0.4523-0.28789 0.82963-0.43555 1.0488-0.14766 0.2193-0.23149 0.25327-0.2793 0.26367-0.04781 0.011-0.19182 0.026981-0.55664-0.19922-0.36482-0.2263-0.89111-0.69324-1.5254-1.4648-0.68168-0.8294-1.302-1.4094-1.9395-1.7852s-1.3517-0.53829-2.0059-0.37109-1.1356 0.61526-1.4668 1.0977c-0.33123 0.4823-0.54992 1.0263-0.72266 1.5957-0.33894 1.1174-0.49516 2.3659-0.57031 3.3535a2 2.0287 0 0 0-1.0684 1.793 2 2.0287 0 0 0 2 2.0273 2 2.0287 0 0 0 2-2.0273 2 2.0287 0 0 0-0.91797-1.7051c0.071824-0.89864 0.20571-1.9943 0.46875-2.8613 0.13473-0.4441 0.3035-0.81852 0.45898-1.0449 0.15548-0.2264 0.25976-0.27752 0.3125-0.29102 0.052738-0.014 0.1655-0.03905 0.49609 0.15625 0.3306 0.1948 0.81976 0.61808 1.4082 1.334 0.72136 0.8777 1.3676 1.4913 2.0176 1.8945 0.64998 0.4032 1.362 0.59857 2.0371 0.45117s1.1813-0.60611 1.5137-1.0996c0.33237-0.4935 0.54203-1.0499 0.70312-1.6328 0.3207-1.1602 0.44476-2.4688 0.49023-3.4922a2 1.9714 0 0 0 1.0117-1.709 2 1.9714 0 0 0-2-1.9727z" style="fill:#f1f2f2;stroke-width:1.3429"/>
</g>
</g>
</svg>
