<?xml version="1.0" encoding="UTF-8"?>
<svg version="1.1" viewBox="0 0 16 16" xmlns="http://www.w3.org/2000/svg" xmlns:osb="http://www.openswatchbook.org/uri/2009/osb" xmlns:xlink="http://www.w3.org/1999/xlink">
<g id="preferences" transform="translate(-219.43 -197.51)">
<g id="gimp-prefs-playground" transform="translate(219.43 -842.85)" style="fill:#bebebe;stroke:#bebebe">
<path d="m7.5672 1048.3a3.0672 3.5722 0 0 1-1.5336 3.0937 3.0672 3.5722 0 0 1-3.0672 0 3.0672 3.5722 0 0 1-1.5336-3.0937" style="fill:#f1f2f2;stroke:none"/>
<path d="m8.0111 1047.9a3.5486 3.0555 0 0 1-3.0732-1.5279 3.5486 3.0555 0 0 1 1e-7 -3.0555 3.5486 3.0555 0 0 1 3.0732-1.5277" style="fill:#f1f2f2;stroke:none"/>
<path d="m8.4328 1048.4a3.0672 3.5722 0 0 1 1.5336-3.0937 3.0672 3.5722 0 0 1 3.0672 0 3.0672 3.5722 0 0 1 1.5336 3.0937" style="fill:#f1f2f2;stroke:none"/>
<path d="m7.9752 1054.9a3.5722 3.0672 0 0 0 3.0936-1.5336 3.5722 3.0672 0 0 0 0-3.0672 3.5722 3.0672 0 0 0-3.0936-1.5336" style="fill:#f1f2f2;stroke:none"/>
</g>
</g>
</svg>
