<?xml version="1.0" encoding="UTF-8"?>
<svg version="1.1" viewBox="0 0 16 16" xmlns="http://www.w3.org/2000/svg">
<path d="m3.5 5c-1.385 0-2.5 1.115-2.5 2.5s1.115 2.5 2.5 2.5h2.584c-0.29443-0.28762-0.5368-0.62478-0.7168-1h-1.8672c-0.8483 0-1.5-0.6517-1.5-1.5s0.6517-1.5 1.5-1.5h3c0.8483 0 1.5 0.6517 1.5 1.5 0 0.17776-0.034846 0.3437-0.087891 0.5h1.0371c0.032455-0.1613 0.050781-0.32886 0.050781-0.5 0-1.385-1.115-2.5-2.5-2.5h-3z" style="fill:#f1f2f2;opacity:.5;paint-order:markers fill stroke"/>
<path d="m8.916 5c0.29443 0.28762 0.5368 0.62478 0.7168 1h1.8672c0.8483 0 1.5 0.6517 1.5 1.5 0 0.21624-0.043935 0.41841-0.12109 0.60156a4 4 0 0 1 0.93555 0.33984c0.11786-0.29077 0.18555-0.60737 0.18555-0.94141 0-1.385-1.115-2.5-2.5-2.5h-2.584zm-2.8652 2c-0.032455 0.1613-0.050781 0.32886-0.050781 0.5 0 1.385 1.115 2.5 2.5 2.5h0.041016a4 4 0 0 1 0.82031-1h-0.86133c-0.8483 0-1.5-0.6517-1.5-1.5 0-0.17776 0.034846-0.3437 0.087891-0.5h-0.58789-0.44922z" style="fill:#f1f2f2;opacity:.5;paint-order:markers fill stroke"/>
<path class="error" d="m12.5 9a3.5 3.5 0 1 0 0 7 3.5 3.5 0 0 0 0-7zm-2.5 2.969h5v1.031h-5z" overflow="visible" style="color:#f1f2f2;fill:#f1f2f2"/>
</svg>
