<?xml version="1.0" encoding="UTF-8"?>
<svg version="1.1" viewBox="0 0 16 16" xmlns="http://www.w3.org/2000/svg">
<g transform="rotate(-90,7.5,7.5)">
<path d="m3.5 5c-1.385 0-2.5 1.115-2.5 2.5s1.115 2.5 2.5 2.5h2.584c-0.29443-0.28762-0.5368-0.62478-0.7168-1h-1.8672c-0.8483 0-1.5-0.6517-1.5-1.5s0.6517-1.5 1.5-1.5h3c0.8483 0 1.5 0.6517 1.5 1.5 0 0.17776-0.034846 0.3437-0.087891 0.5h1.0371c0.032455-0.1613 0.050781-0.32886 0.050781-0.5 0-1.385-1.115-2.5-2.5-2.5z" style="fill:#f1f2f2;paint-order:markers fill stroke"/>
<path d="m8.916 5c0.29443 0.28762 0.5368 0.62478 0.7168 1h1.8672c0.8483 0 1.5 0.6517 1.5 1.5s-0.6517 1.5-1.5 1.5h-3c-0.8483 0-1.5-0.6517-1.5-1.5 0-0.17776 0.034846-0.3437 0.087891-0.5h-1.0371c-0.032455 0.1613-0.050781 0.32886-0.050781 0.5 0 1.385 1.115 2.5 2.5 2.5h3c1.385 0 2.5-1.115 2.5-2.5s-1.115-2.5-2.5-2.5z" style="fill:#f1f2f2;paint-order:markers fill stroke"/>
</g>
</svg>
