<?xml version="1.0" encoding="UTF-8"?>
<svg version="1.1" viewBox="0 0 16 16" xmlns="http://www.w3.org/2000/svg">
<g transform="rotate(-90,7.5,7.5)">
<path transform="rotate(90,7.5,7.5)" d="m7.5 6c-1.385 0-2.5 1.115-2.5 2.5v3c0 1.385 1.115 2.5 2.5 2.5 0.24879 0 0.48447-0.046222 0.71094-0.11328-0.10358-0.31819-0.1739-0.64343-0.20508-0.97656-0.15793 0.054319-0.32589 0.089844-0.50586 0.089844-0.8483 0-1.5-0.6517-1.5-1.5v-3c0-0.8483 0.6517-1.5 1.5-1.5 0.17776 0 0.3437 0.034846 0.5 0.087891v-1.0371c-0.1613-0.032455-0.32886-0.050781-0.5-0.050781z" style="fill:#f1f2f2;opacity:.5;paint-order:markers fill stroke"/>
<path d="m8.916 5c0.29443 0.28762 0.5368 0.62478 0.7168 1h1.8672c0.8483 0 1.5 0.6517 1.5 1.5s-0.6517 1.5-1.5 1.5h-3c-0.8483 0-1.5-0.6517-1.5-1.5 0-0.17776 0.034846-0.3437 0.087891-0.5h-1.0371c-0.032455 0.1613-0.050781 0.32886-0.050781 0.5 0 1.385 1.115 2.5 2.5 2.5h3c1.385 0 2.5-1.115 2.5-2.5s-1.115-2.5-2.5-2.5z" style="fill:#f1f2f2;opacity:.5;paint-order:markers fill stroke"/>
<path class="error" d="m6 12.5a3.5 3.5 0 1 0-7 0 3.5 3.5 0 0 0 7 0zm-2.969-2.5v5h-1.031v-5z" overflow="visible" style="color:#f1f2f2;fill:#f1f2f2"/>
</g>
</svg>
