<?xml version="1.0" encoding="UTF-8" standalone="no"?>
<svg
   xmlns:dc="http://purl.org/dc/elements/1.1/"
   xmlns:cc="http://creativecommons.org/ns#"
   xmlns:rdf="http://www.w3.org/1999/02/22-rdf-syntax-ns#"
   xmlns:svg="http://www.w3.org/2000/svg"
   xmlns="http://www.w3.org/2000/svg"
   version="1.1"
   viewBox="0 0 16 16"
   id="svg4">
  <metadata
     id="metadata10">
    <rdf:RDF>
      <cc:Work
         rdf:about="">
        <dc:format>image/svg+xml</dc:format>
        <dc:type
           rdf:resource="http://purl.org/dc/dcmitype/StillImage" />
        <dc:title></dc:title>
      </cc:Work>
    </rdf:RDF>
  </metadata>
  <defs
     id="defs8" />
  <path
     id="path4798"
     d="m 2.0021953,1 c -0.131,0 -0.2618125,0.026172 -0.3828125,0.076172 -0.005,0.002 -0.00867,0.00581 -0.013672,0.00781 -0.115,0.049 -0.2195937,0.1190312 -0.3085937,0.2070312 l -0.00391,0.00391 c -0.091,0.091 -0.1648437,0.1984062 -0.2148437,0.3164062 C 1.0263672,1.7343281 1.0021953,1.867 1.0021953,2 v 2 h 1 V 2.5996094 C 2.0021953,2.2666094 2.2688047,2 2.6018047,2 h 8.8005393 c 0.3324,0 0.599609,0.2666094 0.599609,0.5996094 v 2.9511718 h 0.0098 c 0.024,0.2343001 0.205453,0.4149532 0.439453,0.4394532 V 6 h 1.951172 c 0.3324,0 0.599609,0.2672094 0.599609,0.5996094 V 13.400391 C 15.001953,13.732791 14.734744,14 14.402344,14 H 9.6015625 c -0.0353,0 -0.066009,-0.01373 -0.099609,-0.01953 C 9.4683531,13.986269 9.4376437,14 9.4023438,14 H 2.6018047 c -0.333,0 -0.2910151,-0.476081 -0.5996094,-0.599609 V 13 h -1 v 1 c 0,0.1307 0.024219,0.260059 0.074219,0.380859 0.002,0.0054 0.00777,0.01013 0.00977,0.01563 0.049,0.1149 0.1190312,0.219594 0.2070312,0.308594 10e-4,0.0013 0.00291,0.0026 0.00391,0.0039 0.091,0.0906 0.1964531,0.162891 0.3144531,0.212891 0.123,0.0517 0.257625,0.07828 0.390625,0.07813 H 15.001953 c 0.117,0.0014 0.23335,-0.01784 0.34375,-0.05664 0.004,-0.0014 0.0076,-0.0025 0.01172,-0.0039 0.1062,-0.0378 0.203316,-0.09326 0.291016,-0.164062 0.0872,-0.071 0.161903,-0.156153 0.220703,-0.251953 0.0027,-0.0042 0.0052,-0.0094 0.0078,-0.01367 0.0601,-0.0994 0.1024,-0.208366 0.125,-0.322266 0.0015,-0.0312 0.0015,-0.06255 0,-0.09375 0.0015,-0.0314 0.0015,-0.06255 0,-0.09375 V 4.5605469 c 0.003,-0.1322 -0.02211,-0.2636188 -0.07031,-0.3867188 -0.0476,-0.1236 -0.117385,-0.2370312 -0.208985,-0.3320312 L 13.158203,1.28125 c -0.0944,-0.091 -0.205925,-0.1629375 -0.328125,-0.2109375 -0.0013,0 -0.0025,-9.531e-4 -0.0039,-0.00195 h -0.0039 C 12.700366,1.0213594 12.570353,0.998 12.439453,1 Z M 13,3 15.001953,4.9980469 14,5 C 13,5 12.9999,5 13,4 Z"
     style="text-indent:0;text-decoration:none;text-decoration-line:none;text-transform:none;fill:#f1f2f2" />
  <path
     id="path4"
     d="M 0,4.9689997 V 11.969 h 12.02 z m 2,3.054 L 5.116,10 H 2 Z"
     style="fill:#f1f2f2" />
</svg>
