<?xml version="1.0" encoding="UTF-8" standalone="no"?>
<!--Part of Monotone: https://github.com/sixsixfive/Monotone, released under cc-by-sa_v4-->
<svg id="svg7384" xmlns="http://www.w3.org/2000/svg" viewBox="0 0 16 16" version="1.1"><title id="title9167">Gnome Symbolic Icon Theme</title><g id="layer9" transform="translate(-383 125)"><path id="path3869" style="block-progression:tb;text-indent:0;color:#000000;text-transform:none;fill:#f1f2f2" d="m391-125c-4.4064 0-8 3.5936-8 8s3.5936 8 8 8 8-3.5936 8-8-3.5936-8-8-8zm0 2c3.3256 0 6 2.6744 6 6s-2.6744 6-6 6-6-2.6744-6-6 2.6744-6 6-6z"/><path id="path9013" style="color:#000000;fill:#f1f2f2" d="m2.0387 1.3786a0.79637 0.79637 0 0 1 -0.7964 0.7964 0.79637 0.79637 0 0 1 -0.79633 -0.7964 0.79637 0.79637 0 0 1 0.79633 -0.79633 0.79637 0.79637 0 0 1 0.7964 0.79633z" transform="matrix(1.8835 0 0 1.8835 382.16 -126.1)"/><path id="path9013-9" style="color:#000000;fill:#f1f2f2" d="m2.0387 1.3786a0.79637 0.79637 0 0 1 -0.7964 0.7964 0.79637 0.79637 0 0 1 -0.79633 -0.7964 0.79637 0.79637 0 0 1 0.79633 -0.79633 0.79637 0.79637 0 0 1 0.7964 0.79633z" transform="matrix(1.8835 0 0 1.8835 395.16 -126.1)"/><path id="path9013-5" style="color:#000000;fill:#f1f2f2" d="m2.0387 1.3786a0.79637 0.79637 0 0 1 -0.7964 0.7964 0.79637 0.79637 0 0 1 -0.79633 -0.7964 0.79637 0.79637 0 0 1 0.79633 -0.79633 0.79637 0.79637 0 0 1 0.7964 0.79633z" transform="matrix(1.8835 0 0 1.8835 382.16 -113.1)"/><path id="path9013-9-1" style="color:#000000;fill:#f1f2f2" d="m2.0387 1.3786a0.79637 0.79637 0 0 1 -0.7964 0.7964 0.79637 0.79637 0 0 1 -0.79633 -0.7964 0.79637 0.79637 0 0 1 0.79633 -0.79633 0.79637 0.79637 0 0 1 0.7964 0.79633z" transform="matrix(1.8835 0 0 1.8835 395.16 -113.1)"/><path id="path9013-7" style="color:#000000;fill:#f1f2f2" d="m2.0387 1.3786a0.79637 0.79637 0 0 1 -0.7964 0.7964 0.79637 0.79637 0 0 1 -0.79633 -0.7964 0.79637 0.79637 0 0 1 0.79633 -0.79633 0.79637 0.79637 0 0 1 0.7964 0.79633z" transform="matrix(3.7671 0 0 3.7671 386.32 -122.19)"/></g></svg>
