<!--Part of Monotone: https://github.com/sixsixfive/Monotone, released under cc-by-sa_v4-->
<svg viewBox="0 0 16 16" xmlns="http://www.w3.org/2000/svg">
    <g transform="translate(-443 125)" fill="#f1f2f2">
        <path d="M451-122c-2.75 0-5 2.25-5 5 0 1.783.958 3.363 2.375 4.25a3.4 3.4 0 0 1 .531-.188c.229-1.816 1.72-3.25 3.594-3.25 1.003 0 1.839.474 2.5 1.126.175-.034.308-.126.5-.126h.125c.224-.566.375-1.17.375-1.812 0-2.75-2.25-5-5-5z" style="line-height:normal;-inkscape-font-specification:Sans;text-indent:0;text-align:start;text-decoration-line:none;text-transform:none;block-progression:tb;marker:none" color="#f1f2f2" font-weight="400" font-family="Sans" overflow="visible"/>
        <rect height="2" rx=".563" ry=".563" style="marker:none" width="2" x="443" y="-118" color="#f1f2f2" overflow="visible"/>
        <rect height="2" rx=".563" ry=".563" style="marker:none" width="2" x="457" y="-118" color="#f1f2f2" overflow="visible"/>
        <rect height="2" rx=".563" ry=".563" style="marker:none" transform="rotate(90)" width="2" x="-125" y="-452" color="#f1f2f2" overflow="visible"/>
        <rect height="2" rx=".563" ry=".563" style="marker:none" transform="rotate(135)" width="2" x="-409.637" y="-237.174" color="#f1f2f2" overflow="visible"/>
        <rect height="2" rx=".563" ry=".563" style="marker:none" transform="rotate(135)" width="2" x="-395.637" y="-237.174" color="#f1f2f2" overflow="visible"/>
        <rect height="2" rx=".563" ry=".563" style="marker:none" transform="rotate(45)" width="2" x="228.174" y="-402.637" color="#f1f2f2" overflow="visible"/>
        <path d="M452.5-115a2.5 2.5 0 0 0-2.5 2.5c0 .218.041.423.094.625a1.549 1.549 0 0 0-.594-.125 1.5 1.5 0 1 0 0 3h8a1.5 1.5 0 1 0 0-3 2 2 0 0 0-2-2c-.316 0-.61.088-.875.219A2.47 2.47 0 0 0 452.5-115z" style="marker:none" color="#000" overflow="visible"/>
    </g>
</svg>
