<?xml version="1.0" encoding="UTF-8" standalone="no"?>
<!--Part of Monotone: https://github.com/sixsixfive/Monotone, released under cc-by-sa_v4-->
<svg id="svg8" xmlns="http://www.w3.org/2000/svg" version="1.1" viewBox="0 0 16 16"><path id="path2" d="m8.205 1.002a7 7 0 0 0 -7.205 6.996 7 7 0 1 0 14 0 7 7 0 0 0 -6.795 -6.996zm0.455 1a5.5 5.5 0 0 1 5.34 5.498 5.5 5.5 0 0 1 -11 0 5.5 5.5 0 0 1 5.66 -5.498zm-0.543 2a4 4 0 0 0 -4.117 3.998 4 4 0 0 0 8 0 4 4 0 0 0 -3.883 -3.998zm-1.117 1.998l3 2-3 2v-4z" fill="#f1f2f2"/><path id="path4" style="fill:#f1f2f2" d="m8.117 4.002a4 4 0 0 0 -4.117 3.998 4 4 0 0 0 8 0 4 4 0 0 0 -3.883 -3.998zm-1.117 1.998l3 2-3 2v-4z" fill="#ebebeb"/><path id="path6" opacity=".2" d="m6.747 6.162v3.676l3.065-1.838z" fill="none"/></svg>
