<?xml version="1.0" encoding="UTF-8" standalone="no"?>
<!--Part of Monotone: https://github.com/sixsixfive/Monotone, released under cc-by-sa_v4-->
<svg id="svg6558" xmlns="http://www.w3.org/2000/svg" viewBox="0 0 16 16" version="1.1"><g id="layer1"><g id="g8452" style="fill:#f1f2f2" transform="translate(-303 -213.99)"><path id="rect7481-0-7" d="m305 213.99c-1.0907 0-2 0.9093-2 2v11c0 1.0907 0.9093 2 2 2h2v-1.5625l0.4375-0.4375h-2.4375v-3h3v2.4375l1-1v-1.4375h1.4375l1-1h-2.4375v-3h3v2.4375l1-0.96875v-1.4688h1.4688l1-1h-2.4688v-3h3v2.4688l1.875-1.875 0.125 0.125v-0.71875c0-1.0907-0.9093-2-2-2zm0 2h3v3h-3zm4 0h3v3h-3zm8.875 2-1.5938 1.5938s0.883 0.20582 1.3027 0.69332c0.41969 0.48749 0.82231 1.4317 0.82231 1.4317l0.625-0.625v-1.9375zm-12.875 2h3v3h-3zm10.594 0.28125-7.5938 7.6562v2.0625l2.0859 0.008 7.6328-7.6016s-0.17181-0.82267-0.71512-1.3984c-0.54331-0.57577-1.4099-0.72675-1.4099-0.72675zm2.4062 3.25-2 1.9688v1.5h-1.5l-2 2h3.5c1.0907 0 2-0.9093 2-2z" style="block-progression:tb;text-indent:0;color:#000000;text-transform:none;fill:#f1f2f2"/></g></g></svg>
