<?xml version="1.0" encoding="UTF-8" standalone="no"?>
<!--Part of Monotone: https://github.com/sixsixfive/Monotone, released under cc-by-sa_v4-->
<svg xmlns="http://www.w3.org/2000/svg" version="1.1" viewBox="0 0 16 16">
 <g fill="#f1f2f2" transform="rotate(-78,8,8)">
  <path opacity="0.054" d="m8 1a7 7 0 0 0 -7 7 7 7 0 0 0 7 7 7 7 0 0 0 7 -7 7 7 0 0 0 -7 -7zm0 3a4 4 0 0 1 4 4 4 4 0 0 1 -4 4 4 4 0 0 1 -4 -4 4 4 0 0 1 4 -4z"/>
  <path d="m8 5a3 3 0 0 1 0.2031 0.0098 3 3 0 0 0 -0.2031 -0.0098z"/>
  <path d="m8.3828 5.0293a3 3 0 0 1 0.1016 0.0137 3 3 0 0 0 -0.1016 -0.0137z"/>
  <path d="m8.6895 5.084a3 3 0 0 1 0.0371 0.0098v-0.002a3 3 0 0 0 -0.0371 -0.0078z"/>
  <path d="m5.123 7.1582a3 3 0 0 0 -0.0312 0.1152h0.0019a3 3 0 0 1 0.0293 -0.1152z"/>
  <path d="m10.807 9.0508a3 3 0 0 1 -0.02734 0.076172 3 3 0 0 0 0.0293 -0.074219z"/>
  <path d="m7.2734 10.906v0.002a3 3 0 0 0 0.0371 0.008 3 3 0 0 1 -0.0371 -0.01z"/>
  <path d="m7.5156 10.957a3 3 0 0 0 0.1016 0.014 3 3 0 0 1 -0.1016 -0.014z"/>
  <path d="m7.7969 10.99a3 3 0 0 0 0.2031 0.01 3 3 0 0 1 -0.2031 -0.01z"/>
  <path d="m8 1a7 7 0 0 0 -7 7 7 7 0 0 0 7 7 7 7 0 0 0 7 -7 7 7 0 0 0 -7 -7zm0 0.998c1.5711 0 3.133 0.6469 4.244 1.7579 1.111 1.1109 1.758 2.673 1.758 4.2441s-0.647 3.133-1.758 4.244-2.6729 1.758-4.244 1.758-3.1332-0.647-4.2441-1.758c-1.111-1.111-1.7579-2.6729-1.7579-4.244s0.6469-3.1332 1.7579-4.2441c1.1109-1.111 2.673-1.7579 4.2441-1.7579z"/>
  <path d="m8 4a4 4 0 0 0 -4 4 4 4 0 0 0 4 4 4 4 0 0 0 4 -4 4 4 0 0 0 -4 -4zm0 0.998c1.5714 0 3.002 1.4306 3.002 3.002s-1.4306 3.002-3.002 3.002-3.002-1.4306-3.002-3.002 1.4306-3.002 3.002-3.002z"/>
  <path d="m6 2 1 3h2l1-3zm5 5v2l3 1v-4zm-2 4h-2l-1 3h4zm-4-2v-2l-3-1v4z"/>
  <path opacity="0.054" d="m8 4a4 4 0 0 1 4 4 4 4 0 0 1 -4 4 4 4 0 0 1 -4 -4 4 4 0 0 1 4 -4z"/>
 </g>
</svg>
