<?xml version="1.0" encoding="UTF-8" standalone="no"?>
<!--Part of Monotone: https://github.com/sixsixfive/Monotone, released under cc-by-sa_v4-->
<svg id="svg37" xmlns="http://www.w3.org/2000/svg" viewBox="0 0 16 16" version="1.1"><path id="path21" style="opacity:.7;fill:#f1f2f2" d="m9 1.9883v7h-7.0098c-0.001 1.6707 0.672 2.8277 1.836 4.0277a6.58 6.58 0 0 0 4.4765 1.972 6.586 6.586 0 0 0 1.2012 -0.086c-0.8447-0.238-1.5464-0.753-1.9453-1.461-0.4508-0.799-0.5151-1.803-0.1524-2.748a0.8413 0.8413 0 0 1 0.0079 -0.019c0.1591-0.387 0.3771-0.7484 0.6464-1.0685a0.8413 0.8413 0 0 1 1.377 0.1269l0.8885 1.5766c0.025-0.007 0.022-0.001 0.057-0.02l0.758-0.437c0.035-0.021 0.025-0.018 0.045-0.036l-0.883-1.5601a0.8413 0.8413 0 0 1 0.607 -1.2461c0.143-0.0216 0.287-0.0348 0.432-0.041a0.8413 0.8413 0 0 0 0.002 0c0.273-0.0118 0.546 0.0041 0.816 0.0468a0.8413 0.8413 0 0 1 0.02 0.002c0.996 0.1807 1.822 0.7573 2.273 1.5566 0.128 0.226 0.216 0.4698 0.281 0.7228a6.586 6.586 0 0 0 0.266 -1.8146 6.583 6.583 0 0 0 -1.908 -4.5918c-1.204-1.202-2.391-1.9023-4.092-1.9023z"/><path id="path23" style="fill:#f1f2f2" d="m8 7.988v-6.99a7 7 0 0 0 -7 6.99z"/><path id="path4" style="color:#000000;text-indent:0;text-decoration-line:none;text-transform:none;fill:#f1f2f2" d="m11.379 8.8086a3.264 3.264 0 0 0 -0.344 0.0332l0.977 1.7282c0.2 0.356-0.024 0.763-0.45 1.01l-0.769 0.443c-0.43 0.24-0.9114 0.209-1.1114-0.146l-0.9765-1.731a3.22 3.22 0 0 0 -0.5137 0.848c-0.565 1.471 0.236 2.893 1.791 3.176 0.3246 0.059 0.6676 0.046 0.9946 0.004 0.017-0.003 0.558 1.006 1.002 1.826h3.375l-2.022-3.131c0.207-0.256 0.371-0.542 0.49-0.849 0.565-1.47-0.238-2.8923-1.793-3.1743a3.264 3.264 0 0 0 -0.65 -0.0371z"/></svg>
