<?xml version="1.0" encoding="UTF-8" standalone="no"?>
<svg
   xmlns:dc="http://purl.org/dc/elements/1.1/"
   xmlns:cc="http://creativecommons.org/ns#"
   xmlns:rdf="http://www.w3.org/1999/02/22-rdf-syntax-ns#"
   xmlns:svg="http://www.w3.org/2000/svg"
   xmlns="http://www.w3.org/2000/svg"
   id="svg10"
   viewBox="0 0 16 16"
   version="1.1">
  <metadata
     id="metadata16">
    <rdf:RDF>
      <cc:Work
         rdf:about="">
        <dc:format>image/svg+xml</dc:format>
        <dc:type
           rdf:resource="http://purl.org/dc/dcmitype/StillImage" />
        <dc:title></dc:title>
      </cc:Work>
    </rdf:RDF>
  </metadata>
  <defs
     id="defs14" />
  <path
     style="display:inline;fill:#f1f2f2;fill-opacity:1;fill-rule:nonzero;stroke:none;stroke-width:0;stroke-linecap:round;stroke-miterlimit:4;stroke-dasharray:none;stroke-opacity:1"
     id="rect2987"
     d="M 3,0.99999964 V 2.9999996 H 2.625 C 1.73229,2.9999996 1,3.7818696 1,4.75 v 7.5 C 1,13.21813 1.73229,14 2.625,14 H 3 h 2 5 2 0.375 C 13.26771,14 14,13.21813 14,12.25 V 4.75 C 14,3.7818696 13.26771,2.9999996 12.375,2.9999996 H 12 V 0.99999964 H 10 V 2.9999996 H 5 V 0.99999964 Z M 3.3125,3.9999996 h 8.375 C 12.4077,3.9999996 13,4.5923 13,5.3125 V 6.78125 7 7.8125 8 C 12.8521,8.56253 12.35634,9 11.75,9 H 3.25 C 2.64366,9 2.14789,8.56253 2,8 V 7.78125 7.5625 7 6.875 5.3125 C 2,4.5923 2.5923,3.9999996 3.3125,3.9999996 Z M 4,5 V 7 H 3 v 0.6875 0.0937 0.21875 h 2 v -2 h 2 v 2 h 5 V 7.68745 6.99995 H 8 v -2 H 4 Z m 0.5,5 C 5.32716,10 6,10.67072 6,11.5 6,12.32928 5.32716,13 4.5,13 3.67284,13 3,12.32928 3,11.5 3,10.67072 3.67284,10 4.5,10 Z m 6,0 C 11.33189,10 12,10.67176 12,11.5 12,12.32824 11.33189,13 10.5,13 9.66811,13 9,12.32824 9,11.5 9,10.67176 9.66811,10 10.5,10 Z M 3,15 v 1 h 2 v -1 z m 7,0 v 1 h 2 v -1 z" />
</svg>
