<?xml version="1.0" encoding="UTF-8" standalone="no"?>
<!--Part of Monotone: https://github.com/sixsixfive/Monotone, released under cc-by-sa_v4-->
<svg xmlns="http://www.w3.org/2000/svg" version="1.1" viewBox="0 0 16 16">
 <path opacity=".5" style="text-decoration-line:none;text-transform:none;text-indent:0" fill="#f1f2f2" d="m10 1v1c0 0.257 0.13 0.5288 0.312 0.7188l1.282 1.2812h-3.6252-0.9688c-0.528-0.007-1 0.472-1 1s0.472 1.007 1 1h0.2461 4.3789l-1.219 1.2812c-0.136 0.1426-0.297 0.3317-0.369 0.5254-0.024 0.0646-0.037 0.1292-0.037 0.1934v0.4258 0.3359a4.5 4.5 0 0 1 2.5 -0.7617 4.5 4.5 0 0 1 0.01 0l2.896-3-3.656-3.7188c-0.198-0.19-0.44-0.2812-0.75-0.2812h-1zm-5 6c-0.31 0-0.6155 0.0902-0.8125 0.2812l-0.6641 0.6876c-0.001-0.0002-0.0028 0.0002-0.0039 0l-2.9258 3.0312 3.6563 3.719c0.198 0.19 0.44 0.281 0.75 0.281h1v-1c0-0.257-0.1305-0.529-0.3125-0.719l-1.2813-1.281h3.625a4.5 4.5 0 0 1 0.7286 -2h-0.0059-4.3789l1.2188-1.2812c0.183-0.19 0.4062-0.4618 0.4062-0.7188v-0.4258-0.5742h-1z"/>
 <path style="color:#f1f2f2" d="m12.5 9a3.5 3.5 0 1 0 0 7 3.5 3.5 0 0 0 0 -7zm-2.5 2.969h5v1.031h-5z" class="error" overflow="visible" fill="#f1f2f2"/>
</svg>
