<?xml version="1.0" encoding="UTF-8" standalone="no"?>
<!--Part of Monotone: https://github.com/sixsixfive/Monotone, released under cc-by-sa_v4-->
<svg id="svg7384" xmlns="http://www.w3.org/2000/svg" xmlns:osb="http://www.openswatchbook.org/uri/2009/osb" viewBox="0 0 16 16" version="1.1"><title id="title9167">Gnome Symbolic Icon Theme</title><g id="layer9" transform="translate(-423 145)"><path id="rect6077-4" style="opacity:.3;fill:#f1f2f2" d="m425-132.03v2c0 0.57131 0.45994 1.0312 1.0312 1.0312h8.9375c0.57131 0 1.0312-0.45994 1.0312-1.0312v-2c0 0.57131-0.45994 1.0312-1.0312 1.0312h-8.9375c-0.57131 0-1.0312-0.45994-1.0312-1.0312z"/><path id="rect6077" style="fill:#f1f2f2" d="m426.03-145c-0.57131 0-1.0312 0.45994-1.0312 1.0312v11.938c0 0.57131 0.45994 1.0312 1.0312 1.0312h8.9375c0.57131 0 1.0312-0.45994 1.0312-1.0312v-11.938c0-0.57131-0.45994-1.0312-1.0312-1.0312h-8.9375zm2.9688 2h3l-1 1.0625v0.9375h3v0.5 1.6562l-1.8438 1.8438h-1.1562v4l-1 1v-5h-0.65625l-2.7812-2.9062 3.4375-0.96875v-1.0625l-1-1.0625zm2 3v2h0.75l1.25-1.25v-0.75h-2zm-1 0.125-1.5625 0.46875 1.3125 1.4062h0.25v-1.875z"/></g></svg>
