<?xml version="1.0" encoding="UTF-8"?>
<svg version="1.1" viewBox="0 0 16 16" xmlns="http://www.w3.org/2000/svg">
<path d="m1.0312 1c-0.54195 0-0.99995 0.3285-0.99995 0.9375v12.124c0 0.588 0.377 0.938 0.99995 0.938h14.031c0.52 0 0.938-0.35 0.938-0.938v-12.124c0.018-0.5257-0.412-0.95566-0.938-0.938h-14.031zm-0.0312 1.0312h14.031v5.9688h-14.031zm0.187 6.9688h1.625c0.1058-0.0048 0.1923 0.0817 0.1875 0.1875v1.6245c0.0048 0.106-0.0817 0.193-0.1875 0.188h-1.625c-0.106 6e-3 -0.19298-0.081-0.1875-0.188v-1.6245c0-0.112 0.0765-0.1875 0.1875-0.1875zm3 0h1.625c0.1054-0.0042 0.1923 0.0822 0.1875 0.1875v1.6245c0.0048 0.106-0.0817 0.193-0.1875 0.188h-1.625c-0.106 6e-3 -0.193-0.081-0.1875-0.188v-1.6245c0-0.112 0.0765-0.1875 0.1875-0.1875zm3 0h1.625c0.1058-0.0048 0.1923 0.0817 0.1875 0.1875v1.6245c0.0048 0.106-0.0817 0.193-0.1875 0.188h-1.625c-0.106 6e-3 -0.193-0.081-0.1875-0.188v-1.6245c0-0.112 0.0765-0.1875 0.1875-0.1875zm3.0115 0h1.602c0.111 0 0.199 0.0884 0.199 0.1992v1.6018c0 0.111-0.088 0.199-0.199 0.199h-1.602c-0.111 0-0.199-0.088-0.199-0.199v-1.6018c0-0.1108 0.088-0.1992 0.199-0.1992zm3 0h1.602c0.111 0 0.199 0.0884 0.199 0.1992v1.6018c0 0.111-0.088 0.199-0.199 0.199h-1.602c-0.111 0-0.199-0.088-0.199-0.199v-1.6018c0-0.1108 0.088-0.1992 0.199-0.1992zm-12.012 3h1.625c0.1058-5e-3 0.1923 0.082 0.1875 0.188v1.624c0.0048 0.106-0.0817 0.193-0.1875 0.188h-1.625c-0.106 6e-3 -0.19298-0.081-0.1875-0.188v-1.624c-0.00481-0.106 0.0817-0.193 0.1875-0.188zm3 0h1.625c0.1054-4e-3 0.1923 0.082 0.1875 0.188v1.624c0.0048 0.106-0.0817 0.193-0.1875 0.188h-1.625c-0.106 6e-3 -0.193-0.081-0.1875-0.188v-1.624c-0.0048-0.106 0.0817-0.193 0.1875-0.188zm3 0h1.625c0.1058-5e-3 0.1923 0.082 0.1875 0.188v1.624c0.0048 0.106-0.0817 0.193-0.1875 0.188h-1.625c-0.106 6e-3 -0.193-0.081-0.1875-0.188v-1.624c-0.0048-0.106 0.0817-0.193 0.1875-0.188zm3.0115 0h4.602c0.111 0 0.199 0.088 0.199 0.199v1.602c0 0.111-0.088 0.199-0.199 0.199h-4.602c-0.111 0-0.199-0.088-0.199-0.199v-1.602c0-0.111 0.088-0.199 0.199-0.199z" style="fill:#f1f2f2"/>
<path d="m2 6.5h5l3-3h4" style="fill:none;stroke-opacity:.97742;stroke-width:1px;stroke:#f1f2f2"/>
</svg>
