<!--Part of Monotone: https://github.com/sixsixfive/Monotone, released under cc-by-sa_v4-->
<svg viewBox="0 0 16 16" xmlns="http://www.w3.org/2000/svg">
    <path d="M0 0v16h.969c-.45-.525-.391-.992.031-1.531l2.545-2.521A3.93 3.93 0 0 1 3 9.968c0-2.213 1.8-4.03 4-4.03s4 1.817 4 4.03C11 12.183 9.2 14 7 14a3.92 3.92 0 0 1-2.188-.656L2.032 16h12a.726.726 0 0 1-.22-.5c0-.384.304-.688.688-.688.384 0 .719.304.719.688A.726.726 0 0 1 15 16h1V0h-1a.726.726 0 0 1-.5.219c-.192 0-.343-.093-.469-.219H1.97c-.126.126-.277.219-.469.219A.726.726 0 0 1 1 0zm1.5.813c.384 0 .688.303.688.687 0 .384-.304.719-.688.719A.735.735 0 0 1 .781 1.5c0-.384.335-.688.719-.688zm13 0c.384 0 .719.303.719.687a.735.735 0 0 1-.719.719c-.384 0-.688-.335-.688-.719 0-.384.304-.688.688-.688zm-13 2c.384 0 .688.303.688.687 0 .384-.304.719-.688.719A.735.735 0 0 1 .781 3.5c0-.384.335-.688.719-.688zm13 0c.384 0 .719.303.719.687a.735.735 0 0 1-.719.719c-.384 0-.688-.335-.688-.719 0-.384.304-.688.688-.688zm-13 2c.384 0 .688.303.688.687 0 .384-.304.719-.688.719A.735.735 0 0 1 .781 5.5c0-.384.335-.688.719-.688zm13 0c.384 0 .719.303.719.687a.735.735 0 0 1-.719.719c-.384 0-.688-.335-.688-.719 0-.384.304-.688.688-.688zm-13 2c.384 0 .688.303.688.687 0 .384-.304.719-.688.719A.735.735 0 0 1 .781 7.5c0-.384.335-.688.719-.688zm13 0c.384 0 .719.303.719.687a.735.735 0 0 1-.719.719c-.384 0-.688-.335-.688-.719 0-.384.304-.688.688-.688zM7.04 8.015c-1.112 0-1.99.896-1.99 2.015 0 1.12.878 2.016 1.99 2.016s1.991-.896 1.991-2.016-.879-2.015-1.99-2.015zm-5.54.797c.384 0 .688.303.688.687 0 .384-.304.719-.688.719A.735.735 0 0 1 .781 9.5c0-.384.335-.688.719-.688zm13 0c.384 0 .719.303.719.687a.735.735 0 0 1-.719.719c-.384 0-.688-.335-.688-.719 0-.384.304-.688.688-.688zm-13 2c.384 0 .688.303.688.687 0 .384-.304.719-.688.719a.735.735 0 0 1-.719-.719c0-.384.335-.688.719-.688zm13 0c.384 0 .719.303.719.687a.735.735 0 0 1-.719.719c-.384 0-.688-.335-.688-.719 0-.384.304-.688.688-.688zm0 2c.384 0 .719.303.719.687a.735.735 0 0 1-.719.719c-.384 0-.688-.335-.688-.719 0-.384.304-.688.688-.688z" fill="#f1f2f2"/>
</svg>
