<?xml version="1.0" encoding="UTF-8"?>
<svg version="1.1" viewBox="0 0 16 16" xmlns="http://www.w3.org/2000/svg">
<path d="m6.377 0.98828c-0.7284 0.15076-1.4494 0.36115-2.125 0.67773 0.010938 0.39306 0.040143 0.77332 0.080078 1.1543a7 5.5 0 0 0-1.8418 1.2969c-0.33855-0.19517-0.67662-0.39256-1.0352-0.56055-0.52934 0.53041-1.0254 1.1036-1.4297 1.7441 0.3042 0.45814 0.62196 0.88737 0.96484 1.2949h0.0097656v0.9043 1.5 0.77148l2.5449 0.23047a0.50005 0.50005 0 0 1 0.43945 0.37695l0.40625 1.6211h1.2188l0.40625-1.6211a0.50005 0.50005 0 0 1 0.48438-0.37891h3a0.50005 0.50005 0 0 1 0.48438 0.37891l0.40625 1.6211h1.2188l0.40625-1.6211a0.50005 0.50005 0 0 1 0.44531-0.37695l2.5391-0.19531v-0.80664h-0.003906v-1.4395a7 5.5 0 0 0 0.003906-0.060547 7 5.5 0 0 0-0.003906-0.085938v-0.81836h0.009765c0.34296-0.40754 0.66051-0.83677 0.96484-1.2949-0.40417-0.6406-0.89839-1.2138-1.4277-1.7441-0.35643 0.16705-0.6944 0.36268-1.0312 0.55664a7 5.5 0 0 0-1.8477-1.291c0.039992-0.38166 0.069074-0.76252 0.080079-1.1562-0.67555-0.31657-1.3962-0.52698-2.125-0.67773-0.22002 0.34428-0.41995 0.70983-0.60742 1.0762a7 5.5 0 0 0-1.0117-0.064453 7 5.5 0 0 0-1.0156 0.064453c-0.18739-0.36635-0.38708-0.73189-0.60742-1.0762zm-1.877 4.0117a1.5 1.5 0 0 1 1.5 1.5 1.5 1.5 0 0 1-1.5 1.5 1.5 1.5 0 0 1-1.5-1.5 1.5 1.5 0 0 1 1.5-1.5zm7 0a1.5 1.5 0 0 1 1.5 1.5 1.5 1.5 0 0 1-1.5 1.5 1.5 1.5 0 0 1-1.5-1.5 1.5 1.5 0 0 1 1.5-1.5zm-6.75 1a0.75 0.75 0 0 0-0.75 0.75 0.75 0.75 0 0 0 0.75 0.75 0.75 0.75 0 0 0 0.75-0.75 0.75 0.75 0 0 0-0.75-0.75zm3.25 0c0.554 0 1 0.446 1 1v1c0 0.554-0.446 1-1 1s-1-0.446-1-1v-1c0-0.554 0.446-1 1-1zm3.25 0a0.75 0.75 0 0 0-0.75 0.75 0.75 0.75 0 0 0 0.75 0.75 0.75 0.75 0 0 0 0.75-0.75 0.75 0.75 0 0 0-0.75-0.75zm-10.25 4.7734v0.27344h-0.0039062c0.001044 0.23293 0.0039062 0.48825 0.0039062 0.53906v0.10547h0.0097656c0.096764 2.2157 3.1709 3.2844 6.9844 3.2969h0.0097656c3.8134-0.012459 6.8857-1.0812 6.9824-3.2969h0.013672v-0.64453-0.23828l-2.1016 0.16211-0.41406 1.6504a0.50005 0.50005 0 0 1-0.48438 0.37891h-2a0.50005 0.50005 0 0 1-0.48438-0.37891l-0.40625-1.6211h-2.2188l-0.40625 1.6211a0.50005 0.50005 0 0 1-0.48438 0.37891h-2a0.50005 0.50005 0 0 1-0.48438-0.37891l-0.41406-1.6562-2.1016-0.19141z" style="fill:#f1f2f2;stroke-width:.16824"/>
</svg>
