<?xml version="1.0" encoding="UTF-8" standalone="no"?>
<!--Part of Monotone: https://github.com/sixsixfive/Monotone, released under cc-by-sa_v4-->
<svg xmlns="http://www.w3.org/2000/svg" version="1.1" viewBox="0 0 16 16">
 <g fill="#f1f2f2">
  <path d="m7 2c-0.554 0-1 0.446-1 1v2c0 0.554 0.446 1 1 1h2c0.554 0 1-0.446 1-1v-2c0-0.554-0.446-1-1-1zm0.25 1h1.5c0.1385 0 0.25 0.1115 0.25 0.25v1.5c0 0.1385-0.1115 0.25-0.25 0.25h-1.5c-0.1385 0-0.25-0.1115-0.25-0.25v-1.5c0-0.1385 0.1115-0.25 0.25-0.25z"/>
  <path d="m12 2c-0.554 0-1 0.446-1 1v2c0 0.554 0.446 1 1 1h1v-1h-0.75c-0.138 0-0.25-0.1115-0.25-0.25v-1.5c0-0.1385 0.112-0.25 0.25-0.25h1.5c0.138 0 0.25 0.1115 0.25 0.25v3.5c0 0.1385-0.112 0.25-0.25 0.25h-2.75v1h3c0.554 0 1-0.446 1-1v-4c0-0.554-0.446-1-1-1z"/>
  <path d="m2 2c-0.554 0-1 0.446-1 1v2c0 0.554 0.446 1 1 1h1v-1h-0.75c-0.1385 0-0.25-0.1115-0.25-0.25v-1.5c0-0.1385 0.1115-0.25 0.25-0.25h1.5c0.1385 0 0.25 0.1115 0.25 0.25v3.5c0 0.1385-0.1115 0.25-0.25 0.25h-2.75v1h3c0.554 0 1-0.446 1-1v-4c0-0.554-0.446-1-1-1z"/>
  <path d="m6 10c-0.554 0-1 0.446-1 1v2c0 0.554 0.446 1 1 1h2c0.554 0 1-0.446 1-1v-2c0-0.554-0.446-1-1-1zm0.25 1h1.5c0.1385 0 0.25 0.112 0.25 0.25v1.5c0 0.138-0.1115 0.25-0.25 0.25h-1.5c-0.1385 0-0.25-0.112-0.25-0.25v-1.5c0-0.138 0.1115-0.25 0.25-0.25z"/>
  <path d="m2 10c-0.554 0-1 0.446-1 1v2c0 0.554 0.446 1 1 1h2v-1h-1.75c-0.1385 0-0.25-0.112-0.25-0.25v-1.5c0-0.138 0.1115-0.25 0.25-0.25h1.75v-1z"/>
  <path d="m11 10c-0.554 0-1 0.446-1 1v3h1v-2.75c0-0.138 0.112-0.25 0.25-0.25h0.75v3h1v-2.75c0-0.138 0.112-0.25 0.25-0.25h0.75v3h1v-4h-3z"/>
 </g>
</svg>
