<?xml version="1.0" encoding="UTF-8"?>
<svg version="1.1" viewBox="0 0 16 16" xmlns="http://www.w3.org/2000/svg">
<g fill="#f1f2f2">
<path d="m8 1a7 7 0 0 0-7 7 7 7 0 0 0 7 7 7 7 0 0 0 7-7 7 7 0 0 0-7-7zm0.09375 0.99805v0.0019531a5.8913 5.985 0 0 1 5.8223 4.9844c-0.022113 0.0042654-0.039331 0.015625-0.064454 0.015625-1.4066 0-2.5819-4.0586-6.5039-4.0586-0.87474 0-1.7769 0.004125-2.5293 0.060547a5.8913 5.985 0 0 1 3.2754-1.0039zm-3.123 1.9902c0.18326 0.016508 0.35645 0.05182 0.51953 0.10352 1.8349 0.58165 3.5549 1.1342 4.8867 2.3184 1.1056 0.9823 2.4611 2.1044 3.5547 2.4629a5.8913 5.985 0 0 1-0.25977 1.0938c-1.3216-0.2641-2.8008-1.0825-4.1406-1.9668-2.0921-1.3788-3.5148-1.9766-4.875-1.9766-1.0433 0-1.8415 0.25341-2.2598 0.40234a5.8913 5.985 0 0 1 1.1113-2.2129c0.55115-0.18594 1.0402-0.26268 1.4629-0.22461zm-0.92578 6.0723c1.1346 0 2.8145 2.1699 7.3281 2.1699 0.38427 0 0.71402-0.043904 1.0078-0.10352a5.8913 5.985 0 0 1-2.1777 1.4785c-0.042246 6.47e-4 -0.072918 0.005859-0.11719 0.005859-1.9001 0-2.8613-0.5918-3.7734-0.5918-0.63488 0-1.0253 0.035456-1.3203 0.083985a5.8913 5.985 0 0 1-1.8516-1.8262c0.13686-0.55464 0.39272-1.2168 0.9043-1.2168z"/>
</g>
</svg>
