<?xml version="1.0" encoding="UTF-8"?>
<svg version="1.1" viewBox="0 0 16 16" xmlns="http://www.w3.org/2000/svg">
<path d="m7.5 0.97461c-1.1482 0-2.2885 0.37909-3.2227 1.0449l-1.8301-0.91406a1.0001 1.0001 0 0 0-0.48438-0.10547 1.0001 1.0001 0 0 0-0.96289 1v12a1.0001 1.0001 0 0 0 1.4473 0.89453l12-6a1.0001 1.0001 0 0 0 0-1.7891l-1.4277-0.71289c-0.028668-1.4102-0.6137-2.8032-1.6113-3.8008-1.023-1.023-2.4614-1.6172-3.9082-1.6172zm0 1.0254a4.5 4.5 0 0 1 4.5 4.5 4.5 4.5 0 0 1-4.5 4.5 4.5 4.5 0 0 1-4.5-4.5 4.5 4.5 0 0 1 4.5-4.5z" style="fill:#f1f2f2"/>
<path d="m7.5 3c-1.933 0-3.5 1.567-3.5 3.5s1.567 3.5 3.5 3.5 3.5-1.567 3.5-3.5-1.567-3.5-3.5-3.5zm-0.5 1h2v1h-1v3c0 0.55228-0.44772 1-1 1s-1-0.44772-1-1 0.44772-1 1-1v-2z" style="fill:#f1f2f2;paint-order:markers fill stroke"/>
</svg>
