<?xml version="1.0" encoding="UTF-8"?>
<svg version="1.1" viewBox="0 0 16 16" xmlns="http://www.w3.org/2000/svg">
<g id="tools" transform="translate(66.423 -256.04)">
<g id="gimp-tool-paintbrush" transform="translate(-127.42 79.021)" fill="#f1f2f2">
<g transform="matrix(.87462 0 0 .89178 86.927 167.56)">
<path d="m-28.5 26.307c3.1111 0.0011 2.7936-3.1806 4.3042-4.1062 1.7505-1.0726 3.2845 0.25648 3.5908 1.3503 0.38644 1.3802-0.33783 2.5087-1.3003 3.1189-1.8464 1.1707-6.3 0.75594-6.5946-0.36303z" fill="#f1f2f2"/>
</g>
<path d="m74.922 178.59c0.24842-0.56302-0.1319-0.77894-0.59006-0.30162-3.2215 3.3562-3.7734 3.3825-6.7864 7.7372 0.80848 0.0319 1.5025 0.58046 1.863 1.3723 3.5668-4.0357 3.9688-6.2013 5.5135-8.8078z"/>
</g>
</g>
</svg>
