<?xml version="1.0" encoding="UTF-8" standalone="no"?>
<!--Part of Monotone: https://github.com/sixsixfive/Monotone, released under cc-by-sa_v4-->
<svg xmlns="http://www.w3.org/2000/svg" version="1.1" viewBox="0 0 16 16">
 <g opacity=".5" fill="#f1f2f2">
  <path d="m0.472 10h2.028c0.262 0 0.472 0.223 0.472 0.5v1c0 0.277-0.21 0.5-0.472 0.5h-2.028a0.486 0.486 0 0 1 -0.472 -0.5v-1c0-0.277 0.21-0.5 0.472-0.5zm13.012 0h2.016c0.277 0 0.5 0.223 0.5 0.5v1c0 0.277-0.223 0.5-0.5 0.5h-2.016a0.499 0.499 0 0 1 -0.5 -0.5v-1c0-0.277 0.223-0.5 0.5-0.5zm-2.314-3.585l1.426-1.425a0.499 0.499 0 0 1 0.707 0l0.707 0.707a0.499 0.499 0 0 1 0 0.707l-1.425 1.426a0.499 0.499 0 0 1 -0.708 0l-0.707-0.707a0.499 0.499 0 0 1 0 -0.708zm-7.758 1.413l-1.425-1.425a0.499 0.499 0 0 1 0 -0.708l0.707-0.707a0.499 0.499 0 0 1 0.707 0l1.426 1.426a0.499 0.499 0 0 1 0 0.707l-0.707 0.707a0.499 0.499 0 0 1 -0.708 0zm3.588-2.328v-2c0-0.277 0.223-0.5 0.5-0.5h1c0.277 0 0.5 0.223 0.5 0.5v2c0 0.277-0.223 0.5-0.5 0.5h-1a0.499 0.499 0 0 1 -0.5 -0.5z" color="#f1f2f2" overflow="visible"/>
  <path d="m6.245 9a0.428 0.428 0 0 0 -0.375 0.261l-0.836 2.217c-0.101 0.234 0.126 0.528 0.404 0.522a25395 25395 0 0 0 5.134 0c0.277 0.006 0.505-0.288 0.403-0.522l-0.836-2.217c-0.073-0.193-0.337-0.306-0.548-0.235-0.213 0.07-0.82 0.261-1.586 0.261a5.147 5.147 0 0 1 -1.587 -0.26 0.465 0.465 0 0 0 -0.173 -0.027z" overflow="visible"/>
 </g>
</svg>
