<?xml version="1.0" encoding="UTF-8" standalone="no"?>
<!--Part of Monotone: https://github.com/sixsixfive/Monotone, released under cc-by-sa_v4-->
<svg xmlns="http://www.w3.org/2000/svg" version="1.1" viewBox="0 0 16 16">
 <g opacity=".5" fill="#f1f2f2">
  <path d="m0.5 7h2c0.277 0 0.5 0.223 0.5 0.5v1c0 0.277-0.223 0.5-0.5 0.5h-2a0.499 0.499 0 0 1 -0.5 -0.5v-1c0-0.277 0.223-0.5 0.5-0.5zm13 0h2c0.277 0 0.5 0.223 0.5 0.5v1c0 0.277-0.223 0.5-0.5 0.5h-2a0.499 0.499 0 0 1 -0.5 -0.5v-1c0-0.277 0.223-0.5 0.5-0.5zm-11.51 5.596l1.414-1.414a0.499 0.499 0 0 1 0.707 0l0.707 0.707a0.499 0.499 0 0 1 0 0.707l-1.414 1.414a0.499 0.499 0 0 1 -0.707 0l-0.707-0.707a0.499 0.499 0 0 1 0 -0.707zm9.192-9.192l1.414-1.415a0.499 0.499 0 0 1 0.707 0l0.707 0.708a0.499 0.499 0 0 1 0 0.707l-1.414 1.414a0.499 0.499 0 0 1 -0.707 0l-0.707-0.707a0.499 0.499 0 0 1 0 -0.707zm-4.182 12.096v-2c0-0.277 0.223-0.5 0.5-0.5h1c0.277 0 0.5 0.223 0.5 0.5v2c0 0.277-0.223 0.5-0.5 0.5h-1a0.499 0.499 0 0 1 -0.5 -0.5zm0-13v-2c0-0.277 0.223-0.5 0.5-0.5h1c0.277 0 0.5 0.223 0.5 0.5v2c0 0.277-0.223 0.5-0.5 0.5h-1a0.499 0.499 0 0 1 -0.5 -0.5zm5.596 11.51l-1.414-1.414a0.499 0.499 0 0 1 0 -0.707l0.707-0.707a0.499 0.499 0 0 1 0.707 0l1.414 1.414a0.499 0.499 0 0 1 0 0.707l-0.707 0.707a0.499 0.499 0 0 1 -0.707 0zm-9.192-9.192l-1.415-1.414a0.499 0.499 0 0 1 0 -0.707l0.708-0.707a0.499 0.499 0 0 1 0.707 0l1.414 1.414a0.499 0.499 0 0 1 0 0.707l-0.707 0.707a0.499 0.499 0 0 1 -0.707 0z" color="#f1f2f2" overflow="visible"/>
  <path style="text-decoration-line:none;text-transform:none;text-indent:0" font-family="Sans" d="m7.989 4.008a3.98 3.98 0 0 0 -3.98 3.979c0 2.197 1.782 4.009 3.98 4.009 2.197 0 4.008-1.812 4.008-4.009s-1.811-3.98-4.008-3.98zm0 1.99c1.116 0 2.018 0.873 2.018 1.989a2.017 2.017 0 0 1 -2.018 2.019c-1.117 0-1.99-0.903-1.99-2.019s0.873-1.99 1.99-1.99z" overflow="visible" font-weight="400"/>
 </g>
</svg>
