<?xml version="1.0" encoding="UTF-8" standalone="no"?>
<!--Part of Monotone: https://github.com/sixsixfive/Monotone, released under cc-by-sa_v4-->
<svg xmlns="http://www.w3.org/2000/svg" version="1.1" viewBox="0 0 16 16">
 <g fill="#f1f2f2">
  <path d="m7.6914 1.0156c-3.7216 0.1629-6.6914 3.2227-6.6914 6.9844 0 0.1914 0.0142 0.3788 0.0293 0.5664l6.6621-7.5508zm1.6895 0.1231c0.1597 0.0321 0.315 0.0743 0.4707 0.1172-0.1554-0.0426-0.3112-0.0853-0.4707-0.1172zm0.6481 0.1621c0.177 0.0538 0.349 0.1184 0.52 0.1855-0.171-0.0669-0.343-0.132-0.52-0.1855zm0.625 0.2246c0.151 0.062 0.297 0.1331 0.442 0.2051-0.146-0.072-0.291-0.1432-0.442-0.2051zm0.612 0.2871c0.179 0.095 0.354 0.197 0.523 0.3066-0.17-0.1095-0.344-0.2118-0.523-0.3066zm-2.266 0.1875l-7.8926 7.1758c0.1796 1.0592 0.5931 2.0372 1.1914 2.8772l6.7012-10.053zm-6.7012 10.053c0.1506 0.211 0.3137 0.412 0.4864 0.605-0.1723-0.193-0.336-0.394-0.4864-0.605zm-1.1914-2.8772c-0.0339-0.2001-0.0615-0.402-0.0781-0.6074 0.0166 0.2054 0.0442 0.4073 0.0781 0.6074zm10.7-7.0449c0.171 0.1117 0.337 0.2296 0.498 0.3554-0.161-0.1256-0.327-0.244-0.498-0.3554zm0.535 0.3828c0.158 0.1258 0.31 0.2597 0.457 0.3984-0.147-0.1388-0.299-0.2727-0.457-0.3984zm0.482 0.4218c-2.403 4.0504-4.2417 8.0635-4.867 12.062 0.0145 0 0.0285 0.002 0.043 0.002 1.0906 0 2.119-0.256 3.039-0.701a5 6 0 0 1 0 -0.002 5 6 0 0 1 3.857 -5.1408c0.063-0.3771 0.104-0.7612 0.104-1.1562 0-1.9941-0.838-3.7895-2.176-5.0645zm2.071 6.2286c-0.143 0.8489-0.437 1.6459-0.856 2.3609 0.419-0.716 0.713-1.512 0.856-2.3609zm-0.856 2.3609c-0.696 1.191-1.735 2.157-2.982 2.764 1.247-0.607 2.285-1.572 2.982-2.764zm-11.199 1.194c0.1655 0.181 0.34 0.353 0.5235 0.515-0.1834-0.162-0.358-0.334-0.5235-0.515zm0.5606 0.549c0.2001 0.174 0.4077 0.34 0.6269 0.492-0.2187-0.152-0.4272-0.318-0.6269-0.492zm0.6269 0.492c0.2234 0.154 0.4561 0.296 0.6973 0.424-0.2412-0.129-0.4739-0.27-0.6973-0.424zm0.7012 0.426c0.2211 0.117 0.4493 0.221 0.6836 0.314-0.2338-0.093-0.463-0.197-0.6836-0.314zm0.8613 0.378c0.1868 0.069 0.3765 0.131 0.5704 0.184-0.1936-0.053-0.3839-0.115-0.5704-0.184zm0.7793 0.237c0.1936 0.046 0.3905 0.083 0.5899 0.113-0.1995-0.03-0.3963-0.067-0.5899-0.113zm0.7891 0.142c0.257 0.031 0.5165 0.051 0.7813 0.053-0.2648-0.002-0.5245-0.022-0.7813-0.053z"/>
  <path opacity=".3" fill="#f1f2f2" d="m8 1c-0.1043 0-0.2054 0.0111-0.3086 0.0156l-6.6621 7.5508c0.0166 0.2061 0.0441 0.4087 0.0781 0.6094l7.8926-7.1758-6.7012 10.053c1.2611 1.771 3.322 2.931 5.6582 2.945 0.6253-3.999 2.464-8.0121 4.867-12.062-1.256-1.1972-2.9521-1.936-4.824-1.936z"/>
  <path opacity=".7" d="m14.896 9.1562a5 6 0 0 0 -3.857 5.1428c2.009-0.971 3.479-2.87 3.857-5.1428z" fill="#f1f2f2"/>
 </g>
</svg>
