<?xml version="1.0" encoding="UTF-8" standalone="no"?>
<!--Part of Monotone: https://github.com/sixsixfive/Monotone, released under cc-by-sa_v4-->
<svg id="svg2" xmlns="http://www.w3.org/2000/svg" viewBox="0 0 16 16" version="1.1"><g id="layer1" transform="translate(-31.976 -220.36)"><path id="rect6556" style="color-rendering:auto;text-decoration-color:#000000;color:#000000;shape-rendering:auto;solid-color:#000000;text-decoration-line:none;fill:#f1f2f2;mix-blend-mode:normal;text-indent:0;image-rendering:auto;white-space:normal;text-decoration-style:solid;isolation:auto;text-transform:none" d="m32.482 220.36c-0.11684 0.003-0.22879 0.0476-0.31641 0.12499-0.10713 0.0952-0.1683 0.2317-0.16797 0.37498-0.000248 0.009-0.000248 0.0182 0 0.0273l-0.02246 9.9721c0.000028 0.27613 0.24633 0.49995 0.52246 0.49998h3.502v-6.9996h9l-0.0078-3.5007c-0.000028-0.27611-0.22387-0.49994-0.5-0.49997h-12.01zm0.51562 0.99995h10.978v2.1971l-8.4834 0.0176c-0.27613 0.001-0.4991 0.2258-0.49805 0.50192l0.0098 6.2829h-2.029v-8.9995z"/><path id="rect6558" style="fill:#f1f2f2" d="m34 222.36-0.02441 6.9996 1.5258-0.00039-0.0078-5.2849 7.502-0.0156v-1.705c-3.0474-0.004-5.9727 0.022-9.0199 0.006z"/><path id="path829" d="m37.507 225.36c-0.11684 0.003-0.22879 0.0476-0.31641 0.12499-0.10713 0.0952-0.1683 0.2317-0.16797 0.37498-0.000248 0.009-0.000248 0.0182 0 0.0273l-0.02246 9.9721c0.000028 0.27613 0.24633 0.49995 0.52246 0.49998 3.5161 0.001 6.8428 0.0006 9.9531 0.00061 0.33496 0 0.52441-0.24865 0.52441-0.50002l-0.000005-10c-0.000028-0.27611-0.22387-0.49994-0.5-0.49997l-9.9775 0.00037h-0.01563zm0.51562 0.99995 8.9775 0.00002-0.01662 2.1968l0.017 6.8c-9 0-5.8856-0.00048-9-0.00048v-8.9995z" style="color-rendering:auto;text-decoration-color:#000000;color:#000000;shape-rendering:auto;solid-color:#000000;text-decoration-line:none;fill:#f1f2f2;mix-blend-mode:normal;text-indent:0;image-rendering:auto;white-space:normal;text-decoration-style:solid;isolation:auto;text-transform:none"/><path id="path831" style="fill:#f1f2f2" d="m39.024 227.36-0.024 7l1.5258-0.00039 5.4742-0.00003v-5-2c-3.0474-0.004-3.9528 0.0166-7 0.00057z"/></g></svg>
