<!--Part of Monotone: https://github.com/sixsixfive/Monotone, released under cc-by-sa_v4-->
<svg xmlns="http://www.w3.org/2000/svg" viewBox="0 0 16 16">
    <g color="#000" font-weight="400" fill="#f1f2f2">
        <path style="line-height:normal;-inkscape-font-specification:'Bitstream Vera Sans';text-indent:0;text-align:start;text-decoration-line:none;text-transform:none;marker:none" d="M1 4c.177.008.351.06.5.156l5 3c.282.18.438.512.438.844 0 .332-.156.664-.438.844l-5 3A.996.996 0 0 1 1 12H0V4h.844z" font-family="Bitstream Vera Sans" overflow="visible"/>
        <path style="line-height:normal;-inkscape-font-specification:Sans;text-indent:0;text-align:start;text-decoration-line:none;text-transform:none;marker:none" d="M14 4v8h2V4z" font-family="Sans" overflow="visible"/>
        <path style="line-height:normal;-inkscape-font-specification:'Bitstream Vera Sans';text-indent:0;text-align:start;text-decoration-line:none;text-transform:none;marker:none" d="M8 4c.177.008.351.06.5.156l5 3c.282.18.438.512.438.844 0 .332-.156.664-.438.844l-5 3A.996.996 0 0 1 8 12H7V4h.844z" font-family="Bitstream Vera Sans" overflow="visible"/>
    </g>
</svg>
