<?xml version="1.0" encoding="UTF-8"?>
<!--Part of Monotone: https://github.com/sixsixfive/Monotone, released under cc-by-sa_v4-->
<svg version="1.1" viewBox="0 0 16 16" xmlns="http://www.w3.org/2000/svg">
<g fill="#f1f2f2">
<path d="m3.332 1c-0.1845 0-0.33203 0.14753-0.33203 0.33203v3.668h1v-0.66797c0-0.1845 0.14753-0.33203 0.33203-0.33203h9.3359c0.184 0 0.33203 0.14753 0.33203 0.33203v7.3359c0 0.184-0.14803 0.33203-0.33203 0.33203h-0.66797v1h1.668c0.184 0 0.33203-0.14803 0.33203-0.33203v-11.336c0-0.1845-0.14803-0.33203-0.33203-0.33203h-11.336z" opacity=".5"/>
<path d="M 1.332,6 C 1.1475,6 1,6.1475 1,6.332 v 8.336 C 1,14.852 1.1475,15 1.332,15 H 11.668 C 11.852,15 12,14.852 12,14.668 V 6.332 C 12,6.1475 11.852,6 11.668,6 Z m 1,3 h 8.336 C 10.852,9 11,9.1475 11,9.332 v 4.336 C 11,13.852 10.852,14 10.668,14 H 2.332 C 2.1475,14 2,13.852 2,13.668 V 9.332 C 2,9.1475 2.1475,9 2.332,9 Z"/>
</g>
</svg>
