<?xml version="1.0" encoding="UTF-8"?>
<svg version="1.1" viewBox="0 0 16 16" xmlns="http://www.w3.org/2000/svg">
<g fill="#f1f2f2">
<path d="m2 5v3l2 1.1992v-3l-2-1.1992zm3 1.8008v3l2 1.1992v-3l-2-1.1992zm-3 2.1992v3l2 1.1992v-3l-2-1.1992zm3 1.8008v3l2 1.1992v-3l-2-1.1992z"/>
<path d="m13 5-2 1.1992v3l2-1.1992v-3zm-3 1.8008-2 1.1992v3l2-1.1992v-3zm3 2.1992-2 1.1992v3l2-1.1992v-3zm-3 1.8008-2 1.1992v3l2-1.1992v-3z"/>
<path d="m7.5 1-1.9043 1.1426 1.8652 1.2852 2.0039-1.248-1.9648-1.1797zm-2.6895 1.6133-2.3105 1.3867 2.0625 1.2363 2.0938-1.3047-1.8457-1.3184zm5.5059 0.076172-2.0566 1.2891 1.9902 1.3711 2.25-1.3496-2.1836-1.3105zm-2.873 1.8008-2.0195 1.2637 2.0762 1.2461 1.8809-1.1289-1.9375-1.3809z"/>
</g>
</svg>
