<!--Part of Monotone: https://github.com/sixsixfive/Monotone, released under cc-by-sa_v4-->
<svg xmlns="http://www.w3.org/2000/svg" viewBox="0 0 16 16">
    <path d="M1.384 3h1.231A.38.38 0 0 1 3 3.379V4.62a.38.38 0 0 1-.385.38h-1.23A.38.38 0 0 1 1 4.621V3.38A.38.38 0 0 1 1.384 3zm0 4.016h1.231A.38.38 0 0 1 3 7.394v1.243a.38.38 0 0 1-.385.379h-1.23A.38.38 0 0 1 1 8.636V7.395a.38.38 0 0 1 .384-.378zm0 3.984h1.231a.38.38 0 0 1 .385.379v1.242a.38.38 0 0 1-.385.379h-1.23A.38.38 0 0 1 1 12.621V11.38a.38.38 0 0 1 .384-.38zM7 3v4H3.937l5.125 5.781L14.187 7H11V3z" style="marker:none" overflow="visible" color="#000" fill="#f1f2f2"/>
</svg>
