<?xml version="1.0" encoding="UTF-8" standalone="no"?>
<!--Part of Monotone: https://github.com/sixsixfive/Monotone, released under cc-by-sa_v4-->
<svg xmlns:rdf="http://www.w3.org/1999/02/22-rdf-syntax-ns#" xmlns="http://www.w3.org/2000/svg" version="1.1" xmlns:cc="http://creativecommons.org/ns#" xmlns:dc="http://purl.org/dc/elements/1.1/" viewBox="0 0 16 16">
 <metadata>
  <rdf:RDF>
   <cc:Work rdf:about="">
    <dc:format>image/svg+xml</dc:format>
    <dc:type rdf:resource="http://purl.org/dc/dcmitype/StillImage"/>
    <dc:title/>
   </cc:Work>
  </rdf:RDF>
 </metadata>
 <g font-weight="400" font-family="Sans" fill="#f1f2f2">
  <path style="text-decoration-line:none;text-transform:none;text-indent:0" d="m3 3v2h1.906c-0.055 0 0.094 0.171 0.094 0.094v0.937h-1c-1.716 0-3.038 1.11-3.063 2.469-0.012 0.68 0.32 1.353 0.875 1.812 0.556 0.46 1.31 0.72 2.188 0.72h3v-5.939c0-1.17-0.897-2.093-2.094-2.093zm1 5.031h1v1h-1c-0.52 0-0.78-0.145-0.906-0.25-0.127-0.104-0.158-0.178-0.157-0.25 0.003-0.144 0.093-0.5 1.063-0.5zm4-6.031v9.031h3c0.938 0 1.782-0.382 2.312-0.969 0.53-0.586 0.76-1.332 0.75-2.062a3.073 3.073 0 0 0 -0.812 -2.031 3.04 3.04 0 0 0 -2.25 -0.969h-1v-3zm2 5h1c0.422 0 0.62 0.135 0.781 0.313 0.162 0.177 0.278 0.442 0.281 0.718 0.004 0.276-0.098 0.52-0.25 0.688-0.151 0.168-0.353 0.312-0.812 0.312h-1z" overflow="visible"/>
  <path style="text-decoration-line:none;text-transform:none;text-indent:0" d="m3 11.281l-0.344 0.375-2 2a0.5 0.5 0 1 0 0.688 0.688l1.656-1.656 1.656 1.656 0.344 0.375 0.344-0.375 1.656-1.656 1.656 1.656 0.344 0.375 0.344-0.375 1.656-1.656 1.656 1.656 0.344 0.375 0.344-0.375 2-2a0.5 0.5 0 1 0 -0.688 -0.688l-1.656 1.656-1.656-1.656-0.344-0.375-0.344 0.375-1.656 1.656-1.656-1.656-0.344-0.375-0.344 0.375-1.656 1.656-1.656-1.656z" overflow="visible"/>
 </g>
</svg>
