<!--Part of Monotone: https://github.com/sixsixfive/Monotone, released under cc-by-sa_v4-->
<svg xmlns="http://www.w3.org/2000/svg" viewBox="0 0 16 16">
    <path style="line-height:normal;-inkscape-font-specification:'Bitstream Vera Sans';text-indent:0;text-align:start;text-decoration-line:none;text-transform:none;marker:none" d="M14 4a.996.996 0 0 0-.5.156l-5 3c-.283.18-.438.512-.438.844 0 .332.155.664.438.844l5 3A.996.996 0 0 0 14 12h1V4h-.844zM7 4a.996.996 0 0 0-.5.156l-5 3c-.283.18-.438.512-.438.844 0 .332.155.664.438.844l5 3A.996.996 0 0 0 7 12h1V4h-.844z" overflow="visible" color="#000" font-weight="400" font-family="Bitstream Vera Sans" fill="#f1f2f2"/>
</svg>
