<!--Part of Monotone: https://github.com/sixsixfive/Monotone, released under cc-by-sa_v4-->
<svg xmlns="http://www.w3.org/2000/svg" viewBox="0 0 16 16">
    <path style="line-height:normal;-inkscape-font-specification:'Bitstream Vera Sans';text-indent:0;text-align:start;text-decoration-line:none;text-transform:none;marker:none" d="M1.938 4c.177.008.35.06.5.156l5 3c.282.18.437.512.437.844 0 .332-.155.664-.437.844l-5 3a.996.996 0 0 1-.5.156h-1V4h.843zm7 0c.177.008.35.06.5.156l5 3c.282.18.437.512.437.844 0 .332-.155.664-.437.844l-5 3a.996.996 0 0 1-.5.156h-1V4h.843z" overflow="visible" color="#000" font-weight="400" font-family="Bitstream Vera Sans" fill="#f1f2f2"/>
</svg>
