<?xml version="1.0" encoding="UTF-8" standalone="no"?>
<!--Part of Monotone: https://github.com/sixsixfive/Monotone, released under cc-by-sa_v4-->
<svg id="svg32" xmlns="http://www.w3.org/2000/svg" version="1.1" viewBox="0 0 16 16"><path id="path18" style="stroke-width:.33333;stroke-miterlimit:4.5;stroke-linecap:round;fill:#f1f2f2" d="m8 0c-2.216 0-4 1.784-4 4v1h-0.666c-0.7387 0-1.334 0.5953-1.334 1.334v7.332c0 0.739 0.5953 1.334 1.334 1.334h9.332c0.739 0 1.334-0.595 1.334-1.334v-7.332c0-0.7387-0.595-1.334-1.334-1.334h-0.666v-1c0-2.216-1.784-4-4-4zm0 2c1.1047 0 1.9723 0.9289 2 2.0332 0.048 1.9383-1.574 2.9891-1.9707 2.9668-0.0183-0.001 0.414-1 0.3047-1-1.6124 0-2.334-0.8953-2.334-2a2 2 0 0 1 2 -2zm0 6c0.4913 0 1 0.5087 1 1-0.0001 0.4502-0.1231 0.7539-0.5 1 1.5-0.0003 1.5 0.794 1.5 1.5 0 2.5 0 2.5-2 2.5s-2 0-2-2.5c0-0.707 0-1.5 1.5-1.5-0.3771-0.2458-0.4994-0.5499-0.5-1 0-0.573 0.5087-1 1-1z"/></svg>
