<!--Part of Monotone: https://github.com/sixsixfive/Monotone, released under cc-by-sa_v4-->
<svg xmlns="http://www.w3.org/2000/svg" viewBox="0 0 16 16">
    <path d="M1.97 0v14c0 2-1 2-1 2h1s1 0 1-1h1c0 1-1 1-1 1h1s1 0 1-1h6c0 1-.675 1-1 1h1s1 0 1-1h1c0 1-1 1-1 1h1s1 0 1-2V0h-3v4h-6V0zm1 1h1v1h-1zm9 0h1v1h-1zm-9 2h1v1h-1zm9 0h1v1h-1zm-9 2h1v1h-1zm2 0h6v4h-6zm7 0h1v1h-1zm-9 2h1v1h-1zm9 0h1v1h-1zm-9 2h1v1h-1zm9 0h1v1h-1zm-7 1h6v4h-6zm-2 1h1v1h-1zm9 0h1v1h-1zm-9 2h1v1h-1zm9 0h1v1h-1z" fill="#f1f2f2" color="#000"/>
</svg>
