<?xml version="1.0" encoding="UTF-8"?>
<!--Part of Monotone: https://github.com/sixsixfive/Monotone, released under cc-by-sa_v4-->
<svg version="1.1" viewBox="0 0 16 16" xmlns="http://www.w3.org/2000/svg">
<path d="M10.569 1a2.354 2.354 0 0 0-1.503.585c-1.4 1.225-.312 2.497-1.534 3.566-1.221 1.068-2.304-.209-3.704 1.016v.002a2.406 2.406 0 0 0-.672.973c-.002.003-.002.005-.002.007-.027.074-.05.148-.07.224-.009.034-.019.068-.026.102l-.002.012a2.45 2.45 0 0 0-.036.216v.002l-.002.012c-.005.034-.007.068-.01.102-.002.025-.005.051-.006.077L3 7.936v.114l.002.052.006.078.011.113v.002c.01.073.02.145.036.217l.002.011c.007.034.017.068.026.102a2.347 2.347 0 0 0 .073.231c.135.364.36.701.67.973v.002c1.402 1.225 2.484-.051 3.705 1.017 1.222 1.068.134 2.34 1.534 3.566.996.87 2.498.756 3.357-.253a2.437 2.437 0 0 0-.247-3.404c-1.401-1.225-2.483.054-3.705-1.014-.617-.54-.644-1.133-.7-1.745.056-.611.083-1.204.7-1.744 1.222-1.068 2.304.21 3.705-1.014a2.437 2.437 0 0 0 .247-3.404A2.358 2.358 0 0 0 10.568 1z" fill="#f1f2f2" fill-rule="evenodd" opacity=".5" overflow="visible"/>
</svg>
