<?xml version="1.0" encoding="UTF-8"?>
<svg version="1.1" viewBox="0 0 16 16" xmlns="http://www.w3.org/2000/svg">
<g id="tools" transform="matrix(-1,0,0,1,-72.278,-208.72)" style="fill:#f1f2f2">
<path d="m-84.278 208.72-1e-6 2 4 2h-2l-2 4 1e-6 -2-4-2h2z"/>
<path d="m-81.355 213.71a1.0001 1.0001 0 0 0-0.50391 1.8203l7 5a1.0001 1.0001 0 1 0 1.1621-1.627l-7-5a1.0001 1.0001 0 0 0-0.6582-0.19336z" style="color-rendering:auto;color:#000000;dominant-baseline:auto;font-feature-settings:normal;font-variant-alternates:normal;font-variant-caps:normal;font-variant-ligatures:normal;font-variant-numeric:normal;font-variant-position:normal;image-rendering:auto;isolation:auto;mix-blend-mode:normal;shape-padding:0;shape-rendering:auto;solid-color:#000000;text-decoration-color:#000000;text-decoration-line:none;text-decoration-style:solid;text-indent:0;text-orientation:mixed;text-transform:none;white-space:normal"/>
</g>
<path d="m12.827 9.0095c-0.22358-0.021183-0.4426-0.0034547-0.66088 0.018555-0.18595 0.57535-0.31402 1.3652-0.5951 1.4956-0.27725 0.12754-0.96131-0.26148-1.5089-0.49597a3.5252 3.4665 81.387 0 0-0.49158 0.609c0.32986 0.50301 0.81548 1.1016 0.74359 1.4009-0.07299 0.30295-0.7934 0.57184-1.3144 0.86257 0.023933 0.26892 0.094461 0.52888 0.17569 0.783 0.59178 0.05344 1.3538 0.03763 1.5403 0.28362 0.1891 0.25084-0.03187 1.0101-0.1285 1.6078 0.2086 0.14025 0.44047 0.24205 0.68149 0.33653 0.40874-0.4358 0.87996-1.0673 1.1857-1.0604 0.31385 0.0064 0.75825 0.69775 1.1612 1.1492 0.2419-0.07861 0.47044-0.19681 0.68926-0.32612-0.07656-0.60345-0.30787-1.4046-0.10904-1.6495 0.19974-0.24467 1.0217-0.16193 1.6197-0.19781 0.02388-0.06767 0.0668-0.12542 0.08729-0.19514 0.05215-0.17758 0.07234-0.36195 0.09693-0.54092-0.51158-0.3197-1.2787-0.63696-1.3443-0.95115-0.06403-0.3127 0.51172-0.9191 0.85377-1.417a3.5835 3.5238 81.387 0 0-0.47304-0.62109c-0.56145 0.20732-1.2659 0.619-1.5453 0.47517-0.27517-0.14149-0.3836-0.9494-0.54932-1.5316-0.03858-0.00474-0.07569-0.031416-0.11453-0.035261zm0.06072 1.9195a1.6406 1.6133 81.387 1 1-0.92153 3.1378 1.6406 1.6133 81.387 0 1 0.92153-3.1378z" overflow="visible" style="fill:#f1f2f2;stroke-width:.9638"/>
</svg>
