<!--Part of Monotone: https://github.com/sixsixfive/Monotone, released under cc-by-sa_v4-->
<svg viewBox="0 0 16 16" xmlns="http://www.w3.org/2000/svg">
    <path d="M8.094 1c-.967 0-2.429.525-1.938 2.156.27.898.453 1.359.532 1.844H9.5c.079-.485.23-.946.5-1.844C10.49 1.525 9.06 1 8.094 1zM6.719 6c-.003.024.003.038 0 .063-.037.312-.168.62-.313.937H9.75c-.134-.317-.244-.625-.281-.938-.003-.024.003-.038 0-.062h-2.75zm-.557 2C5.625 9.151 5 10.33 5 11.556 5.002 13.397 6.68 16 6.68 16h2.776s1.543-2.603 1.544-4.444C11 10.33 10.436 9.15 9.946 8z" style="marker:none" overflow="visible" color="#000" fill="#f1f2f2"/>
</svg>
