<?xml version="1.0" encoding="UTF-8" standalone="no"?>
<!--Part of Monotone: https://github.com/sixsixfive/Monotone, released under cc-by-sa_v4-->
<svg id="svg4" xmlns="http://www.w3.org/2000/svg" version="1.1" viewBox="0 0 16 16"><path id="path4493" style="fill:#f1f2f2" d="m5 0a1.0001 1.0001 0 0 0 -0.707 0.29297l-4 4a1.0001 1.0001 0 0 0 -0.293 0.707v5a1.0001 1.0001 0 0 0 0.29297 0.707l4 4a1.0001 1.0001 0 0 0 0.707 0.293h5a1.0001 1.0001 0 0 0 0.707 -0.293l4-4a1.0001 1.0001 0 0 0 0.293 -0.707v-5a1.0001 1.0001 0 0 0 -0.293 -0.707l-4-4a1.0001 1.0001 0 0 0 -0.707 -0.293h-5zm0.4141 2h4.1718l0.7071 0.707-2.793 2.793-2.793-2.793 0.7071-0.707zm-2.7071 2.707l2.793 2.793-2.793 2.793-0.707-0.7071v-4.1718l0.707-0.7071zm9.586 0l0.707 0.7071v4.1718l-0.707 0.7071-2.793-2.793 2.793-2.793zm-4.793 4.793l2.793 2.793-0.7071 0.707h-4.1718l-0.7071-0.707 2.793-2.793z"/></svg>
