<svg version="1.1" viewBox="0 0 16 16" xmlns="http://www.w3.org/2000/svg"><path d="m8 1a7 5.5 0 0 0-7 5.5 7 5.5 0 0 0 7 5.5 7 5.5 0 0 0 0.0039062 0c2.0812 1.0023 4.29 1.8895 6.5137 2 0.74968 0 0.48331-0.66681 0.015625-0.67383-1.1418-0.24289-1.9889-1.1303-2.7598-2.1934a7 5.5 0 0 0 3.2266-4.6328 7 5.5 0 0 0-7-5.5zm3.6914 7a0.2991 0.24425 0 0 1 0.21875 0.41797c-1.2683 1.0358-2.5793 1.582-3.9121 1.582-1.3328 0-2.6418-0.54626-3.9102-1.582a0.2991 0.24425 0 0 1 0.19922-0.41602 0.2991 0.24425 0 0 1 0.14844 0.025391c2.3949 0.97786 4.7321 0.97786 7.127 0a0.2991 0.24425 0 0 1 0.12891-0.027344z" style="fill:#f1f2f2;paint-order:markers fill stroke"/></svg>
