<?xml version="1.0" encoding="UTF-8" standalone="no"?>
<!--Part of Monotone: https://github.com/sixsixfive/Monotone, released under cc-by-sa_v4-->
<svg id="svg8" xmlns="http://www.w3.org/2000/svg" version="1.1" viewBox="0 0 16 16"><g id="g6" font-weight="400" fill="#f1f2f2"><path id="path2" style="text-decoration-line:none;text-transform:none;text-indent:0" d="m3.7012 1c-1.532 0-2.7168 1.3198-2.7168 2.8438l-0.00002 8.3442c0 1.524 1.1838 2.843 2.7168 2.843h7.3458c-0.02-0.037-0.021-0.037-0.041-0.074-0.188-0.345-0.376-0.69-0.518-0.945-0.002-0.004-0.002-0.005-0.004-0.008-0.217 0.003-0.418 0.036-0.652-0.006-0.9966-0.181-1.8226-0.757-2.2734-1.557-0.0208-0.036-0.0297-0.079-0.0488-0.117-1.0236-0.023-2.0713-0.106-3.3086-0.293-0.655-0.099-1.1856-0.522-1.1856-1.187v-7.344c0-0.822 0.7138-1.5238 1.4688-1.4688 3.526 0.256 5.3168 0.134 7.0466 0 0.754-0.058 1.531 0.6156 1.531 1.4376v3.8476c0.592 0.283 1.083 0.7123 1.391 1.2578 0.452 0.7993 0.517 1.8038 0.154 2.7478a0.8413 0.8413 0 0 0 0 0.002c-0.071 0.183-0.198 0.339-0.295 0.51l0.641 0.992c0.048-0.207 0.078-0.42 0.078-0.638v-8.3423c0-1.525-1.218-2.8437-2.75-2.8437l-8.5798-0.002zm3.2988 3v1h2v-1h-2zm0 2v4h0.3242c0.0291-0.1022 0.0432-0.2054 0.082-0.3066a0.8413 0.8413 0 0 1 0.0079 -0.0196c0.1591-0.3869 0.3771-0.7482 0.6464-1.0683a0.8413 0.8413 0 0 1 0.9395 -0.2481v-2.3574h-2z"/><path id="path1299" style="color:#000000;text-indent:0;text-decoration-line:none;text-transform:none;fill:#f1f2f2" overflow="visible" d="m12.03 7.845a3.264 3.264 0 0 0 -0.994 -0.003l0.976 1.728c0.2 0.356-0.024 0.763-0.45 1.01l-0.77 0.444c-0.43 0.24-0.91 0.208-1.11-0.147l-0.976-1.73a3.22 3.22 0 0 0 -0.515 0.848c-0.565 1.471 0.237 2.892 1.792 3.175 0.325 0.059 0.667 0.045 0.994 0.003 0.026-0.004 1.518 2.765 1.518 2.765l3.505 0.062-2.667-4.13c0.207-0.256 0.37-0.544 0.489-0.851 0.565-1.47-0.237-2.892-1.792-3.174z"/></g></svg>
