<?xml version="1.0" encoding="UTF-8" standalone="no"?>
<svg
   xmlns:dc="http://purl.org/dc/elements/1.1/"
   xmlns:cc="http://creativecommons.org/ns#"
   xmlns:rdf="http://www.w3.org/1999/02/22-rdf-syntax-ns#"
   xmlns:svg="http://www.w3.org/2000/svg"
   xmlns="http://www.w3.org/2000/svg"
   id="svg4"
   version="1.1"
   viewBox="0 0 16 16">
  <metadata
     id="metadata10">
    <rdf:RDF>
      <cc:Work
         rdf:about="">
        <dc:format>image/svg+xml</dc:format>
        <dc:type
           rdf:resource="http://purl.org/dc/dcmitype/StillImage" />
        <dc:title></dc:title>
      </cc:Work>
    </rdf:RDF>
  </metadata>
  <defs
     id="defs8" />
  <path
     id="path14"
     d="M 9.6972656 1.0253906 C 9.6059069 1.0323656 9.5271688 1.0485719 9.4179688 1.0761719 C 8.7518788 1.2446119 8.2265044 1.6554069 7.9589844 2.2167969 L 7.8730469 2.3984375 L 7.8730469 4.4238281 L 7.8730469 6.0058594 A 2 2 0 0 1 8 6 A 2 2 0 0 1 9.1464844 6.3632812 C 9.3865178 6.1664876 9.6730504 5.9317775 10.294922 5.4023438 L 11.808594 4.1132812 L 11.916016 3.8632812 C 12.074346 3.4929513 12.099729 3.3731744 12.099609 3.0214844 C 12.099469 2.6383944 12.044962 2.4557456 11.794922 2.0097656 C 11.426852 1.3532756 10.913607 1.0638437 10.054688 1.0273438 C 9.8926527 1.0204437 9.7886243 1.0184156 9.6972656 1.0253906 z M 5.5566406 1.3671875 C 5.2386206 1.3664875 5.2054319 1.3740438 5.0136719 1.4648438 C 4.7348219 1.5968338 4.5285075 1.79725 4.3984375 2.0625 C 4.2677475 2.32903 4.2324219 2.5142075 4.2324219 2.9296875 C 4.2324219 3.3179875 4.2974737 3.6092413 4.4648438 3.9570312 L 4.5800781 4.1972656 L 5.8691406 5.3535156 C 6.4502584 5.8748405 6.7763324 6.1577124 6.9453125 6.3007812 A 2 2 0 0 1 7.1855469 6.1757812 C 7.1952328 5.9431739 7.2050781 5.4448906 7.2050781 4.5527344 L 7.2050781 2.5976562 L 7.0488281 2.3320312 C 6.8249181 1.9510512 6.55898 1.700045 6.1875 1.515625 L 5.8945312 1.3691406 L 5.5566406 1.3671875 z M 13.246094 4.4472656 C 12.421114 4.4475456 12.554459 4.3729463 11.037109 5.6601562 C 10.372369 6.2240711 9.7906507 6.7182489 9.6347656 6.8515625 A 2 2 0 0 1 9.9511719 7.5664062 C 10.183935 7.5414725 10.735645 7.4796481 11.658203 7.375 C 13.502423 7.16584 13.646998 7.1468719 13.767578 7.0761719 C 14.292388 6.7686119 14.659894 6.3314869 14.777344 5.8730469 C 14.850614 5.5870469 14.799251 5.3399412 14.619141 5.1132812 C 14.432851 4.8788212 14.176117 4.6594075 13.966797 4.5546875 L 13.75 4.4472656 L 13.246094 4.4472656 z M 3.4667969 4.5546875 C 3.2677131 4.5493875 3.0653994 4.5625531 2.9121094 4.5957031 C 2.1335994 4.7640731 1.4945919 5.2058925 1.2324219 5.7578125 C 0.92643191 6.4019925 0.92226004 6.8227912 1.21875 7.3945312 C 1.3012 7.5535113 1.3727056 7.6364446 1.5410156 7.7714844 C 1.8042856 7.9827044 2.0219131 8.086975 2.2519531 8.109375 C 2.3479431 8.118775 2.4476563 8.1363906 2.4726562 8.1503906 C 2.5422163 8.1892006 2.5620338 8.1892638 4.3710938 8.0273438 C 5.2447507 7.949184 5.8935288 7.8925997 6.0058594 7.8847656 A 2 2 0 0 1 6.4550781 6.7304688 C 6.3412558 6.6250773 5.9290183 6.2460727 5.3652344 5.7285156 L 4.2402344 4.6953125 L 4 4.625 C 3.860505 4.58405 3.6658806 4.5599875 3.4667969 4.5546875 z M 13.445312 7.8398438 C 13.16625 7.84296 12.653554 7.9043719 11.527344 8.0292969 L 9.9902344 8.1992188 A 2 2 0 0 1 9.5371094 9.2773438 L 9.625 9.3613281 C 9.84293 9.5699081 10.428021 10.138177 10.925781 10.623047 C 11.824301 11.498297 11.832589 11.504862 12.074219 11.601562 C 12.208079 11.655162 12.447319 11.725112 12.605469 11.757812 C 13.050299 11.849852 13.513536 11.809984 13.878906 11.646484 C 14.498566 11.369194 14.997 10.555246 15 9.8164062 C 15.00158 9.4108362 14.765337 8.850945 14.398438 8.390625 C 14.230377 8.179755 14.151864 8.1082931 13.964844 8.0019531 C 13.771014 7.8917631 13.724375 7.8367275 13.445312 7.8398438 z M 6.0761719 8.5449219 C 5.9831088 8.5421154 5.3076762 8.5939802 4.390625 8.6777344 L 2.6230469 8.8398438 L 2.4609375 8.9609375 C 2.2682875 9.1063875 2.113275 9.3104875 1.984375 9.5859375 C 1.897675 9.7711875 1.8908437 9.8073597 1.9023438 10.037109 C 1.9261038 10.511899 2.1728069 10.946017 2.4980469 11.085938 C 2.5796869 11.121037 2.7531656 11.160781 2.8847656 11.175781 C 3.4082956 11.235531 3.9507919 11.190523 4.1386719 11.070312 C 4.1863319 11.039813 4.7507412 10.612764 5.3945312 10.121094 C 6.1143602 9.5713609 6.3696371 9.373568 6.4628906 9.2773438 A 2 2 0 0 1 6.0761719 8.5449219 z M 9.046875 9.7011719 A 2 2 0 0 1 8.3535156 9.9667969 C 8.365984 10.13534 8.4186832 10.689577 8.5117188 11.566406 L 8.7050781 13.380859 L 8.953125 13.626953 C 9.227215 13.900113 9.4729761 14.042997 9.7539062 14.091797 C 9.9887863 14.132597 10.33899 14.106356 10.5 14.035156 C 10.78929 13.907186 11.127963 13.457036 11.251953 13.035156 C 11.327653 12.777466 11.341662 12.445267 11.289062 12.154297 L 11.242188 11.898438 L 10.041016 10.695312 L 9.046875 9.7011719 z M 7.0800781 9.7734375 C 6.9526648 9.8340134 6.6340632 10.047841 5.78125 10.658203 L 4.4335938 11.621094 L 4.2714844 11.910156 C 4.0230344 12.351606 3.9487287 12.611368 3.9492188 13.017578 C 3.9495187 13.304358 3.9603562 13.386442 4.0351562 13.607422 C 4.1395363 13.915772 4.35244 14.246454 4.625 14.521484 C 4.80174 14.699834 4.8522394 14.730059 5.0996094 14.818359 C 5.2516494 14.872649 5.4836144 14.934931 5.6152344 14.957031 C 6.2826744 15.069111 6.9061888 14.955401 7.2929688 14.650391 C 7.5615787 14.438551 7.81416 14.110481 7.96875 13.769531 L 8.0566406 13.572266 L 7.8730469 11.763672 C 7.775911 10.811753 7.6970295 10.07151 7.6835938 9.9726562 A 2 2 0 0 1 7.0800781 9.7734375 z "
     style="fill:#f1f2f2;stroke-width:0.03033824" />
  <circle
     r="1"
     cy="8"
     cx="8"
     id="path23"
     style="opacity:1;fill:#f1f2f2;fill-opacity:0.99773751;stroke:none;stroke-width:1.5;stroke-linecap:round;stroke-linejoin:round;stroke-miterlimit:4;stroke-dasharray:none;stroke-opacity:1;paint-order:markers fill stroke" />
</svg>
