<?xml version="1.0" encoding="UTF-8"?>
<svg version="1.1" viewBox="0 0 16 16" xmlns="http://www.w3.org/2000/svg">
<path d="m7.55 3c-1.3819-0.00277-2.5028 1.1181-2.5 2.5v5c0 1.385 1.115 2.5 2.5 2.5h2.325l3.125 2v-2.063c1.1624-0.23171 1.9995-1.2518 2-2.437v-5c0-1.385-1.115-2.5-2.5-2.5z" style="fill:#f1f2f2"/>
<path d="m3.5 1c-1.385 0-2.5 1.115-2.5 2.5v5c4.92e-4 1.1852 0.83764 2.2058 2 2.4375v2.0625l1.4473-0.92578c-0.24409-0.47628-0.39648-1.006-0.39648-1.5742v-4.998c-0.0038576-1.9231 1.5772-3.5047 3.5-3.502h0.0019532 2.8887c-0.45633-0.60485-1.1758-1.0016-1.9922-1h-4.9492z" style="fill:#f1f2f2;opacity:.5"/>
</svg>
