<?xml version="1.0" encoding="UTF-8" standalone="no"?>
<!--Part of Monotone: https://github.com/sixsixfive/Monotone, released under cc-by-sa_v4-->
<svg id="svg4" xmlns="http://www.w3.org/2000/svg" version="1.1" viewBox="0 0 16 16"><path id="path2" style="color:#f1f2f2;text-indent:0;text-decoration-line:none;text-transform:none;fill:#f1f2f2" d="m1.5033 8.7771a5.636 5.636 0 0 0 0.063 0.563 6.03 6.03 0 0 0 2.343 3.968c2.642 1.982 6.425 1.424 8.407-1.217 1.98-2.642 1.422-6.425-1.22-8.406-0.17-0.123-0.382-0.19-0.593-0.188h-0.9997v1a1.024 1.024 0 0 0 0.406 0.813c1.777 1.332 2.114 3.817 0.781 5.593-1.332 1.777-3.816 2.114-5.593 0.782-1.777-1.335-2.114-3.819-0.782-5.596 0.323-0.43 0.733-0.77 1.188-1.031v1.438a1 1 0 0 0 1 1h1v-6h-6v1a1 1 0 0 0 1 1h1.688a5.966 5.966 0 0 0 -2.688 5.281z" overflow="visible" font-weight="400"/></svg>
