<?xml version="1.0" encoding="UTF-8" standalone="no"?>
<svg xmlns="http://www.w3.org/2000/svg" viewBox="0 0 16 16">
  <path
     id="path2"
     d="m 1.00003,0.99998672 c -0.13300003,-1.6e-4 -0.26762501,0.026425 -0.39062501,0.078125 -0.11799999,0.05 -0.223454,0.1222906 -0.31445399,0.2128906 -0.001,0.0013 -0.0029,0.00261 -0.0039,0.00391 -0.088,0.089 -0.158031,0.1936937 -0.20703101,0.3085937 -0.002,0.0055 -0.0078,0.010225 -0.0098,0.015625 C 0.02421999,1.7399273 0,1.8692867 0,1.9999868 V 13.999986 c 0,0.133 0.02416999,0.265672 0.07617,0.388672 0.04999999,0.118 0.123844,0.225406 0.214844,0.316406 l 0.0039,0.0039 c 0.089,0.088 0.193594,0.158032 0.30859399,0.207032 0.005,0.002 0.0087,0.0058 0.01367,0.0078 0.121,0.05 0.25181197,0.07617 0.38281197,0.07617 H 12.437491 c 0.1309,0.002 0.260913,-0.02136 0.382813,-0.06836 h 0.0039 c 0.0014,-0.001 0.0026,-0.002 0.0039,-0.002 0.1222,-0.048 0.233725,-0.119938 0.328125,-0.210938 l 2.564453,-2.5625 c 0.0916,-0.095 0.161385,-0.208431 0.208985,-0.332031 0.0482,-0.1231 0.07331,-0.254519 0.07031,-0.386719 V 1.9999868 c 0.0015,-0.0312 0.0015,-0.06235 0,-0.09375 0.0015,-0.0312 0.0015,-0.06255 0,-0.09375 -0.0226,-0.1139 -0.0649,-0.2228656 -0.125,-0.3222656 -0.0026,-0.0043 -0.0051,-0.00947 -0.0078,-0.013672 -0.0588,-0.0958 -0.133504,-0.1809531 -0.220703,-0.2519531 -0.0877,-0.0708 -0.184816,-0.1262625 -0.291016,-0.1640625 -0.0041,-0.0014 -0.0077,-0.00251 -0.01172,-0.00391 -0.110397,-0.038796 -0.226747,-0.058037 -0.343747,-0.056637 z M 1.5996389,1.9999868 h 7.800781 c 0.0353,0 0.06601,0.013731 0.09961,0.019531 0.0336,-0.0058 0.06431,-0.019531 0.09961,-0.019531 h 4.8007821 c 0.3324,0 0.599609,0.2672094 0.599609,0.5996094 v 6.8007812 c 0,0.3324 -0.267209,0.5996094 -0.599609,0.5996094 H 12.44925 v 0.0098 c -0.234,0.0245 -0.415453,0.205153 -0.439453,0.439453 h -0.0098 v 2.95117 c 3.4e-5,0.332966 -0.267175,0.599575 -0.599575,0.599575 H 1.5996399 c -0.333,0 -0.5996089,-0.266609 -0.5996089,-0.599609 V 2.5995962 c 0,-0.3324 0.2666089,-0.5996094 0.5996079,-0.5996094 z m 7.398438,2 v 1 c -1.2083,0 -2.411216,0.7041244 -3.353516,1.6464844 -0.94234,0.94234 -1.646484,2.1452156 -1.646484,3.3535156 h -1 v 2.9999992 h 3 V 9.9999868 h -1 c 0,-0.79167 0.545875,-1.8387844 1.353515,-2.6464844 0.80766,-0.80766 1.854785,-1.3535156 2.646485,-1.3535156 v 1 h 3.0000001 v -3 z m 5.0000001,6.9999992 h 1.001953 l -2.001953,2 v -1 c -10e-5,-1 0,-1 1,-1 z"
     style="text-indent:0;text-decoration:none;text-decoration-line:none;text-transform:none;fill:#f1f2f2;fill-opacity:1" />
</svg>
