<?xml version="1.0" encoding="UTF-8" standalone="no"?>
<!--Part of Monotone: https://github.com/sixsixfive/Monotone, released under cc-by-sa_v4-->

<svg
   xmlns:dc="http://purl.org/dc/elements/1.1/"
   xmlns:cc="http://creativecommons.org/ns#"
   xmlns:rdf="http://www.w3.org/1999/02/22-rdf-syntax-ns#"
   xmlns:svg="http://www.w3.org/2000/svg"
   xmlns="http://www.w3.org/2000/svg"
   xmlns:sodipodi="http://sodipodi.sourceforge.net/DTD/sodipodi-0.dtd"
   xmlns:inkscape="http://www.inkscape.org/namespaces/inkscape"
   viewBox="0 0 16 16"
   version="1.1"
   id="svg8"
   sodipodi:docname="irc-offline.svg"
   inkscape:version="0.92.2 (5c3e80d, 2017-08-06)">
  <metadata
     id="metadata14">
    <rdf:RDF>
      <cc:Work
         rdf:about="">
        <dc:format>image/svg+xml</dc:format>
        <dc:type
           rdf:resource="http://purl.org/dc/dcmitype/StillImage" />
        <dc:title></dc:title>
      </cc:Work>
    </rdf:RDF>
  </metadata>
  <defs
     id="defs12" />
  <sodipodi:namedview
     pagecolor="#ffffff"
     bordercolor="#666666"
     borderopacity="1"
     objecttolerance="10"
     gridtolerance="10"
     guidetolerance="10"
     inkscape:pageopacity="0"
     inkscape:pageshadow="2"
     inkscape:window-width="695"
     inkscape:window-height="480"
     id="namedview10"
     showgrid="false"
     inkscape:zoom="14.75"
     inkscape:cx="9.8983051"
     inkscape:cy="8"
     inkscape:window-x="0"
     inkscape:window-y="27"
     inkscape:window-maximized="0"
     inkscape:current-layer="g6" />
  <g
     color="#000"
     fill="#f1f2f2"
     id="g6">
    <path
       d="M13 3v5.563c0 .515-.052 1.108-.438 1.624-.385.517-1.094.839-2.062.813H6.437l-1.03 1H10l3 3v-3h1c.554 0 1-.446 1-1V4c0-.554-.446-1-1-1z"
       style="marker:none;opacity:0.5"
       fill-opacity=".365"
       overflow="visible"
       id="path2" />
    <path
       d="M2 1c-.554 0-1 .446-1 1v7c0 .554.446 1 1 1h1v3l3-3h5c.554 0 1-.446 1-1V2c0-.554-.446-1-1-1H2zm3 2h1v1h1V3h1v1h1v1H8v1h1v1H8v1H7V7H6v1H5V7H4V6h1V5H4V4h1V3zm1 2v1h1V5H6z"
       style="marker:none;opacity:0.5"
       overflow="visible"
       id="path4" />
  </g>
</svg>
