<?xml version="1.0" encoding="UTF-8" standalone="no"?>
<!--Part of Monotone: https://github.com/sixsixfive/Monotone, released under cc-by-sa_v4-->
<svg xmlns="http://www.w3.org/2000/svg" version="1.1" viewBox="0 0 16 16">
 <g fill="#f1f2f2">
  <path stroke-width="0.375" d="m2.5723 6.0017c-1.4086-0.0652-2.5725 1.7439-2.5723 3.9981 1.6816e-8 1.5442 0.42561 2.6272 1.0215 3.2772 0.014-0.496 0.0888-0.987 0.209-1.473-0.1689-0.458-0.29105-1.045-0.29105-1.8042-0.00007-0.9654 0.26205-1.8216 0.60935-2.3614s0.6891-0.7127 0.9805-0.6992c0.13263 0.00614 0.28174 0.06073 0.4375 0.16992 0.1327-0.2814 0.2738-0.5577 0.416-0.834-0.2543-0.1545-0.5237-0.2601-0.8105-0.2734z"/>
  <path stroke-width="0.375" d="m13.58 8c0.16803 0.38662 0.326 0.77709 0.47852 1.1719 0.60109 0.35814 1.0018 1.0057 1.002 1.7617 0 0.45545-0.0694 0.8097-0.17969 1.0957 0.05022 0.30873 0.09121 0.61898 0.11133 0.93359 0.01108 0.13575-0.0048 0.28476-0.01758 0.43164 0.598-0.487 1.026-1.299 1.026-2.46 0-1.4535-1.039-2.6617-2.42-2.934z"/>
  <path stroke-width=".36431" d="m7.9922 2c-0.8395 0.0392-1.3927 0.817-1.8906 1.4219-1.499 2.0827-2.594 4.4518-3.4414 6.8871-0.3556 1.157-0.7699 2.369-0.6329 3.601 0.0517 0.633 0.6227 1.211 1.2559 1.063l9.6468 0.054c0.818-0.179 1.125-1.229 1.062-1.998-0.126-1.969-0.89-3.8195-1.683-5.5915-0.814-1.6935-1.704-3.3981-3.0102-4.7461-0.3602-0.3437-0.7893-0.6966-1.3066-0.6914zm0.0215 0.8887c0.1124 0.0035 0.3528 0.1389 0.6621 0.4297 1.1793 1.2213 2.0352 2.8235 2.8362 4.4902l0.004 0.0098c0.782 1.7483 1.484 3.4966 1.597 5.2676a0.88032 0.88032 0 0 0 0.002 0.016c0.02 0.236-0.031 0.573-0.127 0.787-0.088 0.196-0.155 0.234-0.228 0.256l-9.4709-0.053a0.88032 0.88032 0 0 0 -0.2071 0.023c-0.0126 0.003-0.0008 0.015-0.0566-0.035s-0.1149-0.166-0.1211-0.242a0.88032 0.88032 0 0 0 -0.002 -0.026c-0.108-0.97 0.2381-2.061 0.5977-3.232 0.8253-2.3674 1.8829-4.6466 3.3066-6.6288 0.2542-0.3096 0.4895-0.6083 0.7012-0.7989 0.2113-0.1902 0.3545-0.2521 0.5059-0.2636z"/>
  <path d="m3.5684 8c-0.3278 0.7598-0.6366 1.528-0.9082 2.309-0.3556 1.157-0.7699 2.369-0.6329 3.601 0.0517 0.633 0.6227 1.211 1.2559 1.063l9.6468 0.054c0.818-0.179 1.125-1.229 1.062-1.998-0.113-1.763-0.742-3.4272-1.441-5.029h-0.578c-0.004 0.3291-0.049 0.6535-0.161 0.9453-0.288 0.7538-0.868 1.3777-1.658 1.6937-0.9042 0.425-1.9309 0.474-2.8708 0.177-0.9553-0.301-1.8669-1.0253-2.1934-2.1363a1.0023 1.0023 0 0 1 -0.0136 -0.0469c-0.0523-0.2147-0.0672-0.4252-0.0645-0.6328h-1.4433z" stroke-width=".36431"/>
  <path stroke-width=".37790" d="m8.5723 6.002c-1.2905-0.1046-2.8707 0.9661-2.5225 2.3952 0.4406 1.4995 2.414 1.9608 3.7123 1.3286 1.0249-0.3909 1.6399-1.7487 0.9319-2.6843-0.47-0.6807-1.3145-1.0216-2.1217-1.0395z"/>
 </g>
</svg>
