<!--Part of Monotone: https://github.com/sixsixfive/Monotone, released under cc-by-sa_v4-->
<svg xmlns="http://www.w3.org/2000/svg" version="1" viewBox="0 0 16 16">
    <path d="M8.794 10.815l-2.633.396V.255L8.82 0l-.027 4.813 3.51-4.7 2.831.651-3.652 4.7 3.624 4.983-2.774.878-3.54-5.182z" fill="#f1f2f2"/>
    <path d="M12.508 12.013l-.23.072a.08.08 0 0 1-.09-.03l-1.04-1.522A4.232 4.232 0 1 1 5.646 4.75V3.66a5.214 5.214 0 0 0-.772.34H4.87L2.878 2.69a.135.135 0 0 0-.17.018L1.664 3.753a.135.135 0 0 0-.02.166l1.223 2.014c-.217.364-.39.757-.515 1.172l-2.245.467A.135.135 0 0 0 0 7.704v1.477c0 .062.043.117.103.131l2.179.533c.116.48.296.935.534 1.354l-1.261 1.923a.135.135 0 0 0 .017.17l1.044 1.044a.136.136 0 0 0 .166.02l1.977-1.2c.388.224.806.4 1.249.52l.46 2.216a.135.135 0 0 0 .133.108h1.477a.135.135 0 0 0 .131-.103l.543-2.222a5.204 5.204 0 0 0 1.285-.54l1.948 1.276a.135.135 0 0 0 .17-.017l1.044-1.044a.135.135 0 0 0 .02-.166l-.711-1.171z" fill="#f1f2f2"/>
</svg>
