<?xml version="1.0" encoding="UTF-8" standalone="no"?>
<!--Part of Monotone: https://github.com/sixsixfive/Monotone, released under cc-by-sa_v4-->

<svg
   xmlns:dc="http://purl.org/dc/elements/1.1/"
   xmlns:cc="http://creativecommons.org/ns#"
   xmlns:rdf="http://www.w3.org/1999/02/22-rdf-syntax-ns#"
   xmlns:svg="http://www.w3.org/2000/svg"
   xmlns="http://www.w3.org/2000/svg"
   xmlns:sodipodi="http://sodipodi.sourceforge.net/DTD/sodipodi-0.dtd"
   xmlns:inkscape="http://www.inkscape.org/namespaces/inkscape"
   viewBox="0 0 16 16"
   version="1.1"
   id="svg4"
   sodipodi:docname="kipi-imageshack.svg"
   inkscape:version="0.92.2 (5c3e80d, 2017-08-06)">
  <metadata
     id="metadata10">
    <rdf:RDF>
      <cc:Work
         rdf:about="">
        <dc:format>image/svg+xml</dc:format>
        <dc:type
           rdf:resource="http://purl.org/dc/dcmitype/StillImage" />
        <dc:title></dc:title>
      </cc:Work>
    </rdf:RDF>
  </metadata>
  <defs
     id="defs8" />
  <sodipodi:namedview
     pagecolor="#ffffff"
     bordercolor="#666666"
     borderopacity="1"
     objecttolerance="10"
     gridtolerance="10"
     guidetolerance="10"
     inkscape:pageopacity="0"
     inkscape:pageshadow="2"
     inkscape:window-width="723"
     inkscape:window-height="480"
     id="namedview6"
     showgrid="true"
     inkscape:snap-bbox="true"
     inkscape:bbox-nodes="true"
     inkscape:zoom="1"
     inkscape:cx="10.508475"
     inkscape:cy="8"
     inkscape:window-x="1452"
     inkscape:window-y="609"
     inkscape:window-maximized="0"
     inkscape:current-layer="svg4">
    <inkscape:grid
       type="xygrid"
       id="grid18" />
  </sodipodi:namedview>
  <path
     style="fill:#f1f2f2"
     d="M 8 0 C 3.581719 0 1.1842379e-15 3.5817221 0 8 C 0 12.418278 3.581719 16 8 16 C 8.8460993 16 9.6603175 15.866467 10.425781 15.623047 C 9.471454 14.067548 8.5779529 12.784535 7.3261719 11.570312 C 5.6832174 9.9766507 4.7041993 9.4659959 3.5898438 9.6230469 C 2.9325178 9.7156879 2.7318792 9.6580809 2.3886719 9.2792969 C 1.9016548 8.7417642 1.8862256 8.5236656 2.2617188 7.5996094 C 2.5003258 7.0123826 2.6262202 6.9119367 3.0644531 6.9648438 C 3.4439897 7.0106588 3.7183296 7.2599381 4.0761719 7.8847656 C 4.6658922 8.9144799 4.9137293 8.9908255 6 9 C 6.7127384 9 6.8939527 9.1704304 7.1425781 8.5546875 C 7.1258543 7.3689954 6.5570547 6.1117234 5.8066406 5.5957031 C 5.4396856 5.3433715 5.0648142 4.9699482 4.9726562 4.765625 C 4.5417504 3.8102378 5.4638269 2.9644193 6.4296875 3 C 6.7516389 3.011854 7.0778202 3.1213656 7.3613281 3.3574219 C 7.8972951 3.8036821 7.967319 4.9918113 7.4882812 5.484375 C 7.1975982 5.7832699 7.2190477 5.8949931 7.7539062 6.984375 C 8.4280159 8.3575028 9.1199877 9.1387965 9.5214844 8.9804688 C 9.6772921 8.9189931 9.9407331 8.5778704 10.105469 8.2207031 C 10.376082 7.6337641 10.375608 7.5117534 10.107422 6.9589844 C 9.9442255 6.6226068 9.8382486 6.0124103 9.8710938 5.6035156 C 9.9274739 4.9018145 9.9707161 4.8578572 10.638672 4.8007812 C 12.126723 4.6735951 12.703977 6.4540461 11.570312 7.6738281 C 10.971054 8.3186094 10.89771 9.2129732 11 10.314453 C 11.086468 11.245641 11.659532 11 12.117188 10.464844 C 12.538855 9.9449615 12.728604 9.8483639 13.126953 9.9511719 C 14.089768 10.199645 14.340346 12.066609 13.449219 12.357422 C 13.223582 12.431068 12.71311 12.381384 12.314453 12.246094 C 10.912766 11.770429 11.000412 13 11.222656 13.90625 C 11.332114 14.135735 11.679582 14.532381 11.958984 14.945312 C 14.370324 13.56735 16 10.976187 16 8 C 16 3.5817221 12.418281 0 8 0 z M 11.958984 14.945312 C 11.728885 15.076803 11.490955 15.197299 11.248047 15.306641 C 11.492046 15.197969 11.728605 15.076963 11.958984 14.945312 z M 10.425781 15.623047 C 10.691692 15.538486 10.950079 15.438926 11.203125 15.328125 C 10.950602 15.439892 10.69201 15.538385 10.425781 15.623047 z "
     id="path2" />
</svg>
