<?xml version="1.0" encoding="UTF-8"?>
<svg version="1.1" viewBox="0 0 16 16" xmlns="http://www.w3.org/2000/svg">
<path d="m3 1c-1.108 0-2 0.892-2 2v10c0 1.108 0.892 2 2 2h10c1.108 0 2-0.892 2-2v-10c0-1.108-0.892-2-2-2h-10zm10 0.88867v2.1113c-1.0678 0.22802-1.7941 0.62668-2.3164 1.1348-0.72758 0.70792-1.1713 1.7117-1.623 2.8652h1.9395v2h-2.7715c-0.37574 0.79623-0.84143 1.5851-1.5449 2.2695-0.87141 0.84771-2.0775 1.4547-3.6836 1.7305v-2.1113c1.0678-0.22802 1.7941-0.62668 2.3164-1.1348 0.79777-0.77621 1.2539-1.8982 1.7539-3.1953 0.49991-1.2972 1.0439-2.7699 2.2461-3.9395 0.87141-0.84771 2.0775-1.4547 3.6836-1.7305z" style="fill:#f1f2f2;paint-order:markers fill stroke"/>
</svg>
