<?xml version="1.0" encoding="UTF-8" standalone="no"?>
<!--Part of Monotone: https://github.com/sixsixfive/Monotone, released under cc-by-sa_v4-->
<svg xmlns="http://www.w3.org/2000/svg" version="1.1" viewBox="0 0 16 16">
 <path opacity=".5" d="m1.455 1c-0.805 0-1.455 0.653-1.455 1.463v13.537l4.072-3.99h10.473c0.806 0 1.455-0.652 1.455-1.463v-8.084c0-0.81-0.649-1.463-1.455-1.463zm4.545 2h1v1h-1v5h1v1h-1c-1 0-1 0-1-1v-5c0-1 0-1 1-1zm2.2 2h2.6c0.111 0 0.199 0.088 0.199 0.2v0.6c0 0.112-0.088 0.2-0.199 0.2h-2.601c-0.109 0-0.199-0.088-0.199-0.2v-0.6c0-0.112 0.088-0.2 0.2-0.2zm0 2h2.6c0.111 0 0.199 0.088 0.199 0.2v0.6c0 0.112-0.088 0.2-0.199 0.2h-2.601c-0.109 0-0.199-0.088-0.199-0.2v-0.6c0-0.112 0.088-0.2 0.2-0.2z" fill="#f1f2f2"/>
</svg>
