<?xml version="1.0" encoding="UTF-8"?>
<!--Part of Monotone: https://github.com/sixsixfive/Monotone, released under cc-by-sa_v4-->
<svg version="1.1" viewBox="0 0 16 16" xmlns="http://www.w3.org/2000/svg">
<path d="m2.334 1c-0.739 0-1.334 0.59498-1.334 1.334v11.332c0 0.739 0.59498 1.334 1.334 1.334h11.332c0.739 0 1.334-0.59498 1.334-1.334v-11.332c0-0.739-0.59498-1.334-1.334-1.334zm0 1h11.332c0.20225 0 0.33398 0.13173 0.33398 0.33398v9.7051c-1.5475 0.067148-4.6758 0.18884-5.3203 0.09961-4.3175-0.83987-1.6797-6.1387 0.32031-3.1387 1.0779 0.95271 1.263-0.6097 1-1-2-4.4698-6-4-8 2v-7.666c0-0.20225 0.13173-0.33398 0.33398-0.33398z" style="fill:#f1f2f2"/>
</svg>
