<?xml version="1.0" encoding="UTF-8" standalone="no"?>
<!--Part of Monotone: https://github.com/sixsixfive/Monotone, released under cc-by-sa_v4-->
<svg id="svg10" xmlns="http://www.w3.org/2000/svg" version="1.1" viewBox="0 0 16 16"><g id="g8" font-weight="400" fill="#f1f2f2"><path id="path2" style="block-progression:tb;text-transform:none;text-indent:0" font-family="Sans" d="m11.281 0.005c-0.278 0.075-0.375 0.5-0.156 0.688l3.187 3.186c0.22 0.23 0.692 0.037 0.688-0.281v-3.218a0.414 0.414 0 0 0 -0.406 -0.375h-3.188a0.375 0.375 0 0 0 -0.125 0z" overflow="visible"/><path id="path4" style="text-transform:none;text-indent:0" font-family="Andale Mono" d="m1.844 0.005c-0.482 0.088-0.854 0.533-0.844 1v13.995c0 0.524 0.513 1 1.063 1h11.875c0.55 0 1.062-0.476 1.062-1l-0.031-7.59a0.975 0.975 0 0 0 -0.281 -0.72l-6.408-6.403a1.081 1.081 0 0 0 -0.75 -0.28h-5.467a1.331 1.331 0 0 0 -0.22 0zm1.156 2h4l3.5 3.498 2.5 2.5v5.997h-10v-11.995z" overflow="visible"/></g></svg>
