<?xml version="1.0" encoding="UTF-8" standalone="no"?>
<!--Part of Monotone: https://github.com/sixsixfive/Monotone, released under cc-by-sa_v4-->
<svg id="svg8" xmlns="http://www.w3.org/2000/svg" version="1.1" viewBox="0 0 16 16"><g id="g6" style="color:#000000;fill:#f1f2f2" font-weight="400" transform="translate(-3)"><path id="path2" style="text-decoration-line:none;text-transform:none;text-indent:0" overflow="visible" d="m8 0c-2.75 0-5 2.25-5 5 0 1.586 0.845 2.903 2 3.813v3.187h6v-3.188c1.155-0.909 2-2.226 2-3.812 0-2.75-2.25-5-5-5zm0 2c1.669 0 3 1.331 3 3 0 1.116-0.595 2.038-1.5 2.563l-0.5 0.312v2.125h-2v-2.125l-0.5-0.313c-0.905-0.524-1.5-1.445-1.5-2.562 0-1.669 1.331-3 3-3zm-2 13v1h4v-1zm-1-2v1h6v-1z"/><path id="path4" style="text-decoration-line:none;text-transform:none;text-indent:0" overflow="visible" d="m7 5v1h2v-1z"/></g><path id="path866" style="opacity:.5;color:#000000;text-indent:0;text-decoration-line:none;text-transform:none;fill:#f1f2f2" d="m13 0.99219c-1.098 0-2.008 0.90981-2.008 2.0078 0 1.099 0.91 2.0078 2.008 2.0078 1.099 0 2.008-0.9098 2.008-2.0078 0-1.099-0.91-2.0078-2.008-2.0078zm0 1.0156a0.98 0.98 0 0 1 0.992 0.9922 0.979 0.979 0 0 1 -0.992 0.9922 0.979 0.979 0 0 1 -0.992 -0.9922 0.98 0.98 0 0 1 0.992 -0.9922z"/><path id="path862" style="opacity:.5;color:#000000;text-indent:0;text-decoration-line:none;text-transform:none;fill:#f1f2f2" d="m13 5.9922c-1.098 0-2.008 0.9098-2.008 2.0078 0 1.099 0.91 2.008 2.008 2.008 1.099 0 2.008-0.91 2.008-2.008 0-1.099-0.91-2.0078-2.008-2.0078zm0 1.0156a0.98 0.98 0 0 1 0.992 0.9922 0.979 0.979 0 0 1 -0.992 0.9922 0.979 0.979 0 0 1 -0.992 -0.9922 0.98 0.98 0 0 1 0.992 -0.9922z"/><path id="path854" style="opacity:.5;color:#000000;text-indent:0;text-decoration-line:none;text-transform:none;fill:#f1f2f2" d="m13 11c-1.098 0-2.008 0.91-2.008 2.008 0 1.099 0.91 2.008 2.008 2.008 1.099 0 2.008-0.91 2.008-2.008 0-1.099-0.91-2.008-2.008-2.008zm0 1.016a0.98 0.98 0 0 1 0.992 0.992 0.979 0.979 0 0 1 -0.992 0.992 0.979 0.979 0 0 1 -0.992 -0.992 0.98 0.98 0 0 1 0.992 -0.992z"/></svg>
