<!--Part of Monotone: https://github.com/sixsixfive/Monotone, released under cc-by-sa_v4-->
<svg xmlns="http://www.w3.org/2000/svg" viewBox="0 0 16 16">
    <g color="#000" fill="#f1f2f2">
        <path style="marker:none" d="M9.492 1c-1.277 0-2.314.973-2.455 2.219C6.712 3.097 6.378 3 6.01 3a2.992 2.992 0 0 0-2.983 3c0 .098.022.185.03.281A1.992 1.992 0 0 0 .045 8c0 1.105.89 2 1.99 2h.372a3.37 3.37 0 0 1 .653-.969l2.455-2.469 2.455 2.47c.283.284.464.62.621.968h.467l1.43-1.438L11.915 10h2.548c.824 0 1.492-.672 1.492-1.5S15.288 7 14.464 7c-.206 0-.412.05-.59.125.052-.202.093-.407.093-.625 0-1.23-.889-2.228-2.051-2.438a2.5 2.5 0 0 0 .062-.562c0-1.38-1.113-2.5-2.486-2.5z" overflow="visible"/>
        <path style="line-height:normal;-inkscape-font-specification:Sans;text-indent:0;text-align:start;text-decoration-line:none;text-transform:none;marker:none" d="M5.5 7.906l-.344.375L3.72 9.687a2.502 2.502 0 0 0 0 3.532 2.54 2.54 0 0 0 3.562 0 2.502 2.502 0 0 0 0-3.531L5.844 8.28zm0 1.407l1.063 1.093c.59.59.59 1.535 0 2.125-.59.59-1.536.59-2.125 0V12.5c-.568-.591-.583-1.511 0-2.094zm5 .593l-.344.375-1.437 1.406a2.502 2.502 0 0 0 0 3.532 2.54 2.54 0 0 0 3.562 0 2.502 2.502 0 0 0 0-3.531l-1.437-1.407zm0 1.406l1.063 1.094c.59.59.59 1.535 0 2.125-.59.59-1.536.59-2.126 0V14.5c-.567-.591-.582-1.511 0-2.094z" font-weight="400" font-family="Sans" overflow="visible"/>
    </g>
</svg>
