<!--Part of Monotone: https://github.com/sixsixfive/Monotone, released under cc-by-sa_v4-->
<svg xmlns="http://www.w3.org/2000/svg" viewBox="0 0 16 16">
    <g color="#000" fill="#f1f2f2">
        <path style="marker:none" d="M9.51.044c-1.273 0-2.307.973-2.448 2.218-.324-.122-.657-.218-1.023-.218-1.643 0-2.975 1.343-2.975 3 0 .098.022.186.031.281a1.982 1.982 0 0 0-1.022-.281 1.992 1.992 0 0 0-1.984 2C.09 8.15.905 9 2 9h5V7.5c-.016-.786.74-1.47 1.518-1.487.8-.017 1.499.68 1.482 1.487V9h4.5c.822 0 1.455-.627 1.455-1.456 0-.828-.666-1.5-1.487-1.5-.206 0-.411.05-.59.125a2.44 2.44 0 0 0 .094-.625c0-1.23-.886-2.228-2.046-2.438.042-.181.062-.368.062-.562a2.49 2.49 0 0 0-2.479-2.5z" overflow="visible"/>
        <path style="line-height:normal;-inkscape-font-specification:Sans;text-indent:0;text-align:start;text-decoration-line:none;text-transform:none;marker:none" d="M8.406 7A.5.5 0 0 0 8 7.5V10H5v1H3.281l-.125.156-2.5 2.5a.5.5 0 1 0 .688.688L3.687 12H5v3a.5.5 0 0 0 1 0v-3.375a.5.5 0 0 0 0-.219V11h2v.719l.156.125L10 13.688V15a.5.5 0 0 0 1 0v-1h1.344l2.406 1.438a.504.504 0 1 0 .5-.876l-2.5-1.5-.125-.062h-1.938L9 11.312v-.687a.5.5 0 0 0 0-.219V7.5a.5.5 0 0 0-.594-.5z" font-weight="400" font-family="Sans" overflow="visible"/>
    </g>
</svg>
