<!--Part of Monotone: https://github.com/sixsixfive/Monotone, released under cc-by-sa_v4-->
<svg xmlns="http://www.w3.org/2000/svg" version="1" viewBox="0 0 16 16">
    <path d="M8.035 0c-6.417.035-9.57 16 .1 16 9.149 0 6.394-16.035-.1-16zM7.84 2.002a2.758 2.212 45 0 1 .742.076 2.758 2.212 45 0 0-.742-.076zm1.236.248a2.758 2.212 45 0 1 .473.262 2.758 2.212 45 0 1 .37.287 2.758 2.212 45 0 0-.37-.287 2.758 2.212 45 0 0-.473-.262zm1.041.74a2.758 2.212 45 0 1 .348.426 2.758 2.212 45 0 0-.348-.426zm-3.98.2a2.758 2.212 45 0 0-.115.449 2.758 2.212 45 0 0-.016.482 2.758 2.212 45 0 1 .016-.482 2.758 2.212 45 0 1 .115-.45zm-.131.933a2.758 2.212 45 0 0 .082.498 2.758 2.212 45 0 1-.082-.498zm4.906.256a2.758 2.212 45 0 1 .082.498 2.758 2.212 45 0 0-.082-.498zm.082.5a2.758 2.212 45 0 1-.015.482 2.758 2.212 45 0 1-.116.45 2.758 2.212 45 0 0 .116-.45 2.758 2.212 45 0 0 .015-.482zm-4.459.705a2.758 2.212 45 0 0 .348.426 2.758 2.212 45 0 1-.348-.426zm.545.617a2.758 2.212 45 0 0 .28.219 2.758 2.212 45 0 1-.28-.219zm.46.342a2.758 2.212 45 0 0 .384.207 2.758 2.212 45 0 1-.385-.207zm.92.387a2.758 2.212 45 0 0 .7.068 2.758 2.212 45 0 1-.7-.068z" fill-rule="evenodd" stroke-width=".392" fill="#f1f2f2"/>
</svg>
