<?xml version="1.0" encoding="UTF-8"?>
<svg version="1.1" viewBox="0 0 16 16" xmlns="http://www.w3.org/2000/svg">
 <g fill="#f1f2f2">
  <path d="m2.9878 9.106c0.948-0.277 1.953 0.294 2.253 1.282l0.675 2.226c0.3 0.988-0.224 2.006-1.172 2.283-0.949 0.278-1.954-0.294-2.253-1.282l-0.675-2.226c-0.3-0.987 0.223-2.006 1.172-2.283z"/>
  <path d="m6.9688 1c-3.306 0-6.024 3.008-5.969 5.719 0.048 2.365 0.809 4.695 1 5.281h1.526c-1.162-2.292-1.05-5.156-1.05-5.156 0-2.373 2.007-4.313 4.493-4.313 2.485 0 4.5 1.827 4.492 4.282-0.024 1.674-0.172 2.658-1.006 5.187h1.571c0.225-0.645 0.974-3.19 0.974-5.281 0-2.83-2.726-5.719-6.031-5.719z"/>
  <path d="m11.012 9.139c-0.948-0.278-1.953 0.294-2.253 1.282l-0.675 2.226c-0.3 0.987 0.224 2.006 1.172 2.283 0.949 0.277 1.954-0.294 2.253-1.282l0.675-2.226c0.3-0.988-0.223-2.006-1.172-2.283z"/>
  <g fill="#f1f2f2" stroke-linecap="round">
   <rect x="12" y="6" width="3" height="1" ry=".5"/>
   <rect x="14" y="3" width="1" height="3.4775" ry=".42369" stroke-width=".579"/>
   <rect x="14" y="6" width="1" height="7" ry=".85286" stroke-width=".82149"/>
  </g>
 </g>
</svg>
