<?xml version="1.0" encoding="UTF-8"?>
<svg version="1.1" viewBox="0 0 16 16" xmlns="http://www.w3.org/2000/svg">
<circle cx="8" cy="3" r="2" style="fill-opacity:.99444;fill:#f1f2f2;paint-order:markers fill stroke"/>
<path d="m5.9082 6c-0.69694 0-1.1543 0.69141-1.1543 0.69141l-3.0254 4.5586c-1.3006 1.7676-0.72965 2.8677 0.69531 2.8008 0.57552-0.05 1.3515-0.60414 2.0918-1.0508l-0.51562 2h8l-0.51562-2c0.84086 0.55887 1.5163 1.0008 2.0918 1.0508 1.425 0.06691 1.9959-1.0331 0.69531-2.8008l-3.0254-4.5586s-0.4593-0.69141-1.1562-0.69141h-4.1816zm-0.9082 1.5 3 1 3-1v1.9648l-0.44531-0.29688a1.0001 1.0001 0 0 0-0.53516-0.17578 1.0001 1.0001 0 0 0-0.57422 1.8398l1.5547 1.0371v0.63086l-3 1-3-1v-0.63086l1.5547-1.0371a1.0001 1.0001 0 0 0-0.57422-1.8398 1.0001 1.0001 0 0 0-0.53516 0.17578l-0.44531 0.29688v-1.9648z" style="fill-opacity:.99444;fill:#f1f2f2;paint-order:markers fill stroke"/>
</svg>
