<?xml version="1.0" encoding="UTF-8" standalone="no"?>
<!--Part of Monotone: https://github.com/sixsixfive/Monotone, released under cc-by-sa_v4-->
<svg id="svg8" xmlns="http://www.w3.org/2000/svg" version="1.1" viewBox="0 0 16 16"><g id="g6" font-weight="400" font-family="Sans" fill="#f1f2f2"><path id="path2" style="text-decoration-line:none;text-transform:none;text-indent:0" overflow="visible" d="m7.5 0.013a7.492 7.492 0 0 0 -7.486 7.487 7.492 7.492 0 0 0 7.486 7.487 7.492 7.492 0 0 0 7.487 -7.487 7.492 7.492 0 0 0 -7.487 -7.487zm0 1.974a5.508 5.508 0 0 1 5.514 5.513 5.508 5.508 0 0 1 -5.514 5.513 5.508 5.508 0 0 1 -5.513 -5.513 5.508 5.508 0 0 1 5.513 -5.513z"/><rect id="rect823" style="fill:#f1f2f2" ry=".5" height="4" width="1" y="7" x="5"/><rect id="rect825" style="fill:#f1f2f2" ry=".5" height="7" width="1" y="4" x="7"/><rect id="rect827" style="fill:#f1f2f2" ry=".5" height="4" width="1" y="7" x="9"/></g></svg>
