<?xml version="1.0" encoding="UTF-8"?>
<svg version="1.1" viewBox="0 0 16 16" xmlns="http://www.w3.org/2000/svg">
<path d="m8 1a7 7 0 0 0-7 7 7 7 0 0 0 7 7 7 7 0 0 0 2.1211-0.33789c0.83923-0.20858 1.0905-0.44687 1.5254-0.70508a0.50005 0.50005 0 0 0-0.23828-0.93359 0.50005 0.50005 0 0 0-0.27148 0.074218c-0.075782 0.044997-0.097091 0.06234-0.1543 0.09961-0.003546 0.00231-0.006276 0.003575-0.009766 0.005859a6 6 0 0 1-1.1914 0.51758 6 6 0 0 1-0.013672 0.003906 0.50005 0.50005 0 0 0-0.050781 0.013672 6 6 0 0 1-1.7168 0.26172 6 6 0 0 1-6-6 6 6 0 0 1 6-6 6 6 0 0 1 6 6 6 6 0 0 1-0.3125 1.877c-0.1689 0.50678-0.68665 1.0051-1.0703 1.1074-0.20972 0.05594-0.31105 0.031219-0.4043-0.056641-0.078427-0.073893-0.18146-0.27273-0.21289-0.6582v-4.7695c0-0.277-0.223-0.5-0.5-0.5-0.23612 0-0.42359 0.16538-0.47656 0.38477a4 4 0 0 0-3.0234-1.3848 4 4 0 0 0-4 4 4 4 0 0 0 4 4 4 4 0 0 0 3.0215-1.3887c0.009104 0.039147 0.019449 0.076358 0.03711 0.11133 0.079322 0.38497 0.22606 0.70493 0.46875 0.93359 0.37509 0.35342 0.90659 0.41062 1.3477 0.29297 0.88212-0.23531 1.6584-1.0198 1.8496-2.0254l-0.007812-0.0019531a7 7 0 0 0 0.2832-1.9219 7 7 0 0 0-7-7zm0 4a3 3 0 0 1 3 3 3 3 0 0 1-3 3 3 3 0 0 1-3-3 3 3 0 0 1 3-3zm4 7.4629a6 6 0 0 1-0.046875 0.037109c0.017277 0.007758 0.030717 0.021656 0.046875 0.03125v-0.03125-0.037109z" style="fill:#f1f2f2;paint-order:markers fill stroke"/>
</svg>
