<?xml version="1.0" encoding="UTF-8"?>
<!--Part of Monotone: https://github.com/sixsixfive/Monotone, released under cc-by-sa_v4-->
<svg version="1.1" viewBox="0 0 16 16" xmlns="http://www.w3.org/2000/svg">
<path d="m2 2c-0.554 0-1 0.446-1 1v10c0 0.554 0.446 1 1 1h2.6992c-0.25484-0.29347-0.44889-0.633-0.56641-1h-1.3223l1.2441-1.2441a1.0001 1.0001 0 0 1 0.72266-0.72461l2.0332-2.0312 0.86719 0.86719c0.089031 0.089032 0.20608 0.13281 0.32227 0.13281s0.23323-0.043784 0.32227-0.13281l0.86719-0.86719 1.8262 1.8262a1.0001 1.0001 0 0 1 0.98438-0.82617h0.1875l-1.998-2 3.8105-3.8125v6.2754l1 0.85938v-8.3223c0-0.554-0.446-1-1-1zm0.81055 1h10.379l-4.8672 4.8672c-0.17806 0.17806-0.46647 0.17806-0.64453 0zm-0.81055 1.1875 3.8105 3.8125-3.8105 3.8125z" style="fill:#f1f2f2;opacity:.5"/>
<g transform="matrix(.5 0 0 -.5 -9.203 15.5)" font-weight="400" style="fill:#f1f2f2">
<path transform="matrix(2,0,0,-2,18.406,31)" d="m8 11v0.625c0 0.16062 0.097017 0.33047 0.23242 0.44922l0.85938 0.72852a1.7575 1.7575 0 0 0 0.082031 0.19727h-2.4238c-0.42 0-0.75-0.33-0.75-0.75 0-0.088949 0.021503-0.1714 0.048828-0.25h-1.0234c-0.012045 0.082253-0.025391 0.16461-0.025391 0.25a1.7575 1.7575 0 0 0 1.75 1.75h2.5762l-1.0938 0.92578c-0.1354 0.11938-0.23242 0.28859-0.23242 0.44922v0.625h0.74023c0.22938 0 0.40818-0.05703 0.55469-0.17578l2.123-1.8242h1.9082l-1.0938 0.92578c-0.1354 0.11938-0.23242 0.28859-0.23242 0.44922v0.625h0.74023c0.22938 0 0.40818-0.05703 0.55469-0.17578l2.7051-2.3242-2.7051-2.3242c-0.1465-0.11938-0.32531-0.17578-0.55469-0.17578h-0.74023v0.625c0 0.16062 0.09702 0.33047 0.23242 0.44922l1.0938 0.92578h-1.9082l-2.123-1.8242c-0.1465-0.11938-0.32531-0.17578-0.55469-0.17578z" style="color:#000000;stroke-width:.5;text-decoration-line:none;text-indent:0;text-transform:none"/>
</g>
</svg>
