<?xml version="1.0" encoding="UTF-8"?>
<!--Part of Monotone: https://github.com/sixsixfive/Monotone, released under cc-by-sa_v4-->
<svg version="1.1" viewBox="0 0 16 16" xmlns="http://www.w3.org/2000/svg">
<g style="opacity:.5">
<path d="m8 0c-0.13556 0-0.27307 0.043784-0.37695 0.13281l-1.0117 0.86719h2.7773c-0.27759-0.23797-0.45836-0.39288-1.0117-0.86719-0.10387-0.089029-0.2414-0.13281-0.37695-0.13281zm-6 4.9551-1 0.85742v0.6875c0 0.076372 0.0231 0.14632 0.058594 0.21094-0.028417 0.093-0.058594 0.18652-0.058594 0.28906v7c0 0.554 0.446 1 1 1h12c0.554 0 1-0.446 1-1v-7c0-0.10254-0.030177-0.19606-0.058594-0.28906 0.035493-0.06462 0.058594-0.13457 0.058594-0.21094v-0.6875c-1.0001-0.8575-0.40691-0.34882-1-0.85742v1.998 0.046875 1 4.8125 0.6875c0 0.277-0.223 0.5-0.5 0.5h-0.31055-10.379-0.31055c-0.277 0-0.5-0.223-0.5-0.5v-0.6875-4.8125-0.5-0.5-0.046875-1.998z" style="fill:#f1f2f2;opacity:1"/>
<path d="m13.5 15c0.277 0 0.5-0.223 0.5-0.5v-0.6875c-5.6777-5.6797-2.5721-2.5741-5.6777-5.6797-0.089031-0.089029-0.20608-0.13281-0.32227-0.13281s-0.23323 0.043783-0.32227 0.13281l-5.6777 5.6797v0.6875c0 0.277 0.223 0.5 0.5 0.5h0.31055l4.8672-4.8672c0.17806-0.17806 0.46647-0.17806 0.64453 0l4.8672 4.8672z" style="fill:#f1f2f2;opacity:1"/>
<rect x="2" y="1" width="1" height="7" ry=".61958" style="fill:#f1f2f2;opacity:1"/>
<rect x="2" y="1" width="12" height="1" ry=".5" style="fill:#f1f2f2;opacity:1"/>
<rect x="13" y="1" width="1" height="7" ry=".58333" style="fill:#f1f2f2;opacity:1"/>
<rect transform="rotate(90)" x="3" y="-6" width="1" height="2" ry=".16667" style="fill:#f1f2f2;opacity:1"/>
<rect transform="rotate(90)" x="5" y="-12" width="1" height="8" ry=".66667" style="fill:#f1f2f2;opacity:1"/>
<rect x="1" y="7" width="14" height="1" ry=".5" style="fill:#f1f2f2;opacity:1"/>
</g>
</svg>
