<!--Part of Monotone: https://github.com/sixsixfive/Monotone, released under cc-by-sa_v4-->
<svg xmlns="http://www.w3.org/2000/svg" viewBox="0 0 16 16">
    <g color="#000" font-weight="400" fill="#f1f2f2">
        <path style="line-height:normal;-inkscape-font-specification:'Bitstream Vera Sans';text-indent:0;text-align:start;text-decoration-line:none;text-transform:none;marker:none" d="M9 7V6c0-.265-.093-.53-.281-.719l-3-3L5.437 2h-.874l-.282.281-3 3a1.015 1.015 0 0 0-.28.719L1 7h1c.265 0 .53-.093.719-.281L5 4.438l2.281 2.28c.188.189.454.282.72.282h1z" font-family="Bitstream Vera Sans" overflow="visible"/>
        <path style="line-height:normal;-inkscape-font-specification:Sans;text-indent:0;text-align:start;text-decoration-line:none;text-transform:none;marker:none" d="M4 4v7h2V4z" font-family="Sans" overflow="visible"/>
        <path style="line-height:normal;-inkscape-font-specification:'Bitstream Vera Sans';text-indent:0;text-align:start;text-decoration-line:none;text-transform:none;marker:none" d="M15 8v1c0 .265-.093.53-.281.719l-3 3-.281.281h-.875l-.282-.281-3-3A1.015 1.015 0 0 1 7 9V8h1c.265 0 .53.093.719.281L11 10.562l2.281-2.28A1.01 1.01 0 0 1 14 8h1z" font-family="Bitstream Vera Sans" overflow="visible"/>
        <path style="line-height:normal;-inkscape-font-specification:Sans;text-indent:0;text-align:start;text-decoration-line:none;text-transform:none;marker:none" d="M10 4v7h2V4z" font-family="Sans" overflow="visible"/>
    </g>
</svg>
