<!--Part of Monotone: https://github.com/sixsixfive/Monotone, released under cc-by-sa_v4-->
<svg xmlns="http://www.w3.org/2000/svg" viewBox="0 0 16 16">
    <g color="#000" font-weight="400" font-family="Bitstream Vera Sans" fill="#f1f2f2">
        <path style="line-height:normal;-inkscape-font-specification:'Bitstream Vera Sans';text-indent:0;text-align:start;text-decoration-line:none;text-transform:none;marker:none" d="M5.985 5.016A.998 1.002 0 0 1 5.001 4c0-2.198 1.797-4.002 3.988-4.002 2.19 0 3.987 1.804 3.987 4.002a.998 1.002 0 1 1-1.996 0 1.98 1.98 0 0 0-1.99-1.999 1.98 1.98 0 0 0-1.992 2 .998 1.002 0 0 1-1.012 1.015zM7.5 12A2.517 2.517 0 0 1 5 9.5a1 1 0 1 1 2 0c0 .288.212.5.5.5.288 0 .5-.212.5-.5a1 1 0 1 1 2 0c0 1.37-1.13 2.5-2.5 2.5z" overflow="visible"/>
        <path style="line-height:normal;-inkscape-font-specification:'Bitstream Vera Sans';text-indent:0;text-align:start;text-decoration-line:none;text-transform:none;marker:none" d="M8.781 5a1 1 0 0 0-.78 1v3.469a1 1 0 1 0 2 0V6a1 1 0 0 0-1.22-1zm3-2a1 1 0 0 0-.78 1v6.813a1 1 0 1 0 2 0V4a1 1 0 0 0-1.22-1zm-6 0a1 1 0 0 0-.78 1v5.406a1 1 0 1 0 2 0V4a1 1 0 0 0-1.22-1zm-3 1a1 1 0 0 0-.78 1v6a1 1 0 1 0 2 0V5a1 1 0 0 0-1.22-1z" overflow="visible"/>
        <path style="line-height:normal;-inkscape-font-specification:'Bitstream Vera Sans';text-indent:0;text-align:start;text-decoration-line:none;text-transform:none;marker:none" d="M11.844 10a1 1 0 0 0-.656.406L8.5 14H6.47l-2.69-3.531a1 1 0 1 0-1.562 1.187l3 3.938A1 1 0 0 0 6 16h3a1 1 0 0 0 .813-.406l3-4a1 1 0 0 0-.97-1.594z" overflow="visible"/>
    </g>
</svg>
