<?xml version="1.0" encoding="UTF-8"?>
<svg version="1.1" viewBox="0 0 16 16" xmlns="http://www.w3.org/2000/svg">
 <path d="m2 2c-0.554 0-1 0.446-1 1v10c0 0.554 0.446 1 1 1h6.9922v-1h-6.1816l4-4 0.86719 0.86719c0.089031 0.089032 0.20608 0.13281 0.32227 0.13281s0.23323-0.043784 0.32227-0.13281l0.86719-0.86719 1.8027 1.8027v-0.79492a1.0079 1.0079 0 0 1 0.40039-0.80273l-1.2031-1.2051 3.8105-3.8125v4.8125a1.0079 1.0079 0 0 1 1 0.89062v-6.8906c0-0.554-0.446-1-1-1h-12zm0.81055 1h10.379l-4.8672 4.8672c-0.17806 0.17806-0.46647 0.17806-0.64453 0l-4.8672-4.8672zm-0.81055 1.1875 3.8105 3.8125-3.8105 3.8125v-7.625z" fill="#f1f2f2" opacity=".5"/>
 <path d="m12 10.007v1.996h-2v1.997h2v1.997h2v-1.997h2v-1.997h-2v-1.996z" fill="#f1f2f2"/>
</svg>
