<svg version="1.1" viewBox="0 0 16 16" xmlns="http://www.w3.org/2000/svg"><path d="m2 1c-0.554 0-1 0.446-1 1v12c0 0.554 0.446 1 1 1h12c0.554 0 1-0.446 1-1v-12c0-0.554-0.446-1-1-1h-12zm0.5 1h11c0.277 0 0.5 0.223 0.5 0.5v11c0 0.277-0.223 0.5-0.5 0.5h-11c-0.277 0-0.5-0.223-0.5-0.5v-11c0-0.277 0.223-0.5 0.5-0.5z" style="fill:#f1f2f2"/><path d="m4 4h1.031c0.255 0.011 0.51 0.129 0.688 0.313l2.281 1.687 2.313-1.687c0.265-0.231 0.446-0.306 0.687-0.313h1v1c0 0.286-0.034 0.55-0.25 0.75l-1.75 2.25 1.719 2.281c0.16001 0.21233 0.281 0.454 0.281 0.719v1h-1c-0.265 0-0.53-0.093-0.719-0.281l-2.281-1.719-2.281 1.718c-0.19314 0.18507-0.45154 0.28642-0.719 0.282h-1v-1c0-0.265 0.093-0.53 0.281-0.719l1.719-2.281-1.72-2.25c-0.20432-0.19323-0.30771-0.47015-0.28-0.75z" font-weight="400" overflow="visible" style="color:#f1f2f2;fill:#f1f2f2;text-decoration-line:none;text-indent:0;text-transform:none"/></svg>
