<?xml version="1.0" encoding="UTF-8"?>
<!--Part of Monotone: https://github.com/sixsixfive/Monotone, released under cc-by-sa_v4-->
<svg version="1.1" viewBox="0 0 16 16" xmlns="http://www.w3.org/2000/svg">
<g style="fill:#f1f2f2">
<path d="m5.4414 7.0508c-1.109 0.363-2.4365 2.3235-2.4375 3.9375l-0.0039062 3.0117c0 0.554 0.446 1 1 1h8c0.554 0 1-0.446 1-1v-3c0-1.387-1.1023-3.5914-2.4453-3.9414-0.706 0.623-1.5397 0.90625-2.5547 0.90625-1.016 0-1.8526-0.29006-2.5586-0.91406zm1.5586 1.9492h2l1 1v1l-1 1h-2v1h3v1h-3l-1-1v-3l1-1zm0 1v1h2v-1h-2z"/>
<path d="m11 4a3 3 0 0 1-3 3 3 3 0 0 1-3-3 3 3 0 0 1 3-3 3 3 0 0 1 3 3z" overflow="visible" style="color:#f1f2f2"/>
</g>
</svg>
