<!--Part of Monotone: https://github.com/sixsixfive/Monotone, released under cc-by-sa_v4-->
<svg xmlns="http://www.w3.org/2000/svg" version="1" viewBox="0 0 16 16">
    <g stroke-width="0" fill="#f1f2f2">
        <path d="M1 4l7 4-7 4z" fill-rule="evenodd"/>
        <path d="M15 8c0-3.864-3.23-7-7-7-2.176 0-4.268 1.066-5.52 2.694l.879.503C4.427 2.86 6.183 2 8 2c3.211 0 6 2.713 6 6s-2.789 6-6 6c-1.811 0-3.66-.976-4.728-2.306l-.876.5C3.647 13.817 5.83 15 8 15c3.77 0 7-3.136 7-7z"/>
        <path d="M12 8c0-2.363-1.692-4-4-4-1.228 0-2.102.345-2.867 1.21l.907.517C6.61 5.151 7.14 5 8 5c1.744 0 3 1.204 3 3s-1.256 3-3 3c-.877 0-1.495-.23-2.068-.825l-.896.512C5.801 11.55 6.772 12 8 12c2.308 0 4-1.638 4-4z"/>
    </g>
</svg>
