<svg version="1.1" viewBox="0 0 16 16" xmlns="http://www.w3.org/2000/svg"><g fill="#f1f2f2"><path d="m11 8h4c0.015-0.765-0.048-4.517-0.041-5.253 3e-3 -0.961-0.742-1.74-1.674-1.744l-2.285-3e-3c0.02943 2.3333 0.01107 4.6666 0 7z"/><path d="M 1,9 C 0.989,9.832 0.963,10.5 0.962,11.266 0.953,13.277 3,15 8,15 14,15 15.028,13.313 15.038,11.302 15.003783,10.535174 14.991111,9.7675378 15,9 Z"/><path d="m5 8h-4c-0.015-0.765 0.048-4.517 0.041-5.253-3e-3 -0.961 0.742-1.74 1.674-1.744l2.285-3e-3c-0.02943 2.3333-0.01107 4.6666 0 7z"/><rect x="6" y="1" width="4" height="7" style="fill:#f1f2f2;paint-order:markers fill stroke"/></g></svg>
