<!--Part of Monotone: https://github.com/sixsixfive/Monotone, released under cc-by-sa_v4-->
<svg xmlns="http://www.w3.org/2000/svg" viewBox="0 0 16 16">
    <g color="#f1f2f2" font-weight="400" font-family="Sans" fill="#f1f2f2">
        <path style="line-height:normal;-inkscape-font-specification:Sans;text-indent:0;text-align:start;text-decoration-line:none;text-transform:none;marker:none" d="M7.989.996C4.147.996.996 4.146.996 7.989c0 3.842 3.15 7.015 6.993 7.015 3.842 0 7.015-3.173 7.015-7.015 0-3.842-3.173-6.993-7.015-6.993zm0 4.008c1.68 0 3.007 1.304 3.007 2.985a2.981 2.981 0 0 1-3.007 3.007c-1.68 0-2.985-1.327-2.985-3.007 0-1.68 1.304-2.985 2.985-2.985z" overflow="visible"/>
        <path style="line-height:normal;-inkscape-font-specification:Sans;text-indent:0;text-align:start;text-decoration-line:none;text-transform:none;marker:none" d="M8.005 6.006c-1.099 0-2.013.898-2.013 1.996 0 1.099.914 1.997 2.013 1.997a2.002 2.002 0 0 0 1.997-1.997 2.002 2.002 0 0 0-1.997-1.996zm0 .998a.99.99 0 0 1 .998.998.99.99 0 0 1-.998.999.99.99 0 0 1-.998-.999.99.99 0 0 1 .998-.998z" overflow="visible"/>
    </g>
</svg>
