<?xml version="1.0" encoding="UTF-8" standalone="no"?>
<!--Part of Monotone: https://github.com/sixsixfive/Monotone, released under cc-by-sa_v4-->
<svg xmlns="http://www.w3.org/2000/svg" version="1.1" viewBox="0 0 16 16">
 <path opacity=".5" style="text-decoration-line:none;text-transform:none;text-indent:0" d="m7.9883 0.99609c-3.842 0-6.9922 3.1492-6.9922 6.9922-0.00002 3.5437 2.6817 6.5127 6.1133 6.9527-0.0667-0.215-0.1094-0.439-0.1094-0.673 0-1.236 0.544-2.283 1.375-2.875 0.5885-0.42 1.1586-0.422 1.635-0.424v-0.742a2.981 2.981 0 0 1 -2.0217 0.769c-1.68 0-2.9844-1.3277-2.9844-3.0077s1.3034-2.9844 2.9844-2.9844c0.3655 0 0.71 0.0704 1.0312 0.1856-0.006-0.0633-0.0195-0.1246-0.0195-0.1895v-3c0-0.3224 0.0824-0.6214 0.2168-0.8906-0.3998-0.0719-0.8094-0.11331-1.2285-0.11331zm0.0176 5.0098c-1.099 0-2.0137 0.8981-2.0137 1.9961 0 1.099 0.9147 1.996 2.0137 1.996a2.002 2.002 0 0 0 1.9961 -1.996 2.002 2.002 0 0 0 -1.9961 -1.9961zm6.8791 0.7812c-0.176 0.0868-0.363 0.1473-0.563 0.1797 0.222 0.2099 0.449 0.4152 0.662 0.6309-0.015-0.2752-0.052-0.5445-0.099-0.8106zm-3.875 0.2129v5c-0.328 0-1.4939-0.193-2.0549 0.207-0.616 0.439-0.9551 1.049-0.9551 2.061 0 1.01 1.0827 1.732 2.473 1.732 1.33 0 2.434-0.773 2.529-1.721h0.008v-4.279l0.06-0.0391c1.006 0.2421 1.848 0.3231 1.94 3.0391 2.421-1.831 0.172-3.9081-2.108-6h-1.892zm-3.0041 0.0039a0.99 0.99 0 0 1 0.998 0.9981 0.99 0.99 0 0 1 -0.998 1 0.99 0.99 0 0 1 -0.9981 -1 0.99 0.99 0 0 1 0.9981 -0.9981z" fill="#f1f2f2"/>
 <path d="m12 0.004v1.996h-2v1.997h2v1.997h2v-1.997h2v-1.997h-2v-1.996z" fill="#f1f2f2"/>
</svg>
