<?xml version="1.0" encoding="UTF-8" standalone="no"?>
<!--Part of Monotone: https://github.com/sixsixfive/Monotone, released under cc-by-sa_v4-->
<svg id="svg6" xmlns="http://www.w3.org/2000/svg" version="1.1" viewBox="0 0 16 16"><path id="path2" style="text-indent:0;text-decoration-line:none;text-transform:none;fill:#f1f2f2" d="m7.9883 0.99609c-3.842 0-6.9922 3.1492-6.9922 6.9922-0.00001 3.1517 2.1208 5.8497 5.0039 6.7187v-0.707-3.766c-0.6107-0.5477-0.9961-1.3416-0.9961-2.2457 0-1.68 1.3034-2.9844 2.9844-2.9844 0.9221 0 1.7287 0.401 2.2777 1.0332a1.0001 1.0001 0 0 1 0.002 0 1.0001 1.0001 0 0 1 0.732 0.9629h1a1.0001 1.0001 0 0 1 1 -1h1 0.707c-0.869-2.8828-3.567-5.0039-6.7187-5.0039zm-1.9883 6.9297c-0.001 0.0259-0.0078 0.05-0.0078 0.0762 0 0.0261 0.0068 0.0502 0.0078 0.0761v-0.1523z"/><path id="path425" style="color:#000000;fill:#f1f2f2" d="m7 7v9h3v-1h3v1h3v-9h-3v1h-3v-1h-2zm1 1h1v1h-1zm6 0h1v1h-1zm-4 1h3v2h-3zm-2 1h1zm6 0h1zm-6 0h1v1h-1zm6 0h1v1h-1zm-6 2h1v1h-1zm2 0h3v2h-3zm4 0h1v1h-1zm-6 1h1zm6 0h1zm-6 1h1v1h-1zm6 0h1v1h-1z"/></svg>
