<?xml version="1.0" encoding="UTF-8" standalone="no"?>
<!--Part of Monotone: https://github.com/sixsixfive/Monotone, released under cc-by-sa_v4-->
<svg id="svg10" xmlns="http://www.w3.org/2000/svg" version="1.1" viewBox="0 0 16 16"><path id="path4499" style="fill:#f1f2f2" d="m3 4.5a1.5 1.5 0 0 1 -1.4983 1.5 1.5 1.5 0 0 1 -1.5017 -1.4966 1.5 1.5 0 0 1 1.495 -1.5034 1.5 1.5 0 0 1 1.505 1.4933"/><path id="path4523" style="fill:#f1f2f2" d="m11 12.5a1.5 1.5 0 0 1 -1.4983 1.5 1.5 1.5 0 0 1 -1.5017 -1.497 1.5 1.5 0 0 1 1.495 -1.503 1.5 1.5 0 0 1 1.505 1.493"/><path id="path4527" style="fill:#f1f2f2" d="m7 8.5a1.5 1.5 0 0 1 -1.4983 1.5 1.5 1.5 0 0 1 -1.5017 -1.4966 1.5 1.5 0 0 1 1.495 -1.5034 1.5 1.5 0 0 1 1.505 1.4933"/><path id="path4529" style="fill:#f1f2f2" d="m15 4.5a1.5 1.5 0 0 1 -1.498 1.5 1.5 1.5 0 0 1 -1.502 -1.4966 1.5 1.5 0 0 1 1.495 -1.5034 1.5 1.5 0 0 1 1.505 1.4933"/><path id="rect4565" style="opacity:.7;fill:#f1f2f2" d="m5 9v2.9834l1 1.017h3v-1h-3v-3z"/><path id="path4570" d="m1 5v3l1 1h3v-1h-3v-3z" style="opacity:.5;fill:#f1f2f2"/><path id="path4572" style="opacity:.7;fill:#f1f2f2" d="m10 13h3l1-1v-9h-1v9h-1-2z"/></svg>
