<?xml version="1.0" encoding="UTF-8"?>
<svg version="1.1" viewBox="0 0 16 16" xmlns="http://www.w3.org/2000/svg">
<defs>
<clipPath id="a">
<path d="m21 281h14v11h-14z" color="#f1f2f2" fill="none" overflow="visible" stroke="#fff" stroke-linecap="round" stroke-linejoin="round" stroke-width="2"/>
</clipPath>
</defs>
<g style="fill:#f1f2f2">
<path d="m5.5 0.987c1.385 0 2.5 1.115 2.5 2.5v5.013c0 1.385-1.115 2.5-2.5 2.5a2.495 2.495 0 0 1-2.5-2.5v-5.013c0-1.385 1.115-2.5 2.5-2.5z" overflow="visible" style="color:#f1f2f2"/>
<path transform="matrix(.99397 0 0 1 -22.293 -275.49)" d="m27.969 273.62a4.531 4.531 0 0 0-4.532 4.531v5.813a4.5315 4.5315 0 0 0 9.063 0v-5.813a4.531 4.531 0 0 0-4.531-4.531zm0 1a3.514 3.514 0 0 1 3.531 3.531v5.813a3.514 3.514 0 0 1-3.531 3.531 3.514 3.514 0 0 1-3.532-3.531v-5.813a3.514 3.514 0 0 1 3.532-3.531z" clip-path="url(#a)" font-weight="400" overflow="visible" style="color:#f1f2f2;text-decoration-line:none;text-indent:0;text-transform:none"/>
<path d="M 2,5.5 A 0.5,0.5 0 0 1 1.5,6 0.5,0.5 0 0 1 1,5.5 0.5,0.5 0 0 1 1.5,5 0.5,0.5 0 0 1 2,5.5 Z m 8,0 A 0.5,0.5 0 0 1 9.5,6 0.5,0.5 0 0 1 9,5.5 0.5,0.5 0 0 1 9.5,5 0.5,0.5 0 0 1 10,5.5 Z" overflow="visible" style="color:#f1f2f2"/>
<path d="m1.906 14a1.0011 1.0011 0 1 0 0.094 2h7a1 1 0 1 0 0-2h-7a1 1 0 0 0-0.094 0z" font-weight="400" overflow="visible" style="color:#f1f2f2;text-decoration-line:none;text-indent:0;text-transform:none"/>
<path d="m1 15h9v1h-9z" overflow="visible" style="color:#f1f2f2"/>
<path d="m4 12h3v4h-3z" overflow="visible" style="color:#f1f2f2"/>
</g>
</svg>
