<?xml version="1.0" encoding="UTF-8" standalone="no"?>
<!--Part of Monotone: https://github.com/sixsixfive/Monotone, released under cc-by-sa_v4-->
<svg xmlns="http://www.w3.org/2000/svg" version="1.1" viewBox="0 0 16 16">
 <path opacity=".5" d="m8 1-2.25 2.469-3.438-1.156 1.158 3.437-2.47 2.25 2.469 2.25-1.156 3.438 3.437-1.158 2.25 2.47 2.25-2.469 3.438 1.156-1.157-3.437 2.469-2.25-2.469-2.25 1.156-3.438-3.437 1.158zm0 3.593 0.719 0.688 2 2c0.223 0.226 0.331 0.561 0.281 0.875v0.844h-0.875c-0.3093 0.0386-0.6195-0.0647-0.844-0.281l-0.281-0.281v2.562h-2v-2.563l-0.281 0.282c-0.1945 0.1828-0.4521 0.2835-0.719 0.281h-1v-0.781c-0.001-0.0313-0.001-0.0627 0-0.094-0.04-0.304 0.067-0.624 0.281-0.844l2-2z" fill-rule="evenodd" fill="#f1f2f2"/>
</svg>
