<?xml version="1.0" encoding="UTF-8"?>
<svg version="1.1" viewBox="0 0 16 16" xmlns="http://www.w3.org/2000/svg">
<path d="m8 5-0.32031 0.48047 1.1465 2.5195h3.1738l2-3h-6zm7 0.5-2 3v6.5l2-2.5v-7zm-5.7207 3.5 1.6309 3.5859a1.0001 1.0001 0 0 1 0.089844 0.41406c0 0.88246-0.57366 1.5387-1.3125 2h2.3125v-6h-2.7207z" style="fill:#f1f2f2;opacity:.8;stroke-width:.5"/>
<path d="m4.5 2-4.5 11c0 1.1046 2.2386 2 5 2s5-0.89543 5-2l-5.5-11zm0 2 0.57422 1.1465-2.6172 7.1348c1.9947 0.83191 3.6865 0.88866 6.0215-0.32422l0.52148 1.043c-2.6856 1.3495-5.3518 1.317-8 0l3.5-9z" style="fill:#f1f2f2"/>
</svg>
