<?xml version="1.0" encoding="UTF-8" standalone="no"?>
<!--Part of Monotone: https://github.com/sixsixfive/Monotone, released under cc-by-sa_v4-->
<svg id="svg4" xmlns="http://www.w3.org/2000/svg" viewBox="0 0 16 16" version="1.1"><path id="rect855" style="fill:#f1f2f2" d="m1 13.5v1c0 0.277 0.223 0.5 0.5 0.5h13c0.277 0 0.5-0.223 0.5-0.5v-1c0 0.277-0.223 0.5-0.5 0.5h-13c-0.277 0-0.5-0.223-0.5-0.5z"/><path id="rect859" style="fill:#f1f2f2" d="m1.5 1c-0.277 0-0.5 0.223-0.5 0.5v11c0 0.277 0.223 0.5 0.5 0.5h13c0.277 0 0.5-0.223 0.5-0.5v-11c0-0.277-0.223-0.5-0.5-0.5h-13zm3 2h7c0.277 0 0.5 0.223 0.5 0.5v2.5h1.5c0.277 0 0.5 0.223 0.5 0.5s-0.223 0.5-0.5 0.5h-1.5v2.5c0 0.277-0.223 0.5-0.5 0.5h-7c-0.277 0-0.5-0.223-0.5-0.5v-2.5h-1.5c-0.277 0-0.5-0.223-0.5-0.5s0.223-0.5 0.5-0.5h1.5v-2.5c0-0.277 0.223-0.5 0.5-0.5zm-1 8c0.277 0 0.5 0.223 0.5 0.5s-0.223 0.5-0.5 0.5-0.5-0.223-0.5-0.5 0.223-0.5 0.5-0.5zm3 0c0.277 0 0.5 0.223 0.5 0.5s-0.223 0.5-0.5 0.5-0.5-0.223-0.5-0.5 0.223-0.5 0.5-0.5zm3 0c0.277 0 0.5 0.223 0.5 0.5s-0.223 0.5-0.5 0.5-0.5-0.223-0.5-0.5 0.223-0.5 0.5-0.5zm3 0c0.277 0 0.5 0.223 0.5 0.5s-0.223 0.5-0.5 0.5-0.5-0.223-0.5-0.5 0.223-0.5 0.5-0.5z"/><path id="rect865" style="fill:#f1f2f2" d="m5.3574 4c-0.1978 0-0.3574 0.1596-0.3574 0.3574v4.2852c0 0.1978 0.1596 0.3574 0.3574 0.3574h5.2856c0.197 0 0.357-0.1596 0.357-0.3574v-4.2852c0-0.1978-0.16-0.3574-0.357-0.3574h-5.2856zm1.8574 1h1.5704c0.1187 0 0.2148 0.0961 0.2148 0.2148v2.5704c0 0.1187-0.0961 0.2148-0.2148 0.2148h-1.5704c-0.1187 0-0.2148-0.0961-0.2148-0.2148v-2.5704c0-0.1187 0.0961-0.2148 0.2148-0.2148z"/></svg>
