<?xml version="1.0" encoding="UTF-8"?>
<svg version="1.1" viewBox="0 0 16 16" xmlns="http://www.w3.org/2000/svg">
 <g fill="#f1f2f2" opacity=".5">
  <path d="m1 7v7.4766c0 0.29 0.23354 0.52344 0.52344 0.52344h8.0117a4 4 0 0 1-0.53516-2 4 4 0 0 1 4-4 4 4 0 0 1 2 0.53711v-2.5371h-5v0.80273c0 0.649-0.60948 1.1973-1.3301 1.1973h-1.3398c-0.7206 0-1.3301-0.54827-1.3301-1.1973v-0.80273h-5z"/>
  <path d="M 1.4707,3 C 1.2097,3 1,3.2097 1,3.4707 V 6 H 6 V 3 Z M 10,3 v 3 h 5 V 3.4707 C 15,3.2097 14.79,3 14.529,3 Z"/>
  <rect x="7" y="3" width="2" height="5" ry=".15702"/>
 </g>
 <path d="m12.941 10a3 2.9999 0 0 0-2.9414 3 3 2.9999 0 0 0 6 0 3 2.9999 0 0 0-2.9121-2.998 3 2.9999 0 0 0-0.14648-0.001953zm0.058594 2a1 1 0 0 1 1 1 1 1 0 0 1-1 1 1 1 0 0 1-1-1 1 1 0 0 1 1-1z" fill="#f1f2f2" stroke-width=".49999"/>
</svg>
