<?xml version="1.0" encoding="UTF-8"?>
<svg version="1.1" viewBox="0 0 16 16" xmlns="http://www.w3.org/2000/svg">
<path d="m3.3008 1c-1.2931-0.039699-2.4151 1.176-2.3008 2.4592 0.0019858 3.1196-0.0039738 6.2392 0.0029838 9.3588 0.027693 1.2666 1.244 2.3054 2.4958 2.1821h5.0618c-0.76576-0.77187-1.5798-1.5153-2.207-2.4082-0.15939-0.28373-0.43772-1.3884-0.47785-0.51829-0.063898 0.486-0.047497 1.4079-0.77559 1.2928-0.66913-0.30842-0.88014-1.1302-1.0298-1.791-0.21868-1.1215-0.14699-2.2899 0.21278-3.3585-0.32929-0.51421-0.5538-1.0645-0.72485-1.6682-0.26869-0.71789-0.325-1.5258-0.83529-2.1329-0.39452-0.58493-0.99983-1.3163-0.57607-2.0447 0.35263-0.59682 1.15-0.34875 1.6357-0.078106 0.61735 0.28923 1.014 0.95881 1.7722 0.80875 0.69491 0.12692 1.3124 0.46685 1.8735 0.8841 1.2242 0.7571 2.3226 1.7657 2.9624 3.0729 0.37697 0.82956 0.6665 1.7024 1.0522 2.5308 0.41209 0.61849 1.3587 0.68282 1.8735 1.2566 0.54604 0.47442 1.1902 0.89836 1.4997 1.5758 0.06395 0.52319-1.0396 0.36708-1.4333 0.56936-0.996 0.01525 0.02602 0.76581 0.41564 0.97259 0.33253 0.32383 0.61812 0.52495 0.84329-0.03288 0.52939-0.80536 0.31255-1.7919 0.3584-2.6968-0.007766-2.7229 0.015615-5.4468-0.01184-8.1691-0.09153-1.2381-1.3054-2.1945-2.5265-2.065z" style="fill:#f1f2f2;paint-order:markers fill stroke"/>
<path d="m3.0957 3.0312c-0.065626 0.021471-0.095703 0.076522-0.095703 0.18359 0 0.78586 0.65226 0.89751 0.8125 1.5312 0.39485 0.92115 0.31345 2.0402 1.0391 2.793 0.43539 0.61642-0.0052453 1.3273-0.13086 1.9648-0.15525 0.79414-0.045279 1.6231 0.18945 2.3965 0.090805 0.29966 0.18921 0.29918 0.22461 0.009765 0.075032-0.61341 0.11631-1.5373 0.58594-1.9082 0.61026-0.06296 0.6311 0.76805 0.84961 1.1445 0.39909 1.0928 1.5306 1.935 2.209 2.8555 0.28291 0.4747 0.61843 1.1242 1.2148 0.96094 1.0518-0.01389 1.9599 0.10921 3.0059 0.037109 0.07872-0.3472-0.82512-0.89446-0.90625-1.3223-0.26308-0.35802-0.55488-0.99555 0.003906-1.2422 0.3337-0.20997 0.79863-0.22823 1.1484-0.35547 0.21492-0.079723 0.092152-0.19786-0.052735-0.31836-0.41914-0.33592-0.85815-0.66116-1.3828-0.81055-0.65013-0.14564-1.2025-0.57962-1.3496-1.25-0.51898-1.2459-0.89876-2.6201-1.9043-3.582-0.75421-0.75324-1.6358-1.3762-2.5566-1.9062-0.5549-0.3347-1.2653-0.084536-1.791-0.43164-0.27612-0.26748-0.42445-0.68024-0.80664-0.73828-0.13952-0.021186-0.24101-0.03319-0.30664-0.011719zm2.1855 1.9688c0.038322 0.0030785 0.075953 0.01601 0.10938 0.037109 0.24263 0.092374 0.50759 0.35416 0.47656 0.68945-5.857e-4 0.16974-0.15689 0.32812-0.29492 0.25586-0.17632-0.10622-0.24579-0.34682-0.36133-0.52344-0.052728-0.10877-0.22519-0.11197-0.20898-0.26953 0.043252-0.12951 0.16433-0.19869 0.2793-0.18945z" style="fill:#f1f2f2;paint-order:markers fill stroke"/>
</svg>
