<?xml version="1.0" encoding="UTF-8"?>
<svg version="1.1" viewBox="0 0 16 16" xmlns="http://www.w3.org/2000/svg">
<path d="m5 1a4 4 0 0 0-4 4 4 4 0 0 0 1 2.6387v2.3613l1.3574-1.3574a4 4 0 0 0 1.6426 0.35742 4 4 0 0 0 0.017578 0c0.11719-1.2733 0.68227-2.5026 1.5859-3.4082 0.64196-0.64335 1.4491-1.1158 2.3184-1.3789a4 4 0 0 0-3.9219-3.2129z" style="fill:#f1f2f2;paint-order:markers fill stroke"/>
<path d="m10.5 4.9824a4.5 4.5085 0 0 0-4.5 4.5098 4.5 4.5085 0 0 0 4.5 4.5078 4.5 4.5085 0 0 0 1.5703-0.28711l1.9297 1.2871v-2.6797a4.5 4.5085 0 0 0 1-2.8281 4.5 4.5085 0 0 0-4.5-4.5098z" style="fill:#f1f2f2;paint-order:markers fill stroke"/>
</svg>
