<?xml version="1.0" encoding="UTF-8" standalone="no"?>
<!--Part of Monotone: https://github.com/sixsixfive/Monotone, released under cc-by-sa_v4-->
<svg xmlns="http://www.w3.org/2000/svg" version="1.1" viewBox="0 0 16 16">
 <g fill="#f1f2f2">
  <g>
   <path d="m5 7c-1.662 0-3 1.338-3 3s1.338 3 3 3h7c1.662 0 3-1.338 3-3s-1.338-3-3-3h-7zm1 1a1 1 0 0 1 1 1 1 1 0 0 1 -1 1 1 1 0 0 1 -1 -1 1 1 0 0 1 1 -1zm3 0a1 1 0 0 1 1 1 1 1 0 0 1 -1 1 1 1 0 0 1 -1 -1 1 1 0 0 1 1 -1zm3 0a1 1 0 0 1 1 1 1 1 0 0 1 -1 1 1 1 0 0 1 -1 -1 1 1 0 0 1 1 -1z"/>
   <rect ry="1" height="2" width="5" y="6" x="7"/>
   <path d="m11 3c-1.108 0-2 0.892-2 2v2h1v-2c0-0.554 0.446-1 1-1z"/>
  </g>
  <path d="m1.9219 8a1.0001 1.0001 0 0 0 -0.96682 0.6777c0.27342 0.3527 0.44532 0.8119 0.44532 1.3223 0 0.51-0.1719 0.97-0.44532 1.322a1.0001 1.0001 0 0 0 1.2617 0.627l3-1a1.0001 1.0001 0 0 0 0.6836 -0.9549 1 1 0 0 1 -0.9004 -0.9941 1 1 0 0 1 0 -0.0215l-2.7832-0.9277a1.0001 1.0001 0 0 0 -0.2949 -0.0508z"/>
 </g>
</svg>
