<?xml version="1.0" encoding="UTF-8"?>
<!--Part of Monotone: https://github.com/sixsixfive/Monotone, released under cc-by-sa_v4-->
<svg version="1.1" viewBox="0 0 16 16" xmlns="http://www.w3.org/2000/svg">
<path d="m2.0625 0a2.048 2.048 0 0 0-2.0625 2.0625v11.875c0 1.151 0.9115 2.0625 2.0625 2.0625h11.875a2.048 2.048 0 0 0 2.0625-2.0625v-11.875a2.048 2.048 0 0 0-2.0625-2.0625h-11.875zm1.9375 3h0.03125 1.9688v3 1 2 2h4v-2-2-1l0.03125-3h1.9688 0.03125l-0.03125 8h-0.03125c0.019 0.647-0.295 1.1335-0.625 1.4375-0.35 0.322-0.71875 0.5625-1.3438 0.5625h-4c-0.625 0-0.99375-0.2405-1.3438-0.5625-0.33-0.304-0.644-0.7905-0.625-1.4375h-0.03125v-8z" fill="#f1f2f2"/>
</svg>
