<!--Part of Monotone: https://github.com/sixsixfive/Monotone, released under cc-by-sa_v4-->
<svg xmlns="http://www.w3.org/2000/svg" viewBox="0 0 16 16">
    <path style="marker:none" d="M2.063 0A2.048 2.048 0 0 0 0 2.063v11.874C0 15.088.912 16 2.063 16h11.874A2.048 2.048 0 0 0 16 13.937V2.063A2.048 2.048 0 0 0 13.937 0zm4.062 3.031h3.844c.003 0-.003.032 0 .031.527-.02 1.072.076 1.5.47.414.38.593 1.007.562 1.593h.031V6h-2v-.968c-.017-.003.004-.003-.03 0H6.093c-.007.003-.03-.004-.032 0-.007.022.007.046 0 .062v5.843c-.023-.021-.003.061 0 .063H9.97c.007-.02.03-.016.031 0V9.031H8v-2h4v3.938c0 .562-.227 1-.563 1.375a1.966 1.966 0 0 1-1.468.625V13H6.062c-.624 0-.994-.241-1.343-.563A1.863 1.863 0 0 1 4.094 11c0-.002-.032.002-.032 0V4.938c.063-.438.206-.89.563-1.282s.946-.625 1.5-.625z" color="#f1f2f2" overflow="visible" fill="#f1f2f2"/>
</svg>
