<!--Part of Monotone: https://github.com/sixsixfive/Monotone, released under cc-by-sa_v4-->
<svg xmlns="http://www.w3.org/2000/svg" viewBox="0 0 16 16">
    <g fill="#f1f2f2">
        <path style="marker:none" d="M.022 9v6h3v-3h-2V9zM12 .022v7h2v5h-2v3h3v-15zM4 12v3h3v-3zm4 0v3h3v-3zM4 6v1h3V6zm4-3v4h3V3z" color="#f1f2f2" overflow="visible" opacity=".35"/>
        <path d="M5 9.5A1.5 1.5 0 0 1 3.5 11 1.5 1.5 0 0 1 2 9.5 1.5 1.5 0 0 1 3.5 8 1.5 1.5 0 0 1 5 9.5zm4 0A1.5 1.5 0 0 1 7.5 11 1.5 1.5 0 0 1 6 9.5 1.5 1.5 0 0 1 7.5 8 1.5 1.5 0 0 1 9 9.5zm4 0a1.5 1.5 0 0 1-1.5 1.5A1.5 1.5 0 0 1 10 9.5 1.5 1.5 0 0 1 11.5 8 1.5 1.5 0 0 1 13 9.5z"/>
    </g>
</svg>
