<?xml version="1.0" encoding="UTF-8"?>
<svg version="1.1" viewBox="0 0 16 16" xmlns="http://www.w3.org/2000/svg"><g fill="#f1f2f2"><path d="m9 1v5h1v-5h-1zm-6.9688 7v3h-2.0312v4.9375h5v-4.9375h-1.9688v-2h8.9688v2h-2v5h5v-5h-2v-3h-4.6426-0.35742-1-4.9688z"/></g><path d="m0.5 0c-0.277 0-0.5 0.223-0.5 0.5v6c0 0.277 0.223 0.5 0.5 0.5h7c0.277 0 0.5-0.223 0.5-0.5v-6c0-0.277-0.223-0.5-0.5-0.5h-7zm3.0391 1h1c0.822 0 1.519 0.72458 1.5 1.4844l-0.039062 1.5352h0.5c0.277 0 0.5 0.20494 0.5 0.46094v1.5391h-6v-1.5391c0-0.256 0.223-0.46094 0.5-0.46094h0.5l0.039062-1.5352c0.0189-0.75876 0.678-1.4844 1.5-1.4844zm0 1.0234c-0.286 0-0.4934 0.19704-0.5 0.46094l-0.039062 1.5352h2l0.039062-1.5352c0.00658-0.26392-0.214-0.46094-0.5-0.46094h-1z" fill="#f1f2f2"/></svg>
