<?xml version="1.0" encoding="UTF-8"?>
<!--Part of Monotone: https://github.com/sixsixfive/Monotone, released under cc-by-sa_v4-->
<svg version="1.1" viewBox="0 0 16 16" xmlns="http://www.w3.org/2000/svg" xmlns:cc="http://creativecommons.org/ns#" xmlns:dc="http://purl.org/dc/elements/1.1/" xmlns:rdf="http://www.w3.org/1999/02/22-rdf-syntax-ns#">
 <metadata>
  <rdf:RDF>
   <cc:Work rdf:about="">
    <dc:format>image/svg+xml</dc:format>
    <dc:type rdf:resource="http://purl.org/dc/dcmitype/StillImage"/>
    <dc:title/>
   </cc:Work>
  </rdf:RDF>
 </metadata>
 <g fill="#f1f2f2">
  <g>
   <path d="m12 0v15h3v-15z" opacity=".35" style="text-decoration-line:none;text-indent:0;text-transform:none"/>
   <path d="m9 3v4.3574c0 0.3562-0.28638 0.64258-0.64258 0.64258h-0.35742v7h3v-12z" style="text-decoration-line:none;text-indent:0;text-transform:none"/>
   <path d="m4 8v7h3v-7z" style="text-decoration-line:none;text-indent:0;text-transform:none"/>
   <path d="m0 9v6h3v-6z" style="text-decoration-line:none;text-indent:0;text-transform:none"/>
  </g>
  <path d="m0.5 0c-0.277 0-0.5 0.223-0.5 0.5v6c0 0.277 0.223 0.5 0.5 0.5h7c0.277 0 0.5-0.223 0.5-0.5v-6c0-0.277-0.223-0.5-0.5-0.5h-7zm3.0391 1h1c0.822 0 1.519 0.72458 1.5 1.4844l-0.039062 1.5352h0.5c0.277 0 0.5 0.20494 0.5 0.46094v1.5391h-6v-1.5391c0-0.256 0.223-0.46094 0.5-0.46094h0.5l0.039062-1.5352c0.0189-0.75876 0.678-1.4844 1.5-1.4844zm0 1.0234c-0.286 0-0.4934 0.19704-0.5 0.46094l-0.039062 1.5352h2l0.039062-1.5352c0.00658-0.26392-0.214-0.46094-0.5-0.46094h-1z"/>
 </g>
</svg>
