<?xml version="1.0" encoding="UTF-8" standalone="no"?>
<!--Part of Monotone: https://github.com/sixsixfive/Monotone, released under cc-by-sa_v4-->
<svg id="svg6" xmlns="http://www.w3.org/2000/svg" viewBox="0 0 16 16" version="1.1"><path id="rect4493" style="fill:#333333" d="m8.3574 8c0.3562 0 0.6426-0.2864 0.6426-0.6426v-7.3574h-9v8z"/><rect id="rect4491" style="fill:#f1f2f2" ry=".5" height="7" width="8" y="0" x="0"/><path id="path4725" style="color:#f1f2f2;fill:#333333" overflow="visible" d="m3.5383 1c-0.822 0-1.4811 0.72574-1.5 1.4845l-0.0383 1.5345h-0.5c-0.277 0-0.5 0.205-0.5 0.461v1.539h6v-1.539c0-0.256-0.223-0.461-0.5-0.461h-0.5l0.0383-1.5345c0.019-0.7598-0.678-1.4845-1.5-1.4845zm0 1.0225h1c0.286 0 0.50658 0.19808 0.5 0.462l-0.0383 1.5345h-2l0.0383-1.5345c0.0066-0.2639 0.214-0.462 0.5-0.462z"/></svg>
