<?xml version="1.0" encoding="UTF-8" standalone="no"?>
<!--Part of Monotone: https://github.com/sixsixfive/Monotone, released under cc-by-sa_v4-->
<svg id="svg6" xmlns="http://www.w3.org/2000/svg" viewBox="0 0 16 16" version="1.1"><path id="rect4493" style="fill:#333333" d="m7.6426 8c-0.3562 0-0.6426 0.2864-0.6426 0.6426v7.3574h9v-8h-8.3574z"/><rect id="rect4491" style="fill:#f1f2f2" ry=".5" height="7" width="8" y="9" x="8"/><rect id="rect4495" style="fill:#333333" transform="scale(-1,1)" ry=".5" height="5" width="1" y="10" x="-11"/><rect id="rect4497" style="fill:#333333" transform="scale(-1,1)" ry=".5" height="1" width="1" y="10" x="-10"/><rect id="rect4499" style="fill:#333333" transform="scale(-1,1)" ry=".5" height="1" width="1" y="12" x="-10"/><rect id="rect4501" style="fill:#333333" transform="scale(-1,1)" ry=".5" height="1" width="1" y="14" x="-10"/><rect id="rect4503" style="fill:#333333" ry=".75" height="3" width="1" y="11" x="12"/><rect id="rect4505" style="fill:#333333" transform="rotate(90)" ry=".5" height="2" width="1" y="-15" x="10"/><rect id="rect4507" style="fill:#333333" transform="rotate(90)" ry=".5" height="2" width="1" y="-15" x="14"/><rect id="rect4536" ry=".5" style="fill:#333333" transform="scale(-1)" height="2" width="1" y="-14" x="-15"/></svg>
