<!--Part of Monotone: https://github.com/sixsixfive/Monotone, released under cc-by-sa_v4-->
<svg xmlns="http://www.w3.org/2000/svg" viewBox="0 0 16 16">
    <path style="line-height:normal;text-indent:0;text-align:start;text-decoration-line:none;text-decoration-style:solid;text-decoration-color:#000;text-transform:none;isolation:auto;mix-blend-mode:normal;marker:none" d="M8.053.113c-.75.001-1.191.533-1.456.957-.264.424-.446.888-.62 1.346-.175.458-.336.91-.485 1.244-.15.334-.343.523-.242.453.142-.097-.148.036-.551.051s-.93-.003-1.463-.012c-.534-.009-1.069-.014-1.58.067a2.45 2.45 0 0 0-.78.236c-.268.14-.579.41-.71.8-.133.398-.047.789.076 1.063.123.275.285.485.46.684.353.399.783.755 1.216 1.105.433.35.868.689 1.187.971.32.283.486.59.434.43-.06-.186-.013.105-.121.474-.108.37-.289.846-.463 1.334-.175.489-.346.983-.426 1.489-.04.253-.062.512-.006.814.057.302.235.679.567.91.33.23.721.274 1.02.24a2.53 2.53 0 0 0 .78-.232c.476-.215.923-.515 1.364-.816.44-.302.871-.606 1.216-.815.346-.209.654-.264.506-.265-.16-.002.145.056.479.271.334.216.749.53 1.176.84.426.31.857.618 1.322.844.232.112.475.21.773.25.299.039.699-.002 1.03-.235.329-.231.506-.6.568-.898.062-.3.047-.562.014-.818-.067-.513-.224-1.016-.385-1.514-.161-.499-.328-.988-.426-1.365-.098-.378-.047-.67-.107-.498-.06.17.111-.135.433-.405s.762-.591 1.2-.925c.437-.335.871-.675 1.23-1.061a2.56 2.56 0 0 0 .475-.668c.128-.273.217-.672.082-1.07-.132-.39-.435-.656-.7-.8a2.523 2.523 0 0 0-.775-.255c-.514-.095-1.056-.107-1.596-.113-.54-.006-1.074-.004-1.482-.031-.408-.027-.7-.165-.568-.07.11.078-.077-.11-.213-.442s-.28-.783-.438-1.24c-.157-.458-.32-.92-.57-1.348A2.258 2.258 0 0 0 9 .475a1.512 1.512 0 0 0-.948-.362zm-.02 2.246c.091.207.18.395.28.682.146.428.295.899.476 1.34.18.44.336.878.85 1.246.541.388 1.01.38 1.527.414.516.034 1.068.03 1.582.035.347.004.597.031.863.055-.206.184-.398.364-.683.582-.416.317-.869.645-1.266.978-.398.334-.775.586-.994 1.215-.223.64-.065 1.087.062 1.576.128.49.305.995.457 1.467.094.29.134.493.192.727-.211-.132-.401-.238-.657-.424-.404-.295-.834-.623-1.261-.899-.427-.275-.803-.559-1.465-.566h-.002c-.658-.006-1.046.266-1.484.531-.44.266-.884.585-1.303.871-.274.187-.481.298-.705.428.063-.222.104-.405.2-.676.166-.462.356-.956.497-1.437.14-.481.315-.92.103-1.568-.205-.631-.574-.9-.966-1.247-.392-.347-.84-.692-1.252-1.025-.29-.235-.493-.432-.7-.629.257-.014.489-.033.819-.027.507.009 1.054.029 1.566.01.512-.02.98.006 1.532-.373.517-.356.688-.787.884-1.227.197-.44.362-.912.526-1.342.114-.3.218-.504.322-.716z" color="#000" font-weight="400" font-family="sans-serif" white-space="normal" overflow="visible" fill="#f1f2f2"/>
</svg>
