<?xml version="1.0" encoding="UTF-8" standalone="no"?>
<!--Part of Monotone: https://github.com/sixsixfive/Monotone, released under cc-by-sa_v4-->
<svg id="svg8" xmlns="http://www.w3.org/2000/svg" version="1.1" viewBox="0 0 16 16"><path id="rect11474" style="fill:#f1f2f2" d="m8.0003 1c0.55228 0 1 0.44772 1 1-0.00029 0.0333-0.002 0.0665-0.006 0.0996 2.2907 0.4588 4.0057 2.4712 4.0057 4.9004v2 2.5l2 2v0.5h-14v-0.5l2-2 0.0001-4.5c0.0001-2.4292 1.7157-4.4416 4.0059-4.9004-0.004-0.0331-0.006-0.0663-0.006-0.0996 0-0.55228 0.44772-1 1-1zm1.7284 14c-0.3567 0.618-1.0153 0.999-1.7286 1-0.7139-0.001-1.3735-0.382-1.7304-1z"/></svg>
