<?xml version="1.0" encoding="UTF-8" standalone="no"?>
<!--Part of Monotone: https://github.com/sixsixfive/Monotone, released under cc-by-sa_v4-->
<svg xmlns="http://www.w3.org/2000/svg" version="1.1" viewBox="0 0 16 16">
 <g opacity=".5" fill="#f1f2f2">
  <path style="" d="m6.705 0a0.5 0.5 0 0 0 -0.437 0.641l0.425 1.543a6.68 6.68 0 0 0 -1.238 0.457l-1.021-1.765a0.5 0.5 0 1 0 -0.867 0.502l1.017 1.757a10.81 10.81 0 0 0 -0.977 0.704l-1.253-1.254a0.5 0.5 0 1 0 -0.708 0.707l1.221 1.22a16.47 16.47 0 0 0 -0.793 0.793l-0.72-0.72a0.5 0.5 0 1 0 -0.708 0.707l0.764 0.763c-0.885 1.076-1.41 1.946-1.41 1.946s0.872 1.45 2.275 2.923l1.108-1.107c-0.897-0.934-1.383-1.816-1.383-1.816s2.134-4 6-4c0.38 0 0.737 0.047 1.082 0.117l1.467-1.467a6.973 6.973 0 0 0 -0.783 -0.332l0.57-1.646a0.5 0.5 0 1 0 -0.943 -0.329l-0.598 1.721a5.062 5.062 0 0 0 -0.795 -0.064c-0.105 0-0.208 0.018-0.312 0.025l-0.456-1.65a0.5 0.5 0 0 0 -0.527 -0.376zm8.285 4.434a0.502 0.502 0 0 0 -0.344 0.15l-0.72 0.721c-0.061-0.066-0.13-0.132-0.194-0.197l-1.097 1.096a9.754 9.754 0 0 1 1.365 1.796s-2.134 4-6 4c-0.368 0-0.715-0.046-1.05-0.112l-1.48 1.479c0.797 0.386 1.646 0.633 2.53 0.633 4.418 0 8-6 8-6s-0.525-0.87-1.41-1.946l0.764-0.763a0.5 0.5 0 0 0 -0.364 -0.858zm-6.99 0.567a3 3 0 0 0 -3 3c0 0.062 0.014 0.12 0.018 0.181l1.842-1.842a0.675 0.675 0 0 1 0.477 -0.477l0.844-0.844c-0.062-0.003-0.12-0.017-0.182-0.017zm2.984 2.853l-3.132 3.131c0.05 0.002 0.097 0.016 0.148 0.016a3 3 0 0 0 3 -3c0-0.05-0.013-0.097-0.016-0.147z"/>
  <path style="text-decoration-color:#000;isolation:auto;mix-blend-mode:normal;text-indent:0;text-decoration-line:none;text-transform:none;text-decoration-style:solid" font-family="sans-serif" d="m14.021 1.028v0.004a1 1 0 0 0 -0.06 -0.002 1 1 0 0 0 -0.688 0.303l-11.955 11.953a1 1 0 0 0 -0.287 0.922v0.792h0.887a1 1 0 0 0 0.814 -0.301l11.956-11.952a1 1 0 0 0 0.302 -0.719v-1h-0.968z" white-space="normal" overflow="visible" font-weight="400"/>
 </g>
</svg>
