<?xml version="1.0" encoding="UTF-8" standalone="no"?>
<!--Part of Monotone: https://github.com/sixsixfive/Monotone, released under cc-by-sa_v4-->
<svg xmlns="http://www.w3.org/2000/svg" version="1.1" viewBox="0 0 16 16">
 <path opacity=".5" d="m6.098-0.016a0.5 0.5 0 0 0 -0.434 0.69l0.57 1.644a6.973 6.973 0 0 0 -0.17 0.065 6.68 6.68 0 0 0 -0.007 0.002 6.68 6.68 0 0 0 -0.602 0.256l-1.021-1.764a0.501 0.501 0 0 0 -0.868 0.502l1.018 1.756a10.81 10.81 0 0 0 -0.977 0.705l-1.254-1.254a0.5 0.5 0 1 0 -0.707 0.707l1.221 1.219a16.47 16.47 0 0 0 -0.598 0.597l-0.001-0.002c-0.064 0.065-0.133 0.132-0.194 0.198l-0.72-0.72v-0.001a0.502 0.502 0 0 0 -0.344 -0.15 0.5 0.5 0 0 0 -0.39 0.828 0.5 0.5 0 0 0 0.003 0.006 0.5 0.5 0 0 0 0.023 0.023 0.5 0.5 0 0 0 0 0.002l0.764 0.762a20.262 20.262 0 0 0 -1.037 1.377c-0.24 0.35-0.373 0.568-0.373 0.568v0.002s0.218 0.362 0.611 0.908a18.684 18.684 0 0 0 1.572 1.908c0.034 0.036 0.058 0.07 0.092 0.106 0.881 0.925 1.97 1.85 3.196 2.443l0.004 0.002c0.147 0.071 0.298 0.133 0.449 0.193a5.653 5.653 0 0 0 1.012 0.313c0.112 0.024 0.223 0.05 0.337 0.066 0.24 0.036 0.482 0.059 0.727 0.059s0.487-0.023 0.727-0.059c0.113-0.016 0.225-0.042 0.337-0.066a5.64 5.64 0 0 0 1.012 -0.313 6.815 6.815 0 0 0 0.453 -0.195c1.226-0.593 2.315-1.518 3.196-2.443 0.034-0.036 0.058-0.07 0.091-0.106a18.61 18.61 0 0 0 1.573 -1.908c0.144-0.2 0.129-0.191 0.224-0.334 0.159-0.24 0.387-0.576 0.387-0.576-0.001-0.002-0.526-0.87-1.41-1.945l0.764-0.762a0.5 0.5 0 0 0 0 -0.002 0.5 0.5 0 0 0 0.033 -0.037 0.5 0.5 0 0 0 0.013 -0.016 0.5 0.5 0 0 0 0.006 -0.007 0.5 0.5 0 0 0 0.022 -0.034 0.5 0.5 0 0 0 -0.438 -0.763 0.502 0.502 0 0 0 -0.224 0.062 0.502 0.502 0 0 0 -0.043 0.026 0.502 0.502 0 0 0 -0.039 0.029 0.502 0.502 0 0 0 -0.038 0.033v0.002l-0.72 0.719c-0.061-0.066-0.13-0.133-0.194-0.198l-0.002 0.002a16.47 16.47 0 0 0 -0.597 -0.597l1.221-1.219a0.5 0.5 0 0 0 -0.708 -0.707l-1.253 1.254a10.81 10.81 0 0 0 -0.977 -0.705l1.018-1.756a0.501 0.501 0 1 0 -0.868 -0.502l-1.021 1.764a6.68 6.68 0 0 0 -0.602 -0.256 6.973 6.973 0 0 0 -0.008 -0.002 6.973 6.973 0 0 0 -0.17 -0.065l0.571-1.644a0.5 0.5 0 0 0 -0.484 -0.69 0.5 0.5 0 0 0 -0.3 0.116 0.5 0.5 0 0 0 -0.257 -0.1 0.5 0.5 0 0 0 -0.527 0.377l-0.452 1.635a5.062 5.062 0 0 0 -0.316 -0.01 5.062 5.062 0 0 0 -0.316 0.01l-0.452-1.635a0.5 0.5 0 0 0 -0.527 -0.377 0.5 0.5 0 0 0 -0.26 0.1 0.5 0.5 0 0 0 -0.297 -0.116 0.5 0.5 0 0 0 -0.05 0zm1.902 4.018a5.472 5.472 0 0 1 1.021 0.105c1.566 0.297 2.774 1.216 3.614 2.096l0.029 0.033a9.754 9.754 0 0 1 0.606 0.698 9.754 9.754 0 0 1 0.005 0.005l0.01 0.016a9.754 9.754 0 0 1 0.49 0.69c0.086 0.139 0.225 0.354 0.225 0.355 0 0-0.088 0.135-0.107 0.17-0.124 0.21-0.514 0.853-1.276 1.646-0.834 0.869-2.026 1.772-3.566 2.073a6.732 6.732 0 0 1 -0.483 0.074c-0.186 0.019-0.373 0.037-0.568 0.037s-0.382-0.018-0.568-0.037a6.197 6.197 0 0 1 -0.483 -0.074c-1.54-0.301-2.732-1.204-3.566-2.073-0.763-0.793-1.153-1.436-1.276-1.646a9.753 9.753 0 0 0 -0.107 -0.168v-0.002s0.137-0.21 0.215-0.338a9.754 9.754 0 0 1 0.5 -0.709 9.754 9.754 0 0 1 0.015 -0.02 9.754 9.754 0 0 1 0.606 -0.697 9.754 9.754 0 0 1 0.03 -0.033c0.84-0.88 2.047-1.8 3.612-2.096a5.472 5.472 0 0 1 1.022 -0.105zm0 0.998a3 3 0 0 0 -0.299 0.016 3 3 0 0 0 -0.588 0.119 3 3 0 0 0 -1.265 0.775 3 3 0 0 0 -0.198 0.225 3 3 0 0 0 0 0.002 3 3 0 0 0 -0.173 0.242 3 3 0 0 0 0 0.002 3 3 0 0 0 -0.15 0.258 3 3 0 0 0 0 0.002 3 3 0 0 0 -0.124 0.271 3 3 0 0 0 0 0.002 3 3 0 0 0 -0.094 0.283 3 3 0 0 0 0 0.002 3 3 0 0 0 -0.101 0.588 3 3 0 0 0 0 0.002 3 3 0 0 0 -0.008 0.211v0.004a3 3 0 0 0 0 0.004 3 3 0 0 0 0.014 0.252 3 3 0 0 0 0.013 0.125 3 3 0 0 0 0.03 0.181 3 3 0 0 0 0.027 0.125 3 3 0 0 0 0.039 0.153 3 3 0 0 0 0.045 0.136 3 3 0 0 0 0.059 0.16 3 3 0 0 0 0.046 0.106 3 3 0 0 0 0.079 0.158 3 3 0 0 0 0.082 0.145 3 3 0 0 0 0.058 0.095 3 3 0 0 0 0.115 0.16 3 3 0 0 0 0.069 0.089 3 3 0 0 0 0.095 0.111 3 3 0 0 0 0.122 0.131 3 3 0 0 0 0.064 0.058 3 3 0 0 0 0.164 0.143 3 3 0 0 0 0.072 0.055 3 3 0 0 0 0.15 0.109 3 3 0 0 0 0.15 0.09 3 3 0 0 0 0.103 0.058 3 3 0 0 0 0.142 0.071 3 3 0 0 0 0.147 0.064 3 3 0 0 0 0.101 0.037 3 3 0 0 0 0.178 0.061 3 3 0 0 0 0.121 0.031 3 3 0 0 0 0.18 0.039 3 3 0 0 0 0.092 0.014 3 3 0 0 0 0.216 0.025 3 3 0 0 0 0.131 0.006 3 3 0 0 0 0.073 0.004l0.023 0.002a3 3 0 0 0 1.168 -0.238 3 3 0 0 0 0.766 -0.469 3 3 0 0 0 0.218 -0.205 3 3 0 0 0 0.805 -1.578 3 3 0 0 0 0 -0.002 3 3 0 0 0 0.043 -0.508 3 3 0 0 0 0 -0.002 3 3 0 0 0 0 -0.004 3 3 0 0 0 -0.014 -0.256 3 3 0 0 0 -0.013 -0.113 3 3 0 0 0 -0.03 -0.195 3 3 0 0 0 -0.023 -0.104 3 3 0 0 0 -0.045 -0.176 3 3 0 0 0 -0.041 -0.127 3 3 0 0 0 -0.055 -0.152 3 3 0 0 0 -0.066 -0.146 3 3 0 0 0 -0.059 -0.12 3 3 0 0 0 -0.103 -0.177 3 3 0 0 0 -0.028 -0.05 3 3 0 0 0 -0.011 -0.015 3 3 0 0 0 -0.137 -0.193 3 3 0 0 0 -0.025 -0.035 3 3 0 0 0 -0.012 -0.014 3 3 0 0 0 -0.135 -0.154 3 3 0 0 0 -0.08 -0.086 3 3 0 0 0 -0.121 -0.114 3 3 0 0 0 -0.096 -0.084 3 3 0 0 0 -0.154 -0.115 3 3 0 0 0 -0.084 -0.06 3 3 0 0 0 -0.195 -0.12 3 3 0 0 0 -0.036 -0.02 3 3 0 0 0 -0.011 -0.007 3 3 0 0 0 -0.233 -0.113 3 3 0 0 0 -0.025 -0.012 3 3 0 0 0 -0.01 -0.004 3 3 0 0 0 -0.215 -0.078 3 3 0 0 0 -0.086 -0.029 3 3 0 0 0 -0.195 -0.049 3 3 0 0 0 -0.092 -0.021 3 3 0 0 0 -0.199 -0.03 3 3 0 0 0 -0.105 -0.013 3 3 0 0 0 -0.266 -0.014zm0 2a1 1 0 0 1 1 1 1 1 0 0 1 -1 1 1 1 0 0 1 -0.2 -0.02 1 1 0 0 1 -0.095 -0.025 1 1 0 0 1 -0.705 -0.955 1 1 0 0 1 0.006 -0.1 1 1 0 0 1 0.994 -0.9z" fill="#f1f2f2"/>
</svg>
