<?xml version="1.0" encoding="UTF-8"?>
<svg version="1.1" viewBox="0 0 16 16" xmlns="http://www.w3.org/2000/svg">
 <path d="m8 0.99189c-2.4896 0-4.9141 1.9172-4.9141 4.274 0 0.89878 0.7244 2.4068 1.3398 3.2163 0.16376 0.21544 0.32623 0.53285 0.16797 0.82329-0.26618 0.4884-1.209 0.66375-2.002 0.66375-0.87791 0-1.5918 0.069786-1.5918 0.9001 0 0.83032 0.71392 1.2034 1.5918 1.2034 0.40599 0 0.95835-0.08447 1.4551-0.19893-0.10423 0.07459-0.21155 0.14988-0.3125 0.21862-0.62326 0.42437-0.82112 1.3076-0.51758 1.9814 0.17938 0.3982 0.52927 0.70753 0.95898 0.85086 0.39534 0.13183 0.80955 0.10697 1.168-0.07287 1.0514-0.52747 1.7317-1.6151 2.2285-2.2611 0.13507-0.17562 0.30782-0.40016 0.42773-0.52391 0.11991 0.12378 0.29264 0.34832 0.42773 0.52391 0.49682 0.64596 1.1772 1.7336 2.2285 2.2611 0.20811 0.1044 0.43654 0.1556 0.66797 0.1556 0.16713 0 0.33614-0.02743 0.50195-0.08272 0.42968-0.1433 0.77768-0.45264 0.95703-0.85086 0.30351-0.67386 0.10565-1.557-0.51758-1.9814-0.10102-0.06874-0.20629-0.14406-0.31055-0.21862 0.4967 0.11443 1.0472 0.19893 1.4531 0.19893 0.87791 0 1.5918-0.3731 1.5918-1.2034 5.8e-5 -0.83029-0.71389-0.9001-1.5918-0.9001-0.79296 0-1.7358-0.17538-2.002-0.66375-0.15826-0.29047 0.0042-0.60785 0.16797-0.82329 0.61541-0.80959 1.4414-2.3176 1.4414-3.2164-2.9e-5 -2.3568-2.5261-4.274-5.0156-4.274zm-1.9551 2.9071a1 1.5126 0 0 1 0.00586 0 1 1.5126 0 0 1 1 1.5126 1 1.5126 0 0 1-1 1.5126 1 1.5126 0 0 1-1-1.5126 1 1.5126 0 0 1 0.99414-1.5126zm4.0195 0.053179a0.98602 1.4863 0 0 1 0.98633 1.4851 0.98602 1.4863 0 0 1-0.98633 1.487 0.98602 1.4863 0 0 1-0.98633-1.487 0.98602 1.4863 0 0 1 0.98633-1.4851z" fill="#f1f2f2" stroke-width=".028402"/>
</svg>
