<?xml version="1.0" encoding="UTF-8" standalone="no"?>
<!--Part of Monotone: https://github.com/sixsixfive/Monotone, released under cc-by-sa_v4-->
<svg xmlns="http://www.w3.org/2000/svg" version="1.1" viewBox="0 0 16 16">
 <path opacity=".5" d="m5 1c-2.216 0-4 1.784-4 4v6c0 2.216 1.784 4 4 4h3.436c-3.592-3.185-4.913-7.35-4.913-7.35a0.5 0.5 0 0 1 0.127 -0.507s3.978-3.872 9.288-5.645a3.994 3.994 0 0 0 -1.938 -0.498h-6zm9.801 2.752c-4.378 0.922-6.429 3.75-6.725 4.188 0.087 0.307 0.64 2.089 1.924 3.908v-1.848h0.223c-0.513-1.068-0.711-1.89-0.711-1.89a0.5 0.5 0 0 1 0.09 -0.413s1.884-2.484 5.332-3.41a3.983 3.983 0 0 0 -0.133 -0.535zm0.199 3.398a3.298 3.298 0 0 0 -1.438 1c0.031 0.173 0.202 0.974 0.6 1.85h0.838v-2.85z" fill="#f1f2f2"/>
 <path style="color:#f1f2f2" fill="#f1f2f2" overflow="visible" d="m11 11h1.375l1.125 1.094 1.094-1.094h1.406v1.469l-1.094 1.062 1.094 1.063v1.406h-1.438l-1.062-1.063-1.063 1.063h-1.437v-1.406l1.063-1.063-1.063-1.061z"/>
</svg>
