<?xml version="1.0" encoding="UTF-8" standalone="no"?>
<svg
   xmlns:dc="http://purl.org/dc/elements/1.1/"
   xmlns:cc="http://creativecommons.org/ns#"
   xmlns:rdf="http://www.w3.org/1999/02/22-rdf-syntax-ns#"
   xmlns:svg="http://www.w3.org/2000/svg"
   xmlns="http://www.w3.org/2000/svg"
   id="svg8"
   version="1.1"
   viewBox="0 0 16 16">
  <metadata
     id="metadata14">
    <rdf:RDF>
      <cc:Work
         rdf:about="">
        <dc:format>image/svg+xml</dc:format>
        <dc:type
           rdf:resource="http://purl.org/dc/dcmitype/StillImage" />
        <dc:title></dc:title>
      </cc:Work>
    </rdf:RDF>
  </metadata>
  <defs
     id="defs12" />
  <g
     style="opacity:0.5"
     id="g6"
     fill="#f1f2f2"
     font-family="Sans"
     font-weight="400"
     color="#000">
    <path
       id="path2"
       overflow="visible"
       d="M3.469 1a2.468 2.468 0 0 0-2.47 2.469v9.062A2.468 2.468 0 0 0 3.47 15h9.062A2.468 2.468 0 0 0 15 12.531V3.47A2.468 2.468 0 0 0 12.53 1zm0 1h9.062C13.363 2 14 2.637 14 3.469v9.062c0 .832-.637 1.469-1.47 1.469H3.47A1.443 1.443 0 0 1 2 12.531V3.47C2 2.637 2.637 2 3.47 2z"
       style="line-height:normal;-inkscape-font-specification:Sans;text-indent:0;text-align:start;text-decoration-line:none;text-transform:none;marker:none" />
    <path
       id="path4"
       overflow="visible"
       d="M14.177 2.823L8.5 8.375 6.562 6.437 4.437 8.562l3 3L8.5 12.625l1.062-1.063 4.615-4.739z"
       style="line-height:normal;-inkscape-font-specification:Sans;text-indent:0;text-align:start;text-decoration-line:none;text-transform:none;marker:none" />
  </g>
</svg>
