<?xml version="1.0" encoding="UTF-8"?>
<svg version="1.1" viewBox="0 0 16 16" xmlns="http://www.w3.org/2000/svg">
<path d="m3.4688 1a2.468 2.468 0 0 0-2.4707 2.4688v9.0625a2.468 2.468 0 0 0 2.4727 2.4688h5.5293v-1h-5.5293a1.443 1.443 0 0 1-1.4707-1.4688v-9.0605c0-0.833 0.63675-1.4707 1.4688-1.4707h9.0605c0.687 0 1.2342 0.43664 1.4062 1.0566l-5.4355 5.3184-1.9375-1.9375-2.125 2.125 3 3 1.0625 1.0645 0.64258-0.64453a1.0001 1.0001 0 0 1-0.14258-0.51172v-1.4707a1.0001 1.0001 0 0 1 1-1h1.373a1.0001 1.0001 0 0 1 0.53516 0.1543l2.0918-2.1504v1.9961h1v-5.5293a2.468 2.468 0 0 0-2.4707-2.4707h-9.0605z" style="fill:#f1f2f2;opacity:.5;text-decoration-line:none;text-indent:0;text-transform:none"/>
<path d="m10 10h1.375l1.125 1.094 1.094-1.094h1.406v1.469l-1.094 1.062 1.094 1.063v1.406h-1.438l-1.062-1.063-1.063 1.063h-1.437v-1.406l1.062-1.063-1.062-1.061z" fill="#c00" overflow="visible" style="color:#f1f2f2;fill:#f1f2f2"/>
</svg>
