<?xml version="1.0" encoding="UTF-8"?>
<svg version="1.1" viewBox="0 0 16 16" xmlns="http://www.w3.org/2000/svg">
<path d="m12 6.9951c-4.5 6.4-4 6-4 6l-4-6h3l0.1-4h1.9v4z" style="fill:#f1f2f2;stroke-width:1.8"/>
<path d="m3.4779 1c-1.3608 0-2.4779 1.101-2.4779 2.469v9.062c0 1.369 1.117 2.469 2.4779 2.469h9.0442c1.3608 0 2.4779-1.101 2.4779-2.469v-9.061c0-1.37-1.117-2.47-2.4779-2.47zm0 1h9.0442c0.83653 0 1.4867 0.64 1.4867 1.469v9.062c0 0.828-0.6502 1.469-1.4867 1.469h-9.0442c-0.83554 0-1.4867-0.64-1.4867-1.469v-9.061c0-0.828 0.65119-1.469 1.4867-1.469z" font-weight="400" overflow="visible" style="fill:#f1f2f2;stroke-width:.99557;text-decoration-line:none;text-indent:0;text-transform:none"/>
</svg>
