<?xml version="1.0" encoding="UTF-8" standalone="no"?>
<!--Part of Monotone: https://github.com/sixsixfive/Monotone, released under cc-by-sa_v4-->
<svg xmlns="http://www.w3.org/2000/svg" version="1.1" viewBox="0 0 16 16">
 <path opacity=".5" style="color:#000000;text-decoration-line:none;text-transform:none;text-indent:0" fill="#f1f2f2" d="m3.4375 1c-1.373 0-2.5 1.1008-2.5 2.4688v9.0625c0 1.369 1.126 2.4688 2.5 2.4688h5.5625v-1h-5.5625c-0.843 0-1.5-0.63975-1.5-1.4688v-9.0603c0-0.828 0.657-1.4688 1.5-1.4688h9.125c0.843 0 1.5 0.63975 1.5 1.4688v5.5996c0.37196 0.085941 0.71129 0.25588 1 0.48828v-6.0898c0-1.369-1.128-2.4688-2.5-2.4688z"/>
 <path overflow="visible" fill="#f1f2f2" style="color:#f1f2f2" d="m12.5 9.93c-0.822 0-1.5 0.626-1.5 1.385v1.685h-0.5c-0.277 0-0.5 0.205-0.5 0.461v2.469h6v-2.469c0-0.256-0.223-0.461-0.5-0.461h-0.5v-1.685c0-0.76-0.678-1.385-1.5-1.385zm0 0.923h1c0.286 0 0.5 0.198 0.5 0.462v1.685h-2v-1.685c0-0.264 0.214-0.462 0.5-0.462z"/>
</svg>
