<?xml version="1.0" encoding="UTF-8"?>
<svg version="1.1" viewBox="0 0 16 16" xmlns="http://www.w3.org/2000/svg">
<path d="m2 2c-0.554 0-1 0.446-1 1v10c0 0.554 0.446 1 1 1h12c0.554 0 1-0.446 1-1v-10c0-0.554-0.446-1-1-1h-12zm0 1h12v5h-12v-5zm3 6v4l-3-2 3-2zm1 0 3 2-3 2v-4zm6 0a2 2 0 0 1 2 2 2 2 0 0 1-2 2 2 2 0 0 1-2-2 2 2 0 0 1 2-2z" style="fill:#f1f2f2;paint-order:markers fill stroke"/>
<path d="m3 4v3h1v-1h1v1h1v-3h-1v1h-1v-1h-1zm4 0v3h1v-3h-1z" style="fill:#f1f2f2;paint-order:markers fill stroke"/>
</svg>
