<?xml version="1.0" encoding="UTF-8"?>
<svg version="1.1" viewBox="0 0 16 16" xmlns="http://www.w3.org/2000/svg" xmlns:osb="http://www.openswatchbook.org/uri/2009/osb" xmlns:xlink="http://www.w3.org/1999/xlink">
<path d="m1 1v14h14v-14h-14zm1 1h12v12h-12v-12z" style="fill:#f1f2f2"/>
<rect x="7" y="7" width="2" height="2" style="fill:#f1f2f2;opacity:.8;paint-order:markers fill stroke"/>
<rect x="5" y="6" width="1" height="1" style="fill:#f1f2f2;opacity:.6;paint-order:markers fill stroke"/>
<rect x="6" y="5" width="1" height="1" style="fill:#f1f2f2;opacity:.6;paint-order:markers fill stroke"/>
<rect x="8" y="5" width="1" height="1" style="fill:#f1f2f2;opacity:.6;paint-order:markers fill stroke"/>
<rect x="10" y="5" width="1" height="1" style="fill:#f1f2f2;opacity:.6;paint-order:markers fill stroke"/>
<rect x="10" y="7" width="1" height="1" style="fill:#f1f2f2;opacity:.6;paint-order:markers fill stroke"/>
<rect x="10" y="9" width="1" height="1" style="fill:#f1f2f2;opacity:.6;paint-order:markers fill stroke"/>
<rect x="9" y="10" width="1" height="1" style="fill:#f1f2f2;opacity:.6;paint-order:markers fill stroke"/>
<rect x="7" y="10" width="1" height="1" style="fill:#f1f2f2;opacity:.6;paint-order:markers fill stroke"/>
<rect x="5" y="10" width="1" height="1" style="fill:#f1f2f2;opacity:.6;paint-order:markers fill stroke"/>
<rect x="5" y="8" width="1" height="1" style="fill:#f1f2f2;opacity:.6;paint-order:markers fill stroke"/>
<rect x="4" y="4" width="1" height="8" style="fill:#f1f2f2;opacity:.3;paint-order:markers fill stroke"/>
<rect x="5" y="11" width="7" height="1" style="fill:#f1f2f2;opacity:.3;paint-order:markers fill stroke"/>
<rect x="11" y="4" width="1" height="7" style="fill:#f1f2f2;opacity:.3;paint-order:markers fill stroke"/>
<rect x="5" y="4" width="6" height="1" style="fill:#f1f2f2;opacity:.3;paint-order:markers fill stroke"/>
<rect x="6" y="7" width="1" height="1" style="fill:#f1f2f2;opacity:.6;paint-order:markers fill stroke"/>
<rect x="7" y="6" width="1" height="1" style="fill:#f1f2f2;opacity:.6;paint-order:markers fill stroke"/>
<rect x="9" y="6" width="1" height="1" style="fill:#f1f2f2;opacity:.6;paint-order:markers fill stroke"/>
<rect x="9" y="8" width="1" height="1" style="fill:#f1f2f2;opacity:.6;paint-order:markers fill stroke"/>
<rect x="8" y="9" width="1" height="1" style="fill:#f1f2f2;opacity:.6;paint-order:markers fill stroke"/>
<rect x="6" y="9" width="1" height="1" style="fill:#f1f2f2;opacity:.6;paint-order:markers fill stroke"/>
<rect x="3" y="3" width="1" height="1" style="fill:#f1f2f2;opacity:.3;paint-order:markers fill stroke"/>
<rect x="5" y="3" width="1" height="1" style="fill:#f1f2f2;opacity:.3;paint-order:markers fill stroke"/>
<rect x="7" y="3" width="1" height="1" style="fill:#f1f2f2;opacity:.3;paint-order:markers fill stroke"/>
<rect x="9" y="3" width="1" height="1" style="fill:#f1f2f2;opacity:.3;paint-order:markers fill stroke"/>
<rect x="11" y="3" width="1" height="1" style="fill:#f1f2f2;opacity:.3;paint-order:markers fill stroke"/>
<rect x="12" y="4" width="1" height="1" style="fill:#f1f2f2;opacity:.3;paint-order:markers fill stroke"/>
<rect x="12" y="6" width="1" height="1" style="fill:#f1f2f2;opacity:.3;paint-order:markers fill stroke"/>
<rect x="12" y="8" width="1" height="1" style="fill:#f1f2f2;opacity:.3;paint-order:markers fill stroke"/>
<rect x="12" y="10" width="1" height="1" style="fill:#f1f2f2;opacity:.3;paint-order:markers fill stroke"/>
<rect x="12" y="12" width="1" height="1" style="fill:#f1f2f2;opacity:.3;paint-order:markers fill stroke"/>
<rect x="10" y="12" width="1" height="1" style="fill:#f1f2f2;opacity:.3;paint-order:markers fill stroke"/>
<rect x="8" y="12" width="1" height="1" style="fill:#f1f2f2;opacity:.3;paint-order:markers fill stroke"/>
<rect x="6" y="12" width="1" height="1" style="fill:#f1f2f2;opacity:.3;paint-order:markers fill stroke"/>
<rect x="4" y="12" width="1" height="1" style="fill:#f1f2f2;opacity:.3;paint-order:markers fill stroke"/>
<rect x="3" y="11" width="1" height="1" style="fill:#f1f2f2;opacity:.3;paint-order:markers fill stroke"/>
<rect x="3" y="9" width="1" height="1" style="fill:#f1f2f2;opacity:.3;paint-order:markers fill stroke"/>
<rect x="3" y="7" width="1" height="1" style="fill:#f1f2f2;opacity:.3;paint-order:markers fill stroke"/>
<rect x="3" y="5" width="1" height="1" style="fill:#f1f2f2;opacity:.3;paint-order:markers fill stroke"/>
</svg>
