<?xml version="1.0" encoding="UTF-8"?>
<svg version="1.1" viewBox="0 0 16 16" xmlns="http://www.w3.org/2000/svg">
<path d="m1 1v14h14v-14h-14zm1 1h12v12h-12v-12z" style="fill:#f1f2f2"/>
<path d="m9.5 8.0515c0.038132-0.58341-0.1804-1.2919-0.80097-1.4724-0.81529-0.22073-1.7622 0.24585-2.1142 1.0072-0.26935 0.66007 0.11254 1.4774 0.78316 1.713 0.63015 0.24635 1.3318 0.29361 1.9995 0.21916 1.4222-0.24633 2.482-1.8788 1.9913-3.2663-0.33887-0.93369-1.324-1.4147-2.2457-1.5832-0.99264-0.18573-2.0479-0.15923-3.0021 0.18904-0.79717 0.29218-1.3003 1.0675-1.4647 1.8732-0.18594 0.92956-0.23801 1.9205 0.04718 2.8354 0.2403 0.79501 0.9423 1.3652 1.7207 1.5951 1.3532 0.41141 2.7863 0.37347 4.1862 0.39071 0.13321-3e-6 0.26643-3.25e-4 0.39964-8.51e-4" style="fill:none;stroke-width:1px;stroke:#f1f2f2"/>
</svg>
