<?xml version="1.0" encoding="UTF-8"?>
<svg version="1.1" viewBox="0 0 16 16" xmlns="http://www.w3.org/2000/svg" xmlns:osb="http://www.openswatchbook.org/uri/2009/osb" xmlns:xlink="http://www.w3.org/1999/xlink">
<path d="m1 1v14h14v-14h-14zm1 1h12v12h-12v-12z" style="fill:#f1f2f2"/>
<path d="m3 3v10l5-5z" style="fill:#f1f2f2;opacity:.6"/>
<rect x="7" y="9" width="1" height="1" style="fill:#f1f2f2;opacity:.6;paint-order:markers fill stroke"/>
<rect x="6" y="10" width="1" height="1" style="fill:#f1f2f2;opacity:.6;paint-order:markers fill stroke"/>
<rect x="5" y="11" width="1" height="1" style="fill:#f1f2f2;opacity:.6;paint-order:markers fill stroke"/>
<rect x="4" y="12" width="1" height="1" style="fill:#f1f2f2;opacity:.6;paint-order:markers fill stroke"/>
<rect x="7" y="11" width="1" height="1" style="fill:#f1f2f2;opacity:.6;paint-order:markers fill stroke"/>
<rect x="6" y="12" width="1" height="1" style="fill:#f1f2f2;opacity:.6;paint-order:markers fill stroke"/>
<rect transform="scale(-1,1)" x="-13" y="6" width="1" height="1" style="fill:#f1f2f2;opacity:.3;paint-order:markers fill stroke"/>
<rect transform="scale(-1,1)" x="-13" y="4" width="1" height="1" style="fill:#f1f2f2;opacity:.3;paint-order:markers fill stroke"/>
<rect transform="scale(-1,1)" x="-12" y="5" width="1" height="1" style="fill:#f1f2f2;opacity:.3;paint-order:markers fill stroke"/>
<rect transform="scale(-1,1)" x="-12" y="7" width="1" height="1" style="fill:#f1f2f2;opacity:.3;paint-order:markers fill stroke"/>
<rect transform="scale(-1,1)" x="-11" y="6" width="1" height="1" style="fill:#f1f2f2;opacity:.3;paint-order:markers fill stroke"/>
<rect transform="scale(-1,1)" x="-10" y="7" width="1" height="1" style="fill:#f1f2f2;opacity:.3;paint-order:markers fill stroke"/>
<path d="m8 8 5 5h-5z" style="fill:#f1f2f2;opacity:.3;paint-order:markers fill stroke"/>
<rect transform="scale(-1)" x="-13" y="-11" width="1" height="1" style="fill:#f1f2f2;opacity:.3;paint-order:markers fill stroke"/>
<rect transform="scale(-1)" x="-13" y="-9" width="1" height="1" style="fill:#f1f2f2;opacity:.3;paint-order:markers fill stroke"/>
<rect transform="scale(-1)" x="-12" y="-10" width="1" height="1" style="fill:#f1f2f2;opacity:.3;paint-order:markers fill stroke"/>
<rect transform="scale(-1)" x="-11" y="-9" width="1" height="1" style="fill:#f1f2f2;opacity:.3;paint-order:markers fill stroke"/>
</svg>
