<!--Part of Monotone: https://github.com/sixsixfive/Monotone, released under cc-by-sa_v4-->
<svg xmlns="http://www.w3.org/2000/svg" viewBox="0 0 16 16">
    <path d="M8 3C6.702 3 5.65 4.147 5.303 5.416c-.397-.222-.825-.383-1.303-.383C2.423 5.033.943 6.202.943 7.89c0 .353.092.678.196.994C.354 9.353 0 10.219 0 11.25 0 12.769 1.152 14 2.572 14h10.856C14.848 14 16 12.769 16 11.25c0-1.03-.354-1.896-1.139-2.367.104-.316.196-.64.196-.994 0-1.687-1.48-2.856-3.057-2.856-.478 0-.907.16-1.303.383C10.35 4.147 9.297 3 8 3zM6.2 6h.6c.06 0 .109.026.145.066A2.5 2.5 0 0 1 7.5 6 2.5 2.5 0 0 1 10 8.5 2.5 2.5 0 0 1 7.5 11a2.5 2.5 0 0 1-.5-.055v1.856a.198.198 0 0 1-.2.199h-.6c-.112 0-.2-.088-.2-.199V6.199C6 6.09 6.088 6 6.2 6zm1.3 1a1.5 1.5 0 0 0-.5.088v2.824a1.5 1.5 0 0 0 .5.088A1.5 1.5 0 0 0 9 8.5 1.5 1.5 0 0 0 7.5 7z" stroke-width=".394" fill="#f1f2f2"/>
</svg>
