<!--Part of Monotone: https://github.com/sixsixfive/Monotone, released under cc-by-sa_v4-->
<svg viewBox="0 0 16 16" xmlns="http://www.w3.org/2000/svg">
    <g fill="#f1f2f2">
        <path d="M1.542 3.608c1.14-.871 2.972-.027 2.972.649L2.994 5s.234-1.203-1.452-1.392z"/>
        <path d="M2.123 2.464C3.884 1.369 6.24 3.503 6.466 4.332L3.992 4s-.269-1.335-1.87-1.536z"/>
        <path d="M5.177 3.922C2.547 3.922 0 5.975 0 8.578l.031 7.406h12.6c-.705-.756-2.128-1.632-2.62-2 0 0-3.991.188-3.991-1.156v-2.25s-.05-1.594 1.559-1.594c1.163 0 1.435.407 1.435.407.374-.407.627-.438 1.497-.407.012-.134-.031-.207-.031-.343 0-2.604-2.671-4.72-5.303-4.72zM3.524 5.984a2.503 2.503 0 0 1 2.496 2.5c0 1.373-1.118 2.47-2.496 2.47S1.03 9.856 1.03 8.483s1.117-2.5 2.495-2.5z"/>
        <path d="M10.979 11c.355.34 1.021 1 1.021 1s.02-.025-5.014-1c0 0 0-1 .998-1s1.06.58 1.06.58.285-.58.937-.58c.689 0 1.02.383 1.02 1 0 .007-.022 0-.022 0z" fill-rule="evenodd"/>
        <path d="M4.28 8.31c-.551 0-.999.45-.999 1.007 0 .556.448 1.008.998 1.008.551 0 .999-.452.999-1.008S4.83 8.31 4.279 8.31z" style="marker:none" overflow="visible"/>
        <path d="M7 12c.022 1-.187 1 1.982 1H11s.022 0-4-1z"/>
        <path d="M7.657.031c-.38 0-.686.31-.686.688V3.03c1.396 0 3.992 2 4.522 4.532.033.154.117.313.101.468h1.39v2l2-2h.376a.569.569 0 0 0 .593-.59V.718a.688.688 0 0 0-.686-.688z" style="marker:none" overflow="visible"/>
    </g>
</svg>
