<?xml version="1.0" encoding="UTF-8"?>
<svg version="1.1" viewBox="0 0 16 16" xmlns="http://www.w3.org/2000/svg">
 <path d="m6 1a1.0001 1.0001 0 0 0-1 1v4.5859l-1.707 1.707a1.0001 1.0001 0 0 0 0.70703 1.707h3v3l1 2 1-2v-3h3a1.0001 1.0001 0 0 0 0.70703-1.707l-0.28906-0.28906h-1.418a1.0079 1.0079 0 0 1-1.0078-1.0078v-0.98828h-0.99219a1.0079 1.0079 0 0 1-1.0078-1.0078v-1.9961a1.0079 1.0079 0 0 1 1.0078-1.0078h0.99219v-0.98828a1.0079 1.0079 0 0 1 0-0.0078125h-3.9922z" fill="#f1f2f2" opacity=".5"/>
 <path d="m11 1.007v1.996h-2v1.997h2v1.997h2v-1.997h2v-1.997h-2v-1.996z" fill="#f1f2f2"/>
</svg>
