<?xml version="1.0" encoding="UTF-8"?>
<svg version="1.1" viewBox="0 0 16 16" xmlns="http://www.w3.org/2000/svg">
 <path d="m6 1a1.0001 1.0001 0 0 0-1 1v4.5859l-1.707 1.707a1.0001 1.0001 0 0 0 0.70703 1.707h3v3l1 2 1-2v-3h3a1.0001 1.0001 0 0 0 0.70703-1.707l-1.293-1.293h-1.4141a1.0001 1.0001 0 0 1-1-1v-0.28711-1.1191-2.0938a1.0001 1.0001 0 0 1 0-0.029297v-0.4707-1h-3z" fill="#f1f2f2" opacity=".5"/>
 <path d="m 10,1 h 1.375 L 12.5,2.094 13.594,1 H 15 V 2.469 L 13.906,3.531 15,4.594 V 6 H 13.562 L 12.5,4.937 11.437,6 H 10 V 4.594 L 11.063,3.531 10,2.47 Z" color="#f1f2f2" fill="#f1f2f2" overflow="visible"/>
</svg>
