<?xml version="1.0" encoding="UTF-8"?>
<svg version="1.1" viewBox="0 0 16 16" xmlns="http://www.w3.org/2000/svg">
<path d="m12.049 2.1932c-0.0019-1.2134-0.96649-2.1955-2.1543-2.1932-0.78286 0-1.5177 0.36252-1.8949 1-0.39022-0.66054-1.0414-1.0005-1.7966-1-1.1878-0.0022589-2.1524 0.97978-2.1543 2.1932-3.344e-4 0.60612 0.24598 1.1851 0.68 1.5984h-5.715e-4l3.2714 3.2084 3.3703-3.2084h-0.0011c0.43406-0.41323 0.68038-0.99223 0.67997-1.5984" style="fill:#f1f2f2;stroke-width:.57757"/>
<path d="m12 13.807c-0.0019 1.2134-0.96649 2.1955-2.1543 2.1932-0.78286 0-1.5177-0.36252-1.8949-1-0.39022 0.66054-1.0414 1.0005-1.7966 1-1.1878 0.0023-2.1524-0.97978-2.1543-2.1932-3.344e-4 -0.60612 0.24598-1.1851 0.68-1.5984h-5.715e-4l3.2714-3.2084 3.3703 3.2084h-0.0011c0.43406 0.41322 0.68038 0.99224 0.67997 1.5984" style="fill:#f1f2f2;stroke-width:.57757"/>
<path d="m13.807 12c1.2134-0.0019 2.1955-0.96649 2.1932-2.1543 0-0.78286-0.36252-1.5177-1-1.8949 0.66054-0.39022 1.0005-1.0414 1-1.7966 0.0023-1.1878-0.97978-2.1524-2.1932-2.1543-0.60612-3.344e-4 -1.1851 0.24598-1.5984 0.68v-5.715e-4l-3.2084 3.2714 3.2084 3.3703v-0.0011c0.41322 0.43406 0.99224 0.68038 1.5984 0.67997" style="fill:#f1f2f2;stroke-width:.57757"/>
<path d="m2.1932 12c-1.2134-0.0019-2.1955-0.96649-2.1932-2.1543 0-0.78286 0.36252-1.5177 1-1.8949-0.66054-0.39022-1.0005-1.0414-1-1.7966-0.0023-1.1878 0.97978-2.1524 2.1932-2.1543 0.60612-3.344e-4 1.1851 0.24598 1.5984 0.68v-5.715e-4l3.2084 3.2714-3.2084 3.3703v-0.0011c-0.41322 0.43406-0.99224 0.68038-1.5984 0.67997" style="fill:#f1f2f2;stroke-width:.57757"/>
</svg>
