<!--Part of Monotone: https://github.com/sixsixfive/Monotone, released under cc-by-sa_v4-->
<svg xmlns="http://www.w3.org/2000/svg" viewBox="0 0 16 16">
    <g color="#000" fill="#f1f2f2">
        <path style="line-height:normal;-inkscape-font-specification:Sans;text-indent:0;text-align:start;text-decoration-line:none;text-transform:none;marker:none" d="M9.875 9a1 1 0 0 0-.594.281l-2 2-.687.719.687.719 2 2a1.016 1.016 0 1 0 1.438-1.438L9.438 12l1.28-1.281A1 1 0 0 0 9.876 9z" font-weight="400" font-family="Sans" overflow="visible"/>
        <path style="line-height:normal;-inkscape-font-specification:Sans;text-indent:0;text-align:start;text-decoration-line:none;text-transform:none;marker:none" d="M4 3C2.355 3 1 4.355 1 6v4c0 1.645 1.355 3 3 3h1v-2H4c-.571 0-1-.429-1-1V6c0-.571.429-1 1-1h8c.571 0 1 .429 1 1v4c0 .571-.429 1-1 1H8v2h4c1.645 0 3-1.355 3-3V6c0-1.645-1.355-3-3-3z" font-weight="400" font-family="Sans" overflow="visible"/>
        <path d="M10 9h1v1h-1zm0 5h1v1h-1z" style="marker:none" overflow="visible"/>
    </g>
</svg>
