<?xml version="1.0" encoding="UTF-8" standalone="no"?>
<svg
   xmlns:dc="http://purl.org/dc/elements/1.1/"
   xmlns:cc="http://creativecommons.org/ns#"
   xmlns:rdf="http://www.w3.org/1999/02/22-rdf-syntax-ns#"
   xmlns:svg="http://www.w3.org/2000/svg"
   xmlns="http://www.w3.org/2000/svg"
   version="1.1"
   viewBox="0 0 16 16"
   id="svg4">
  <metadata
     id="metadata10">
    <rdf:RDF>
      <cc:Work
         rdf:about="">
        <dc:format>image/svg+xml</dc:format>
        <dc:type
           rdf:resource="http://purl.org/dc/dcmitype/StillImage" />
        <dc:title></dc:title>
      </cc:Work>
    </rdf:RDF>
  </metadata>
  <defs
     id="defs8" />
  <path
     id="path30"
     d="M 2 0.99804688 C 1.8693 0.99804688 1.7399406 1.0242185 1.6191406 1.0742188 C 1.6137406 1.0762187 1.6090156 1.0800313 1.6035156 1.0820312 C 1.4886156 1.1310313 1.3839219 1.2010625 1.2949219 1.2890625 C 1.2936219 1.2900625 1.2923156 1.2919687 1.2910156 1.2929688 C 1.2004156 1.3839688 1.128125 1.491375 1.078125 1.609375 C 1.026425 1.732375 0.99984 1.8650469 1 1.9980469 L 1 14.998047 C 0.9986 15.115047 1.0178406 15.231397 1.0566406 15.341797 C 1.0580406 15.345797 1.0591469 15.349416 1.0605469 15.353516 C 1.0983469 15.459716 1.1538094 15.558784 1.2246094 15.646484 C 1.2956094 15.733684 1.3807625 15.808388 1.4765625 15.867188 C 1.4807625 15.869886 1.4859344 15.870447 1.4902344 15.873047 C 1.5896344 15.933147 1.6986 15.975447 1.8125 15.998047 C 1.8437 15.999546 1.87505 15.999547 1.90625 15.998047 C 1.93765 15.999547 1.9688 15.999547 2 15.998047 L 9.4375 15.998047 C 9.5697 16.001047 9.7011187 15.977887 9.8242188 15.929688 C 9.9478185 15.882084 10.06125 15.81035 10.15625 15.71875 L 13.71875 12.154297 C 13.80975 12.059897 13.881685 11.948373 13.929688 11.826172 C 13.929688 11.824872 13.930641 11.823666 13.931641 11.822266 L 13.931641 11.818359 C 13.978641 11.696459 14.002 11.566446 14 11.435547 L 14 6.4140625 L 6.7070312 13.707031 A 1.0001 1.0001 0 0 1 6.3164062 13.949219 L 3.3164062 14.949219 A 1.0001 1.0001 0 0 1 2.0507812 13.683594 L 3.0507812 10.683594 A 1.0001 1.0001 0 0 1 3.2929688 10.292969 L 11.292969 2.2929688 L 12.292969 1.2929688 L 12.587891 0.99804688 L 2 0.99804688 z M 10 11.998047 L 12 11.998047 L 9 14.998047 L 9 12.998047 C 9 11.998047 9 11.997947 10 11.998047 z "
     style="text-indent:0;text-decoration:none;text-decoration-line:none;text-transform:none;fill:#f1f2f2;opacity:0.6" />
  <g
     transform="translate(1,-1)"
     id="g39"
     style="fill:#333333">
    <path
       transform="translate(-1,1)"
       d="m 14,1 -1,1 c 1.079,0.2837 1.746,0.9503 2,2 L 16,3 C 15.7759,1.82752 15.0481,1.23076 14,1 Z M 12,3 4,11 3,14 6,13 14,5 C 13.728,3.8509 13.022,3.2329 12,3 Z"
       id="path35"
       style="fill:#f1f2f2" />
    <path
       id="path54"
       d="M 11,4 C 8.3333333,6.6666667 5.6666667,9.3333333 3,12 2.6666667,13 2.3333333,14 2,15 3,14.666667 4,14.333333 5,14 7.6666667,11.333333 10.333333,8.6666667 13,6 12.80383,4.98838 12.017795,4.1889622 11,4 Z"
       style="fill:#f1f2f2" />
  </g>
</svg>
