<!--Part of Monotone: https://github.com/sixsixfive/Monotone, released under cc-by-sa_v4-->
<svg xmlns="http://www.w3.org/2000/svg" viewBox="0 0 16 16">
    <path d="M8 1a7 7 0 1 0 0 14A7 7 0 0 0 8 1zM6 5c.559 0 1.031.473 1.031 1.031V7c0 .558-.472 1-1.03 1-.56 0-1-.442-1-1v-.969C5 5.473 5.44 5 6 5zm3.438 1h.906c.522 0 .969.216.969.5 0 .284-.447.5-.97.5h-.905c-.523 0-.938-.216-.938-.5 0-.284.415-.5.938-.5zM3 9.063C3.716 10.137 5.235 11 8 11c2.452 0 4.211-.75 5-1.937v.5c0 .68-.838 2.406-5 2.406-3.88 0-5-1.874-5-2.406z" fill="#f1f2f2"/>
</svg>
