<?xml version="1.0" encoding="UTF-8" standalone="no"?>
<!--Part of Monotone: https://github.com/sixsixfive/Monotone, released under cc-by-sa_v4-->
<svg xmlns="http://www.w3.org/2000/svg" version="1.1" viewBox="0 0 16 16">
 <g fill="#f1f2f2">
  <path opacity=".5" d="m2 4c-0.5 0-1 0.5-1 1v4c0 0.5 0.5 1 1 1h1v-2l12 0.004v-3.004c0-0.5-0.5-1-1-1zm2-3v2h8v-2z"/>
  <path opacity=".5" d="m4 9v5h4.2637a4.5 4.5 0 0 1 -0.2637 -1.5 4.5 4.5 0 0 1 1.6738 -3.5h-5.6738z" stroke-width="1.3229"/>
  <path style="color:#f1f2f2" d="m12.5 9a3.5 3.5 0 1 0 0 7 3.5 3.5 0 0 0 0 -7zm-2.5 2.969h5v1.031h-5z" class="error" overflow="visible"/>
 </g>
</svg>
