<?xml version="1.0" encoding="UTF-8"?>
<svg version="1.1" viewBox="0 0 16 16" xmlns="http://www.w3.org/2000/svg">
<path d="m7.0293 1.7578-2.5566 10.229c-0.60992-0.036002-0.98756-0.15534-1.1621-0.26367-0.21918-0.13602-0.24662-0.19952-0.27734-0.46484-0.061443-0.53064 0.35149-1.7627 0.87891-2.8945 0.26371-0.56592 0.5365-1.1171 0.74609-1.6309 0.2096-0.51372 0.46608-0.93377 0.2793-1.6855-0.09339-0.37589-0.47932-0.81619-0.87695-0.94727s-0.7231-0.086243-1.0508-0.015625c-0.65536 0.14124-1.3979 0.46875-2.4727 1.0293l0.92578 1.7734c0.58958-0.30751 0.80267-0.35671 1.1543-0.49609-0.15586 0.3461-0.3159 0.69416-0.51758 1.127-0.55145 1.1834-1.2198 2.5276-1.0527 3.9707 0.083546 0.72154 0.49612 1.4931 1.209 1.9355 0.47975 0.29773 1.0548 0.45674 1.7246 0.52734l-0.51172 2.0488h2.0625l0.51562-2.0664c2.6577-0.29442 4.3293-1.6942 5.1113-3.3887 0.88083-1.9085 0.8418-3.0449 0.8418-4.5449h-2c0 1.5-0.039031 2.3635-0.6582 3.7051-0.48126 1.0427-1.204 1.844-2.7754 2.1523l2.4043-9.6152z" style="color-rendering:auto;color:#000000;dominant-baseline:auto;fill:#f1f2f2;font-feature-settings:normal;font-variant-alternates:normal;font-variant-caps:normal;font-variant-ligatures:normal;font-variant-numeric:normal;font-variant-position:normal;image-rendering:auto;isolation:auto;mix-blend-mode:normal;shape-padding:0;shape-rendering:auto;solid-color:#000000;text-decoration-color:#000000;text-decoration-line:none;text-decoration-style:solid;text-indent:0;text-orientation:mixed;text-transform:none;white-space:normal"/>
<path d="m11.5 0a4.5 4.5 0 0 0-0.5 0.03125v1.0078a3.5 3.5 0 0 1 0.5-0.039062 3.5 3.5 0 0 1 3.5 3.5 3.5 3.5 0 0 1-0.041016 0.5h1.0078a4.5 4.5 0 0 0 0.033203-0.5 4.5 4.5 0 0 0-4.5-4.5zm0 2a2.5 2.5 0 0 0-0.5 0.050781v1.0371a1.5 1.5 0 0 1 0.5-0.087891 1.5 1.5 0 0 1 1.5 1.5 1.5 1.5 0 0 1-0.087891 0.5h1.0332a2.5 2.5 0 0 0 0.054688-0.5 2.5 2.5 0 0 0-2.5-2.5zm0 2a0.5 0.5 0 0 0-0.5 0.5 0.5 0.5 0 0 0 0.5 0.5 0.5 0.5 0 0 0 0.5-0.5 0.5 0.5 0 0 0-0.5-0.5z" style="fill-opacity:.99774;fill:#f1f2f2;paint-order:markers fill stroke"/>
</svg>
