<?xml version="1.0" encoding="UTF-8" standalone="no"?>
<svg
   xmlns:dc="http://purl.org/dc/elements/1.1/"
   xmlns:cc="http://creativecommons.org/ns#"
   xmlns:rdf="http://www.w3.org/1999/02/22-rdf-syntax-ns#"
   xmlns:svg="http://www.w3.org/2000/svg"
   xmlns="http://www.w3.org/2000/svg"
   version="1.1"
   viewBox="0 0 16 16"
   id="svg26">
  <metadata
     id="metadata10">
    <rdf:RDF>
      <cc:Work
         rdf:about="">
        <dc:format>image/svg+xml</dc:format>
        <dc:type
           rdf:resource="http://purl.org/dc/dcmitype/StillImage" />
        <dc:title></dc:title>
      </cc:Work>
    </rdf:RDF>
  </metadata>
  <defs
     id="defs8" />
  <path
     d="m 8.949,1 v 2 h -1 v 1 h 1 v 2 l 1,1 h 2 V 6 h -2 V 4 h 1 V 3 h -1 V 1 Z"
     style="fill:#f1f2f2;fill-rule:evenodd"
     id="path18" />
  <path
     d="M 6,2 H 7 V 6 H 6 Z M 3.975,1 H 6.026 L 7,2 H 3.975 Z M 3,2 4,1 V 6 H 3 Z M 3,6 H 7 L 6,7 H 4 Z M 5,7 H 7 V 8 H 6 Z"
     style="fill:#f1f2f2;stroke-width:23.20000076;stroke-linecap:round;stroke-linejoin:bevel"
     id="path20" />
  <rect
     y="11.026468"
     x="3"
     height="1.973532"
     width="10"
     id="rect819"
     style="opacity:1;fill:#f1f2f2;fill-opacity:1;stroke:none;stroke-width:1.4048245;stroke-opacity:0.94017095" />
  <rect
     transform="scale(-1)"
     style="opacity:1;fill:#f1f2f2;fill-opacity:1;stroke:none;stroke-width:1.4048245;stroke-opacity:0.94017095"
     id="rect835"
     width="10"
     height="1.973532"
     x="-11.312"
     y="2.2809997" />
  <path
     id="path2"
     d="m 5,9 v 1 c 0,0.257 -0.13,0.528 -0.312,0.719 L 3.406,12 4.688,13.281 C 4.87,13.471 5,13.743 5,14 v 1 H 4 C 3.69,15 3.448,14.91 3.25,14.719 L 0.594,12 3.25,9.281 C 3.448,9.091 3.69,9 4,9 Z"
     style="line-height:normal;-inkscape-font-specification:'Bitstream Vera Sans';text-indent:0;text-align:start;text-decoration:none;text-decoration-line:none;text-transform:none;fill:#f1f2f2;fill-opacity:1;marker:none" />
  <path
     style="line-height:normal;-inkscape-font-specification:'Bitstream Vera Sans';text-indent:0;text-align:start;text-decoration:none;text-decoration-line:none;text-transform:none;fill:#f1f2f2;fill-opacity:1;marker:none"
     d="m 11,9 v 1 c 0,0.257 0.13,0.528 0.312,0.719 L 12.594,12 11.312,13.281 C 11.13,13.471 11,13.743 11,14 v 1 h 1 c 0.31,0 0.552,-0.09 0.75,-0.281 L 15.406,12 12.75,9.281 C 12.552,9.091 12.31,9 12,9 Z"
     id="path845" />
</svg>
