<?xml version="1.0" encoding="UTF-8" standalone="no"?>
<!--Part of Monotone: https://github.com/sixsixfive/Monotone, released under cc-by-sa_v4-->
<svg id="svg6" xmlns="http://www.w3.org/2000/svg" version="1.1" viewBox="0 0 16 16"><path id="path12" style="stroke-width:.022542;fill:#f1f2f2" d="m15.176 3c-0.156-0.0023-0.321 0.0314-0.533 0.0977-1.195 0.3725-2.179 0.9902-3.727 2.3398-0.727 0.6341-1.603 1.5018-2.0019 1.9668 0.0565-0.1273 0.0857-0.265 0.0859-0.4043-0.0004-0.213-0.0688-0.4204-0.1953-0.5918l-0.0371-0.0469c-0.1896-0.2284-0.4708-0.3607-0.7676-0.3613-0.2972-0.0005-0.5792 0.1312-0.7695 0.3594l-0.0274 0.0371c-0.1316 0.1736-0.203 0.3856-0.2031 0.6035 0.0004 0.1386 0.0297 0.2756 0.0859 0.4023-0.0532-0.0573-0.0486-0.0616-0.1054-0.1191-1.259-1.2737-1.7409-1.72-2.668-2.4707-1.1824-0.9574-2.0305-1.44-3.0625-1.7402-0.53487-0.1556-0.95898-0.0568-1.1836 0.2754-0.065614 0.0969-0.0664 0.1031-0.0664 0.3769 0 0.23459 0.0085244 0.30639 0.052734 0.43945 0.087099 0.26213 0.30948 0.68886 0.5918 1.1387 0.34432 0.54861 0.41038 0.66584 0.52539 0.92383 0.16321 0.36611 0.32006 0.8926 0.39648 1.3281 0.092172 0.52533 0.11083 0.71932 0.15039 0.85742 0.081832 0.28564 0.18788 0.41577 0.41211 0.50977 0.12337 0.051675 0.14815 0.052818 0.80078 0.054687 0.64823 0.00189 0.86328 0.015299 0.86328 0.054687 0 0.010086-0.071966 0.06305-0.16016 0.11719-0.8792 0.5396-1.4621 0.8905-1.5909 1.5385-0.05068 0.25532-0.052513 0.48168-0.00781 0.77148 0.14039 0.91021 0.8885 1.6433 1.8058 2.1465 0.3018 0.16557 0.71331 0.32447 0.98242 0.37891 0.4183 0.085 0.9767-0.172 1.4277-0.656 0.3589-0.385 0.6741-0.963 1.0703-1.865 0.1846 0.344 0.4274 0.536 0.6797 0.537 0.24765-0.000669 0.48636-0.1851 0.66992-0.51758 0.36474 0.84926 0.71655 1.4437 1.1152 1.8691 0.3339 0.356 0.5089 0.578 0.8359 0.648 0.21064 0.04522 0.33686 0.04488 0.57031 0 1.0418-0.20027 2.3556-1.1378 2.6642-2.0801 0.18204-0.55596 0.17736-1.2079-0.01172-1.6465-0.17-0.3945-0.66-0.5604-1.33-1.023-0.162-0.1113-0.293-0.2091-0.293-0.2188 0-0.03561 0.30976-0.05003 0.74219-0.035156 0.61728 0.021227 0.88046-0.022988 1.0566-0.17383 0.17984-0.15398 0.25989-0.47079 0.39062-1.1523 0.19063-0.99378 0.32384-1.3437 0.81836-2.1719 0.438-0.735 0.587-1.0442 0.707-1.4628 0.14-0.4903 0.05-0.7934-0.276-0.9239-0.18-0.0719-0.328-0.109-0.484-0.1113z"/></svg>
