<?xml version="1.0" encoding="UTF-8"?>
<svg version="1.1" viewBox="0 0 16 16" xmlns="http://www.w3.org/2000/svg">
<path d="m1 1v4h4v-4h-4zm1 1h2v2h-2v-2z" style="fill:#f1f2f2;paint-order:markers fill stroke"/>
<rect x="1" y="6" width="2" height="2" style="fill:#f1f2f2;paint-order:markers fill stroke"/>
<rect x="5" y="7" width="6" height="1" style="fill:#f1f2f2;paint-order:markers fill stroke"/>
<rect transform="rotate(90)" x="7" y="-8" width="3" height="1" style="fill:#f1f2f2;paint-order:markers fill stroke"/>
<rect transform="rotate(90)" x="2" y="-8" width="3" height="1" style="fill:#f1f2f2;paint-order:markers fill stroke"/>
<rect transform="scale(-1)" x="-10" y="-4" width="1" height="1" style="fill:#f1f2f2;paint-order:markers fill stroke"/>
<rect transform="scale(-1)" x="-15" y="-11" width="1" height="4" style="fill:#f1f2f2;paint-order:markers fill stroke"/>
<rect transform="rotate(-90)" x="-15" y="10" width="1" height="4" style="fill:#f1f2f2;paint-order:markers fill stroke"/>
<rect x="6" y="13" width="1" height="2" style="fill:#f1f2f2;paint-order:markers fill stroke"/>
<rect x="11" y="12" width="1" height="2" style="fill:#f1f2f2;paint-order:markers fill stroke"/>
<rect transform="rotate(90)" x="9" y="-9" width="1" height="2" style="fill:#f1f2f2;paint-order:markers fill stroke"/>
<rect transform="rotate(90)" x="8" y="-14" width="1" height="2" style="fill:#f1f2f2;paint-order:markers fill stroke"/>
<path d="m11 1v4h4v-4zm1 1h2v2h-2z" style="fill:#f1f2f2;paint-order:markers fill stroke"/>
<path d="m1 11v4h4v-4zm1 1h2v2h-2z" style="fill:#f1f2f2;paint-order:markers fill stroke"/>
<rect x="3" y="8" width="1" height="2" style="fill:#f1f2f2;paint-order:markers fill stroke"/>
</svg>
