<?xml version="1.0" encoding="UTF-8"?>
<svg version="1.1" viewBox="0 0 16 16" xmlns="http://www.w3.org/2000/svg">
<path d="m3.9411 4a1.9693 2 0 0 0-1.3635 0.58398 1.9693 2 0 0 0 0 2.8301 1.9693 2 0 0 0 1.9 0.51562l0.88463 0.89844 1.3923-1.4141-0.88463-0.90039a1.9693 2 0 0 0-0.5077-1.9297 1.9693 2 0 0 0-1.4212-0.58398zm7.6867 0.29102c-0.25169 0-0.5033 0.0971-0.69616 0.29297l-8.2771 8.4082h2.7847l6.8847-6.9941c0.38572-0.39174 0.38572-1.0223 0-1.4141-0.19286-0.19587-0.44448-0.29297-0.69617-0.29297zm-7.6444 0.70703a0.98463 1 0 0 1 0.6827 0.29297 0.98463 1 0 0 1 0 1.4141 0.98463 1 0 0 1-1.3923 0 0.98463 1 0 0 1 0-1.4141 0.98463 1 0 0 1 0.70963-0.29297zm8.3405 2.8281c-0.25169 0-0.50331 0.099053-0.69617 0.29492l-4.7962 4.8711h2.7847l3.4058-3.457c0.38572-0.39174 0.38572-1.0223 0-1.4141-0.19286-0.19587-0.4464-0.29492-0.69809-0.29492zm0.69809 3.5352c-0.25169 0-0.50523 0.09905-0.69809 0.29492l-1.3154 1.3359h2.7597c0.32057-0.39361 0.31312-0.96715-0.05-1.3359-0.19286-0.19587-0.44447-0.29492-0.69617-0.29492z" style="fill:#f1f2f2;paint-order:markers fill stroke"/>
</svg>
