<?xml version="1.0" encoding="UTF-8" standalone="no"?>
<!--Part of Monotone: https://github.com/sixsixfive/Monotone, released under cc-by-sa_v4-->
<svg id="svg7163" xmlns="http://www.w3.org/2000/svg" viewBox="0 0 16 16" version="1.1"><g id="layer1"><path id="path5094" style="fill:#f1f2f2" d="m5.0625 1.0059c-0.6784-0.02796-1.253 0.1445-1.6309 0.4804-0.3796 0.3375-0.5347 0.8609-0.3554 1.377 0.0017 0.0053 0.0037 0.0105 0.0058 0.0156 0.4023 0.94 1.3253 1.8301 2.3008 2.0176 0.8285 0.1592 1.9438 0.1173 2.6289-0.1777-0.0249 3.4602-1.0019 6.5102-1.0019 10.004 0.0004 0.131 0.105 0.238 0.2363 0.242 0.5277 0.012 1.1262 0.074 1.3926-0.069 0.1332-0.071 0.2282-0.199 0.2832-0.33 0.0549-0.131 0.088-0.275 0.1328-0.461 0.0029-0.012 0.0049-0.024 0.0058-0.037 0.0863-0.977 0.4356-1.405 0.9297-1.781 0.4938-0.376 1.1598-0.667 1.7638-1.26 1.259-1.1061 1.387-2.4165 1.148-3.6032-0.295-0.8696-0.715-1.4482-1.732-1.4121 0 0.0001-0.068 0.0351-0.068 0.0352-0.001 0.0001-0.055 0.0545-0.055 0.0547 0 0.0003-0.045 0.1069-0.045 0.1074s-0.004 0.0488-0.002 0.0644c0.002 0.0157 0.005 0.0278 0.008 0.0371 0.01 0.0376 0.018 0.0499 0.025 0.0645 0.002 0.0026 0.003 0.0052 0.004 0.0078 0.64 0.9688 1.114 1.498 0.94 2.5137-0.34 1.0918-1.627 1.9045-2.977 2.1035 0.0107-0.09 0.0265-0.137 0.0137-0.318v-7.4203c0.0002-0.035-0.0071-0.0696-0.0215-0.1015-0.8724-1.868-2.3105-2.1948-3.9297-2.1543zm0.3848 0.9785a2.0439 0.94812 10.378 0 1 0.7402 0.0761 2.0439 0.94812 10.378 0 1 1.8027 1.3106 2.0439 0.94812 10.378 0 1 -2.2129 0.541 2.0439 0.94812 10.378 0 1 -1.8027 -1.3105 2.0439 0.94812 10.378 0 1 1.4727 -0.6172z"/></g></svg>
