<?xml version="1.0" encoding="UTF-8" standalone="no"?>
<svg
   xmlns:dc="http://purl.org/dc/elements/1.1/"
   xmlns:cc="http://creativecommons.org/ns#"
   xmlns:rdf="http://www.w3.org/1999/02/22-rdf-syntax-ns#"
   xmlns:svg="http://www.w3.org/2000/svg"
   xmlns="http://www.w3.org/2000/svg"
   id="svg8"
   version="1.1"
   viewBox="0 0 16 16">
  <defs
     id="defs12" />
  <path
     style="fill:#f1f2f2;fill-opacity:1;stroke:none;opacity:0.5"
     d="M 8,0.93220339 C 6.1225696,0.93217673 4.4396994,1.7272095 3,2.9322034 l 2,2 c 0.863923,-0.6497038 1.9190402,-0.9980287 3,-1 1.0809599,0.00197 2.136077,0.3502961 3,1 L 13.128906,2.8032972 C 11.691565,1.5974822 9.8761477,0.93519369 8,0.93220339 Z M 14.134766,3.7974378 11.996094,5.9361096 C 12.645798,6.8000326 12.998029,7.8512436 13,8.9322034 12.998,10.013163 12.649704,11.06828 12,11.932203 l 2,2 c 1.205815,-1.437341 1.99701,-3.123852 2,-4.9999996 2.7e-5,-1.8774303 -0.66024,-3.6950661 -1.865234,-5.1347656 z M 2,3.9322034 c -1.205815,1.4373412 -1.99700977,3.1238522 -2,5 -2.6756083e-5,1.8774306 0.79500597,3.5602996 2,4.9999996 l 2,-2 C 3.3502961,11.06828 3.0019713,10.013163 3,8.9322034 c 0.00197,-1.0809598 0.3502962,-2.136077 1,-3 z"
     id="path859" />
  <path
     id="path866"
     d="M 6 7 L 5 8 L 5 15 L 7 15 L 7 13 L 9 13 L 9 15 L 11 15 L 11 8 L 10 7 L 6 7 z M 7 9 L 9 9 L 9 11 L 7 11 L 7 9 z "
     style="fill:#f1f2f2;fill-opacity:1;stroke:none;stroke-width:1px;stroke-linecap:butt;stroke-linejoin:miter;stroke-opacity:1" />
</svg>
