<?xml version="1.0" encoding="UTF-8" standalone="no"?>
<svg
   xmlns:dc="http://purl.org/dc/elements/1.1/"
   xmlns:cc="http://creativecommons.org/ns#"
   xmlns:rdf="http://www.w3.org/1999/02/22-rdf-syntax-ns#"
   xmlns:svg="http://www.w3.org/2000/svg"
   xmlns="http://www.w3.org/2000/svg"
   id="svg8"
   version="1.1"
   viewBox="0 0 16 16">
  <defs
     id="defs12" />
  <path
     id="path859"
     d="M 8 0.93164062 C 6.1225696 0.93161397 4.4396994 1.7266467 3 2.9316406 L 5 4.9316406 C 5.863923 4.2819368 6.9190402 3.9336119 8 3.9316406 C 9.0809599 3.9336106 10.136077 4.2819367 11 4.9316406 L 13.128906 2.8027344 C 11.691565 1.5969194 9.8761477 0.93463093 8 0.93164062 z M 14.134766 3.796875 L 11.996094 5.9355469 C 12.645798 6.7994699 12.998029 7.8506808 13 8.9316406 C 12.999256 9.3336419 12.934067 9.7288861 12.839844 10.115234 A 1.0001 1.0001 0 0 1 13.072266 10.283203 L 13.490234 10.689453 L 13.886719 10.292969 A 1.0001 1.0001 0 0 1 14.59375 10 L 15.904297 10 C 15.961469 9.6507662 15.99942 9.2955807 16 8.9316406 C 16.000027 7.0542103 15.33976 5.2365745 14.134766 3.796875 z M 2 3.9316406 C 0.794185 5.3689818 0.00299023 7.0554928 0 8.9316406 C -2.6756083e-05 10.809071 0.79500597 12.491941 2 13.931641 L 4 11.931641 C 3.3502961 11.067718 3.0019713 10.0126 3 8.9316406 C 3.00197 7.8506808 3.3502962 6.7955636 4 5.9316406 L 2 3.9316406 z "
     style="fill:#f1f2f2;fill-opacity:1;stroke:none;opacity:0.5" />
  <path
     style="fill:#f1f2f2;fill-opacity:1;stroke:none;stroke-width:1.7320509;opacity:0.5"
     d="M 9.9999999,10.496594 C 9.9999997,11.325022 9.1045693,12 8,12 6.8954307,12 6.0000003,11.328427 6.0000001,10.5 6,10 7,6 8,6 c 1,0 2,4 1.9999999,4.496594 z"
     id="path861" />
  <path
     id="path4"
     d="m 11,11 h 1.375 L 13.5,12.094 14.594,11 H 16 v 1.469 L 14.906,13.531 16,14.594 V 16 H 14.562 L 13.5,14.937 12.437,16 H 11 V 14.594 L 12.063,13.531 11,12.47 Z"
     overflow="visible"
     style="color:#f1f2f2;overflow:visible;fill:#f1f2f2" />
</svg>
