<!--Part of Monotone: https://github.com/sixsixfive/Monotone, released under cc-by-sa_v4-->
<svg xmlns="http://www.w3.org/2000/svg" viewBox="0 0 16 16">
    <g font-weight="400" fill="#f1f2f2">
        <path style="line-height:normal;-inkscape-font-specification:Sans;text-indent:0;text-align:start;text-decoration-line:none;text-transform:none;marker:none" d="M7.969 1.063c-3.858 0-7 3.142-7 7 0 3.857 3.142 7 7 7 3.857 0 7-3.143 7-7 0-3.858-3.143-7-7-7zm0 1c3.32 0 6.03 2.678 6.03 6 0 3.32-2.71 6-6.03 6a5.99 5.99 0 0 1-6-6c0-3.322 2.678-6 6-6z" color="#f1f2f2" font-family="Andale Mono" overflow="visible"/>
        <path style="line-height:normal;-inkscape-font-specification:Sans;text-indent:0;text-align:start;text-decoration-line:none;text-transform:none;marker:none" d="M4.687 6.063a2.003 2.003 0 1 0 .22 4h6.124a2 2 0 1 0 0-4H4.906a2 2 0 0 0-.219 0z" color="#000" font-family="Sans" overflow="visible"/>
    </g>
</svg>
