<!--Part of Monotone: https://github.com/sixsixfive/Monotone, released under cc-by-sa_v4-->
<svg xmlns="http://www.w3.org/2000/svg" viewBox="0 0 16 16">
    <g color="#000" fill="#f1f2f2">
        <path style="marker:none" d="M9.465 0C8.192 0 7.158.973 7.017 2.219 6.693 2.097 6.361 2 5.994 2 4.351 2 3.02 3.343 3.02 5c0 .098.022.185.031.281A1.983 1.983 0 0 0 2.028 5 1.992 1.992 0 0 0 .044 7c0 1.105.888 2 1.984 2h12.396c.821 0 1.487-.672 1.487-1.5S15.245 6 14.424 6c-.206 0-.411.05-.589.125.052-.202.093-.407.093-.625 0-1.23-.886-2.228-2.045-2.438.041-.18.062-.368.062-.562 0-1.38-1.11-2.5-2.48-2.5z" overflow="visible"/>
        <path style="line-height:normal;-inkscape-font-specification:Sans;text-indent:0;text-align:start;text-decoration-line:none;text-transform:none;marker:none" d="M2.406 10a.496.496 0 0 0-.406.406l-1 4.906a.496.496 0 1 0 .969.188l1-4.906A.496.496 0 0 0 2.406 10zm2 0a.496.496 0 0 0-.406.406l-1 4.906a.496.496 0 1 0 .969.188L5 10.594A.496.496 0 0 0 4.406 10zm2 0a.496.496 0 0 0-.406.406l-1 4.906a.509.509 0 1 0 1 .188l1-4.906A.496.496 0 0 0 6.406 10zm2 0a.496.496 0 0 0-.406.406l-1 4.906a.509.509 0 1 0 1 .188l1-4.906A.496.496 0 0 0 8.406 10zm2 0a.496.496 0 0 0-.375.406L9 15.312a.509.509 0 1 0 1 .188l1-4.906a.496.496 0 0 0-.594-.594zm2 0a.496.496 0 0 0-.375.406l-1 4.906A.496.496 0 1 0 12 15.5l1-4.906a.496.496 0 0 0-.594-.594z" font-weight="400" font-family="Sans" overflow="visible"/>
    </g>
</svg>
