<?xml version="1.0" encoding="UTF-8" standalone="no"?>
<!--Part of Monotone: https://github.com/sixsixfive/Monotone, released under cc-by-sa_v4-->
<svg xmlns="http://www.w3.org/2000/svg" viewBox="0 0 16 16" version="1.1">
 <path d="m3 1c-1.108 0-2 0.892-2 2v7.967c0.8802-0.465 1.6768-0.923 1.8379-1.3342 0.4481-0.5219 1.005-1.7469 1.3769-3.0293 0.3417-1.178 0.6391-1.8218 0.7403-2.5879 0.0878-0.6648 0.0886-1.0275 0.1172-0.998 0.6635-0.0167 0.8884 0.4036 1.166 1.041 0.2431-0.9717 0.7965-1.7451 1.6308-2.0117 0.0635-0.0203 0.1026-0.0327 0.1211-0.0313 0.031 0.002 0.0045 0.0409-0.0703 0.1465-0.2583 0.365 0.0788 0.7257 0.0781 1.0313l-0.0019 0.3125 0.2871-0.2657c0.8329-0.5448 2.6468-0.2728 2.6988 0.7578-1.5759 0.0018-2.3144 0.6058-1.5914 1.9766 0.3724 0 0.5789-0.1864 0.9984 0.2305 0.21 0.2089 0.688 0.3959 0.81 0.4453 0.289 0.1164 0.467 0.2978 0.467 0.6504 0 0.2445-0.116 0.3145-0.291 0.5703-0.196 0.2866-0.485 0.6953-0.271 0.9668 0.105 0.1349 0.257 0.2361 0.38 0.168 0.214-0.1178 0.33-0.0402 0.44 0.0957 0.052 0.0646 0.098 0.2741 0.101 0.4648 0.007 0.3323 0.027 0.3678 0.493 0.8316 0.702 0.702 0.66 1.545 0.357 1.844-0.071 0.071-0.168 0.251-0.215 0.403-0.196 0.627-0.795 1.061-1.512 1.095-0.238 0.012-0.581 0.075-0.763 0.141-0.232 0.084-0.5679 0.122-1.1174 0.125-0.7571 0.004-1.0461 0.45-1.0117 0.592 0.0058 0.14 0.0002 0.27-0.002 0.402h4.7461c1.108 0 2-0.892 2-2v-10c0-1.108-0.892-2-2-2h-10z" fill="#f1f2f2"/>
</svg>
