<!--Part of Monotone: https://github.com/sixsixfive/Monotone, released under cc-by-sa_v4-->
<svg viewBox="0 0 16 16" xmlns="http://www.w3.org/2000/svg">
    <path d="M8 1a3 3 0 0 0-2.871 2.152c.524.24.981.61 1.312 1.086a3.03 3.03 0 0 0-5.04.274c-.093.158-.168.33-.233.508a3 3 0 0 0-.04.12 3.367 3.367 0 0 0-.087.374A3 3 0 0 0 1 6a3 3 0 0 0 3 3v5h8V9a3 3 0 0 0 .057-.004l-.043-.022c1.44 0 2.642-1.02 2.923-2.376a3 3 0 0 0 .002-.008v-.004A3 3 0 0 0 15 5.992a3 3 0 0 0-.002-.016c0-.184-.02-.362-.053-.537a3 3 0 0 0-.03-.135 2.948 2.948 0 0 0-.124-.398 3 3 0 0 0-.07-.164 2.98 2.98 0 0 0-.18-.328 3 3 0 0 0-.107-.164 2.996 2.996 0 0 0-.25-.303 3 3 0 0 0-.094-.1 2.993 2.993 0 0 0-.326-.269 3 3 0 0 0-.135-.096l-.008-.006a2.98 2.98 0 0 0-.377-.203 3 3 0 0 0-.113-.05 2.958 2.958 0 0 0-.463-.145 3 3 0 0 0-.088-.02 2.986 2.986 0 0 0-.567-.056A2.986 2.986 0 0 0 9.03 5.988a2.922 2.922 0 0 1-.004-.094c0-1.263.744-2.346 1.813-2.857A3 3 0 0 0 8 1z" color="#000" overflow="visible" fill="#f1f2f2"/>
</svg>
