<?xml version="1.0" encoding="UTF-8" standalone="no"?>
<!--Part of Monotone: https://github.com/sixsixfive/Monotone, released under cc-by-sa_v4-->
<svg id="svg8" xmlns="http://www.w3.org/2000/svg" version="1.1" viewBox="0 0 16 16"><path id="path4493" style="fill:#f1f2f2" d="m5.9805 2a6 6 0 0 0 -5.9805 6.0137 6 6 0 0 0 6.0059 5.9863 6 6 0 0 0 5.9941 -6v-0.0273a6 6 0 0 0 -6.0195 -5.9727zm0.0058 2a4 4 0 0 1 4.0137 3.9824v0.0176a4 4 0 0 1 -3.9961 4 4 4 0 0 1 -4.0039 -3.9902 4 4 0 0 1 3.9863 -4.0098z"/><path id="path4513" style="fill:#f1f2f2" d="m16 8a6 6 0 0 1 -5.993 6 6 6 0 0 1 -6.007 -5.9866 6 6 0 0 1 5.9799 -6.0134 6 6 0 0 1 6.0201 5.9732"/></svg>
