<?xml version="1.0" encoding="UTF-8" standalone="no"?>
<!--Part of Monotone: https://github.com/sixsixfive/Monotone, released under cc-by-sa_v4-->
<svg id="svg2" xmlns="http://www.w3.org/2000/svg" viewBox="0 0 16 16" version="1.1"><path id="path4493" style="fill:#f1f2f2" d="m1 1l5.5 7-5.5 7h1l5-6.3633 1.5-1.9101-4.5-5.7266h-3zm13 0l-5 6.3633-1.5 1.9101 1.5 1.9086v-1.182c0-0.554 0.446-1 1-1h0.285l-0.785-1 5.5-7h-1z"/><path id="path4553" d="m12.5 10c-0.822 0-1.5 0.626-1.5 1.385v1.685h-0.5c-0.277 0-0.5 0.205-0.5 0.461v2.469h6v-2.469c0-0.256-0.223-0.461-0.5-0.461h-0.5v-1.685c0-0.76-0.678-1.385-1.5-1.385zm0 0.923h1c0.286 0 0.5 0.198 0.5 0.462v1.685h-2v-1.685c0-0.264 0.214-0.462 0.5-0.462z" style="color:#f1f2f2;fill:#f1f2f2" overflow="visible"/></svg>
