<?xml version="1.0" encoding="UTF-8" standalone="no"?>
<!--Part of Monotone: https://github.com/sixsixfive/Monotone, released under cc-by-sa_v4-->
<svg id="svg2" xmlns="http://www.w3.org/2000/svg" viewBox="0 0 16 16" version="1.1"><path id="path4499" style="color-rendering:auto;text-decoration-color:#000000;color:#000000;font-variant-numeric:normal;text-orientation:mixed;shape-padding:0;shape-rendering:auto;solid-color:#000000;text-decoration-line:none;fill:#f1f2f2;font-variant-position:normal;mix-blend-mode:normal;font-feature-settings:normal;font-variant-alternates:normal;text-indent:0;dominant-baseline:auto;font-variant-caps:normal;image-rendering:auto;white-space:normal;text-decoration-style:solid;font-variant-ligatures:normal;isolation:auto;text-transform:none" d="m1.8131 1.0283a0.79881 0.778 0 0 0 -0.7821 0.9926l3.1949 11.409a0.79881 0.778 0 0 0 1.5392 0l3.195-11.409a0.79881 0.778 0 1 0 -1.5393 -0.4093l-2.4252 8.6603-2.4253-8.6603a0.79881 0.778 0 0 0 -0.7572 -0.5834z"/><path id="path4501" style="color-rendering:auto;text-decoration-color:#000000;color:#000000;font-variant-numeric:normal;text-orientation:mixed;shape-padding:0;shape-rendering:auto;solid-color:#000000;text-decoration-line:none;fill:#f1f2f2;font-variant-position:normal;mix-blend-mode:normal;font-feature-settings:normal;font-variant-alternates:normal;text-indent:0;dominant-baseline:auto;font-variant-caps:normal;image-rendering:auto;white-space:normal;text-decoration-style:solid;font-variant-ligatures:normal;isolation:auto;text-transform:none" d="m12.5 1c-0.583 0-1.171 0.1379-1.652 0.459-0.482 0.3211-0.848 0.8743-0.848 1.541v2h1v-2c0-0.3333 0.134-0.5301 0.402-0.709 0.269-0.1789 0.681-0.291 1.098-0.291s0.829 0.1121 1.098 0.291c0.268 0.1789 0.402 0.3757 0.402 0.709v2h1v-2c0-0.6667-0.366-1.2199-0.848-1.541-0.481-0.3211-1.069-0.459-1.652-0.459z"/><path id="path4503" style="color-rendering:auto;text-decoration-color:#000000;color:#000000;font-variant-numeric:normal;text-orientation:mixed;shape-padding:0;shape-rendering:auto;solid-color:#000000;text-decoration-line:none;fill:#f1f2f2;font-variant-position:normal;mix-blend-mode:normal;font-feature-settings:normal;font-variant-alternates:normal;text-indent:0;dominant-baseline:auto;font-variant-caps:normal;image-rendering:auto;white-space:normal;text-decoration-style:solid;font-variant-ligatures:normal;isolation:auto;text-transform:none" d="m12 6c-0.667 0-1.22 0.366-1.541 0.8477-0.321 0.4816-0.459 1.069-0.459 1.6523s0.138 1.1707 0.459 1.652c0.321 0.482 0.874 0.848 1.541 0.848h3v-1h-3c-0.333 0-0.53-0.134-0.709-0.4023-0.179-0.2684-0.291-0.681-0.291-1.0977s0.112-0.8293 0.291-1.0977c0.179-0.2683 0.376-0.4023 0.709-0.4023h3v-1z"/></svg>
