<?xml version="1.0" encoding="UTF-8"?>
<svg version="1.1" viewBox="0 0 16 16" xmlns="http://www.w3.org/2000/svg">
<g transform="matrix(2 0 0 2 -18 -548.22)">
<path transform="matrix(.5 0 0 .5 9 274.11)" d="m4 1c-1.662 0-3 1.338-3 3v8c0 1.662 1.338 3 3 3h8c1.662 0 3-1.338 3-3v-8c0-1.662-1.338-3-3-3h-8zm2.293 1c0.45863-0.0026 0.91186 0.020666 1.2676 0.072266 1.1651 0.16948 2.3 0.48075 3.0137 0.82617 0.5244 0.25384 0.72174 0.39257 1.1484 0.80469 0.41652 0.4023 0.56507 0.59685 0.77148 1.0137 0.29511 0.596 0.47274 1.347 0.41602 1.7578-0.053642 0.38878-0.27533 1.0205-0.45703 1.3047-0.084358 0.13196-0.35996 0.47295-0.61328 0.75781-0.69395 0.78032-0.92019 1.1092-0.69336 1.541 0.056128 0.10686 0.46376 0.5086 0.7832 0.89258 1.0344 1.2433 1.3235 2.169 0.84961 2.7227-0.22916 0.26786-0.72646 0.33972-2.0547 0.29492-0.95529-0.0324-1.1082-0.053734-1.3613-0.17773-0.35997-0.1763-0.48336-0.38641-0.59766-1.0254-0.14229-0.7956-0.48567-1.5331-1.0977-1.6953-0.39657-0.10498-0.94788-0.024348-1.293 0.32031-0.28137 0.28124-0.30463 0.62742-0.29883 0.88672 0.00358 0.15478 0.049936 0.49141 0.10352 0.74609 0.05364 0.25472 0.079454 0.50519 0.058594 0.55859-0.020874 0.05356-0.13612 0.15787-0.25586 0.23047-0.17646 0.1072-0.029801 0.13639-0.51172 0.15039-0.72056 0.02166-1.8571-0.11206-2.1816-0.25586-0.30314-0.13442-0.33647-0.2698-0.24219-0.96484 0.30476-2.2455 0.50614-3.8512 0.45898-5.6465-0.034686-1.3191-0.24997-2.6408-0.39453-3.3555-0.1631-0.80642 0.38878-1.3713 1.5898-1.625 0.40376-0.0852 1.0021-0.13077 1.5918-0.13477zm1.2383 3.0215c-0.47853 0-1.0839 0.22593-1.3262 0.75977-0.17572 0.38724-0.19672 1.1734-0.039062 1.4629 0.13546 0.2487 0.80091 0.55792 1.0117 0.60352 0.092768 0.02 0.19647 0.044594 0.23047 0.058594 0.060312 0.0202 0.22281 0.0025469 0.57812-0.064453 0.2192-0.04134 0.72756-0.3481 0.85742-0.6543 0.13342-0.3144 0.18442-0.92818 0.10156-1.2285-0.084114-0.30488-0.65974-0.74467-0.92969-0.85547-0.11136-0.046-0.32876-0.082031-0.48438-0.082031z" style="fill:#f1f2f2;paint-order:fill markers stroke"/>
</g>
</svg>
