<!--Part of Monotone: https://github.com/sixsixfive/Monotone, released under cc-by-sa_v4-->
<svg viewBox="0 0 16 16" xmlns="http://www.w3.org/2000/svg">
    <path d="M4.344 0A2.33 2.33 0 0 0 2 2.344v11.312A2.33 2.33 0 0 0 4.344 16h7.312A2.33 2.33 0 0 0 14 13.656V2.344A2.33 2.33 0 0 0 11.656 0H4.344zM8 1c2.754 0 5 2.246 5 5s-2.246 5-5 5a5.01 5.01 0 0 1-5-5c0-2.754 2.246-5 5-5zm0 2.031a2.97 2.97 0 1 0 .001 5.94A2.97 2.97 0 0 0 8 3.03zM8 4.5c.854 0 1.531.663 1.531 1.5S8.854 7.5 8 7.5c-.107 0-.212.02-.313 0A1.526 1.526 0 0 1 6.47 6c0-.837.677-1.5 1.531-1.5zm3 7.5a1 1 0 1 1 0 2 1 1 0 0 1 0-2z" fill="#f1f2f2"/>
</svg>
