<?xml version="1.0" encoding="UTF-8" standalone="no"?>
<!--Part of Monotone: https://github.com/sixsixfive/Monotone, released under cc-by-sa_v4-->
<svg xmlns="http://www.w3.org/2000/svg" xml:space="preserve" viewBox="0 0 16 16" version="1.1"><filter style="color-interpolation-filters:sRGB" height="1.384" width="1.384" y="-.192" x="-.192"><feGaussianBlur stdDeviation="5.28"/></filter><filter id="filter3218" style="color-interpolation-filters:sRGB"><feGaussianBlur stdDeviation="1.71"/></filter><path fill="#f1f2f2" d="m7.7539 0.97461c-0.0367 0.00946-0.0682 0.03599-0.084 0.07029l-5.9551 12.848c-0.0374 0.076 0.0258 0.18 0.1114 0.181h2.1093c0.0466-0.001 0.0925-0.029 0.1133-0.07l1.3496-2.918h4.3164l0.4922 2.883c0.01 0.058 0.067 0.105 0.127 0.105h2.49c0.074 0 0.137-0.074 0.125-0.146l-2.277-12.848c-0.01-0.0585-0.067-0.10557-0.127-0.10539h-2.7638c-0.0093-0.00103-0.018-0.00103-0.0273 0zm0.8301 2.7149l0.8711 5.4218h-3.1699l2.2988-5.4218z"/><g display="none" transform="translate(0,-80)"><g opacity=".9" filter="url(#filter3218)" display="inline"><linearGradient id="SVGID_1_" x1="37.868" gradientUnits="userSpaceOnUse" y1="-22.713" gradientTransform="matrix(1.0059 0 0 -.9942 9.9104 69.418)" x2="37.868" y2="62.786"><stop offset="0"/><stop stop-opacity=".5882" offset="1"/></linearGradient><path fill="url(#SVGID_1_)" d="m12 7h72c3.866 0 7 3.134 7 7v71c0 3.866-3.134 7-7 7h-72c-3.866 0-7-3.134-7-7v-71c0-3.866 3.134-7 7-7z"/></g></g></svg>
