<?xml version="1.0" encoding="UTF-8"?>
<!--Part of Monotone: https://github.com/sixsixfive/Monotone, released under cc-by-sa_v4-->
<svg version="1.1" viewBox="0 0 16 16" xmlns="http://www.w3.org/2000/svg">
<path d="m3 1c-1.108 0-2 0.892-2 2v6c0 0.75549 0.42004 1.4038 1.0352 1.7441a1.0001 1.0001 0 0 0-0.035156 0.25586v2a1.0001 1.0001 0 0 0 1.707 0.70703l2-2a1.0001 1.0001 0 0 0 0.29297-0.70703v-4.4004c0-1.4228 1.1768-2.5996 2.5996-2.5996h4.4004v-1c0-1.108-0.892-2-2-2h-8z" style="fill:#f1f2f2"/>
<path d="m8.5996 5c-0.8864 0-1.5996 0.71321-1.5996 1.5996v4.8008c0 0.8864 0.71321 1.5996 1.5996 1.5996h1.9863l1.707 1.707a1.0001 1.0001 0 0 0 1.707-0.70703v-1.1172c0.58673-0.23675 1-0.80892 1-1.4824v-4.8008c0-0.8864-0.71321-1.5996-1.5996-1.5996h-4.8008z" style="fill:#f1f2f2"/>
</svg>
