<?xml version="1.0" encoding="UTF-8" standalone="no"?>
<!--Part of Monotone: https://github.com/sixsixfive/Monotone, released under cc-by-sa_v4-->
<svg id="svg7384" xmlns="http://www.w3.org/2000/svg" viewBox="0 0 16 16" version="1.1"><title id="title9167">Gnome Symbolic Icon Theme</title><path id="rect4150" style="fill:#f1f2f2" d="m2 3c-0.5543 0-1 0.4396-1 0.9863v8.0277c0 0.546 0.4457 0.986 1 0.986h2v2l2.2559-2h7.7441c0.55428 0 1-0.43964 1-0.98633v-8.0277c0-0.5467-0.446-0.9863-1-0.9863zm5.5 1h1c0.277 0 0.5 0.223 0.5 0.5v4c0 0.277-0.223 0.5-0.5 0.5h-1c-0.277 0-0.5-0.223-0.5-0.5v-4c0-0.277 0.223-0.5 0.5-0.5zm0 6h1c0.277 0 0.5 0.223 0.5 0.5v1c0 0.277-0.223 0.5-0.5 0.5h-1c-0.277 0-0.5-0.223-0.5-0.5v-1c0-0.277 0.223-0.5 0.5-0.5z"/></svg>
