<!--Part of Monotone: https://github.com/sixsixfive/Monotone, released under cc-by-sa_v4-->
<svg viewBox="0 0 16 16" xmlns="http://www.w3.org/2000/svg">
    <path d="M8 0a8 8 0 1 0 8 8 7.99 7.99 0 0 0-.812-3.531L14 5.75l-3.344-3.594L11.781.937A7.98 7.98 0 0 0 8 0zm2 2.875l1.344 1.438.656.718 1.344 1.438-.688.718c-.666.718-.646.721-1.312 2.875C8.677 12.934 6 12.938 6 12.938l-.656.718s-.677.718-1.344 0l4-4.312.063-.094a1.3 1.3 0 0 0 1.593-.281 1.61 1.61 0 0 0 0-2.156 1.344 1.344 0 0 0-2 0c-.438.471-.507 1.182-.25 1.75l-.062.062-4 4.313c-.667-.718 0-1.438 0-1.438L4 10.781s-.01-2.878 2.656-5.75c2-.718 2.021-.72 2.688-1.437L10 2.875z" fill="#f1f2f2"/>
</svg>
