<?xml version="1.0" encoding="UTF-8"?>
<!--Part of Monotone: https://github.com/sixsixfive/Monotone, released under cc-by-sa_v4-->
<svg version="1.1" viewBox="0 0 16 16" xmlns="http://www.w3.org/2000/svg">
<path d="m3.5 3c-0.277 0-0.5 0.223-0.5 0.5v9c0 0.277 0.223 0.5 0.5 0.5h9c0.277 0 0.5-0.223 0.5-0.5v-9c0-0.277-0.223-0.5-0.5-0.5h-9zm3.9004 1h1.1992c0.2216 0 0.40039 0.17879 0.40039 0.40039v2.5996h2l-3 2-3-2h2v-2.5996c0-0.2216 0.17879-0.40039 0.40039-0.40039zm-2.5996 6h6.3984c0.4432 0 0.80078 0.35758 0.80078 0.80078v0.39844c0 0.4432-0.35758 0.80078-0.80078 0.80078h-6.3984c-0.4432 0-0.80078-0.35758-0.80078-0.80078v-0.39844c0-0.4432 0.35758-0.80078 0.80078-0.80078z" style="fill:#f1f2f2"/>
<path d="m2 1c-0.554 0-1 0.446-1 1v12c0 0.554 0.446 1 1 1h12c0.554 0 1-0.446 1-1v-12c0-0.554-0.446-1-1-1h-12zm0.5 1h11c0.277 0 0.5 0.223 0.5 0.5v11c0 0.277-0.223 0.5-0.5 0.5h-11c-0.277 0-0.5-0.223-0.5-0.5v-11c0-0.277 0.223-0.5 0.5-0.5z" style="fill:#f1f2f2"/>
</svg>
