<?xml version="1.0" encoding="UTF-8"?>
<svg version="1.1" viewBox="0 0 16 16" xmlns="http://www.w3.org/2000/svg">
<g transform="rotate(-90,8,8)">
<path d="m4 1a3 3 0 0 0-3 3 3 3 0 0 0 1.1309 2.3438c0.36814 0.4635 1.5182 0.78694 2.9258 1.084a3 3 0 0 1 2.3145-2.3574c-0.13501-0.69349-0.26654-1.3058-0.4668-1.8105a3 3 0 0 0-2.9043-2.2598zm8 0a3 3 0 0 0-2.9043 2.2598c-0.20006 0.50431-0.33192 1.1159-0.4668 1.8086a3 3 0 0 1 2.3145 2.3594c1.4075-0.29704 2.5576-0.62048 2.9258-1.084a3 3 0 0 0 1.1309-2.3438 3 3 0 0 0-3-3zm-6.9434 7.5723c-1.4075 0.29704-2.5576 0.62048-2.9258 1.084a3 3 0 0 0-1.1309 2.3438 3 3 0 0 0 3 3 3 3 0 0 0 2.9043-2.2598c0.20006-0.50431 0.33192-1.1159 0.4668-1.8086a3 3 0 0 1-2.3145-2.3594zm5.8867 0a3 3 0 0 1-2.3145 2.3574c0.13501 0.69349 0.26654 1.3058 0.4668 1.8105a3 3 0 0 0 2.9043 2.2598 3 3 0 0 0 3-3 3 3 0 0 0-1.1309-2.3438c-0.36814-0.4635-1.5182-0.78694-2.9258-1.084z" style="fill:#f1f2f2;paint-order:markers fill stroke"/>
<path d="m8 6a2 2 0 0 0-2 2 2 2 0 0 0 2 2 2 2 0 0 0 2-2 2 2 0 0 0-2-2zm0 1a1 1 0 0 1 1 1 1 1 0 0 1-1 1 1 1 0 0 1-1-1 1 1 0 0 1 1-1z" style="fill:#f1f2f2;paint-order:markers fill stroke"/>
</g>
</svg>
