<?xml version="1.0" encoding="UTF-8"?>
<!--Part of Monotone: https://github.com/sixsixfive/Monotone, released under cc-by-sa_v4-->
<svg version="1.1" viewBox="0 0 16 16" xmlns="http://www.w3.org/2000/svg" xmlns:osb="http://www.openswatchbook.org/uri/2009/osb">
<g id="show-path-outline" transform="translate(-799 -558.36)">
<rect x="810" y="559.36" width="4" height="3.9922" style="fill:#f1f2f2"/>
<rect x="800" y="569.36" width="4" height="4" style="fill:#f1f2f2"/>
<path d="m809.34 560.44c-2.8268 0.3559-4.9439 1.7885-6.3125 3.5937-1.8247 2.407-2.3899 5.4513-1.8125 7.7813l0.0625 0.3437 0.375 0.0625c6.6954 1.1257 12.302-4.567 11.188-11.312l-0.0625-0.375-0.375-0.0625c-1.1005-0.1387-2.1202-0.1498-3.0625-0.0312zm0.125 1.0625c0.7268-0.0878 1.5257-0.0474 2.375 0.0313 0.6789 5.7343-3.916 10.34-9.5937 9.6562-0.3532-1.9263 0.094-4.5117 1.625-6.5312 1.2158-1.6038 3.0406-2.8479 5.5937-3.1563z" style="color:#000000;fill:#f1f2f2;stroke-width:1.0649px"/>
</g>
</svg>
