<?xml version="1.0" encoding="UTF-8" standalone="no"?>
<!--Part of Monotone: https://github.com/sixsixfive/Monotone, released under cc-by-sa_v4-->
<svg xmlns="http://www.w3.org/2000/svg" viewBox="0 0 16 16" version="1.1">
 <g fill="#f1f2f2" transform="matrix(3.7789 0 0 3.7798 .0055579 .019125)">
  <rect height=".26456" width=".26463" y=".25950" x=".26316"/>
  <rect height=".26456" width=".26463" y=".25950" x="1.057"/>
  <rect height=".26456" width=".26463" y=".25950" x="1.8509"/>
  <rect height=".26456" width=".26463" y=".25950" x="2.6448"/>
  <rect height=".26456" width=".26463" y=".25950" x="3.4387"/>
  <rect height=".26456" width=".26463" y="1.0532" x=".26316"/>
  <rect height=".26456" width=".26463" y="1.0532" x="1.057"/>
  <rect height=".26456" width=".26463" y="1.0532" x="1.8509"/>
  <rect height=".26456" width=".26463" y="1.0532" x="2.6448"/>
  <rect height=".26456" width=".26463" y="1.0532" x="3.4387"/>
  <rect height=".26456" width=".26463" y="1.8469" x=".26316"/>
  <rect height=".26456" width=".26463" y="1.8469" x="1.057"/>
  <rect height=".26456" width=".26463" y="1.8469" x="1.8509"/>
  <rect height=".26456" width=".26463" y="1.8469" x="2.6448"/>
  <rect height=".26456" width=".26463" y="1.8469" x="3.4387"/>
  <rect height=".26456" width=".26463" y="2.6406" x=".26316"/>
  <rect height=".26456" width=".26463" y="2.6406" x="1.057"/>
  <rect height=".26456" width=".26463" y="2.6406" x="1.8509"/>
  <rect height=".26456" width=".26463" y="2.6406" x="2.6448"/>
  <rect height=".26456" width=".26463" y="2.6406" x="3.4387"/>
  <rect height=".26456" width=".26463" y="3.4343" x=".26316"/>
  <rect height=".26456" width=".26463" y="3.4343" x="1.057"/>
  <rect height=".26456" width=".26463" y="3.4343" x="1.8509"/>
  <rect height=".26456" width=".26463" y="3.4343" x="2.6448"/>
  <rect height=".26456" width=".26463" y="3.4343" x="3.4387"/>
 </g>
</svg>
