<?xml version="1.0" encoding="UTF-8" standalone="no"?>
<!--Part of Monotone: https://github.com/sixsixfive/Monotone, released under cc-by-sa_v4-->
<svg id="svg8" xmlns="http://www.w3.org/2000/svg" viewBox="0 0 16 16" version="1.1"><g id="g6" font-weight="400" font-family="Sans" fill="#f1f2f2"><path id="path824" style="fill:#f1f2f2" d="m8 1a7 7 0 0 0 -7 7 7 7 0 0 0 7 7 7 7 0 0 0 7 -7 7 7 0 0 0 -7 -7zm0 1a6 6 0 0 1 6 6 6 6 0 0 1 -6 6 6 6 0 0 1 -6 -6 6 6 0 0 1 6 -6z"/><path id="circle847" style="fill:#f1f2f2" d="m4 5 1 2c1.2767-1.7298 1.5722-2.0601 3.1387-3.9941-2.1387-0.0059-3.3184 0.5816-4.1387 1.9941zm5.235-2-1.235 2h4c-0.676-0.8517-1.729-1.6987-2.765-2zm0.765 3 2.766 3.3535c0.138-0.4381 0.236-0.8884 0.236-1.3535 0-0.69867-0.1802-1.3757-0.47852-2zm-6.7976 1c-0.139 0.4394-0.2044 0.5335-0.2044 1 0 0.69867 0.1802 1.3757 0.47852 2h2.5235c-0.8401-1.1213-1.9558-1.8776-2.7976-3zm7.7976 2c-1.3584 1.4606-2.9654 2.9767-4 4 0.30418 0.06508 0.71917 0.002 1.0339 0.002 1.7918 0 3.4187-1.125 4.302-2.668zm-6.8867 2c0.5854 0.738 1.0157 1.288 1.8867 1.628l2-1.628z"/></g></svg>
