<?xml version="1.0" encoding="UTF-8"?>
<svg version="1.1" viewBox="0 0 16 16" xmlns="http://www.w3.org/2000/svg">
<rect x="1" y="10.296" width="1" height="4.7035" ry=".5" style="fill:#f1f2f2;paint-order:markers fill stroke"/>
<rect x="1" y="14" width="13.296" height="1" ry=".5" style="fill:#f1f2f2;paint-order:markers fill stroke"/>
<g transform="scale(1.1146 .89719)" style="fill:#ffffff" aria-label="S">
<path d="m4.5745 13.646c1.0605 0.47614 2.0344 0.73585 3.1165 0.73585 2.965 0 4.8696-1.5799 4.8696-3.9173 0-1.9911-1.2553-3.1815-3.7225-3.5061l-1.6881-0.21643c-1.6232-0.21643-2.6927-0.84406-2.6927-1.9046 0-1.3418 1.4158-2.2941 3.1472-2.2941 1.1254 0 2.0344 0.43285 2.4889 1.1038 0.4545 0.67092 0.32464 1.4501 1.1687 1.4501 0.49778 0 0.80078-0.28135 0.80078-0.77914v-0.10821l-0.1515-2.2075c-0.04329-0.56271-0.10821-0.80078-0.86571-0.80078-0.47614 0-0.67092 0.12986-0.67092 0.54107-0.97392-0.38957-1.818-0.62764-2.6837-0.62764-2.727 0-4.9438 1.7098-4.9438 3.8091 0 2.121 1.6541 3.1382 4.4677 3.5278l1.5583 0.21643c1.3418 0.19478 2.0561 0.88735 2.0561 1.9911 0 1.2986-1.1903 2.2941-3.0733 2.2941-1.515 0-2.6188-0.60599-3.0733-1.5366-0.38957-0.77914-0.28135-1.6016-1.1687-1.6016-0.64928 0-0.82242 0.303-0.82242 0.90899v0.21643l0.12986 2.4456c0.043285 0.75749 0.303 1.1038 0.90899 1.1038 0.58435 0 0.77914-0.21643 0.84406-0.84406z" style="fill:#f1f2f2"/>
</g>
</svg>
