<!--Part of Monotone: https://github.com/sixsixfive/Monotone, released under cc-by-sa_v4-->
<svg xmlns="http://www.w3.org/2000/svg" viewBox="0 0 16 16">
    <g color="#000" font-weight="400" font-family="Sans" fill="#f1f2f2">
        <path style="line-height:normal;-inkscape-font-specification:Sans;text-indent:0;text-align:start;text-decoration-line:none;text-transform:none;marker:none" d="M7.5.013A7.492 7.492 0 0 0 .014 7.5 7.492 7.492 0 0 0 7.5 14.987 7.492 7.492 0 0 0 14.987 7.5 7.492 7.492 0 0 0 7.5.013zm0 1.974A5.508 5.508 0 0 1 13.014 7.5 5.508 5.508 0 0 1 7.5 13.013 5.508 5.508 0 0 1 1.987 7.5 5.508 5.508 0 0 1 7.5 1.987z" overflow="visible"/>
        <path style="line-height:normal;-inkscape-font-specification:Sans;text-indent:0;text-align:start;text-decoration-line:none;text-transform:none;marker:none" d="M4.313 3.969a.5.5 0 0 0-.22.844l3.095 3.062a.5.5 0 0 0 .062.031.5.5 0 0 0 .063.031.5.5 0 0 0 .062.032.5.5 0 0 0 .031 0 .5.5 0 0 0 .063.03.5.5 0 0 0 .093 0H10.5a.5.5 0 1 0 0-1H7.75L4.782 4.126a.5.5 0 0 0-.469-.156z" overflow="visible"/>
    </g>
</svg>
