<?xml version="1.0" encoding="UTF-8" standalone="no"?>
<!--Part of Monotone: https://github.com/sixsixfive/Monotone, released under cc-by-sa_v4-->
<svg id="svg8" xmlns="http://www.w3.org/2000/svg" version="1.1" viewBox="0 0 16 16"><path id="path4514" style="opacity:.5;stroke-width:.84615;fill:#f1f2f2" d="m5.5391 2.9238c-1.4025-0.0003-2.5394 1.1367-2.5391 2.5391 0.0007 1.4017 1.1374 2.5374 2.5391 2.5371 0.9649-0.0009 1.846-0.5489 2.2734-1.4141-0.3282-0.4922-0.5035-1.0705-0.5039-1.6621-0.0002-0.3644 0.066-0.7257 0.1953-1.0664-0.4817-0.5903-1.203-0.933-1.9648-0.9336z"/><path id="path4493" style="opacity:.5;stroke-width:.85696;fill:#f1f2f2" d="m3.0664 8c-0.93838 0.31505-2.0617 1.1174-2.0625 2.5182l-0.0039 2.615c0 0.48 0.3769 0.867 0.8457 0.867h3.1543l0.0039-3.089c0.0006-0.9857 0.3813-1.3988 0.9961-1.911-0.2716 0.0661-0.4604-0.2067-0.7695-0.2067-0.8597 0-1.5667-0.2517-2.1641-0.7933z"/><g id="g6" style="fill:#f1f2f2" transform="translate(2)"><path id="path2" d="m10.555 8.094c-0.706 0.623-1.54 0.906-2.555 0.906-1.016 0-1.853-0.29-2.559-0.914-1.109 0.363-2.436 1.288-2.437 2.902l-0.004 3.012c0 0.554 0.446 1 1 1h8c0.554 0 1-0.446 1-1v-3c0-1.387-1.102-2.556-2.445-2.906z"/><path id="path4" style="color:#f1f2f2" overflow="visible" d="m11 5a3 3 0 0 1 -3 3 3 3 0 0 1 -3 -3 3 3 0 0 1 3 -3 3 3 0 0 1 3 3z"/></g></svg>
