<?xml version="1.0" encoding="UTF-8"?>
<!--Part of Monotone: https://github.com/sixsixfive/Monotone, released under cc-by-sa_v4-->
<svg version="1.1" viewBox="0 0 16 16" xmlns="http://www.w3.org/2000/svg">
<path d="m5 7c-0.88883 5.481e-4 -1.6368 0.39483-2.1777 0.98242-0.54092 0.58759-0.90502 1.3549-1.168 2.1797-0.52591 1.6495-0.6465 3.5537-0.6543 4.834l1 0.0078c0.00742-1.2197 0.13713-3.064 0.60742-4.5391 0.23515-0.73751 0.55502-1.3765 0.94922-1.8047 0.3942-0.42821 0.83219-0.65978 1.4434-0.66016z" style="color-rendering:auto;color:#000000;dominant-baseline:auto;fill:#f1f2f2;font-feature-settings:normal;font-variant-alternates:normal;font-variant-caps:normal;font-variant-ligatures:normal;font-variant-numeric:normal;font-variant-position:normal;image-rendering:auto;isolation:auto;mix-blend-mode:normal;shape-padding:0;shape-rendering:auto;solid-color:#000000;text-decoration-color:#000000;text-decoration-line:none;text-decoration-style:solid;text-indent:0;text-orientation:mixed;text-transform:none;white-space:normal"/>
<path d="m11.005 7.0032c0.88883 5.481e-4 1.6368 0.39483 2.1777 0.98242 0.54092 0.58759 0.90502 1.3549 1.168 2.1797 0.52591 1.6495 0.6465 3.5537 0.6543 4.834l-1 0.0078c-0.00742-1.2197-0.13713-3.064-0.60742-4.5391-0.23514-0.73751-0.55502-1.3765-0.94922-1.8047-0.3942-0.42821-0.83219-0.65978-1.4434-0.66016z" style="color-rendering:auto;color:#000000;dominant-baseline:auto;fill:#f1f2f2;font-feature-settings:normal;font-variant-alternates:normal;font-variant-caps:normal;font-variant-ligatures:normal;font-variant-numeric:normal;font-variant-position:normal;image-rendering:auto;isolation:auto;mix-blend-mode:normal;shape-padding:0;shape-rendering:auto;solid-color:#000000;text-decoration-color:#000000;text-decoration-line:none;text-decoration-style:solid;text-indent:0;text-orientation:mixed;text-transform:none;white-space:normal"/>
<circle cx="8" cy="7" r="2" style="fill:#f1f2f2"/>
</svg>
