<?xml version="1.0" encoding="UTF-8"?>
<!--Part of Monotone: https://github.com/sixsixfive/Monotone, released under cc-by-sa_v4-->
<svg version="1.1" viewBox="0 0 16 16" xmlns="http://www.w3.org/2000/svg" xmlns:osb="http://www.openswatchbook.org/uri/2009/osb">
<rect x="8" y="5" width="1" height="11" style="fill:#f1f2f2"/>
<rect x="3" y="10" width="11" height="1" style="fill:#f1f2f2"/>
<path d="m1 2e-5v5c0.9848 0 2.1151 0.018 3 0h2l-1.8125-1.8125v-0.031c0.3708-0.7289 1.2553-1.2813 2.375-1.2813 1.4929 0 2.5625 1.0047 2.5625 2.0625-0.089 0.5418 0.3884 1.1043 0.9375 1.1043s1.0266-0.5625 0.9375-1.1043c0-2.2558-2.0644-3.9375-4.4375-3.9375-1.5399 0-2.9498 0.6989-3.75 1.8125z" style="fill:#f1f2f2"/>
<rect x="10" y="7" width="2" height="2" style="fill:#f1f2f2"/>
<rect x="10" y="12" width="2" height="2" style="fill:#f1f2f2"/>
<rect x="5" y="12" width="2" height="2" style="fill:#f1f2f2"/>
<rect x="5" y="7" width="2" height="2" style="fill:#f1f2f2"/>
</svg>
