<?xml version="1.0" encoding="UTF-8"?>
<!--Part of Monotone: https://github.com/sixsixfive/Monotone, released under cc-by-sa_v4-->
<svg version="1.1" viewBox="0 0 16 16" xmlns="http://www.w3.org/2000/svg">
<g fill="#f1f2f2">
<path d="m3.0001-3.201e-5h0.81836c2.518 2.424 5.9886 4.877 3.1816 7-0.092-2.716-0.93345-2.7971-1.9395-3.0391l-0.06055 0.039062v4.2793h-0.0078c-0.095 0.948-1.1993 1.7207-2.5293 1.7207-1.39 0-2.4727-0.72242-2.4727-1.7324 0-1.012 0.33908-1.6215 0.95508-2.0605 0.561-0.4 1.7267-0.20703 2.0547-0.20703v-6z" style="fill:#f1f2f2"/>
<path d="m13.034 15h-0.81836c-2.518-2.424-5.9886-4.877-3.1816-7 0.092 2.716 0.93345 2.7971 1.9395 3.0391l0.06055-0.03906v-4.2793h0.0078c0.095-0.948 1.1993-1.7207 2.5293-1.7207 1.39 0 2.4727 0.72242 2.4727 1.7324 0 1.012-0.33908 1.6215-0.95508 2.0605-0.561 0.4-1.7267 0.20703-2.0547 0.20703v6z" style="fill:#f1f2f2"/>
<path d="m2 11c0.20691 2.7523 1.3305 3 2.5488 3h1.4512l0.025391 1 1.9746-1 1.0293-0.51562c-0.47031-0.47342-0.91926-0.9594-1.2832-1.4766-0.044573-0.063338-0.082339-0.13224-0.125-0.19726l-1.6211-0.81055v1h-2c-0.4458 0-0.79284-0.129-0.93164-1h-1.0684z" style="fill:#f1f2f2"/>
</g>
</svg>
