<!--Part of Monotone: https://github.com/sixsixfive/Monotone, released under cc-by-sa_v4-->
<svg viewBox="0 0 16 16" xmlns="http://www.w3.org/2000/svg">
    <g fill="#f1f2f2">
        <path d="M7.969 1C4.126 1 1 4.19 1 8.094c0 3.904 3.126 6.937 6.969 6.937.699 0 1.36-.113 2-.312-.412-1.938-.424-3.04.5-4.719.543-.988 1.747-2.963 4.343-3.188C14.31 3.394 11.466 1 7.97 1zM8.5 2.063c.287.017.554.11.875.28.664.355.994.721.812 1.063l-1.03 1.938A2.983 2.983 0 0 1 10.78 8c0 1.657-1.314 3-2.906 3-.258 0-.512-.027-.75-.094l-.563 2.063c-.116.432-.405.559-1.156.312-.829-.272-1.169-.494-1.531-1.125-.375-.653-.46-1.15-.125-1.343L5.562 9.78a3.044 3.044 0 0 1-.312-.562l-1.844.875c-.404.191-.669.075-.969-.656-.33-.808-.4-1.222-.156-1.907.254-.709.573-1.098.938-.968l1.875.687a3.08 3.08 0 0 1 .218-.625l-1.875-.812c-.41-.179-.51-.48-.156-1.188.39-.78.667-1.077 1.344-1.344.7-.276 1.2-.297 1.344.063l.75 1.906c.179-.081.365-.145.562-.187l-.594-2c-.13-.428.014-.686.782-.875.423-.105.744-.143 1.031-.125z" style="text-indent:0;text-align:start;line-height:normal;text-transform:none;block-progression:tb;marker:none;-inkscape-font-specification:Sans" font-weight="400" color="#f1f2f2" overflow="visible" font-family="Sans"/>
        <path d="M8.005 6.006c-1.099 0-2.013.898-2.013 1.996 0 1.099.914 1.997 2.013 1.997A2.002 2.002 0 0 0 10 8.002a2.002 2.002 0 0 0-1.996-1.996zm0 .998a.99.99 0 0 1 .998.998.99.99 0 0 1-.998.999.99.99 0 0 1-.998-.999.99.99 0 0 1 .998-.998z" style="text-indent:0;text-align:start;line-height:normal;text-transform:none;block-progression:tb;marker:none;-inkscape-font-specification:Sans" font-weight="400" color="#f1f2f2" overflow="visible" font-family="Sans"/>
        <path d="M15.965 12.774c-.025 1.082-.576 2.266-2.37 2.225-1.796-.041-2.382-.991-2.532-1.624-.15-.632-.372-3.375 3.37-5.375C13 9.931 16 11.274 15.965 12.774z" style="marker:none" color="#000" overflow="visible"/>
    </g>
</svg>
