<!--Part of Monotone: https://github.com/sixsixfive/Monotone, released under cc-by-sa_v4-->
<svg viewBox="0 0 16 16" xmlns="http://www.w3.org/2000/svg">
    <path d="M.531 1A.537.537 0 0 0 0 1.531V15.47c0 .298.233.531.531.531H15.47a.525.525 0 0 0 .531-.531V6.53a.537.537 0 0 0-.532-.53H3v7.5a.499.499 0 1 1-1 0v-8c0-.277.223-.5.5-.5H14V3.594A.595.595 0 0 0 13.406 3H6V1.531A.537.537 0 0 0 5.469 1H.53zm9 5.813c.778.008.938 1.817 1.563 2.28.624.464 2.392.102 2.625.845.232.742-1.44 1.45-1.688 2.187-.248.737.665 2.3.031 2.75-.633.45-1.847-.93-2.625-.938-.777-.007-1.969 1.34-2.593.876-.625-.464.295-2.008.062-2.75-.233-.743-1.873-1.482-1.625-2.22.248-.736 1.991-.33 2.625-.78.634-.451.848-2.258 1.625-2.25z" fill="#f1f2f2"/>
</svg>
