<?xml version="1.0" encoding="UTF-8" standalone="no"?>
<!--Part of Monotone: https://github.com/sixsixfive/Monotone, released under cc-by-sa_v4-->
<svg xmlns="http://www.w3.org/2000/svg" version="1.1" viewBox="0 0 16 16">
 <g fill="#f1f2f2" transform="matrix(1,0,0,-1,0,16)">
  <path d="m1 6v1h1v-1h-1zm2 0v1h1v-1h-1zm2 0v1h1v-1h-1zm-4 2v1h1v-1h-1zm9 1v1h1v-1h-1zm-9 1v1h1v-1h-1zm9 1v1h1v-1h-1zm-9 1v1h1v-1h-1zm1 1v1h1v-1h-1zm2 0v1h1v-1h-1zm2 0v1h1v-1h-1zm2 0v1h1v-1h-1zm2 0v1h1v-1h-1z" transform="matrix(1,0,0,-1,0,16)"/>
  <path d="m10 6v1h4v6h-8v-4h-1v5h10v-8z"/>
  <g fill="#f1f2f2">
   <path opacity=".5" d="m6 3v4h-4v6h8v-4h4v-6h-8z" transform="matrix(1,0,0,-1,0,16)"/>
   <path d="m7 6v1h1v-1h-1zm2 0v1h1v-1h-1z" transform="matrix(1,0,0,-1,0,16)"/>
   <path d="m10 7v1h1v-1h-1zm0 2v1h1v-1h-1z" transform="matrix(1,0,0,-1,0,16)"/>
  </g>
 </g>
</svg>
