<svg version="1.1" viewBox="0 0 16 16" xmlns="http://www.w3.org/2000/svg"><path d="m2 1c-0.554 0-1 0.446-1 1v12c0 0.554 0.446 1 1 1h7v-1h-6.5c-0.277 0-0.5-0.223-0.5-0.5v-11c0-0.277 0.223-0.5 0.5-0.5h11c0.277 0 0.5 0.223 0.5 0.5v6.5488c0.36834 0.072905 0.70451 0.23185 1 0.44531v-7.4941c0-0.554-0.446-1-1-1h-12z" style="fill:#f1f2f2"/><path d="m4 4v2h1s0.32526 0.12154 0.75195 0.60156 0.91602 1.2031 1.416 1.9531c0.5 0.75 1.0107 1.5269 1.584 2.1719 0.35555 0.4 0.76109 0.77625 1.248 1.0176v-0.35742c0-0.62845 0.25908-1.1827 0.66211-1.6016-0.11927-0.091582-0.25502-0.2078-0.41406-0.38672-0.42669-0.48003-0.91602-1.2031-1.416-1.9531-0.5-0.75-1.0107-1.5269-1.584-2.1719s-1.248-1.2734-2.248-1.2734h-1zm5 0v2h3v-2h-3z" style="fill:#f1f2f2;paint-order:markers fill stroke"/><g transform="translate(4.8558,2.8663)"><path d="m7.6442 7.1337c-0.822 0-1.5 0.626-1.5 1.385v1.685h-0.5c-0.277 0-0.5 0.205-0.5 0.461v2.469h6v-2.469c0-0.256-0.223-0.461-0.5-0.461h-0.5v-1.685c0-0.76-0.678-1.385-1.5-1.385zm0 0.923h1c0.286 0 0.5 0.198 0.5 0.462v1.685h-2v-1.685c0-0.264 0.214-0.462 0.5-0.462z" overflow="visible" style="color:#f1f2f2;fill:#f1f2f2"/></g><g transform="translate(4.8558,2.8663)"><path d="m7.6442 7.1337c-0.822 0-1.5 0.626-1.5 1.385v1.685h-0.5c-0.277 0-0.5 0.205-0.5 0.461v2.469h6v-2.469c0-0.256-0.223-0.461-0.5-0.461h-0.5v-1.685c0-0.76-0.678-1.385-1.5-1.385zm0 0.923h1c0.286 0 0.5 0.198 0.5 0.462v1.685h-2v-1.685c0-0.264 0.214-0.462 0.5-0.462z" overflow="visible" style="color:#f1f2f2;fill:#f1f2f2"/></g></svg>
