<svg version="1.1" viewBox="0 0 16 16" xmlns="http://www.w3.org/2000/svg"><path d="m2 1c-0.554 0-1 0.446-1 1v12c0 0.554 0.446 1 1 1h9v-1h-8.5c-0.277 0-0.5-0.223-0.5-0.5v-11c0-0.277 0.223-0.5 0.5-0.5h11c0.277 0 0.5 0.223 0.5 0.5v7.5h1v-8c0-0.554-0.446-1-1-1h-12z" style="fill:#f1f2f2"/><path d="m11 4c-1 0-1.6747 0.62846-2.248 1.2734-0.57331 0.64497-1.084 1.4219-1.584 2.1719-0.5 0.75-0.98932 1.4731-1.416 1.9531s-0.75195 0.60156-0.75195 0.60156h-1v2h1c1 0 1.6747-0.62847 2.248-1.2734 0.57331-0.64497 1.084-1.4219 1.584-2.1719 0.5-0.75 0.98932-1.4731 1.416-1.9531 0.42669-0.48003 0.75195-0.60156 0.75195-0.60156h1v-2h-1zm-2 6v2h2a1.0001 1.0001 0 0 1 0.29297-0.70703l0.70703-0.70703v-0.58594h-3z" style="fill:#f1f2f2;paint-order:markers fill stroke"/><path d="m13 11-1 1v1h1v2h-1v1h4v-1h-1v-4z" style="fill:#f1f2f2"/></svg>
