<svg version="1.1" viewBox="0 0 16 16" xmlns="http://www.w3.org/2000/svg"><path d="m2 1c-0.554 0-1 0.446-1 1v12c0 0.554 0.446 1 1 1h12c0.554 0 1-0.446 1-1v-12c0-0.554-0.446-1-1-1h-12zm0.5 1h11c0.277 0 0.5 0.223 0.5 0.5v11c0 0.277-0.223 0.5-0.5 0.5h-11c-0.277 0-0.5-0.223-0.5-0.5v-11c0-0.277 0.223-0.5 0.5-0.5z" style="fill:#f1f2f2;opacity:.5"/><rect x="4" y="4" width="2" height="8" style="fill:#f1f2f2;opacity:.5;paint-order:markers fill stroke"/><rect x="10" y="4" width="2" height="8" style="fill:#f1f2f2;opacity:.5;paint-order:markers fill stroke"/><rect x="6" y="7" width="4" height="2" style="fill:#f1f2f2;opacity:.5;paint-order:markers fill stroke"/></svg>
