<svg version="1.1" viewBox="0 0 16 16" xmlns="http://www.w3.org/2000/svg"><path d="m2 1c-0.554 0-1 0.446-1 1v12c0 0.554 0.446 1 1 1h12c0.554 0 1-0.446 1-1v-12c0-0.554-0.446-1-1-1h-12zm0.5 1h11c0.277 0 0.5 0.223 0.5 0.5v11c0 0.277-0.223 0.5-0.5 0.5h-11c-0.277 0-0.5-0.223-0.5-0.5v-11c0-0.277 0.223-0.5 0.5-0.5z" style="fill:#f1f2f2;opacity:.5"/><path d="m8 4a1 1 0 0 0-1 1 1 1 0 0 0 0.013672 0.16992 3 3 0 0 0-0.30469 0.125 1 1 0 0 0-0.70898-0.29492 1 1 0 0 0-1 1 1 1 0 0 0 0.29688 0.70898 3 3 0 0 0-0.12695 0.30664 1 1 0 0 0-0.16992-0.015625 1 1 0 0 0-1 1 1 1 0 0 0 1 1 1 1 0 0 0 0.16992-0.013672 3 3 0 0 0 0.125 0.30469 1 1 0 0 0-0.29492 0.70898 1 1 0 0 0 1 1 1 1 0 0 0 0.70898-0.29688 3 3 0 0 0 0.30664 0.12695 1 1 0 0 0-0.015625 0.16992 1 1 0 0 0 1 1 1 1 0 0 0 1-1 1 1 0 0 0-0.013672-0.16992 3 3 0 0 0 0.30469-0.125 1 1 0 0 0 0.70898 0.29492 1 1 0 0 0 1-1 1 1 0 0 0-0.29688-0.70898 3 3 0 0 0 0.12695-0.30664 1 1 0 0 0 0.16992 0.015625 1 1 0 0 0 1-1 1 1 0 0 0-1-1 1 1 0 0 0-0.16992 0.013672 3 3 0 0 0-0.125-0.30469 1 1 0 0 0 0.29492-0.70898 1 1 0 0 0-1-1 1 1 0 0 0-0.70898 0.29688 3 3 0 0 0-0.30664-0.12695 1 1 0 0 0 0.015625-0.16992 1 1 0 0 0-1-1zm0 3a1 1 0 0 1 1 1 1 1 0 0 1-1 1 1 1 0 0 1-1-1 1 1 0 0 1 1-1z" style="fill:#f1f2f2;opacity:.47;paint-order:markers fill stroke"/></svg>
