<svg version="1.1" viewBox="0 0 16 16" xmlns="http://www.w3.org/2000/svg"><path d="m2 1c-0.554 0-1 0.446-1 1v12c0 0.554 0.446 1 1 1h12c0.554 0 1-0.446 1-1v-12c0-0.554-0.446-1-1-1h-12zm0.5 1h11c0.277 0 0.5 0.223 0.5 0.5v11c0 0.277-0.223 0.5-0.5 0.5h-11c-0.277 0-0.5-0.223-0.5-0.5v-11c0-0.277 0.223-0.5 0.5-0.5z" style="fill:#f1f2f2;opacity:.5"/><path d="m4 12v-2h1s0.32526-0.12154 0.75195-0.60156 0.91602-1.2031 1.416-1.9531c0.5-0.75 1.0107-1.5269 1.584-2.1719 0.57331-0.64498 1.248-1.2734 2.248-1.2734h1v2h-1s-0.32526 0.12154-0.75195 0.60156c-0.42669 0.48003-0.91602 1.2031-1.416 1.9531-0.5 0.75-1.0107 1.5269-1.584 2.1719-0.57331 0.64497-1.248 1.2734-2.248 1.2734zm5 0v-2h3v2z" style="fill:#f1f2f2;opacity:.5;paint-order:markers fill stroke"/></svg>
