<svg version="1.1" viewBox="0 0 16 16" xmlns="http://www.w3.org/2000/svg"><path d="m2 1c-0.554 0-1 0.446-1 1v12c0 0.554 0.446 1 1 1h7v-1h-6.5c-0.277 0-0.5-0.223-0.5-0.5v-11c0-0.277 0.223-0.5 0.5-0.5h11c0.277 0 0.5 0.223 0.5 0.5v6.5488c0.36834 0.072905 0.70451 0.23185 1 0.44531v-7.4941c0-0.554-0.446-1-1-1h-12z" style="fill:#f1f2f2"/><path d="m8 4a1 1 0 0 0-1 1 1 1 0 0 0 0.013672 0.16992 3 3 0 0 0-0.30469 0.125 1 1 0 0 0-0.70898-0.29492 1 1 0 0 0-1 1 1 1 0 0 0 0.29688 0.70898 3 3 0 0 0-0.12695 0.30664 1 1 0 0 0-0.16992-0.015625 1 1 0 0 0-1 1 1 1 0 0 0 1 1 1 1 0 0 0 0.16992-0.013672 3 3 0 0 0 0.125 0.30469 1 1 0 0 0-0.29492 0.70898 1 1 0 0 0 1 1 1 1 0 0 0 0.70898-0.29688 3 3 0 0 0 0.30664 0.12695 1 1 0 0 0-0.015625 0.16992 1 1 0 0 0 1 1 1 1 0 0 0 1-1 1 1 0 0 0-0.013672-0.16992 3 3 0 0 0 0.30469-0.125 1 1 0 0 0 0.70898 0.29492 1 1 0 0 0 0.041016-0.001953c0.099686-0.57903 0.41683-1.0733 0.85938-1.4277a1 1 0 0 0-0.19727-0.2793 3 3 0 0 0 0.12695-0.30664 1 1 0 0 0 0.16992 0.015625 1 1 0 0 0 1-1 1 1 0 0 0-1-1 1 1 0 0 0-0.16992 0.013672 3 3 0 0 0-0.125-0.30469 1 1 0 0 0 0.29492-0.70898 1 1 0 0 0-1-1 1 1 0 0 0-0.70898 0.29688 3 3 0 0 0-0.30664-0.12695 1 1 0 0 0 0.015625-0.16992 1 1 0 0 0-1-1zm0 3a1 1 0 0 1 1 1 1 1 0 0 1-1 1 1 1 0 0 1-1-1 1 1 0 0 1 1-1z" style="fill:#f1f2f2;paint-order:markers fill stroke"/><g transform="translate(4.8558,2.8663)"><path d="m7.6442 7.1337c-0.822 0-1.5 0.626-1.5 1.385v1.685h-0.5c-0.277 0-0.5 0.205-0.5 0.461v2.469h6v-2.469c0-0.256-0.223-0.461-0.5-0.461h-0.5v-1.685c0-0.76-0.678-1.385-1.5-1.385zm0 0.923h1c0.286 0 0.5 0.198 0.5 0.462v1.685h-2v-1.685c0-0.264 0.214-0.462 0.5-0.462z" overflow="visible" style="color:#f1f2f2;fill:#f1f2f2"/></g></svg>
