<!--Part of Monotone: https://github.com/sixsixfive/Monotone, released under cc-by-sa_v4-->
<svg xmlns="http://www.w3.org/2000/svg" viewBox="0 0 16 16">
    <g color="#f1f2f2" fill="#f1f2f2">
        <path style="line-height:normal;-inkscape-font-specification:Sans;text-indent:0;text-align:start;text-decoration-line:none;text-transform:none;marker:none" d="M7.996 2.994C5.246 2.994 2.989 5.25 2.989 8c0 2.75 2.257 5.006 5.007 5.006 2.75 0 5.006-2.256 5.006-5.006 0-2.75-2.257-5.006-5.006-5.006z" font-weight="400" font-family="Sans" overflow="visible"/>
        <path d="M.563 7h.875A.56.56 0 0 1 2 7.563v.875c0 .31-.25.562-.563.562H.563A.561.561 0 0 1 0 8.437v-.874A.56.56 0 0 1 .563 7zm14 0h.874c.312 0 .563.25.563.563v.875a.56.56 0 0 1-.563.562h-.874A.561.561 0 0 1 14 8.437v-.874c0-.312.25-.563.563-.563zM9 .562v.875A.56.56 0 0 1 8.437 2h-.874A.561.561 0 0 1 7 1.437V.562A.56.56 0 0 1 7.563 0h.875C8.748 0 9 .25 9 .562zm0 14v.875c0 .312-.25.563-.563.563h-.874A.561.561 0 0 1 7 15.437v-.875A.56.56 0 0 1 7.563 14h.875a.56.56 0 0 1 .562.562zm4.966-11.114l-.619.619a.561.561 0 0 1-.795 0l-.619-.619a.561.561 0 0 1 0-.795l.619-.62c.22-.22.575-.22.795 0l.62.62c.22.22.22.575 0 .795zm-9.899 9.899l-.619.62a.561.561 0 0 1-.795 0l-.62-.62a.561.561 0 0 1 0-.795l.62-.619c.22-.22.575-.22.795 0l.619.619c.22.22.22.575 0 .795zM3.448 2.034l.619.619c.22.22.22.575 0 .795l-.619.619a.561.561 0 0 1-.795 0l-.62-.619a.561.561 0 0 1 0-.795l.62-.62c.22-.22.575-.22.795 0zm9.899 9.899l.62.619c.22.22.22.575 0 .795l-.62.62a.561.561 0 0 1-.795 0l-.619-.62a.561.561 0 0 1 0-.795l.619-.619c.22-.22.575-.22.795 0z" style="marker:none" overflow="visible"/>
    </g>
</svg>
