<!--Part of Monotone: https://github.com/sixsixfive/Monotone, released under cc-by-sa_v4-->
<svg xmlns="http://www.w3.org/2000/svg" viewBox="0 0 16 16">
    <g fill="#f1f2f2">
        <path style="line-height:normal;-inkscape-font-specification:Sans;text-indent:0;text-align:start;text-decoration-line:none;text-transform:none;marker:none" d="M7.993 1c-3.854 0-7 3.146-7 7s3.146 7 7 7c3.855 0 7-3.146 7-7s-3.145-7-7-7zm0 1.994A4.996 4.996 0 0 1 13 8a4.996 4.996 0 0 1-5.007 5.006A4.996 4.996 0 0 1 2.987 8a4.996 4.996 0 0 1 5.006-5.006z" color="#f1f2f2" font-weight="400" font-family="Sans" overflow="visible"/>
        <path style="marker:none" d="M8.007 4c-1.117 0-2.12.456-2.847 1.19a.464.464 0 0 0 .063.242c.1.167.193.332.321.462.095-.3.406-.516.777-.516a.82.82 0 0 1 .713.383c.267-.28.517-.608 1.059-.634.904-.042.993.666 1.906.853.591.12 1.125.039 1.443-.032A4.012 4.012 0 0 0 8.007 4zm-.385.423c.086-.012.165.012.204.062.052.068.007.164-.102.211-.11.048-.246.03-.298-.039-.052-.067 0-.163.11-.21a.343.343 0 0 1 .086-.024zm-.604.172a.328.328 0 0 1 .244.109c.086.113.009.273-.173.352-.183.079-.4.05-.486-.063-.087-.113-.01-.273.172-.352a.556.556 0 0 1 .141-.039c.036-.004.068-.009.102-.007zm.494.336c.06-.008.122.01.15.047.036.047-.001.115-.079.148-.077.034-.167.017-.204-.031-.037-.048-.007-.107.071-.14.02-.009.042-.021.063-.024zm.989.907c-.52-.026-.773.4-.816.782-.043.382.972.183.643.75a.896.896 0 0 1-.094.133c-.04.287-.314.509-.65.509a.706.706 0 0 1-.409-.133 1.94 1.94 0 0 0-.039.273c-.03.422.268.76.33 1.025.068-.13.13-.27.18-.43.096.397.22.653.345.907.39-.036.701-.229 1.004-.438a4.908 4.908 0 0 1-.667 1.056c.57.22 1.098.169 1.608.007-.358.298-.706.531-1.435.602.526.158 1.111.338 1.843.117-.672.387-1.377.68-2.196.657l.808-.007-1.624.07-.847-.156.032-.376c-.354.04-.748-.158-1.13-.281.343-.152.711-.271.942-.563-.402-.079-.618-.343-.887-.555-.175.212-.306.411-.525.406-.4-.008-.53-.56-.479-.883.052-.323.691-.16.683-.407a.91.91 0 0 0 .196.157c.386.223.861.127 1.059-.212.197-.338.048-.793-.338-1.016-.385-.224-.86-.128-1.058.211a.662.662 0 0 0-.007.633c-.21-.185-.565-.351-.565-.351L4.03 7.51A4 4 0 0 0 8.007 12 4.004 4.004 0 0 0 12 8.365c-.1-.288-.39-1.085-.698-1.267-.022-.012-.042-.015-.063-.024.024.057.031.116.007.157-.037.065-.127.064-.204-.007a.274.274 0 0 1-.086-.164c-.206.07-.357.303-.408.547-.077.366.44.954.44.954-.353-.001-.864.026-1.052-.477-.16-.428.158-1.044-.172-1.36 0 0-.743-.859-1.263-.884zm2.282 1.619c.016-.003.03-.001.047 0a.36.36 0 0 1 .22.109c.145.136.203.345.133.47-.07.123-.24.112-.384-.024-.145-.137-.203-.346-.134-.47a.172.172 0 0 1 .118-.086zm-4.51 1.845a.924.924 0 0 0-.227.039c-.258.078-.427.237-.565.399.372.084.725.275 1.13.164a3.332 3.332 0 0 1-.15-.586 1.045 1.045 0 0 0-.188-.016zm.761.188c.027.044.05.088.078.132a.97.97 0 0 0 .11-.093.625.625 0 0 1-.188-.04zm.36.64c-.39 0-.705.24-.705.533 0 .291.316.523.706.523.39 0 .706-.232.706-.523 0-.292-.316-.532-.706-.532zm0 .212c.234 0 .424.146.424.32 0 .175-.19.313-.423.313-.234 0-.424-.138-.424-.312 0-.175.19-.321.424-.321zm2.558.227c.073.007.104.09.07.187-.034.097-.115.164-.188.157-.073-.007-.105-.091-.07-.188.034-.097.114-.163.188-.156z" color="#000" overflow="visible" opacity=".35" fill-rule="evenodd"/>
    </g>
</svg>
