<!--Part of Monotone: https://github.com/sixsixfive/Monotone, released under cc-by-sa_v4-->
<svg xmlns="http://www.w3.org/2000/svg" viewBox="0 0 16 16">
    <g fill="#f1f2f2">
        <path d="M4.102 1c-1.662 0-3 1.338-3 3v8c0 1.662 1.338 3 3 3h8c1.662 0 3-1.338 3-3V4c0-1.662-1.338-3-3-3h-8zm.47 1h6.856A2.567 2.567 0 0 1 14 4.572v6.856A2.568 2.568 0 0 1 11.428 14H4.572A2.567 2.567 0 0 1 2 11.428V4.572A2.567 2.567 0 0 1 4.572 2z"/>
        <path d="M7.102 1v2.102a5 5 0 0 0-3.895 3.9h1.027a4 4 0 0 1 3.801-3h.067a4 4 0 0 1 3.869 3H13A5 5 0 0 0 9.1 3.112v-2.11zm1 4a3 3 0 0 0-3 3 3 3 0 0 0 .04.5h4.895A2 2 0 0 1 8.102 10a2 2 0 0 1-1.32-.5H5.507A3 3 0 0 0 8.102 11a3 3 0 0 0 3-3 3 3 0 0 0-.041-.5H6.166A2 2 0 0 1 8.102 6a2 2 0 0 1 1.32.5h1.273A3 3 0 0 0 8.101 5zM3.203 9a5 5 0 0 0 3.899 3.893v2.11h2V12.9a5 5 0 0 0 3.894-3.9h-1.027a4 4 0 0 1-3.8 3h-.067a4 4 0 0 1-3.87-3z"/>
    </g>
</svg>
