<?xml version="1.0" encoding="UTF-8"?>
<svg version="1.1" viewBox="0 0 16 16" xmlns="http://www.w3.org/2000/svg">
<g color="#f1f2f2" font-family="Sans" font-weight="400">
<path d="m13.906 0.969a1.048 1.048 0 0 0-0.125 0.031c-0.447 0.1-0.792 0.542-0.781 1v1.688c0 0.104-7e-3 0.153-8e-3 0.242a7.416 7.416 0 0 0-4.992-1.93c-3.3 0-6.091 2.126-7 5h2.191c0.81-1.765 2.657-3 4.809-3 1.176 0 2.253 0.378 3.127 1h-1.127c-0.524 0-1 0.476-1 1a1 1 0 0 0 0 0.219v0.781h6v-5a0.979 0.979 0 0 0 0-0.188v-0.812h-0.813a1.002 1.002 0 0 0-0.28-0.031zm-12.906 8.031v5a0.979 0.979 0 0 0 0 0.188v0.812h0.813c0.091 0.024 0.186 0.034 0.28 0.031 0.043-8e-3 0.085-0.018 0.126-0.031 0.447-0.1 0.792-0.542 0.781-1v-1.688c0-0.104 7e-3 -0.153 8e-3 -0.242a7.416 7.416 0 0 0 4.992 1.93c3.3 0 6.091-2.126 7-5h-2.191c-0.81 1.765-2.657 3-4.809 3a5.374 5.374 0 0 1-3.127-1h1.127c0.524 0 1-0.476 1-1a1 1 0 0 0 0-0.219v-0.781h-6z" fill="#f1f2f2" overflow="visible" style="text-decoration-line:none;text-indent:0;text-transform:none"/>
</g>
</svg>
