<?xml version="1.0" encoding="UTF-8" standalone="no"?>
<!--Part of Monotone: https://github.com/sixsixfive/Monotone, released under cc-by-sa_v4-->
<svg xmlns:rdf="http://www.w3.org/1999/02/22-rdf-syntax-ns#" xmlns="http://www.w3.org/2000/svg" viewBox="0 0 16 16" version="1.1" xmlns:cc="http://creativecommons.org/ns#" xmlns:dc="http://purl.org/dc/elements/1.1/">
 <metadata>
  <rdf:RDF>
   <cc:Work rdf:about="">
    <dc:format>image/svg+xml</dc:format>
    <dc:type rdf:resource="http://purl.org/dc/dcmitype/StillImage"/>
    <dc:title/>
   </cc:Work>
  </rdf:RDF>
 </metadata>
 <g fill="#f1f2f2">
  <path d="m8 2a6 6 0 0 0 -6 6 6 6 0 0 0 6 6 6 6 0 0 0 6 -6 6 6 0 0 0 -6 -6zm0 0.998c1.3093 0 2.611 0.5391 3.537 1.4649s1.465 2.2278 1.465 3.5371-0.539 2.611-1.465 3.537-2.2277 1.465-3.537 1.465-2.6113-0.539-3.5371-1.465-1.4649-2.2277-1.4649-3.537 0.5391-2.6113 1.4649-3.5371 2.2278-1.4649 3.5371-1.4649z"/>
  <circle cx="2.5" cy="8.5" r="1.5"/>
  <circle cx="11.5" cy="3.5" r="1.5"/>
  <circle cy="11.5" cx="12.5" r="1.5"/>
  <path style="color-rendering:auto;text-decoration-color:#000000;color:#000000;font-variant-numeric:normal;shape-rendering:auto;font-variant-ligatures:normal;text-decoration-line:none;font-variant-position:normal;mix-blend-mode:normal;solid-color:#000000;font-feature-settings:normal;shape-padding:0;font-variant-alternates:normal;text-indent:0;dominant-baseline:auto;font-variant-caps:normal;image-rendering:auto;white-space:normal;text-decoration-style:solid;text-orientation:mixed;isolation:auto;text-transform:none" d="m10.795 3.0098-2.7091 3.8476-6.0918 0.6309 0.1543 1.4922 6.7715-0.7012 3.1011-4.4063z"/>
  <path style="color-rendering:auto;text-decoration-color:#000000;color:#000000;font-variant-numeric:normal;shape-rendering:auto;font-variant-ligatures:normal;text-decoration-line:none;font-variant-position:normal;mix-blend-mode:normal;solid-color:#000000;font-feature-settings:normal;shape-padding:0;font-variant-alternates:normal;text-indent:0;dominant-baseline:auto;font-variant-caps:normal;image-rendering:auto;white-space:normal;text-decoration-style:solid;text-orientation:mixed;isolation:auto;text-transform:none" d="m9.0566 7.0371-1.0586 1.0625 3.9355 3.9258 1.0586-1.0625z"/>
  <circle cx="8.5" cy="7.5" r="1.5"/>
 </g>
</svg>
