<?xml version="1.0" encoding="UTF-8" standalone="no"?>
<!--Part of Monotone: https://github.com/sixsixfive/Monotone, released under cc-by-sa_v4-->
<svg xmlns="http://www.w3.org/2000/svg" version="1.1" viewBox="0 0 16 16">
<path opacity="0.965" fill="#f1f2f2" d="m0.80078 1c-0.44183 0-0.80078 0.359-0.80078 0.8008v9.3982c0 0.442 0.35895 0.801 0.80078 0.801h4.1992v1h-1c-1 0-1 0-1 1s-0.0002 1 1.0098 1h7.9902c1 0 1 0 1-1s0-1-1-1h-1v-1h4.199c0.442 0 0.801-0.359 0.801-0.801v-9.3982c0-0.4418-0.359-0.8008-0.801-0.8008h-14.398zm6.1992 2h2v1h-2v-1zm0 2h2v4h-2v-4z"/>
</svg>
