<?xml version="1.0" encoding="UTF-8" standalone="no"?>
<!--Part of Monotone: https://github.com/sixsixfive/Monotone, released under cc-by-sa_v4-->
<svg xmlns="http://www.w3.org/2000/svg" version="1.1" viewBox="0 0 16 16">
 <g opacity=".5" fill="#f1f2f2">
  <path d="m9.0098 4.9961s-0.042 0.0036-0.0528 0.0039h-2.457c-0.0069 0-0.0127 0.0036-0.0195 0.0039h0.457s2.0732 0.041 2.0664 2.041l-0.0039 0.9551c-0.0103 1.0957-0.0018 0.878 0 3.596 0.0002 0.279 0 0.008 0 0.369 0.0217-0.538 0.4573-0.969 1-0.969h0.992v-0.988c0-0.5568 0.451-1.0079 1.008-1.008h2c0.512 0.0007 0.941 0.3844 1 0.8926v-1.8985h0.01v-0.998c0-2-2-2-2-2h-3z"/>
  <path opacity=".5" d="m2.9735 5.0039s-0.28412 0.00107-0.63691 0.10938c-0.1134 0.0348-0.2336 0.0798-0.3542 0.1406-0.4989 0.2483-1.0009 0.7472-1.0009 1.7539v0.99805h0.009679v2.998c0 0.557-0.3082 0.80116-0.58077 0.91016-0.033006 0.009-0.065771 0.0223-0.096795 0.0293-0.041134 0.013-0.082407 0.0262-0.11809 0.0332-0.10923 0.018-0.19553 0.027-0.19553 0.027v1.996l5.1011 0.002c-0.00621 0.00099-0.011165 0.005-0.017423 0.0059l3.9163-0.008c0-2-0.0000025 0.0013 0 0v-2c0-4-0.0114-2.7811 0-4l0.00322-0.9548c0.0068-2-2.0649-2.0413-2.0649-2.0413h-2.9736z" stroke-width=".99558"/>
 </g>
 <path d="m12 10.007v1.996h-2v1.997h2v1.997h2v-1.997h2v-1.997h-2v-1.996z" fill="#f1f2f2"/>
</svg>
