<?xml version="1.0" encoding="UTF-8" standalone="no"?>
<!--Part of Monotone: https://github.com/sixsixfive/Monotone, released under cc-by-sa_v4-->
<svg xmlns="http://www.w3.org/2000/svg" version="1.1" viewBox="0 0 16 16">
 <g opacity=".5" transform="translate(-31.976 -220.36)">
  <path style="" transform="translate(31.976,220.36)" d="m5.5938 1.5c-0.56 0.008-1.1066 0.3068-1.4376 0.8125l-0.0937 0.1563c-0.722-0.3642-1.6403-0.1308-2.0937 0.5624l-0.6563 1c-0.45357 0.6934-0.2791 1.6094 0.3437 2.125l-0.125 0.1876c-0.5292 0.809-0.309 1.8769 0.5 2.4062l6.961 4.547v-1.293a1.0079 1.0079 0 0 1 1.0078 -1.008h0.992v-0.988a1.0079 1.0079 0 0 1 1.008 -1.008h2a1.0079 1.0079 0 0 1 0.686 0.2715l0.033-0.0527c0.529-0.8092 0.309-1.9082-0.5-2.4376l-7.6252-5c-0.3036-0.1984-0.6642-0.2859-1-0.2812zm-1.5 2.3438c0.7938 0 1.4374 0.6436 1.4374 1.4374 0 0.794-0.6436 1.4376-1.4374 1.4376-0.794 0-1.4376-0.6436-1.4376-1.4376 0-0.7938 0.6436-1.4374 1.4376-1.4374z" fill="#f1f2f2"/>
 </g>
 <path d="m12 10.007v1.996h-2v1.997h2v1.997h2v-1.997h2v-1.997h-2v-1.996z" fill="#f1f2f2"/>
</svg>
