<?xml version="1.0" encoding="UTF-8"?>
<svg version="1.1" viewBox="0 0 16 16" xmlns="http://www.w3.org/2000/svg">
<g transform="translate(-30.976 -221.36)">
<path transform="translate(31.976,220.36)" d="m5.5938 1.5c-0.5599 8e-3 -1.1067 0.3068-1.4376 0.8125l-0.0937 0.1563c-0.722-0.3642-1.6402-0.1309-2.0937 0.5624l-0.6563 1c-0.45357 0.6934-0.2792 1.6094 0.3437 2.125l-0.125 0.1876c-0.5293 0.8091-0.3091 1.8769 0.5 2.4062l7.6563 5c0.8095 0.529 1.8765 0.309 2.4065-0.5l2.625-4.0312c0.529-0.8092 0.309-1.9082-0.5-2.4376l-7.6252-5c-0.3035-0.1985-0.6641-0.2859-1-0.2812zm-1.5 2.3438c0.7939 0 1.4374 0.6435 1.4374 1.4374 0 0.794-0.6435 1.4376-1.4374 1.4376-0.794 0-1.4376-0.6436-1.4376-1.4376 0-0.7939 0.6436-1.4374 1.4376-1.4374z" style="fill:#f1f2f2"/>
</g>
<path d="m1.707 3.4297c-0.29226 0.12074-0.55459 0.32074-0.73828 0.60156l-0.65625 1c-0.45357 0.6934-0.27915 1.6094 0.34375 2.125l-0.125 0.1875c-0.5293 0.8091-0.3091 1.877 0.5 2.4062l7.6562 5c0.8095 0.529 1.8762 0.309 2.4062-0.5l0.22656-0.34961c-0.5145 0.2185-1.1248 0.18162-1.6328-0.15039l-7.6562-5c-0.8091-0.5293-1.0293-1.5972-0.5-2.4062l0.125-0.1875c-0.6229-0.5156-0.79732-1.4316-0.34375-2.125l0.39453-0.60156zm1.293 0.94922c-0.12612 0.15393-0.23258 0.32417-0.28711 0.52148 0.092115-0.025449 0.18939-0.035026 0.28711-0.042969v-0.47852z" style="fill:#f1f2f2"/>
</svg>
