<?xml version="1.0" encoding="UTF-8" standalone="no"?>
<!--Part of Monotone: https://github.com/sixsixfive/Monotone, released under cc-by-sa_v4-->
<svg xmlns="http://www.w3.org/2000/svg" version="1.1" viewBox="0 0 16 16">
 <path opacity=".5" d="m1.332 1c-0.1845 0-0.332 0.1475-0.332 0.332v13.336c0 0.184 0.1475 0.332 0.332 0.332h8.5547a1.0079 1.0079 0 0 1 -0.8945 -1h-6.6602c-0.1845 0-0.332-0.148-0.332-0.332v-9.336c0-0.1845 0.1475-0.332 0.332-0.332h11.336c0.184 0 0.332 0.1475 0.332 0.332v4.668a1.0079 1.0079 0 0 1 1 0.8926v-8.5606c0-0.1845-0.148-0.332-0.332-0.332h-1.668v1.668c0 0.1845-0.148 0.332-0.332 0.332h-1.336c-0.184 0-0.332-0.1475-0.332-0.332v-1.668h-6v1.668c0 0.1845-0.1475 0.332-0.332 0.332h-1.336c-0.1845 0-0.332-0.1475-0.332-0.332v-1.668h-1.668zm3.168 4a1.5 1.5 0 0 0 -1.5 1.5 1.5 1.5 0 0 0 1.5 1.5 1.5 1.5 0 0 0 1.5 -1.5 1.5 1.5 0 0 0 -1.5 -1.5zm2.5 1v1h5v-1h-5zm-2.5 4a1.5 1.5 0 0 0 -1.5 1.5 1.5 1.5 0 0 0 1.5 1.5 1.5 1.5 0 0 0 1.5 -1.5 1.5 1.5 0 0 0 -1.5 -1.5zm2.5 1v1h1.9922a1.0079 1.0079 0 0 1 0.9394 -1h-2.9316z" fill="#f1f2f2"/>
 <path d="m12 10.007v1.996h-2v1.997h2v1.997h2v-1.997h2v-1.997h-2v-1.996z" fill="#f1f2f2"/>
</svg>
