<?xml version="1.0" encoding="UTF-8" standalone="no"?>
<!--Part of Monotone: https://github.com/sixsixfive/Monotone, released under cc-by-sa_v4-->
<svg xmlns:rdf="http://www.w3.org/1999/02/22-rdf-syntax-ns#" xmlns="http://www.w3.org/2000/svg" version="1.1" xmlns:cc="http://creativecommons.org/ns#" xmlns:dc="http://purl.org/dc/elements/1.1/" viewBox="0 0 16 16">
 <metadata>
  <rdf:RDF>
   <cc:Work rdf:about="">
    <dc:format>image/svg+xml</dc:format>
    <dc:type rdf:resource="http://purl.org/dc/dcmitype/StillImage"/>
    <dc:title/>
   </cc:Work>
  </rdf:RDF>
 </metadata>
 <path opacity=".5" fill="#f1f2f2" d="m1.332 1c-0.1845 0-0.332 0.1475-0.332 0.332v13.336c0 0.184 0.1475 0.332 0.332 0.332h8.668v-0.406a1.0001 1.0001 0 0 1 0.197 -0.594h-7.865c-0.1845 0-0.332-0.148-0.332-0.332v-9.336c0-0.1845 0.1475-0.332 0.332-0.332h11.336c0.184 0 0.332 0.1475 0.332 0.332v5.863a1.0001 1.0001 0 0 1 0.592 -0.195h0.408v-8.668c0-0.1845-0.148-0.332-0.332-0.332h-1.668v1.668c0 0.1845-0.148 0.332-0.332 0.332h-1.336c-0.184 0-0.332-0.1475-0.332-0.332v-1.668h-6v1.668c0 0.1845-0.1475 0.332-0.332 0.332h-1.336c-0.1845 0-0.332-0.1475-0.332-0.332v-1.668h-1.668zm3.168 4a1.5 1.5 0 0 0 -1.5 1.5 1.5 1.5 0 0 0 1.5 1.5 1.5 1.5 0 0 0 1.5 -1.5 1.5 1.5 0 0 0 -1.5 -1.5zm2.5 1v1h5v-1h-5zm-2.5 4a1.5 1.5 0 0 0 -1.5 1.5 1.5 1.5 0 0 0 1.5 1.5 1.5 1.5 0 0 0 1.5 -1.5 1.5 1.5 0 0 0 -1.5 -1.5zm2.5 1v1h3v-1h-3z"/>
 <path style="color:#f1f2f2" fill="#f1f2f2" overflow="visible" d="m11 11h1.375l1.125 1.094 1.094-1.094h1.406v1.469l-1.094 1.062 1.094 1.063v1.406h-1.438l-1.062-1.063-1.063 1.063h-1.437v-1.406l1.063-1.063-1.063-1.061z"/>
</svg>
