<?xml version="1.0" encoding="UTF-8" standalone="no"?>
<!--Part of Monotone: https://github.com/sixsixfive/Monotone, released under cc-by-sa_v4-->
<svg xmlns="http://www.w3.org/2000/svg" version="1.1" viewBox="0 0 16 16">
 <path opacity=".5" fill="#f1f2f2" d="m1.332 1c-0.1845 0-0.332 0.1475-0.332 0.332v13.336c0 0.184 0.1475 0.332 0.332 0.332h5.668v-1h-4.668c-0.1845 0-0.332-0.148-0.332-0.332v-9.336c0-0.1845 0.1475-0.332 0.332-0.332h11.336c0.184 0 0.332 0.1475 0.332 0.332v2.668h1v-5.668c0-0.1845-0.148-0.332-0.332-0.332h-1.668v1.668c0 0.1845-0.148 0.332-0.332 0.332h-1.336c-0.184 0-0.332-0.1475-0.332-0.332v-1.668h-6v1.668c0 0.1845-0.1475 0.332-0.332 0.332h-1.336c-0.1845 0-0.332-0.1475-0.332-0.332v-1.668h-1.668zm3.168 4a1.5 1.5 0 0 0 -1.5 1.5 1.5 1.5 0 0 0 1.5 1.5 1.5 1.5 0 0 0 1.5 -1.5 1.5 1.5 0 0 0 -1.5 -1.5zm2.5 1v1h1 4v-1h-5zm-2.5 4a1.5 1.5 0 0 0 -1.5 1.5 1.5 1.5 0 0 0 1.5 1.5 1.5 1.5 0 0 0 1.5 -1.5 1.5 1.5 0 0 0 -1.5 -1.5z"/>
 <path d="m8.875 16a0.863 0.863 0 0 1 -0.875 -0.875v-6.25c0-0.492 0.383-0.875 0.875-0.875h6.25a0.863 0.863 0 0 1 0.875 0.875v6.25a0.863 0.863 0 0 1 -0.875 0.875zm2.125-1h2v-1h-2zm0-2h2v-4h-2z" fill="#f1f2f2"/>
</svg>
