<?xml version="1.0" encoding="UTF-8" standalone="no"?>
<!--Part of Monotone: https://github.com/sixsixfive/Monotone, released under cc-by-sa_v4-->
<svg id="svg10" xmlns="http://www.w3.org/2000/svg" version="1.1" viewBox="0 0 16 16"><g id="g8" fill="#f1f2f2"><path id="path2" style="stroke-width:1.0003;fill:#f1f2f2" d="m3.625 2c-1.454 0-2.625 1.0392-2.625 2.4941v7.8789c-0.00277 1.452 1.1741 2.63 2.625 2.627h8.75c1.451 0.003 2.628-1.175 2.625-2.627v-7.8789c0-1.4549-1.17-2.4941-2.625-2.4941h-8.75zm1.0742 2h6.6018c0.942 0 1.699 0.7574 1.699 1.6992v5.6018c0 0.942-0.757 1.699-1.699 1.699h-6.6018c-0.9418 0-1.6992-0.757-1.6992-1.699v-5.6018c0-0.9418 0.7574-1.6992 1.6992-1.6992z"/><rect id="rect825" style="fill:#f1f2f2" height="1" width="6" y="8" x="5"/><rect id="rect827" style="fill:#f1f2f2" height="1" width="6" y="10" x="5"/><rect id="rect831" style="fill:#f1f2f2" height="1" width="6" y="6" x="5"/></g></svg>
