<?xml version="1.0" encoding="UTF-8"?>
<svg version="1.1" viewBox="0 0 16 16" xmlns="http://www.w3.org/2000/svg">
<g id="show-path-outline" transform="translate(-799 -558.36)">
<g id="path-clip-edit" transform="translate(-30.024 .05348)">
<path transform="translate(829.02 558.31)" d="m1.5 12a1.5 1.5 0 0 0-1.5 1.5 1.5 1.5 0 0 0 1.5 1.5 1.5 1.5 0 0 0 1.416-1.0117h7.168a1.5 1.5 0 0 0 1.416 1.0117 1.5 1.5 0 0 0 1.5-1.5 1.5 1.5 0 0 0-1.5-1.5 1.5 1.5 0 0 0-1.416 1.0117h-7.168a1.5 1.5 0 0 0-1.416-1.0117z" style="fill:#f1f2f2;opacity:.5;stroke-width:1.5"/>
<path d="m839.02 561.31v1.997h6v-1.997c-6-3e-3 -1.1564 0-6 0z" style="fill:#f1f2f2"/>
<path d="m832.02 560.31v2h3.0005c0.428 0 1 0.613 1 1v1h-2.0005c-0.92 0-1.735 0.383-2.25 0.968-0.49267 0.56089-0.75989 1.2845-0.75 2.031 6e-3 0.72 0.27 1.453 0.781 2.032 0.51299 0.578 1.31 0.968 2.22 0.968h4.0005v-7c0-1.6569-1.3431-3-3-3zm2 6h2.0005v2h-2.0005c-0.39801 0-0.56701-0.11-0.71901-0.282-0.17378-0.20001-0.27275-0.45414-0.28-0.719-4e-3 -0.2613 0.0847-0.51556 0.25-0.718 0.144-0.166 0.327-0.282 0.75-0.282z" overflow="visible" style="fill:#f1f2f2;opacity:.5;text-decoration-line:none;text-indent:0;text-transform:none"/>
</g>
</g>
</svg>
