<?xml version="1.0" encoding="UTF-8"?>
<!--Part of Monotone: https://github.com/sixsixfive/Monotone, released under cc-by-sa_v4-->
<svg version="1.1" viewBox="0 0 16 16" xmlns="http://www.w3.org/2000/svg" xmlns:osb="http://www.openswatchbook.org/uri/2009/osb" xmlns:xlink="http://www.w3.org/1999/xlink">
<defs>
<linearGradient id="linearGradient19282" gradientTransform="matrix(1.1667 0 0 1 627.67 1787.4)" osb:paint="solid">
<stop stop-color="#f1f2f2" offset="0"/>
</linearGradient>
<linearGradient id="linearGradient4631" gradientTransform="matrix(1.1711 0 0 1 207.81 3324.4)" gradientUnits="userSpaceOnUse" xlink:href="#linearGradient19282"/>
</defs>
<g id="text_letter_spacing" transform="matrix(.99946 0 0 1 -348.81 -836.36)" fill="url(#linearGradient4631)" stroke-width="1.0003">
<path d="m352 842.36c-0.55431 0-1.0006 0.446-1.0006 1v4h1.0006v-3c0-0.554 0.44624-1 1.0005-1s1.0005 0.446 1.0005 1v3h1.0006v-4c0-0.554-0.44625-1-1.0006-1z"/>
<path d="m359.01 838.36-1.0005 1v6.5c0 0.7683 0.56981 1.378 1.3132 1.4687 0.0599 0.0252 0.11827 0.0313 0.1876 0.0313 0.16169 0 0.39102 1e-4 0.50027 0v-1h-0.50027c-0.27715 0-0.50027-0.223-0.50027-0.5v-5.5c0-0.1488-0.04-1.8644 0-2z"/>
<rect x="357" y="840.36" width="3.0016" height="1" rx="0" ry=".5"/>
<rect x="349" y="842.36" width="1.0005" height="5" ry=".5"/>
<rect x="349" y="840.36" width="1.0005" height="1" ry="0"/>
<path d="m362.01 838.36-1.0005 1v8.0001h1.0005v-7c0-0.1489-0.04-1.8645 0-2.0001z"/>
<path d="m362.01 842.36c-0.5543 0-1.0005 0.446-1.0005 1v4h1.0005v-3c0-0.554 0.44624-1 1.0006-1 0.5543 0 1.0005 0.446 1.0005 1v3h1.0005v-4c0-0.554-0.44624-1-1.0005-1z"/>
</g>
</svg>
