<?xml version="1.0" encoding="UTF-8"?>
<svg version="1.1" viewBox="0 0 16 16" xmlns="http://www.w3.org/2000/svg">
<path d="m9 2c-2.7614 0-5 2.2386-5 5-0.03892 2.066 1.9222 3.066 3 4 1.5115 1.3098 1 4 4.5 4 1.1864-2e-3 2.208-0.83756 2.4453-2h-1.0742c-0.21024 0.58036-0.73635 0.98445-1.3711 0.98633-1.4901 0-1.7322-0.35677-2.125-1.0156s-0.65258-1.8212-1.7109-2.7383c-0.63363-0.54907-1.3507-1.0068-1.8633-1.5234-0.51259-0.51661-0.80047-0.98037-0.78711-1.6895a1.0147 1.0147 0 0 0 0-0.019531c0-2.2131 1.7732-3.9863 3.9863-3.9863s3.9863 1.7732 3.9863 3.9863h1.0137c0-2.7614-2.2386-5-5-5z" style="fill-opacity:.99774;fill:#f1f2f2;paint-order:markers fill stroke"/>
<path d="m4 2.1035a7 7 0 0 0-2 4.8965 7 7 0 0 0 2 4.8887v-1.5781a6 6 0 0 1-1-3.3105 6 6 0 0 1 1-3.3086z" style="fill-opacity:.99774;fill:#f1f2f2;paint-order:markers fill stroke"/>
<circle cx="9" cy="7" r="2" style="fill-opacity:.99774;fill:#f1f2f2;paint-order:markers fill stroke;stroke-width:1.3333"/>
<rect x="13" y="7" width="1" height="3" style="fill-opacity:.99774;fill:#f1f2f2;paint-order:markers fill stroke"/>
</svg>
