<?xml version="1.0" encoding="UTF-8"?>
<!--Part of Monotone: https://github.com/sixsixfive/Monotone, released under cc-by-sa_v4-->
<svg version="1.1" viewBox="0 0 16 16" xmlns="http://www.w3.org/2000/svg">
<path d="m2.334 1c-0.739 0-1.334 0.59498-1.334 1.334v2.041l2 1.5 3.6992-2.7754a0.50078 0.50078 0 0 1 0.60156 0.80078l-4 3a0.50005 0.50005 0 0 1-0.60156 0l-1.6992-1.2754v1.75l2 1.5 3.6992-2.7754a0.50078 0.50078 0 0 1 0.60156 0.80078l-4 3a0.50005 0.50005 0 0 1-0.60156 0l-1.6992-1.2754v1.75l2 1.5 3.6992-2.7754a0.50078 0.50078 0 0 1 0.60156 0.80078l-4 3a0.50005 0.50005 0 0 1-0.60156 0l-1.6992-1.2754v2.041c0 0.739 0.59498 1.334 1.334 1.334h11.332c0.739 0 1.334-0.59498 1.334-1.334v-11.332c0-0.739-0.59498-1.334-1.334-1.334h-11.332z" style="fill:#f1f2f2"/>
</svg>
