<?xml version="1.0" encoding="UTF-8" standalone="no"?>
<!--Part of Monotone: https://github.com/sixsixfive/Monotone, released under cc-by-sa_v4-->
<svg xmlns="http://www.w3.org/2000/svg" xmlns:osb="http://www.openswatchbook.org/uri/2009/osb" version="1.1" xmlns:xlink="http://www.w3.org/1999/xlink" viewBox="0 0 16 16">
 <g fill="#f1f2f2">
  <path d="m3 1 3 3 3-3z"/>
  <path d="m3 15 3-3 3 3z"/>
  <path d="m1 5v6h14v-6zm1 1h12v4h-12v-4z"/>
  <rect opacity=".3" height="4" width="3" y="6" x="6"/>
  <rect opacity=".3" height="1" width="1" y="7" x="5"/>
  <rect opacity=".3" height="1" width="1" y="9" x="5"/>
  <rect height="4" width="1.9999" y="6" x="12"/>
  <rect height="1" width="1" y="8" x="11"/>
  <rect height="1" width="1" y="6" x="11"/>
  <rect opacity=".3" height="1" width="1" y="8" x="4"/>
  <rect opacity=".3" height="1" width="1" y="6" x="4"/>
  <rect transform="scale(1,-1)" height="1" width="1" y="-10" x="10"/>
  <rect transform="scale(1,-1)" height="1" width="1" y="-8" x="10"/>
  <rect transform="scale(1,-1)" height="1" width="1" y="-7" x="9"/>
  <rect transform="scale(1,-1)" height="1" width="1" y="-9" x="9"/>
 </g>
</svg>
