<?xml version="1.0" encoding="UTF-8" standalone="no"?>
<!--Part of Monotone: https://github.com/sixsixfive/Monotone, released under cc-by-sa_v4-->
<svg xmlns="http://www.w3.org/2000/svg" xmlns:osb="http://www.openswatchbook.org/uri/2009/osb" version="1.1" xmlns:xlink="http://www.w3.org/1999/xlink" viewBox="0 0 16 16">
 <path d="m8.4362 1.4809c-0.2156 0.179-0.4075 0.4084-0.5436 0.6759l-4.6579 9.1236c-0.5447 1.0695-0.10799 2.3889 0.96718 2.9607l0.94561 0.49718c1.0752 0.57178 2.3723 0.17678 2.917-0.89274l4.6575-9.1231c0.545-1.0695 0.108-2.3889-0.967-2.9607l-0.945-0.4972c-0.807-0.42882-1.7268-0.32024-2.3738 0.2169zm-1.4706 4.4653c0.3296-0.2454 0.8108-0.1824 1.0624 0.139 0.2517 0.3214 0.1872 0.7905-0.1425 1.036-0.3297 0.2453-0.8108 0.1824-1.0625-0.139-0.2517-0.3215-0.1871-0.7906 0.1426-1.036zm-0.9934 1.9793c0.3296-0.2455 0.8108-0.1825 1.0624 0.1389 0.2517 0.3215 0.1872 0.7906-0.1425 1.036s-0.8108 0.1824-1.0625-0.139-0.1871-0.7905 0.1426-1.0359zm3.0233-1.0107c0.3297-0.2454 0.8108-0.1825 1.0625 0.139 0.252 0.3214 0.187 0.7905-0.1425 1.0359-0.3297 0.2454-0.8108 0.1825-1.0625-0.139-0.2517-0.3214-0.1872-0.7905 0.1425-1.0359zm-0.9934 1.9792c0.3297-0.2454 0.8108-0.1824 1.0625 0.139s0.1872 0.7905-0.1425 1.036c-0.3297 0.245-0.8108 0.182-1.0625-0.139-0.2517-0.3215-0.1872-0.7906 0.1425-1.036z" fill="#f1f2f2"/>
 <path opacity=".6" d="m3.5938 3c-0.8401-0.0351-1.6088 0.4356-1.9688 1.2812l-0.4375 1c-0.48004 1.1276 0.00039 2.4705 1.0938 3l0.8749 0.4063 2.4376-4.9063-1.1563-0.5624c-0.2733-0.1324-0.5637-0.2074-0.8437-0.2188zm9.2812 4.2812-2.469 4.9068 1.219 0.593c1.0934 0.52945 2.3325 0.06503 2.8125-1.0625l0.4375-1c0.48005-1.1275-0.00038-2.4706-1.0938-3z" fill="#f1f2f2"/>
</svg>
