<?xml version="1.0" encoding="UTF-8" standalone="no"?>
<!--Part of Monotone: https://github.com/sixsixfive/Monotone, released under cc-by-sa_v4-->
<svg xmlns="http://www.w3.org/2000/svg" version="1.1" viewBox="0 0 16 16">
 <g id="tools" transform="translate(65.826 -186.43)">
  <g id="gimp-tool-free-select" transform="translate(-106.83 -70.575)" fill="#f1f2f2">
   <path d="m50.1 258c-0.45992-0.004-0.95344 0.0268-1.4365 0.0849-3.8648 0.46516-6.8363 2.8208-6.655 5.2663 0.18125 2.4455 3.4352 4.0327 7.3 3.5675 3.8648-0.46516 6.8656-2.8208 6.6843-5.2663-0.1586-2.1398-2.6733-3.6234-5.8928-3.6525zm-0.1759 1.359c1.2941 0.0103 2.4356 0.28273 3.2835 0.73615 0.84789 0.45343 1.4021 1.0878 1.4659 1.8404 0.14571 1.7202-2.258 3.3819-5.3651 3.7091s-5.7471-0.79971-5.8928-2.5199c-0.14571-1.7202 2.258-3.3819 5.3651-3.7091 0.38838-0.0409 0.77363-0.0595 1.1434-0.0566z"/>
   <path d="m45 264c-1.1046 0-2 0.89543-2 2s0.89543 2 2 2 2-0.89543 2-2-0.89543-2-2-2zm0 1c0.55228 0 1 0.44772 1 1s-0.44772 1-1 1-1-0.44772-1-1 0.44772-1 1-1z"/>
   <path d="m45.003 266s4.8184 2.5-0.03442 6h2.2371c4.0268-2.9693 0.0172-6 0.0172-6z"/>
  </g>
 </g>
</svg>
