<?xml version="1.0" encoding="UTF-8"?>
<svg version="1.1" viewBox="0 0 16 16" xmlns="http://www.w3.org/2000/svg">
<path d="m9 10v5h4c0.554 0 1-0.446 1-1v-1c0-0.18637-0.064267-0.35094-0.15234-0.5 0.088077-0.14906 0.15234-0.31363 0.15234-0.5v-1c0-0.554-0.446-1-1-1h-2zm2 1h1.5c0.277 0 0.5 0.223 0.5 0.5s-0.223 0.5-0.5 0.5h-1.5zm0 2h1.5c0.277 0 0.5 0.223 0.5 0.5s-0.223 0.5-0.5 0.5h-1.5078c0.0012-0.014195 0.007812-0.0265 0.007812-0.041016z" style="fill-opacity:.99774;fill:#f1f2f2;paint-order:markers fill stroke"/>
<path d="m8 7h1v-2c0-0.4458-0.129-0.7928-1-0.9316v-1.0684c2.7523 0.20691 3 1.3305 3 2.5488v1.4512l1 0.0254-1 1.9746h-2z" style="fill-rule:evenodd;fill:#f1f2f2"/>
<path d="m3 3-1 6h2v-2h1v2h2l-1-6zm1 1h1v2h-1z" style="fill:#f1f2f2"/>
</svg>
