<?xml version="1.0" encoding="UTF-8" standalone="no"?>
<!--Part of Monotone: https://github.com/sixsixfive/Monotone, released under cc-by-sa_v4-->
<svg xmlns="http://www.w3.org/2000/svg" xmlns:osb="http://www.openswatchbook.org/uri/2009/osb" version="1.1" xmlns:xlink="http://www.w3.org/1999/xlink" viewBox="0 0 16 16">
 <g fill="#f1f2f2">
  <g transform="matrix(.65757 0 0 .65757 .99120 -676.63)"></g>
  <g>
   <path d="m0.98865 2.9531 0.01175 10.047h4.0996a2.5 2.5 0 0 1 2.3594 -1.998 2.5 2.5 0 0 1 2.5371 1.998h5.0039l-3.318-8.2754a2.5 2.5 0 0 1 -1.047 0.2734 2.5 2.5 0 0 1 -2.5331 -1.9785l-2.1074-0.0195a2.5 2.5 0 0 1 -2.3594 1.998 2.5 2.5 0 0 1 -2.5449 -2.0449z"/>
   <path d="m9.0463 13.448a1.5 1.5 0 0 1 -1.4466 1.551 1.5 1.5 0 0 1 -1.5515 -1.446 1.5 1.5 0 0 1 1.4462 -1.552 1.5 1.5 0 0 1 1.5519 1.446l-1.4991 0.053z"/>
   <path d="m5.0463 2.4477a1.5 1.5 0 0 1 -1.4466 1.5514 1.5 1.5 0 0 1 -1.5515 -1.4465 1.5 1.5 0 0 1 1.4462 -1.5517 1.5 1.5 0 0 1 1.5519 1.4461l-1.4991 0.053z"/>
   <path d="m12.046 2.4477a1.5 1.5 0 0 1 -1.446 1.5514 1.5 1.5 0 0 1 -1.5518 -1.4465 1.5 1.5 0 0 1 1.4458 -1.5517 1.5 1.5 0 0 1 1.552 1.4461l-1.499 0.053z"/>
  </g>
 </g>
</svg>
