<?xml version="1.0" encoding="UTF-8" standalone="no"?>
<!--Part of Monotone: https://github.com/sixsixfive/Monotone, released under cc-by-sa_v4-->
<svg xmlns="http://www.w3.org/2000/svg" xmlns:osb="http://www.openswatchbook.org/uri/2009/osb" version="1.1" xmlns:xlink="http://www.w3.org/1999/xlink" viewBox="0 0 16 16">
 <path fill="#f1f2f2" d="m1 1v14h14v-14zm1 1h12v12h-12z"/>
 <path style="color:#000000;text-indent:0;text-decoration-line:none;text-transform:none" d="m14.375 3.25c-1.062 3.6239-2.065 5.5012-2.813 6.2188-0.373 0.3587-0.646 0.4252-0.906 0.4062s-0.563-0.1818-0.906-0.4688c-0.6857-0.5739-1.4004-1.6183-2.1562-2.5-0.378-0.4408-0.7768-0.8453-1.2188-1.125-0.442-0.2796-0.992-0.4297-1.5312-0.25-0.8565 0.2855-1.4363 1.0214-1.875 1.875-0.4388 0.8537-0.7559 1.8429-0.9688 2.8128-0.42582 1.9393-0.5 3.75-0.5 3.75l1 0.0625s0.0654-1.7567 0.46875-3.5938c0.20168-0.91853 0.4997-1.8636 0.875-2.5938 0.3753-0.73019 0.8273-1.2133 1.3125-1.375 0.21074-0.0702 0.39876-0.0265 0.6875 0.15625 0.28874 0.18272 0.61826 0.52868 0.96875 0.9375 0.70098 0.81763 1.4485 1.9019 2.3125 2.625 0.43198 0.36155 0.90537 0.64634 1.4688 0.6875 0.56338 0.0412 1.1409-0.19294 1.6562-0.6875 0.926-0.8896 1.8-2.6459 2.75-5.6568v-1.0937z" fill="#f1f2f2"/>
</svg>
