<?xml version="1.0" encoding="UTF-8"?>
<svg version="1.1" viewBox="0 0 16 16" xmlns="http://www.w3.org/2000/svg">
<path d="m7 4c0 2 0.01303 2.7191-1.916 3.4395-1.5004 0.56027-2.084 1.5605-2.084 1.5605h0.015625a6 4.5 0 0 0-1.0156 2.5 6 4.5 0 0 0 6 4.5 6 4.5 0 0 0 6-4.5 6 4.5 0 0 0-1.0176-2.5h0.017578c-0.34408-0.63637-1-0.99921-2-1.5859-1-0.87285-1-1.4141-1-2.4141l-3-1zm1 4a5 3.5 0 0 1 5 3.5 5 3.5 0 0 1-5 3.5 1 1.5 0 0 1-1-1.5 1 1.5 0 0 1 1-1.5 1 1.5 0 0 1 1 1.5 1 1.5 0 0 1-0.92969 1.4961 2 2 0 0 0 1.9297-1.9961 2 2 0 0 0-2-2 2 2 0 0 0-2 2 2 2 0 0 0 1.8594 1.9941 5 3.5 0 0 1-0.1582-0.00586 5 3.5 0 0 1-4.7012-3.4883 5 3.5 0 0 1 5-3.5z" style="fill:#f1f2f2;paint-order:markers fill stroke"/>
<path d="m7.7012 14.988a3 2.5 0 0 1-2.7012-2.4883 3 2.5 0 0 1 3-2.5 3 2.5 0 0 1 3 2.5 3 2.5 0 0 1-2.7871 2.4941 4 3 0 0 0 3.7871-2.9941 4 3 0 0 0-4-3 4 3 0 0 0-4 3 4 3 0 0 0 3.7012 2.9883z" style="fill:#f1f2f2;paint-order:markers fill stroke"/>
<path d="m10.465 2.4413c-1.0652 1.4396-0.10632 1.7735 0.93014 1.4396 1.7349-0.51689 2.0593-1.7555 2.6048-2.8809-1.314 0.10215-2.6168 0.23543-3.5349 1.4413z" style="fill:#f1f2f2"/>
<path d="m8.675 1.8964c0.74439 1.0193 0.0743 1.2557-0.65002 1.0193-1.2124-0.36597-1.4391-1.2429-1.8203-2.0397 0.91826 0.072325 1.8287 0.16669 2.4704 1.0204z" style="fill:#f1f2f2"/>
</svg>
