<?xml version="1.0" encoding="UTF-8"?>
<svg version="1.1" viewBox="0 0 16 16" xmlns="http://www.w3.org/2000/svg">
<g fill="#f1f2f2">
<g transform="translate(0,-1)">
<path transform="translate(0,1)" d="m1.9238 2c-0.51138 0-0.92383 0.41244-0.92383 0.92383v10.152c0 0.51138 0.41244 0.92383 0.92383 0.92383h12.152c0.51138 0 0.92383-0.41244 0.92383-0.92383v-10.152c0-0.51138-0.41244-0.92383-0.92383-0.92383h-12.152zm3.0762 3.0254v1.9883l2-0.0058594v-0.0078125l1 0.0039062 1-0.0039062v0.0078125l2 0.0058594v-1.9883l3 2.9746-3 3.0195v-2.0059l-3-0.0097657-3 0.0097657v2.0059l-3-3.0195 3-2.9746z" style="fill:#f1f2f2;paint-order:markers fill stroke"/>
</g>
</g>
</svg>
