<?xml version="1.0" encoding="UTF-8"?>
<svg version="1.1" viewBox="0 0 16 16" xmlns="http://www.w3.org/2000/svg">
<path d="m2 1v12.777c0 0.67711 0.54551 1.2227 1.2227 1.2227h9.5547c0.67711 0 1.2227-0.5455 1.2227-1.2227v-12.777h-8.6387zm5 1c1.1046 0 2 0.89543 2 2-6.285e-4 0.029973-0.00193 0.059929-0.00391 0.089844 0.16158-0.058597 0.33203-0.088987 0.50391-0.089844 0.82843 0 1.5 0.67157 1.5 1.5s-0.67157 1.5-1.5 1.5c-0.74335-7.642e-4 -1.374-0.54584-1.4824-1.2812-0.30788 0.1832-0.65932 0.28033-1.0176 0.28125-1.1046 0-2-0.89543-2-2s0.89543-2 2-2zm-1 6h5c0.06195 0.88751 0.45974 3.1376 0.79521 3.8233l-1.7952 1.1767c-0.70685-1.6723-0.89875-1.9209-1-3-0.33696 0.9238-0.25599 2.4096-2 4 0 0-0.11746-0.078957-2-1.0234 1.1481-1.9034 1.2226-2.9358 1-4.9766z" style="fill:#f1f2f2;paint-order:markers fill stroke"/>
</svg>
