<?xml version="1.0" encoding="UTF-8" standalone="no"?>
<!--Part of Monotone: https://github.com/sixsixfive/Monotone, released under cc-by-sa_v4-->
<svg xmlns="http://www.w3.org/2000/svg" version="1.1" viewBox="0 0 16 16">
 <path d="m8 1c-2.7614 0-5 2.2386-5 5 0 5.437-1.4877 6.023-2 9h4c0.28384-1.7207 1.0131-2.9983 3-3 1.9869 0.0017 2.7162 1.2793 3 3h4c-0.512-2.977-2-3.563-2-9 0-2.7614-2.239-5-5-5zm-2 3c0.5523 0 1 0.6716 1 1.5s-0.4477 1.5-1 1.5-1-0.6716-1-1.5 0.4477-1.5 1-1.5zm4 0c0.55228 0 1 0.67157 1 1.5 0 0.8284-0.448 1.5-1 1.5-0.5523 0-1-0.6716-1-1.5s0.4477-1.5 1-1.5zm-2 3 2 2-2 1-2-1z" fill="#f1f2f2"/>
 <path opacity=".2" d="m8 12c-1.9869 0.002-2.7162 1.279-3 3h6c-0.284-1.721-1.0131-2.998-3-3z" fill="#f1f2f2"/>
</svg>
