<?xml version="1.0" encoding="UTF-8" standalone="no"?>
<!--Part of Monotone: https://github.com/sixsixfive/Monotone, released under cc-by-sa_v4-->
<svg xmlns="http://www.w3.org/2000/svg" version="1" viewBox="0 0 16 16">
 <path opacity=".5" fill="#f1f2f2" d="m6 2c-2 0-2 0-2 2v6h-1v-4h-2v5c0 1 0 1 1 1h2c0 2 0 2 2 2h2.2637a4.5 4.5 0 0 1 -0.125 -0.41 4.5 4.5 0 0 1 -0.0176 -0.076 4.5 4.5 0 0 1 -0.0664 -0.346 4.5 4.5 0 0 1 -0.0176 -0.145 4.5 4.5 0 0 1 -0.0293 -0.296 4.5 4.5 0 0 1 -0.0078 -0.227 4.5 4.5 0 0 1 0.0234 -0.449 4.5 4.5 0 0 1 0.2403 -1.051h-1.2637v-6h8v-3h-9zm5 5v1.2637a4.5 4.5 0 0 1 0.41 -0.125 4.5 4.5 0 0 1 0.076 -0.0176 4.5 4.5 0 0 1 0.346 -0.0664 4.5 4.5 0 0 1 0.145 -0.0176 4.5 4.5 0 0 1 0.296 -0.0293 4.5 4.5 0 0 1 0.227 -0.0078 4.5 4.5 0 0 1 1.752 0.3555 4.5 4.5 0 0 1 0.721 0.3867 4.5 4.5 0 0 1 0.027 0.0176v-0.7598c0-1 0-1-1-1h-3z"/>
 <path style="color:#f1f2f2" d="m12.5 9a3.5 3.5 0 1 0 0 7 3.5 3.5 0 0 0 0 -7zm-2.5 2.969h5v1.031h-5z" class="error" overflow="visible" fill="#f1f2f2"/>
</svg>
