<?xml version="1.0" encoding="UTF-8" standalone="no"?>
<!--Part of Monotone: https://github.com/sixsixfive/Monotone, released under cc-by-sa_v4-->
<svg id="svg4" xmlns="http://www.w3.org/2000/svg" version="1.1" viewBox="0 0 16 16"><path id="path2" style="fill:#f1f2f2" d="m2.334 1c-0.739 0-1.334 0.595-1.334 1.334v11.332c0 0.739 0.595 1.334 1.334 1.334h11.332c0.739 0 1.334-0.595 1.334-1.334v-3.604c-0.31124-0.01323-0.64927 0.05079-1.0508 0.22852-0.90848 0.40213-1.9709 1.3084-3.1152 1.9941-0.572 0.343-1.1854 0.645-1.9082 0.715-0.7229 0.07-1.5397-0.181-2.1621-0.748-1.037-0.945-1.7339-2.6077-2.3672-5.3458-0.8313-0.263-1.3963-1.0343-1.3965-1.9062 0-1.1046 0.8954-2 2-2s2 0.8954 2 2c-0.0003 0.562-0.2371 1.0979-0.6523 1.4766 0.628 2.5739 1.3123 3.8854 1.7636 4.2964 0.2704 0.247 0.3832 0.26 0.6231 0.237s0.6206-0.171 1.0722-0.442c0.9034-0.541 2.0024-1.5165 3.3324-2.1051 0.561-0.2484 1.191-0.415 1.861-0.4043v-5.7246c0-0.739-0.595-1.334-1.334-1.334z"/></svg>
