<!--Part of Monotone: https://github.com/sixsixfive/Monotone, released under cc-by-sa_v4-->
<svg xmlns="http://www.w3.org/2000/svg" viewBox="0 0 16 16">
    <g color="#f1f2f2" fill="#f1f2f2">
        <path style="line-height:normal;-inkscape-font-specification:Sans;text-indent:0;text-align:start;text-decoration-line:none;text-transform:none;marker:none" d="M1 0v13h12V0H2zm2 2h8v9H3z" font-weight="400" font-family="Sans" overflow="visible"/>
        <path style="line-height:normal;-inkscape-font-specification:Sans;text-indent:0;text-align:start;text-decoration-line:none;text-transform:none;marker:none" d="M14 3v11H4v2h12V3z" font-weight="400" font-family="Sans" overflow="visible"/>
        <path d="M8.625 4h-3.25A.374.374 0 0 0 5 4.375v1.25c0 .208.167.375.375.375h3.25A.374.374 0 0 0 9 5.625v-1.25A.374.374 0 0 0 8.625 4zm0 3h-3.25A.374.374 0 0 0 5 7.375v1.25c0 .208.167.375.375.375h3.25A.374.374 0 0 0 9 8.625v-1.25A.374.374 0 0 0 8.625 7z" style="marker:none" overflow="visible" opacity=".35"/>
    </g>
</svg>
