<!--Part of Monotone: https://github.com/sixsixfive/Monotone, released under cc-by-sa_v4-->
<svg xmlns="http://www.w3.org/2000/svg" viewBox="0 0 16 16">
    <g color="#000" fill="#f1f2f2">
        <path style="line-height:normal;-inkscape-font-specification:Sans;text-indent:0;text-align:start;text-decoration-line:none;text-transform:none;marker:none" d="M9.781 5a1 1 0 0 0-.5 1.719l2 2 .72.687.718-.687 2-2A1.016 1.016 0 1 0 13.28 5.28L12 6.562 10.718 5.28A1 1 0 0 0 9.78 5z" font-weight="400" font-family="Sans" overflow="visible"/>
        <path style="line-height:normal;-inkscape-font-specification:Sans;text-indent:0;text-align:start;text-decoration-line:none;text-transform:none;marker:none" d="M6 1C4.355 1 3 2.355 3 4v8c0 1.645 1.355 3 3 3h4v-2H6c-.571 0-1-.429-1-1V4c0-.571.429-1 1-1h4c.571 0 1 .429 1 1v4h2V4c0-1.645-1.355-3-3-3z" font-weight="400" font-family="Sans" overflow="visible"/>
        <path d="M9 6V5h1v1zm5 0V5h1v1z" style="marker:none" overflow="visible"/>
    </g>
</svg>
