<?xml version="1.0" encoding="UTF-8" standalone="no"?>
<!--Part of Monotone: https://github.com/sixsixfive/Monotone, released under cc-by-sa_v4-->
<svg xmlns="http://www.w3.org/2000/svg" version="1.1" viewBox="0 0 16 16">
 <g fill="#f1f2f2">
  <path style="color:#000000;text-decoration-line:none;text-transform:none;text-indent:0" stroke-width="1.0485" d="m8.1429 8.9109c0.328 0.072558 0.666 0.0077 1 0s0.669 0.043974 1 0c0.624-0.081352 1.196-0.5079 1.523-1.0972 0.32295-0.60207 0.4164-1.7201 0.26-2.3976-0.16137-0.67388-0.52546-1.2679-1.033-1.6853-0.508-0.4139-1.111-0.6623-1.7411-0.7168-0.9177-0.0834-1.8311 0.2086-2.565 0.8201-0.7297 0.6183-1.3232 1.5144-1.4824 2.512-0.10722 0.70019-0.043376 1.4191 0.185 2.0833 0.228 0.65961 0.71844 1.25 1.2194 1.693 0.5 0.44194 1.11 0.73437 1.744 0.83551 0.6389 0.10257 1.7471 0.04208 2.7471 0.04208v-1.0994c-0.453 0.32871-1.8571 0.20748-2.3991 0.18988-0.54663-0.01975-1.0746-0.22309-1.513-0.58266-0.4366-0.3619-0.8623-0.8622-1.0324-1.4335-0.168-0.5721-0.1726-1.1872-0.013-1.7623 0.198-0.6839 0.7063-1.2711 1.2544-1.6611 0.543-0.38807 1.2-0.57167 1.846-0.53759 0.537 0.028583 1.082 0.21218 1.483 0.60575 0.2 0.19788 0.362 0.44414 0.456 0.72118 0.095 0.27704 0.12 0.58266 0.061 0.87179-0.054 0.26385-0.18 0.9102-0.355 1.1004-0.17797 0.18999-0.40186 0.31973-0.645 0.37378v-1.5738c-0.121-0.329-0.3281-0.611-0.5951-0.8102-0.2675-0.1978-0.5825-0.3038-0.905-0.3046-0.32 0-0.64 0.10774-0.905 0.30452-0.266 0.19788-0.476 0.48372-0.595 0.81023-0.158 0.43315-0.152 1.4408 0.033 1.8608 0.186 0.42105 0.55 0.74536 0.967 0.83771zm1.036-1.0741c-0.215 0.235-0.5424 0.2934-0.814 0.1451-0.2698-0.1515-0.4218-0.4752-0.378-0.8047 0.0395-0.2783 0.2128-1.011 0.453-1.1088 0.2408-0.0957 0.5098-0.0406 0.703 0.144" letter-spacing="0" word-spacing="0" font-weight="700"/>
  <path d="m2.5 0c-0.277 0-0.5 0.223-0.5 0.5v1.5h1v-1h11v13h-11v-1h-1v1.5c0 0.277 0.223 0.5 0.5 0.5h12c0.277 0 0.5-0.223 0.5-0.5v-14c0-0.277-0.223-0.5-0.5-0.5z"/>
  <g stroke-width="1.0333">
   <path style="text-decoration-color:#000000;isolation:auto;mix-blend-mode:normal;text-indent:0;text-decoration-line:none;text-transform:none;text-decoration-style:solid" d="m1.5338 7a0.53381 0.5 0 1 0 0 1h1.9324a0.53381 0.5 0 1 0 0 -1z"/>
   <path style="text-decoration-color:#000000;isolation:auto;mix-blend-mode:normal;text-indent:0;text-decoration-line:none;text-transform:none;text-decoration-style:solid" d="m1.5338 9a0.53381 0.5 0 1 0 0 1h1.9324a0.53381 0.5 0 1 0 0 -1z"/>
   <path style="text-decoration-color:#000000;isolation:auto;mix-blend-mode:normal;text-indent:0;text-decoration-line:none;text-transform:none;text-decoration-style:solid" d="m1.5338 5a0.53381 0.5 0 1 0 0 1h1.9324a0.53381 0.5 0 1 0 0 -1z"/>
   <path style="text-decoration-color:#000000;isolation:auto;mix-blend-mode:normal;text-indent:0;text-decoration-line:none;text-transform:none;text-decoration-style:solid" d="m1.5338 3a0.53381 0.5 0 1 0 0 1h1.9324a0.53381 0.5 0 1 0 0 -1z"/>
   <path style="text-decoration-color:#000000;isolation:auto;mix-blend-mode:normal;text-indent:0;text-decoration-line:none;text-transform:none;text-decoration-style:solid" d="m1.5338 11a0.53381 0.5 0 1 0 0 1h1.9324a0.53381 0.5 0 1 0 0 -1z"/>
  </g>
 </g>
</svg>
