<?xml version="1.0" encoding="UTF-8" standalone="no"?>
<!--Part of Monotone: https://github.com/sixsixfive/Monotone, released under cc-by-sa_v4-->
<svg id="svg4" xmlns="http://www.w3.org/2000/svg" viewBox="0 0 16 16" version="1.1"><path id="rect4489" style="fill-opacity:.97034;fill:#f1f2f2" d="m3 2c-0.554 0-1 0.446-1 1v1h2v-1c0-0.554-0.446-1-1-1zm-1 7v4c0 0.554 0.446 1 1 1s1-0.446 1-1v-4z"/><path id="rect4491" style="fill:#f1f2f2;fill-opacity:.97034" d="m8 2c-0.554 0-1 0.446-1 1v1h2v-1c0-0.554-0.446-1-1-1zm-1 7v4c0 0.554 0.446 1 1 1s1-0.446 1-1v-4h-2z"/><path id="rect4493" style="fill-opacity:.97034;fill:#f1f2f2" d="m13 14c-0.554 0-1-0.446-1-1v-4h2v4c0 0.554-0.446 1-1 1zm-1-10c0-0.554 0.446-2 1-2s1 1.446 1 2z"/><rect id="rect4495" style="fill-opacity:.97034;fill:#f1f2f2" ry="1" height="3" width="4" y="5" x="1"/><rect id="rect4497" style="fill:#f1f2f2;fill-opacity:.97034" ry="1" height="3" width="4" y="5" x="6"/><rect id="rect4499" style="fill-opacity:.97034;fill:#f1f2f2" transform="scale(1,-1)" ry="1" height="3" width="4" y="-8" x="11"/></svg>
