<?xml version="1.0" encoding="UTF-8"?>
<svg version="1.1" viewBox="0 0 16 16" xmlns="http://www.w3.org/2000/svg">
<path d="m8.2804 13.993a5.636 5.636 0 0 0 0.563-0.063 6.03 6.03 0 0 0 3.968-2.343c1.982-2.642 1.424-6.425-1.217-8.407-2.642-1.98-6.425-1.422-8.406 1.22-0.123 0.17-0.19 0.382-0.188 0.593v1h1a1.024 1.024 0 0 0 0.813-0.406c1.332-1.777 3.817-2.114 5.593-0.781 1.777 1.332 2.114 3.816 0.782 5.593-1.335 1.777-3.819 2.114-5.596 0.782-0.43-0.323-0.77-0.733-1.031-1.188h1.438a1 1 0 0 0 1-1v-1h-6v6h1a1 1 0 0 0 1-1v-1.688a5.966 5.966 0 0 0 5.281 2.688z" font-weight="400" overflow="visible" style="color:#f1f2f2;fill:#f1f2f2;text-decoration-line:none;text-indent:0;text-transform:none"/>
</svg>
