<?xml version="1.0" encoding="UTF-8"?>
<svg version="1.1" viewBox="0 0 16 16" xmlns="http://www.w3.org/2000/svg">
<g transform="matrix(-1,0,0,1,16,0)" style="fill:#f1f2f2">
<g style="opacity:.5">
<path d="m14.668 1c0.1845 0 0.33203 0.14753 0.33203 0.33203v13.336c0 0.184-0.14753 0.33203-0.33203 0.33203h-9.668v-1h8.668c0.1845 0 0.33203-0.14803 0.33203-0.33203v-9.3359c0-0.1845-0.14753-0.33203-0.33203-0.33203h-11.336c-0.184 0-0.33203 0.14753-0.33203 0.33203v6.668h-1v-9.668c0-0.1845 0.14803-0.33203 0.33203-0.33203z"/>
<path transform="matrix(-1,0,0,1,16,0)" d="m10 5v8h1v-2h2v-6h-3z" style="stroke-width:1.5492"/>
</g>
</g>
<g transform="translate(18.085 4.705)" style="fill:#f1f2f2">
<path d="m-3.0847 11.295h1v-1l-3-3h-1v1z"/>
<path d="m-5.0847 11.295h-1v-1l3-3h1v1z"/>
</g>
</svg>
