<?xml version="1.0" encoding="UTF-8" standalone="no"?>
<!--Part of Monotone: https://github.com/sixsixfive/Monotone, released under cc-by-sa_v4-->
<svg id="svg30" xmlns="http://www.w3.org/2000/svg" version="1.1" viewBox="0 0 16 16"><path id="path14" style="stroke-width:.87589;fill:#f1f2f2" d="m8.2051 1.0039a7 6.9932 0 0 0 -7.2051 6.9902 7 6.9932 0 1 0 14 0 7 6.9932 0 0 0 -6.7949 -6.9902zm0.7949 1.9961a0.994 0.994 0 0 1 1 0.9941c0 0.551-0.446 1.0059-1 1.0059s-1-0.4549-1-1.0059 0.446-0.9941 1-0.9941zm-0.7129 3.002c1.3745 0.0152-0.0106-0.0023 1.3652 0.0156 0.084 0.0584 0.1334 0.2239 0.1348 0.3262-0.0026 0.0913-0.0176 0.1823-0.0449 0.2695-0.034 0.13-0.0957 0.3184-0.1817 0.6094-0.172 0.583-0.4591 1.5601-0.9531 3.2013-0.1104 0.335-0.3565 0.786 0.0899 0.687 0.0776-0.018 0.1544-0.042 0.2285-0.072 0.255-0.098 1.1742-0.287 1.7502-1.031h0.029c0.001 0-0.002-0.0119 0-0.0119h0.152c0.117-0.0008 0.151 0.0499 0.151 0.2069 0.013 1.279-0.365 1.377-1.8615 2.166-1.036 0.536-1.6184 0.631-2.0684 0.631-0.228 0-0.4379-0.118-0.5449-0.268-0.108-0.152-0.1348-0.337-0.1348-0.55 0-0.195 0.0042-0.335 0.1192-0.733 0.2489-0.818 0.5127-1.6333 0.789-2.4431 0.29-0.889 0.3477-1.0829 0.3477-1.2579 0.0092-0.0323 0.0079-0.2078-0.1074-0.1738-1.2017 0.3896-0.0172 0.0078-1.209 0.3887-0.1787 0.0573-0.3672 0.1155-0.332-0.1836l0.0449-0.627c0.0246-0.0403-0.0239-0.0985 0.0879-0.1445 0.799-0.432 1.6144-0.7638 2.1484-1.0058z"/></svg>
