<?xml version="1.0" encoding="UTF-8"?>
<!--Part of Monotone: https://github.com/sixsixfive/Monotone, released under cc-by-sa_v4-->
<svg version="1.1" viewBox="0 0 16 16" xmlns="http://www.w3.org/2000/svg">
<path d="m1.4551 1c-0.25182 0-0.45508 0.20326-0.45508 0.45508v13.09c0 0.25182 0.20326 0.45508 0.45508 0.45508h13.09c0.25182 0 0.45508-0.20326 0.45508-0.45508v-13.09c0-0.25182-0.20326-0.45508-0.45508-0.45508h-13.09zm1.4023 1h10.285c0.474 0 0.85742 0.38342 0.85742 0.85742v4.6934h-0.55859l-1.7852-3.2148a0.75 0.75 0 0 0-1.3789 0.16406l-0.50977 1.8359-1.1113-2a0.75 0.75 0 0 0-0.68359-0.38477 0.75 0.75 0 0 0-0.68945 0.53125l-1.4531 4.8008-1.1602-2.3184a0.75 0.75 0 0 0-0.66992-0.41406h-2v-3.6934c0-0.474 0.38242-0.85742 0.85742-0.85742zm5.3457 4.6113 1.1406 2.0527a0.75 0.75 0 0 0 1.3789-0.16406l0.50977-1.8359 1.1113 2a0.75 0.75 0 0 0 0.65625 0.38672h1v4.0918a0.856 0.856 0 0 1-0.85742 0.85742h-10.285a0.856 0.856 0 0 1-0.85742-0.85742v-5.0918h1.5371l1.793 3.584a0.75 0.75 0 0 0 1.3867-0.11719l1.4863-4.9062z" style="fill:#f1f2f2;font-feature-settings:normal;font-variant-alternates:normal;font-variant-caps:normal;font-variant-ligatures:normal;font-variant-numeric:normal;font-variant-position:normal;isolation:auto;mix-blend-mode:normal;shape-padding:0;text-decoration-color:#000;text-decoration-line:none;text-decoration-style:solid;text-indent:0;text-orientation:mixed;text-transform:none"/>
</svg>
