<?xml version="1.0" encoding="UTF-8" standalone="no"?>
<!--Part of Monotone: https://github.com/sixsixfive/Monotone, released under cc-by-sa_v4-->
<svg id="svg4" xmlns="http://www.w3.org/2000/svg" version="1.1" viewBox="0 0 16 16"><path id="path2" style="fill:#f1f2f2" d="m0.52148 12c0.00346 0 0.00629 0.002 0.00977 0.002h5.4688v2h-5.5312a0.464 0.464 0 0 0 -0.4688 0.469v1.06c0 0.263 0.20575 0.471 0.46875 0.471h13.06a0.464 0.464 0 0 0 0.469 -0.471v-1.06a0.464 0.464 0 0 0 -0.469 -0.469h-5.529v-2h5.469a0.525 0.525 0 0 0 0.027 -0.002h-12.975z"/><rect id="rect4494" style="fill:#f1f2f2" height="8" width="8" y="2" x="8"/><path id="rect4496" style="fill:#f1f2f2" d="m2 0v3h5v-2h3v-1h-8z"/><path id="rect4492" style="fill:#f1f2f2" d="m0 4v8h8v-1h-1v-7h-7z"/></svg>
