<?xml version="1.0" encoding="UTF-8"?>
<!--Part of Monotone: https://github.com/sixsixfive/Monotone, released under cc-by-sa_v4-->
<svg version="1.1" viewBox="0 0 16 16" xmlns="http://www.w3.org/2000/svg">
<g fill="#f1f2f2">
<path d="m8 1a7 7 0 0 0-7 7 7 7 0 0 0 0.43164 2.3926l0.92773-0.9668a5.8913 5.985 0 0 1-0.17188-1.4258 5.8913 5.985 0 0 1 5.9062-6.002v0.0019531a5.8913 5.985 0 0 1 5.9062 6 5.8913 5.985 0 0 1-5 5.9258v0.99414a7 7 0 0 0 6-6.9199 7 7 0 0 0-7-7z"/>
<path d="m8.1504 2.9609-0.57617 0.066406-0.70703 0.19922-0.13281 0.13281 0.44336 0.28711v0.17578l-0.17773 0.17773 0.18945 0.40039 0.089844-0.09375a1.0001 1.0001 0 0 1 0.26758-0.19727l0.027344-0.042969c0.296-0.091 0.5598-0.20203 0.8418-0.33203l0.2207-0.57422-0.48633-0.19922zm1.5996 0.28906-0.28125 0.0625-0.28125 0.1875v0.125l-0.375 0.28125 0.0625 0.34375 0.25-0.15625 0.15625 0.15625 0.15625 0.09375 0.09375-0.28125-0.0625-0.15625 0.0625-0.09375 0.25-0.21875h0.09375l-0.09375 0.21875v0.21875c0.096-0.026 0.18425-0.0505 0.28125-0.0625l-0.28125 0.1875v0.125l-0.3125 0.25-0.3125-0.0625v-0.18945l-0.15625 0.095703 0.0625 0.15625h-0.17969a1.0001 1.0001 0 0 1 0.11719 0.46875v0.375l0.15625-0.03125 0.15625 0.1875 0.15625 0.09375-0.09375 0.21875 0.1875-0.0625 0.0625-0.21875-0.1875-0.21875h0.0625l0.21875 0.15625 0.0625 0.25 0.15625 0.21875 0.0625-0.3125 0.09375-0.0625c0.102 0.106 0.19525 0.255 0.28125 0.375h0.3125l0.21875 0.75c-0.096 0.088-0.18325 0.164-0.28125 0.25h-0.25l-0.375-0.09375h-0.15625l-0.15625 0.1875-0.375-0.40625-0.25-0.0625-0.0625 0.0097656v2.3574l0.03125-0.023438 0.09375 0.125h0.28125l0.1875 0.15625-0.125 0.34375 0.21875 0.21875-0.03125 0.375 0.15625 0.28125-0.09375 0.25c-0.01 0.173-0.03125 0.35825-0.03125 0.53125 0.086 0.234 0.13775 0.4515 0.21875 0.6875l0.09375 0.40625v0.15625h0.125l0.25-0.125h0.25c4e-3 -3e-3 -4e-3 -0.02825 0-0.03125l0.4375-0.4375-0.0625-0.15625 0.25-0.25-0.1875-0.1875 0.25-0.21875 0.21875-0.125 0.09375-0.125-0.0625-0.25v-0.65625l0.21875-0.40625 0.1875-0.28125 0.2793-0.59375v-0.15625c-0.117 0.014-0.25905 0.02225-0.37305 0.03125l0.25-0.25 0.34375-0.25 0.1875-0.21875v-0.21875c-0.041-0.079-0.083-0.13875-0.125-0.21875l-0.15625 0.1875-0.125-0.15625-0.1875-0.125v-0.3125l0.21875 0.21875h0.21875c0.109 0.098 0.2175 0.2005 0.3125 0.3125l0.1875-0.21875c-0.356-1.326-0.82725-2.1358-1.4062-2.8438l-0.03125-0.03125a5.109 5.109 0 0 0-0.90625-0.6875l-0.15625 0.15625-0.28125-0.28125h0.21875a5.053 5.053 0 0 0-0.6875-0.3125zm-4.7188 0.65625-0.09375 0.21875s-0.1465 0.0515-0.1875 0.0625c-0.264 0.24-0.6945 0.6225-1.0625 1.1875a4.734 4.734 0 0 0-0.25 0.4375c-0.037 0.075-0.093 0.14175-0.125 0.21875-0.047 0.101-0.084 0.2035-0.125 0.3125-0.018 0.05-0.01525 0.10525-0.03125 0.15625a4.953 4.953 0 0 0-0.21875 1.25c0.056 0.09 0.125 0.21875 0.125 0.21875l0.375 0.25 0.064453 0.017578 0.48438-0.50195 0.013672-0.10742-0.125 0.029297-0.15625 0.1582-0.125 0.03125-0.1875-0.09375v-0.21875l0.03125-0.28125 0.28125-0.1875 0.21875-0.033203 0.0625-0.125 0.28125 0.0625 0.17969 0.26953 0.0097656-0.0078124 0.029297-0.41797 0.375-0.28125 0.15625-0.34375 0.28125-0.09375 0.125-0.25 0.34375-0.0625 0.1875-0.25h-0.5l0.28125-0.125h0.25l0.3125-0.125 0.0625-0.125-0.125-0.125-0.125-0.03125 0.03125-0.125-0.09375-0.1875-0.21875 0.0625 0.03125-0.1875-0.2793-0.125-0.18945 0.34375v0.15625l-0.21875 0.09375-0.125 0.28125-0.03125-0.28125-0.40625-0.15625-0.03125-0.1875 0.46875-0.25 0.21875-0.21875 0.03125-0.25-0.125-0.0625h-0.15625z"/>
</g>
<path d="m8 5v10l-2.344-2-1.34 2.7029c-0.327 0.73159-2.033 0.14335-1.548-0.8344l1.326-2.8067-3.094-0.061789z" display="block" fill="#f1f2f2" overflow="visible" stroke-width=".9943"/>
</svg>
