<?xml version="1.0" encoding="UTF-8" standalone="no"?>
<!--Part of Monotone: https://github.com/sixsixfive/Monotone, released under cc-by-sa_v4-->
<svg id="svg2" xmlns="http://www.w3.org/2000/svg" viewBox="0 0 16 16" version="1.1"><path id="rect4510" style="fill:#f1f2f2" d="m13.402 1.002c-0.133-0.00805-0.271 0.0104-0.406 0.0585l-8.998 3.2071c-0.3667 0.2082-2 0.7246-2 2.7246 0 0.5535-0.0092 0.9043-0.0156 1.3476l3.7637-1.2558c0.2546-0.0849 0.2539-0.084 0.2539-0.3028v-0.5136-0.2676-0.5c0-0.3066-0.0008-0.4991 0.5469-0.6816l7.4531-2.4844v-1.0664c-0.167-0.1496-0.371-0.2521-0.598-0.2656zm0.598 2.664l-2.689 0.8965c-0.311 0.1303-0.311 0.1073-0.311 0.4121v4.5254c0 0.277-0.223 0.5-0.5 0.5s-0.5-0.223-0.5-0.5v-4.0977c0-0.402 0.001-0.4032-0.4062-0.2675l-2.2364 0.7461c-0.3568 0.1189-0.3574 0.1191-0.3574 0.3867v0.5136 4.4868c0 0.277-0.223 0.5-0.5 0.5s-0.5-0.223-0.5-0.5v-2.5649c0-0.2114 0.0006-0.3906-0.3223-0.2617l-3.7109 1.2363c-0.0151 0.9673-0.0205 1.9363 0.0312 3.3143 0 1 1 2.502 2.9493 1.932 0.8583-0.298 0.1103 0.206 8.5777-3.063 0.381-0.147 0.473-0.078 0.475-0.371v-7.824z"/></svg>
