<?xml version="1.0" encoding="UTF-8"?>
<svg version="1.1" viewBox="0 0 16 16" xmlns="http://www.w3.org/2000/svg">
<path d="m8 0v0.0019531c-3.145-0.043-6.1623 1.9499-7.3633 4.8789v0.0019531c-0.877 2.08-0.80492 4.4719-0.044922 6.5469l0.0019531 0.001953v0.001953a0.402 0.402 0 0 0 0.017578 0.039062c0.155 0.315 0.31839 0.61958 0.40039 0.89258 0.086 0.277 0.099047 0.49905-0.0019532 0.74805v0.001953a0.402 0.402 0 0 0-0.019531 0.058594l-0.90625 2.3066c-0.07 0.282 0.18975 0.55423 0.46875 0.49023 0.81-0.188 2.0133-0.82208 2.7793-0.95508 0.296 0.01 0.5965 0.1243 0.9375 0.2793 0.347 0.157 0.73808 0.34916 1.2051 0.41016 2.268 0.554 4.81 0.37411 6.834-0.96289l0.005859-0.003907 0.007813-0.005859c2.555-1.605 4.0164-4.7186 3.6094-7.7246-0.372-3.468-3.2255-6.4082-6.6465-6.9062a8.2 8.2 0 0 0-1.2793-0.099609l-0.0058594-0.0019531zm-0.013672 0.99023c0.004562 3.153e-5 0.0091119 3.153e-5 0.013672 0 0.00195 5.79e-6 0.0039094 5.79e-6 0.0058594 0 0.37658-2.321e-4 0.753 0.029372 1.125 0.087891 0.003899 6.7e-4 0.0078087 0.0013266 0.011719 0.0019531 2.95 0.42943 5.4855 3.0391 5.8066 6.0332 0.0012 0.0091321 0.002506 0.018244 0.003906 0.027344 0.35265 2.6046-0.94488 5.3667-3.1562 6.7559-0.01121 0.00694-0.022283 0.014085-0.033203 0.021485-0.001189 8.1e-4 -0.002723 0.001135-0.003906 0.001953-1.7401 1.1476-3.9974 1.3277-6.0508 0.82617-0.03474-0.00907-0.069948-0.016285-0.10547-0.021485-0.27234-0.035574-0.55831-0.16186-0.92578-0.32812-0.37349-0.16977-0.78518-0.35132-1.3125-0.36914-0.068066-0.0018-0.13614 0.003425-0.20312 0.015625-0.5578 0.096851-1.0675 0.31109-1.5703 0.51172-0.038236 0.01526-0.057716 0.020076-0.095703 0.035156l0.41406-1.0547c0.0069107-0.018536 0.011794-0.037729 0.017578-0.05664 2.137e-4 -5.34e-4 -2.132e-4 -0.00142 0-0.001954 9.577e-4 -0.003152 0.001027-0.006603 0.0019531-0.009765l0.068359-0.35156c-7.006e-4 0.08624-0.018095 0.1709-0.041016 0.25391 0.14109-0.43877 0.10948-0.93185-0.0019531-1.293-0.12202-0.40407-0.29615-0.70918-0.4375-0.99219-0.68063-1.8624-0.73406-4.0059 0.029297-5.8164 0.00133-0.003899 0.0026263-0.0078087 0.0039062-0.011719 1.0403-2.5372 3.7164-4.3028 6.4355-4.2656zm-6.0293 12.379c-0.010398 0.032336-0.014937 0.066008-0.027344 0.097656 0.0031255-0.010672 0.0089557-0.020476 0.011719-0.03125 0.0026901-0.00713 0.0052925-0.014285 0.0078126-0.021485 0.0047483-0.014532 0.0037492-0.030207 0.0078124-0.044921z" style="fill:#f1f2f2;isolation:auto;mix-blend-mode:normal;text-decoration-color:#000;text-decoration-line:none;text-decoration-style:solid;text-indent:0;text-transform:none"/>
<path d="m4.365 4a8.258 8.258 0 0 1 0.424 8e-3c0.136 8e-3 0.318-0.055 0.498 0.41 0.185 0.478 0.628 1.653 0.684 1.773 0.055 0.12 0.091 0.258 0.017 0.418s-0.11 0.26-0.22 0.399c-0.111 0.139-0.232 0.31-0.332 0.418-0.111 0.119-0.226 0.246-0.096 0.486 0.129 0.24 0.571 1.021 1.23 1.654 0.845 0.813 1.56 1.066 1.782 1.186s0.348 0.099 0.478-0.061c0.13-0.159 0.553-0.696 0.701-0.935 0.148-0.24 0.295-0.2 0.498-0.12s1.293 0.656 1.514 0.776c0.222 0.119 0.37 0.179 0.426 0.279 0.055 0.099 0.055 0.577-0.129 1.135-0.185 0.558-1.071 1.069-1.496 1.137a2.828 2.828 0 0 1-1.395-0.096c-0.322-0.11-0.733-0.256-1.261-0.502-2.221-1.035-3.674-3.445-3.784-3.605s-0.904-1.295-0.904-2.47c0-1.176 0.572-1.752 0.775-1.991a0.788 0.788 0 0 1 0.59-0.299z" style="fill:#f1f2f2;isolation:auto;mix-blend-mode:normal;text-decoration-color:#000;text-decoration-line:none;text-decoration-style:solid;text-indent:0;text-transform:none"/>
</svg>
