<?xml version="1.0" encoding="UTF-8"?>
<svg version="1.1" viewBox="0 0 16 16" xmlns="http://www.w3.org/2000/svg">
<path d="m8 1.998c-1.5838 0-3.1241 0.63775-4.2441 1.7578-1.1201 1.1201-1.7578 2.6604-1.7578 4.2441 0.13382 2.2435 1.0569 3.6071 2.4844 4.8359 1.1384 0.75991 2.2428-0.99187 1.0664-1.6914-0.95709-0.69818-1.5352-2.1144-1.5508-3.1445-1e-7 -1.0349 0.44029-2.0985 1.1719-2.8301 0.73158-0.73158 1.7952-1.1719 2.8301-1.1719 0.30773 0 0.61463 0.051049 0.91797 0.125l2.2168-1.2324c-0.93796-0.57365-2.0241-0.89258-3.1348-0.89258zm5.1094 2.8672-1.2324 2.2168c0.07395 0.30334 0.125 0.61023 0.125 0.91797-0.13 1.427-0.69731 2.3853-1.5234 3.1465-1.1764 0.69953-0.07196 2.4513 1.0664 1.6914 1.5632-1.1083 2.4367-3.1354 2.457-4.8379 0-1.1106-0.31892-2.1968-0.89258-3.1348z" style="color-rendering:auto;color:#000000;dominant-baseline:auto;fill:#f1f2f2;font-feature-settings:normal;font-variant-alternates:normal;font-variant-caps:normal;font-variant-ligatures:normal;font-variant-numeric:normal;font-variant-position:normal;image-rendering:auto;isolation:auto;mix-blend-mode:normal;paint-order:markers fill stroke;shape-padding:0;shape-rendering:auto;solid-color:#000000;text-decoration-color:#000000;text-decoration-line:none;text-decoration-style:solid;text-indent:0;text-orientation:mixed;text-transform:none;white-space:normal"/>
<path d="m13 3-3.5611 6.41a2.0145 2.0145 0 0 1-2.8489 0 2.0145 2.0145 0 0 1 0-2.8489z" style="fill:#f1f2f2;paint-order:markers fill stroke"/>
</svg>
