<svg version="1.1" viewBox="0 0 16 16" xmlns="http://www.w3.org/2000/svg"><path d="m12.668 1c0.1845 0 0.33203 0.14753 0.33203 0.33203v3.668h-1v-0.66797c0-0.1845-0.14753-0.33203-0.33203-0.33203h-9.3359c-0.184 0-0.33203 0.14753-0.33203 0.33203v7.3359c0 0.184 0.14803 0.33203 0.33203 0.33203h0.66797v1h-1.668c-0.184 0-0.33203-0.14803-0.33203-0.33203v-11.336c0-0.1845 0.14803-0.33203 0.33203-0.33203h11.336z" style="fill:#f1f2f2"/><path d="m14.668 6c0.1845 0 0.332 0.1475 0.332 0.332v8.336c0 0.184-0.1475 0.332-0.332 0.332h-10.336c-0.184 0-0.332-0.148-0.332-0.332v-8.336c0-0.1845 0.148-0.332 0.332-0.332zm-1 3h-8.336c-0.184 0-0.332 0.1475-0.332 0.332v4.336c0 0.184 0.148 0.332 0.332 0.332h8.336c0.1845 0 0.332-0.148 0.332-0.332v-4.336c0-0.1845-0.1475-0.332-0.332-0.332z" style="fill:#f1f2f2"/></svg>
