<?xml version="1.0" encoding="UTF-8"?>
<!--Part of Monotone: https://github.com/sixsixfive/Monotone, released under cc-by-sa_v4-->
<svg version="1.1" viewBox="0 0 16 16" xmlns="http://www.w3.org/2000/svg">
<g fill="#f1f2f2">
<path d="M 1.332,1 C 1.1475,1 1,1.1475 1,1.332 V 14.668 C 1,14.852 1.1475,15 1.332,15 H 14.668 C 14.852,15 15,14.852 15,14.668 V 1.332 C 15,1.1475 14.852,1 14.668,1 Z m 1,3 H 13.668 C 13.852,4 14,4.1475 14,4.332 v 9.336 C 14,13.852 13.852,14 13.668,14 H 2.332 C 2.1475,14 2,13.852 2,13.668 V 4.332 C 2,4.1475 2.1475,4 2.332,4 Z"/>
<path d="m8 5c0.31 0 0.615 0.09 0.812 0.281l3.594 3.719-3.656 3.719c-0.198 0.19-0.44 0.281-0.75 0.281h-1v-1c0-0.257 0.13-0.529 0.312-0.719l1.282-1.281h-3.594c-0.528 7e-3 -1-0.472-1-1s0.472-1.007 1-1h3.625l-1.219-1.281c-0.183-0.19-0.406-0.462-0.406-0.719v-1z" color="#000000" fill="#f1f2f2" style="text-decoration-line:none;text-indent:0;text-transform:none"/>
</g>
</svg>
