<?xml version="1.0" encoding="UTF-8" standalone="no"?>
<!--Part of Monotone: https://github.com/sixsixfive/Monotone, released under cc-by-sa_v4-->
<svg id="svg10" xmlns="http://www.w3.org/2000/svg" version="1.1" viewBox="0 0 16 16"><g id="g8" fill-rule="evenodd"><path id="path2" opacity=".3" stroke-width="2" d="m11.507 4c0.18 0.066-1.625 1.018-1.177 5.6 0.2 2.033 3.219 1.448 5.67 1.639v2.58a2.177 2.177 0 0 1 -2.182 2.181h-11.636a2.177 2.177 0 0 1 -2.182 -2.182v-2.44c1.952-0.108 3.763-0.24 4.56-1.673 2.341-4.211 5.674-5.521 6.736-5.688 0.12-0.019 0.185-0.027 0.211-0.018z" fill="#f1f2f2"/><path id="path4" stroke-width="2" style="text-orientation:mixed;shape-padding:0;font-variant-alternates:normal;text-decoration-color:#000;font-variant-position:normal;font-variant-numeric:normal;mix-blend-mode:normal;isolation:auto;text-indent:0;font-variant-ligatures:normal;text-decoration-line:none;font-variant-caps:normal;font-feature-settings:normal;text-transform:none;text-decoration-style:solid;fill:#f1f2f2" font-family="sans-serif" d="m11.912 3.01c-0.114-0.008-0.157 0-0.197 0.004-0.08 0.008-0.125 0.016-0.186 0.025-0.755 0.119-1.961 0.533-3.396 1.477-1.435 0.943-3.033 2.422-4.264 4.636-0.198 0.357-0.438 0.527-0.892 0.672-0.455 0.146-1.106 0.206-1.856 0.22-0.354 0.008-0.732 0.004-1.121 0.003v2.021c0.39-0.004 0.766-0.015 1.162-0.023 0.817-0.016 1.635-0.064 2.424-0.316 0.79-0.253 1.568-0.772 2.031-1.604 1.059-1.903 2.411-3.147 3.615-3.94 0.017-0.01 0.029-0.012 0.045-0.023-0.254 0.91-0.383 2.048-0.244 3.47 0.097 0.988 0.872 1.761 1.66 2.048 0.789 0.286 1.625 0.314 2.485 0.318 0.98 0.004 1.985-0.006 2.822 0.041v-2.069c-0.974-0.047-1.95 0.033-2.813 0.029-0.786-0.003-1.464-0.073-1.81-0.2-0.346-0.125-0.324-0.08-0.352-0.359-0.23-2.358 0.343-3.458 0.78-4.015 0.218-0.279 0.4-0.41 0.533-0.508 0.033-0.024 0.06-0.042 0.121-0.092 0.03-0.024 0.069-0.048 0.156-0.15 0.044-0.051 0.109-0.119 0.176-0.29 0.067-0.17 0.118-0.534-0.049-0.845a0.988 0.988 0 0 0 -0.56 -0.477c-0.138-0.047-0.213-0.049-0.27-0.052z" fill-rule="nonzero" white-space="normal" overflow="visible" font-weight="400" fill="#ebebeb"/><path id="path6" style="color-rendering:auto;text-decoration-color:#000000;color:#000000;font-variant-numeric:normal;text-orientation:mixed;shape-padding:0;shape-rendering:auto;solid-color:#000000;text-decoration-line:none;fill:#f1f2f2;fill-rule:nonzero;font-variant-position:normal;mix-blend-mode:normal;font-feature-settings:normal;font-variant-alternates:normal;text-indent:0;dominant-baseline:auto;font-variant-caps:normal;image-rendering:auto;white-space:normal;text-decoration-style:solid;font-variant-ligatures:normal;isolation:auto;text-transform:none" d="m2.1816 0c-1.2031 0-2.1816 0.97852-2.1816 2.1816v11.636c0 1.203 0.97852 2.182 2.1816 2.182h11.636c1.203 0 2.182-0.979 2.182-2.182v-11.636c0-1.2035-0.979-2.182-2.182-2.182zm0 1h11.636c0.677 0 1.182 0.5048 1.182 1.1816v11.636c0 0.677-0.505 1.182-1.182 1.182h-11.636c-0.6772 0-1.182-0.505-1.182-1.182v-11.636c0-0.6772 0.5048-1.182 1.1816-1.182z"/></g></svg>
