<?xml version="1.0" encoding="UTF-8" standalone="no"?>
<!--Part of Monotone: https://github.com/sixsixfive/Monotone, released under cc-by-sa_v4-->
<svg xmlns="http://www.w3.org/2000/svg" version="1.1" viewBox="0 0 16 16">
 <path fill="#f1f2f2" d="m2.334 1c-0.739 0-1.334 0.595-1.334 1.334v11.332c0 0.739 0.595 1.334 1.334 1.334h11.332c0.739 0 1.334-0.595 1.334-1.334v-11.332c0-0.739-0.595-1.334-1.334-1.334h-11.332zm1.666 2h2 4c1.662 0 3 1.338 3 3s-1.338 3-3 3h-4-1v1 2c0 0.554-0.446 1-1 1s-1-0.446-1-1v-2-2c0-0.554 0.446-1 1-1h2 4c0.589 0 1-0.4114 1-1s-0.411-1-1-1h-4-2c-0.554 0-1-0.446-1-1s0.446-1 1-1z"/>
</svg>
