<?xml version="1.0" encoding="UTF-8" standalone="no"?>
<!--Part of Monotone: https://github.com/sixsixfive/Monotone, released under cc-by-sa_v4-->
<svg xmlns="http://www.w3.org/2000/svg" version="1.1" viewBox="0 0 16 16">
 <path fill="#f1f2f2" d="m2.334 1c-0.739 0-1.334 0.595-1.334 1.334v11.332c0 0.739 0.595 1.334 1.334 1.334h11.332c0.739 0 1.334-0.595 1.334-1.334v-11.332c0-0.739-0.595-1.334-1.334-1.334h-11.332zm1.666 2c0.554 0 1 0.446 1 1v2 2 1.5859l2.1836-2.1836a1.0001 1.0001 0 0 1 0.7676 -0.4101 1.0001 1.0001 0 0 1 0.0293 -0.002 1.0001 1.0001 0 0 1 0.0078 0 1.0001 1.0001 0 0 1 0.8359 0.42l2.1758 2.1757v-1.5859-2-2c0-0.554 0.446-1 1-1s1 0.446 1 1v2 2 2 1.848a1.0001 1.0001 0 0 1 -1.707 0.859l-3.293-3.2929-3.293 3.2929a1.0001 1.0001 0 0 1 -1.707 -0.859v-1.848-2-2-2c0-0.554 0.446-1 1-1z"/>
</svg>
