<?xml version="1.0" encoding="UTF-8" standalone="no"?>
<!--Part of Monotone: https://github.com/sixsixfive/Monotone, released under cc-by-sa_v4-->
<svg id="svg6" xmlns="http://www.w3.org/2000/svg" version="1.1" viewBox="0 0 16 16"><path id="path2" style="fill:#f1f2f2;text-decoration-line:none;text-transform:none;text-indent:0" d="m7.9883 0.99609c-3.842 0-6.9922 3.1492-6.9922 6.9922 0 3.842 3.1492 7.0156 6.9922 7.0156 3.842 0 7.0156-3.1736 7.0156-7.0156s-3.1736-6.9922-7.0156-6.9922zm0.0117 1.0039c3.3137 0 6 2.6863 6 6s-2.6863 6-6 6-6-2.686-6-6c0-3.3137 2.6863-6 6-6z"/><path id="path4" style="text-decoration-line:none;text-transform:none;text-indent:0" font-family="Sans" d="m8.005 6.006c-1.099 0-2.013 0.898-2.013 1.996 0 1.099 0.914 1.997 2.013 1.997a2.002 2.002 0 0 0 1.997 -1.997 2.002 2.002 0 0 0 -1.997 -1.996zm0 0.998a0.99 0.99 0 0 1 0.998 0.998 0.99 0.99 0 0 1 -0.998 0.999 0.99 0.99 0 0 1 -0.998 -0.999 0.99 0.99 0 0 1 0.998 -0.998z" color="#f1f2f2" overflow="visible" font-weight="400" fill="#f1f2f2"/></svg>
