<!--Part of Monotone: https://github.com/sixsixfive/Monotone, released under cc-by-sa_v4-->
<svg xmlns="http://www.w3.org/2000/svg" viewBox="0 0 16 16">
    <path d="M3 1c-1.108 0-2 .892-2 2v10c0 1.108.892 2 2 2h10c1.108 0 2-.892 2-2V3c0-1.108-.892-2-2-2h-3v1H9v1h1v1H9v1h1v1H9v1h1v1c.554 0 1 .446 1 1s-.446 1-1 1v2.5c0 .831-.669 1.5-1.5 1.5h-1c-.831 0-1.5-.669-1.5-1.5V10c-.554 0-1-.446-1-1s.446-1 1-1h1V7H6V6h1V5H6V4h1V3H6V2h1V1H3zm5 10c-.554 0-1 .446-1 1s.446 1 1 1 1-.446 1-1-.446-1-1-1z" fill="#f1f2f2"/>
</svg>
