<?xml version="1.0" encoding="UTF-8"?>
<!--Part of Monotone: https://github.com/sixsixfive/Monotone, released under cc-by-sa_v4-->
<svg version="1.1" viewBox="0 0 16 16" xmlns="http://www.w3.org/2000/svg">
<rect x="3" y="10" width="2" height="2" ry=".5" style="fill-opacity:.98636;fill:#f1f2f2"/>
<path d="m1 5c-0.554 0-1 0.446-1 1v4c0 0.554 0.446 1 1 1h6c0.554 0 1-0.446 1-1v-4c0-0.554-0.446-1-1-1zm0 1h6v4h-6z" style="fill-opacity:.98636;fill:#f1f2f2"/>
<path d="m9 6c-0.554 0-1 0.446-1 1v4c0 0.554 0.446 1 1 1h6c0.554 0 1-0.446 1-1v-4c0-0.554-0.446-1-1-1zm0 1h6v4h-6z" style="fill-opacity:.98636;fill:#f1f2f2"/>
<rect x="6" y="7" width="2" height="2" style="fill-opacity:.98636;fill:#f1f2f2"/>
<rect x="2" y="7" width="1" height="1" style="fill-opacity:.98636;fill:#f1f2f2"/>
<rect x="11" y="8" width="3" height="1" style="fill-opacity:.98636;fill:#f1f2f2;stroke-width:.86603"/>
<rect x="8" y="8" width="2" height="2" style="fill-opacity:.98636;fill:#f1f2f2;stroke-width:2"/>
<rect x="2" y="12" width="4" height="1" ry=".5" style="fill-opacity:.98636;fill:#f1f2f2"/>
<rect x="3" y="11" width="2" height="2" ry=".5" style="fill-opacity:.98636;fill:#f1f2f2"/>
<rect x="14" y="11" width="1" height="2" ry=".5" style="fill-opacity:.98636;fill:#f1f2f2"/>
<rect x="9" y="11" width="1" height="2" ry=".5" style="fill-opacity:.98636;fill:#f1f2f2"/>
</svg>
