<?xml version="1.0" encoding="UTF-8" standalone="no"?>
<!--Part of Monotone: https://github.com/sixsixfive/Monotone, released under cc-by-sa_v4-->
<svg id="svg4" xmlns="http://www.w3.org/2000/svg" version="1.1" viewBox="0 0 16 16"><path id="path4540" style="fill:#f1f2f2" d="m7.9355 4c-1.3057 0-2.507 0.3921-3.4843 1.0547a2 2 0 0 0 -0.4571 -0.0547 2 2 0 0 0 -1.9941 2.0039 2 2 0 0 0 0.207 0.8672c-0.7349 0.6333-1.207 1.5511-1.207 2.5899v0.539c0 0.554 0.4542 1 1.0195 1h5.1035 5.162c0.95 0 1.715-0.713 1.715-1.6v-0.8609c0-3.0683-2.648-5.5391-5.9355-5.5391h-0.129zm0 0.9941h0.129c2.7895 0 4.9415 2.049 4.9415 4.545v0.8609c0 0.314-0.269 0.606-0.721 0.606h-4.242v-0.006-0.539c0-0.159-0.0258-0.311-0.0469-0.4649 1.0655-0.0511 2.003-0.9294 2.0039-1.9961v-0.0098c-0.0054-1.103-0.9028-1.9934-2.0059-1.9902-0.8462 0.0035-1.5987 0.5393-1.8789 1.3379-0.0439-0.0203-0.0938-0.0282-0.1386-0.0469a2 2 0 0 0 0.0234 -0.291v-0.0098a2 2 0 0 0 -0.5723 -1.3867c0.004 0.004 0.0098 0.0057 0.0137 0.0098 0.7259-0.3904 1.5729-0.6192 2.4941-0.6192zm-3.9394 1.0059a0.99919 0.99919 0 0 1 0.0019 0c0.5235-0.0015 0.9994 0.4707 1.002 0.9941v0.0059c0 0.0148-0.009 0.0282-0.0098 0.043-0.127-0.0143-0.2497-0.043-0.3808-0.043h-0.0762c-0.5256 0-1.0192 0.1183-1.4668 0.3184-0.0383-0.1021-0.0654-0.207-0.0664-0.3164v-0.002c0.0001-0.523 0.473-0.9985 0.9961-1zm4.0019 0.998c0.5237-0.0015 1.0014 0.4725 1.004 0.9961v0.0059c-0.0005 0.5081-0.4457 0.9737-0.9532 0.998-0.5871 0.0271-1.1236 0.5527-1.0429 1.135 0.0239 0.174 0.039 0.276 0.039 0.328v0.539c0 0.008 0.0186 0.002-0.0215 0.002h-5.0039c-0.04 0-0.0215 0.006-0.0215-0.002v-0.539c0-1.3705 1.1034-2.463 2.5352-2.463h0.0762c0.3848 0 0.7478 0.0891 1.0879 0.2461 0.5343 0.2457 1.1643-0.0213 1.3593-0.5761 0.1359-0.3872 0.5311-0.6682 0.9414-0.67zm-2.5 2.002a0.5 0.5 0 0 0 -0.498 0.502 0.5 0.5 0 0 0 0.5 0.498 0.5 0.5 0 0 0 0.5 -0.5v-0.002a0.5 0.5 0 0 0 -0.502 -0.498z"/></svg>
