<?xml version="1.0" encoding="UTF-8" standalone="no"?>
<svg
   xmlns:dc="http://purl.org/dc/elements/1.1/"
   xmlns:cc="http://creativecommons.org/ns#"
   xmlns:rdf="http://www.w3.org/1999/02/22-rdf-syntax-ns#"
   xmlns:svg="http://www.w3.org/2000/svg"
   xmlns="http://www.w3.org/2000/svg"
   id="svg24"
   viewBox="0 0 16 16"
   version="1.1">
  <metadata
     id="metadata30">
    <rdf:RDF>
      <cc:Work
         rdf:about="">
        <dc:format>image/svg+xml</dc:format>
        <dc:type
           rdf:resource="http://purl.org/dc/dcmitype/StillImage" />
        <dc:title></dc:title>
      </cc:Work>
    </rdf:RDF>
  </metadata>
  <defs
     id="defs28" />
  <rect
     transform="scale(-1,1)"
     id="rect2"
     style="fill:#f1f2f2;fill-opacity:0.98636002"
     ry="0.5"
     height="2"
     width="2"
     y="10"
     x="-13" />
  <path
     id="path4"
     style="fill:#f1f2f2;fill-opacity:0.98636002"
     d="m 15,5 c 0.554,0 1,0.446 1,1 v 4 c 0,0.554 -0.446,1 -1,1 H 9 C 8.446,11 8,10.554 8,10 V 6 C 8,5.446 8.446,5 9,5 Z m 0,1 H 9 v 4 h 6 z" />
  <path
     id="path6"
     style="fill:#f1f2f2;fill-opacity:0.98636002"
     d="m 7,6 c 0.554,0 1,0.446 1,1 v 4 c 0,0.554 -0.446,1 -1,1 H 1 C 0.446,12 0,11.554 0,11 V 7 C 0,6.446 0.446,6 1,6 Z M 7,7 H 1 v 4 h 6 z" />
  <rect
     transform="scale(-1,1)"
     id="rect8"
     style="fill:#f1f2f2;fill-opacity:0.98636002"
     height="2"
     width="2"
     y="7"
     x="-10" />
  <rect
     transform="scale(-1,1)"
     id="rect10"
     style="fill:#f1f2f2;fill-opacity:0.98636002"
     height="1"
     width="1"
     y="7"
     x="-14" />
  <rect
     transform="scale(-1,1)"
     id="rect12"
     style="fill:#f1f2f2;fill-opacity:0.98636002;stroke-width:0.86602998"
     height="1"
     width="3"
     y="8"
     x="-5" />
  <rect
     transform="scale(-1,1)"
     id="rect14"
     style="fill:#f1f2f2;fill-opacity:0.98636002;stroke-width:2"
     height="2"
     width="2"
     y="8"
     x="-8" />
  <rect
     transform="scale(-1,1)"
     id="rect16"
     style="fill:#f1f2f2;fill-opacity:0.98636002"
     ry="0.5"
     height="1"
     width="4"
     y="12"
     x="-14" />
  <rect
     transform="scale(-1,1)"
     id="rect18"
     style="fill:#f1f2f2;fill-opacity:0.98636002"
     ry="0.5"
     height="2"
     width="2"
     y="11"
     x="-13" />
  <rect
     transform="scale(-1,1)"
     id="rect20"
     style="fill:#f1f2f2;fill-opacity:0.98636002"
     ry="0.5"
     height="2"
     width="1"
     y="11"
     x="-2" />
  <rect
     transform="scale(-1,1)"
     id="rect22"
     style="fill:#f1f2f2;fill-opacity:0.98636002"
     ry="0.5"
     height="2"
     width="1"
     y="11"
     x="-7" />
</svg>
