<?xml version="1.0" encoding="UTF-8" standalone="no"?>
<!--Part of Monotone: https://github.com/sixsixfive/Monotone, released under cc-by-sa_v4-->
<svg xmlns="http://www.w3.org/2000/svg" version="1" viewBox="0 0 16 16">
<g fill="#f1f2f2">
<path opacity=".5" d="m2 1c-0.554 0-1 0.446-1 1v12c0 0.554 0.446 1 1 1h8v-0.406a1.0001 1.0001 0 0 1 0.293 -0.707l0.355-0.356-0.355-0.353a1.0001 1.0001 0 0 1 -0.293 -0.707v-1.471h-1v-1c0-0.257 0.1305-0.5288 0.3125-0.7188l1.2815-1.2812-1.2815-1.2812c-0.182-0.191-0.3125-0.4618-0.3125-0.7188v-1h1c0.31 0 0.552 0.0912 0.75 0.2812l2.656 2.7188-1.953 2h0.922a1.0001 1.0001 0 0 1 0.697 0.283l0.418 0.406 0.397-0.396a1.0001 1.0001 0 0 1 0.707 -0.293h0.406v-8c0-0.554-0.446-1-1-1h-12zm4 4h1v1c0 0.257-0.1305 0.5278-0.3125 0.7188l-1.2813 1.2812 1.2813 1.2812c0.182 0.19 0.3125 0.4618 0.3125 0.7188v1h-1c-0.31 0-0.552-0.09-0.75-0.281l-2.6562-2.719 2.6562-2.7188c0.198-0.19 0.44-0.2812 0.75-0.2812z"/>
</g>
<path style="color:#f1f2f2" d="m11 11h1.375l1.125 1.094 1.094-1.094h1.406v1.469l-1.094 1.062 1.094 1.063v1.406h-1.438l-1.062-1.063-1.063 1.063h-1.437v-1.406l1.063-1.063-1.063-1.061z" overflow="visible" fill="#f1f2f2"/>
</svg>
