<?xml version="1.0" encoding="UTF-8"?>
<svg version="1.1" viewBox="0 0 16 16" xmlns="http://www.w3.org/2000/svg">
<path d="m5.3574 3c-0.19786 0-0.35742 0.15956-0.35742 0.35742v1.6426h-1.6426c-0.19786 0-0.35742 0.15956-0.35742 0.35742v1.2852c0 0.19786 0.15956 0.35742 0.35742 0.35742h1.6426v2h-2.6423c-0.19786 0-0.35742 0.15956-0.35742 0.35742v1.2852c0 0.19786 0.15956 0.35742 0.35742 0.35742h2.6423v1.6426c0 0.19786 0.15956 0.35742 0.35742 0.35742h1.2852c0.19786 0 0.35742-0.15956 0.35742-0.35742v-1.6426h2v0.64219c0 0.19786 0.15956 0.35742 0.35742 0.35742h1.2852c0.19786 0 0.35742-0.15956 0.35742-0.35742v-0.64219h1.6426c0.19786 0 0.35742-0.15956 0.35742-0.35742v-1.2852c0-0.19786-0.15956-0.35742-0.35742-0.35742h-1.6426v-2h2.6422c0.19786 0 0.35742-0.15956 0.35742-0.35742v-1.2852c0-0.19786-0.15956-0.35742-0.35742-0.35742h-2.6422v-2.6423c0-0.19786-0.15956-0.35742-0.35742-0.35742h-1.2852c-0.19786 0-0.35742 0.15956-0.35742 0.35742v2.6423h-2v-1.6426c0-0.19786-0.15956-0.35742-0.35742-0.35742zm1.6426 4h2v2h-2z" style="fill-opacity:.98513;fill:#f1f2f2"/>
</svg>
