<?xml version="1.0" encoding="UTF-8" standalone="no"?>
<!--Part of Monotone: https://github.com/sixsixfive/Monotone, released under cc-by-sa_v4-->
<svg xmlns="http://www.w3.org/2000/svg" version="1.1" viewBox="0 0 16 16">
 <g fill="#f1f2f2">
  <path style="color:#000000;text-decoration-line:none;text-transform:none;text-indent:0" d="m6.5078 0.99609c-3.027 0-5.5117 2.4789-5.5117 5.5039-0.00001 3.025 2.4837 5.504 5.5117 5.504 2.8611 0 5.2312-2.2108 5.4862-5.004a1.0001 1.0001 0 0 1 -0.994 -1v-1h-1.3379c0.2151 0.455 0.3459 0.959 0.3459 1.5a3.479 3.479 0 0 1 -3.5002 3.4961 3.48 3.48 0 0 1 -3.5 -3.4961 3.479 3.479 0 0 1 2.9922 -3.459v-1.041a1.0001 1.0001 0 0 1 0.8438 -0.9863c-0.1118-0.0069-0.2226-0.01761-0.336-0.01761z"/>
  <path style="color:#000000;text-decoration-line:none;text-transform:none;text-indent:0" d="m9.812 9a1 1 0 0 0 -0.5 1.719l4 4a1.0056 1.0056 0 1 0 1.406 -1.438l-4-4a1 1 0 0 0 -0.906 -0.281z" overflow="visible"/>
  <g transform="rotate(-90 -7.037 24.963)">
   <path d="m17.926 44h-2v-5h-2v5h-2l3 3z"/>
  </g>
 </g>
</svg>
